<?xml version="1.0" encoding="iso-8859-1"?>
<!-- Generator: Adobe Illustrator 19.0.0, SVG Export Plug-In . SVG Version: 6.00 Build 0)  -->
<svg version="1.1" id="Layer_1" xmlns="http://www.w3.org/2000/svg" xmlns:xlink="http://www.w3.org/1999/xlink" x="0px" y="0px"
	 viewBox="0 0 512 512" style="enable-background:new 0 0 512 512;" xml:space="preserve">
<rect x="173.419" y="90.839" style="fill:#FFE000;" width="165.161" height="330.323"/>
<path style="fill:#ED1F34;" d="M468.324,90.839H338.581v330.323h129.743c19.561,0,35.418-15.857,35.418-35.418V126.256
	C503.742,106.695,487.884,90.839,468.324,90.839z"/>
<path style="fill:#164FCE;" d="M43.676,90.839c-19.561,0-35.418,15.857-35.418,35.417v259.487c0,19.561,15.858,35.418,35.418,35.418
	h129.743V90.839H43.676z"/>
<rect x="206.452" y="206.408" style="fill:#FFE000;" width="49.548" height="55.373"/>
<path style="fill:#ED1F34;" d="M206.451,261.781v14.92c0,37.77,32.961,28.63,49.549,40.458v-55.378H206.451z"/>
<path style="fill:#FFE000;" d="M305.549,261.781v14.92c0,37.77-32.961,28.63-49.549,40.458v-55.378H305.549z"/>
<rect x="256" y="206.408" style="fill:#ED1F34;" width="49.548" height="55.373"/>
<g>
	<path style="fill:#121B21;" d="M235.215,318.167c6.225,1.514,12.105,2.944,15.991,5.715c1.435,1.023,3.114,1.535,4.794,1.535
		s3.359-0.511,4.794-1.535c3.886-2.77,9.765-4.201,15.991-5.715c15.624-3.8,37.021-9.005,37.021-41.467v-70.297
		c0-4.561-3.697-8.258-8.258-8.258h-99.098c-4.561,0-8.258,3.697-8.258,8.258V276.7
		C198.192,309.162,219.591,314.367,235.215,318.167z M214.709,214.661h82.582V276.7c0,19.481-9.187,21.717-24.409,25.418
		c-5.701,1.387-11.551,2.81-16.882,5.458c-5.33-2.648-11.18-4.071-16.882-5.458c-15.221-3.702-24.41-5.937-24.41-25.418V214.661z"/>
	<path style="fill:#121B21;" d="M468.324,82.581H43.676C19.593,82.581,0,102.173,0,126.256v259.487
		c0,24.084,19.593,43.676,43.676,43.676h424.648c24.083,0,43.675-19.593,43.675-43.676V126.256
		C512,102.173,492.407,82.581,468.324,82.581z M16.516,385.743V126.256c0-14.976,12.183-27.159,27.16-27.159h121.485v57.806
		c0,4.561,3.697,8.258,8.258,8.258s8.258-3.697,8.258-8.258V99.097h148.645v313.806H181.677V189.935
		c0-4.561-3.697-8.258-8.258-8.258s-8.258,3.697-8.258,8.258v222.968H43.676C28.7,412.903,16.516,400.72,16.516,385.743z
		 M495.484,385.743c0,14.977-12.183,27.16-27.16,27.16H346.839V99.097h121.485c14.977,0,27.16,12.183,27.16,27.159V385.743z"/>
</g>
<g>
</g>
<g>
</g>
<g>
</g>
<g>
</g>
<g>
</g>
<g>
</g>
<g>
</g>
<g>
</g>
<g>
</g>
<g>
</g>
<g>
</g>
<g>
</g>
<g>
</g>
<g>
</g>
<g>
</g>
</svg>
