<?xml version="1.0" encoding="iso-8859-1"?>
<!-- Generator: Adobe Illustrator 19.0.0, SVG Export Plug-In . SVG Version: 6.00 Build 0)  -->
<svg version="1.1" id="Layer_1" xmlns="http://www.w3.org/2000/svg" xmlns:xlink="http://www.w3.org/1999/xlink" x="0px" y="0px"
	 viewBox="0 0 512 512" style="enable-background:new 0 0 512 512;" xml:space="preserve">
<rect x="173.419" y="200.946" style="fill:#FFFFFF;" width="330.323" height="110.108"/>
<path style="fill:#259245;" d="M173.419,200.946h330.323v-74.873c0-19.459-15.775-35.234-35.234-35.234H173.419V200.946z"/>
<path style="fill:#333333;" d="M173.419,421.161h295.088c19.459,0,35.234-15.775,35.234-35.234v-74.873H173.419V421.161z"/>
<path style="fill:#ED1F34;" d="M173.419,90.839v330.323H43.492c-19.459,0-35.234-15.775-35.234-35.234V126.073
	c0-19.459,15.775-35.234,35.234-35.234H173.419z"/>
<path style="fill:#111A21;" d="M468.324,82.581H43.675C19.593,82.581,0,102.173,0,126.256v259.487
	c0,24.084,19.593,43.676,43.675,43.676h424.648c24.084,0,43.676-19.593,43.676-43.676V126.256
	C512,102.173,492.407,82.581,468.324,82.581z M495.484,126.256v66.432H240.376c-4.561,0-8.258,3.697-8.258,8.258
	s3.697,8.258,8.258,8.258h255.108v93.591H181.677v-93.591h25.666c4.561,0,8.258-3.697,8.258-8.258s-3.697-8.258-8.258-8.258h-25.666
	V99.097h286.646C483.3,99.097,495.484,111.28,495.484,126.256z M16.516,385.743V126.256c0-14.976,12.183-27.159,27.159-27.159
	h121.486v313.806H43.675C28.7,412.903,16.516,400.72,16.516,385.743z M468.324,412.903H181.677v-93.591h313.806v66.431
	C495.484,400.72,483.3,412.903,468.324,412.903z"/>
<g>
</g>
<g>
</g>
<g>
</g>
<g>
</g>
<g>
</g>
<g>
</g>
<g>
</g>
<g>
</g>
<g>
</g>
<g>
</g>
<g>
</g>
<g>
</g>
<g>
</g>
<g>
</g>
<g>
</g>
</svg>
