<?xml version="1.0" encoding="iso-8859-1"?>
<!-- Generator: Adobe Illustrator 19.0.0, SVG Export Plug-In . SVG Version: 6.00 Build 0)  -->
<svg version="1.1" id="Layer_1" xmlns="http://www.w3.org/2000/svg" xmlns:xlink="http://www.w3.org/1999/xlink" x="0px" y="0px"
	 viewBox="0 0 512 512" style="enable-background:new 0 0 512 512;" xml:space="preserve">
<rect x="173.419" y="90.839" style="fill:#ED1F34;" width="165.161" height="330.323"/>
<path style="fill:#333333;" d="M173.419,90.839v330.323H44.594c-20.067,0-36.335-16.268-36.335-36.335V127.174
	c0-20.067,16.268-36.335,36.335-36.335H173.419z"/>
<path style="fill:#259245;" d="M503.742,127.174v257.652c0,20.067-16.268,36.335-36.335,36.335H338.581V90.839h128.826
	C487.474,90.839,503.742,107.107,503.742,127.174z"/>
<g>
	<path style="fill:#FFFFFF;" d="M256,313.806c-31.875,0-57.806-25.931-57.806-57.806s25.931-57.806,57.806-57.806
		c31.874,0,57.806,25.931,57.806,57.806S287.874,313.806,256,313.806z M256,214.71c-22.768,0-41.29,18.522-41.29,41.29
		s18.522,41.29,41.29,41.29s41.29-18.522,41.29-41.29S278.768,214.71,256,214.71z"/>
	<path style="fill:#FFFFFF;" d="M256,231.226c-13.66,0-24.774,11.114-24.774,24.774S242.34,280.774,256,280.774
		S280.774,269.66,280.774,256S269.66,231.226,256,231.226z"/>
</g>
<path style="fill:#111A21;" d="M468.324,82.581H43.676C19.593,82.581,0,102.173,0,126.257v259.487
	c0,24.083,19.593,43.675,43.676,43.675h424.648c24.082,0,43.675-19.593,43.675-43.676V126.257
	C512,102.173,492.406,82.581,468.324,82.581z M16.516,385.743V126.257c0-14.977,12.183-27.16,27.16-27.16h121.485v313.806H43.676
	C28.7,412.903,16.516,400.72,16.516,385.743z M495.484,385.743c0,14.977-12.183,27.16-27.16,27.16H346.839V189.935
	c0-4.561-3.696-8.258-8.258-8.258s-8.258,3.697-8.258,8.258v222.968H181.677V99.097h148.645v57.806c0,4.561,3.696,8.258,8.258,8.258
	s8.258-3.697,8.258-8.258V99.097h121.485c14.977,0,27.16,12.183,27.16,27.16V385.743z"/>
<g>
</g>
<g>
</g>
<g>
</g>
<g>
</g>
<g>
</g>
<g>
</g>
<g>
</g>
<g>
</g>
<g>
</g>
<g>
</g>
<g>
</g>
<g>
</g>
<g>
</g>
<g>
</g>
<g>
</g>
</svg>
