<?xml version="1.0" encoding="iso-8859-1"?>
<!-- Generator: Adobe Illustrator 19.0.0, SVG Export Plug-In . SVG Version: 6.00 Build 0)  -->
<svg version="1.1" id="Layer_1" xmlns="http://www.w3.org/2000/svg" xmlns:xlink="http://www.w3.org/1999/xlink" x="0px" y="0px"
	 viewBox="0 0 512 512" style="enable-background:new 0 0 512 512;" xml:space="preserve">
<path style="fill:#333333;" d="M8.258,126.281v259.438c0,19.574,15.869,35.443,35.443,35.443h424.599
	c19.574,0,35.443-15.868,35.443-35.443V126.281c0-19.574-15.868-35.443-35.443-35.443H43.701
	C24.127,90.839,8.258,106.706,8.258,126.281z"/>
<rect x="8.258" y="222.968" style="fill:#3DB4EA;" width="495.484" height="99.097"/>
<rect x="8.258" y="322.065" style="fill:#FFFFFF;" width="495.484" height="99.097"/>
<g>
	<path style="fill:#ED1F34;" d="M256,421.161h217.994c16.429,0,29.748-13.319,29.748-29.748V113.301
		c0-7.196-9.16-10.249-13.477-4.492L256,421.161z"/>
	<path style="fill:#ED1F34;" d="M8.258,114.732v272.112c0,18.953,15.364,34.317,34.317,34.317H256L22.594,109.953
		C18.001,103.83,8.258,107.078,8.258,114.732z"/>
</g>
<polygon style="fill:#FFE000;" points="358.4,222.968 320.094,210.218 350.605,183.78 310.336,186.662 328.408,150.56 
	292.306,168.632 295.187,128.362 268.749,158.874 256,120.568 243.251,158.874 216.814,128.362 219.694,168.632 183.592,150.56 
	201.664,186.662 161.395,183.78 191.906,210.218 153.6,222.968 "/>
<path style="fill:#121B21;" d="M468.324,82.581H43.676c-12.841,0-24.403,5.573-32.402,14.424c-0.233,0.241-0.451,0.49-0.651,0.752
	C4.012,105.411,0,115.372,0,126.257v259.486c0,24.083,19.594,43.676,43.676,43.676h424.647c24.083,0,43.676-19.594,43.676-43.676
	V126.257C512,102.174,492.406,82.581,468.324,82.581z M43.676,99.097h424.647c5.686,0,10.967,1.76,15.334,4.758L400.516,214.71
	h-40.778l-23.277-7.747l19.552-16.941c2.688-2.328,3.583-6.116,2.222-9.401c-1.359-3.285-4.672-5.349-8.218-5.076l-25.805,1.845
	l11.581-23.132c1.591-3.18,0.969-7.022-1.545-9.536c-2.515-2.513-6.359-3.135-9.536-1.545l-23.132,11.581l1.845-25.805
	c0.253-3.548-1.791-6.859-5.076-8.218c-3.283-1.363-7.074-0.468-9.401,2.222l-16.941,19.552l-8.17-24.546
	c-1.123-3.374-4.28-5.651-7.835-5.651c-3.555,0-6.713,2.276-7.835,5.651l-8.17,24.546l-16.941-19.552
	c-2.329-2.688-6.116-3.584-9.401-2.222c-3.285,1.36-5.33,4.671-5.076,8.218l1.845,25.805l-23.132-11.581
	c-3.179-1.589-7.022-0.968-9.536,1.545c-2.514,2.515-3.137,6.357-1.545,9.536l11.581,23.132l-25.805-1.845
	c-3.538-0.276-6.859,1.791-8.218,5.076c-1.361,3.285-0.467,7.073,2.222,9.401l19.552,16.941l-23.279,7.747h-40.778L28.343,103.853
	C32.71,100.856,37.99,99.097,43.676,99.097z M311.994,211.829c0.208,1.044,0.618,2.016,1.178,2.88H198.826
	c0.562-0.864,0.971-1.837,1.178-2.88c0.579-2.911-0.448-5.908-2.691-7.852l-11.759-10.189l15.521,1.11
	c2.973,0.229,5.807-1.18,7.455-3.648c1.648-2.467,1.846-5.631,0.519-8.286l-6.964-13.912l13.912,6.964
	c2.655,1.327,5.818,1.128,8.286-0.519c2.467-1.649,3.86-4.496,3.648-7.455l-1.11-15.521l10.189,11.759
	c1.943,2.244,4.936,3.277,7.852,2.691c2.91-0.578,5.287-2.676,6.224-5.491l4.914-14.764l4.914,14.764
	c0.938,2.817,3.314,4.913,6.224,5.491c2.912,0.585,5.908-0.446,7.852-2.691l10.189-11.759l-1.11,15.521
	c-0.211,2.96,1.18,5.806,3.648,7.455c2.469,1.648,5.629,1.847,8.284,0.519l13.912-6.964l-6.964,13.912
	c-1.328,2.654-1.13,5.817,0.519,8.286c1.648,2.468,4.49,3.878,7.456,3.648l15.521-1.11l-11.759,10.189
	C312.443,205.921,311.415,208.918,311.994,211.829z M43.676,412.903c-14.977,0-27.16-12.183-27.16-27.16V126.257
	c0-3.05,0.513-5.981,1.445-8.719l221.523,295.366H43.676z M495.484,385.743c0,14.977-12.183,27.16-27.16,27.16H272.516l9.91-13.213
	c2.736-3.649,1.997-8.825-1.652-11.561c-3.65-2.736-8.825-1.998-11.561,1.652L256,407.398L123.871,231.226h29.82
	c0.034,0,0.067,0.001,0.1,0h204.582c0.009,0,0.018,0.002,0.026,0.002c0.009,0,0.018-0.002,0.028-0.002h29.702l-99.097,132.129
	c-2.736,3.649-1.997,8.825,1.652,11.561c1.486,1.114,3.224,1.652,4.948,1.652c2.51,0,4.99-1.14,6.613-3.303L494.04,117.538
	c0.932,2.739,1.444,5.669,1.444,8.719V385.743z"/>
<g>
</g>
<g>
</g>
<g>
</g>
<g>
</g>
<g>
</g>
<g>
</g>
<g>
</g>
<g>
</g>
<g>
</g>
<g>
</g>
<g>
</g>
<g>
</g>
<g>
</g>
<g>
</g>
<g>
</g>
</svg>
