<?xml version="1.0" encoding="iso-8859-1"?>
<!-- Generator: Adobe Illustrator 19.0.0, SVG Export Plug-In . SVG Version: 6.00 Build 0)  -->
<svg version="1.1" id="Layer_1" xmlns="http://www.w3.org/2000/svg" xmlns:xlink="http://www.w3.org/1999/xlink" x="0px" y="0px"
	 viewBox="0 0 512 512" style="enable-background:new 0 0 512 512;" xml:space="preserve">
<path style="fill:#103B9B;" d="M503.68,126.177v259.519c0,19.584-15.872,35.392-35.392,35.392H43.712
	c-19.584,0-35.392-15.872-35.392-35.392v-259.52c0-19.584,15.872-35.392,35.392-35.392h424.576
	C487.872,90.72,503.68,106.592,503.68,126.177z"/>
<path style="fill:#FFFFFF;" d="M327.808,184.288c5.888,9.216,15.424,15.296,26.112,15.296c10.688,0,20.224-6.016,26.112-15.296
	c5.888,9.216,15.424,15.296,26.112,15.296s20.224-6.016,26.112-15.296c5.824,12.928,9.216,28.224,9.216,44.608
	c0,66.432-61.376,98.496-61.376,98.496s-61.376-32.192-61.376-98.496C318.528,212.577,321.92,197.28,327.808,184.288z"/>
<path style="fill:#3DB4EA;" d="M327.104,270.177c16.896,38.528,52.672,57.216,52.672,57.216s35.776-18.816,52.672-57.28
	L327.104,270.177L327.104,270.177z"/>
<path style="fill:#FFE000;" d="M379.903,262.153c-13.22,0-23.977-10.757-23.977-23.977s10.757-23.977,23.977-23.977
	c13.221,0,23.978,10.757,23.978,23.977S393.125,262.153,379.903,262.153z M379.903,229.129c-4.989,0-9.047,4.059-9.047,9.047
	s4.058,9.047,9.047,9.047c4.989,0,9.048-4.059,9.048-9.047S384.892,229.129,379.903,229.129z"/>
<path style="fill:#FFFFFF;" d="M256,90.72h-40.192l-83.712,55.808L48.513,90.72c0,0-9.92,0.448-13.248,1.088
	c-13.888,2.881-24.32,17.088-26.048,26.304l-0.896-0.64l83.712,55.808L8.321,229.088v26.816h40.192l83.712-55.808l83.712,55.808H256
	v-26.816l-83.712-55.808L256,117.471V90.72z"/>
<path style="fill:#ED1F34;" d="M145.472,182.304L256,255.904v-17.472l-110.592-73.92L256,90.72h-26.816L118.72,164.383L20.8,99.104
	c-3.776,3.2-6.912,7.232-9.088,11.776l106.88,71.424L8.32,255.904h26.816L145.472,182.304z"/>
<polygon style="fill:#FFFFFF;" points="256,151.008 154.368,151.008 154.368,90.72 109.824,90.72 109.824,151.008 8.32,151.008 
	8.32,195.616 109.824,195.616 109.824,255.904 154.368,255.904 154.368,195.616 256,195.616 "/>
<polygon style="fill:#ED1F34;" points="256,161.312 144.128,161.312 144.128,90.72 120.192,90.72 120.192,161.312 8.32,161.312 
	8.32,185.312 120.192,185.312 120.192,255.904 144.128,255.904 144.128,185.312 256,185.312 "/>
<path style="fill:#1A1C20;" d="M432.704,176.097c-3.072-0.192-5.888,1.216-7.616,3.776c-4.608,7.296-11.584,11.392-19.072,11.392
	c-7.488,0-14.528-4.224-19.072-11.392c-1.472-2.432-4.096-3.776-6.976-3.776l0,0c-2.816,0-5.376,1.408-6.976,3.776
	c-4.672,7.296-11.584,11.52-19.072,11.52c-7.488,0-14.528-4.224-19.072-11.392c-1.6-2.624-4.48-4.032-7.488-3.776
	c-3.008,0.192-5.696,2.112-6.912,4.8c-6.592,14.399-9.984,30.976-9.984,48c0,29.312,11.392,56.896,32.896,79.808
	c16.128,17.216,32.192,25.728,32.896,25.984c1.216,0.576,2.496,0.896,3.776,0.896c1.28,0,2.624-0.32,3.776-0.896
	c0.704-0.384,16.768-8.896,32.896-25.984c21.504-22.912,32.896-50.496,32.896-79.808c0-16.896-3.392-33.472-9.92-48
	C438.272,178.208,435.712,176.288,432.704,176.097z M379.904,317.92c-12.8-8.128-53.12-37.632-53.12-88.896
	c0-10.112,1.408-20.032,4.096-29.121c6.72,5.184,14.72,8,22.976,8c9.6,0,18.816-3.904,26.112-10.688
	c7.232,6.784,16.512,10.688,26.112,10.688c8.32,0,16.32-2.88,22.976-8c2.688,9.216,4.032,19.072,4.032,29.121
	C433.024,280.032,392.576,309.728,379.904,317.92z M468.288,82.528H43.712C19.584,82.528,0,102.112,0,126.24V385.76
	c0,24.128,19.584,43.712,43.712,43.712h424.576c24.128,0,43.712-19.584,43.712-43.712V126.24
	C512,102.112,492.416,82.528,468.288,82.528z M495.488,385.632c0,14.976-12.224,27.201-27.199,27.201H43.712
	c-14.976,0-27.2-12.224-27.2-27.201V126.24c0-14.976,12.224-27.2,27.2-27.2h424.576c14.976,0,27.199,12.224,27.199,27.2v259.392
	H495.488z"/>
<g>
</g>
<g>
</g>
<g>
</g>
<g>
</g>
<g>
</g>
<g>
</g>
<g>
</g>
<g>
</g>
<g>
</g>
<g>
</g>
<g>
</g>
<g>
</g>
<g>
</g>
<g>
</g>
<g>
</g>
</svg>
