<?xml version="1.0" encoding="iso-8859-1"?>
<!-- Generator: Adobe Illustrator 19.0.0, SVG Export Plug-In . SVG Version: 6.00 Build 0)  -->
<svg version="1.1" id="Layer_1" xmlns="http://www.w3.org/2000/svg" xmlns:xlink="http://www.w3.org/1999/xlink" x="0px" y="0px"
	 viewBox="0 0 512 512" style="enable-background:new 0 0 512 512;" xml:space="preserve">
<path style="fill:#ED1F34;" d="M8.258,387.212V124.788c0-18.749,15.2-33.949,33.949-33.949h427.584
	c18.75,0,33.949,15.2,33.949,33.949v262.423c0,18.75-15.2,33.949-33.949,33.949H42.208C23.458,421.161,8.258,405.961,8.258,387.212z
	"/>
<path style="fill:#333333;" d="M345.887,190.882H294.72c0,21.385-17.335,38.72-38.72,38.72s-38.72-17.336-38.72-38.72h-51.167
	c0,44.167,31.865,80.867,73.854,88.433l-8.899,50.303h49.867l-8.9-50.303C314.022,271.75,345.887,235.05,345.887,190.882z"/>
<path style="fill:#121B21;" d="M367.909,228.617c4.562,0,8.258-3.697,8.258-8.258s-3.696-8.258-8.258-8.258H351.83
	c0.933-4.233,1.603-8.558,1.971-12.961h14.108c4.562,0,8.258-3.697,8.258-8.258s-3.696-8.258-8.258-8.258h-22.022H294.72
	c-4.562,0-8.258,3.697-8.258,8.258c0,8.428-3.441,16.066-8.991,21.587v-47.256h15.966c4.562,0,8.258-3.697,8.258-8.258
	s-3.696-8.258-8.258-8.258h-24.224c-4.562,0-8.258,3.697-8.258,8.258v63.98c-1.613,0.265-3.267,0.41-4.955,0.41
	c-1.688,0-3.342-0.144-4.955-0.41v-63.98c0-4.561-3.696-8.258-8.258-8.258h-24.224c-4.562,0-8.258,3.697-8.258,8.258
	s3.696,8.258,8.258,8.258h15.966v47.256c-5.549-5.521-8.991-13.159-8.991-21.587c0-4.561-3.696-8.258-8.258-8.258h-51.167h-22.022
	c-4.562,0-8.258,3.697-8.258,8.258s3.696,8.258,8.258,8.258h14.108c0.368,4.404,1.038,8.728,1.971,12.961h-16.079
	c-4.562,0-8.258,3.697-8.258,8.258s3.696,8.258,8.258,8.258h21.297c1.87,4.492,4.056,8.825,6.55,12.961h-27.846
	c-4.562,0-8.258,3.697-8.258,8.258s3.696,8.258,8.258,8.258h40.37c12.209,12.999,27.978,22.726,45.999,27.55l-6.318,35.714h-15.096
	c-4.562,0-8.258,3.697-8.258,8.258c0,4.561,3.696,8.258,8.258,8.258h22.021h16.674v17.169c0,4.561,3.696,8.258,8.258,8.258
	c4.562,0,8.258-3.697,8.258-8.258v-17.168h16.676h22.022c4.562,0,8.258-3.697,8.258-8.258c0-4.561-3.696-8.258-8.258-8.258H287.86
	l-6.318-35.715c18.019-4.824,33.79-14.551,45.999-27.55h40.37c4.562,0,8.258-3.697,8.258-8.258s-3.696-8.258-8.258-8.258h-27.846
	c2.494-4.136,4.681-8.468,6.55-12.961h21.295V228.617z M270.569,271.188c-4.478,0.807-7.46,5.085-6.668,9.566l7.183,40.605h-30.172
	l7.183-40.605c0.793-4.481-2.189-8.759-6.668-9.566c-18.675-3.365-34.878-12.926-46.682-26.326
	c-0.262-0.346-0.547-0.672-0.859-0.972c-10.546-12.362-17.405-27.863-19.105-44.75h34.965c2.94,16.51,14.534,30.063,29.907,35.786
	c0.26,0.107,0.526,0.198,0.798,0.279c4.869,1.713,10.099,2.656,15.546,2.656s10.677-0.943,15.546-2.656
	c0.272-0.08,0.54-0.173,0.799-0.28c15.372-5.723,26.966-19.277,29.906-35.786h34.965c-1.7,16.887-8.559,32.388-19.105,44.75
	c-0.312,0.301-0.597,0.625-0.859,0.972C305.447,258.263,289.245,267.822,270.569,271.188z M468.324,429.419H43.676
	C19.594,429.419,0,409.827,0,385.743V126.257c0-24.084,19.594-43.676,43.676-43.676h424.647c24.083,0,43.676,19.593,43.676,43.676
	v259.487C512,409.827,492.406,429.419,468.324,429.419z M43.676,99.097c-14.977,0-27.16,12.183-27.16,27.16v259.487
	c0,14.976,12.183,27.159,27.16,27.159h424.647c14.977,0,27.16-12.183,27.16-27.16V126.257c0-14.977-12.183-27.16-27.16-27.16H43.676
	z"/>
<g>
</g>
<g>
</g>
<g>
</g>
<g>
</g>
<g>
</g>
<g>
</g>
<g>
</g>
<g>
</g>
<g>
</g>
<g>
</g>
<g>
</g>
<g>
</g>
<g>
</g>
<g>
</g>
<g>
</g>
</svg>
