<?xml version="1.0" encoding="iso-8859-1"?>
<!-- Generator: Adobe Illustrator 19.0.0, SVG Export Plug-In . SVG Version: 6.00 Build 0)  -->
<svg version="1.1" id="Layer_1" xmlns="http://www.w3.org/2000/svg" xmlns:xlink="http://www.w3.org/1999/xlink" x="0px" y="0px"
	 viewBox="0 0 512 512" style="enable-background:new 0 0 512 512;" xml:space="preserve">
<path style="fill:#ED1F34;" d="M468.324,90.839H43.676c-19.561,0-35.418,15.857-35.418,35.418V256h495.484V126.257
	C503.742,106.695,487.885,90.839,468.324,90.839z"/>
<path style="fill:#333333;" d="M8.258,385.743c0,19.562,15.858,35.418,35.418,35.418h424.648c19.561,0,35.418-15.857,35.418-35.418
	V256H8.258V385.743z"/>
<path style="fill:#111A21;" d="M468.324,82.581H43.676C19.594,82.581,0,102.174,0,126.257v259.486
	c0,24.083,19.594,43.676,43.676,43.676h424.647c24.083,0,43.676-19.594,43.676-43.676V126.257
	C512,102.174,492.406,82.581,468.324,82.581z M468.324,412.903H43.676c-14.977,0-27.16-12.183-27.16-27.16V264.258H41.29
	c4.562,0,8.258-3.696,8.258-8.258c0-4.562-3.696-8.258-8.258-8.258H16.516V126.257c0-14.977,12.183-27.16,27.16-27.16h424.647
	c14.977,0,27.16,12.183,27.16,27.16v121.485H74.323c-4.562,0-8.258,3.696-8.258,8.258c0,4.562,3.696,8.258,8.258,8.258h421.161
	v121.485C495.484,400.72,483.3,412.903,468.324,412.903z"/>
<g>
	<path style="fill:#FFE000;" d="M375.961,355.681c-1.635,0-3.287-0.486-4.729-1.495c-3.737-2.616-4.644-7.766-2.028-11.501
		l7.158-10.222c2.616-3.736,7.765-4.644,11.501-2.028c3.737,2.616,4.644,7.766,2.028,11.501l-7.158,10.222
		C381.127,354.454,378.565,355.681,375.961,355.681z"/>
	<path style="fill:#FFE000;" d="M410.177,364.406c-1.635,0-3.287-0.486-4.729-1.494L234.147,242.964
		c-0.716,6.163,1.883,12.52,7.311,16.321l98.581,69.026c3.737,2.616,4.644,7.766,2.028,11.501
		c-2.615,3.737-7.763,4.645-11.501,2.028l-98.581-69.026c-15.335-10.738-19.074-31.95-8.336-47.282
		c2.616-3.736,7.766-4.643,11.501-2.028l179.773,125.878c3.737,2.616,4.644,7.766,2.028,11.501
		C415.343,363.179,412.781,364.405,410.177,364.406z"/>
	<path style="fill:#FFE000;" d="M265.275,329.754c-18.693,0-36.908-5.707-52.539-16.652c-10.305-7.216-18.87-16.274-25.455-26.925
		c-2.399-3.879-1.199-8.969,2.681-11.366c3.879-2.399,8.969-1.198,11.366,2.68c5.399,8.732,12.423,16.16,20.881,22.082
		c16.503,11.556,36.517,15.993,56.359,12.495c19.839-3.499,37.13-14.514,48.686-31.017c11.556-16.503,15.992-36.518,12.495-56.359
		c-3.498-19.84-14.513-37.13-31.016-48.686c-8.457-5.922-17.842-9.982-27.891-12.069c-4.466-0.928-7.334-5.299-6.407-9.764
		c0.928-4.468,5.312-7.331,9.764-6.407c12.26,2.547,23.702,7.496,34.008,14.711c20.118,14.086,33.544,35.162,37.809,59.347
		c4.263,24.184-1.145,48.582-15.231,68.699c-14.086,20.118-35.163,33.544-59.347,37.809
		C276.044,329.284,270.639,329.754,265.275,329.754z"/>
	<circle style="fill:#FFE000;" cx="256.462" cy="193.063" r="21.471"/>
</g>
<g>
</g>
<g>
</g>
<g>
</g>
<g>
</g>
<g>
</g>
<g>
</g>
<g>
</g>
<g>
</g>
<g>
</g>
<g>
</g>
<g>
</g>
<g>
</g>
<g>
</g>
<g>
</g>
<g>
</g>
</svg>
