<?xml version="1.0" encoding="iso-8859-1"?>
<!-- Generator: Adobe Illustrator 19.0.0, SVG Export Plug-In . SVG Version: 6.00 Build 0)  -->
<svg version="1.1" id="Layer_1" xmlns="http://www.w3.org/2000/svg" xmlns:xlink="http://www.w3.org/1999/xlink" x="0px" y="0px"
	 viewBox="0 0 512 512" style="enable-background:new 0 0 512 512;" xml:space="preserve">
<rect x="8.258" y="200.946" style="fill:#FFFFFF;" width="495.484" height="110.108"/>
<path style="fill:#F2A643;" d="M256,225.72c-16.696,0-30.28,13.584-30.28,30.28c0,16.696,13.584,30.28,30.28,30.28
	c16.696,0,30.28-13.584,30.28-30.28C286.28,239.304,272.696,225.72,256,225.72z"/>
<g>
	<path style="fill:#3DB4EA;" d="M8.258,311.054h495.484v74.597c0,19.612-15.9,35.511-35.511,35.511H43.769
		c-19.611,0-35.511-15.9-35.511-35.511V311.054z"/>
	<path style="fill:#3DB4EA;" d="M43.769,90.839H468.23c19.612,0,35.511,15.898,35.511,35.512v74.596H8.258v-74.596
		C8.258,106.737,24.158,90.839,43.769,90.839z"/>
</g>
<path style="fill:#121B21;" d="M468.324,82.581H43.676C19.594,82.581,0,102.174,0,126.257v259.486
	c0,24.083,19.594,43.676,43.676,43.676h424.647c24.083,0,43.676-19.594,43.676-43.676V126.257
	C512,102.174,492.406,82.581,468.324,82.581z M16.516,209.204h478.968v93.591H16.516V209.204z M43.676,99.097h424.647
	c14.977,0,27.16,12.183,27.16,27.16v66.431H16.516v-66.431C16.516,111.28,28.7,99.097,43.676,99.097z M468.324,412.903H43.676
	c-14.977,0-27.16-12.183-27.16-27.16v-66.431h478.968v66.431C495.484,400.72,483.3,412.903,468.324,412.903z"/>
<g>
</g>
<g>
</g>
<g>
</g>
<g>
</g>
<g>
</g>
<g>
</g>
<g>
</g>
<g>
</g>
<g>
</g>
<g>
</g>
<g>
</g>
<g>
</g>
<g>
</g>
<g>
</g>
<g>
</g>
</svg>
