<?xml version="1.0" encoding="iso-8859-1"?>
<!-- Generator: Adobe Illustrator 19.0.0, SVG Export Plug-In . SVG Version: 6.00 Build 0)  -->
<svg version="1.1" id="Layer_1" xmlns="http://www.w3.org/2000/svg" xmlns:xlink="http://www.w3.org/1999/xlink" x="0px" y="0px"
	 viewBox="0 0 512 512" style="enable-background:new 0 0 512 512;" xml:space="preserve">
<path style="fill:#103B9B;" d="M38.045,421.161h435.91c16.451,0,29.787-13.336,29.787-29.787V120.626
	c0-16.451-13.336-29.787-29.787-29.787H38.045c-16.451,0-29.787,13.336-29.787,29.787v270.749
	C8.258,407.825,21.594,421.161,38.045,421.161z"/>
<path style="fill:#FFFFFF;" d="M503.742,118.655v274.689c0,13.623-13.419,23.19-26.297,18.749L24.774,256L477.445,99.907
	C490.323,95.465,503.742,105.033,503.742,118.655z"/>
<path style="fill:#ED1F34;" d="M485.987,424.698c-0.9,0-1.815-0.149-2.713-0.46L22.061,263.8c-3.324-1.157-5.549-4.292-5.545-7.811
	s2.238-6.649,5.566-7.796L480.984,89.951c4.314-1.486,9.013,0.803,10.499,5.114c1.488,4.312-0.804,9.013-5.114,10.499
	L50.008,256.034L488.7,408.638c4.307,1.499,6.584,6.206,5.087,10.513C492.601,422.561,489.404,424.698,485.987,424.698z"/>
<path style="fill:#F2A643;" d="M344.467,207.919c-13.185,0-23.876,10.689-23.876,23.876s10.689,23.876,23.876,23.876
	c0,13.186,10.689,24.205,23.876,24.205h31.715V256l46.067-48.081L344.467,207.919L344.467,207.919z"/>
<path style="fill:#1A1C20;" d="M446.124,247.742h-26.719l32.681-34.11c2.289-2.388,2.931-5.912,1.633-8.955
	c-1.299-3.042-4.289-5.016-7.595-5.016H344.467c-17.719,0-32.134,14.415-32.134,32.135c0,5.803,1.556,11.243,4.257,15.946h-8.289
	c-4.562,0-8.258,3.696-8.258,8.258s3.696,8.258,8.258,8.258h29.051c3.736,13.746,16.212,23.876,30.99,23.876h31.715
	c4.562,0,8.258-3.696,8.258-8.258v-15.617h37.809c4.562,0,8.258-3.696,8.258-8.258C454.382,251.438,450.686,247.742,446.124,247.742
	z M391.799,271.618h-23.457c-6.474,0-12.167-4.277-14.493-10.152c1.289-1.457,2.079-3.367,2.079-5.466
	c0-4.562-3.696-8.258-8.258-8.258h-0.911c-0.728-0.21-1.495-0.329-2.291-0.329c-8.612,0-15.618-7.005-15.618-15.618
	c0-8.611,7.005-15.619,15.618-15.619h82.309l-30.242,31.566h-7.487c-4.562,0-8.258,3.696-8.258,8.258
	c0,4.562,3.696,8.258,8.258,8.258h2.753V271.618z"/>
<path style="fill:#FFE000;" d="M418.404,312.705h-82.384c-4.562,0-8.258-3.696-8.258-8.258s3.696-8.258,8.258-8.258h82.384
	c4.562,0,8.258,3.696,8.258,8.258S422.966,312.705,418.404,312.705z"/>
<path style="fill:#1A1C20;" d="M468.324,429.419H43.676C19.594,429.419,0,409.826,0,385.743V126.257
	c0-24.083,19.594-43.676,43.676-43.676h424.647c24.083,0,43.676,19.594,43.676,43.676v259.486
	C512,409.826,492.406,429.419,468.324,429.419z M43.676,99.097c-14.977,0-27.16,12.183-27.16,27.16v259.486
	c0,14.977,12.183,27.16,27.16,27.16h424.647c14.977,0,27.16-12.183,27.16-27.16V126.257c0-14.977-12.183-27.16-27.16-27.16H43.676z"
	/>
<g>
</g>
<g>
</g>
<g>
</g>
<g>
</g>
<g>
</g>
<g>
</g>
<g>
</g>
<g>
</g>
<g>
</g>
<g>
</g>
<g>
</g>
<g>
</g>
<g>
</g>
<g>
</g>
<g>
</g>
</svg>
