<?xml version="1.0" encoding="iso-8859-1"?>
<!-- Generator: Adobe Illustrator 19.0.0, SVG Export Plug-In . SVG Version: 6.00 Build 0)  -->
<svg version="1.1" id="Layer_1" xmlns="http://www.w3.org/2000/svg" xmlns:xlink="http://www.w3.org/1999/xlink" x="0px" y="0px"
	 viewBox="0 0 512 512" style="enable-background:new 0 0 512 512;" xml:space="preserve">
<path style="fill:#103B9B;" d="M8.258,390.882V121.118c0-16.723,13.556-30.28,30.28-30.28h434.925
	c16.723,0,30.28,13.556,30.28,30.28v269.763c0,16.723-13.556,30.28-30.28,30.28H38.538C21.815,421.161,8.258,407.605,8.258,390.882z
	"/>
<path style="fill:#FFFFFF;" d="M132.129,200.216L215.804,256H256v-26.797l-83.675-55.784L256,117.636V90.839h-40.196l-83.675,55.784
	L48.454,90.839h-4.779c-16.806,0-30.868,11.709-34.498,27.411l82.756,55.169L8.258,229.203V256h40.196L132.129,200.216z"/>
<path style="fill:#ED1F34;" d="M145.528,182.352L256,256v-17.484L145.373,164.59L256,90.839h-26.797l-110.466,73.652L20.818,99.211
	c-3.815,3.228-6.941,7.245-9.118,11.804l106.889,71.431L8.258,256h26.797L145.528,182.352z"/>
<polygon style="fill:#FFFFFF;" points="256,151.123 154.426,151.123 154.426,90.839 109.832,90.839 109.832,151.123 8.258,151.123 
	8.258,195.716 109.832,195.716 109.832,256 154.426,256 154.426,195.716 256,195.716 "/>
<polygon style="fill:#ED1F34;" points="256,161.445 144.103,161.445 144.103,90.839 120.155,90.839 120.155,161.445 8.258,161.445 
	8.258,185.394 120.155,185.394 120.155,256 144.103,256 144.103,185.394 256,185.394 "/>
<g>
	<circle style="fill:#FFFFFF;" cx="132.129" cy="338.581" r="33.032"/>
	<circle style="fill:#FFFFFF;" cx="379.871" cy="156.903" r="16.516"/>
	<circle style="fill:#FFFFFF;" cx="379.871" cy="355.097" r="16.516"/>
	<circle style="fill:#FFFFFF;" cx="429.419" cy="198.194" r="16.516"/>
	<circle style="fill:#FFFFFF;" cx="330.323" cy="239.484" r="16.516"/>
	<circle style="fill:#FFFFFF;" cx="404.645" cy="276.645" r="11.011"/>
</g>
<path style="fill:#111A21;" d="M468.324,429.419H43.676C19.594,429.419,0,409.827,0,385.743V126.256
	c0-24.083,19.594-43.675,43.676-43.675h424.647c24.083,0,43.676,19.593,43.676,43.675v259.487
	C512,409.827,492.406,429.419,468.324,429.419z M43.676,99.097c-14.977,0-27.16,12.183-27.16,27.159v259.487
	c0,14.977,12.183,27.16,27.16,27.16h424.647c14.977,0,27.16-12.183,27.16-27.16V126.256c0-14.976-12.183-27.159-27.16-27.159H43.676
	z"/>
<g>
</g>
<g>
</g>
<g>
</g>
<g>
</g>
<g>
</g>
<g>
</g>
<g>
</g>
<g>
</g>
<g>
</g>
<g>
</g>
<g>
</g>
<g>
</g>
<g>
</g>
<g>
</g>
<g>
</g>
</svg>
