<?xml version="1.0" encoding="iso-8859-1"?>
<!-- Generator: Adobe Illustrator 19.0.0, SVG Export Plug-In . SVG Version: 6.00 Build 0)  -->
<svg version="1.1" id="Layer_1" xmlns="http://www.w3.org/2000/svg" xmlns:xlink="http://www.w3.org/1999/xlink" x="0px" y="0px"
	 viewBox="0 0 512 512" style="enable-background:new 0 0 512 512;" xml:space="preserve">
<path style="fill:#3DB4EA;" d="M8.258,381.523V130.477c0-21.892,17.747-39.639,39.639-39.639h416.206
	c21.892,0,39.639,17.747,39.639,39.639v251.045c0,21.892-17.747,39.639-39.639,39.639H47.897
	C26.005,421.161,8.258,403.414,8.258,381.523z"/>
<g>
	<rect x="8.258" y="350.692" style="fill:#FFE000;" width="495.484" height="19.819"/>
	<rect x="8.258" y="311.054" style="fill:#FFE000;" width="495.484" height="19.819"/>
</g>
<polygon style="fill:#ED1F34;" points="115.062,137.084 130.079,182.627 175.622,197.643 130.079,212.659 115.062,258.202 
	100.046,212.659 54.503,197.643 100.046,182.627 "/>
<path style="fill:#FFFFFF;" d="M115.062,266.46c-3.564,0-6.726-2.287-7.843-5.672l-13.713-41.59l-41.589-13.713
	c-3.386-1.117-5.673-4.279-5.673-7.843s2.287-6.726,5.672-7.843l41.589-13.713l13.713-41.59c1.116-3.385,4.279-5.672,7.843-5.672
	c3.564,0,6.726,2.287,7.843,5.672l13.713,41.59l41.589,13.713c3.385,1.117,5.672,4.279,5.672,7.843s-2.287,6.726-5.672,7.843
	l-41.589,13.713l-13.713,41.59C121.789,264.173,118.627,266.46,115.062,266.46z M80.875,197.643l21.757,7.173
	c2.486,0.82,4.436,2.77,5.257,5.257l7.174,21.756l7.174-21.756c0.82-2.486,2.771-4.437,5.257-5.257l21.757-7.173l-21.757-7.174
	c-2.486-0.82-4.436-2.77-5.257-5.257l-7.174-21.756l-7.174,21.756c-0.82,2.486-2.771,4.437-5.257,5.257L80.875,197.643z"/>
<path style="fill:#1A1C20;" d="M468.324,429.419H43.676C19.594,429.419,0,409.827,0,385.743V126.256
	c0-24.083,19.594-43.675,43.676-43.675h424.647c24.083,0,43.676,19.593,43.676,43.675v259.487
	C512,409.827,492.406,429.419,468.324,429.419z M43.676,99.097c-14.977,0-27.16,12.183-27.16,27.159v259.487
	c0,14.977,12.183,27.16,27.16,27.16h424.647c14.977,0,27.16-12.183,27.16-27.16V126.256c0-14.976-12.183-27.159-27.16-27.159H43.676
	z"/>
<g>
</g>
<g>
</g>
<g>
</g>
<g>
</g>
<g>
</g>
<g>
</g>
<g>
</g>
<g>
</g>
<g>
</g>
<g>
</g>
<g>
</g>
<g>
</g>
<g>
</g>
<g>
</g>
<g>
</g>
</svg>
