<?xml version="1.0" encoding="iso-8859-1"?>
<!-- Generator: Adobe Illustrator 19.0.0, SVG Export Plug-In . SVG Version: 6.00 Build 0)  -->
<svg version="1.1" id="Layer_1" xmlns="http://www.w3.org/2000/svg" xmlns:xlink="http://www.w3.org/1999/xlink" x="0px" y="0px"
	 viewBox="0 0 512 512" style="enable-background:new 0 0 512 512;" xml:space="preserve">
<path style="fill:#103B9B;" d="M8.258,385.009V126.99c0-19.966,16.186-36.152,36.152-36.152h423.18
	c19.966,0,36.152,16.186,36.152,36.152v258.018c0,19.966-16.186,36.152-36.152,36.152H44.41
	C24.444,421.161,8.258,404.975,8.258,385.009z"/>
<g>
	<path style="fill:#FFFFFF;" d="M364.196,399.99c-7.297,0-13.213,5.916-13.213,13.213c0,2.993,1.006,5.743,2.683,7.959h21.059
		c1.677-2.215,2.683-4.966,2.683-7.959C377.409,405.906,371.493,399.99,364.196,399.99z"/>
	<circle style="fill:#FFFFFF;" cx="321.03" cy="360.8" r="13.213"/>
	<circle style="fill:#FFFFFF;" cx="277.856" cy="308.4" r="13.213"/>
	<circle style="fill:#FFFFFF;" cx="234.683" cy="256" r="13.213"/>
	<circle style="fill:#FFFFFF;" cx="191.521" cy="203.6" r="13.213"/>
	<circle style="fill:#FFFFFF;" cx="148.348" cy="151.2" r="13.213"/>
	<path style="fill:#FFFFFF;" d="M91.962,98.797c0,7.297,5.916,13.213,13.213,13.213c7.298,0,13.213-5.916,13.213-13.213
		c0-2.993-1.006-5.743-2.683-7.959H94.645C92.968,93.053,91.962,95.805,91.962,98.797z"/>
</g>
<polygon style="fill:#FFE000;" points="144.025,90.839 415.634,421.161 415.634,90.839 "/>
<path style="fill:#121B21;" d="M468.324,82.581H144.038c-0.003,0-0.006,0-0.009,0H43.676C19.593,82.581,0,102.173,0,126.256v259.487
	c0,24.083,19.593,43.676,43.676,43.676h371.951c0.003,0,0.007,0,0.01,0c0.004,0,0.009,0,0.013,0h52.674
	c24.082,0,43.675-19.594,43.675-43.676V126.256C512,102.173,492.406,82.581,468.324,82.581z M16.516,385.743V126.256
	c0-14.976,12.183-27.159,27.16-27.159h96.448l258.029,313.806H43.676C28.7,412.903,16.516,400.719,16.516,385.743z M495.484,385.743
	c0,14.976-12.183,27.16-27.16,27.16h-44.432v-256c0-4.561-3.697-8.258-8.258-8.258c-4.562,0-8.258,3.697-8.258,8.258v241.213
	L161.506,99.097h245.87v24.774c0,4.561,3.696,8.258,8.258,8.258c4.561,0,8.258-3.697,8.258-8.258V99.097h44.432
	c14.977,0,27.16,12.183,27.16,27.159V385.743z"/>
<g>
</g>
<g>
</g>
<g>
</g>
<g>
</g>
<g>
</g>
<g>
</g>
<g>
</g>
<g>
</g>
<g>
</g>
<g>
</g>
<g>
</g>
<g>
</g>
<g>
</g>
<g>
</g>
<g>
</g>
</svg>
