<?xml version="1.0" encoding="iso-8859-1"?>
<!-- Generator: Adobe Illustrator 19.0.0, SVG Export Plug-In . SVG Version: 6.00 Build 0)  -->
<svg version="1.1" id="Layer_1" xmlns="http://www.w3.org/2000/svg" xmlns:xlink="http://www.w3.org/1999/xlink" x="0px" y="0px"
	 viewBox="0 0 512 512" style="enable-background:new 0 0 512 512;" xml:space="preserve">
<rect x="173.419" y="90.839" style="fill:#FFE000;" width="165.161" height="330.323"/>
<g>
	<path style="fill:#103B9B;" d="M173.419,90.839v330.323H43.835c-19.649,0-35.577-15.928-35.577-35.577V126.416
		c0-19.649,15.928-35.577,35.577-35.577H173.419z"/>
	<path style="fill:#103B9B;" d="M503.742,123.906v264.188c0,18.262-14.805,33.068-33.068,33.068H338.581V90.839h132.094
		C488.937,90.839,503.742,105.644,503.742,123.906z"/>
</g>
<g>
	<path style="fill:#121B21;" d="M216.521,281.488c0.357,2.666,1.991,4.991,4.378,6.231c2.388,1.241,5.23,1.241,7.616,0l19.227-9.993
		v37.733c0,4.562,3.696,8.258,8.258,8.258c4.562,0,8.258-3.696,8.258-8.258v-37.733l19.227,9.992c1.195,0.62,2.501,0.93,3.809,0.93
		c1.306,0,2.614-0.309,3.808-0.93c2.387-1.24,4.02-3.565,4.378-6.231l8.941-66.737c0.606-4.52-2.568-8.676-7.089-9.282
		c-4.52-0.603-8.676,2.568-9.282,7.089l-7.379,55.085l-16.412-8.529v-62.57c0-4.562-3.696-8.258-8.258-8.258
		c-4.562,0-8.258,3.696-8.258,8.258v62.57l-16.412,8.529l-7.379-55.085c-0.606-4.52-4.77-7.691-9.282-7.089
		c-4.52,0.606-7.693,4.761-7.089,9.282L216.521,281.488z"/>
	<path style="fill:#121B21;" d="M468.324,82.581H43.676C19.594,82.581,0,102.174,0,126.257v259.486
		c0,24.083,19.594,43.676,43.676,43.676h424.647c24.083,0,43.676-19.594,43.676-43.676V126.257
		C512,102.174,492.406,82.581,468.324,82.581z M16.516,385.743V126.257c0-14.977,12.183-27.16,27.16-27.16h121.485v24.774
		c0,4.562,3.696,8.258,8.258,8.258c4.562,0,8.258-3.696,8.258-8.258V99.097h148.645v313.806H181.677v-256
		c0-4.562-3.696-8.258-8.258-8.258c-4.562,0-8.258,3.696-8.258,8.258v256H43.676C28.7,412.903,16.516,400.72,16.516,385.743z
		 M495.484,385.743c0,14.977-12.183,27.16-27.16,27.16H346.839V99.097h121.485c14.977,0,27.16,12.183,27.16,27.16V385.743z"/>
</g>
<g>
</g>
<g>
</g>
<g>
</g>
<g>
</g>
<g>
</g>
<g>
</g>
<g>
</g>
<g>
</g>
<g>
</g>
<g>
</g>
<g>
</g>
<g>
</g>
<g>
</g>
<g>
</g>
<g>
</g>
</svg>
