<?xml version="1.0" encoding="iso-8859-1"?>
<!-- Generator: Adobe Illustrator 19.0.0, SVG Export Plug-In . SVG Version: 6.00 Build 0)  -->
<svg version="1.1" id="Layer_1" xmlns="http://www.w3.org/2000/svg" xmlns:xlink="http://www.w3.org/1999/xlink" x="0px" y="0px"
	 viewBox="0 0 512 512" style="enable-background:new 0 0 512 512;" xml:space="preserve">
<path style="fill:#259245;" d="M42.268,90.839h427.464c18.783,0,34.01,15.227,34.01,34.01v262.303
	c0,18.783-15.227,34.01-34.01,34.01H42.268c-18.783,0-34.01-15.227-34.01-34.01V124.849C8.258,106.065,23.485,90.839,42.268,90.839z
	"/>
<circle style="fill:#ED1F34;" cx="220.942" cy="256" r="82.581"/>
<g>
	<path style="fill:#111A21;" d="M220.94,181.677c35.209,0,65.84,25.002,72.833,59.449c0.907,4.47,5.269,7.36,9.736,6.45
		c4.469-0.907,7.357-5.266,6.45-9.736c-8.55-42.114-45.988-72.68-89.019-72.68c-50.089,0-90.839,40.75-90.839,90.839
		s40.75,90.839,90.839,90.839c43.032,0,80.469-30.566,89.019-72.68c0.907-4.469-1.981-8.828-6.45-9.736
		c-4.473-0.908-8.828,1.981-9.736,6.45c-6.993,34.447-37.624,59.449-72.833,59.449c-40.982,0-74.323-33.341-74.323-74.323
		S179.958,181.677,220.94,181.677z"/>
	<path style="fill:#111A21;" d="M468.324,82.581H43.675C19.593,82.581,0,102.173,0,126.257v259.487
		c0,24.083,19.593,43.675,43.675,43.675h424.648c24.084,0,43.676-19.593,43.676-43.676V126.257
		C512,102.173,492.407,82.581,468.324,82.581z M495.484,385.743c0,14.977-12.183,27.16-27.16,27.16H43.675
		c-14.976,0-27.159-12.183-27.159-27.16V126.257c0-14.977,12.183-27.16,27.159-27.16h424.648c14.977,0,27.16,12.183,27.16,27.16
		V385.743z"/>
</g>
<g>
</g>
<g>
</g>
<g>
</g>
<g>
</g>
<g>
</g>
<g>
</g>
<g>
</g>
<g>
</g>
<g>
</g>
<g>
</g>
<g>
</g>
<g>
</g>
<g>
</g>
<g>
</g>
<g>
</g>
</svg>
