<?xml version="1.0" encoding="iso-8859-1"?>
<!-- Generator: Adobe Illustrator 19.0.0, SVG Export Plug-In . SVG Version: 6.00 Build 0)  -->
<svg version="1.1" id="Layer_1" xmlns="http://www.w3.org/2000/svg" xmlns:xlink="http://www.w3.org/1999/xlink" x="0px" y="0px"
	 viewBox="0 0 512.001 512.001" style="enable-background:new 0 0 512.001 512.001;" xml:space="preserve">
<path style="fill:#ED1F34;" d="M468.324,90.838H133.781l79.277,41.29l-79.277,41.301l79.277,41.29l-79.277,41.29l79.277,41.29
	l-79.277,41.29l79.277,41.279l-79.277,41.29h334.543c19.561,0,35.418-15.858,35.418-35.418V126.257
	C503.742,106.696,487.884,90.838,468.324,90.838z"/>
<path style="fill:#FFFFFF;" d="M133.781,338.591l79.277-41.29l-79.277-41.29l79.277-41.29l-79.277-41.29l79.277-41.301
	l-79.277-41.29H43.676c-19.561,0-35.418,15.858-35.418,35.418v259.487c0,19.561,15.858,35.418,35.418,35.418h90.104l79.277-41.29
	L133.781,338.591z"/>
<path style="fill:#111A21;" d="M468.324,82.58h-334.64c-0.02,0-0.04-0.001-0.061,0H43.676C19.593,82.58,0,102.174,0,126.257v259.487
	c0,24.083,19.593,43.675,43.676,43.675h90.088c0.008,0,0.015,0.002,0.024,0.002c0.009,0,0.019-0.002,0.028-0.002h334.509
	c24.083,0,43.676-19.593,43.676-43.675V126.257C512,102.174,492.407,82.58,468.324,82.58z M16.516,385.744V126.257
	c0-14.976,12.183-27.159,27.16-27.159h88.083l63.424,33.038l-65.217,33.971c-2.731,1.423-4.443,4.246-4.443,7.324
	c0,3.079,1.713,5.902,4.444,7.324l65.216,33.966l-65.216,33.967c-2.731,1.423-4.444,4.246-4.444,7.324
	c0,3.079,1.713,5.902,4.444,7.324l65.214,33.965l-65.214,33.965c-2.731,1.423-4.444,4.246-4.444,7.324
	c0,3.079,1.713,5.902,4.444,7.324l65.213,33.96l-63.421,33.03H43.676C28.7,412.903,16.516,400.72,16.516,385.744z M495.484,385.744
	c0,14.976-12.183,27.159-27.16,27.159H167.514l49.358-25.706c2.731-1.423,4.444-4.245,4.444-7.324c0-3.079-1.713-5.902-4.444-7.324
	l-65.213-33.96l65.213-33.964c2.731-1.423,4.444-4.245,4.444-7.324c0-3.079-1.713-5.902-4.444-7.324l-65.216-33.965l65.216-33.967
	c2.731-1.423,4.444-4.246,4.444-7.324c0-3.079-1.713-5.902-4.444-7.324l-65.216-33.966l65.216-33.971
	c2.731-1.423,4.443-4.246,4.443-7.324c0-3.079-1.712-5.902-4.443-7.324l-49.363-25.713h300.815c14.976,0,27.16,12.183,27.16,27.159
	L495.484,385.744L495.484,385.744z"/>
<g>
</g>
<g>
</g>
<g>
</g>
<g>
</g>
<g>
</g>
<g>
</g>
<g>
</g>
<g>
</g>
<g>
</g>
<g>
</g>
<g>
</g>
<g>
</g>
<g>
</g>
<g>
</g>
<g>
</g>
</svg>
