<?xml version="1.0" encoding="iso-8859-1"?>
<!-- Generator: Adobe Illustrator 19.0.0, SVG Export Plug-In . SVG Version: 6.00 Build 0)  -->
<svg version="1.1" id="Layer_1" xmlns="http://www.w3.org/2000/svg" xmlns:xlink="http://www.w3.org/1999/xlink" x="0px" y="0px"
	 viewBox="0 0 512.001 512.001" style="enable-background:new 0 0 512.001 512.001;" xml:space="preserve">
<path style="fill:#B21727;" d="M8.259,126.624v258.752c0,19.763,16.022,35.785,35.785,35.785h423.913
	c19.763,0,35.785-16.022,35.785-35.785V126.625c0-19.763-16.022-35.785-35.785-35.785H44.044
	C24.281,90.84,8.259,106.86,8.259,126.624z"/>
<path style="fill:#FFFFFF;" d="M21.526,413.369L255.634,275.88l234.529,137.737c6.462-5.07,11.123-12.332,12.846-20.673v-18.099
	L300.647,256.001l202.361-118.844v-18.099c-1.723-8.341-6.384-15.602-12.846-20.673L255.633,236.121L21.526,98.631
	c-8.085,6.492-13.267,16.451-13.267,27.627v10.898L210.62,256.001L8.259,374.844v10.898
	C8.259,396.918,13.441,406.878,21.526,413.369z"/>
<g>
	<polygon style="fill:#259245;" points="8.259,137.156 8.259,374.844 210.62,256.001 	"/>
	<polygon style="fill:#259245;" points="503.009,374.844 503.009,137.156 300.647,256.001 	"/>
</g>
<g>
	<path style="fill:#111A21;" d="M503.001,383.103c-1.421,0-2.861-0.367-4.174-1.138L296.465,263.12
		c-2.525-1.483-4.076-4.193-4.076-7.121s1.551-5.637,4.076-7.121l202.362-118.844c3.931-2.312,8.992-0.994,11.303,2.939
		c2.31,3.932,0.993,8.992-2.939,11.303L316.955,256.001l190.236,111.724c3.932,2.31,5.249,7.369,2.939,11.303
		C508.591,381.645,505.833,383.103,503.001,383.103z"/>
	<path style="fill:#111A21;" d="M8.267,383.103c-2.832,0-5.59-1.458-7.128-4.077c-2.31-3.932-0.993-8.992,2.939-11.303
		l190.236-111.724L4.077,144.277c-3.932-2.31-5.249-7.369-2.939-11.303c2.31-3.934,7.372-5.248,11.303-2.939L214.803,248.88
		c2.525,1.483,4.076,4.193,4.076,7.121c0,2.928-1.551,5.637-4.076,7.121L12.441,381.964C11.127,382.736,9.688,383.103,8.267,383.103
		z"/>
</g>
<circle style="fill:#FFFFFF;" cx="255.999" cy="255.999" r="82.58"/>
<g>
	<polygon style="fill:#B21727;" points="222.968,260.955 228.338,270.924 239.656,270.59 233.707,280.224 239.656,289.859 
		228.338,289.524 222.968,299.493 217.6,289.524 206.282,289.859 212.231,280.224 206.282,270.59 217.6,270.924 	"/>
	<polygon style="fill:#B21727;" points="289.033,260.955 294.403,270.924 305.721,270.59 299.772,280.224 305.721,289.859 
		294.403,289.524 289.033,299.493 283.664,289.524 272.346,289.859 278.295,280.224 272.346,270.59 283.664,270.924 	"/>
	<polygon style="fill:#B21727;" points="256.001,205.902 261.371,215.871 272.688,215.536 266.739,225.171 272.688,234.805 
		261.371,234.47 256.001,244.439 250.632,234.47 239.314,234.805 245.263,225.171 239.314,215.536 250.632,215.871 	"/>
</g>
<path style="fill:#111A21;" d="M468.325,429.42H43.677c-24.083,0-43.676-19.594-43.676-43.676V126.258
	c0-24.083,19.592-43.676,43.676-43.676h424.647c24.083,0,43.676,19.594,43.676,43.676v259.485
	C512,409.826,492.408,429.42,468.325,429.42z M43.677,99.098c-14.976,0-27.16,12.183-27.16,27.16v259.485
	c0,14.977,12.183,27.16,27.16,27.16h424.647c14.976,0,27.16-12.183,27.16-27.16V126.258c0-14.977-12.183-27.16-27.16-27.16H43.677z"
	/>
<g>
</g>
<g>
</g>
<g>
</g>
<g>
</g>
<g>
</g>
<g>
</g>
<g>
</g>
<g>
</g>
<g>
</g>
<g>
</g>
<g>
</g>
<g>
</g>
<g>
</g>
<g>
</g>
<g>
</g>
</svg>
