<?xml version="1.0" encoding="iso-8859-1"?>
<!-- Generator: Adobe Illustrator 19.0.0, SVG Export Plug-In . SVG Version: 6.00 Build 0)  -->
<svg version="1.1" id="Layer_1" xmlns="http://www.w3.org/2000/svg" xmlns:xlink="http://www.w3.org/1999/xlink" x="0px" y="0px"
	 viewBox="0 0 512 512" style="enable-background:new 0 0 512 512;" xml:space="preserve">
<path style="fill:#ED1F34;" d="M173.419,421.161h294.904c19.561,0,35.418-15.857,35.418-35.418V256H173.419V421.161z"/>
<path style="fill:#FFE000;" d="M468.324,90.839H173.419V256h330.323V126.256C503.742,106.695,487.885,90.839,468.324,90.839z"/>
<path style="fill:#259245;" d="M173.419,90.839H43.676c-19.561,0-35.418,15.857-35.418,35.417v259.487
	c0,19.561,15.858,35.418,35.418,35.418h129.743V256V90.839z"/>
<path style="fill:#111A21;" d="M468.324,82.581H43.676C19.593,82.581,0,102.174,0,126.257v259.486
	c0,24.083,19.593,43.676,43.676,43.676h424.648c24.082,0,43.675-19.594,43.675-43.676V126.257
	C512,102.174,492.406,82.581,468.324,82.581z M495.484,126.257v121.485H181.677V99.097h286.646
	C483.3,99.097,495.484,111.28,495.484,126.257z M468.324,412.903H181.677v-24.774c0-4.562-3.697-8.258-8.258-8.258
	s-8.258,3.696-8.258,8.258v24.774H43.676c-14.977,0-27.16-12.183-27.16-27.16V126.257c0-14.977,12.183-27.16,27.16-27.16h121.485
	v256c0,4.562,3.697,8.258,8.258,8.258s8.258-3.696,8.258-8.258v-90.839h313.806v121.485
	C495.484,400.72,483.3,412.903,468.324,412.903z"/>
<g>
</g>
<g>
</g>
<g>
</g>
<g>
</g>
<g>
</g>
<g>
</g>
<g>
</g>
<g>
</g>
<g>
</g>
<g>
</g>
<g>
</g>
<g>
</g>
<g>
</g>
<g>
</g>
<g>
</g>
</svg>
