<?xml version="1.0" encoding="iso-8859-1"?>
<!-- Generator: Adobe Illustrator 19.0.0, SVG Export Plug-In . SVG Version: 6.00 Build 0)  -->
<svg version="1.1" id="Layer_1" xmlns="http://www.w3.org/2000/svg" xmlns:xlink="http://www.w3.org/1999/xlink" x="0px" y="0px"
	 viewBox="0 0 512.001 512.001" style="enable-background:new 0 0 512.001 512.001;" xml:space="preserve">
<path style="fill:#ED1F34;" d="M8.258,385.387V126.63c0-19.762,16.021-35.783,35.783-35.783H467.96
	c19.762,0,35.783,16.021,35.783,35.783v258.758c0,19.762-16.021,35.783-35.783,35.783H44.041
	C24.279,421.17,8.258,405.149,8.258,385.387z"/>
<path style="fill:#103B9B;" d="M256,256.008H8.258V126.354c0-19.61,15.897-35.507,35.507-35.507H256V256.008z"/>
<g>
	<path style="fill:#FFFFFF;" d="M256,90.847h-40.196l-83.675,55.784L48.454,90.847c-19.861-0.916-36.997,12.459-39.297,27.397
		l82.777,55.184L8.258,229.211v26.797h40.196l83.675-55.784l83.675,55.784H256v-26.797l-83.675-55.784L256,117.644V90.847z"/>
	<path style="fill:#FFFFFF;" d="M9.1,118.576c0.015-0.111,0.04-0.221,0.057-0.333l-0.9-0.6L9.1,118.576z"/>
</g>
<path style="fill:#ED1F34;" d="M256,90.847h-26.798l-110.466,73.652l-95.602-63.736C19.819,97.998,11.8,103.449,11.8,111.09
	l106.789,71.364L8.258,256.008h26.797l110.472-73.648L256,256.008v-17.484l-110.627-73.926L256,90.847z"/>
<polygon style="fill:#FFFFFF;" points="256,151.131 154.426,151.131 154.426,90.847 109.832,90.847 109.832,151.131 8.258,151.131 
	8.258,195.724 109.832,195.724 109.832,256.008 154.426,256.008 154.426,195.724 256,195.724 "/>
<polygon style="fill:#ED1F34;" points="256,161.453 144.103,161.453 144.103,90.847 120.155,90.847 120.155,161.453 8.258,161.453 
	8.258,185.402 120.155,185.402 120.155,256.008 144.103,256.008 144.103,185.402 256,185.402 "/>
<path style="fill:#FFFFFF;" d="M324.817,177.961v100.131c0,41.967,36.622,42.822,55.054,55.964
	c18.432-13.142,55.054-13.998,55.054-55.964V177.961H324.817z"/>
<path style="fill:#259245;" d="M324.817,278.091c0,41.967,36.622,42.822,55.054,55.964c18.432-13.142,55.054-13.998,55.054-55.964
	H324.817L324.817,278.091z"/>
<path style="fill:#ED1F34;" d="M379.871,209.396c-12.579,0-22.776,10.197-22.776,22.776v45.92h45.55v-45.92
	C402.647,219.593,392.45,209.396,379.871,209.396z"/>
<g>
	<path style="fill:#1A1C20;" d="M434.925,169.703H324.817c-4.561,0-8.258,3.697-8.258,8.258v100.131
		c0,36.452,24.779,47.069,42.87,54.82c5.944,2.547,11.557,4.952,15.647,7.868c1.435,1.023,3.114,1.535,4.794,1.535
		s3.359-0.511,4.794-1.535c4.09-2.916,9.704-5.32,15.646-7.868c18.093-7.752,42.871-18.369,42.871-54.82V177.961
		C443.183,173.4,439.485,169.703,434.925,169.703z M426.667,278.091c0,25.559-15.228,32.084-32.859,39.64
		c-4.706,2.016-9.528,4.083-13.936,6.573c-4.408-2.491-9.23-4.557-13.936-6.573c-17.633-7.554-32.859-14.079-32.859-39.64v-91.873
		h93.591V278.091z"/>
	<path style="fill:#1A1C20;" d="M468.324,82.583H256.107c-0.036,0-0.07-0.006-0.107-0.006c-0.036,0-0.07,0.004-0.107,0.006H43.676
		C19.593,82.583,0,102.177,0,126.26v259.487c0,24.083,19.593,43.676,43.676,43.676h424.648c24.083,0,43.676-19.593,43.676-43.676
		V126.26C512,102.177,492.407,82.583,468.324,82.583z M16.516,126.26c0-14.976,12.183-27.16,27.16-27.16h204.066V247.75
		l-231.226-0.006V126.26z M495.484,385.747c0,14.976-12.183,27.16-27.16,27.16H43.676c-14.977-0.001-27.16-12.184-27.16-27.16
		V264.262L256,264.267c2.19,0,4.291-0.87,5.839-2.419c1.549-1.548,2.419-3.649,2.419-5.839V99.1h204.066
		c14.976,0,27.16,12.183,27.16,27.16V385.747z"/>
</g>
<g>
</g>
<g>
</g>
<g>
</g>
<g>
</g>
<g>
</g>
<g>
</g>
<g>
</g>
<g>
</g>
<g>
</g>
<g>
</g>
<g>
</g>
<g>
</g>
<g>
</g>
<g>
</g>
<g>
</g>
</svg>
