<?xml version="1.0" encoding="iso-8859-1"?>
<!-- Generator: Adobe Illustrator 19.0.0, SVG Export Plug-In . SVG Version: 6.00 Build 0)  -->
<svg version="1.1" id="Layer_1" xmlns="http://www.w3.org/2000/svg" xmlns:xlink="http://www.w3.org/1999/xlink" x="0px" y="0px"
	 viewBox="0 0 512 512" style="enable-background:new 0 0 512 512;" xml:space="preserve">
<path style="fill:#FFE000;" d="M8.32,123.232v265.408c0,17.92,14.528,32.513,32.513,32.513h430.528
	c17.92,0,32.512-14.528,32.512-32.513V123.232c0-17.92-14.528-32.513-32.512-32.513H40.704C22.784,90.72,8.32,105.312,8.32,123.232z
	"/>
<polygon style="fill:#333333;" points="503.681,324.704 503.681,388 8.32,255.904 8.32,189.792 "/>
<polygon style="fill:#FFFFFF;" points="503.681,261.408 503.681,324.704 8.32,189.792 8.32,123.808 "/>
<path style="fill:#121B21;" d="M468.288,82.528H43.712C19.584,82.528,0,102.112,0,126.24v259.52
	c0,24.128,19.584,43.712,43.712,43.712h424.576c24.128,0,43.712-19.584,43.712-43.712V126.24
	C512,102.112,492.416,82.528,468.288,82.528z M43.712,98.977h424.576c14.976,0,27.2,12.224,27.2,27.2v187.712L16.512,183.52v-57.408
	C16.512,111.2,28.672,98.977,43.712,98.977z M468.288,412.832H43.712c-14.976,0-27.2-12.224-27.2-27.2V200.608L495.487,331.04
	v54.592C495.488,400.609,483.328,412.832,468.288,412.832z"/>
<g>
	<path style="fill:#ED1F34;" d="M322.112,248.736c-4.608,0-8.32,3.712-8.32,8.32c0,31.872-25.984,57.92-57.92,57.92
		s-57.92-25.984-57.92-57.92c0-4.608-3.712-8.32-8.32-8.32c-4.608,0-8.32,3.712-8.32,8.32c0,41.024,33.408,74.432,74.432,74.432
		s74.368-33.408,74.368-74.432C330.432,252.385,326.72,248.736,322.112,248.736z"/>
	<path style="fill:#ED1F34;" d="M256,303.776c25.92,0,46.912-21.12,46.912-46.912c0-23.104-16.704-42.304-38.72-46.208v-21.952
		c0-4.608-3.712-8.32-8.32-8.32s-8.32,3.712-8.32,8.32v22.016c-21.888,3.904-38.72,23.104-38.72,46.208
		C209.088,282.784,230.08,303.776,256,303.776z M256,287.328c-16.832,0-30.4-13.632-30.4-30.4l0,0h60.8l0,0
		C286.4,273.696,272.768,287.328,256,287.328z"/>
</g>
<g>
</g>
<g>
</g>
<g>
</g>
<g>
</g>
<g>
</g>
<g>
</g>
<g>
</g>
<g>
</g>
<g>
</g>
<g>
</g>
<g>
</g>
<g>
</g>
<g>
</g>
<g>
</g>
<g>
</g>
</svg>
