<?xml version="1.0" encoding="utf-8"?>
<svg version="1.1" id="Layer_1" xmlns="http://www.w3.org/2000/svg" xmlns:xlink="http://www.w3.org/1999/xlink" x="0px" y="0px"
     viewBox="0 0 512 512" style="enable-background:new 0 0 512 512;" xml:space="preserve">
  <path style="fill:#1A1C20;" d="M468.324,429.419H43.676C19.594,429.419,0,409.827,0,385.743V126.256 c0-24.083,19.594-43.675,43.676-43.675h424.647c24.083,0,43.676,19.593,43.676,43.675v259.487 C512,409.827,492.406,429.419,468.324,429.419z M43.676,99.097c-14.977,0-27.16,12.183-27.16,27.159v259.487 c0,14.977,12.183,27.16,27.16,27.16h424.647c14.977,0,27.16-12.183,27.16-27.16V126.256c0-14.976-12.183-27.159-27.16-27.159H43.676 z"/>
</svg>