<?xml version="1.0" encoding="iso-8859-1"?>
<!-- Generator: Adobe Illustrator 19.0.0, SVG Export Plug-In . SVG Version: 6.00 Build 0)  -->
<svg version="1.1" id="Layer_1" xmlns="http://www.w3.org/2000/svg" xmlns:xlink="http://www.w3.org/1999/xlink" x="0px" y="0px"
	 viewBox="0 0 512 512" style="enable-background:new 0 0 512 512;" xml:space="preserve">
<path style="fill:#FFE000;" d="M247.191,90.839L8.258,250.131V125.523c0-19.155,15.528-34.684,34.684-34.684H247.191z"/>
<path style="fill:#FFFFFF;" d="M480.688,106.209L8.258,421.161v-171.03L247.191,90.839h228.843
	C484.334,90.839,487.594,101.604,480.688,106.209z"/>
<path style="fill:#164FCE;" d="M503.742,113.514v272.413c0,19.459-15.775,35.234-35.234,35.234H34.815
	c-7.955,0-11.08-10.318-4.46-14.731l454.521-303.013C492.939,98.041,503.742,103.821,503.742,113.514z"/>
<path style="fill:#ED1F34;stroke:#ED1F34;stroke-width:15;stroke-linecap:round;stroke-linejoin:round;stroke-miterlimit:10;" d="
	M150.341,253.041c-6.071,0-11.011-4.939-11.011-11.011s4.939-11.011,11.011-11.011c6.071,0,11.011,4.939,11.011,11.011
	S156.412,253.041,150.341,253.041z"/>
<g>
	<path style="fill:#1A1C20;" d="M150.341,195.235c-25.804,0-46.796,20.992-46.796,46.796s20.992,46.796,46.796,46.796
		s46.796-20.992,46.796-46.796S176.145,195.235,150.341,195.235z M150.341,272.31c-16.697,0-30.28-13.583-30.28-30.28
		s13.583-30.28,30.28-30.28s30.28,13.583,30.28,30.28S167.038,272.31,150.341,272.31z"/>
	<path style="fill:#1A1C20;" d="M468.325,82.581H247.24c-0.003,0-0.008,0-0.011,0H43.676C19.593,82.581,0,102.173,0,126.257v123.818
		c0,0.01,0,0.021,0,0.031v135.638c0,24.083,19.593,43.675,43.676,43.675h424.648c24.083,0,43.675-19.593,43.675-43.675V126.257
		C512,102.173,492.407,82.581,468.325,82.581z M16.516,126.257c0-14.977,12.183-27.16,27.16-27.16h176.241L16.516,234.701V126.257z
		 M495.484,385.744c0,14.976-12.183,27.159-27.159,27.159H43.676c-2.36,0-4.65-0.304-6.835-0.872l383.29-255.527
		c3.795-2.529,4.821-7.657,2.29-11.451c-2.529-3.794-7.658-4.819-11.451-2.29L21.994,402.079
		c-3.436-4.549-5.478-10.208-5.478-16.334V254.551L249.692,99.097h218.633c2.36,0,4.651,0.304,6.835,0.872l-36.705,24.47
		c-3.795,2.529-4.82,7.657-2.29,11.451c1.591,2.387,4.209,3.679,6.878,3.679c1.575,0,3.166-0.449,4.573-1.388l37.585-25.056
		c1.784-1.189,2.946-2.954,3.425-4.883c4.262,4.797,6.859,11.108,6.859,18.015v259.488H495.484z"/>
</g>
<g>
</g>
<g>
</g>
<g>
</g>
<g>
</g>
<g>
</g>
<g>
</g>
<g>
</g>
<g>
</g>
<g>
</g>
<g>
</g>
<g>
</g>
<g>
</g>
<g>
</g>
<g>
</g>
<g>
</g>
</svg>
