<?xml version="1.0" encoding="iso-8859-1"?>
<!-- Generator: Adobe Illustrator 19.0.0, SVG Export Plug-In . SVG Version: 6.00 Build 0)  -->
<svg version="1.1" id="Layer_1" xmlns="http://www.w3.org/2000/svg" xmlns:xlink="http://www.w3.org/1999/xlink" x="0px" y="0px"
	 viewBox="0 0 512 512" style="enable-background:new 0 0 512 512;" xml:space="preserve">
<rect x="8.258" y="200.946" style="fill:#FFE000;" width="495.484" height="110.108"/>
<g>
	<path style="fill:#3DB4EA;" d="M8.258,385.743c0,19.561,15.858,35.418,35.418,35.418h424.648c19.561,0,35.418-15.857,35.418-35.418
		v-74.689H8.258V385.743z"/>
	<path style="fill:#3DB4EA;" d="M468.324,90.839H43.676c-19.561,0-35.418,15.857-35.418,35.417v74.69h495.484v-74.69
		C503.742,106.695,487.885,90.839,468.324,90.839z"/>
</g>
<path style="fill:#333333;" d="M8.258,120.422v271.156c0,12.645,14.093,20.188,24.615,13.173L256,256L32.873,107.248
	C22.351,100.234,8.258,107.777,8.258,120.422z"/>
<path style="fill:#121B21;" d="M468.324,82.581H43.676c-10.548,0-20.234,3.759-27.791,10.008c-0.338,0.252-0.662,0.527-0.962,0.834
	C5.786,101.433,0,113.18,0,126.257v259.486c0,13.164,5.863,24.978,15.105,32.992c0.196,0.188,0.401,0.364,0.612,0.53
	c7.581,6.334,17.331,10.155,27.96,10.155h424.647c24.083,0,43.676-19.594,43.676-43.676V126.257
	C512,102.174,492.406,82.581,468.324,82.581z M21.994,402.079c-3.436-4.549-5.478-10.208-5.478-16.336V126.257
	c0-6.127,2.041-11.787,5.478-16.336l146.792,97.861c0.012,0.009,0.024,0.017,0.037,0.025L241.113,256l-72.29,48.193
	c-0.012,0.008-0.024,0.017-0.037,0.024L21.994,402.079z M260.58,262.871c2.298-1.532,3.678-4.109,3.678-6.871
	s-1.38-5.34-3.678-6.871l-59.887-39.925h294.791v93.591H200.693L260.58,262.871z M468.324,99.097c14.977,0,27.16,12.183,27.16,27.16
	v66.431H175.919L36.841,99.97c2.185-0.569,4.475-0.873,6.835-0.873H468.324z M468.324,412.903H43.676
	c-2.361,0-4.651-0.304-6.835-0.873l139.078-92.718h319.565v66.431C495.484,400.72,483.3,412.903,468.324,412.903z"/>
<g>
</g>
<g>
</g>
<g>
</g>
<g>
</g>
<g>
</g>
<g>
</g>
<g>
</g>
<g>
</g>
<g>
</g>
<g>
</g>
<g>
</g>
<g>
</g>
<g>
</g>
<g>
</g>
<g>
</g>
</svg>
