<?xml version="1.0" encoding="iso-8859-1"?>
<!-- Generator: Adobe Illustrator 19.0.0, SVG Export Plug-In . SVG Version: 6.00 Build 0)  -->
<svg version="1.1" id="Layer_1" xmlns="http://www.w3.org/2000/svg" xmlns:xlink="http://www.w3.org/1999/xlink" x="0px" y="0px"
	 viewBox="0 0 512 512" style="enable-background:new 0 0 512 512;" xml:space="preserve">
<path style="fill:#FFE000;" d="M468.324,90.839H43.676c-19.561,0-35.418,15.858-35.418,35.418v259.487
	c0,10.847,4.881,20.548,12.559,27.045L491.183,99.211C485.013,93.992,477.039,90.839,468.324,90.839z"/>
<path style="fill:#FF7900;" d="M491.183,99.211L20.817,412.789c6.169,5.22,14.144,8.373,22.858,8.373h424.648
	c19.561,0,35.418-15.857,35.418-35.418V126.257C503.742,115.41,498.861,105.709,491.183,99.211z"/>
<path style="fill:#FFFFFF;" d="M279.515,234.236c32.925,0,59.617,26.691,59.617,59.617s-26.691,59.617-59.617,59.617H139.579
	c-12.02,0-21.764-9.745-21.764-21.764c0-12.02,9.745-21.764,21.764-21.764h139.935c8.886,0,16.088-7.203,16.088-16.089
	c0-8.886-7.203-16.088-16.088-16.088h-47.028c-32.925,0-59.617-26.691-59.617-59.617s26.691-59.617,59.617-59.617h156.879v21.764
	c0,12.02-9.745,21.764-21.764,21.764H232.487c-8.886,0-16.088,7.203-16.088,16.088c0,8.885,7.203,16.088,16.088,16.088
	L279.515,234.236z"/>
<g>
	<path style="fill:#111A21;" d="M397.623,173.699v-15.168v-8.784c0-4.561-3.697-8.258-8.258-8.258c-4.562,0-8.258,3.697-8.258,8.258
		v0.526h-39.223v-11.011c0-4.561-3.696-8.258-8.258-8.258c-4.562,0-8.258,3.697-8.258,8.258v11.011h-6.24v-11.011
		c0-4.561-3.696-8.258-8.258-8.258s-8.258,3.697-8.258,8.258v11.011h-6.239v-22.022c0-4.561-3.696-8.258-8.258-8.258
		c-4.562,0-8.258,3.697-8.258,8.258v22.022h-6.24v-22.022c0-4.561-3.696-8.258-8.258-8.258c-4.562,0-8.258,3.697-8.258,8.258v22.022
		h-24.616c-37.427,0-67.875,30.449-67.875,67.875c0,37.427,30.448,67.875,67.875,67.875h47.029c4.317,0,7.83,3.512,7.83,7.83
		c0,4.317-3.512,7.831-7.83,7.831H139.579h-29.471c-4.561,0-8.258,3.697-8.258,8.258c0,4.561,3.697,8.258,8.258,8.258h2.671
		c-0.843,1.667-1.535,3.422-2.058,5.248H99.097c-4.561,0-8.258,3.697-8.258,8.258c0,4.561,3.697,8.258,8.258,8.258h11.624
		c0.523,1.827,1.214,3.582,2.058,5.248h-2.671c-4.561,0-8.258,3.697-8.258,8.258c0,4.561,3.697,8.258,8.258,8.258h29.471h38.795
		v5.505c0,13.66,11.113,24.774,24.774,24.774h22.572c4.561,0,8.258-3.697,8.258-8.258c0-4.561-3.697-8.258-8.258-8.258h-22.572
		c-4.554,0-8.258-3.705-8.258-8.258v-5.505h49.548v5.505c0,13.66,11.113,24.774,24.774,24.774h22.572
		c4.562,0,8.258-3.697,8.258-8.258c0-4.561-3.696-8.258-8.258-8.258h-22.572c-4.554,0-8.258-3.705-8.258-8.258v-5.505h18.559
		c37.427,0,67.876-30.449,67.876-67.875c0-37.427-30.448-67.875-67.876-67.875h-47.029c-4.317,0-7.83-3.512-7.83-7.83
		s3.512-7.831,7.83-7.831h92.883v5.519c0,13.66,11.114,24.774,24.774,24.774h22.572c4.562,0,8.258-3.697,8.258-8.258
		s-3.696-8.258-8.258-8.258h-22.572c-4.554,0-8.258-3.705-8.258-8.258v-5.519H367.6c14.083,0,25.926-9.749,29.15-22.85
		c2.492-1.421,4.175-4.098,4.175-7.172C400.926,177.596,399.625,175.206,397.623,173.699z M381.106,172.036h-14.448
		c-4.562,0-8.258,3.697-8.258,8.258s3.696,8.258,8.258,8.258h11.605c-2.473,3.187-6.328,5.248-10.664,5.248H232.485
		c-13.424,0-24.346,10.922-24.346,24.347s10.922,24.346,24.346,24.346h47.029c28.32,0,51.36,23.04,51.36,51.359
		c0,28.32-23.04,51.359-51.36,51.359H194.89v-0.551c0-4.561-3.697-8.258-8.258-8.258s-8.258,3.697-8.258,8.258v0.551h-38.795
		c-7.448,0-13.506-6.059-13.506-13.506c0-7.448,6.058-13.506,13.506-13.506h139.935c13.424,0,24.346-10.922,24.346-24.347
		c0-13.424-10.922-24.346-24.346-24.346h-47.029c-28.32,0-51.359-23.04-51.359-51.359c0-28.32,23.039-51.359,51.359-51.359h70.293
		c0.765,3.769,4.097,6.606,8.092,6.606c3.995,0,7.327-2.837,8.092-6.606h6.571c0.765,3.769,4.097,6.606,8.092,6.606
		s7.328-2.837,8.092-6.606h39.389v5.248H381.106z"/>
	<path style="fill:#111A21;" d="M468.324,82.581H43.676C19.593,82.581,0,102.173,0,126.257v259.487
		c0,24.083,19.593,43.675,43.676,43.675h424.648c24.082,0,43.675-19.593,43.675-43.676V126.257
		C512,102.173,492.406,82.581,468.324,82.581z M495.484,385.743c0,14.977-12.183,27.16-27.16,27.16H43.676
		c-14.977,0-27.16-12.183-27.16-27.16V126.257c0-14.977,12.183-27.16,27.16-27.16h424.648c14.976,0,27.159,12.183,27.159,27.16
		V385.743z"/>
</g>
<g>
</g>
<g>
</g>
<g>
</g>
<g>
</g>
<g>
</g>
<g>
</g>
<g>
</g>
<g>
</g>
<g>
</g>
<g>
</g>
<g>
</g>
<g>
</g>
<g>
</g>
<g>
</g>
<g>
</g>
</svg>
