<?xml version="1.0" encoding="iso-8859-1"?>
<!-- Generator: Adobe Illustrator 19.0.0, SVG Export Plug-In . SVG Version: 6.00 Build 0)  -->
<svg version="1.1" id="Layer_1" xmlns="http://www.w3.org/2000/svg" xmlns:xlink="http://www.w3.org/1999/xlink" x="0px" y="0px"
	 viewBox="0 0 512 512" style="enable-background:new 0 0 512 512;" xml:space="preserve">
<path style="fill:#3DB4EA;" d="M46.245,90.839h419.51c20.98,0,37.987,17.007,37.987,37.987v254.348
	c0,20.98-17.007,37.987-37.987,37.987H46.245c-20.98,0-37.987-17.007-37.987-37.987V128.826
	C8.258,107.846,25.265,90.839,46.245,90.839z"/>
<rect x="8.258" y="214.71" style="fill:#333333;" width="495.484" height="82.581"/>
<g>
	<rect x="8.258" y="187.194" style="fill:#FFFFFF;" width="495.484" height="27.52"/>
	<rect x="8.258" y="297.29" style="fill:#FFFFFF;" width="495.484" height="27.52"/>
</g>
<path style="fill:#111A21;" d="M468.324,82.581H43.676C19.594,82.581,0,102.174,0,126.257v259.486
	c0,24.083,19.594,43.676,43.676,43.676h424.647c24.083,0,43.676-19.594,43.676-43.676V126.257
	C512,102.174,492.406,82.581,468.324,82.581z M16.516,222.968h478.968v66.065H16.516V222.968z M43.676,99.097h424.647
	c14.977,0,27.16,12.183,27.16,27.16v80.195H16.516v-80.195C16.516,111.28,28.7,99.097,43.676,99.097z M468.324,412.903H43.676
	c-14.977,0-27.16-12.183-27.16-27.16v-80.195h478.968v80.195C495.484,400.72,483.3,412.903,468.324,412.903z"/>
<g>
</g>
<g>
</g>
<g>
</g>
<g>
</g>
<g>
</g>
<g>
</g>
<g>
</g>
<g>
</g>
<g>
</g>
<g>
</g>
<g>
</g>
<g>
</g>
<g>
</g>
<g>
</g>
<g>
</g>
</svg>
