<?xml version="1.0" encoding="iso-8859-1"?>
<!-- Generator: Adobe Illustrator 19.0.0, SVG Export Plug-In . SVG Version: 6.00 Build 0)  -->
<svg version="1.1" id="Layer_1" xmlns="http://www.w3.org/2000/svg" xmlns:xlink="http://www.w3.org/1999/xlink" x="0px" y="0px"
	 viewBox="0 0 512.001 512.001" style="enable-background:new 0 0 512.001 512.001;" xml:space="preserve">
<path style="fill:#FFFFFF;" d="M96.345,421.07H38.622c-16.769,0-30.363-13.594-30.363-30.363v-265.86
	c0-18.833,15.266-34.099,34.099-34.099h53.987V421.07z"/>
<g>
	<path style="fill:#ED1F34;" d="M52.302,388.354c-2.031,0-4.062-0.745-5.652-2.236L2.658,344.826
		c-0.314-0.29-0.603-0.601-0.867-0.934c-0.263-0.333-0.501-0.684-0.71-1.05c0-0.001-0.001-0.003-0.002-0.003
		c-0.001-0.001-0.001-0.003-0.002-0.004c-0.683-1.203-1.067-2.582-1.077-4.022l0,0c0-0.004,0-0.009,0-0.013l0,0
		c0-0.004,0-0.008,0-0.012c0-0.001,0-0.001,0-0.002c0-0.003,0-0.007,0-0.01c0-0.001,0-0.002,0-0.003c0-0.003,0-0.008,0-0.012l0,0
		v-82.673c0-3.292,1.956-6.271,4.978-7.579c3.022-1.309,6.53-0.696,8.932,1.557l88.086,82.672c1.664,1.561,2.606,3.74,2.606,6.022
		c0,2.28-0.943,4.46-2.606,6.022l-44.043,41.338C56.364,387.609,54.334,388.354,52.302,388.354z M20.326,338.758l31.976,30.012
		l31.976-30.012l-67.761-63.597v44.521l6-5.631c3.326-3.123,8.553-2.955,11.674,0.37c1.496,1.594,2.237,3.626,2.236,5.653
		c-0.001,2.201-0.875,4.396-2.606,6.02L20.326,338.758z"/>
	<path style="fill:#ED1F34;" d="M96.173,429.51c-0.008,0-0.017,0-0.022,0H43.677c-11.376,0-22.15-4.358-30.341-12.271
		c-0.003-0.003-0.008-0.008-0.012-0.012c-8.591-8.308-13.323-19.456-13.323-31.392v-47.076c0-3.292,1.956-6.271,4.978-7.579
		c3.022-1.309,6.533-0.696,8.932,1.557l87.538,82.162c1.822,1.515,2.983,3.799,2.983,6.354
		C104.431,425.814,100.734,429.51,96.173,429.51z M32.082,410.401c3.586,1.698,7.529,2.594,11.595,2.594h31.609l-58.769-55.161v28
		c0,4.735,1.199,9.272,3.457,13.279l2.543-2.388c3.326-3.123,8.553-2.954,11.674,0.37c1.496,1.594,2.237,3.627,2.236,5.653
		c-0.001,2.2-0.875,4.395-2.606,6.02L32.082,410.401z"/>
	<path style="fill:#ED1F34;" d="M468.325,429.51H96.151c-2.1,0-4.12-0.8-5.652-2.236L46.65,386.117
		c-1.664-1.561-2.606-3.74-2.606-6.022c0-2.28,0.943-4.46,2.606-6.021l37.628-35.317l-37.593-35.282
		c-0.02-0.019-0.04-0.036-0.059-0.055l-43.97-41.268c-0.281-0.259-0.542-0.536-0.783-0.83l0,0c-0.001-0.002-0.003-0.003-0.004-0.006
		c-0.003-0.003-0.006-0.007-0.009-0.01l0,0c-0.322-0.394-0.604-0.815-0.847-1.257c0-0.001-0.001-0.002-0.001-0.003
		c-0.002-0.003-0.004-0.007-0.007-0.011c-0.001-0.002-0.003-0.005-0.004-0.009c0-0.001-0.001-0.001-0.001-0.001
		c-0.627-1.155-0.982-2.464-0.999-3.831c0-0.001,0-0.003,0-0.006c0-0.003,0-0.007-0.001-0.01c0-0.004,0-0.009,0-0.014
		c0-0.002,0-0.004,0-0.008c0-0.003,0-0.007,0-0.01c0-0.002,0-0.003,0-0.007c0-0.006,0-0.011,0-0.017c0-0.001,0-0.002,0-0.003
		c0-0.004,0-0.01,0-0.014c0-0.001,0-0.003,0-0.004c0-0.006,0-0.011,0-0.018V126.348c0-11.933,4.73-23.08,13.319-31.387
		c0.003-0.002,0.006-0.004,0.008-0.007c8.191-7.919,18.97-12.281,30.35-12.281h424.647c24.083,0,43.676,19.593,43.676,43.676
		v259.487C512.001,409.918,492.407,429.51,468.325,429.51z M99.42,412.994h368.904c14.977,0,27.16-12.183,27.16-27.16V126.348
		c0-14.976-12.183-27.16-27.16-27.16H99.419L64.37,132.081l37.627,35.311c1.664,1.561,2.606,3.74,2.606,6.022
		c0,2.281-0.943,4.46-2.606,6.022L64.369,214.75l37.628,35.314c1.664,1.56,2.606,3.74,2.606,6.022c0,2.281-0.943,4.46-2.606,6.022
		l-37.628,35.315l37.628,35.315c1.664,1.561,2.606,3.74,2.606,6.022c0,2.281-0.943,4.46-2.606,6.022l-37.628,35.317L99.42,412.994z
		 M20.326,256.085l31.976,30.011l31.975-30.011l-37.592-35.281c-0.02-0.019-0.04-0.036-0.059-0.055l-30.109-28.259v44.519
		l5.999-5.631c3.326-3.123,8.553-2.954,11.674,0.37c1.493,1.591,2.234,3.618,2.236,5.64c0.002,2.204-0.872,4.405-2.606,6.033
		L20.326,256.085z M20.327,173.415l31.975,30.01l31.975-30.01l-37.604-35.292c-0.008-0.007-0.015-0.013-0.023-0.021l-26.676-25.035
		c-2.258,4.007-3.457,8.544-3.457,13.28v27.992l5.998-5.63c3.326-3.12,8.551-2.956,11.673,0.37c1.494,1.591,2.234,3.618,2.236,5.641
		c0.002,2.204-0.872,4.404-2.606,6.033L20.327,173.415z M32.084,101.782l20.218,18.975l22.983-21.568H43.677
		C39.612,99.188,35.669,100.084,32.084,101.782z"/>
	<path style="fill:#ED1F34;" d="M503.743,310.963H96.345V90.748h370.853c20.183,0,36.545,16.362,36.545,36.545V310.963z"/>
</g>
<path style="fill:#259245;" d="M466.806,421.07H96.345V310.963h407.398v73.171C503.743,404.533,487.206,421.07,466.806,421.07z"/>
<path style="fill:#121B21;" d="M468.325,82.671H98.064c-0.555-0.118-1.129-0.182-1.719-0.182s-1.164,0.064-1.719,0.182H43.677
	c-24.083,0-43.676,19.594-43.676,43.676v259.487c0,24.083,19.594,43.676,43.676,43.676h424.647
	c24.083,0,43.676-19.593,43.676-43.676V126.348C512.001,102.265,492.407,82.671,468.325,82.671z M16.517,385.835V126.348
	c0-14.976,12.183-27.16,27.16-27.16h44.41v313.806h-44.41C28.701,412.994,16.517,400.811,16.517,385.835z M468.325,412.994H104.603
	v-93.773h57.806c4.562,0,8.258-3.697,8.258-8.258c0-4.561-3.696-8.258-8.258-8.258h-57.806V99.188h363.721
	c14.977,0,27.16,12.183,27.16,27.16v176.358H195.442c-4.562,0-8.258,3.697-8.258,8.258c0,4.561,3.696,8.258,8.258,8.258h300.043
	v66.613C495.485,400.811,483.302,412.994,468.325,412.994z"/>
<g>
</g>
<g>
</g>
<g>
</g>
<g>
</g>
<g>
</g>
<g>
</g>
<g>
</g>
<g>
</g>
<g>
</g>
<g>
</g>
<g>
</g>
<g>
</g>
<g>
</g>
<g>
</g>
<g>
</g>
</svg>
