<?xml version="1.0" encoding="iso-8859-1"?>
<!-- Generator: Adobe Illustrator 19.0.0, SVG Export Plug-In . SVG Version: 6.00 Build 0)  -->
<svg version="1.1" id="Layer_1" xmlns="http://www.w3.org/2000/svg" xmlns:xlink="http://www.w3.org/1999/xlink" x="0px" y="0px"
	 viewBox="0 0 512 512" style="enable-background:new 0 0 512 512;" xml:space="preserve">
<rect x="8.258" y="138.735" style="fill:#103B9B;" width="495.484" height="234.529"/>
<g>
	<path style="fill:#ED1F34;" d="M503.742,138.735H8.258v-14.021c0-18.709,15.166-33.876,33.875-33.876h427.734
		c18.708,0,33.876,15.166,33.876,33.876V138.735z"/>
	<path style="fill:#ED1F34;" d="M469.866,421.161H42.133c-18.708,0-33.875-15.166-33.875-33.876v-14.021h495.484v14.021
		C503.742,405.995,488.576,421.161,469.866,421.161z"/>
</g>
<circle style="fill:#FFFFFF;" cx="256" cy="256" r="84.232"/>
<path style="fill:#259245;" d="M256,329.222c-40.374,0-73.221-32.847-73.221-73.222s32.847-73.221,73.221-73.221
	s73.222,32.847,73.222,73.221S296.374,329.222,256,329.222z M256,199.295c-31.268,0-56.705,25.437-56.705,56.705
	s25.437,56.705,56.705,56.705s56.705-25.438,56.705-56.705S287.267,199.295,256,199.295z"/>
<path style="fill:#FFE000;" d="M232.723,227.444v37.159c0,14.669,12.314,23.18,23.277,26.56
	c10.962-3.379,23.277-11.892,23.277-26.56v-37.159H232.723z"/>
<g>
	<path style="fill:#121B21;" d="M253.567,299.054c0.793,0.244,1.613,0.367,2.433,0.367s1.641-0.122,2.433-0.367
		c14.067-4.337,29.101-15.665,29.101-34.45v-37.159c0-4.562-3.696-8.258-8.258-8.258h-46.553c-4.562,0-8.258,3.696-8.258,8.258
		v37.159C224.465,283.389,239.499,294.717,253.567,299.054z M240.981,235.702h30.036v28.901c0,10.454-9.601,15.693-15.019,17.814
		c-5.417-2.122-15.019-7.361-15.019-17.814v-28.901H240.981z"/>
	<path style="fill:#121B21;" d="M468.324,82.581H43.676C19.594,82.581,0,102.174,0,126.257v259.486
		c0,24.083,19.594,43.676,43.676,43.676h424.647c24.083,0,43.676-19.594,43.676-43.676V126.257
		C512,102.174,492.406,82.581,468.324,82.581z M495.484,365.006h-57.806c-4.562,0-8.258,3.696-8.258,8.258s3.696,8.258,8.258,8.258
		h57.806v4.22c0,14.977-12.183,27.16-27.16,27.16H43.676c-14.977,0-27.16-12.183-27.16-27.16v-4.22h388.129
		c4.562,0,8.258-3.696,8.258-8.258s-3.696-8.258-8.258-8.258H16.516V146.994h478.968V365.006z M495.484,130.477H16.516v-4.22
		c0-14.977,12.183-27.16,27.16-27.16h424.647c14.977,0,27.16,12.183,27.16,27.16V130.477z"/>
</g>
<g>
</g>
<g>
</g>
<g>
</g>
<g>
</g>
<g>
</g>
<g>
</g>
<g>
</g>
<g>
</g>
<g>
</g>
<g>
</g>
<g>
</g>
<g>
</g>
<g>
</g>
<g>
</g>
<g>
</g>
</svg>
