<?xml version="1.0" encoding="iso-8859-1"?>
<!-- Generator: Adobe Illustrator 19.0.0, SVG Export Plug-In . SVG Version: 6.00 Build 0)  -->
<svg version="1.1" id="Layer_1" xmlns="http://www.w3.org/2000/svg" xmlns:xlink="http://www.w3.org/1999/xlink" x="0px" y="0px"
	 viewBox="0 0 512 512" style="enable-background:new 0 0 512 512;" xml:space="preserve">
<rect x="118.366" y="90.839" style="fill:#FFFFFF;" width="275.269" height="330.323"/>
<g>
	<path style="fill:#ED1F34;" d="M118.366,90.839v330.323H43.751c-19.602,0-35.493-15.891-35.493-35.493V126.332
		c0-19.602,15.891-35.493,35.493-35.493H118.366z"/>
	<path style="fill:#ED1F34;" d="M503.742,126.332v259.336c0,19.602-15.891,35.493-35.493,35.493h-74.614V90.839h74.614
		C487.851,90.839,503.742,106.729,503.742,126.332z"/>
	<polygon style="fill:#ED1F34;" points="349.15,210.847 306.621,213.137 278.607,247.431 284.453,189.43 256,157.738 
		227.547,189.43 233.393,247.431 205.379,213.137 162.85,210.847 165.14,253.376 207.989,288.378 207.989,310.456 304.011,310.456 
		304.011,288.378 346.86,253.376 	"/>
</g>
<path style="fill:#121B21;" d="M356.108,235.225l1.288-23.933c0.126-2.341-0.749-4.626-2.407-6.284s-3.94-2.526-6.284-2.407
	l-23.934,1.288c2.269-3.487,1.595-8.196-1.701-10.89c-3.532-2.885-8.734-2.361-11.62,1.17l-11.221,13.736
	c-0.001,0.002-0.003,0.003-0.005,0.006l-10.648,13.037l3.094-30.691l1.779-17.655c0.457-4.538-2.851-8.587-7.388-9.044
	c-4.231-0.438-8.042,2.426-8.903,6.497l-16.013-17.835c-1.566-1.744-3.8-2.741-6.145-2.741c-2.344,0-4.578,0.996-6.145,2.741
	l-16.013,17.835c-0.862-4.073-4.681-6.936-8.903-6.497c-4.539,0.457-7.845,4.507-7.388,9.044l1.779,17.655l3.094,30.691
	l-10.648-13.037c-0.002-0.002-0.003-0.003-0.006-0.006l-11.221-13.736c-2.885-3.531-8.089-4.056-11.62-1.17
	c-3.297,2.693-3.97,7.403-1.701,10.89l-23.934-1.288c-2.341-0.124-4.626,0.749-6.283,2.407c-1.658,1.658-2.532,3.943-2.407,6.284
	l1.288,23.933c-3.487-2.269-8.198-1.594-10.89,1.701c-2.885,3.532-2.361,8.735,1.172,11.621l13.737,11.221
	c0.002,0.001,0.003,0.003,0.004,0.004l39.815,32.524v18.159c0,4.562,3.697,8.258,8.258,8.258h39.754v35.548
	c0,4.562,3.697,8.258,8.258,8.258c4.561,0,8.258-3.696,8.258-8.258v-35.548h39.753c4.561,0,8.258-3.696,8.258-8.258v-18.159
	l39.815-32.524c0.001-0.001,0.003-0.003,0.004-0.004l13.737-11.221c3.532-2.886,4.056-8.088,1.172-11.621
	C364.305,233.631,359.596,232.956,356.108,235.225z M338.81,249.289l-40.023,32.693c-1.92,1.569-3.033,3.917-3.033,6.396v13.818
	h-79.508v-13.818c0-2.48-1.114-4.827-3.033-6.396l-40.023-32.693l-1.599-29.702l29.702,1.599l25.706,31.469
	c2.306,2.822,6.19,3.802,9.556,2.405c3.367-1.395,5.422-4.832,5.056-8.457l-5.481-54.371L256,170.098l19.871,22.133l-5.481,54.371
	c-0.364,3.626,1.689,7.062,5.056,8.457c3.367,1.396,7.251,0.418,9.556-2.405l25.706-31.469l29.702-1.599L338.81,249.289z
	 M468.324,82.581H43.675C19.593,82.581,0,102.174,0,126.257v259.486c0,24.083,19.593,43.676,43.675,43.676h424.648
	c24.084,0,43.676-19.594,43.676-43.676V126.257C512,102.174,492.407,82.581,468.324,82.581z M110.108,412.903H43.675
	c-14.976,0-27.159-12.183-27.159-27.16V126.257c0-14.977,12.183-27.16,27.159-27.16h66.432V412.903z M495.484,385.743
	c0,14.977-12.183,27.16-27.16,27.16h-66.431V167.914c0-4.562-3.697-8.258-8.258-8.258c-4.561,0-8.258,3.696-8.258,8.258v244.989
	H126.624V99.097h258.753v35.785c0,4.562,3.697,8.258,8.258,8.258c4.561,0,8.258-3.696,8.258-8.258V99.097h66.431
	c14.977,0,27.16,12.183,27.16,27.16V385.743z"/>
<g>
</g>
<g>
</g>
<g>
</g>
<g>
</g>
<g>
</g>
<g>
</g>
<g>
</g>
<g>
</g>
<g>
</g>
<g>
</g>
<g>
</g>
<g>
</g>
<g>
</g>
<g>
</g>
<g>
</g>
</svg>
