<?xml version="1.0" encoding="iso-8859-1"?>
<!-- Generator: Adobe Illustrator 19.0.0, SVG Export Plug-In . SVG Version: 6.00 Build 0)  -->
<svg version="1.1" id="Layer_1" xmlns="http://www.w3.org/2000/svg" xmlns:xlink="http://www.w3.org/1999/xlink" x="0px" y="0px"
	 viewBox="0 0 512 512" style="enable-background:new 0 0 512 512;" xml:space="preserve">
<path style="fill:#103B9B;" d="M8.258,385.101V126.899c0-19.915,16.145-36.06,36.06-36.06h423.363
	c19.915,0,36.06,16.145,36.06,36.06v258.202c0,19.915-16.145,36.06-36.06,36.06H44.318C24.403,421.161,8.258,405.016,8.258,385.101z
	"/>
<g>
	<path style="fill:#FFE000;" d="M313.92,328.104c-39.823,0-72.105-32.282-72.105-72.105s32.282-72.104,72.105-72.104
		c1.198,0,2.388,0.033,3.573,0.089c-11.947-6.718-25.723-10.566-40.405-10.566c-45.608,0-82.581,36.973-82.581,82.58
		c0,45.608,36.973,82.582,82.581,82.582c14.682,0,28.458-3.848,40.405-10.566C316.309,328.072,315.118,328.104,313.92,328.104z"/>
	<circle style="fill:#FFE000;" cx="110.174" cy="187.865" r="48.998"/>
	<circle style="fill:#FFE000;" cx="384.76" cy="156.903" r="16.516"/>
	<circle style="fill:#FFE000;" cx="384.76" cy="355.097" r="16.516"/>
	<circle style="fill:#FFE000;" cx="434.308" cy="198.194" r="16.516"/>
	<circle style="fill:#FFE000;" cx="335.211" cy="239.484" r="16.516"/>
	<circle style="fill:#FFE000;" cx="409.534" cy="276.645" r="11.011"/>
</g>
<circle style="fill:#259245;" cx="110.174" cy="176.877" r="21.319"/>
<g>
	<path style="fill:#1A1C20;" d="M313.92,192.154c1.023,0,2.061,0.025,3.176,0.079c0.152,0.007,0.301,0.006,0.456,0.01
		c4.544-0.02,8.222-3.71,8.222-8.258c0-3.26-1.889-6.079-4.632-7.421c-13.431-7.462-28.651-11.403-44.053-11.403
		c-50.088,0-90.839,40.75-90.839,90.838c0,50.089,40.75,90.84,90.839,90.84c15.554,0,30.926-4.02,44.451-11.626
		c3.337-1.876,4.947-5.8,3.889-9.48c-1.058-3.681-4.508-6.14-8.333-5.966c-1.114,0.054-2.154,0.079-3.176,0.079
		c-35.205,0-63.846-28.642-63.846-63.847S278.715,192.154,313.92,192.154z M233.558,255.999c0,33.291,20.349,61.92,49.261,74.101
		c-1.903,0.149-3.816,0.222-5.731,0.222c-40.981,0-74.323-33.342-74.323-74.324c0-40.981,33.341-74.321,74.323-74.321
		c1.915,0,3.827,0.074,5.731,0.222C253.907,194.081,233.558,222.709,233.558,255.999z"/>
	<path style="fill:#1A1C20;" d="M110.176,147.3c-16.308,0-29.577,13.268-29.577,29.576c0,13.442,9.018,24.812,21.319,28.396v14.912
		c0,4.562,3.697,8.258,8.258,8.258c4.561,0,8.258-3.696,8.258-8.258v-14.912c12.301-3.584,21.319-14.954,21.319-28.396
		C139.753,160.568,126.485,147.3,110.176,147.3z M110.176,189.938c-7.201,0-13.061-5.859-13.061-13.061
		c0-7.201,5.859-13.06,13.061-13.06s13.061,5.859,13.061,13.06C123.237,184.079,117.378,189.938,110.176,189.938z"/>
	<path style="fill:#1A1C20;" d="M468.324,82.581H43.675C19.593,82.581,0,102.174,0,126.257v259.486
		c0,24.083,19.593,43.676,43.675,43.676h424.648c24.084,0,43.676-19.594,43.676-43.676V126.257
		C512,102.174,492.407,82.581,468.324,82.581z M495.484,385.743c0,14.977-12.183,27.16-27.16,27.16H43.675
		c-14.976,0-27.159-12.183-27.159-27.16V126.257c0-14.977,12.183-27.16,27.159-27.16h424.648c14.977,0,27.16,12.183,27.16,27.16
		V385.743z"/>
</g>
<g>
</g>
<g>
</g>
<g>
</g>
<g>
</g>
<g>
</g>
<g>
</g>
<g>
</g>
<g>
</g>
<g>
</g>
<g>
</g>
<g>
</g>
<g>
</g>
<g>
</g>
<g>
</g>
<g>
</g>
</svg>
