<?xml version="1.0" encoding="iso-8859-1"?>
<!-- Generator: Adobe Illustrator 19.0.0, SVG Export Plug-In . SVG Version: 6.00 Build 0)  -->
<svg version="1.1" id="Layer_1" xmlns="http://www.w3.org/2000/svg" xmlns:xlink="http://www.w3.org/1999/xlink" x="0px" y="0px"
	 viewBox="0 0 512 512" style="enable-background:new 0 0 512 512;" xml:space="preserve">
<path style="fill:#3DB4EA;" d="M8.258,384.275V127.725c0-20.372,16.514-36.886,36.886-36.886h421.712
	c20.371,0,36.886,16.514,36.886,36.886v256.551c0,20.371-16.515,36.886-36.886,36.886H45.144
	C24.772,421.161,8.258,404.646,8.258,384.275z"/>
<path style="fill:#ED1F34;" d="M489.541,97.896L8.258,337.05v48.693c0,11.603,5.579,21.901,14.201,28.362L503.742,174.95v-48.693
	C503.742,114.654,498.163,104.354,489.541,97.896z"/>
<g>
	<path style="fill:#FFE000;" d="M43.676,421.161h26.44l433.625-215.469V174.95L22.459,414.105
		C28.373,418.535,35.718,421.161,43.676,421.161z"/>
	<path style="fill:#FFE000;" d="M468.324,90.839h-26.44L8.258,306.308v30.742L489.541,97.896
		C483.628,93.465,476.282,90.839,468.324,90.839z"/>
	<polygon style="fill:#FFE000;" points="47.897,161.926 82.352,160.146 94.692,127.927 107.032,160.146 141.488,161.926 
		114.659,183.619 123.613,216.937 94.692,198.125 65.772,216.937 74.726,183.619 	"/>
</g>
<g>
	<path style="fill:#111A21;" d="M42.704,168.348l22.651,18.315l-7.56,28.132c-0.887,3.303,0.353,6.813,3.122,8.824
		c2.767,2.011,6.489,2.107,9.357,0.242l24.419-15.884l24.419,15.883c1.372,0.893,2.938,1.336,4.502,1.336
		c1.707,0,3.411-0.529,4.855-1.578c2.768-2.011,4.009-5.521,3.122-8.824l-7.56-28.132l22.651-18.315
		c2.66-2.15,3.718-5.719,2.661-8.974c-1.057-3.254-4.011-5.52-7.428-5.696l-29.09-1.502l-10.418-27.203
		c-1.223-3.194-4.291-5.304-7.712-5.304c-3.421,0-6.489,2.11-7.712,5.304l-10.418,27.203l-29.09,1.502
		c-3.417,0.176-6.371,2.442-7.428,5.696C38.986,162.628,40.044,166.196,42.704,168.348z M82.778,168.394
		c3.261-0.168,6.118-2.244,7.286-5.294l4.629-12.085l4.629,12.085c1.168,3.05,4.024,5.124,7.286,5.294l12.922,0.668l-10.063,8.136
		c-2.539,2.054-3.63,5.411-2.782,8.564l3.358,12.498l-10.848-7.056c-1.369-0.891-2.937-1.336-4.502-1.336
		c-1.567,0-3.134,0.445-4.502,1.336l-10.848,7.056l3.358-12.498c0.848-3.153-0.243-6.511-2.782-8.564l-10.063-8.136L82.778,168.394z
		"/>
	<path style="fill:#111A21;" d="M495.043,91.744c-0.331-0.297-0.685-0.56-1.056-0.797c-7.211-5.254-16.078-8.366-25.664-8.366
		H43.675C19.593,82.581,0,102.174,0,126.257v259.486c0,14.07,6.695,26.599,17.058,34.592c0.249,0.215,0.511,0.411,0.782,0.594
		c7.24,5.331,16.175,8.49,25.836,8.49h424.648c24.084,0,43.676-19.594,43.676-43.676V126.257
		C512,112.234,505.348,99.741,495.043,91.744z M43.675,99.097h424.648c0.077,0,0.153,0.006,0.23,0.006L16.516,323.725V126.257
		C16.516,111.28,28.7,99.097,43.675,99.097z M468.324,412.903H43.675c-0.077,0-0.153-0.005-0.23-0.005l380.57-189.11
		c4.084-2.03,5.75-6.986,3.721-11.071c-2.03-4.084-6.987-5.748-11.07-3.721L23.793,404.219c-4.51-4.85-7.277-11.344-7.277-18.476
		v-43.574l471.69-234.388c4.511,4.85,7.278,11.345,7.278,18.476v43.574l-49.236,24.467c-4.085,2.03-5.75,6.986-3.721,11.071
		c1.442,2.904,4.365,4.585,7.401,4.585c1.234,0,2.488-0.279,3.668-0.864l41.887-20.815v197.468
		C495.484,400.72,483.3,412.903,468.324,412.903z"/>
</g>
<g>
</g>
<g>
</g>
<g>
</g>
<g>
</g>
<g>
</g>
<g>
</g>
<g>
</g>
<g>
</g>
<g>
</g>
<g>
</g>
<g>
</g>
<g>
</g>
<g>
</g>
<g>
</g>
<g>
</g>
</svg>
