<?xml version="1.0" encoding="iso-8859-1"?>
<!-- Generator: Adobe Illustrator 19.0.0, SVG Export Plug-In . SVG Version: 6.00 Build 0)  -->
<svg version="1.1" id="Layer_1" xmlns="http://www.w3.org/2000/svg" xmlns:xlink="http://www.w3.org/1999/xlink" x="0px" y="0px"
	 viewBox="0 0 512 512" style="enable-background:new 0 0 512 512;" xml:space="preserve">
<rect x="8.258" y="256" style="fill:#259245;" width="495.484" height="82.581"/>
<path style="fill:#164FCE;" d="M468.324,90.839H43.676c-19.562,0-35.418,15.857-35.418,35.417v47.163h495.484v-47.163
	C503.742,106.695,487.884,90.839,468.324,90.839z"/>
<path style="fill:#FFE000;" d="M8.258,385.743c0,19.56,15.855,35.416,35.415,35.418h424.654
	c19.56-0.001,35.415-15.858,35.415-35.418v-47.162H8.258V385.743z"/>
<rect x="8.258" y="173.419" style="fill:#FFFFFF;" width="495.484" height="82.581"/>
<rect x="214.71" y="90.839" style="fill:#ED1F34;" width="82.581" height="330.323"/>
<circle style="fill:#FFE000;" cx="71.57" cy="132.129" r="16.516"/>
<path style="fill:#111A21;" d="M468.324,82.581H43.675C19.593,82.581,0,102.174,0,126.257v259.486
	c0,24.083,19.593,43.676,43.675,43.676h424.648c24.084,0,43.676-19.594,43.676-43.676V126.257
	C512,102.174,492.407,82.581,468.324,82.581z M206.452,247.742H16.516v-66.065h189.935V247.742z M16.516,264.258h189.935v66.065
	H16.516V264.258z M222.968,99.097h66.065v156.881c0,0.008-0.001,0.014-0.001,0.022c0,0.008,0.001,0.014,0.001,0.022v82.538
	c0,0.008-0.001,0.014-0.001,0.022s0.001,0.014,0.001,0.022v74.299h-66.065V99.097z M305.548,181.677h189.935v66.065H305.548V181.677
	z M495.484,126.257v38.904H305.548V99.097h162.775C483.3,99.097,495.484,111.28,495.484,126.257z M43.675,99.097h162.776v66.065
	H16.516v-38.904C16.516,111.28,28.7,99.097,43.675,99.097z M16.516,385.743v-38.904h189.935v66.065H43.675
	C28.7,412.903,16.516,400.72,16.516,385.743z M468.324,412.903H305.548v-66.065h132.129c4.561,0,8.258-3.696,8.258-8.258
	s-3.697-8.258-8.258-8.258H305.548v-66.065h189.935v66.065H470.71c-4.561,0-8.258,3.696-8.258,8.258s3.697,8.258,8.258,8.258h24.774
	v38.904C495.484,400.72,483.3,412.903,468.324,412.903z"/>
<g>
</g>
<g>
</g>
<g>
</g>
<g>
</g>
<g>
</g>
<g>
</g>
<g>
</g>
<g>
</g>
<g>
</g>
<g>
</g>
<g>
</g>
<g>
</g>
<g>
</g>
<g>
</g>
<g>
</g>
</svg>
