<?xml version="1.0" encoding="iso-8859-1"?>
<!-- Generator: Adobe Illustrator 19.0.0, SVG Export Plug-In . SVG Version: 6.00 Build 0)  -->
<svg version="1.1" id="Layer_1" xmlns="http://www.w3.org/2000/svg" xmlns:xlink="http://www.w3.org/1999/xlink" x="0px" y="0px"
	 viewBox="0 0 512 512" style="enable-background:new 0 0 512 512;" xml:space="preserve">
<path style="fill:#259245;" d="M43.676,90.839c-19.561,0-35.418,15.857-35.418,35.418v259.486c0,9.868,4.038,18.789,10.548,25.21
	L349.591,90.839H43.676z"/>
<path style="fill:#ED1F34;" d="M493.194,101.047L162.409,421.161h305.915c19.561,0,35.418-15.857,35.418-35.418V126.257
	C503.742,116.389,499.703,107.469,493.194,101.047z"/>
<path style="fill:#FFE000;" d="M468.324,90.839H349.591L18.806,410.953c6.395,6.309,15.176,10.208,24.87,10.208h118.732
	l330.785-320.115C486.799,94.737,478.018,90.839,468.324,90.839z"/>
<path style="fill:#111A21;" d="M499.305,95.505c-0.061-0.067-0.113-0.138-0.176-0.203c-0.216-0.222-0.442-0.428-0.675-0.62
	c-7.844-7.488-18.455-12.102-30.13-12.102H43.676C19.593,82.581,0,102.174,0,126.257v259.486c0,11.983,4.854,22.853,12.695,30.752
	c0.061,0.067,0.113,0.138,0.176,0.203c0.217,0.224,0.445,0.43,0.679,0.624c7.843,7.485,18.453,12.098,30.125,12.098h424.648
	c24.083,0,43.675-19.594,43.675-43.676V126.257C512,114.274,507.146,103.404,499.305,95.505z M16.516,126.257
	c0-14.977,12.183-27.16,27.16-27.16h285.507L19.738,398.56c-2.054-3.82-3.222-8.184-3.222-12.816V126.257z M31.602,410.062
	L352.933,99.097h115.391c4.336,0,8.434,1.027,12.073,2.841l-321.33,310.966H43.676C39.34,412.903,35.242,411.876,31.602,410.062z
	 M495.484,385.743c0,14.977-12.183,27.16-27.16,27.16H182.817L492.262,113.44c2.053,3.82,3.222,8.184,3.222,12.817V385.743z"/>
<g>
</g>
<g>
</g>
<g>
</g>
<g>
</g>
<g>
</g>
<g>
</g>
<g>
</g>
<g>
</g>
<g>
</g>
<g>
</g>
<g>
</g>
<g>
</g>
<g>
</g>
<g>
</g>
<g>
</g>
</svg>
