<?xml version="1.0" encoding="iso-8859-1"?>
<!-- Generator: Adobe Illustrator 19.0.0, SVG Export Plug-In . SVG Version: 6.00 Build 0)  -->
<svg version="1.1" id="Layer_1" xmlns="http://www.w3.org/2000/svg" xmlns:xlink="http://www.w3.org/1999/xlink" x="0px" y="0px"
	 viewBox="0 0 511.999 511.999" style="enable-background:new 0 0 511.999 511.999;" xml:space="preserve">
<path style="fill:#ED1F34;" d="M468.723,421.689H43.341c-19.777,0-35.829-16.052-35.829-35.829V126.009
	c0-19.777,16.052-35.829,35.829-35.829h425.381c19.777,0,35.829,16.052,35.829,35.829v259.724
	C504.488,405.637,488.564,421.689,468.723,421.689z"/>
<polygon style="fill:#FFFFFF;" points="360.917,219.24 292.727,219.24 292.727,151.05 219.273,151.05 219.273,219.24 
	151.083,219.24 151.083,292.695 219.273,292.695 219.273,360.884 292.727,360.884 292.727,292.695 360.917,292.695 "/>
<path d="M292.727,368.461h-73.455c-4.109,0-7.512-3.404-7.512-7.512v-60.677h-60.677c-4.109,0-7.512-3.404-7.512-7.512v-73.455
	c0-4.109,3.404-7.512,7.512-7.512h60.677v-60.677c0-4.109,3.404-7.512,7.512-7.512h73.455c4.109,0,7.512,3.404,7.512,7.512v60.677
	h60.678c4.109,0,7.512,3.404,7.512,7.512v73.455c0,4.109-3.404,7.512-7.512,7.512H300.24v60.677
	C300.24,364.993,296.901,368.461,292.727,368.461z M226.785,353.372h58.365v-60.678c0-4.109,3.404-7.512,7.512-7.512h60.677v-58.366
	h-60.678c-4.109,0-7.512-3.404-7.512-7.512v-60.677h-58.365v60.677c0,4.109-3.404,7.512-7.512,7.512h-60.677v58.366h60.677
	c4.109,0,7.512,3.404,7.512,7.512L226.785,353.372L226.785,353.372z"/>
<path d="M468.98,429.202H43.019C19.262,429.202,0,409.811,0,386.183V125.817c0-23.757,19.391-43.019,43.019-43.019h425.96
	c23.757,0,43.019,19.391,43.019,43.019v260.366C512.064,409.876,492.801,429.202,468.98,429.202z M43.019,97.757
	c-15.474,0-27.995,12.521-27.995,27.995v260.366c0,15.474,12.521,27.995,27.995,27.995h425.96c15.474,0,27.995-12.521,27.995-27.995
	V125.88c0-15.474-12.521-27.995-27.995-27.995H43.019V97.757z"/>
<g>
</g>
<g>
</g>
<g>
</g>
<g>
</g>
<g>
</g>
<g>
</g>
<g>
</g>
<g>
</g>
<g>
</g>
<g>
</g>
<g>
</g>
<g>
</g>
<g>
</g>
<g>
</g>
<g>
</g>
</svg>
