<?xml version="1.0" encoding="iso-8859-1"?>
<!-- Generator: Adobe Illustrator 19.0.0, SVG Export Plug-In . SVG Version: 6.00 Build 0)  -->
<svg version="1.1" id="Layer_1" xmlns="http://www.w3.org/2000/svg" xmlns:xlink="http://www.w3.org/1999/xlink" x="0px" y="0px"
	 viewBox="0 0 512 512" style="enable-background:new 0 0 512 512;" xml:space="preserve">
<path style="fill:#FFFFFF;" d="M468.288,90.72H43.712c-19.584,0-35.392,15.872-35.392,35.393v149.824h495.488V126.24
	C503.681,106.592,487.872,90.72,468.288,90.72z"/>
<path style="fill:#ED1F34;" d="M8.32,385.632c0,19.52,15.808,35.393,35.392,35.393h424.704c19.52,0,35.392-15.872,35.392-35.393
	V255.904H8.32V385.632z"/>
<g>
	<path style="fill:#164FCE;" d="M44.16,90.72c-19.84,0-35.904,16.064-35.904,35.904v129.28H173.44V90.72H44.16z"/>
</g>
<polygon style="fill:#FFFFFF;" points="53.824,165.024 81.088,163.616 90.816,138.08 100.608,163.616 127.872,165.024 
	106.624,182.177 113.728,208.608 90.816,193.697 67.904,208.608 75.008,182.177 "/>
<g>
	<path style="fill:#121B21;" d="M48.576,171.424l17.088,13.824l-5.696,21.184c-0.896,3.328,0.384,6.784,3.072,8.832
		c2.816,1.984,6.528,2.112,9.408,0.192l18.432-12.032l18.432,12.032c1.408,0.896,2.88,1.28,4.48,1.28c1.728,0,3.392-0.512,4.928-1.6
		c2.816-1.984,4.032-5.504,3.072-8.832l-5.696-21.184l17.088-13.824c2.688-2.176,3.712-5.696,2.688-9.024
		c-1.088-3.328-4.032-5.504-7.424-5.696l-21.888-1.088l-7.808-20.48c-1.216-3.2-4.288-5.312-7.68-5.312
		c-3.392,0-6.528,2.112-7.68,5.312l-7.808,20.48l-21.888,1.088c-3.392,0.192-6.4,2.432-7.424,5.696
		C44.928,165.729,45.888,169.312,48.576,171.424z M81.472,171.808c3.328-0.192,6.08-2.176,7.296-5.312l2.112-5.376l2.112,5.376
		c1.216,3.008,4.032,5.12,7.296,5.312l5.696,0.32l-4.48,3.584c-2.496,2.112-3.584,5.376-2.816,8.576l1.472,5.632l-4.8-3.072
		c-1.408-0.896-2.88-1.28-4.48-1.28c-1.6,0-3.072,0.384-4.48,1.28l-4.8,3.072l1.472-5.632c0.832-3.2-0.192-6.528-2.816-8.576
		l-4.48-3.584L81.472,171.808z"/>
	<path style="fill:#121B21;" d="M468.288,82.528H43.712C19.584,82.528,0,102.112,0,126.24v259.52
		c0,24.128,19.584,43.712,43.712,43.712h424.576c24.128,0,43.712-19.584,43.712-43.712V126.24
		C512,102.112,492.416,82.528,468.288,82.528z M43.712,98.977h121.473v148.608H16.512V126.177
		C16.512,111.2,28.672,98.977,43.712,98.977z M468.288,412.832H43.712c-14.976,0-27.2-12.224-27.2-27.2V264.223h421.184
		c4.608,0,8.32-3.712,8.32-8.32c0-4.608-3.712-8.32-8.32-8.32H181.696V98.977h286.592c14.976,0,27.2,12.224,27.2,27.2v121.473
		h-24.833c-4.608,0-8.32,3.712-8.32,8.32c0,4.608,3.712,8.32,8.32,8.32h24.832v121.534
		C495.488,400.609,483.328,412.832,468.288,412.832z"/>
</g>
<g>
</g>
<g>
</g>
<g>
</g>
<g>
</g>
<g>
</g>
<g>
</g>
<g>
</g>
<g>
</g>
<g>
</g>
<g>
</g>
<g>
</g>
<g>
</g>
<g>
</g>
<g>
</g>
<g>
</g>
</svg>
