<?xml version="1.0" encoding="iso-8859-1"?>
<!-- Generator: Adobe Illustrator 19.0.0, SVG Export Plug-In . SVG Version: 6.00 Build 0)  -->
<svg version="1.1" id="Layer_1" xmlns="http://www.w3.org/2000/svg" xmlns:xlink="http://www.w3.org/1999/xlink" x="0px" y="0px"
	 viewBox="0 0 512 512" style="enable-background:new 0 0 512 512;" xml:space="preserve">
<rect x="173.419" y="90.839" style="fill:#ED1F34;" width="165.161" height="330.323"/>
<path style="fill:#259245;" d="M43.676,90.839c-19.562,0-35.418,15.857-35.418,35.417v259.487c0,19.561,15.857,35.418,35.418,35.418
	h129.743V90.839H43.676z"/>
<g>
	<path style="fill:#FFE000;" d="M468.324,90.839H338.581v330.323h129.743c19.561,0,35.418-15.857,35.418-35.418V126.256
		C503.742,106.695,487.885,90.839,468.324,90.839z"/>
	<polygon style="fill:#FFE000;" points="218.952,247.682 246.23,246.273 256,220.766 265.77,246.273 293.048,247.682 
		271.808,264.856 278.897,291.234 256,276.341 233.103,291.234 240.192,264.856 	"/>
</g>
<g>
	<path style="fill:#111A21;" d="M213.761,254.104l17.063,13.795l-5.696,21.191c-0.889,3.303,0.353,6.813,3.122,8.824
		c2.767,2.011,6.489,2.106,9.357,0.242L256,286.193l18.393,11.964c1.372,0.893,2.939,1.336,4.503,1.336
		c1.707,0,3.41-0.527,4.854-1.578c2.768-2.011,4.01-5.521,3.122-8.824l-5.696-21.191l17.063-13.795
		c2.66-2.15,3.718-5.719,2.661-8.973s-4.011-5.52-7.428-5.696l-21.913-1.132l-7.848-20.491c-1.223-3.194-4.29-5.304-7.712-5.304
		s-6.489,2.11-7.712,5.304l-7.848,20.491l-21.913,1.132c-3.418,0.176-6.371,2.442-7.428,5.696
		C210.042,248.385,211.1,251.954,213.761,254.104z M246.656,254.52c3.262-0.168,6.119-2.244,7.286-5.294l2.058-5.373l2.058,5.373
		c1.168,3.05,4.023,5.124,7.286,5.294l5.745,0.297l-4.475,3.617c-2.54,2.053-3.63,5.411-2.782,8.564l1.493,5.557l-4.823-3.138
		c-1.369-0.891-2.937-1.336-4.503-1.336s-3.135,0.445-4.503,1.336l-4.823,3.138l1.493-5.557c0.848-3.153-0.243-6.511-2.782-8.564
		l-4.475-3.617L246.656,254.52z"/>
	<path style="fill:#111A21;" d="M468.324,82.581H43.676C19.594,82.581,0,102.174,0,126.257v259.486
		c0,24.083,19.594,43.676,43.676,43.676h424.647c24.083,0,43.676-19.594,43.676-43.676V126.257
		C512,102.174,492.406,82.581,468.324,82.581z M165.161,412.903H43.676c-14.977,0-27.16-12.183-27.16-27.16V126.257
		c0-14.977,12.183-27.16,27.16-27.16h121.485V412.903z M330.323,412.903H181.677V99.097h148.645V412.903z M495.484,385.743
		c0,14.977-12.183,27.16-27.16,27.16H346.839V99.097h121.485c14.977,0,27.16,12.183,27.16,27.16V385.743z"/>
</g>
<g>
</g>
<g>
</g>
<g>
</g>
<g>
</g>
<g>
</g>
<g>
</g>
<g>
</g>
<g>
</g>
<g>
</g>
<g>
</g>
<g>
</g>
<g>
</g>
<g>
</g>
<g>
</g>
<g>
</g>
</svg>
