<?xml version="1.0" encoding="iso-8859-1"?>
<!-- Generator: Adobe Illustrator 19.0.0, SVG Export Plug-In . SVG Version: 6.00 Build 0)  -->
<svg version="1.1" id="Layer_1" xmlns="http://www.w3.org/2000/svg" xmlns:xlink="http://www.w3.org/1999/xlink" x="0px" y="0px"
	 viewBox="0 0 512 512" style="enable-background:new 0 0 512 512;" xml:space="preserve">
<path style="fill:#ED1F34;" d="M503.742,379.374V132.626c0-23.079-18.708-41.787-41.787-41.787H50.045
	c-23.079,0-41.787,18.708-41.787,41.787v246.749c0,23.079,18.708,41.787,41.787,41.787h411.91
	C485.034,421.161,503.742,402.453,503.742,379.374z"/>
<g>
	<polygon style="fill:#FFE000;" points="56.705,202.047 91.161,200.267 103.501,168.048 115.842,200.267 150.297,202.047 
		123.468,223.74 132.423,257.059 103.501,238.246 74.58,257.059 83.534,223.74 	"/>
	<circle style="fill:#FFE000;" cx="201.166" cy="191.609" r="11.402"/>
	<circle style="fill:#FFE000;" cx="174.994" cy="146.289" r="11.405"/>
	<circle style="fill:#FFE000;" cx="201.166" cy="243.954" r="11.402"/>
	<circle style="fill:#FFE000;" cx="174.994" cy="289.286" r="11.405"/>
</g>
<g>
	<path style="fill:#121B21;" d="M150.723,193.8l-29.092-1.503l-10.418-27.202c-1.223-3.194-4.291-5.304-7.712-5.304
		s-6.489,2.11-7.712,5.304l-10.418,27.202L56.279,193.8c-3.417,0.176-6.371,2.442-7.428,5.696c-1.057,3.254,0.001,6.822,2.661,8.973
		l22.651,18.315l-7.56,28.132c-0.887,3.303,0.353,6.813,3.122,8.824c2.767,2.012,6.49,2.107,9.357,0.242l24.419-15.885
		l24.419,15.884c1.372,0.893,2.938,1.336,4.502,1.336c1.707,0,3.41-0.527,4.855-1.578c2.768-2.011,4.009-5.521,3.122-8.824
		l-7.56-28.132l22.651-18.315c2.66-2.15,3.719-5.719,2.661-8.973C157.094,196.241,154.14,193.976,150.723,193.8z M118.276,217.318
		c-2.539,2.054-3.63,5.411-2.782,8.564l3.358,12.497l-10.848-7.056c-1.369-0.891-2.935-1.336-4.502-1.336s-3.134,0.445-4.502,1.336
		l-10.848,7.056l3.358-12.497c0.848-3.153-0.243-6.511-2.782-8.564l-10.064-8.137l12.924-0.668c3.261-0.168,6.118-2.244,7.286-5.294
		l4.627-12.082l4.629,12.084c1.168,3.05,4.024,5.124,7.286,5.294l12.924,0.668L118.276,217.318z"/>
	<path style="fill:#121B21;" d="M468.324,82.581H43.676C19.593,82.581,0,102.174,0,126.257v259.486
		c0,24.083,19.593,43.676,43.676,43.676h424.648c24.082,0,43.675-19.594,43.675-43.676V126.257
		C512,102.174,492.406,82.581,468.324,82.581z M495.484,385.743c0,14.977-12.183,27.16-27.16,27.16H43.676
		c-14.977,0-27.16-12.183-27.16-27.16V126.257c0-14.977,12.183-27.16,27.16-27.16h424.648c14.976,0,27.159,12.183,27.159,27.16
		V385.743z"/>
</g>
<g>
</g>
<g>
</g>
<g>
</g>
<g>
</g>
<g>
</g>
<g>
</g>
<g>
</g>
<g>
</g>
<g>
</g>
<g>
</g>
<g>
</g>
<g>
</g>
<g>
</g>
<g>
</g>
<g>
</g>
</svg>
