<?xml version="1.0" encoding="iso-8859-1"?>
<!-- Generator: Adobe Illustrator 19.0.0, SVG Export Plug-In . SVG Version: 6.00 Build 0)  -->
<svg version="1.1" id="Layer_1" xmlns="http://www.w3.org/2000/svg" xmlns:xlink="http://www.w3.org/1999/xlink" x="0px" y="0px"
	 viewBox="0 0 512 512" style="enable-background:new 0 0 512 512;" xml:space="preserve">
<rect x="8.258" y="256" style="fill:#164FCE;" width="495.484" height="82.581"/>
<path style="fill:#ED1F34;" d="M503.742,338.581H8.258v47.346c0,19.459,15.775,35.234,35.234,35.234h425.015
	c19.459,0,35.234-15.775,35.234-35.234V338.581z"/>
<path style="fill:#FFE000;" d="M473.462,90.839H38.538c-16.723,0-30.28,13.556-30.28,30.28V256h495.484V121.118
	C503.742,104.395,490.185,90.839,473.462,90.839z"/>
<path style="fill:#121B21;" d="M468.324,82.581H43.676C19.594,82.581,0,102.174,0,126.257v259.486
	c0,24.083,19.594,43.676,43.676,43.676h424.647c24.083,0,43.676-19.594,43.676-43.676V126.257
	C512,102.174,492.406,82.581,468.324,82.581z M43.676,99.097h424.647c14.977,0,27.16,12.183,27.16,27.16v121.485H107.355
	c-4.562,0-8.258,3.696-8.258,8.258c0,4.562,3.696,8.258,8.258,8.258h388.129v66.065H16.516v-66.065h57.806
	c4.562,0,8.258-3.696,8.258-8.258c0-4.562-3.696-8.258-8.258-8.258H16.516V126.257C16.516,111.28,28.7,99.097,43.676,99.097z
	 M468.324,412.903H43.676c-14.977,0-27.16-12.183-27.16-27.16v-38.904h478.968v38.904C495.484,400.72,483.3,412.903,468.324,412.903
	z"/>
<g>
</g>
<g>
</g>
<g>
</g>
<g>
</g>
<g>
</g>
<g>
</g>
<g>
</g>
<g>
</g>
<g>
</g>
<g>
</g>
<g>
</g>
<g>
</g>
<g>
</g>
<g>
</g>
<g>
</g>
</svg>
