<?xml version="1.0" encoding="iso-8859-1"?>
<!-- Generator: Adobe Illustrator 19.0.0, SVG Export Plug-In . SVG Version: 6.00 Build 0)  -->
<svg version="1.1" id="Layer_1" xmlns="http://www.w3.org/2000/svg" xmlns:xlink="http://www.w3.org/1999/xlink" x="0px" y="0px"
	 viewBox="0 0 512 512" style="enable-background:new 0 0 512 512;" xml:space="preserve">
<g>
	<path style="fill:#103B9B;" d="M503.742,145.892H8.258v-19.528c0-19.62,15.906-35.526,35.526-35.526h424.43
		c19.621,0,35.526,15.906,35.526,35.526v19.528H503.742z"/>
	<path style="fill:#103B9B;" d="M468.216,421.161H43.784c-19.621,0-35.526-15.906-35.526-35.526v-19.528h495.484v19.528
		C503.742,405.255,487.836,421.161,468.216,421.161z"/>
</g>
<rect x="8.258" y="311.054" style="fill:#FFFFFF;" width="495.484" height="55.054"/>
<rect x="8.258" y="200.946" style="fill:#ED1F34;" width="495.484" height="110.108"/>
<rect x="8.258" y="145.892" style="fill:#FFFFFF;" width="495.484" height="55.054"/>
<path style="fill:#121B21;" d="M468.324,82.581H43.676C19.594,82.581,0,102.174,0,126.257v259.486
	c0,24.083,19.594,43.676,43.676,43.676h424.647c24.083,0,43.676-19.594,43.676-43.676V126.257
	C512,102.174,492.406,82.581,468.324,82.581z M16.516,209.204h57.806c4.562,0,8.258-3.696,8.258-8.258
	c0-4.562-3.696-8.258-8.258-8.258H16.516v-38.538h478.968v38.538H107.355c-4.562,0-8.258,3.696-8.258,8.258
	c0,4.562,3.696,8.258,8.258,8.258h388.129v93.591H16.516V209.204z M43.676,99.097h424.647c14.977,0,27.16,12.183,27.16,27.16v11.377
	H16.516v-11.377C16.516,111.28,28.7,99.097,43.676,99.097z M468.324,412.903H43.676c-14.977,0-27.16-12.183-27.16-27.16v-11.377
	h421.161c4.562,0,8.258-3.696,8.258-8.258c0-4.562-3.696-8.258-8.258-8.258H16.516v-38.538h478.968v38.538H470.71
	c-4.562,0-8.258,3.696-8.258,8.258c0,4.562,3.696,8.258,8.258,8.258h24.774v11.377C495.484,400.72,483.3,412.903,468.324,412.903z"
	/>
<g>
</g>
<g>
</g>
<g>
</g>
<g>
</g>
<g>
</g>
<g>
</g>
<g>
</g>
<g>
</g>
<g>
</g>
<g>
</g>
<g>
</g>
<g>
</g>
<g>
</g>
<g>
</g>
<g>
</g>
</svg>
