<?xml version="1.0" encoding="iso-8859-1"?>
<!-- Generator: Adobe Illustrator 19.0.0, SVG Export Plug-In . SVG Version: 6.00 Build 0)  -->
<svg version="1.1" id="Layer_1" xmlns="http://www.w3.org/2000/svg" xmlns:xlink="http://www.w3.org/1999/xlink" x="0px" y="0px"
	 viewBox="0 0 512 512" style="enable-background:new 0 0 512 512;" xml:space="preserve">
<g>
	<rect x="8.32" y="149.275" style="fill:#FFFFFF;" width="495.493" height="73.6"/>
	<rect x="8.32" y="288.926" style="fill:#FFFFFF;" width="495.493" height="66.111"/>
</g>
<g>
	<path style="fill:#164FCE;" d="M503.681,354.976v33.6c0,17.92-14.528,32.513-32.512,32.513H40.704
		c-17.92,0-32.513-14.528-32.513-32.513v-33.6H503.681z"/>
	<rect x="8.32" y="222.884" style="fill:#164FCE;" width="495.493" height="66.111"/>
	<path style="fill:#164FCE;" d="M503.681,121.632v35.2H8.32v-35.2c0-17.024,13.824-30.784,30.784-30.784h433.792
		C489.92,90.72,503.681,104.48,503.681,121.632z"/>
</g>
<path style="fill:#ED1F34;" d="M8.32,119.584v271.553c0,10.624,11.776,22.144,20.608,16.256L256,255.904L28.8,104.48
	C20.032,98.592,8.32,108.96,8.32,119.584z"/>
<polygon style="fill:#FFFFFF;" points="50.624,235.488 85.12,233.696 97.408,201.504 109.824,233.696 144.192,235.488 
	117.376,257.184 126.4,290.528 97.408,271.712 68.48,290.528 77.504,257.184 "/>
<g>
	<path style="fill:#121B21;" d="M152.128,232.929c-1.088-3.328-4.032-5.504-7.424-5.696l-29.12-1.472l-10.432-27.2
		c-1.216-3.2-4.288-5.312-7.68-5.312c-3.392,0-6.528,2.112-7.68,5.312l-10.433,27.2l-29.12,1.472
		c-3.392,0.192-6.4,2.432-7.424,5.697c-1.088,3.328,0,6.784,2.688,9.024l22.72,18.304l-7.616,28.096
		c-0.896,3.328,0.384,6.784,3.072,8.832c2.816,1.984,6.528,2.112,9.408,0.192l24.384-15.872l24.384,15.872
		c1.408,0.896,2.88,1.28,4.48,1.28c1.728,0,3.392-0.512,4.928-1.6c2.816-1.984,4.032-5.504,3.072-8.832l-7.616-28.096l22.72-18.304
		C152.128,239.776,153.216,236.192,152.128,232.929z M112.192,250.784c-2.496,2.112-3.584,5.376-2.816,8.576l3.392,12.48
		l-10.816-7.104c-1.408-0.896-2.88-1.28-4.48-1.28c-1.6,0-3.072,0.384-4.48,1.28l-10.816,7.104l3.392-12.48
		c0.832-3.2-0.192-6.528-2.816-8.576l-10.112-8.128l12.928-0.704c3.328-0.192,6.08-2.176,7.296-5.312l4.608-12.096l4.608,12.096
		c1.216,3.008,4.032,5.12,7.296,5.312l12.928,0.704L112.192,250.784z"/>
	<path style="fill:#121B21;" d="M468.288,82.528H43.712C19.584,82.528,0,102.112,0,126.24v259.52
		c0,24.128,19.584,43.712,43.712,43.712h424.576c24.128,0,43.712-19.584,43.712-43.712V126.24
		C512,102.112,492.416,82.528,468.288,82.528z M22.016,402.016c-3.392-4.48-5.504-10.176-5.504-16.32v-259.52
		c0-6.08,1.984-11.776,5.504-16.32l219.072,146.048L22.016,402.016z M260.608,248.992l-26.88-17.92h261.824v49.472H233.729
		l26.88-17.92c2.304-1.472,3.712-4.096,3.712-6.912C264.32,252.896,262.913,250.592,260.608,248.992z M209.024,297.184h286.528
		v49.472h-360.96L209.024,297.184z M468.288,98.977c14.976,0,27.2,12.224,27.2,27.2v22.4h-24.832c-4.608,0-8.32,3.712-8.32,8.32
		c0,4.608,3.712,8.32,8.32,8.32h24.832v49.472H209.024l-74.304-49.472h302.976c4.608,0,8.32-3.712,8.32-8.32
		c0-4.608-3.712-8.32-8.32-8.32H109.888L36.864,99.872c2.176-0.576,4.48-0.896,6.784-0.896
		C43.648,98.977,468.288,98.977,468.288,98.977z M468.288,412.832H43.712c-2.432,0-4.672-0.32-6.784-0.896l73.024-48.704h385.601
		v22.4C495.488,400.609,483.328,412.832,468.288,412.832z"/>
</g>
<g>
</g>
<g>
</g>
<g>
</g>
<g>
</g>
<g>
</g>
<g>
</g>
<g>
</g>
<g>
</g>
<g>
</g>
<g>
</g>
<g>
</g>
<g>
</g>
<g>
</g>
<g>
</g>
<g>
</g>
</svg>
