<?xml version="1.0" encoding="iso-8859-1"?>
<!-- Generator: Adobe Illustrator 19.0.0, SVG Export Plug-In . SVG Version: 6.00 Build 0)  -->
<svg version="1.1" id="Layer_1" xmlns="http://www.w3.org/2000/svg" xmlns:xlink="http://www.w3.org/1999/xlink" x="0px" y="0px"
	 viewBox="0 0 512.001 512.001" style="enable-background:new 0 0 512.001 512.001;" xml:space="preserve">
<path style="fill:#103B9B;" d="M42.947,421.161h426.118c19.154,0,34.681-15.527,34.681-34.681V125.522
	c0-19.154-15.527-34.681-34.681-34.681H42.947c-19.154,0-34.681,15.527-34.681,34.681v260.956
	C8.266,405.634,23.793,421.161,42.947,421.161z"/>
<rect x="8.258" y="255.999" style="fill:#FFFFFF;" width="495.481" height="82.58"/>
<path style="fill:#ED1F34;" d="M503.739,304.999H8.258c-4.561,0-8.258-3.696-8.258-8.258c0-4.562,3.697-8.258,8.258-8.258h495.481
	c4.561,0,8.258,3.696,8.258,8.258C511.997,301.302,508.299,304.999,503.739,304.999z"/>
<path style="fill:#111A21;" d="M468.325,82.583H43.679c-24.083,0-43.675,19.594-43.675,43.676v129.668
	c0,0.024-0.003,0.05-0.003,0.074c0,0.024,0.003,0.05,0.003,0.074v82.431c0,0.025-0.003,0.05-0.003,0.074
	c0,0.024,0.003,0.05,0.003,0.074v47.088c0,24.083,19.592,43.676,43.675,43.676h424.646c24.083,0,43.676-19.594,43.676-43.676
	V126.259C512,102.176,492.408,82.583,468.325,82.583z M43.679,99.099h424.646c14.976,0,27.16,12.183,27.16,27.16v121.484h-24.778
	c-4.561,0-8.258,3.696-8.258,8.258c0,4.562,3.697,8.258,8.258,8.258h24.777v66.064H16.519v-66.064h421.155
	c4.561,0,8.258-3.696,8.258-8.258s-3.697-8.258-8.258-8.258H16.519V126.259C16.519,111.282,28.704,99.099,43.679,99.099z
	 M468.325,412.903H43.679c-14.976,0-27.159-12.183-27.159-27.16v-38.904h478.965v38.904
	C495.484,400.719,483.301,412.903,468.325,412.903z"/>
<g>
	<circle style="fill:#FFE610;" cx="132.668" cy="215.733" r="16.516"/>
	<circle style="fill:#FFE610;" cx="85.047" cy="231.203" r="16.516"/>
	<circle style="fill:#FFE610;" cx="55.626" cy="271.711" r="16.516"/>
	<circle style="fill:#FFE610;" cx="55.626" cy="321.777" r="16.516"/>
	<circle style="fill:#FFE610;" cx="85.047" cy="362.274" r="16.516"/>
	<circle style="fill:#FFE610;" cx="132.668" cy="377.744" r="16.516"/>
	<circle style="fill:#FFE610;" cx="180.278" cy="362.274" r="16.516"/>
	<circle style="fill:#FFE610;" cx="209.709" cy="321.777" r="16.516"/>
	<circle style="fill:#FFE610;" cx="209.709" cy="271.711" r="16.516"/>
	<circle style="fill:#FFE610;" cx="180.278" cy="231.203" r="16.516"/>
</g>
<g>
</g>
<g>
</g>
<g>
</g>
<g>
</g>
<g>
</g>
<g>
</g>
<g>
</g>
<g>
</g>
<g>
</g>
<g>
</g>
<g>
</g>
<g>
</g>
<g>
</g>
<g>
</g>
<g>
</g>
</svg>
