<?xml version="1.0" encoding="iso-8859-1"?>
<!-- Generator: Adobe Illustrator 19.0.0, SVG Export Plug-In . SVG Version: 6.00 Build 0)  -->
<svg version="1.1" id="Layer_1" xmlns="http://www.w3.org/2000/svg" xmlns:xlink="http://www.w3.org/1999/xlink" x="0px" y="0px"
	 viewBox="0 0 512 512" style="enable-background:new 0 0 512 512;" xml:space="preserve">
<path style="fill:#164FCE;" d="M503.742,126.257v259.487c0,19.561-15.857,35.418-35.418,35.418H43.676
	c-19.561-0.001-35.418-15.858-35.418-35.419V126.257c0-19.562,15.858-35.418,35.418-35.418h424.648
	C487.885,90.839,503.742,106.695,503.742,126.257z"/>
<rect x="8.258" y="311.054" style="fill:#FFE000;" width="495.484" height="39.639"/>
<g>
	<polygon style="fill:#FFFFFF;" points="145.367,204.593 179.822,202.813 192.163,170.594 204.503,202.813 238.959,204.593 
		212.13,226.285 221.084,259.605 192.163,240.792 163.241,259.605 172.196,226.285 	"/>
	<polygon style="fill:#FFFFFF;" points="54.503,162.683 80.446,161.343 89.738,137.084 99.03,161.343 124.972,162.683 
		104.772,179.016 111.514,204.104 89.738,189.939 67.962,204.104 74.704,179.016 	"/>
</g>
<g>
	<path style="fill:#1A1C20;" d="M239.384,196.346l-29.09-1.503l-10.419-27.203c-1.223-3.194-4.29-5.304-7.712-5.304
		s-6.489,2.11-7.712,5.304l-10.418,27.203l-29.092,1.503c-3.418,0.177-6.371,2.442-7.428,5.696
		c-1.057,3.254,0.001,6.822,2.661,8.973l22.652,18.315l-7.56,28.131c-0.889,3.304,0.353,6.813,3.122,8.824
		c1.445,1.049,3.147,1.577,4.854,1.577c1.565,0,3.131-0.444,4.503-1.336l24.417-15.883l24.419,15.883
		c2.867,1.864,6.588,1.769,9.357-0.242c2.768-2.011,4.01-5.52,3.122-8.824l-7.56-28.131l22.651-18.315
		c2.66-2.152,3.718-5.72,2.661-8.974C245.755,198.788,242.801,196.522,239.384,196.346z M206.937,219.864
		c-2.54,2.054-3.63,5.411-2.782,8.564l3.359,12.498l-10.848-7.057c-1.37-0.891-2.937-1.336-4.503-1.336
		c-1.567,0-3.135,0.445-4.503,1.336l-10.847,7.056l3.358-12.497c0.848-3.153-0.243-6.512-2.782-8.564l-10.064-8.137l12.923-0.667
		c3.262-0.168,6.119-2.244,7.286-5.294l4.628-12.085l4.629,12.085c1.168,3.05,4.023,5.124,7.286,5.294l12.922,0.667L206.937,219.864
		z"/>
	<path style="fill:#1A1C20;" d="M125.398,154.436l-20.578-1.063l-7.369-19.243c-1.224-3.194-4.292-5.304-7.713-5.304
		s-6.489,2.11-7.712,5.304l-7.369,19.243l-20.578,1.063c-3.418,0.177-6.371,2.442-7.428,5.695c-1.057,3.254,0.001,6.822,2.661,8.974
		l16.024,12.955l-5.348,19.901c-0.889,3.304,0.353,6.813,3.122,8.824s6.489,2.106,9.357,0.241l17.271-11.235l17.274,11.236
		c1.372,0.892,2.939,1.336,4.503,1.336c1.707,0,3.41-0.529,4.854-1.577c2.768-2.012,4.01-5.521,3.122-8.824l-5.348-19.901
		l16.024-12.955c2.66-2.152,3.718-5.72,2.661-8.974C131.769,156.878,128.815,154.613,125.398,154.436z M99.579,172.595
		c-2.54,2.054-3.63,5.411-2.782,8.564l1.146,4.266l-3.702-2.409c-1.369-0.891-2.937-1.336-4.503-1.336
		c-1.567,0-3.135,0.445-4.503,1.336l-3.702,2.409l1.146-4.266c0.848-3.153-0.243-6.512-2.782-8.564l-3.434-2.777l4.411-0.227
		c3.262-0.168,6.119-2.244,7.286-5.294l1.58-4.125l1.58,4.125c1.168,3.05,4.023,5.124,7.286,5.294l4.411,0.227L99.579,172.595z"/>
	<path style="fill:#1A1C20;" d="M468.324,82.581H43.676C19.594,82.581,0,102.173,0,126.256v259.487
		c0,24.084,19.594,43.676,43.676,43.676h424.647c24.083,0,43.676-19.593,43.676-43.676V126.256
		C512,102.173,492.406,82.581,468.324,82.581z M495.484,385.743c0,14.977-12.183,27.16-27.16,27.16H43.676
		c-14.977,0-27.16-12.183-27.16-27.16V126.256c0-14.976,12.183-27.159,27.16-27.159h424.647c14.977,0,27.16,12.183,27.16,27.159
		V385.743z"/>
</g>
<g>
</g>
<g>
</g>
<g>
</g>
<g>
</g>
<g>
</g>
<g>
</g>
<g>
</g>
<g>
</g>
<g>
</g>
<g>
</g>
<g>
</g>
<g>
</g>
<g>
</g>
<g>
</g>
<g>
</g>
</svg>
