<?xml version="1.0" encoding="iso-8859-1"?>
<!-- Generator: Adobe Illustrator 19.0.0, SVG Export Plug-In . SVG Version: 6.00 Build 0)  -->
<svg version="1.1" id="Layer_1" xmlns="http://www.w3.org/2000/svg" xmlns:xlink="http://www.w3.org/1999/xlink" x="0px" y="0px"
	 viewBox="0 0 512 512" style="enable-background:new 0 0 512 512;" xml:space="preserve">
<path style="fill:#164FCE;" d="M8.258,389.781V115.763c0-10.654,11.874-17.008,20.738-11.099l455.255,303.504
	c5.839,3.892,3.083,12.994-3.934,12.994H39.639C22.308,421.161,8.258,407.112,8.258,389.781z"/>
<g>
	<circle style="fill:#FFFFFF;" cx="112.86" cy="214.038" r="13.37"/>
	<circle style="fill:#FFFFFF;" cx="112.86" cy="374.487" r="13.37"/>
	<circle style="fill:#FFFFFF;" cx="152.972" cy="247.467" r="13.37"/>
	<circle style="fill:#FFFFFF;" cx="72.748" cy="280.895" r="13.37"/>
	<circle style="fill:#FFFFFF;" cx="132.911" cy="310.977" r="8.913"/>
</g>
<path style="fill:#259245;" d="M37.187,90.839h431.088c19.588,0,35.468,15.88,35.468,35.468v268.746
	c0,11.16-12.438,17.816-21.724,11.626L32.329,106.886C25.118,102.078,28.521,90.839,37.187,90.839z"/>
<path style="fill:#1A1C20;" d="M491.174,421.048c-1.575,0-3.166-0.449-4.573-1.388L16.232,106.08
	c-3.795-2.53-4.821-7.657-2.29-11.451c2.529-3.795,7.657-4.819,11.451-2.29l470.369,313.58c3.795,2.53,4.82,7.657,2.29,11.451
	C496.463,419.756,493.843,421.048,491.174,421.048z"/>
<g>
	<path style="fill:#FFE000;" d="M445.798,177.548c11.427,11.427,11.427,29.953,0,41.38c-11.427,11.427-29.953,11.427-41.379,0
		L445.798,177.548z"/>
	<circle style="fill:#FFE000;" cx="256" cy="256" r="55.989"/>
</g>
<g>
	<path style="fill:#259245;" d="M256,278.957c-12.658,0-22.957-10.298-22.957-22.957c0-12.659,10.299-22.957,22.957-22.957
		s22.957,10.298,22.957,22.957C278.957,268.659,268.658,278.957,256,278.957z"/>
	<path style="fill:#259245;" d="M256,287.215c-17.212,0-31.215-14.003-31.215-31.215s14.003-31.215,31.215-31.215
		s31.215,14.003,31.215,31.215S273.212,287.215,256,287.215z M256,241.301c-8.105,0-14.699,6.593-14.699,14.699
		s6.594,14.699,14.699,14.699c8.105,0,14.699-6.593,14.699-14.699S264.105,241.301,256,241.301z"/>
</g>
<g>
	<path style="fill:#1A1C20;" d="M454.055,149.196c0-4.562-3.697-8.258-8.258-8.258c-4.561,0-8.258,3.696-8.258,8.258v24.932
		l-5.655,5.655L415.2,166.886c-1.446-1.119-3.223-1.724-5.051-1.724h-92.948c-4.561,0-8.258,3.696-8.258,8.258
		c0,4.562,3.697,8.258,8.258,8.258h90.129l12.78,9.879l-21.531,21.532l-46.026,46.026c-3.225,3.226-3.225,8.454,0,11.679
		c1.612,1.612,3.726,2.418,5.839,2.418s4.227-0.806,5.839-2.418l40.837-40.836c5.941,3.769,12.833,5.798,20.041,5.798
		c10.021,0,19.443-3.903,26.528-10.989c13.77-13.771,14.574-35.667,2.419-50.391L454.055,149.196L454.055,149.196z M439.958,213.088
		c-3.967,3.967-9.24,6.152-14.85,6.152c-2.724,0-5.369-0.515-7.823-1.5l21.181-21.181c0.002-0.002,0.006-0.006,0.008-0.008
		l6.127-6.126C447.622,197.99,446.074,206.972,439.958,213.088z"/>
	<path style="fill:#1A1C20;" d="M256,191.752c-35.426,0-64.248,28.822-64.248,64.248s28.822,64.248,64.248,64.248
		s64.248-28.822,64.248-64.248S291.426,191.752,256,191.752z M256,303.732c-26.319,0-47.732-21.412-47.732-47.732
		s21.413-47.732,47.732-47.732c26.319,0,47.732,21.412,47.732,47.732S282.319,303.732,256,303.732z"/>
	<path style="fill:#1A1C20;" d="M468.324,82.581H43.676C19.593,82.581,0,102.174,0,126.257v259.486
		c0,24.083,19.593,43.676,43.676,43.676h424.648c24.083,0,43.675-19.594,43.675-43.676V126.257
		C512,102.174,492.407,82.581,468.324,82.581z M495.484,385.743c0,14.977-12.183,27.16-27.16,27.16H43.676
		c-14.977,0-27.16-12.183-27.16-27.16V126.257c0-14.977,12.183-27.16,27.16-27.16h424.648c14.976,0,27.159,12.183,27.159,27.16
		V385.743z"/>
</g>
<g>
</g>
<g>
</g>
<g>
</g>
<g>
</g>
<g>
</g>
<g>
</g>
<g>
</g>
<g>
</g>
<g>
</g>
<g>
</g>
<g>
</g>
<g>
</g>
<g>
</g>
<g>
</g>
<g>
</g>
</svg>
