<?xml version="1.0" encoding="iso-8859-1"?>
<!-- Generator: Adobe Illustrator 19.0.0, SVG Export Plug-In . SVG Version: 6.00 Build 0)  -->
<svg version="1.1" id="Layer_1" xmlns="http://www.w3.org/2000/svg" xmlns:xlink="http://www.w3.org/1999/xlink" x="0px" y="0px"
	 viewBox="0 0 512 512" style="enable-background:new 0 0 512 512;" xml:space="preserve">
<path style="fill:#FFFFFF;" d="M8.258,390.882V121.118c0-16.723,13.556-30.28,30.28-30.28h434.925
	c16.723,0,30.28,13.556,30.28,30.28v269.763c0,16.723-13.556,30.28-30.28,30.28H38.538C21.815,421.161,8.258,407.605,8.258,390.882z
	"/>
<g>
	<path style="fill:#134923;" d="M161.76,312.67c-0.504,0-1.012-0.046-1.517-0.141c-8.243-1.54-16.547-3.639-24.682-6.238
		c-4.344-1.387-6.741-6.035-5.353-10.38c1.388-4.345,6.036-6.74,10.38-5.353c3.049,0.974,6.123,1.872,9.207,2.689
		c-0.849-3.242-1.613-6.492-2.29-9.732c-0.932-4.465,1.932-8.839,6.397-9.771c4.466-0.932,8.839,1.932,9.771,6.397
		c1.507,7.223,3.496,14.498,5.909,21.62c0.941,2.778,0.339,5.846-1.582,8.061C166.414,311.649,164.128,312.67,161.76,312.67z"/>
	<path style="fill:#134923;" d="M206.781,355.94c-4.277,0-7.896-3.298-8.226-7.632c-0.346-4.547,3.06-8.515,7.607-8.861
		c3.18-0.242,6.357-0.562,9.515-0.957c-1.979-2.694-3.88-5.427-5.696-8.189c-2.506-3.811-1.448-8.931,2.363-11.437
		c3.811-2.505,8.932-1.448,11.437,2.363c4.034,6.135,8.538,12.128,13.385,17.812c1.902,2.23,2.479,5.301,1.517,8.069
		c-0.962,2.768-3.319,4.819-6.194,5.39c-8.189,1.625-16.625,2.775-25.075,3.419C207.204,355.932,206.991,355.94,206.781,355.94z"/>
	<path style="fill:#134923;" d="M192.995,335.97c-7.857,0-15.843-0.459-23.763-1.366c-4.531-0.519-7.784-4.614-7.265-9.144
		s4.612-7.789,9.144-7.265c3.169,0.363,6.349,0.648,9.524,0.854c-1.434-3.019-2.785-6.061-4.048-9.113
		c-1.743-4.215,0.26-9.044,4.475-10.787c4.215-1.745,9.044,0.26,10.787,4.475c2.803,6.779,6.091,13.514,9.769,20.018
		c1.44,2.548,1.425,5.667-0.04,8.2c-1.466,2.534-4.161,4.103-7.087,4.125C193.994,335.969,193.494,335.97,192.995,335.97z"/>
	<path style="fill:#134923;" d="M242.834,384.228c-1.317,0-2.652-0.316-3.895-0.981c-4.019-2.155-5.532-7.16-3.377-11.18
		l8.106-15.122c-44.099-11.785-83.899-37.295-112.978-72.623c-2.898-3.521-2.394-8.726,1.128-11.624
		c3.521-2.899,8.726-2.394,11.624,1.128c29.032,35.27,69.62,59.959,114.286,69.519c2.538,0.544,4.673,2.248,5.764,4.604
		c1.091,2.355,1.012,5.086-0.214,7.374l-13.159,24.55C248.631,382.648,245.78,384.228,242.834,384.228z"/>
	<path style="fill:#134923;" d="M350.24,312.67c-2.37,0.001-4.654-1.021-6.239-2.847c-1.921-2.215-2.524-5.284-1.582-8.061
		c2.414-7.123,4.403-14.397,5.909-21.62c0.932-4.465,5.306-7.333,9.77-6.397c4.465,0.932,7.329,5.306,6.397,9.771
		c-0.676,3.242-1.441,6.491-2.29,9.732c3.084-0.817,6.158-1.714,9.207-2.689c4.346-1.387,8.991,1.01,10.38,5.353
		c1.387,4.345-1.01,8.992-5.353,10.38c-8.135,2.599-16.439,4.697-24.683,6.238C351.253,312.624,350.744,312.67,350.24,312.67z"/>
	<path style="fill:#134923;" d="M305.219,355.94c-0.21,0-0.422-0.008-0.635-0.024c-8.45-0.643-16.886-1.794-25.075-3.419
		c-2.875-0.57-5.232-2.622-6.194-5.39c-0.962-2.768-0.384-5.839,1.516-8.069c4.849-5.686,9.353-11.679,13.386-17.812
		c2.505-3.811,7.627-4.868,11.437-2.363c3.811,2.506,4.869,7.626,2.363,11.437c-1.816,2.76-3.717,5.494-5.696,8.189
		c3.159,0.395,6.336,0.715,9.515,0.957c4.547,0.346,7.954,4.313,7.607,8.861C313.115,352.642,309.495,355.94,305.219,355.94z"/>
	<path style="fill:#134923;" d="M319.005,335.97c-0.5,0-0.999-0.001-1.497-0.006c-2.926-0.022-5.622-1.591-7.087-4.124
		c-1.466-2.534-1.48-5.652-0.04-8.2c3.68-6.507,6.967-13.242,9.769-20.018c1.744-4.216,6.573-6.218,10.787-4.475
		c4.215,1.743,6.218,6.573,4.475,10.787c-1.263,3.051-2.614,6.093-4.048,9.113c3.176-0.207,6.355-0.492,9.524-0.854
		c4.534-0.516,8.626,2.733,9.144,7.265c0.52,4.531-2.733,8.625-7.265,9.144C334.848,335.511,326.862,335.97,319.005,335.97z"/>
	<path style="fill:#134923;" d="M269.166,384.228c-2.945,0.001-5.796-1.58-7.286-4.358l-13.159-24.548
		c-1.227-2.288-1.306-5.019-0.214-7.374c1.091-2.355,3.226-4.06,5.764-4.604c44.666-9.561,85.254-34.249,114.286-69.519
		c2.898-3.52,8.103-4.027,11.624-1.128c3.521,2.898,4.026,8.103,1.128,11.624c-29.081,35.328-68.88,60.838-112.978,72.623
		l8.106,15.122c2.155,4.02,0.642,9.026-3.377,11.18C271.818,383.913,270.482,384.228,269.166,384.228z"/>
</g>
<path style="fill:#F2A643;" d="M378.118,153.915c-2.166-8.107-10.493-12.924-18.6-10.759l-92.526,24.715
	c-0.002-0.001-36.884,9.854-36.884,9.854c1.575,4.054,2.439,8.463,2.439,13.074c0,19.968-16.187,36.155-36.155,36.155
	c-6.965,0-13.467-1.974-18.986-5.386c0.363,33.091,27.288,59.807,60.463,59.807c31.921,0,58.048-24.733,60.305-56.08
	c3.287,5.991,10.328,9.213,17.225,7.371c8.107-2.166,12.924-10.493,10.759-18.6l-7.615-28.509l48.817-13.04
	C375.468,170.348,380.284,162.021,378.118,153.915z"/>
<path style="fill:#121B21;" d="M363.448,134.38c-2.04,0-4.079,0.269-6.061,0.798l-92.526,24.715l0.015,0.056
	c-1.365,0.304-3.19,0.792-5.78,1.483l-31.121,8.315c-2.267,0.606-4.171,2.148-5.232,4.241c-1.061,2.093-1.183,4.54-0.333,6.728
	c1.246,3.209,1.878,6.601,1.878,10.084c0,15.382-12.515,27.897-27.897,27.897c-5.186,0-10.25-1.436-14.642-4.152
	c-2.561-1.584-5.782-1.647-8.403-0.168c-2.623,1.481-4.231,4.271-4.198,7.281c0.411,37.482,31.24,67.975,68.721,67.975
	c30.923,0,57.568-20.82,65.969-49.474c2.421,0.836,4.997,1.282,7.638,1.282h0.001c2.036,0,4.073-0.268,6.053-0.797
	c12.494-3.337,19.943-16.217,16.605-28.711l-5.483-20.531l40.839-10.908c12.494-3.337,19.943-16.217,16.605-28.709
	C383.359,141.537,374.046,134.38,363.448,134.38z M369.443,161.309c-0.927,1.603-2.425,2.749-4.214,3.228l-48.817,13.04
	c-4.407,1.177-7.024,5.704-5.847,10.11l7.615,28.509c0.988,3.695-1.216,7.504-4.911,8.492c-0.59,0.157-1.192,0.238-1.79,0.238
	c-2.521,0-4.845-1.38-6.064-3.602c-1.761-3.21-5.424-4.876-9.001-4.097c-3.577,0.782-6.212,3.824-6.475,7.475
	c-1.954,27.148-24.826,48.415-52.068,48.415c-24.05,0-44.493-16.526-50.455-38.817c2.938,0.606,5.944,0.914,8.976,0.914
	c24.489,0,44.413-19.924,44.413-44.413c0-2.439-0.196-4.854-0.586-7.229c10.637-2.842,28.211-7.537,28.867-7.711
	c0.012-0.003,0.024-0.007,0.036-0.01l92.526-24.715c0.593-0.159,1.198-0.239,1.799-0.239c3.13,0,5.882,2.117,6.691,5.15
	C370.619,157.836,370.371,159.704,369.443,161.309z M468.324,82.581H43.675C19.593,82.581,0,102.173,0,126.256v259.487
	c0,24.084,19.593,43.676,43.675,43.676h424.648c24.084,0,43.676-19.593,43.676-43.676V126.256
	C512,102.173,492.407,82.581,468.324,82.581z M495.484,385.743c0,14.977-12.183,27.16-27.16,27.16H43.675
	c-14.976,0-27.159-12.183-27.159-27.16V126.256c0-14.976,12.183-27.159,27.159-27.159h424.648c14.977,0,27.16,12.183,27.16,27.159
	V385.743z"/>
<g>
</g>
<g>
</g>
<g>
</g>
<g>
</g>
<g>
</g>
<g>
</g>
<g>
</g>
<g>
</g>
<g>
</g>
<g>
</g>
<g>
</g>
<g>
</g>
<g>
</g>
<g>
</g>
<g>
</g>
</svg>
