<?xml version="1.0" encoding="iso-8859-1"?>
<!-- Generator: Adobe Illustrator 19.0.0, SVG Export Plug-In . SVG Version: 6.00 Build 0)  -->
<svg version="1.1" id="Layer_1" xmlns="http://www.w3.org/2000/svg" xmlns:xlink="http://www.w3.org/1999/xlink" x="0px" y="0px"
	 viewBox="0 0 512 512" style="enable-background:new 0 0 512 512;" xml:space="preserve">
<path style="fill:#ED1F34;" d="M19.599,411.711c6.319,5.862,14.778,9.451,24.076,9.451h424.648
	c19.561,0,35.418-15.858,35.418-35.418V256h-297.29L19.599,411.711z"/>
<path style="fill:#FFFFFF;" d="M468.324,90.839H43.676c-9.3,0-17.757,3.588-24.076,9.452L206.452,256h297.29V126.257
	C503.742,106.695,487.884,90.839,468.324,90.839z"/>
<path style="fill:#103B9B;" d="M19.599,100.29c-6.973,6.469-11.341,15.706-11.341,25.967v259.487
	c0,10.261,4.368,19.498,11.341,25.967L206.452,256L19.599,100.29z"/>
<path style="fill:#121B21;" d="M468.324,82.581H43.676c-11.308,0-21.625,4.321-29.39,11.396c-0.243,0.205-0.476,0.428-0.698,0.665
	C5.228,102.604,0,113.827,0,126.257v259.487c0,12.447,5.242,23.686,13.625,31.648c0.193,0.203,0.392,0.393,0.6,0.573
	c7.772,7.11,18.113,11.454,29.452,11.454h424.648c24.083,0,43.675-19.593,43.675-43.676V126.257
	C512,102.173,492.407,82.581,468.324,82.581z M20.634,400.098c-2.606-4.168-4.118-9.087-4.118-14.355V126.257
	c0-5.268,1.513-10.186,4.118-14.355L193.553,256L20.634,400.098z M468.324,412.903H43.676c-3.61,0-7.056-0.714-10.21-1.998
	l175.975-146.647h195.204c4.561,0,8.258-3.697,8.258-8.258c0-4.561-3.697-8.258-8.258-8.258H209.441L33.466,101.095
	c3.153-1.285,6.6-1.998,10.21-1.998h424.648c14.976,0,27.159,12.183,27.159,27.16v121.485h-57.806c-4.561,0-8.258,3.697-8.258,8.258
	c0,4.561,3.697,8.258,8.258,8.258h57.806v121.485C495.484,400.72,483.3,412.903,468.324,412.903z"/>
<g>
</g>
<g>
</g>
<g>
</g>
<g>
</g>
<g>
</g>
<g>
</g>
<g>
</g>
<g>
</g>
<g>
</g>
<g>
</g>
<g>
</g>
<g>
</g>
<g>
</g>
<g>
</g>
<g>
</g>
</svg>
