<?xml version="1.0" encoding="iso-8859-1"?>
<!-- Generator: Adobe Illustrator 19.0.0, SVG Export Plug-In . SVG Version: 6.00 Build 0)  -->
<svg version="1.1" id="Layer_1" xmlns="http://www.w3.org/2000/svg" xmlns:xlink="http://www.w3.org/1999/xlink" x="0px" y="0px"
	 viewBox="0 0 512 512" style="enable-background:new 0 0 512 512;" xml:space="preserve">
<path style="fill:#259245;" d="M20.818,412.789c6.169,5.22,14.144,8.373,22.858,8.373h424.648c19.561,0,35.418-15.857,35.418-35.418
	V256H256.001L20.818,412.789z"/>
<path style="fill:#3DB4EA;" d="M468.324,90.839H43.676c-8.714,0-16.689,3.153-22.858,8.373L256,256h247.742V126.256
	C503.742,106.695,487.885,90.839,468.324,90.839z"/>
<path style="fill:#FFFFFF;" d="M20.817,99.211c-7.678,6.497-12.559,16.199-12.559,27.045v259.487
	c0,10.847,4.881,20.548,12.56,27.045L256,256L20.817,99.211z"/>
<polygon style="fill:#ED1F34;" points="50.649,239.985 85.105,238.204 97.445,205.986 109.785,238.204 144.241,239.985 
	117.412,261.677 126.366,294.997 97.445,276.184 68.524,294.997 77.478,261.677 "/>
<g>
	<path style="fill:#111A21;" d="M152.095,237.434c-1.057-3.254-4.011-5.52-7.428-5.696l-29.09-1.503l-10.419-27.202
		c-1.223-3.194-4.29-5.304-7.712-5.304c-3.422,0-6.489,2.11-7.712,5.304l-10.419,27.202l-29.09,1.503
		c-3.418,0.176-6.371,2.442-7.428,5.696c-1.057,3.254,0.001,6.822,2.661,8.973l22.652,18.315l-7.561,28.132
		c-0.889,3.303,0.353,6.813,3.122,8.824c2.768,2.011,6.489,2.105,9.357,0.242l24.419-15.885l24.419,15.884
		c1.372,0.892,2.939,1.336,4.503,1.336c1.707,0,3.41-0.527,4.854-1.578c2.768-2.011,4.01-5.521,3.122-8.824l-7.561-28.132
		l22.652-18.315C152.094,244.256,153.152,240.687,152.095,237.434z M112.219,255.256c-2.54,2.054-3.63,5.411-2.782,8.564
		l3.359,12.497l-10.848-7.056c-1.369-0.891-2.937-1.336-4.503-1.336c-1.567,0-3.135,0.445-4.503,1.336l-10.848,7.056l3.359-12.497
		c0.848-3.153-0.243-6.511-2.782-8.564l-10.064-8.137l12.922-0.668c3.262-0.168,6.118-2.244,7.286-5.294l4.629-12.085l4.629,12.085
		c1.169,3.05,4.023,5.124,7.286,5.294l12.922,0.668L112.219,255.256z"/>
	<path style="fill:#111A21;" d="M468.324,82.581H43.676c-10.581,0-20.294,3.784-27.862,10.069c-0.294,0.224-0.577,0.462-0.841,0.729
		C5.807,101.391,0,113.155,0,126.257v259.486c0,13.164,5.863,24.978,15.105,32.992c0.196,0.188,0.401,0.364,0.612,0.53
		c7.581,6.334,17.331,10.155,27.96,10.155h424.647c24.083,0,43.676-19.594,43.676-43.676V126.257
		C512,102.174,492.406,82.581,468.324,82.581z M21.994,402.079c-3.436-4.549-5.478-10.208-5.478-16.336V126.257
		c0-6.127,2.041-11.787,5.478-16.336L241.113,256L21.994,402.079z M468.324,412.903H43.676c-2.361,0-4.651-0.304-6.835-0.873
		l221.659-147.772h146.146c4.562,0,8.258-3.696,8.258-8.258c0-4.562-3.696-8.258-8.258-8.258H258.499L36.841,99.97
		c2.185-0.569,4.475-0.873,6.835-0.873h424.647c14.977,0,27.16,12.183,27.16,27.16v121.485h-57.806
		c-4.562,0-8.258,3.696-8.258,8.258c0,4.562,3.696,8.258,8.258,8.258h57.806v121.485C495.484,400.72,483.3,412.903,468.324,412.903z
		"/>
</g>
<g>
</g>
<g>
</g>
<g>
</g>
<g>
</g>
<g>
</g>
<g>
</g>
<g>
</g>
<g>
</g>
<g>
</g>
<g>
</g>
<g>
</g>
<g>
</g>
<g>
</g>
<g>
</g>
<g>
</g>
</svg>
