<?xml version="1.0" encoding="iso-8859-1"?>
<!-- Generator: Adobe Illustrator 19.0.0, SVG Export Plug-In . SVG Version: 6.00 Build 0)  -->
<svg version="1.1" id="Layer_1" xmlns="http://www.w3.org/2000/svg" xmlns:xlink="http://www.w3.org/1999/xlink" x="0px" y="0px"
	 viewBox="0 0 512 512" style="enable-background:new 0 0 512 512;" xml:space="preserve">
<path style="fill:#ED1F34;" d="M469.058,421.161H42.942c-19.155,0-34.684-15.528-34.684-34.684V125.523
	c0-19.155,15.528-34.684,34.684-34.684h426.116c19.155,0,34.684,15.528,34.684,34.684v260.955
	C503.742,405.633,488.213,421.161,469.058,421.161z"/>
<polygon style="fill:#FFFFFF;" points="503.742,232.052 219.546,232.052 219.546,90.839 171.649,90.839 171.649,232.052 
	8.258,232.052 8.258,279.948 171.649,279.948 171.649,421.161 219.546,421.161 219.546,279.948 503.742,279.948 "/>
<path style="fill:#121B21;" d="M468.324,82.581H43.675C19.593,82.581,0,102.173,0,126.256v259.487
	c0,24.084,19.593,43.676,43.675,43.676h424.648c24.084,0,43.676-19.593,43.676-43.676V126.256
	C512,102.173,492.407,82.581,468.324,82.581z M495.484,126.256v97.538h-57.806c-4.561,0-8.258,3.697-8.258,8.258
	s3.697,8.258,8.258,8.258h57.806v31.381H219.547c-4.561,0-8.258,3.697-8.258,8.258v132.955h-31.381V279.948
	c0-4.561-3.697-8.258-8.258-8.258H16.516V240.31H171.65c4.561,0,8.258-3.697,8.258-8.258V99.097h31.381v132.955
	c0,4.561,3.697,8.258,8.258,8.258h185.098c4.561,0,8.258-3.697,8.258-8.258s-3.697-8.258-8.258-8.258h-176.84V99.097h240.52
	C483.3,99.097,495.484,111.28,495.484,126.256z M43.675,99.097h119.716v124.697H16.516v-97.538
	C16.516,111.28,28.7,99.097,43.675,99.097z M16.516,385.743v-97.537h146.876v124.697H43.675
	C28.7,412.903,16.516,400.72,16.516,385.743z M468.324,412.903H227.805V288.206h267.679v97.537
	C495.484,400.72,483.3,412.903,468.324,412.903z"/>
<g>
</g>
<g>
</g>
<g>
</g>
<g>
</g>
<g>
</g>
<g>
</g>
<g>
</g>
<g>
</g>
<g>
</g>
<g>
</g>
<g>
</g>
<g>
</g>
<g>
</g>
<g>
</g>
<g>
</g>
</svg>
