<?xml version="1.0" encoding="iso-8859-1"?>
<!-- Generator: Adobe Illustrator 19.0.0, SVG Export Plug-In . SVG Version: 6.00 Build 0)  -->
<svg version="1.1" id="Layer_1" xmlns="http://www.w3.org/2000/svg" xmlns:xlink="http://www.w3.org/1999/xlink" x="0px" y="0px"
	 viewBox="0 0 512 512" style="enable-background:new 0 0 512 512;" xml:space="preserve">
<path style="fill:#259245;" d="M475.114,421.161H36.886c-15.81,0-28.628-12.818-28.628-28.628V119.467
	c0-15.81,12.818-28.628,28.628-28.628h438.228c15.81,0,28.628,12.818,28.628,28.628v273.067
	C503.742,408.344,490.924,421.161,475.114,421.161z"/>
<g>
	<polygon style="fill:#FFFFFF;" points="503.742,256 503.742,288.757 288.757,288.757 288.757,421.161 256,421.161 256,256 	"/>
	<rect x="256" y="90.839" style="fill:#FFFFFF;" width="32.757" height="132.404"/>
	<rect x="8.258" y="256" style="fill:#FFFFFF;" width="214.985" height="32.757"/>
</g>
<polygon style="fill:#FFE000;" points="256,223.243 256,90.839 223.243,90.839 223.243,223.243 8.258,223.243 8.258,256 
	223.243,256 223.243,421.161 256,421.161 256,256 503.742,256 503.742,223.243 "/>
<path style="fill:#121B21;" d="M468.324,82.581H43.676C19.593,82.581,0,102.174,0,126.257v259.486
	c0,24.083,19.593,43.676,43.676,43.676h424.648c24.083,0,43.675-19.594,43.675-43.676V126.257
	C512,102.174,492.407,82.581,468.324,82.581z M16.516,126.257c0-14.977,12.183-27.16,27.16-27.16h171.31v115.888H16.516V126.257z
	 M214.986,412.903H43.676c-14.977,0-27.16-12.183-27.16-27.16v-88.728h198.47V412.903z M247.742,412.903h-16.24V288.757
	c0-4.562-3.697-8.258-8.258-8.258H16.516v-16.241h231.226V412.903z M247.742,247.742H16.516v-16.241h206.728
	c4.561,0,8.258-3.696,8.258-8.258V99.097h16.24V247.742z M495.484,385.743c0,14.977-12.183,27.16-27.16,27.16H297.015V297.015
	h198.469V385.743z M495.484,280.499H288.757c-4.561,0-8.258,3.696-8.258,8.258v124.146h-16.241V264.258h231.226V280.499z
	 M495.484,214.985h-57.806c-4.561,0-8.258,3.696-8.258,8.258c0,4.562,3.697,8.258,8.258,8.258h57.806v16.241H264.258V99.097H280.5
	v124.146c0,4.562,3.697,8.258,8.258,8.258h115.887c4.561,0,8.258-3.696,8.258-8.258c0-4.562-3.697-8.258-8.258-8.258h-107.63V99.097
	h171.309c14.977,0,27.16,12.183,27.16,27.16V214.985z"/>
<circle style="fill:#ED1F34;" cx="256" cy="256" r="72.671"/>
<path style="fill:#121B21;" d="M256,336.929c-44.624,0-80.929-36.305-80.929-80.929s36.305-80.929,80.929-80.929
	s80.929,36.305,80.929,80.929S300.624,336.929,256,336.929z M256,191.587c-35.517,0-64.413,28.896-64.413,64.413
	c0,35.517,28.896,64.413,64.413,64.413c35.517,0,64.413-28.896,64.413-64.413S291.517,191.587,256,191.587z"/>
<path style="fill:#259245;" d="M256,303.897c-26.41,0-47.897-21.486-47.897-47.897S229.59,208.103,256,208.103
	S303.897,229.59,303.897,256S282.41,303.897,256,303.897z M256,224.619c-17.303,0-31.381,14.077-31.381,31.381
	s14.077,31.381,31.381,31.381s31.381-14.077,31.381-31.381S273.303,224.619,256,224.619z"/>
<g>
</g>
<g>
</g>
<g>
</g>
<g>
</g>
<g>
</g>
<g>
</g>
<g>
</g>
<g>
</g>
<g>
</g>
<g>
</g>
<g>
</g>
<g>
</g>
<g>
</g>
<g>
</g>
<g>
</g>
</svg>
