<?xml version="1.0" encoding="iso-8859-1"?>
<!-- Generator: Adobe Illustrator 19.0.0, SVG Export Plug-In . SVG Version: 6.00 Build 0)  -->
<svg version="1.1" id="Layer_1" xmlns="http://www.w3.org/2000/svg" xmlns:xlink="http://www.w3.org/1999/xlink" x="0px" y="0px"
	 viewBox="0 0 512 512" style="enable-background:new 0 0 512 512;" xml:space="preserve">
<path style="fill:#ED1F34;" d="M8.258,256v129.743c0,19.561,15.858,35.418,35.418,35.418H256V256H8.258z"/>
<path style="fill:#103B9B;" d="M256,421.161h212.324c19.561,0,35.418-15.857,35.418-35.418V256H256V421.161z"/>
<path style="fill:#ED1F34;" d="M468.324,90.839H256V256h247.742V126.256C503.742,106.695,487.885,90.839,468.324,90.839z"/>
<path style="fill:#103B9B;" d="M256,90.839H43.676c-19.561,0-35.418,15.857-35.418,35.417V256H256V90.839z"/>
<polygon style="fill:#FFFFFF;" points="8.258,223.243 223.242,223.243 223.242,90.839 288.757,90.839 288.757,223.243 
	503.742,223.243 503.742,288.757 288.757,288.757 288.757,421.161 223.242,421.161 223.242,288.757 8.258,288.757 "/>
<circle style="fill:#259245;" cx="256" cy="256" r="19.269"/>
<path style="fill:#121B21;" d="M468.324,82.581H43.676C19.593,82.581,0,102.174,0,126.257v259.486
	c0,24.083,19.593,43.676,43.676,43.676h424.648c24.082,0,43.675-19.594,43.675-43.676V126.257
	C512,102.174,492.406,82.581,468.324,82.581z M495.484,126.257v88.728H297.015V99.097h171.309
	C483.3,99.097,495.484,111.28,495.484,126.257z M43.676,99.097h171.309v115.888H74.323c-4.561,0-8.258,3.696-8.258,8.258
	c0,4.562,3.697,8.258,8.258,8.258h148.919c4.561,0,8.258-3.696,8.258-8.258V99.097h48.999v124.146c0,4.562,3.696,8.258,8.258,8.258
	h206.727v48.998H288.757c-4.562,0-8.258,3.696-8.258,8.258v124.146H231.5V288.757c0-4.562-3.697-8.258-8.258-8.258H16.516v-48.998
	H41.29c4.561,0,8.258-3.696,8.258-8.258c0-4.562-3.697-8.258-8.258-8.258H16.516v-88.728C16.516,111.28,28.7,99.097,43.676,99.097z
	 M16.516,385.743v-88.728h198.468v115.888H43.676C28.7,412.903,16.516,400.72,16.516,385.743z M468.324,412.903H297.015V297.015
	h198.469v88.728C495.484,400.72,483.3,412.903,468.324,412.903z"/>
<g>
</g>
<g>
</g>
<g>
</g>
<g>
</g>
<g>
</g>
<g>
</g>
<g>
</g>
<g>
</g>
<g>
</g>
<g>
</g>
<g>
</g>
<g>
</g>
<g>
</g>
<g>
</g>
<g>
</g>
</svg>
