<?xml version="1.0" encoding="iso-8859-1"?>
<!-- Generator: Adobe Illustrator 19.0.0, SVG Export Plug-In . SVG Version: 6.00 Build 0)  -->
<svg version="1.1" id="Layer_1" xmlns="http://www.w3.org/2000/svg" xmlns:xlink="http://www.w3.org/1999/xlink" x="0px" y="0px"
	 viewBox="0 0 512 512" style="enable-background:new 0 0 512 512;" xml:space="preserve">
<path style="fill:#259245;" d="M43.676,90.839c-19.561,0-35.418,15.857-35.418,35.417v259.487c0,19.561,15.858,35.418,35.418,35.418
	H256V90.839H43.676z"/>
<path style="fill:#FFFFFF;" d="M468.324,90.839H256v330.323h212.324c19.561,0,35.418-15.857,35.418-35.418V126.256
	C503.742,106.695,487.885,90.839,468.324,90.839z"/>
<g>
	<path style="fill:#ED1F34;" d="M295.809,342.959c-48.026,0-86.959-38.933-86.959-86.959s38.933-86.959,86.959-86.959
		c23.684,0,45.145,9.481,60.828,24.839c-20.789-33.429-57.836-55.695-100.1-55.695c-65.067,0-117.815,52.747-117.815,117.815
		s52.747,117.815,117.815,117.815c42.263,0,79.309-22.267,100.1-55.696C340.955,333.478,319.494,342.959,295.809,342.959z"/>
	<polygon style="fill:#ED1F34;" points="344.349,216.356 345.858,245.545 373.152,256 345.858,266.455 344.349,295.644 
		325.972,272.916 297.745,280.501 313.682,256 297.745,231.499 325.972,239.084 	"/>
</g>
<g>
	<path style="fill:#111A21;" d="M376.106,248.288l-22.279-8.532l-1.23-23.825c-0.176-3.417-2.442-6.371-5.696-7.428
		c-3.249-1.057-6.822,0.001-8.973,2.661l-15,18.552l-23.04-6.192c-3.303-0.886-6.811,0.353-8.824,3.122
		c-2.011,2.768-2.107,6.49-0.242,9.357L303.831,256l-13.008,19.999c-1.865,2.867-1.769,6.589,0.242,9.357
		c2.012,2.769,5.526,4.01,8.824,3.122l23.04-6.192l15,18.552c1.597,1.974,3.973,3.067,6.423,3.067c0.851,0,1.712-0.132,2.55-0.405
		c3.254-1.057,5.52-4.011,5.696-7.428l1.23-23.825l22.279-8.532c3.194-1.223,5.304-4.291,5.304-7.712
		C381.41,252.58,379.301,249.511,376.106,248.288z M342.903,258.743c-3.05,1.168-5.124,4.024-5.294,7.286l-0.395,7.657l-4.82-5.962
		c-1.591-1.969-3.966-3.066-6.421-3.066c-0.712,0-1.434,0.092-2.143,0.283l-7.405,1.991l4.181-6.428c1.78-2.737,1.78-6.267,0-9.006
		l-4.181-6.428l7.405,1.991c3.15,0.845,6.511-0.243,8.564-2.782l4.82-5.962l0.395,7.657c0.168,3.261,2.244,6.118,5.294,7.286
		l7.16,2.743L342.903,258.743z"/>
	<path style="fill:#111A21;" d="M361.806,311.678c-3.261-2.616-7.96-2.383-10.946,0.542c-14.803,14.498-34.352,22.482-55.049,22.482
		c-43.396,0-78.7-35.305-78.7-78.7s35.305-78.7,78.7-78.7c20.696,0,40.247,7.984,55.05,22.481c2.985,2.924,7.684,3.158,10.945,0.542
		c3.26-2.616,4.052-7.254,1.845-10.803c-23.208-37.317-63.25-59.593-107.113-59.593c-30.586,0-60.082,11.091-83.059,31.23
		c-22.756,19.947-37.593,47.356-41.777,77.18c-0.634,4.517,2.514,8.692,7.03,9.325c4.523,0.636,8.692-2.514,9.325-7.03
		c7.535-53.696,54.171-94.188,108.48-94.188c20.629,0,40.287,5.673,57.18,16.018c-5.846-1.11-11.838-1.678-17.909-1.678
		c-52.503,0-95.217,42.714-95.217,95.217s42.714,95.217,95.217,95.217c6.071,0,12.061-0.568,17.907-1.678
		c-16.893,10.347-36.549,16.018-57.178,16.018c-54.309,0-100.945-40.492-108.479-94.188c-0.633-4.517-4.806-7.657-9.325-7.03
		c-4.517,0.634-7.665,4.808-7.03,9.325c4.184,29.823,19.021,57.233,41.777,77.18c22.974,20.139,52.472,31.23,83.057,31.23
		c43.862,0,83.905-22.277,107.113-59.592C365.857,318.932,365.066,314.293,361.806,311.678z"/>
	<path style="fill:#111A21;" d="M468.324,82.581H43.676C19.593,82.581,0,102.173,0,126.256v259.487
		c0,24.084,19.593,43.676,43.676,43.676h424.648c24.082,0,43.675-19.593,43.675-43.676V126.256
		C512,102.173,492.406,82.581,468.324,82.581z M495.484,385.743c0,14.977-12.183,27.16-27.16,27.16H43.676
		c-14.977,0-27.16-12.183-27.16-27.16V126.256c0-14.976,12.183-27.159,27.16-27.159h424.648c14.976,0,27.159,12.183,27.159,27.159
		V385.743z"/>
</g>
<g>
</g>
<g>
</g>
<g>
</g>
<g>
</g>
<g>
</g>
<g>
</g>
<g>
</g>
<g>
</g>
<g>
</g>
<g>
</g>
<g>
</g>
<g>
</g>
<g>
</g>
<g>
</g>
<g>
</g>
</svg>
