<?xml version="1.0" encoding="iso-8859-1"?>
<!-- Generator: Adobe Illustrator 19.0.0, SVG Export Plug-In . SVG Version: 6.00 Build 0)  -->
<svg version="1.1" id="Layer_1" xmlns="http://www.w3.org/2000/svg" xmlns:xlink="http://www.w3.org/1999/xlink" x="0px" y="0px"
	 viewBox="0 0 512 512" style="enable-background:new 0 0 512 512;" xml:space="preserve">
<rect x="8.258" y="256" style="fill:#164FCE;" width="495.484" height="82.581"/>
<path style="fill:#ED1F34;" d="M503.742,338.581H8.258v48.998c0,18.548,15.035,33.583,33.583,33.583h428.318
	c18.548,0,33.583-15.035,33.583-33.583V338.581z"/>
<path style="fill:#FFE000;" d="M471.26,90.839H40.74c-17.939,0-32.482,14.543-32.482,32.482V256h495.484V123.32
	C503.742,105.382,489.199,90.839,471.26,90.839z"/>
<path style="fill:#121B21;" d="M468.324,82.581H43.675C19.593,82.581,0,102.174,0,126.257v259.486
	c0,24.083,19.593,43.676,43.675,43.676h424.648c24.084,0,43.676-19.594,43.676-43.676V126.257
	C512,102.174,492.407,82.581,468.324,82.581z M16.516,264.258h478.968v66.065H16.516V264.258z M43.675,99.097h424.648
	c14.977,0,27.16,12.183,27.16,27.16v121.485H16.516V126.257C16.516,111.28,28.7,99.097,43.675,99.097z M468.324,412.903H43.675
	c-14.976,0-27.159-12.183-27.159-27.16v-38.904h478.968v38.904C495.484,400.72,483.3,412.903,468.324,412.903z"/>
<path style="fill:#FFE000;" d="M183.264,228.647v58.607c0,10.914,8.848,19.762,19.762,19.762h105.947
	c10.914,0,19.762-8.848,19.762-19.762v-58.607H183.264z"/>
<path style="fill:#121B21;" d="M308.974,315.275H203.026c-15.45,0-28.02-12.57-28.02-28.02v-58.608c0-4.562,3.697-8.258,8.258-8.258
	h145.471c4.561,0,8.258,3.696,8.258,8.258v58.608C336.994,302.705,324.424,315.275,308.974,315.275z M191.522,236.905v50.35
	c0,6.343,5.161,11.504,11.504,11.504h105.948c6.343,0,11.504-5.162,11.504-11.504v-50.35L191.522,236.905L191.522,236.905z"/>
<ellipse style="fill:#3DB4EA;" cx="256" cy="256" rx="41.929" ry="51.013"/>
<g>
	<path style="fill:#121B21;" d="M256,315.274c-27.674,0-50.189-26.59-50.189-59.274s22.515-59.274,50.189-59.274
		s50.189,26.59,50.189,59.274S283.674,315.274,256,315.274z M256,213.242c-18.567,0-33.673,19.182-33.673,42.758
		s15.106,42.758,33.673,42.758s33.673-19.182,33.673-42.758S274.567,213.242,256,213.242z"/>
	<path style="fill:#121B21;" d="M256,298.758c-4.561,0-8.258,3.696-8.258,8.258v31.565c0,4.562,3.697,8.258,8.258,8.258
		c4.561,0,8.258-3.696,8.258-8.258v-31.565C264.258,302.454,260.561,298.758,256,298.758z"/>
	<path style="fill:#121B21;" d="M328.736,175.438h-57.321c-2.648,0-5.135,1.27-6.689,3.416L256,190.903l-8.726-12.05
		c-1.554-2.145-4.041-3.416-6.689-3.416h-57.321c-4.561,0-8.258,3.696-8.258,8.258c0,4.562,3.697,8.258,8.258,8.258h53.104
		l12.942,17.873c1.554,2.145,4.041,3.416,6.689,3.416s5.135-1.27,6.689-3.416l12.942-17.873h53.105c4.561,0,8.258-3.696,8.258-8.258
		C336.994,179.134,333.297,175.438,328.736,175.438z"/>
</g>
<g>
</g>
<g>
</g>
<g>
</g>
<g>
</g>
<g>
</g>
<g>
</g>
<g>
</g>
<g>
</g>
<g>
</g>
<g>
</g>
<g>
</g>
<g>
</g>
<g>
</g>
<g>
</g>
<g>
</g>
</svg>
