<?xml version="1.0" encoding="iso-8859-1"?>
<!-- Generator: Adobe Illustrator 19.0.0, SVG Export Plug-In . SVG Version: 6.00 Build 0)  -->
<svg version="1.1" id="Layer_1" xmlns="http://www.w3.org/2000/svg" xmlns:xlink="http://www.w3.org/1999/xlink" x="0px" y="0px"
	 viewBox="0 0 512 512" style="enable-background:new 0 0 512 512;" xml:space="preserve">
<rect x="8.258" y="200.946" style="fill:#FFFFFF;" width="495.484" height="110.108"/>
<path style="fill:#333333;" d="M8.258,385.743c0,19.561,15.857,35.418,35.418,35.418h424.648c19.561,0,35.418-15.857,35.418-35.418
	v-74.689H8.258V385.743z"/>
<path style="fill:#ED1F34;" d="M468.324,90.839H43.676c-19.562,0-35.418,15.857-35.418,35.417v74.69h495.484v-74.69
	C503.742,106.695,487.884,90.839,468.324,90.839z"/>
<g>
	<path style="fill:#F2A643;" d="M281.717,279.868c-3.612,0-6.928-2.387-7.949-6.036l-3.648-13.041l-11.892,3.332
		c-1.458,0.409-2.999,0.409-4.457,0l-11.892-3.332l-3.648,13.041c-1.229,4.391-5.786,6.957-10.177,5.729
		c-4.392-1.229-6.957-5.785-5.729-10.177l5.873-20.998c0.59-2.111,1.994-3.899,3.903-4.974c1.91-1.075,4.169-1.347,6.277-0.754
		l17.619,4.937l17.619-4.937c2.109-0.592,4.368-0.319,6.277,0.754c1.909,1.074,3.314,2.863,3.903,4.974l5.873,20.998
		c1.229,4.392-1.336,8.948-5.729,10.177C283.202,279.769,282.452,279.868,281.717,279.868z"/>
	<path style="fill:#F2A643;" d="M256,289.583c-4.561,0-8.258-3.697-8.258-8.258V238.43c-3.159-1.159-5.413-4.194-5.413-7.755
		c0-4.561,3.697-8.258,8.258-8.258H256c4.561,0,8.258,3.697,8.258,8.258v50.649C264.258,285.885,260.561,289.583,256,289.583z"/>
</g>
<path style="fill:#111A21;" d="M468.324,82.581H43.675C19.593,82.581,0,102.173,0,126.256v259.487
	c0,24.084,19.593,43.676,43.675,43.676h424.648c24.084,0,43.676-19.593,43.676-43.676V126.256
	C512,102.173,492.407,82.581,468.324,82.581z M43.675,99.097h424.648c14.977,0,27.16,12.183,27.16,27.159v66.432H470.71
	c-4.561,0-8.258,3.697-8.258,8.258s3.697,8.258,8.258,8.258h24.774v93.591H16.516v-93.591h421.161c4.561,0,8.258-3.697,8.258-8.258
	s-3.697-8.258-8.258-8.258H16.516v-66.432C16.516,111.28,28.7,99.097,43.675,99.097z M468.324,412.903H43.675
	c-14.976,0-27.159-12.183-27.159-27.16v-66.431h478.968v66.431C495.484,400.72,483.3,412.903,468.324,412.903z"/>
<g>
</g>
<g>
</g>
<g>
</g>
<g>
</g>
<g>
</g>
<g>
</g>
<g>
</g>
<g>
</g>
<g>
</g>
<g>
</g>
<g>
</g>
<g>
</g>
<g>
</g>
<g>
</g>
<g>
</g>
</svg>
