<?xml version="1.0" encoding="iso-8859-1"?>
<!-- Generator: Adobe Illustrator 19.0.0, SVG Export Plug-In . SVG Version: 6.00 Build 0)  -->
<svg version="1.1" id="Layer_1" xmlns="http://www.w3.org/2000/svg" xmlns:xlink="http://www.w3.org/1999/xlink" x="0px" y="0px"
	 viewBox="0 0 512 512" style="enable-background:new 0 0 512 512;" xml:space="preserve">
<rect x="8.258" y="200.946" style="fill:#FFFFFF;" width="495.484" height="110.108"/>
<g>
	<path style="fill:#ED1F34;" d="M315.554,289.583c-18.517,0-33.583-15.065-33.583-33.583s15.066-33.583,33.583-33.583
		c7.15,0,13.977,2.22,19.746,6.419c3.688,2.686,4.499,7.85,1.813,11.537c-2.684,3.686-7.848,4.498-11.536,1.815
		c-2.923-2.129-6.39-3.255-10.023-3.255c-9.411,0-17.067,7.656-17.067,17.067s7.656,17.067,17.067,17.067
		c3.634,0,7.099-1.126,10.023-3.255c3.686-2.684,8.852-1.873,11.537,1.813c2.684,3.686,1.873,8.853-1.813,11.537
		C329.533,287.362,322.704,289.583,315.554,289.583z"/>
	<circle style="fill:#ED1F34;" cx="353.269" cy="256" r="9.435"/>
</g>
<path style="fill:#259245;" d="M8.258,311.054h495.484v76.949c0,18.313-14.846,33.159-33.159,33.159H41.417
	c-18.313,0-33.159-14.846-33.159-33.159V311.054z"/>
<path style="fill:#333333;" d="M41.417,90.839h429.166c18.313,0,33.159,14.846,33.159,33.159v76.949H8.258v-76.949
	C8.258,105.685,23.104,90.839,41.417,90.839z"/>
<path style="fill:#ED1F34;" d="M8.258,116.669v278.663c0,10.257,11.963,15.86,19.842,9.294L206.452,256L28.101,107.375
	C20.221,100.808,8.258,106.411,8.258,116.669z"/>
<path style="fill:#1A1C20;" d="M468.324,82.581H43.676c-11.322,0-21.65,4.333-29.42,11.424c-0.09,0.077-0.184,0.149-0.272,0.23
	c-0.89,0.825-1.73,1.692-2.541,2.582c-0.042,0.046-0.085,0.091-0.127,0.138c-0.393,0.435-0.774,0.876-1.148,1.326
	c-0.107,0.127-0.213,0.254-0.318,0.383C9.54,99.044,9.237,99.429,8.94,99.82c-0.172,0.226-0.341,0.454-0.51,0.683
	c-0.225,0.308-0.447,0.618-0.663,0.932c-0.239,0.345-0.471,0.695-0.7,1.047c-0.139,0.214-0.279,0.427-0.414,0.644
	c-0.304,0.484-0.596,0.977-0.881,1.473c-0.056,0.098-0.115,0.196-0.17,0.295C2.041,111.215,0,118.5,0,126.256v259.487
	c0,7.756,2.041,15.041,5.602,21.362c0.056,0.099,0.113,0.197,0.171,0.296c0.285,0.497,0.577,0.988,0.88,1.471
	c0.135,0.217,0.275,0.432,0.415,0.646c0.229,0.352,0.461,0.701,0.7,1.046c0.217,0.313,0.438,0.622,0.663,0.93
	c0.168,0.23,0.338,0.458,0.511,0.685c0.297,0.39,0.6,0.776,0.909,1.157c0.105,0.128,0.211,0.255,0.317,0.382
	c0.374,0.449,0.756,0.892,1.15,1.327c0.042,0.046,0.085,0.091,0.127,0.138c0.813,0.891,1.653,1.757,2.541,2.582
	c0.085,0.079,0.176,0.148,0.264,0.222c7.768,7.096,18.099,11.431,29.426,11.431h424.647c24.083,0,43.676-19.593,43.676-43.676
	V126.256C512,102.173,492.406,82.581,468.324,82.581z M468.324,99.097c14.977,0,27.16,12.183,27.16,27.159v66.432H143.378
	l-109.91-91.593c3.153-1.285,6.599-1.998,10.209-1.998H468.324z M135.144,304.674c-0.007,0.006-0.013,0.011-0.02,0.017
	l-114.49,95.407c-1.435-2.295-2.54-4.816-3.24-7.499c-0.02-0.078-0.039-0.156-0.058-0.233c-0.146-0.584-0.27-1.175-0.378-1.773
	c-0.046-0.259-0.097-0.515-0.135-0.775c-0.036-0.24-0.063-0.482-0.092-0.725c-0.043-0.352-0.081-0.706-0.11-1.061
	c-0.017-0.197-0.033-0.394-0.045-0.591c-0.034-0.563-0.058-1.127-0.058-1.696V126.256c0-0.569,0.024-1.134,0.058-1.696
	c0.012-0.198,0.029-0.395,0.045-0.591c0.03-0.356,0.068-0.709,0.11-1.061c0.03-0.241,0.056-0.484,0.092-0.725
	c0.039-0.259,0.089-0.514,0.135-0.772c0.108-0.599,0.231-1.191,0.379-1.776c0.02-0.078,0.039-0.156,0.058-0.233
	c0.7-2.684,1.806-5.205,3.24-7.501l114.489,95.407c0.007,0.006,0.013,0.011,0.021,0.018L193.554,256L135.144,304.674z
	 M468.324,412.903H43.676c-3.61,0-7.056-0.714-10.209-1.998l109.91-91.593h294.3c4.562,0,8.258-3.697,8.258-8.258
	c0-4.561-3.696-8.258-8.258-8.258h-274.48l48.542-40.451c1.883-1.569,2.971-3.893,2.971-6.344s-1.088-4.775-2.971-6.344
	l-48.542-40.451h332.287v93.591H470.71c-4.562,0-8.258,3.697-8.258,8.258c0,4.561,3.696,8.258,8.258,8.258h24.774v66.431
	C495.484,400.72,483.3,412.903,468.324,412.903z"/>
<g>
</g>
<g>
</g>
<g>
</g>
<g>
</g>
<g>
</g>
<g>
</g>
<g>
</g>
<g>
</g>
<g>
</g>
<g>
</g>
<g>
</g>
<g>
</g>
<g>
</g>
<g>
</g>
<g>
</g>
</svg>
