<?xml version="1.0" encoding="iso-8859-1"?>
<!-- Generator: Adobe Illustrator 19.0.0, SVG Export Plug-In . SVG Version: 6.00 Build 0)  -->
<svg version="1.1" id="Layer_1" xmlns="http://www.w3.org/2000/svg" xmlns:xlink="http://www.w3.org/1999/xlink" x="0px" y="0px"
	 viewBox="0 0 512 512" style="enable-background:new 0 0 512 512;" xml:space="preserve">
<path style="fill:#3DB4EA;" d="M43.676,421.161h424.648c19.561,0,35.418-15.857,35.418-35.418V256L24.739,415.668
	C30.218,419.141,36.709,421.161,43.676,421.161z"/>
<path style="fill:#134923;" d="M468.324,90.839H43.676c-6.967,0-13.458,2.02-18.936,5.493L503.742,256V126.256
	C503.742,106.695,487.885,90.839,468.324,90.839z"/>
<path style="fill:#ED1F34;" d="M8.258,126.256V256v129.743c0,12.594,6.579,23.645,16.481,29.924L503.742,256L24.739,96.332
	C14.837,102.613,8.258,113.663,8.258,126.256z"/>
<g>
	<path style="fill:#F2A643;" d="M123.978,328.048c-4.562,0-8.258-3.696-8.258-8.258v-96.888c0-4.562,3.696-8.258,8.258-8.258
		c4.562,0,8.258,3.696,8.258,8.258v96.888C132.236,324.35,128.538,328.048,123.978,328.048z"/>
	<path style="fill:#F2A643;" d="M123.978,257.305c-2.113,0-4.227-0.806-5.84-2.418c-3.225-3.226-3.225-8.454,0-11.679l17.012-17.012
		c3.226-3.224,8.454-3.224,11.679,0c3.225,3.226,3.225,8.454,0,11.679l-17.012,17.012
		C128.205,256.498,126.091,257.305,123.978,257.305z"/>
	<path style="fill:#F2A643;" d="M123.978,283.45c-2.113,0-4.227-0.806-5.84-2.418l-17.012-17.012c-3.225-3.226-3.225-8.454,0-11.679
		c3.226-3.224,8.454-3.224,11.679,0l17.012,17.012c3.225,3.226,3.225,8.454,0,11.679C128.205,282.643,126.091,283.45,123.978,283.45
		z"/>
	<path style="fill:#F2A643;" d="M123.978,317.037c-37.336,0-67.713-30.376-67.713-67.713c0-29.984,20.111-56.733,48.906-65.047
		c4.379-1.262,8.961,1.262,10.225,5.644c1.265,4.382-1.262,8.959-5.644,10.225c-21.768,6.284-36.971,26.507-36.971,49.177
		c0,28.23,22.966,51.197,51.197,51.197s51.197-22.966,51.197-51.197c0-22.671-15.204-42.895-36.971-49.178
		c-4.381-1.266-6.908-5.843-5.644-10.225c1.265-4.382,5.85-6.904,10.225-5.644c28.795,8.314,48.906,35.063,48.906,65.047
		C191.691,286.661,161.314,317.037,123.978,317.037z"/>
</g>
<path style="fill:#111A21;" d="M468.324,82.581H43.676c-8.455,0-16.352,2.422-23.047,6.599c-0.239,0.137-0.47,0.285-0.695,0.446
	C7.949,97.421,0,110.925,0,126.257v259.486c0,15.315,7.93,28.805,19.893,36.604c0.116,0.084,0.24,0.153,0.36,0.231
	c6.774,4.323,14.808,6.841,23.423,6.841h424.647c24.083,0,43.676-19.594,43.676-43.676V126.257
	C512,102.174,492.406,82.581,468.324,82.581z M495.484,126.257v118.285L59.149,99.097h409.175
	C483.3,99.097,495.484,111.28,495.484,126.257z M26.17,406.486c-5.898-4.986-9.654-12.432-9.654-20.743V126.257
	c0-8.311,3.756-15.757,9.654-20.743L477.628,256L26.17,406.486z M468.324,412.903H59.149l436.335-145.445v118.285
	C495.484,400.72,483.3,412.903,468.324,412.903z"/>
<g>
</g>
<g>
</g>
<g>
</g>
<g>
</g>
<g>
</g>
<g>
</g>
<g>
</g>
<g>
</g>
<g>
</g>
<g>
</g>
<g>
</g>
<g>
</g>
<g>
</g>
<g>
</g>
<g>
</g>
</svg>
