<?xml version="1.0" encoding="iso-8859-1"?>
<!-- Generator: Adobe Illustrator 19.0.0, SVG Export Plug-In . SVG Version: 6.00 Build 0)  -->
<svg version="1.1" id="Layer_1" xmlns="http://www.w3.org/2000/svg" xmlns:xlink="http://www.w3.org/1999/xlink" x="0px" y="0px"
	 viewBox="0 0 512 512" style="enable-background:new 0 0 512 512;" xml:space="preserve">
<rect x="8.32" y="200.797" style="fill:#FFE000;" width="495.493" height="120.385"/>
<path style="fill:#ED1F34;" d="M8.32,385.632c0,19.584,15.872,35.393,35.392,35.393h424.576c19.584,0,35.392-15.872,35.392-35.393
	v-74.688H8.32V385.632z"/>
<path style="fill:#259245;" d="M468.288,90.72H43.712c-19.584,0-35.392,15.872-35.392,35.393V200.8h495.488v-74.688
	C503.681,106.592,487.872,90.72,468.288,90.72z"/>
<path style="fill:#111A21;" d="M468.288,82.528H43.712C19.584,82.528,0,102.112,0,126.24v259.52
	c0,24.128,19.584,43.712,43.712,43.712h424.576c24.128,0,43.712-19.584,43.712-43.712V126.24
	C512,102.112,492.416,82.528,468.288,82.528z M495.488,302.689H74.304c-4.608,0-8.32,3.712-8.32,8.32s3.712,8.32,8.32,8.32h421.184
	v66.432c0,14.976-12.224,27.2-27.2,27.2H43.712c-14.976,0-27.2-12.224-27.2-27.2v-66.432h24.832c4.608,0,8.32-3.712,8.32-8.32
	c0-4.608-3.712-8.32-8.32-8.32H16.512v-93.632h478.976L495.488,302.689L495.488,302.689z M495.488,192.608H16.512v-66.432
	c0-14.976,12.224-27.2,27.2-27.2h424.576c14.976,0,27.2,12.224,27.2,27.2v66.432H495.488z"/>
<circle style="fill:#164FCE;" cx="256.004" cy="255.905" r="118.528"/>
<path style="fill:#111A21;" d="M256,379.232c-67.968,0-123.328-55.296-123.328-123.328c0-67.968,55.296-123.328,123.328-123.328
	c67.968,0,123.328,55.296,123.328,123.328C379.328,323.872,323.968,379.232,256,379.232z M256,142.176
	c-62.72,0-113.728,51.008-113.728,113.728S193.28,369.632,256,369.632s113.728-51.008,113.728-113.728S318.72,142.176,256,142.176z"
	/>
<g>
	<path style="fill:#FFE000;" d="M219.2,213.408c-2.624,0-5.12-1.216-6.72-3.392l-11.52-15.68c-2.688-3.712-1.92-8.896,1.792-11.52
		c3.712-2.688,8.896-1.92,11.52,1.792l11.52,15.808c2.688,3.712,1.92,8.896-1.792,11.52
		C222.528,212.896,220.8,213.408,219.2,213.408z"/>
	<path style="fill:#FFE000;" d="M177.792,289.632c-3.52,0-6.72-2.176-7.872-5.696c-1.408-4.288,1.024-9.024,5.312-10.432
		l18.496-6.016c4.288-1.408,9.024,1.024,10.368,5.312c1.408,4.288-1.024,9.024-5.312,10.432l-18.496,6.016
		C179.52,289.376,178.688,289.632,177.792,289.632z"/>
	<path style="fill:#FFE000;" d="M256,346.401L256,346.401c-4.608,0-8.32-3.712-8.32-8.32v-19.456c0-4.608,3.712-8.32,8.32-8.32l0,0
		c4.608,0,8.32,3.712,8.32,8.32v19.52C264.32,342.688,260.608,346.401,256,346.401z"/>
	<path style="fill:#FFE000;" d="M334.208,289.632c-0.768,0-1.728-0.128-2.624-0.384l-18.496-6.016
		c-4.288-1.408-6.72-6.08-5.312-10.432c1.408-4.288,6.08-6.72,10.432-5.312l18.496,6.016c4.288,1.408,6.72,6.08,5.312,10.432
		C340.928,287.328,337.728,289.632,334.208,289.632z"/>
	<path style="fill:#FFE000;" d="M292.8,213.408c-1.728,0-3.392-0.512-4.8-1.6c-3.712-2.688-4.48-7.808-1.792-11.52l11.52-15.808
		c2.688-3.712,7.808-4.48,11.52-1.792c3.712,2.688,4.48,7.808,1.792,11.52l-11.52,15.808
		C297.92,212.32,295.424,213.408,292.8,213.408z"/>
	<path style="fill:#FFE000;" d="M207.68,330.72c-1.728,0-3.392-0.512-4.928-1.6c-2.88-2.112-4.096-5.824-3.008-9.216l16.576-51.072
		l-43.392-31.616c-2.88-2.112-4.096-5.824-3.008-9.216s4.288-5.696,7.872-5.696h53.696l16.576-51.072
		c1.088-3.392,4.288-5.696,7.872-5.696c3.584,0,6.72,2.304,7.872,5.696l16.576,51.072h53.696c3.584,0,6.72,2.304,7.872,5.696
		c1.088,3.392-0.128,7.104-3.008,9.216l-43.52,31.616l16.896,51.072c1.088,3.392-0.128,7.104-3.008,9.216
		c-2.88,2.112-6.784,2.112-9.729,0L256,297.505l-43.52,31.616C211.072,330.08,209.408,330.72,207.68,330.72z M230.528,279.008
		l-7.104,21.824l18.624-13.504L230.528,279.008z M270.016,287.328l18.624,13.504l-7.104-21.824L270.016,287.328z M235.776,262.432
		l20.224,14.592l20.224-14.592l-7.68-23.68h-24.896L235.776,262.432z M285.824,238.816l4.416,13.504l18.624-13.504L285.824,238.816
		L285.824,238.816z M203.2,238.816l18.624,13.504l4.416-13.504L203.2,238.816L203.2,238.816z M248.896,222.176h14.208L256,200.352
		L248.896,222.176z"/>
</g>
<g>
</g>
<g>
</g>
<g>
</g>
<g>
</g>
<g>
</g>
<g>
</g>
<g>
</g>
<g>
</g>
<g>
</g>
<g>
</g>
<g>
</g>
<g>
</g>
<g>
</g>
<g>
</g>
<g>
</g>
</svg>
