<?xml version="1.0" encoding="iso-8859-1"?>
<!-- Generator: Adobe Illustrator 19.0.0, SVG Export Plug-In . SVG Version: 6.00 Build 0)  -->
<svg version="1.1" id="Layer_1" xmlns="http://www.w3.org/2000/svg" xmlns:xlink="http://www.w3.org/1999/xlink" x="0px" y="0px"
	 viewBox="0 0 512 512" style="enable-background:new 0 0 512 512;" xml:space="preserve">
<path style="fill:#103B9B;" d="M469.21,90.839H42.79c-19.072,0-34.532,15.46-34.532,34.533v261.258
	c0,19.072,15.46,34.532,34.532,34.532h426.419c19.072,0,34.532-15.461,34.532-34.532V125.372
	C503.742,106.299,488.282,90.839,469.21,90.839z"/>
<g>
	<circle style="fill:#FFE000;" cx="256" cy="156.903" r="16.516"/>
	<circle style="fill:#FFE000;" cx="206.452" cy="170.182" r="16.516"/>
	<circle style="fill:#FFE000;" cx="170.182" cy="206.452" r="16.516"/>
	<circle style="fill:#FFE000;" cx="156.903" cy="256" r="16.516"/>
	<circle style="fill:#FFE000;" cx="170.182" cy="305.548" r="16.516"/>
	<circle style="fill:#FFE000;" cx="206.452" cy="341.818" r="16.516"/>
	<circle style="fill:#FFE000;" cx="256" cy="355.097" r="16.516"/>
	<circle style="fill:#FFE000;" cx="305.548" cy="341.818" r="16.516"/>
	<circle style="fill:#FFE000;" cx="341.818" cy="305.548" r="16.516"/>
	<circle style="fill:#FFE000;" cx="355.097" cy="256" r="16.516"/>
	<circle style="fill:#FFE000;" cx="341.818" cy="206.452" r="16.516"/>
	<circle style="fill:#FFE000;" cx="305.548" cy="170.182" r="16.516"/>
</g>
<path style="fill:#111A21;" d="M468.324,429.419H43.676C19.593,429.419,0,409.826,0,385.743V126.257
	c0-24.083,19.593-43.676,43.676-43.676h424.648c24.082,0,43.675,19.594,43.675,43.676v259.486
	C512,409.826,492.406,429.419,468.324,429.419z M43.676,99.097c-14.977,0-27.16,12.183-27.16,27.16v259.486
	c0,14.977,12.183,27.16,27.16,27.16h424.648c14.976,0,27.159-12.183,27.159-27.16V126.257c0-14.977-12.183-27.16-27.16-27.16H43.676
	z"/>
<g>
</g>
<g>
</g>
<g>
</g>
<g>
</g>
<g>
</g>
<g>
</g>
<g>
</g>
<g>
</g>
<g>
</g>
<g>
</g>
<g>
</g>
<g>
</g>
<g>
</g>
<g>
</g>
<g>
</g>
</svg>
