<?xml version="1.0" encoding="iso-8859-1"?>
<!-- Generator: Adobe Illustrator 19.0.0, SVG Export Plug-In . SVG Version: 6.00 Build 0)  -->
<svg version="1.1" id="Layer_1" xmlns="http://www.w3.org/2000/svg" xmlns:xlink="http://www.w3.org/1999/xlink" x="0px" y="0px"
	 viewBox="0 0 512 512" style="enable-background:new 0 0 512 512;" xml:space="preserve">
<path style="fill:#FFFFFF;" d="M466.305,421.161H45.695c-20.676,0-37.437-16.761-37.437-37.437V128.275
	c0-20.676,16.761-37.437,37.437-37.437h420.611c20.676,0,37.437,16.761,37.437,37.437v255.449
	C503.742,404.401,486.981,421.161,466.305,421.161z"/>
<polygon style="fill:#164FCE;" points="503.742,232.052 219.547,232.052 219.547,90.839 171.65,90.839 171.65,232.052 
	8.258,232.052 8.258,279.948 171.65,279.948 171.65,421.161 219.547,421.161 219.547,279.948 503.742,279.948 "/>
<path style="fill:#121B21;" d="M468.324,82.581H43.676C19.594,82.581,0,102.173,0,126.256v259.487
	c0,24.084,19.594,43.676,43.676,43.676h424.647c24.083,0,43.676-19.593,43.676-43.676V126.256
	C512,102.173,492.406,82.581,468.324,82.581z M495.484,126.256v97.538H227.805V99.097h240.519
	C483.3,99.097,495.484,111.28,495.484,126.256z M43.676,99.097h119.716v124.697H16.516v-97.538
	C16.516,111.28,28.7,99.097,43.676,99.097z M16.516,385.743v-97.537H41.29c4.562,0,8.258-3.697,8.258-8.258
	c0-4.561-3.696-8.258-8.258-8.258H16.516V240.31H171.65c4.562,0,8.258-3.697,8.258-8.258V99.097h31.381v132.955
	c0,4.561,3.696,8.258,8.258,8.258h275.937v31.381H219.271c-4.562,0-8.258,3.697-8.258,8.258v132.955h-31.381V279.948
	c0-4.561-3.696-8.258-8.258-8.258H74.323c-4.562,0-8.258,3.697-8.258,8.258c0,4.561,3.696,8.258,8.258,8.258h88.794v124.697H43.676
	C28.7,412.903,16.516,400.72,16.516,385.743z M468.324,412.903H227.53V288.206h267.954v97.537
	C495.484,400.72,483.3,412.903,468.324,412.903z"/>
<g>
</g>
<g>
</g>
<g>
</g>
<g>
</g>
<g>
</g>
<g>
</g>
<g>
</g>
<g>
</g>
<g>
</g>
<g>
</g>
<g>
</g>
<g>
</g>
<g>
</g>
<g>
</g>
<g>
</g>
</svg>
