<?xml version="1.0" encoding="iso-8859-1"?>
<!-- Generator: Adobe Illustrator 19.0.0, SVG Export Plug-In . SVG Version: 6.00 Build 0)  -->
<svg version="1.1" id="Layer_1" xmlns="http://www.w3.org/2000/svg" xmlns:xlink="http://www.w3.org/1999/xlink" x="0px" y="0px"
	 viewBox="0 0 512 512" style="enable-background:new 0 0 512 512;" xml:space="preserve">
<path style="fill:#3DB4EA;" d="M8.258,384.087V127.919c0-20.477,16.6-37.076,37.077-37.076h421.33
	c20.477,0,37.077,16.6,37.077,37.077v256.168c0,20.477-16.6,37.077-37.077,37.077H45.336
	C24.858,421.164,8.258,404.564,8.258,384.087z"/>
<path style="fill:#103B9B;" d="M8.259,126.244v129.765H256V90.848H43.474C24.012,90.955,8.267,106.758,8.259,126.244z"/>
<path style="fill:#FFFFFF;" d="M132.129,146.63L48.454,90.846h-4.98c-16.718,0.094-30.683,11.769-34.297,27.41l82.756,55.17
	L8.259,229.211v26.797h40.196l83.674-55.784l83.675,55.784H256v-26.797l-83.675-55.784L256,117.643V90.846h-40.196L132.129,146.63z"
	/>
<path style="fill:#ED1F34;" d="M229.203,90.846l-110.466,73.652L20.815,99.217c-3.815,3.228-6.94,7.245-9.117,11.805l106.891,71.432
	L8.259,256.008h26.797l110.472-73.648L256,256.008v-17.484l-110.627-73.926L256,90.846H229.203z"/>
<polygon style="fill:#FFFFFF;" points="256,151.13 154.426,151.13 154.426,90.846 109.832,90.846 109.832,151.13 8.258,151.13 
	8.258,195.724 109.832,195.724 109.832,256.008 154.426,256.008 154.426,195.724 256,195.724 "/>
<polygon style="fill:#ED1F34;" points="256,161.453 144.103,161.453 144.103,90.846 120.155,90.846 120.155,161.453 8.258,161.453 
	8.258,185.401 120.155,185.401 120.155,256.008 144.103,256.008 144.103,185.401 256,185.401 "/>
<path style="fill:#FFFFFF;" d="M331.202,191.595v73.292c0,30.67,25.748,48.467,48.669,55.534
	c22.921-7.067,48.669-24.863,48.669-55.534v-73.292L331.202,191.595L331.202,191.595z"/>
<g>
	<path style="fill:#ED1F34;" d="M379.871,328.679c-4.562,0-8.258-3.697-8.258-8.258v-94.109c0-4.561,3.696-8.258,8.258-8.258
		s8.258,3.697,8.258,8.258v94.109C388.129,324.981,384.433,328.679,379.871,328.679z"/>
	<path style="fill:#ED1F34;" d="M428.54,273.145h-97.337c-4.561,0-8.258-3.697-8.258-8.258c0-4.561,3.697-8.258,8.258-8.258h97.337
		c4.562,0,8.258,3.697,8.258,8.258C436.798,269.447,433.101,273.145,428.54,273.145z"/>
	<rect x="331.203" y="191.598" style="fill:#ED1F34;" width="97.335" height="34.717"/>
</g>
<g>
	<path style="fill:#111A21;" d="M428.54,183.337h-97.337c-4.561,0-8.258,3.697-8.258,8.258v73.291
		c0,34.376,28.149,55.304,54.493,63.426c0.793,0.244,1.613,0.367,2.433,0.367s1.641-0.122,2.433-0.367
		c26.344-8.123,54.493-29.05,54.493-63.426v-73.291C436.798,187.034,433.101,183.337,428.54,183.337z M420.282,264.887
		c0,29.707-28.352,42.681-40.411,46.846c-12.059-4.166-40.411-17.139-40.411-46.846v-65.033h80.821L420.282,264.887L420.282,264.887
		z"/>
	<path style="fill:#111A21;" d="M468.324,82.583H256.107c-0.036,0-0.07-0.006-0.107-0.006c-0.036,0-0.07,0.004-0.107,0.006H43.676
		C19.594,82.583,0,102.176,0,126.259v259.487c0,24.083,19.594,43.676,43.676,43.676h424.647c24.083,0,43.676-19.593,43.676-43.676
		V126.259C512,102.176,492.406,82.583,468.324,82.583z M43.676,99.099h204.066V247.75l-231.226-0.006V126.259
		C16.516,111.283,28.7,99.099,43.676,99.099z M495.484,385.746c0,14.976-12.183,27.16-27.16,27.16H43.676
		c-14.977-0.001-27.16-12.184-27.16-27.16V264.261L256,264.267c2.19,0,4.29-0.87,5.84-2.419c1.548-1.548,2.418-3.649,2.418-5.839
		V99.099h204.066c14.977,0,27.16,12.183,27.16,27.16V385.746z"/>
</g>
<g>
</g>
<g>
</g>
<g>
</g>
<g>
</g>
<g>
</g>
<g>
</g>
<g>
</g>
<g>
</g>
<g>
</g>
<g>
</g>
<g>
</g>
<g>
</g>
<g>
</g>
<g>
</g>
<g>
</g>
</svg>
