<?xml version="1.0" encoding="iso-8859-1"?>
<!-- Generator: Adobe Illustrator 19.0.0, SVG Export Plug-In . SVG Version: 6.00 Build 0)  -->
<svg version="1.1" id="Layer_1" xmlns="http://www.w3.org/2000/svg" xmlns:xlink="http://www.w3.org/1999/xlink" x="0px" y="0px"
	 viewBox="0 0 512 512" style="enable-background:new 0 0 512 512;" xml:space="preserve">
<path style="fill:#103B9B;" d="M503.742,126.257v259.487c0,19.561-15.858,35.418-35.418,35.418H43.676
	c-19.561-0.001-35.418-15.858-35.418-35.419V126.257c0-19.562,15.858-35.418,35.418-35.418h424.648
	C487.884,90.839,503.742,106.695,503.742,126.257z"/>
<path style="fill:#FFFFFF;" d="M256,90.839h-40.196l-83.675,55.784L48.454,90.839H35.055c-14.8,0-26.797,11.997-26.797,26.797l0,0
	l83.675,55.784L8.258,229.203V256h40.196l83.675-55.784L215.804,256H256v-26.797l-83.675-55.784L256,117.637V90.839z"/>
<path style="fill:#ED1F34;" d="M256,90.839h-26.797l-110.466,73.652l-95.603-63.736c-6.359-4.239-14.876,0.319-14.876,7.961l0,0
	l110.33,73.73L8.258,256h26.797l110.472-73.648L256,256v-17.484L145.373,164.59L256,90.839z"/>
<polygon style="fill:#FFFFFF;" points="256,151.123 154.426,151.123 154.426,90.839 109.832,90.839 109.832,151.123 8.258,151.123 
	8.258,195.716 109.832,195.716 109.832,256 154.426,256 154.426,195.716 256,195.716 "/>
<polygon style="fill:#ED1F34;" points="256,161.445 144.103,161.445 144.103,90.839 120.155,90.839 120.155,161.445 8.258,161.445 
	8.258,185.394 120.155,185.394 120.155,256 144.103,256 144.103,185.394 256,185.394 "/>
<path style="fill:#3DB4EA;" d="M324.817,159.785v93.971c0,59.526,55.054,73.135,55.054,73.135s55.054-13.608,55.054-73.135v-93.971
	H324.817z"/>
<path style="fill:#103B9B;" d="M379.871,326.891c0,0,55.054-13.608,55.054-73.135v-9.358c-4.957-2.335-9.397-4.92-19.219-4.92
	c-17.919,0-17.919,8.602-35.839,8.602c-17.919,0-17.919-8.602-35.838-8.602c-9.818,0-14.258,2.582-19.213,4.917v9.36
	C324.817,313.283,379.871,326.891,379.871,326.891z"/>
<g>
	<path style="fill:#FFFFFF;" d="M379.867,294.17c-10.839,0-16.745-2.835-21.493-5.113c-4.06-1.949-7.265-3.487-14.345-3.487
		c-6.046,0-9.199,1.159-11.681,2.246c-4.179,1.829-9.049-0.075-10.876-4.252c-1.83-4.177,0.074-9.048,4.252-10.876
		c4.103-1.796,9.486-3.632,18.306-3.632c10.838,0,16.745,2.835,21.492,5.113c4.059,1.949,7.265,3.487,14.345,3.487
		c7.081,0,10.286-1.538,14.346-3.487c4.747-2.278,10.654-5.113,21.493-5.113c8.824,0,14.209,1.838,18.314,3.636
		c4.177,1.83,6.081,6.699,4.251,10.878c-1.831,4.177-6.7,6.079-10.878,4.251c-2.484-1.088-5.64-2.248-11.689-2.248
		c-7.081,0-10.286,1.539-14.346,3.487C396.613,291.335,390.706,294.17,379.867,294.17z"/>
	<path style="fill:#FFFFFF;" d="M379.867,256.338c-10.839,0-16.746-2.835-21.493-5.115c-4.06-1.949-7.265-3.487-14.345-3.487
		c-7.079,0-10.284,1.538-14.343,3.487l-1.309,0.624c-4.125,1.946-9.046,0.178-10.992-3.946c-1.946-4.125-0.179-9.046,3.945-10.992
		l1.208-0.576c4.746-2.278,10.653-5.113,21.49-5.113c10.839,0,16.745,2.835,21.492,5.115c4.059,1.949,7.265,3.487,14.345,3.487
		c7.08,0,10.286-1.539,14.346-3.487c4.747-2.278,10.654-5.115,21.493-5.115c10.839,0,16.746,2.835,21.493,5.115l1.25,0.597
		c4.126,1.943,5.895,6.864,3.951,10.99c-1.943,4.128-6.865,5.895-10.99,3.951l-1.358-0.647c-4.059-1.949-7.265-3.487-14.346-3.487
		c-7.08,0-10.286,1.539-14.346,3.487C396.613,253.503,390.706,256.338,379.867,256.338z"/>
</g>
<path style="fill:#F2A643;" d="M379.871,360.473c-28.473,0-54.793-12.824-72.247-34.385l-2.383,8.492
	c-1.233,4.391-5.792,6.951-10.183,5.72c-4.391-1.232-6.952-5.791-5.72-10.182l7.28-25.947c0.916-3.265,3.735-5.637,7.109-5.983
	c3.375-0.345,6.614,1.405,8.174,4.415c13.22,25.509,39.263,41.355,67.968,41.355s54.749-15.847,67.968-41.355
	c1.56-3.01,4.804-4.762,8.174-4.415c3.374,0.346,6.192,2.72,7.109,5.984l7.28,25.946c1.232,4.391-1.329,8.95-5.72,10.182
	c-4.394,1.232-8.951-1.329-10.183-5.72l-2.383-8.49C434.664,347.65,408.344,360.473,379.871,360.473z"/>
<path style="fill:#FFFFFF;" d="M400.123,217.949h-28.706c-6.515,0-11.797-5.282-11.797-11.797v-11.797h28.706
	c6.515,0,11.797,5.282,11.797,11.797V217.949z"/>
<g>
	<path style="fill:#1A1C20;" d="M371.416,226.206h28.707c4.561,0,8.258-3.697,8.258-8.258v-11.797
		c0-11.058-8.997-20.055-20.055-20.055h-20.448v-1.18c0-4.561-3.697-8.258-8.258-8.258c-4.561,0-8.258,3.697-8.258,8.258v9.438
		v11.797C351.361,217.209,360.358,226.206,371.416,226.206z M391.865,206.151v3.539h-20.449c-1.951,0-3.539-1.588-3.539-3.539
		v-3.539h20.448C390.277,202.612,391.865,204.2,391.865,206.151z"/>
	<path style="fill:#1A1C20;" d="M434.925,151.527H324.817c-4.561,0-8.258,3.697-8.258,8.258v93.972
		c0,34.062,16.681,54.352,30.675,65.376c14.99,11.809,30.023,15.618,30.655,15.774c0.651,0.161,1.316,0.241,1.982,0.241
		s1.33-0.08,1.982-0.241c0.632-0.156,15.665-3.965,30.655-15.774c13.994-11.024,30.675-31.315,30.675-65.376v-93.972
		C443.183,155.224,439.485,151.527,434.925,151.527z M426.667,253.756c0,46.643-37.487,61.552-46.796,64.535
		c-9.309-2.983-46.796-17.892-46.796-64.535v-85.714h93.591V253.756z"/>
	<path style="fill:#1A1C20;" d="M468.324,82.581H43.676C19.593,82.581,0,102.173,0,126.256v259.487
		c0,24.084,19.593,43.676,43.676,43.676h424.648c24.083,0,43.675-19.593,43.675-43.676V126.256
		C512,102.173,492.407,82.581,468.324,82.581z M495.484,385.743c0,14.977-12.183,27.16-27.16,27.16H43.676
		c-14.977,0-27.16-12.183-27.16-27.16V126.256c0-14.976,12.183-27.159,27.16-27.159h424.648c14.976,0,27.159,12.183,27.159,27.159
		V385.743z"/>
</g>
<g>
</g>
<g>
</g>
<g>
</g>
<g>
</g>
<g>
</g>
<g>
</g>
<g>
</g>
<g>
</g>
<g>
</g>
<g>
</g>
<g>
</g>
<g>
</g>
<g>
</g>
<g>
</g>
<g>
</g>
</svg>
