<?xml version="1.0" encoding="iso-8859-1"?>
<!-- Generator: Adobe Illustrator 19.0.0, SVG Export Plug-In . SVG Version: 6.00 Build 0)  -->
<svg version="1.1" id="Layer_1" xmlns="http://www.w3.org/2000/svg" xmlns:xlink="http://www.w3.org/1999/xlink" x="0px" y="0px"
	 viewBox="0 0 512 512" style="enable-background:new 0 0 512 512;" xml:space="preserve">
<path style="fill:#3DB4EA;" d="M8.258,384.826V127.174c0-20.067,16.268-36.335,36.335-36.335h422.813
	c20.067,0,36.335,16.268,36.335,36.335v257.652c0,20.067-16.268,36.335-36.335,36.335H44.594
	C24.526,421.161,8.258,404.893,8.258,384.826z"/>
<g>
	<polygon style="fill:#FFFFFF;" points="218.952,152.99 246.23,151.581 256,126.073 265.77,151.581 293.048,152.99 271.808,170.163 
		278.897,196.542 256,181.649 233.103,196.542 240.192,170.163 	"/>
	<polygon style="fill:#FFFFFF;" points="152.99,293.048 151.581,265.77 126.073,256 151.581,246.23 152.99,218.952 170.163,240.192 
		196.542,233.103 181.649,256 196.542,278.897 170.163,271.808 	"/>
	<polygon style="fill:#FFFFFF;" points="293.048,359.01 265.77,360.419 256,385.927 246.23,360.419 218.952,359.01 240.192,341.837 
		233.103,315.458 256,330.351 278.897,315.458 271.808,341.837 	"/>
	<polygon style="fill:#FFFFFF;" points="359.01,218.952 360.419,246.23 385.927,256 360.419,265.77 359.01,293.048 341.837,271.808 
		315.458,278.897 330.351,256 315.458,233.103 341.837,240.192 	"/>
</g>
<g>
	<path style="fill:#111A21;" d="M293.474,144.743l-21.914-1.132l-7.848-20.491c-1.223-3.194-4.291-5.304-7.712-5.304
		s-6.489,2.11-7.712,5.304l-7.848,20.491l-21.914,1.132c-3.417,0.177-6.371,2.442-7.428,5.696c-1.057,3.254,0.001,6.822,2.661,8.973
		l17.063,13.796l-5.695,21.191c-0.887,3.304,0.353,6.813,3.122,8.824c2.768,2.012,6.489,2.109,9.356,0.242L256,191.501
		l18.395,11.964c1.372,0.892,2.938,1.336,4.502,1.336c1.707,0,3.41-0.529,4.855-1.578c2.768-2.011,4.009-5.52,3.122-8.824
		l-5.695-21.191l17.063-13.796c2.661-2.152,3.719-5.72,2.662-8.973C299.845,147.184,296.891,144.919,293.474,144.743z
		 M266.615,163.742c-2.54,2.054-3.63,5.411-2.784,8.565l1.493,5.556l-4.823-3.137c-1.369-0.891-2.935-1.336-4.502-1.336
		s-3.134,0.445-4.502,1.336l-4.823,3.137l1.493-5.556c0.848-3.155-0.243-6.512-2.784-8.565l-4.474-3.617l5.745-0.297
		c3.261-0.168,6.118-2.244,7.286-5.294L256,149.16l2.058,5.373c1.168,3.05,4.024,5.124,7.286,5.294l5.745,0.297L266.615,163.742z"/>
	<path style="fill:#111A21;" d="M203.222,228.25c-2.011-2.768-5.52-4.009-8.824-3.122l-21.191,5.695l-13.796-17.063
		c-2.15-2.66-5.721-3.718-8.973-2.661c-3.254,1.057-5.519,4.011-5.696,7.428l-1.132,21.914l-20.491,7.848
		c-3.194,1.223-5.304,4.291-5.304,7.712s2.11,6.489,5.304,7.712l20.491,7.848l1.132,21.914c0.177,3.417,2.442,6.371,5.696,7.428
		c0.839,0.273,1.699,0.405,2.55,0.405c2.45,0,4.826-1.092,6.423-3.066l13.796-17.063l21.191,5.695
		c3.303,0.887,6.815-0.353,8.824-3.122c2.012-2.768,2.107-6.489,0.242-9.356L191.5,256l11.964-18.395
		C205.33,234.738,205.234,231.018,203.222,228.25z M174.725,260.502l3.137,4.823l-5.556-1.493c-3.157-0.847-6.512,0.243-8.565,2.784
		l-3.617,4.474l-0.297-5.745c-0.168-3.261-2.244-6.118-5.294-7.286L149.159,256l5.373-2.058c3.05-1.168,5.124-4.024,5.294-7.286
		l0.297-5.745l3.617,4.474c2.052,2.54,5.41,3.629,8.565,2.784l5.556-1.493l-3.137,4.823
		C172.945,254.235,172.945,257.765,174.725,260.502z"/>
	<path style="fill:#111A21;" d="M298.239,352.589l-17.063-13.796l5.695-21.191c0.887-3.304-0.353-6.813-3.122-8.824
		c-2.767-2.011-6.488-2.107-9.357-0.242L256,320.5l-18.395-11.964c-2.868-1.865-6.589-1.769-9.356,0.242
		c-2.768,2.011-4.009,5.52-3.122,8.824l5.695,21.191l-17.063,13.796c-2.661,2.152-3.719,5.72-2.661,8.973
		c1.057,3.254,4.011,5.519,7.428,5.696l21.914,1.132l7.848,20.491c1.223,3.194,4.291,5.304,7.712,5.304
		c3.421,0,6.489-2.11,7.712-5.304l7.848-20.491l21.914-1.132c3.417-0.177,6.371-2.442,7.428-5.696
		C301.959,358.309,300.901,354.74,298.239,352.589z M265.344,352.172c-3.261,0.168-6.118,2.243-7.286,5.294L256,362.84l-2.058-5.373
		c-1.168-3.05-4.024-5.124-7.286-5.294l-5.745-0.297l4.474-3.617c2.54-2.053,3.63-5.411,2.784-8.565l-1.493-5.556l4.823,3.137
		c2.737,1.78,6.267,1.78,9.006,0l4.823-3.137l-1.493,5.556c-0.848,3.155,0.243,6.512,2.784,8.565l4.474,3.617L265.344,352.172z"/>
	<path style="fill:#111A21;" d="M388.881,248.288l-20.491-7.848l-1.132-21.914c-0.177-3.417-2.442-6.371-5.696-7.428
		c-3.253-1.055-6.821,0.001-8.973,2.661l-13.796,17.063l-21.191-5.695c-3.302-0.886-6.813,0.353-8.824,3.122
		c-2.012,2.768-2.107,6.489-0.242,9.356L320.5,256l-11.964,18.395c-1.865,2.868-1.769,6.589,0.242,9.356
		c2.011,2.768,5.52,4.009,8.824,3.122l21.191-5.695l13.796,17.063c1.597,1.974,3.973,3.066,6.423,3.066
		c0.851,0,1.712-0.132,2.55-0.405c3.254-1.057,5.519-4.011,5.696-7.428l1.132-21.914l20.491-7.848
		c3.194-1.223,5.304-4.291,5.304-7.712S392.075,249.511,388.881,248.288z M357.465,258.058c-3.05,1.168-5.124,4.024-5.294,7.286
		l-0.297,5.745l-3.617-4.474c-1.591-1.969-3.966-3.066-6.423-3.066c-0.712,0-1.434,0.092-2.143,0.283l-5.556,1.493l3.137-4.823
		c1.78-2.737,1.78-6.267,0-9.006l-3.137-4.823l5.556,1.493c3.158,0.848,6.512-0.243,8.565-2.784l3.617-4.474l0.297,5.745
		c0.168,3.261,2.244,6.118,5.294,7.286l5.373,2.058L357.465,258.058z"/>
	<path style="fill:#111A21;" d="M468.324,82.581H43.675C19.593,82.581,0,102.173,0,126.256v259.487
		c0,24.084,19.593,43.676,43.675,43.676h424.648c24.084,0,43.676-19.593,43.676-43.676V126.256
		C512,102.173,492.407,82.581,468.324,82.581z M495.484,385.743c0,14.977-12.183,27.16-27.16,27.16H43.675
		c-14.976,0-27.159-12.183-27.159-27.16V126.256c0-14.976,12.183-27.159,27.159-27.159h424.648c14.977,0,27.16,12.183,27.16,27.159
		V385.743z"/>
</g>
<g>
</g>
<g>
</g>
<g>
</g>
<g>
</g>
<g>
</g>
<g>
</g>
<g>
</g>
<g>
</g>
<g>
</g>
<g>
</g>
<g>
</g>
<g>
</g>
<g>
</g>
<g>
</g>
<g>
</g>
</svg>
