<?xml version="1.0" encoding="iso-8859-1"?>
<!-- Generator: Adobe Illustrator 19.0.0, SVG Export Plug-In . SVG Version: 6.00 Build 0)  -->
<svg version="1.1" id="Layer_1" xmlns="http://www.w3.org/2000/svg" xmlns:xlink="http://www.w3.org/1999/xlink" x="0px" y="0px"
	 viewBox="0 0 512 512" style="enable-background:new 0 0 512 512;" xml:space="preserve">
<path style="fill:#FFFFFF;" d="M503.742,126.257v259.487c0,19.561-15.858,35.418-35.418,35.418H43.676
	c-19.562-0.001-35.418-15.858-35.418-35.419V126.257c0-19.562,15.857-35.418,35.418-35.418h424.648
	C487.884,90.839,503.742,106.695,503.742,126.257z"/>
<polygon style="fill:#164FCE;" points="503.742,211.406 239.915,211.406 239.915,90.839 150.728,90.839 150.728,211.406 
	8.258,211.406 8.258,300.594 150.728,300.594 150.728,421.161 239.915,421.161 239.915,300.594 503.742,300.594 "/>
<polygon style="fill:#ED1F34;" points="503.742,232.052 219.27,232.052 219.27,90.839 171.374,90.839 171.374,232.052 
	8.258,232.052 8.258,279.948 171.374,279.948 171.374,421.161 219.27,421.161 219.27,279.948 503.742,279.948 "/>
<path style="fill:#1A1C20;" d="M468.324,82.581H43.675C19.593,82.581,0,102.173,0,126.256v259.487
	c0,24.084,19.593,43.676,43.675,43.676h424.648c24.084,0,43.676-19.593,43.676-43.676V126.256
	C512,102.173,492.407,82.581,468.324,82.581z M16.516,126.256c0-14.976,12.183-27.159,27.159-27.159h119.44v124.697H16.516V126.256z
	 M495.484,385.743c0,14.977-12.183,27.16-27.16,27.16H227.53V288.206h267.954V385.743z M495.484,271.69H219.271
	c-4.561,0-8.258,3.697-8.258,8.258v132.955h-31.381V279.948c0-4.561-3.697-8.258-8.258-8.258H74.323
	c-4.561,0-8.258,3.697-8.258,8.258c0,4.561,3.697,8.258,8.258,8.258h88.794v124.697H43.675c-14.976,0-27.159-12.183-27.159-27.16
	v-97.537H41.29c4.561,0,8.258-3.697,8.258-8.258c0-4.561-3.697-8.258-8.258-8.258H16.516V240.31h154.859
	c4.561,0,8.258-3.697,8.258-8.258V99.097h31.381v132.955c0,4.561,3.697,8.258,8.258,8.258h276.212V271.69z M495.484,223.794H227.53
	V99.097h240.795c14.976,0,27.159,12.183,27.159,27.159V223.794z"/>
<g>
</g>
<g>
</g>
<g>
</g>
<g>
</g>
<g>
</g>
<g>
</g>
<g>
</g>
<g>
</g>
<g>
</g>
<g>
</g>
<g>
</g>
<g>
</g>
<g>
</g>
<g>
</g>
<g>
</g>
</svg>
