<?xml version="1.0" encoding="iso-8859-1"?>
<!-- Generator: Adobe Illustrator 19.0.0, SVG Export Plug-In . SVG Version: 6.00 Build 0)  -->
<svg version="1.1" id="Layer_1" xmlns="http://www.w3.org/2000/svg" xmlns:xlink="http://www.w3.org/1999/xlink" x="0px" y="0px"
	 viewBox="0 0 512 512" style="enable-background:new 0 0 512 512;" xml:space="preserve">
<path style="fill:#ED1F34;" d="M8.258,129.927v252.146c0,21.588,17.5,39.088,39.088,39.088h417.308
	c21.588,0,39.088-17.5,39.088-39.088V129.927c0-21.588-17.5-39.088-39.088-39.088H47.346C25.759,90.839,8.258,108.339,8.258,129.927
	z"/>
<rect x="63.312" y="145.892" style="fill:#FFE000;" width="385.376" height="220.215"/>
<g>
	<polygon style="fill:#259245;" points="63.312,145.892 63.312,366.108 256,256 	"/>
	<polygon style="fill:#259245;" points="256,256 448.688,366.108 448.688,145.892 	"/>
</g>
<circle style="fill:#ED1F34;" cx="256" cy="256" r="42.942"/>
<g>
	<path style="fill:#FFE000;" d="M256,278.022c-12.143,0-22.021-9.878-22.021-22.022s9.879-22.021,22.021-22.021
		c12.143,0,22.022,9.878,22.022,22.021S268.143,278.022,256,278.022z"/>
	<path style="fill:#FFE000;" d="M111.759,227.553c-10.39,5.264-17.545,16.024-17.545,28.447s7.155,23.183,17.545,28.447
		c10.39-5.264,17.545-16.024,17.545-28.447S122.149,232.817,111.759,227.553z"/>
	<circle style="fill:#FFE000;" cx="156.903" cy="118.366" r="8.258"/>
	<circle style="fill:#FFE000;" cx="256" cy="118.366" r="8.258"/>
	<circle style="fill:#FFE000;" cx="355.097" cy="118.366" r="8.258"/>
	<circle style="fill:#FFE000;" cx="156.903" cy="393.634" r="8.258"/>
	<circle style="fill:#FFE000;" cx="256" cy="393.634" r="8.258"/>
	<circle style="fill:#FFE000;" cx="355.097" cy="393.634" r="8.258"/>
</g>
<g>
	<path style="fill:#121B21;" d="M448.688,137.634H63.312c-4.561,0-8.258,3.696-8.258,8.258v220.215c0,4.562,3.697,8.258,8.258,8.258
		h385.376c4.561,0,8.258-3.696,8.258-8.258V145.892C456.946,141.331,453.249,137.634,448.688,137.634z M440.43,357.849H71.57
		V154.151h368.86V357.849z"/>
	<path style="fill:#121B21;" d="M468.324,82.581H43.675C19.593,82.581,0,102.174,0,126.257v259.486
		c0,24.083,19.593,43.676,43.675,43.676h424.648c24.084,0,43.676-19.594,43.676-43.676V126.257
		C512,102.174,492.407,82.581,468.324,82.581z M495.484,385.743c0,14.977-12.183,27.16-27.16,27.16H43.675
		c-14.976,0-27.159-12.183-27.159-27.16V126.257c0-14.977,12.183-27.16,27.159-27.16h424.648c14.977,0,27.16,12.183,27.16,27.16
		V385.743z"/>
</g>
<g>
</g>
<g>
</g>
<g>
</g>
<g>
</g>
<g>
</g>
<g>
</g>
<g>
</g>
<g>
</g>
<g>
</g>
<g>
</g>
<g>
</g>
<g>
</g>
<g>
</g>
<g>
</g>
<g>
</g>
</svg>
