<?xml version="1.0" encoding="iso-8859-1"?>
<!-- Generator: Adobe Illustrator 19.0.0, SVG Export Plug-In . SVG Version: 6.00 Build 0)  -->
<svg version="1.1" id="Layer_1" xmlns="http://www.w3.org/2000/svg" xmlns:xlink="http://www.w3.org/1999/xlink" x="0px" y="0px"
	 viewBox="0 0 512 512" style="enable-background:new 0 0 512 512;" xml:space="preserve">
<path style="fill:#FFFFFF;" d="M468.508,421.161H43.492c-19.459,0-35.234-15.775-35.234-35.234V126.073
	c0-19.459,15.775-35.234,35.234-35.234h425.015c19.459,0,35.234,15.775,35.234,35.234v259.854
	C503.742,405.386,487.967,421.161,468.508,421.161z"/>
<g>
	<polygon style="fill:#ED1F34;" points="503.742,223.243 288.757,223.243 288.757,90.839 223.244,90.839 223.244,223.243 
		8.258,223.243 8.258,288.757 223.244,288.757 223.244,421.161 288.757,421.161 288.757,288.757 503.742,288.757 	"/>
	<path style="fill:#ED1F34;" d="M115.751,385.376c-4.562,0-8.258-3.697-8.258-8.258V332.8c0-4.561,3.696-8.258,8.258-8.258
		s8.258,3.697,8.258,8.258v44.318C124.009,381.679,120.312,385.376,115.751,385.376z"/>
	<path style="fill:#ED1F34;" d="M137.91,363.217H93.591c-4.562,0-8.258-3.697-8.258-8.258c0-4.561,3.696-8.258,8.258-8.258h44.318
		c4.562,0,8.258,3.697,8.258,8.258C146.168,359.52,142.471,363.217,137.91,363.217z"/>
	<path style="fill:#ED1F34;" d="M115.751,187.458c-4.562,0-8.258-3.697-8.258-8.258v-44.318c0-4.561,3.696-8.258,8.258-8.258
		s8.258,3.697,8.258,8.258V179.2C124.009,183.761,120.312,187.458,115.751,187.458z"/>
	<path style="fill:#ED1F34;" d="M137.91,165.299H93.591c-4.562,0-8.258-3.697-8.258-8.258s3.696-8.258,8.258-8.258h44.318
		c4.562,0,8.258,3.697,8.258,8.258S142.471,165.299,137.91,165.299z"/>
	<path style="fill:#ED1F34;" d="M396.249,385.376c-4.562,0-8.258-3.697-8.258-8.258V332.8c0-4.561,3.696-8.258,8.258-8.258
		c4.562,0,8.258,3.697,8.258,8.258v44.318C404.508,381.679,400.811,385.376,396.249,385.376z"/>
	<path style="fill:#ED1F34;" d="M418.409,363.217H374.09c-4.562,0-8.258-3.697-8.258-8.258c0-4.561,3.696-8.258,8.258-8.258h44.318
		c4.562,0,8.258,3.697,8.258,8.258C426.667,359.52,422.97,363.217,418.409,363.217z"/>
	<path style="fill:#ED1F34;" d="M396.249,187.458c-4.562,0-8.258-3.697-8.258-8.258v-44.318c0-4.561,3.696-8.258,8.258-8.258
		c4.562,0,8.258,3.697,8.258,8.258V179.2C404.508,183.761,400.811,187.458,396.249,187.458z"/>
	<path style="fill:#ED1F34;" d="M418.409,165.299H374.09c-4.562,0-8.258-3.697-8.258-8.258s3.696-8.258,8.258-8.258h44.318
		c4.562,0,8.258,3.697,8.258,8.258S422.97,165.299,418.409,165.299z"/>
</g>
<path style="fill:#121B21;" d="M468.324,82.581H43.676C19.594,82.581,0,102.173,0,126.256v259.487
	c0,24.084,19.594,43.676,43.676,43.676h424.647c24.083,0,43.676-19.593,43.676-43.676V126.256
	C512,102.173,492.406,82.581,468.324,82.581z M495.484,126.256v88.729H470.71c-4.562,0-8.258,3.697-8.258,8.258
	s3.696,8.258,8.258,8.258h24.774v48.998H288.757c-4.562,0-8.258,3.697-8.258,8.258v124.146h-48.998V288.757
	c0-4.561-3.696-8.258-8.258-8.258H16.516v-48.998h206.727c4.562,0,8.258-3.697,8.258-8.258V99.097h48.998v124.146
	c0,4.561,3.696,8.258,8.258,8.258h148.92c4.562,0,8.258-3.697,8.258-8.258s-3.696-8.258-8.258-8.258H297.015V99.097h171.309
	C483.3,99.097,495.484,111.28,495.484,126.256z M43.676,99.097h171.309v115.888H16.516v-88.729
	C16.516,111.28,28.7,99.097,43.676,99.097z M16.516,385.743v-88.728h198.469v115.888H43.676
	C28.7,412.903,16.516,400.72,16.516,385.743z M468.324,412.903H297.015V297.015h198.469v88.728
	C495.484,400.72,483.3,412.903,468.324,412.903z"/>
<g>
</g>
<g>
</g>
<g>
</g>
<g>
</g>
<g>
</g>
<g>
</g>
<g>
</g>
<g>
</g>
<g>
</g>
<g>
</g>
<g>
</g>
<g>
</g>
<g>
</g>
<g>
</g>
<g>
</g>
</svg>
