<?xml version="1.0" encoding="iso-8859-1"?>
<!-- Generator: Adobe Illustrator 19.0.0, SVG Export Plug-In . SVG Version: 6.00 Build 0)  -->
<svg version="1.1" id="Layer_1" xmlns="http://www.w3.org/2000/svg" xmlns:xlink="http://www.w3.org/1999/xlink" x="0px" y="0px"
	 viewBox="0 0 512 512" style="enable-background:new 0 0 512 512;" xml:space="preserve">
<path style="fill:#FFFFFF;" d="M503.742,126.257v259.487c0,19.561-15.857,35.418-35.418,35.418H43.676
	c-19.561-0.001-35.418-15.858-35.418-35.419V126.257c0-19.562,15.858-35.418,35.418-35.418h424.648
	C487.885,90.839,503.742,106.695,503.742,126.257z"/>
<polygon style="fill:#ED1F34;" points="503.742,215.535 296.465,215.535 296.465,90.839 215.537,90.839 215.537,215.535 
	8.258,215.535 8.258,296.465 215.537,296.465 215.537,421.161 296.465,421.161 296.465,296.465 503.742,296.465 "/>
<line style="fill:none;stroke:#000000;stroke-width:15;stroke-linecap:round;stroke-linejoin:round;stroke-miterlimit:10;" x1="470.71" y1="296.465" x2="503.742" y2="296.465"/>
<path style="fill:#FFE000;" d="M355.097,243.338c-3.169,0-5.916,1.786-7.301,4.404h-83.537v-83.537
	c2.618-1.385,4.404-4.133,4.404-7.301c0-4.561-3.696-8.258-8.258-8.258h-8.809c-4.562,0-8.258,3.697-8.258,8.258
	c0,3.168,1.786,5.916,4.404,7.301v83.537h-83.537c-1.385-2.618-4.132-4.404-7.301-4.404c-4.562,0-8.258,3.697-8.258,8.258v8.809
	c0,4.561,3.696,8.258,8.258,8.258c3.169,0,5.916-1.786,7.301-4.404h83.537v83.538c-2.618,1.385-4.404,4.132-4.404,7.301
	c0,4.561,3.696,8.258,8.258,8.258h8.809c4.562,0,8.258-3.697,8.258-8.258c0-3.168-1.786-5.916-4.404-7.301v-83.538h83.538
	c1.385,2.618,4.132,4.404,7.301,4.404c4.562,0,8.258-3.697,8.258-8.258v-8.809C363.355,247.035,359.659,243.338,355.097,243.338z"/>
<path style="fill:#1A1C20;" d="M468.324,82.581H43.676C19.594,82.581,0,102.173,0,126.256v259.487
	c0,24.084,19.594,43.676,43.676,43.676h424.647c24.083,0,43.676-19.593,43.676-43.676V126.256
	C512,102.173,492.406,82.581,468.324,82.581z M495.484,126.256v81.022H304.723V99.097h163.601
	C483.3,99.097,495.484,111.28,495.484,126.256z M43.676,99.097h163.601v108.181H16.516v-81.022
	C16.516,111.28,28.7,99.097,43.676,99.097z M16.516,385.743v-81.02h190.761v108.181H43.676
	C28.7,412.903,16.516,400.72,16.516,385.743z M468.324,412.903H304.723V304.723h132.955c4.562,0,8.258-3.697,8.258-8.258
	c0-4.561-3.696-8.258-8.258-8.258H296.465c-4.562,0-8.258,3.697-8.258,8.258v116.439h-64.413V296.465
	c0-4.561-3.696-8.258-8.258-8.258H16.516v-64.413h199.019c4.562,0,8.258-3.697,8.258-8.258V99.097h64.413v116.439
	c0,4.561,3.696,8.258,8.258,8.258h199.019v161.949C495.484,400.72,483.3,412.903,468.324,412.903z"/>
<g>
</g>
<g>
</g>
<g>
</g>
<g>
</g>
<g>
</g>
<g>
</g>
<g>
</g>
<g>
</g>
<g>
</g>
<g>
</g>
<g>
</g>
<g>
</g>
<g>
</g>
<g>
</g>
<g>
</g>
</svg>
