<?xml version="1.0" encoding="iso-8859-1"?>
<!-- Generator: Adobe Illustrator 19.0.0, SVG Export Plug-In . SVG Version: 6.00 Build 0)  -->
<svg version="1.1" id="Layer_1" xmlns="http://www.w3.org/2000/svg" xmlns:xlink="http://www.w3.org/1999/xlink" x="0px" y="0px"
	 viewBox="0 0 512 512" style="enable-background:new 0 0 512 512;" xml:space="preserve">
<rect x="8.258" y="200.946" style="fill:#FFE000;" width="495.484" height="110.108"/>
<path style="fill:#259245;" d="M8.258,385.743c0,19.561,15.858,35.418,35.418,35.418h424.648c19.561,0,35.418-15.857,35.418-35.418
	v-74.689H8.258V385.743z"/>
<path style="fill:#ED1F34;" d="M468.324,90.839H43.676c-19.561,0-35.418,15.857-35.418,35.417v74.69h495.484v-74.69
	C503.742,106.695,487.884,90.839,468.324,90.839z"/>
<polygon style="fill:#333333;" points="218.952,247.682 246.23,246.273 256,220.766 265.77,246.273 293.048,247.682 
	271.808,264.856 278.897,291.234 256,276.341 233.103,291.234 240.192,264.856 "/>
<g>
	<path style="fill:#111A21;" d="M293.474,239.435l-21.914-1.132l-7.848-20.491c-1.223-3.194-4.291-5.304-7.712-5.304
		s-6.489,2.11-7.712,5.304l-7.848,20.491l-21.914,1.132c-3.417,0.176-6.371,2.442-7.428,5.696c-1.057,3.254,0.001,6.822,2.661,8.973
		l17.063,13.795l-5.695,21.191c-0.887,3.303,0.353,6.813,3.122,8.824c2.767,2.012,6.489,2.109,9.356,0.242L256,286.193
		l18.395,11.964c1.372,0.893,2.938,1.336,4.502,1.336c1.707,0,3.41-0.527,4.855-1.578c2.768-2.011,4.009-5.521,3.122-8.824
		l-5.695-21.191l17.063-13.795c2.661-2.15,3.719-5.719,2.661-8.973C299.845,241.878,296.891,239.612,293.474,239.435z
		 M266.615,258.434c-2.54,2.054-3.63,5.411-2.784,8.564l1.493,5.557l-4.823-3.138c-1.369-0.891-2.935-1.336-4.502-1.336
		s-3.134,0.445-4.502,1.336l-4.823,3.138l1.493-5.557c0.848-3.154-0.243-6.511-2.784-8.564l-4.474-3.617l5.745-0.297
		c3.261-0.168,6.118-2.244,7.286-5.294l2.058-5.373l2.058,5.373c1.168,3.05,4.024,5.124,7.286,5.294l5.745,0.297L266.615,258.434z"
		/>
	<path style="fill:#111A21;" d="M468.324,82.581H43.676C19.593,82.581,0,102.174,0,126.257v259.486
		c0,24.083,19.593,43.676,43.676,43.676h424.648c24.083,0,43.675-19.594,43.675-43.676V126.257
		C512,102.174,492.407,82.581,468.324,82.581z M43.676,99.097h424.648c14.976,0,27.159,12.183,27.159,27.16v66.431H16.516v-66.431
		C16.516,111.28,28.7,99.097,43.676,99.097z M468.324,412.903H43.676c-14.977,0-27.16-12.183-27.16-27.16v-66.431h421.161
		c4.561,0,8.258-3.696,8.258-8.258s-3.697-8.258-8.258-8.258H16.516v-93.591h478.968v93.591H470.71
		c-4.561,0-8.258,3.696-8.258,8.258s3.697,8.258,8.258,8.258h24.774v66.431C495.484,400.72,483.3,412.903,468.324,412.903z"/>
</g>
<g>
</g>
<g>
</g>
<g>
</g>
<g>
</g>
<g>
</g>
<g>
</g>
<g>
</g>
<g>
</g>
<g>
</g>
<g>
</g>
<g>
</g>
<g>
</g>
<g>
</g>
<g>
</g>
<g>
</g>
</svg>
