<?xml version="1.0" encoding="iso-8859-1"?>
<!-- Generator: Adobe Illustrator 19.0.0, SVG Export Plug-In . SVG Version: 6.00 Build 0)  -->
<svg version="1.1" id="Layer_1" xmlns="http://www.w3.org/2000/svg" xmlns:xlink="http://www.w3.org/1999/xlink" x="0px" y="0px"
	 viewBox="0 0 512 512" style="enable-background:new 0 0 512 512;" xml:space="preserve">
<path style="fill:#FFFFFF;" d="M503.742,311.054H8.258V127.349c0-20.164,16.347-36.511,36.511-36.511H467.23
	c20.164,0,36.511,16.347,36.511,36.511v183.704H503.742z"/>
<g>
	<path style="fill:#ED1F34;" d="M466.739,421.161H45.261c-20.436,0-37.003-16.567-37.003-37.003v-73.105h495.484v73.105
		C503.742,404.595,487.175,421.161,466.739,421.161z"/>
	<polygon style="fill:#ED1F34;" points="338.818,211.957 338.818,161.232 304.685,161.232 304.685,211.957 276.92,211.957 
		276.92,134.882 235.08,134.882 235.08,211.957 207.315,211.957 207.315,161.232 173.182,161.232 173.182,211.957 162.171,211.957 
		162.171,278.022 349.829,278.022 349.829,211.957 	"/>
</g>
<g>
	<path style="fill:#1A1C20;" d="M146.756,286.28h218.49c4.562,0,8.258-3.697,8.258-8.258c0-4.561-3.696-8.258-8.258-8.258h-7.158
		v-51.211c2.003-1.507,3.303-3.897,3.303-6.595c0-4.561-3.696-8.258-8.258-8.258h-6.056v-42.467c0-4.561-3.696-8.258-8.258-8.258
		h-34.133c-4.562,0-8.258,3.697-8.258,8.258v42.467h-11.249v-68.817c0-4.561-3.696-8.258-8.258-8.258H235.08
		c-4.561,0-8.258,3.697-8.258,8.258v68.817h-11.249v-42.467c0-4.561-3.697-8.258-8.258-8.258h-34.133
		c-4.561,0-8.258,3.697-8.258,8.258v42.467h-6.056c-4.561,0-8.258,3.697-8.258,8.258c0,2.699,1.3,5.088,3.303,6.595v51.211h-7.157
		c-4.561,0-8.258,3.697-8.258,8.258C138.498,282.582,142.195,286.28,146.756,286.28z M170.429,220.215h2.753
		c4.561,0,8.258-3.697,8.258-8.258V169.49h17.617v42.467c0,4.561,3.697,8.258,8.258,8.258h27.765c4.561,0,8.258-3.697,8.258-8.258
		V143.14h25.325v68.817c0,4.561,3.696,8.258,8.258,8.258h27.765c4.562,0,8.258-3.697,8.258-8.258V169.49h17.617v42.467
		c0,4.561,3.696,8.258,8.258,8.258h2.753v49.548h-77.313v-24.774c0-4.561-3.696-8.258-8.258-8.258c-4.561,0-8.258,3.697-8.258,8.258
		v24.774h-77.313V220.215z"/>
	<path style="fill:#1A1C20;" d="M468.324,82.581H43.676C19.593,82.581,0,102.173,0,126.256v259.487
		c0,24.084,19.593,43.676,43.676,43.676h424.648c24.082,0,43.675-19.593,43.675-43.676V126.256
		C512,102.173,492.406,82.581,468.324,82.581z M468.324,412.903H43.676c-14.977,0-27.16-12.183-27.16-27.16v-66.431H41.29
		c4.561,0,8.258-3.697,8.258-8.258c0-4.561-3.697-8.258-8.258-8.258H16.516v-176.54c0-14.976,12.183-27.159,27.16-27.159h424.648
		c14.976,0,27.159,12.183,27.159,27.159v176.54H74.323c-4.561,0-8.258,3.697-8.258,8.258c0,4.561,3.697,8.258,8.258,8.258h421.161
		v66.431C495.484,400.72,483.3,412.903,468.324,412.903z"/>
</g>
<path style="fill:#FFE000;" d="M285.742,304.196l-18.941-12.709l10.797-20.22c2.148-4.023,0.628-9.027-3.395-11.174
	c-4.029-2.151-9.027-0.628-11.175,3.395L256,276.653l-7.029-13.164c-2.148-4.023-7.151-5.544-11.174-3.395
	c-4.023,2.148-5.543,7.151-3.395,11.174l10.797,20.22l-18.941,12.709c-2.286,1.534-3.657,4.105-3.657,6.857s1.372,5.324,3.657,6.857
	l21.483,14.415v25.523h-6.056c-4.561,0-8.258,3.697-8.258,8.258c0,4.561,3.697,8.258,8.258,8.258h6.056v5.505h-6.056
	c-4.561,0-8.258,3.697-8.258,8.258c0,4.561,3.697,8.258,8.258,8.258H256c4.562,0,8.258-3.697,8.258-8.258v-55.802l21.484-14.415
	c2.286-1.534,3.657-4.105,3.657-6.857S288.028,305.73,285.742,304.196z M256,317.978l-10.32-6.925l10.32-6.925l10.319,6.925
	L256,317.978z"/>
<g>
</g>
<g>
</g>
<g>
</g>
<g>
</g>
<g>
</g>
<g>
</g>
<g>
</g>
<g>
</g>
<g>
</g>
<g>
</g>
<g>
</g>
<g>
</g>
<g>
</g>
<g>
</g>
<g>
</g>
</svg>
