<?xml version="1.0" encoding="iso-8859-1"?>
<!-- Generator: Adobe Illustrator 19.0.0, SVG Export Plug-In . SVG Version: 6.00 Build 0)  -->
<svg version="1.1" id="Layer_1" xmlns="http://www.w3.org/2000/svg" xmlns:xlink="http://www.w3.org/1999/xlink" x="0px" y="0px"
	 viewBox="0 0 512 512" style="enable-background:new 0 0 512 512;" xml:space="preserve">
<path style="fill:#ED1F34;" d="M8.258,256h495.484v133.046c0,17.736-14.378,32.115-32.115,32.115H46.612
	c-21.182,0-38.354-17.171-38.354-38.354V256z"/>
<path style="fill:#FFFFFF;" d="M43.309,90.839h425.749c19.155,0,34.684,15.528,34.684,34.684V256H8.258V125.889
	C8.258,106.531,23.951,90.839,43.309,90.839z"/>
<path style="fill:#1A1C20;" d="M468.324,82.581H43.676C19.593,82.581,0,102.173,0,126.256v259.487
	c0,24.084,19.593,43.676,43.676,43.676h424.648c24.082,0,43.675-19.593,43.675-43.676V126.256
	C512,102.173,492.406,82.581,468.324,82.581z M468.324,412.903H43.676c-14.977,0-27.16-12.183-27.16-27.16V264.258h420.611
	c4.562,0,8.258-3.697,8.258-8.258c0-4.561-3.696-8.258-8.258-8.258H16.516V126.256c0-14.976,12.183-27.159,27.16-27.159h424.648
	c14.976,0,27.159,12.183,27.159,27.159v121.486h-25.325c-4.562,0-8.258,3.697-8.258,8.258c0,4.561,3.696,8.258,8.258,8.258h25.325
	v121.485C495.484,400.72,483.3,412.903,468.324,412.903z"/>
<path style="fill:#FFFFFF;" d="M303.52,256c0,45.608-36.973,82.581-82.581,82.581S138.359,301.608,138.359,256H303.52z"/>
<path style="fill:#ED1F34;" d="M220.94,173.419c45.608,0,82.581,36.973,82.581,82.581H138.359
	C138.359,210.392,175.332,173.419,220.94,173.419z"/>
<path style="fill:#1A1C20;" d="M220.94,346.839c-17.886,0-35.207-5.209-50.09-15.065c-3.803-2.518-4.844-7.643-2.325-11.446
	c2.518-3.803,7.641-4.844,11.445-2.325c12.17,8.06,26.338,12.32,40.971,12.32c40.982,0,74.324-33.341,74.324-74.323
	s-33.341-74.323-74.323-74.323S146.618,215.018,146.618,256c0,14.634,4.26,28.802,12.319,40.971
	c2.518,3.802,1.478,8.926-2.325,11.445c-3.801,2.519-8.926,1.478-11.445-2.325c-9.856-14.882-15.066-32.203-15.066-50.09
	c0-50.089,40.75-90.839,90.839-90.839c50.088,0,90.839,40.75,90.839,90.839S271.027,346.839,220.94,346.839z"/>
<g>
</g>
<g>
</g>
<g>
</g>
<g>
</g>
<g>
</g>
<g>
</g>
<g>
</g>
<g>
</g>
<g>
</g>
<g>
</g>
<g>
</g>
<g>
</g>
<g>
</g>
<g>
</g>
<g>
</g>
</svg>
