<?xml version="1.0" encoding="iso-8859-1"?>
<!-- Generator: Adobe Illustrator 19.0.0, SVG Export Plug-In . SVG Version: 6.00 Build 0)  -->
<svg version="1.1" id="Capa_1" xmlns="http://www.w3.org/2000/svg" xmlns:xlink="http://www.w3.org/1999/xlink" x="0px" y="0px"
	 viewBox="0 0 512 512" style="enable-background:new 0 0 512 512; transform: scale(0.9)" xml:space="preserve">
<circle style="fill:#66C1FF;" cx="256" cy="256" r="248.49"/>
<path style="fill:#39ABEA;" d="M256,7.511c-7.768,0-15.448,0.375-23.035,1.072C359.4,20.208,458.419,126.532,458.419,256
	S359.4,491.792,232.965,503.416c7.586,0.698,15.266,1.072,23.035,1.072c137.236,0,248.489-111.252,248.489-248.489
	S393.236,7.511,256,7.511z"/>
<g>
	<path style="fill:#1491AF;" d="M263.506,504.366c1.321-0.039,2.638-0.09,3.953-0.15c0.664-0.03,1.329-0.057,1.992-0.093
		c1.712-0.091,3.419-0.199,5.122-0.324c0.864-0.064,1.724-0.143,2.586-0.216c0.918-0.077,1.835-0.157,2.749-0.244
		c1.028-0.099,2.054-0.203,3.077-0.314c0.689-0.074,1.375-0.156,2.062-0.235c2.548-0.298,5.088-0.625,7.612-0.999
		c0.011-0.002,0.022-0.003,0.033-0.005c9.672-5.545,18.932-13.303,27.632-23.136c-26.745,13.284-56.218,21.902-87.359,24.766
		c3.68,0.338,7.382,0.597,11.105,0.778c0.241,0.011,0.482,0.023,0.723,0.034c1.536,0.07,3.078,0.122,4.621,0.164
		c0.382,0.01,0.763,0.024,1.145,0.032c1.809,0.04,3.621,0.065,5.44,0.065c1.903,0,3.799-0.029,5.691-0.072
		C262.297,504.403,262.901,504.384,263.506,504.366z"/>
	<path style="fill:#1491AF;" d="M249.419,7.608c-1.547,0.042-3.091,0.094-4.63,0.164c-0.238,0.011-0.475,0.022-0.713,0.033
		c-3.725,0.181-7.429,0.439-11.11,0.778c31.142,2.863,60.614,11.482,87.359,24.766c-8.7-9.833-17.96-17.591-27.632-23.136
		c-0.006-0.001-0.013-0.002-0.019-0.003c-2.529-0.374-5.073-0.702-7.626-1c-0.687-0.08-1.373-0.161-2.062-0.236
		c-1.023-0.111-2.048-0.215-3.075-0.313c-0.919-0.088-1.84-0.168-2.762-0.245c-0.857-0.073-1.713-0.151-2.573-0.215
		c-1.705-0.126-3.414-0.234-5.128-0.325c-0.659-0.035-1.32-0.062-1.981-0.092c-1.319-0.06-2.64-0.111-3.964-0.151
		c-0.603-0.018-1.206-0.037-1.81-0.05c-1.893-0.043-3.789-0.072-5.692-0.072c-1.819,0-3.631,0.025-5.44,0.065
		C250.179,7.585,249.799,7.598,249.419,7.608z"/>
</g>
<path d="M437.02,74.98C388.667,26.628,324.38,0,256,0S123.333,26.628,74.98,74.98S0,187.62,0,256s26.628,132.667,74.98,181.02
	S187.62,512,256,512s132.667-26.628,181.02-74.98S512,324.38,512,256S485.372,123.333,437.02,74.98z M49.656,131.369
	c28.081,6.666,58.108,11.902,89.403,15.629c-7.388,31.55-11.532,66.062-12.046,101.49H15.15
	C16.426,206.57,28.357,166.49,49.656,131.369z M15.15,263.511h111.861c0.597,41.868,6.171,82.042,16.152,117.692
	c-29.271,3.351-57.468,8.01-83.994,13.912C31.913,356.724,16.604,311.313,15.15,263.511z M85.603,426.397
	c-5.8-5.8-11.264-11.847-16.391-18.112c24.852-5.27,51.155-9.431,78.373-12.464c4.544,13.935,9.798,27.063,15.728,39.188
	c11.966,24.464,26.031,43.499,41.463,56.529C159.959,481.885,118.791,459.585,85.603,426.397z M248.489,496.433
	c-26.686-3.775-51.901-27.585-71.681-68.025c-5.192-10.616-9.838-22.058-13.923-34.169c27.859-2.634,56.567-4.078,85.604-4.292
	L248.489,496.433L248.489,496.433z M248.489,374.924c-30.601,0.222-60.852,1.8-90.174,4.672
	c-10.048-34.912-15.672-74.585-16.279-116.085h106.452L248.489,374.924L248.489,374.924z M248.489,248.489H142.038
	c0.521-34.965,4.663-68.945,12.047-99.83c30.595,3.135,62.266,4.856,94.403,5.088v94.742H248.489z M248.489,138.722
	c-30.829-0.225-61.205-1.84-90.575-4.775c4.067-14.411,8.873-28.02,14.376-40.592c1.664-3.801-0.068-8.23-3.868-9.893
	c-3.804-1.665-8.229,0.068-9.893,3.868c-6.082,13.894-11.341,28.99-15.736,44.979c-29.47-3.444-57.798-8.242-84.398-14.331
	c8.032-11.448,17.114-22.282,27.208-32.376c33.178-33.177,74.33-55.474,119.131-65.132c-10.441,8.844-20.288,20.479-29.348,34.799
	c-2.218,3.505-1.175,8.145,2.332,10.363c3.505,2.217,8.145,1.174,10.363-2.332c21.771-34.409,43.816-45.367,60.408-47.734V138.722z
	 M496.85,248.489H384.988c-0.508-35.642-4.624-70.055-11.994-101.496c31.276-3.727,61.285-8.962,89.349-15.624
	C483.643,166.49,495.574,206.569,496.85,248.489z M426.397,85.603c10.093,10.094,19.176,20.928,27.207,32.375
	c-26.585,6.085-54.896,10.882-84.35,14.326c-5.511-20.004-12.398-38.61-20.568-55.313c-11.966-24.464-26.031-43.499-41.463-56.529
	C352.041,30.115,393.209,52.415,426.397,85.603z M263.511,15.567c26.686,3.775,51.901,27.585,71.681,68.025
	c7.451,15.234,13.784,32.161,18.932,50.351c-29.383,2.937-59.772,4.553-90.612,4.779V15.567H263.511z M263.511,153.746
	c32.151-0.232,63.838-1.954,94.448-5.092c7.367,30.774,11.49,64.647,12.004,99.835H263.511V153.746z M263.511,496.439V389.947
	c29.012,0.214,57.695,1.655,85.532,4.284c-7.603,22.578-17.038,42.561-27.844,58.636
	C308.853,471.237,289.197,492.818,263.511,496.439z M426.397,426.397c-33.191,33.19-74.362,55.491-119.183,65.143
	c9.34-7.899,18.208-18.024,26.455-30.293c12.237-18.205,22.595-40.322,30.755-65.426c27.215,3.033,53.516,7.193,78.365,12.464
	C437.661,414.549,432.197,420.597,426.397,426.397z M452.83,395.116c-26.526-5.902-54.725-10.562-83.997-13.913
	c3.861-13.841,7.092-28.464,9.639-43.744c0.683-4.092-2.081-7.962-6.173-8.644c-4.101-0.69-7.962,2.082-8.644,6.173
	c-2.587,15.515-5.972,30.471-10.044,44.6c-29.298-2.867-59.524-4.442-90.1-4.664V263.511h106.451
	c-0.187,12.572-0.833,25.109-1.944,37.365c-0.374,4.131,2.672,7.784,6.803,8.159c0.231,0.021,0.46,0.03,0.687,0.03
	c3.842,0,7.118-2.932,7.472-6.834c1.151-12.703,1.819-25.696,2.007-38.721H496.85C495.396,311.313,480.087,356.724,452.83,395.116z"
	/>
<g>
</g>
<g>
</g>
<g>
</g>
<g>
</g>
<g>
</g>
<g>
</g>
<g>
</g>
<g>
</g>
<g>
</g>
<g>
</g>
<g>
</g>
<g>
</g>
<g>
</g>
<g>
</g>
<g>
</g>
</svg>
