<?xml version="1.0" encoding="iso-8859-1"?>
<!-- Generator: Adobe Illustrator 19.0.0, SVG Export Plug-In . SVG Version: 6.00 Build 0)  -->
<svg version="1.1" id="Layer_1" xmlns="http://www.w3.org/2000/svg" xmlns:xlink="http://www.w3.org/1999/xlink" x="0px" y="0px"
	 viewBox="0 0 512 512" style="enable-background:new 0 0 512 512;" xml:space="preserve">
<path style="fill:#ED1F34;" d="M468.324,90.839H43.676c-19.562,0-35.418,15.857-35.418,35.417v74.69h495.484v-74.69
	C503.742,106.695,487.885,90.839,468.324,90.839z"/>
<path style="fill:#259245;" d="M8.258,385.743c0,19.561,15.857,35.418,35.418,35.418h424.648c19.561,0,35.418-15.857,35.418-35.418
	v-74.689H8.258V385.743z"/>
<rect x="8.258" y="200.946" style="fill:#103B9B;" width="495.484" height="110.108"/>
<rect x="8.258" y="200.946" style="fill:#FFFFFF;" width="495.484" height="26.426"/>
<path style="fill:#111A21;" d="M468.324,82.581H43.676C19.594,82.581,0,102.174,0,126.257v158.371v26.426v74.689
	c0,24.083,19.594,43.676,43.676,43.676h424.647c24.083,0,43.676-19.594,43.676-43.676v-74.689v-26.426V126.257
	C512,102.174,492.406,82.581,468.324,82.581z M16.516,292.886h478.968v9.91H16.516V292.886z M43.676,99.097h424.647
	c14.977,0,27.16,12.183,27.16,27.16v66.431H74.323c-4.562,0-8.258,3.696-8.258,8.258c0,4.562,3.696,8.258,8.258,8.258h421.161
	v67.166H16.516v-67.166H41.29c4.562,0,8.258-3.696,8.258-8.258c0-4.562-3.696-8.258-8.258-8.258H16.516v-66.431
	C16.516,111.28,28.7,99.097,43.676,99.097z M468.324,412.903H43.676c-14.977,0-27.16-12.183-27.16-27.16v-66.431h478.968v66.431
	C495.484,400.72,483.3,412.903,468.324,412.903z"/>
<g>
</g>
<g>
</g>
<g>
</g>
<g>
</g>
<g>
</g>
<g>
</g>
<g>
</g>
<g>
</g>
<g>
</g>
<g>
</g>
<g>
</g>
<g>
</g>
<g>
</g>
<g>
</g>
<g>
</g>
</svg>
