<?xml version="1.0" encoding="iso-8859-1"?>
<!-- Generator: Adobe Illustrator 19.0.0, SVG Export Plug-In . SVG Version: 6.00 Build 0)  -->
<svg version="1.1" id="Layer_1" xmlns="http://www.w3.org/2000/svg" xmlns:xlink="http://www.w3.org/1999/xlink" x="0px" y="0px"
	 viewBox="0 0 512 512" style="enable-background:new 0 0 512 512;" xml:space="preserve">
<polygon style="fill:#FFFFFF;" points="173.419,256 118.366,311.054 503.742,311.054 503.742,200.946 118.366,200.946 "/>
<path style="fill:#ED1F34;" d="M18.631,410.787c6.409,6.409,15.264,10.374,25.044,10.374h424.648
	c19.561,0,35.418-15.857,35.418-35.418v-74.689H118.366L18.631,410.787z"/>
<path style="fill:#259245;" d="M468.324,90.839H43.676c-9.781,0-18.635,3.965-25.044,10.373l99.733,99.734h385.376v-74.69
	C503.742,106.695,487.884,90.839,468.324,90.839z"/>
<path style="fill:#164FCE;" d="M173.419,256l-55.054-55.054l-99.734-99.734c-6.409,6.409-10.373,15.264-10.373,25.044v74.69v110.108
	v74.689c0,9.78,3.964,18.635,10.373,25.044l99.734-99.733L173.419,256z"/>
<g>
	<path style="fill:#111A21;" d="M323.166,289.032c-0.577,0-1.154-0.061-1.721-0.182c-10.403-2.216-28.008-10.686-28.008-28.37
		v-29.254c0-4.562,3.697-8.258,8.258-8.258h42.942c4.561,0,8.258,3.696,8.258,8.258v29.254c0,17.684-17.605,26.154-28.008,28.37
		C324.32,288.972,323.743,289.032,323.166,289.032z M309.953,239.484v20.996c0,6.846,9.26,10.487,13.213,11.728
		c3.953-1.241,13.213-4.882,13.213-11.728v-20.996H309.953z"/>
	<path style="fill:#111A21;" d="M468.324,82.581H43.675c-11.767,0-22.454,4.686-30.316,12.279c-0.195,0.162-0.385,0.33-0.567,0.513
		c-0.183,0.183-0.352,0.374-0.514,0.569C4.685,103.804,0,114.49,0,126.257v259.486c0,11.766,4.685,22.453,12.278,30.315
		c0.162,0.195,0.331,0.387,0.514,0.569c0.183,0.182,0.373,0.35,0.567,0.513c7.862,7.593,18.549,12.279,30.316,12.279h424.648
		c24.084,0,43.676-19.594,43.676-43.676V126.257C512,102.174,492.407,82.581,468.324,82.581z M19.548,398.192
		c-1.933-3.733-3.032-7.963-3.032-12.449V126.257c0-4.485,1.099-8.716,3.032-12.448L161.741,256L19.548,398.192z M179.258,261.84
		c1.549-1.549,2.419-3.649,2.419-5.84c0-2.191-0.87-4.29-2.419-5.84l-40.956-40.956h357.181v93.591H138.303L179.258,261.84z
		 M468.324,99.097c14.977,0,27.16,12.183,27.16,27.16v66.431H121.787l-90.559-90.559c3.732-1.933,7.963-3.032,12.448-3.032H468.324z
		 M468.324,412.903H43.675c-4.485,0-8.716-1.1-12.448-3.033l90.559-90.558h373.697v66.431
		C495.484,400.72,483.3,412.903,468.324,412.903z"/>
</g>
<g>
</g>
<g>
</g>
<g>
</g>
<g>
</g>
<g>
</g>
<g>
</g>
<g>
</g>
<g>
</g>
<g>
</g>
<g>
</g>
<g>
</g>
<g>
</g>
<g>
</g>
<g>
</g>
<g>
</g>
</svg>
