<?xml version="1.0" encoding="iso-8859-1"?>
<!-- Generator: Adobe Illustrator 19.0.0, SVG Export Plug-In . SVG Version: 6.00 Build 0)  -->
<svg version="1.1" id="Layer_1" xmlns="http://www.w3.org/2000/svg" xmlns:xlink="http://www.w3.org/1999/xlink" x="0px" y="0px"
	 viewBox="0 0 512 512" style="enable-background:new 0 0 512 512;" xml:space="preserve">
<rect x="8.258" y="90.839" style="fill:#FFFFFF;" width="495.484" height="330.323"/>
<g>
	<path style="fill:#3DB4EA;" d="M503.742,384.462v3.667c0,18.244-14.79,33.032-33.032,33.032H41.29
		c-18.244,0-33.032-14.789-33.032-33.032v-3.667H503.742z"/>
	<rect x="8.258" y="311.054" style="fill:#3DB4EA;" width="495.484" height="36.699"/>
	<path style="fill:#3DB4EA;" d="M503.742,127.538L503.742,127.538c0-20.269-16.43-36.699-36.699-36.699H45.144
		c-20.371,0-36.886,16.514-36.886,36.886v146.63h495.484v-36.71H191.774v-36.699h311.968v-36.699H191.774v-36.71H503.742z"/>
</g>
<polygon style="fill:#FFFFFF;" points="191.774,164.247 118.366,164.247 118.366,90.839 81.667,90.839 81.667,164.247 
	8.258,164.247 8.258,200.946 81.667,200.946 81.667,274.355 118.366,274.355 118.366,200.946 191.774,200.946 "/>
<path style="fill:#121B21;" d="M468.324,82.581H43.676C19.593,82.581,0,102.173,0,126.256v259.487
	c0,24.084,19.593,43.676,43.676,43.676h424.648c24.083,0,43.675-19.593,43.675-43.676V126.256
	C512,102.173,492.407,82.581,468.324,82.581z M16.516,376.204v-20.194h289.032c4.561,0,8.258-3.697,8.258-8.258
	c0-4.561-3.697-8.258-8.258-8.258H16.516v-20.183h355.097c4.561,0,8.258-3.697,8.258-8.258c0-4.561-3.697-8.258-8.258-8.258H16.516
	v-20.183h478.968v20.183h-90.839c-4.561,0-8.258,3.697-8.258,8.258c0,4.561,3.697,8.258,8.258,8.258h90.839v20.183H338.581
	c-4.561,0-8.258,3.697-8.258,8.258s3.697,8.258,8.258,8.258h156.903v20.194L16.516,376.204L16.516,376.204z M89.925,164.247V99.097
	h20.183v65.151c0,4.561,3.697,8.258,8.258,8.258h65.151v20.183h-65.151c-4.561,0-8.258,3.697-8.258,8.258v65.151H89.925v-65.151
	c0-4.561-3.697-8.258-8.258-8.258H16.516v-20.183h65.151C86.227,172.505,89.925,168.808,89.925,164.247z M495.484,135.796v20.194
	H200.032v-20.194H495.484z M183.516,237.645c0,4.561,3.697,8.258,8.258,8.258h303.71v20.194h-368.86v-56.893h56.893V237.645z
	 M200.032,229.387v-20.183h295.452v20.183H200.032z M200.032,192.688v-20.183h295.452v20.183H200.032z M16.516,266.097v-56.893
	h56.893v56.893H16.516z M494.571,119.279H191.774c-4.561,0-8.258,3.697-8.258,8.258v28.452h-56.893V99.097h341.7
	C480.888,99.097,491.484,107.674,494.571,119.279z M43.676,99.097h29.732v56.893H16.516v-29.732
	C16.516,111.28,28.7,99.097,43.676,99.097z M468.324,412.903H43.676c-12.564,0-23.159-8.577-26.247-20.183h477.142
	C491.484,404.326,480.888,412.903,468.324,412.903z"/>
<g>
</g>
<g>
</g>
<g>
</g>
<g>
</g>
<g>
</g>
<g>
</g>
<g>
</g>
<g>
</g>
<g>
</g>
<g>
</g>
<g>
</g>
<g>
</g>
<g>
</g>
<g>
</g>
<g>
</g>
</svg>
