<?xml version="1.0" encoding="iso-8859-1"?>
<!-- Generator: Adobe Illustrator 19.0.0, SVG Export Plug-In . SVG Version: 6.00 Build 0)  -->
<svg version="1.1" id="Layer_1" xmlns="http://www.w3.org/2000/svg" xmlns:xlink="http://www.w3.org/1999/xlink" x="0px" y="0px"
	 viewBox="0 0 512 512" style="enable-background:new 0 0 512 512;" xml:space="preserve">
<rect x="181.127" y="90.839" style="fill:#FFFFFF;" width="149.746" height="330.323"/>
<g>
	<path style="fill:#3DB4EA;" d="M330.873,90.839v330.323h138.945c18.736,0,33.924-15.188,33.924-33.924V124.763
		c0-18.736-15.188-33.924-33.924-33.924H330.873z"/>
	<path style="fill:#3DB4EA;" d="M8.258,124.763v262.474c0,18.736,15.188,33.924,33.924,33.924h138.945V90.839H42.182
		C23.446,90.839,8.258,106.027,8.258,124.763z"/>
</g>
<g>
	<path style="fill:#D9D9D9;" d="M226.414,291.158c-2.113,0-4.227-0.806-5.84-2.418c-3.225-3.226-3.225-8.454,0-11.679l59.172-59.172
		c3.226-3.224,8.454-3.224,11.679,0c3.225,3.226,3.225,8.454,0,11.679l-59.172,59.172
		C230.641,290.351,228.527,291.158,226.414,291.158z"/>
	<path style="fill:#D9D9D9;" d="M285.586,291.158c-2.113,0-4.227-0.806-5.84-2.418l-59.172-59.172
		c-3.225-3.226-3.225-8.454,0-11.679c3.226-3.224,8.454-3.224,11.679,0l59.172,59.172c3.225,3.226,3.225,8.454,0,11.679
		C289.813,290.351,287.699,291.158,285.586,291.158z"/>
</g>
<path style="fill:#259245;" d="M256,303.412c-13.381,0-25.963-5.21-35.426-14.673c-19.533-19.534-19.533-51.318,0-70.852
	c3.226-3.224,8.454-3.224,11.679,0c3.225,3.226,3.225,8.454,0,11.679c-13.095,13.094-13.095,34.399,0,47.493
	c13.093,13.095,34.4,13.095,47.493,0c13.095-13.094,13.095-34.399,0-47.493c-3.225-3.226-3.225-8.454,0-11.679
	c3.226-3.224,8.454-3.224,11.679,0c19.533,19.534,19.533,51.317,0,70.852C281.963,298.202,269.381,303.412,256,303.412z"/>
<path style="fill:#121B21;" d="M468.324,82.581H43.676C19.594,82.581,0,102.174,0,126.257v259.486
	c0,24.083,19.594,43.676,43.676,43.676h424.647c24.083,0,43.676-19.594,43.676-43.676V126.257
	C512,102.174,492.406,82.581,468.324,82.581z M16.516,385.743V126.257c0-14.977,12.183-27.16,27.16-27.16h129.192v313.806H43.676
	C28.7,412.903,16.516,400.72,16.516,385.743z M495.484,385.743c0,14.977-12.183,27.16-27.16,27.16H339.131V189.935
	c0-4.562-3.696-8.258-8.258-8.258c-4.562,0-8.258,3.696-8.258,8.258v222.968h-133.23V99.097h133.23v57.806
	c0,4.562,3.696,8.258,8.258,8.258c4.562,0,8.258-3.696,8.258-8.258V99.097h129.192c14.977,0,27.16,12.183,27.16,27.16V385.743z"/>
<g>
</g>
<g>
</g>
<g>
</g>
<g>
</g>
<g>
</g>
<g>
</g>
<g>
</g>
<g>
</g>
<g>
</g>
<g>
</g>
<g>
</g>
<g>
</g>
<g>
</g>
<g>
</g>
<g>
</g>
</svg>
