<?xml version="1.0" encoding="iso-8859-1"?>
<!-- Generator: Adobe Illustrator 19.0.0, SVG Export Plug-In . SVG Version: 6.00 Build 0)  -->
<svg version="1.1" id="Layer_1" xmlns="http://www.w3.org/2000/svg" xmlns:xlink="http://www.w3.org/1999/xlink" x="0px" y="0px"
	 viewBox="0 0 512 512" style="enable-background:new 0 0 512 512;" xml:space="preserve">
<path style="fill:#ED1F34;" d="M8.32,385.761V126.369c0-19.584,15.872-35.52,35.52-35.52h424.512c19.584,0,35.52,15.872,35.52,35.52
	v259.392c0,19.584-15.872,35.52-35.52,35.52H43.712C24.128,421.217,8.32,405.345,8.32,385.761z"/>
<rect x="41.28" y="123.94" style="fill:#103B9B;" width="429.372" height="264.317"/>
<path style="fill:#3DB4EA;" d="M256,165.729c-33.024,16.704-55.68,50.88-55.68,90.304c0,39.425,22.72,73.601,55.68,90.304
	c33.024-16.704,55.68-50.88,55.68-90.304S289.024,182.432,256,165.729z"/>
<path style="fill:#164FCE;" d="M200.32,256.032c0,39.425,22.72,73.601,55.68,90.304c33.024-16.704,55.68-50.88,55.68-90.304H200.32
	L200.32,256.032z"/>
<path style="fill:#FFE000;" d="M209.281,297.633c9.6,21.12,26.112,38.272,46.72,48.704c20.608-10.432,37.184-27.712,46.72-48.704
	H209.281z"/>
<path style="fill:#ED1F34;" d="M256,353.824c-1.216,0-2.304-0.32-3.392-0.832c-36.928-18.688-59.776-55.808-59.776-97.024
	c0-41.088,22.912-78.272,59.776-97.024c2.112-1.088,4.608-1.088,6.784,0c36.928,18.688,59.776,55.808,59.776,97.024
	s-22.912,78.272-59.776,97.024C258.305,353.504,257.216,353.824,256,353.824z M256,174.241
	c-29.824,16.576-48.192,47.616-48.192,81.792s18.432,65.216,48.192,81.792c29.824-16.576,48.192-47.616,48.192-81.792
	S285.824,190.817,256,174.241z"/>
<path style="fill:#1A1C20;" d="M468.288,429.408H43.712C19.584,429.408,0,409.825,0,385.696V126.304
	c0-24.128,19.584-43.712,43.712-43.712h424.576c24.128,0,43.712,19.584,43.712,43.712v259.52
	C512,409.825,492.416,429.408,468.288,429.408z M43.712,99.105c-14.976,0-27.2,12.224-27.2,27.2v259.519
	c0,14.976,12.224,27.2,27.2,27.2h424.576c14.976,0,27.2-12.224,27.2-27.2v-259.52c0-14.976-12.224-27.2-27.2-27.2L43.712,99.105
	L43.712,99.105z"/>
<g>
</g>
<g>
</g>
<g>
</g>
<g>
</g>
<g>
</g>
<g>
</g>
<g>
</g>
<g>
</g>
<g>
</g>
<g>
</g>
<g>
</g>
<g>
</g>
<g>
</g>
<g>
</g>
<g>
</g>
</svg>
