<?xml version="1.0" encoding="iso-8859-1"?>
<!-- Generator: Adobe Illustrator 19.0.0, SVG Export Plug-In . SVG Version: 6.00 Build 0)  -->
<svg version="1.1" id="Layer_1" xmlns="http://www.w3.org/2000/svg" xmlns:xlink="http://www.w3.org/1999/xlink" x="0px" y="0px"
	 viewBox="0 0 512 512" style="enable-background:new 0 0 512 512;" xml:space="preserve">
<path style="fill:#259245;" d="M173.419,421.161L173.419,421.161h294.904c19.561,0,35.418-15.857,35.418-35.418V256.001H173.419
	V421.161z"/>
<path style="fill:#FFE000;" d="M173.419,256.001h330.323V126.256c0-19.556-15.85-35.411-35.405-35.417H173.419V256.001z"/>
<path style="fill:#ED1F34;" d="M173.419,90.84L173.419,90.84L43.676,90.839c-19.562,0-35.418,15.857-35.418,35.417v259.487
	c0,19.556,15.85,35.411,35.405,35.417h129.756V256.001V90.84z"/>
<polygon style="fill:#333333;" points="53.79,247.681 81.068,246.272 90.838,220.766 100.607,246.272 127.885,247.681 
	106.646,264.856 113.734,291.234 90.838,276.34 67.941,291.234 75.031,264.856 "/>
<g>
	<path style="fill:#111A21;" d="M135.739,245.13c-1.057-3.254-4.011-5.52-7.428-5.696l-21.914-1.131l-7.847-20.491
		c-1.223-3.194-4.29-5.304-7.712-5.304c-3.421,0-6.489,2.11-7.712,5.304l-7.848,20.491l-21.914,1.131
		c-3.417,0.176-6.371,2.442-7.428,5.696c-1.057,3.254,0.001,6.821,2.661,8.973l17.063,13.796l-5.695,21.191
		c-0.887,3.304,0.353,6.813,3.122,8.824c1.445,1.049,3.148,1.578,4.855,1.578c1.564,0,3.13-0.443,4.502-1.336l18.395-11.964
		l18.395,11.964c2.868,1.866,6.59,1.768,9.356-0.242c2.768-2.011,4.009-5.521,3.122-8.824l-5.695-21.191l17.063-13.796
		C135.738,251.951,136.796,248.384,135.739,245.13z M101.453,258.434c-2.539,2.054-3.63,5.411-2.782,8.564l1.493,5.557l-4.823-3.138
		c-2.737-1.78-6.267-1.78-9.006,0l-4.824,3.138l1.493-5.557c0.848-3.154-0.243-6.511-2.782-8.564l-4.474-3.617l5.745-0.297
		c3.261-0.168,6.118-2.244,7.286-5.294l2.058-5.373l2.058,5.373c1.168,3.05,4.024,5.124,7.286,5.294l5.745,0.297L101.453,258.434z"
		/>
	<path style="fill:#111A21;" d="M468.324,82.581H43.675C19.593,82.581,0,102.174,0,126.257v259.486
		c0,24.083,19.593,43.676,43.675,43.676h424.648c24.084,0,43.676-19.594,43.676-43.676V126.257
		C512,102.174,492.407,82.581,468.324,82.581z M16.516,385.743V126.257c0-14.977,12.183-27.16,27.159-27.16h121.486v313.806H43.675
		C28.7,412.903,16.516,400.72,16.516,385.743z M468.324,412.903H181.677V264.258h255.999c4.561,0,8.258-3.696,8.258-8.258
		c0-4.562-3.697-8.258-8.258-8.258H181.677V99.097h286.646c14.977,0,27.16,12.183,27.16,27.16v121.485h-24.775
		c-4.561,0-8.258,3.696-8.258,8.258c0,4.562,3.697,8.258,8.258,8.258h24.775v121.485C495.484,400.72,483.3,412.903,468.324,412.903z
		"/>
</g>
<g>
</g>
<g>
</g>
<g>
</g>
<g>
</g>
<g>
</g>
<g>
</g>
<g>
</g>
<g>
</g>
<g>
</g>
<g>
</g>
<g>
</g>
<g>
</g>
<g>
</g>
<g>
</g>
<g>
</g>
</svg>
