<?xml version="1.0" encoding="iso-8859-1"?>
<!-- Generator: Adobe Illustrator 19.0.0, SVG Export Plug-In . SVG Version: 6.00 Build 0)  -->
<svg version="1.1" id="Layer_1" xmlns="http://www.w3.org/2000/svg" xmlns:xlink="http://www.w3.org/1999/xlink" x="0px" y="0px"
	 viewBox="0 0 512.002 512.002" style="enable-background:new 0 0 512.002 512.002;" xml:space="preserve">
<path style="fill:#259245;" d="M468.326,90.84H43.679c-7.049,0-13.61,2.068-19.129,5.618l462.678,159.543L24.552,415.545
	c5.517,3.55,12.08,5.618,19.129,5.618h424.647c19.561,0,35.418-15.857,35.418-35.418V126.258
	C503.744,106.698,487.887,90.84,468.326,90.84z"/>
<path style="fill:#FFE000;" d="M24.551,96.458c-1.304,0.839-2.55,1.758-3.729,2.756l235.182,156.787L20.821,412.789
	c1.179,0.998,2.426,1.917,3.729,2.756l462.678-159.544L24.551,96.458z"/>
<path style="fill:#FFFFFF;" d="M8.262,429.421c-3.425,0-6.627-2.147-7.807-5.568c-1.488-4.312,0.803-9.012,5.113-10.499
	l456.327-157.354L5.569,98.647C1.259,97.16-1.032,92.46,0.456,88.148c1.486-4.31,6.18-6.6,10.499-5.114L489.92,248.194
	c3.33,1.148,5.566,4.283,5.566,7.807c0,3.523-2.235,6.658-5.566,7.807L10.955,428.968C10.063,429.276,9.154,429.421,8.262,429.421z"
	/>
<path style="fill:#ED1F34;" d="M20.821,99.214c-7.679,6.496-12.56,16.198-12.56,27.044v259.486c0,10.847,4.881,20.548,12.56,27.045
	l235.182-156.788L20.821,99.214z"/>
<path style="fill:#121B21;" d="M468.326,82.582H43.681c-10.646,0-20.412,3.834-27.998,10.187c-0.063,0.051-0.133,0.087-0.196,0.14
	c-0.369,0.313-0.72,0.64-1.077,0.963c-0.04,0.035-0.079,0.069-0.118,0.106c-0.483,0.44-0.955,0.892-1.416,1.351
	c-0.04,0.04-0.079,0.078-0.119,0.118c-0.47,0.471-0.929,0.951-1.375,1.442c-0.014,0.015-0.029,0.032-0.043,0.047
	c-2.738,3.016-5.021,6.375-6.804,9.979c-0.094,0.189-0.192,0.378-0.283,0.569c-0.194,0.407-0.378,0.82-0.559,1.234
	c-0.128,0.29-0.254,0.578-0.377,0.871c-0.149,0.36-0.29,0.722-0.429,1.086c-0.137,0.358-0.27,0.717-0.399,1.078
	c-0.115,0.325-0.225,0.651-0.331,0.979c-0.134,0.411-0.261,0.825-0.383,1.241c-0.087,0.297-0.174,0.595-0.254,0.893
	c-0.123,0.454-0.235,0.911-0.344,1.37c-0.065,0.275-0.132,0.551-0.192,0.827c-0.105,0.488-0.196,0.979-0.285,1.472
	c-0.046,0.259-0.098,0.518-0.139,0.777c-0.083,0.515-0.15,1.036-0.215,1.558c-0.03,0.244-0.067,0.488-0.094,0.733
	c-0.059,0.556-0.1,1.118-0.139,1.679c-0.014,0.214-0.037,0.425-0.048,0.639c-0.041,0.769-0.064,1.541-0.064,2.321
	c0,0.004-0.001,0.009-0.001,0.013v0.001v259.485v0.001c0,0.004,0.001,0.009,0.001,0.013c0,0.78,0.023,1.552,0.064,2.321
	c0.011,0.214,0.034,0.425,0.048,0.639c0.037,0.563,0.079,1.123,0.139,1.679c0.026,0.246,0.063,0.489,0.094,0.733
	c0.065,0.522,0.131,1.042,0.215,1.558c0.042,0.26,0.092,0.518,0.139,0.777c0.089,0.493,0.181,0.985,0.285,1.472
	c0.059,0.276,0.127,0.551,0.192,0.826c0.108,0.459,0.22,0.916,0.344,1.371c0.08,0.299,0.167,0.597,0.254,0.893
	c0.122,0.416,0.249,0.83,0.383,1.241c0.107,0.327,0.217,0.653,0.331,0.979c0.128,0.362,0.261,0.721,0.399,1.079
	c0.139,0.363,0.281,0.727,0.429,1.086c0.121,0.293,0.249,0.582,0.377,0.872c0.182,0.413,0.364,0.826,0.559,1.234
	c0.091,0.192,0.188,0.379,0.283,0.569c1.783,3.604,4.065,6.963,6.804,9.98c0.014,0.017,0.029,0.032,0.043,0.047
	c0.447,0.491,0.905,0.971,1.375,1.442c0.04,0.04,0.079,0.079,0.119,0.118c0.461,0.459,0.933,0.911,1.416,1.351
	c0.039,0.035,0.079,0.07,0.118,0.106c0.357,0.324,0.708,0.651,1.077,0.963c0.057,0.048,0.123,0.08,0.182,0.128
	c7.589,6.36,17.359,10.198,28.012,10.198h424.645c24.083,0,43.676-19.594,43.676-43.676V126.258
	C512.002,102.176,492.409,82.582,468.326,82.582z M21.998,402.079c-0.037-0.048-0.074-0.096-0.11-0.145
	c-0.333-0.447-0.647-0.906-0.95-1.371c-0.11-0.17-0.221-0.339-0.328-0.511c-0.308-0.496-0.602-0.998-0.876-1.511
	c-0.073-0.135-0.14-0.274-0.21-0.411c-0.258-0.503-0.504-1.012-0.73-1.529c-0.033-0.076-0.069-0.15-0.102-0.226
	c-0.251-0.59-0.478-1.19-0.686-1.797c-0.04-0.115-0.079-0.229-0.117-0.345c-0.204-0.62-0.39-1.244-0.549-1.878
	c-0.014-0.059-0.026-0.12-0.042-0.179c-0.15-0.614-0.277-1.235-0.384-1.862c-0.013-0.078-0.03-0.156-0.042-0.235
	c-0.104-0.642-0.182-1.29-0.239-1.942c-0.011-0.131-0.021-0.262-0.03-0.393c-0.048-0.662-0.081-1.327-0.081-1.996v-0.001V126.258
	v-0.002c0-0.669,0.033-1.334,0.081-1.996c0.01-0.131,0.019-0.262,0.03-0.393c0.057-0.652,0.135-1.3,0.239-1.942
	c0.012-0.078,0.029-0.156,0.042-0.235c0.107-0.627,0.235-1.248,0.384-1.862c0.014-0.059,0.026-0.12,0.042-0.179
	c0.159-0.634,0.345-1.26,0.549-1.878c0.039-0.116,0.077-0.23,0.117-0.345c0.209-0.607,0.435-1.208,0.686-1.798
	c0.033-0.075,0.069-0.149,0.101-0.225c0.227-0.519,0.472-1.028,0.73-1.53c0.07-0.137,0.138-0.275,0.21-0.411
	c0.274-0.513,0.569-1.015,0.876-1.511c0.107-0.172,0.217-0.342,0.328-0.511c0.304-0.465,0.618-0.924,0.95-1.371
	c0.036-0.048,0.074-0.097,0.11-0.145l219.119,146.077L21.998,402.079z M495.486,385.743c0,14.977-12.183,27.16-27.16,27.16H43.681
	c-2.361,0-4.651-0.304-6.835-0.873l223.74-149.159c2.298-1.532,3.678-4.109,3.678-6.871c0-2.761-1.38-5.34-3.678-6.871
	L36.844,99.971c2.186-0.569,4.476-0.873,6.837-0.873h424.645c14.977,0,27.16,12.183,27.16,27.16L495.486,385.743L495.486,385.743z"
	/>
<g>
</g>
<g>
</g>
<g>
</g>
<g>
</g>
<g>
</g>
<g>
</g>
<g>
</g>
<g>
</g>
<g>
</g>
<g>
</g>
<g>
</g>
<g>
</g>
<g>
</g>
<g>
</g>
<g>
</g>
</svg>
