<?xml version="1.0" encoding="iso-8859-1"?>
<!-- Generator: Adobe Illustrator 19.0.0, SVG Export Plug-In . SVG Version: 6.00 Build 0)  -->
<svg version="1.1" id="Layer_1" xmlns="http://www.w3.org/2000/svg" xmlns:xlink="http://www.w3.org/1999/xlink" x="0px" y="0px"
	 viewBox="0 0 512 512" style="enable-background:new 0 0 512 512;" xml:space="preserve">
<path style="fill:#ED1F34;" d="M8.258,385.376V126.624c0-19.763,16.022-35.785,35.785-35.785h423.914
	c19.763,0,35.785,16.022,35.785,35.785v258.753c0,19.763-16.022,35.785-35.785,35.785H44.043
	C24.28,421.161,8.258,405.14,8.258,385.376z"/>
<g>
	<path style="fill:#FFFFFF;" d="M278.956,189.503c0-9.312-5.691-17.289-13.783-20.658v-20.081c-22.5,0-40.74,18.24-40.74,40.74
		s18.239,40.74,40.74,40.74v-20.081C273.265,206.792,278.956,198.815,278.956,189.503z"/>
	<path style="fill:#FFFFFF;" d="M190.906,216.264c-8.856-2.877-18.202,0.07-23.907,6.724l-19.098-6.206
		c-6.953,21.398,4.758,44.382,26.156,51.335c21.398,6.953,44.382-4.758,51.335-26.156l-19.098-6.206
		C205.591,227.02,199.761,219.142,190.906,216.264z"/>
	<path style="fill:#FFFFFF;" d="M189.148,308.276c-5.473,7.534-5.558,17.333-0.992,24.814l-11.804,16.246
		c18.203,13.225,43.681,9.19,56.906-9.013c13.225-18.203,9.19-43.681-9.013-56.906l-11.804,16.246
		C203.916,297.633,194.622,300.742,189.148,308.276z"/>
	<path style="fill:#FFFFFF;" d="M276.113,338.38c5.473,7.534,14.767,10.642,23.293,8.612l11.804,16.246
		c18.203-13.225,22.238-38.703,9.013-56.906c-13.225-18.203-38.703-22.238-56.906-9.013l11.804,16.246
		C270.555,321.047,270.64,330.847,276.113,338.38z"/>
	<path style="fill:#FFFFFF;" d="M331.617,264.974c8.856-2.877,14.685-10.755,15.388-19.492l19.098-6.206
		c-6.953-21.398-29.936-33.109-51.335-26.156c-21.398,6.953-33.109,29.936-26.157,51.335l19.098-6.206
		C313.416,264.904,322.762,267.851,331.617,264.974z"/>
</g>
<g>
	<path style="fill:#1A1C20;" d="M265.173,238.5c4.562,0,8.258-3.696,8.258-8.258v-15.153c8.519-5.593,13.783-15.125,13.783-25.587
		c0-10.461-5.263-19.993-13.783-25.587v-15.153c0-4.562-3.696-8.258-8.258-8.258c-27.017,0-48.998,21.981-48.998,48.998
		C216.175,216.52,238.156,238.5,265.173,238.5z M256.915,158.084v10.76c0,3.334,2.005,6.342,5.084,7.624
		c5.285,2.2,8.698,7.317,8.698,13.035c0,5.718-3.416,10.836-8.698,13.036c-3.079,1.282-5.084,4.29-5.084,7.624v10.759
		c-13.924-3.662-24.224-16.36-24.224-31.418C232.691,174.444,242.991,161.746,256.915,158.084z"/>
	<path style="fill:#1A1C20;" d="M186.654,278.382C186.655,278.382,186.654,278.382,186.654,278.382
		c21.286,0,40.01-13.61,46.592-33.868c1.409-4.337-0.965-8.996-5.302-10.405l-14.412-4.683
		c-2.687-9.831-10.127-17.782-20.076-21.015c-3.072-0.999-6.257-1.504-9.465-1.504c-7.013,0-13.736,2.396-19.125,6.708
		l-14.415-4.684c-4.337-1.409-8.996,0.963-10.405,5.302c-4.044,12.447-2.999,25.723,2.942,37.385
		c5.941,11.661,16.069,20.31,28.516,24.355C176.425,277.571,181.521,278.38,186.654,278.382z M157.705,244.119
		c-2.656-5.214-3.836-10.914-3.5-16.604l10.243,3.327c3.172,1.034,6.652,0.053,8.822-2.48c2.692-3.14,6.601-4.941,10.723-4.941
		c1.472,0,2.94,0.233,4.361,0.696c5.438,1.767,9.249,6.595,9.708,12.3c0.268,3.324,2.508,6.162,5.679,7.191l10.241,3.327
		c-5.867,9.168-16.055,14.928-27.328,14.928c-3.397-0.001-6.777-0.538-10.046-1.601
		C168.358,257.584,161.644,251.849,157.705,244.119z"/>
	<path style="fill:#1A1C20;" d="M229.099,276.738c-3.691-2.682-8.855-1.862-11.535,1.827l-8.912,12.266
		c-10.25-0.476-20.17,4.312-26.186,12.592c-6.148,8.464-7.493,19.269-3.889,28.802l-8.907,12.259
		c-1.287,1.772-1.818,3.983-1.475,6.145c0.342,2.164,1.53,4.103,3.303,5.39c8.429,6.124,18.375,9.36,28.766,9.36
		c15.652,0,30.484-7.55,39.674-20.2c7.692-10.588,10.802-23.539,8.755-36.465C246.646,295.786,239.688,284.43,229.099,276.738z
		 M226.577,335.47c-6.093,8.385-15.929,13.391-26.312,13.391c-4.07,0-8.038-0.751-11.758-2.204l6.33-8.713
		c1.96-2.698,2.105-6.309,0.368-9.155c-2.982-4.887-2.737-11.033,0.624-15.66c2.684-3.696,6.852-5.815,11.432-5.815
		c1.102,0,2.201,0.129,3.267,0.383c3.246,0.772,6.633-0.482,8.594-3.18l6.33-8.712c3.616,4.407,6.013,9.711,6.928,15.49
		C233.738,319.866,231.677,328.451,226.577,335.47z"/>
	<path style="fill:#1A1C20;" d="M287.23,281.277c-10.391,0-20.338,3.237-28.767,9.361c-1.772,1.287-2.961,3.226-3.303,5.389
		c-0.342,2.164,0.188,4.375,1.475,6.145l8.907,12.259c-3.604,9.532-2.26,20.338,3.889,28.802
		c5.743,7.904,15.012,12.622,24.795,12.623c0.001,0,0.001,0,0.002,0c0.462,0,0.926-0.011,1.388-0.032l8.913,12.267
		c1.287,1.772,3.226,2.96,5.39,3.302c0.431,0.069,0.861,0.102,1.292,0.102c1.733,0,3.434-0.546,4.854-1.578
		c21.859-15.882,26.72-46.584,10.839-68.44C317.714,288.829,302.883,281.277,287.23,281.277z M312.411,350.842l-6.325-8.704
		c-1.576-2.169-4.075-3.405-6.68-3.405c-0.634,0-1.277,0.073-1.913,0.225c-1.066,0.253-2.165,0.383-3.265,0.383h-0.001
		c-4.514-0.001-8.789-2.175-11.435-5.815c-3.36-4.626-3.605-10.772-0.623-15.658c1.737-2.846,1.592-6.458-0.368-9.157l-6.33-8.713
		c3.719-1.453,7.688-2.205,11.758-2.205c10.383,0,20.219,5.007,26.311,13.392C322.394,323.368,321.525,339.695,312.411,350.842z"/>
	<path style="fill:#1A1C20;" d="M327.366,202.855c-5.133,0-10.23,0.81-15.15,2.409c-25.695,8.348-39.806,36.045-31.458,61.741
		c0.676,2.083,2.153,3.812,4.105,4.806c1.951,0.994,4.222,1.172,6.301,0.495l14.415-4.684c5.389,4.312,12.112,6.708,19.125,6.708
		c3.207,0,6.393-0.505,9.465-1.504c9.949-3.233,17.388-11.184,20.076-21.015l14.411-4.683c2.083-0.676,3.812-2.153,4.806-4.105
		c0.994-1.951,1.173-4.218,0.496-6.301C367.376,216.467,348.652,202.855,327.366,202.855z M344.454,237.627
		c-3.172,1.031-5.412,3.867-5.679,7.191c-0.459,5.706-4.27,10.534-9.708,12.301c-1.421,0.461-2.889,0.696-4.361,0.696
		c-4.122,0-8.031-1.801-10.723-4.942c-1.597-1.861-3.901-2.883-6.271-2.883c-0.851,0-1.712,0.132-2.55,0.404l-10.233,3.325
		c-0.819-14.376,8.074-28.094,22.395-32.747c3.269-1.063,6.649-1.601,10.046-1.601c11.273,0,21.461,5.761,27.328,14.928
		L344.454,237.627z"/>
	<path style="fill:#1A1C20;" d="M468.324,82.581H43.676C19.593,82.581,0,102.174,0,126.257v259.486
		c0,24.083,19.593,43.676,43.676,43.676h424.648c24.082,0,43.675-19.594,43.675-43.676V126.257
		C512,102.174,492.406,82.581,468.324,82.581z M495.484,385.743c0,14.977-12.183,27.16-27.16,27.16H43.676
		c-14.977,0-27.16-12.183-27.16-27.16V126.257c0-14.977,12.183-27.16,27.16-27.16h424.648c14.976,0,27.159,12.183,27.159,27.16
		V385.743z"/>
</g>
<g>
</g>
<g>
</g>
<g>
</g>
<g>
</g>
<g>
</g>
<g>
</g>
<g>
</g>
<g>
</g>
<g>
</g>
<g>
</g>
<g>
</g>
<g>
</g>
<g>
</g>
<g>
</g>
<g>
</g>
</svg>
