<?xml version="1.0" encoding="iso-8859-1"?>
<!-- Generator: Adobe Illustrator 19.0.0, SVG Export Plug-In . SVG Version: 6.00 Build 0)  -->
<svg version="1.1" id="Layer_1" xmlns="http://www.w3.org/2000/svg" xmlns:xlink="http://www.w3.org/1999/xlink" x="0px" y="0px"
	 viewBox="0 0 512 512" style="enable-background:new 0 0 512 512;" xml:space="preserve">
<rect x="8.258" y="200.946" style="fill:#FFFFFF;" width="495.484" height="110.108"/>
<g>
	<circle style="fill:#3DB4EA;" cx="189.935" cy="236.577" r="11.405"/>
	<circle style="fill:#3DB4EA;" cx="189.935" cy="275.423" r="11.405"/>
	<circle style="fill:#3DB4EA;" cx="322.065" cy="236.577" r="11.405"/>
	<circle style="fill:#3DB4EA;" cx="322.065" cy="275.423" r="11.405"/>
	<circle style="fill:#3DB4EA;" cx="256" cy="256" r="11.405"/>
	<path style="fill:#3DB4EA;" d="M8.258,311.054h495.484v75.307c0,19.22-15.58,34.801-34.801,34.801H43.059
		c-19.22,0-34.801-15.58-34.801-34.801V311.054z"/>
	<path style="fill:#3DB4EA;" d="M43.059,90.839h425.883c19.219,0,34.801,15.58,34.801,34.801v75.307H8.258v-75.307
		C8.258,106.419,23.838,90.839,43.059,90.839z"/>
</g>
<g>
	<path style="fill:#121B21;" d="M82.581,311.054c0-4.562-3.697-8.258-8.258-8.258H16.516v16.516h57.806
		C78.883,319.312,82.581,315.616,82.581,311.054z"/>
	<path style="fill:#121B21;" d="M99.097,311.054c0,4.562,3.697,8.258,8.258,8.258h388.129v-16.516H107.355
		C102.794,302.796,99.097,306.492,99.097,311.054z"/>
	<rect x="16.516" y="192.688" style="fill:#121B21;" width="478.968" height="16.516"/>
	<path style="fill:#121B21;" d="M468.324,82.581H43.676C19.593,82.581,0,102.174,0,126.257v259.486
		c0,24.083,19.593,43.676,43.676,43.676h424.648c24.083,0,43.675-19.594,43.675-43.676V126.257
		C512,102.174,492.407,82.581,468.324,82.581z M468.324,412.903H43.676c-14.977,0-27.16-12.183-27.16-27.16v-66.431v-16.516v-93.591
		v-16.516v-66.431c0-14.977,12.183-27.16,27.16-27.16h424.648c14.976,0,27.159,12.183,27.159,27.16v66.431v16.516v93.591v16.516
		v66.431C495.484,400.72,483.3,412.903,468.324,412.903z"/>
</g>
<g>
</g>
<g>
</g>
<g>
</g>
<g>
</g>
<g>
</g>
<g>
</g>
<g>
</g>
<g>
</g>
<g>
</g>
<g>
</g>
<g>
</g>
<g>
</g>
<g>
</g>
<g>
</g>
<g>
</g>
</svg>
