<?xml version="1.0" encoding="iso-8859-1"?>
<!-- Generator: Adobe Illustrator 19.0.0, SVG Export Plug-In . SVG Version: 6.00 Build 0)  -->
<svg version="1.1" id="Layer_1" xmlns="http://www.w3.org/2000/svg" xmlns:xlink="http://www.w3.org/1999/xlink" x="0px" y="0px"
	 viewBox="0 0 512 512" style="enable-background:new 0 0 512 512;" xml:space="preserve">
<rect x="8.258" y="200.946" style="fill:#FFFFFF;" width="495.484" height="110.108"/>
<path style="fill:#ED1F34;" d="M468.324,90.839H43.676c-19.562,0-35.418,15.857-35.418,35.418v74.689h495.484v-74.689
	C503.742,106.695,487.884,90.839,468.324,90.839z"/>
<path style="fill:#103B9B;" d="M8.258,385.743c0,19.561,15.857,35.418,35.418,35.418h424.648c19.561,0,35.418-15.858,35.418-35.418
	v-74.689H8.258V385.743z"/>
<path style="fill:#121B21;" d="M468.324,82.581H43.675C19.593,82.581,0,102.173,0,126.257v259.487
	c0,24.083,19.593,43.675,43.675,43.675h424.648c24.084,0,43.676-19.593,43.676-43.676V126.257
	C512,102.173,492.407,82.581,468.324,82.581z M43.675,99.097h424.648c14.977,0,27.16,12.183,27.16,27.16v66.431h-57.806
	c-4.561,0-8.258,3.697-8.258,8.258s3.697,8.258,8.258,8.258h57.806v93.591H16.516v-93.591h388.129c4.561,0,8.258-3.697,8.258-8.258
	s-3.697-8.258-8.258-8.258H16.516v-66.431C16.516,111.28,28.7,99.097,43.675,99.097z M468.324,412.903H43.675
	c-14.976,0-27.159-12.183-27.159-27.16v-66.431h478.968v66.431C495.484,400.72,483.3,412.903,468.324,412.903z"/>
<g>
	<path style="fill:#FFFFFF;" d="M311.913,256v20.612c0,30.885-25.038,55.913-55.913,55.913V256H311.913z"/>
	<rect x="200.087" y="179.475" style="fill:#FFFFFF;" width="55.913" height="76.525"/>
</g>
<g>
	<path style="fill:#ED1F34;" d="M256,256v76.525c-30.874,0-55.913-25.027-55.913-55.913V256H256z"/>
	<rect x="256" y="179.475" style="fill:#ED1F34;" width="55.913" height="76.525"/>
</g>
<path style="fill:#121B21;" d="M311.907,171.217H200.093c-4.561,0-8.258,3.697-8.258,8.258v97.142
	c0,35.381,28.784,64.165,64.165,64.165s64.165-28.784,64.165-64.165v-97.142C320.165,174.915,316.468,171.217,311.907,171.217z
	 M303.649,276.618c0,26.274-21.375,47.649-47.649,47.649s-47.649-21.375-47.649-47.649v-88.884h95.299v88.884H303.649z"/>
<g>
</g>
<g>
</g>
<g>
</g>
<g>
</g>
<g>
</g>
<g>
</g>
<g>
</g>
<g>
</g>
<g>
</g>
<g>
</g>
<g>
</g>
<g>
</g>
<g>
</g>
<g>
</g>
<g>
</g>
</svg>
