<?xml version="1.0" encoding="iso-8859-1"?>
<!-- Generator: Adobe Illustrator 19.0.0, SVG Export Plug-In . SVG Version: 6.00 Build 0)  -->
<svg version="1.1" id="Layer_1" xmlns="http://www.w3.org/2000/svg" xmlns:xlink="http://www.w3.org/1999/xlink" x="0px" y="0px"
	 viewBox="0 0 512 512" style="enable-background:new 0 0 512 512;" xml:space="preserve">
<path style="fill:#ED1F34;" d="M503.742,256H8.258v134.331c0,17.027,13.803,30.83,30.83,30.83h433.824
	c17.027,0,30.83-13.803,30.83-30.83V256z"/>
<path style="fill:#164FCE;" d="M472.912,90.839H39.088c-17.027,0-30.83,13.803-30.83,30.83V256h495.484V121.669
	C503.742,104.642,489.939,90.839,472.912,90.839z"/>
<g>
	<path style="fill:#121B21;" d="M503.742,264.258h-66.065c-4.561,0-8.258-3.696-8.258-8.258c0-4.562,3.697-8.258,8.258-8.258h66.065
		c4.561,0,8.258,3.696,8.258,8.258C512,260.562,508.303,264.258,503.742,264.258z"/>
	<path style="fill:#121B21;" d="M404.645,264.258H8.258C3.697,264.258,0,260.562,0,256c0-4.562,3.697-8.258,8.258-8.258h396.387
		c4.561,0,8.258,3.696,8.258,8.258C412.903,260.562,409.206,264.258,404.645,264.258z"/>
	<path style="fill:#121B21;" d="M468.324,429.419H43.675C19.593,429.419,0,409.826,0,385.743V126.257
		c0-24.083,19.593-43.676,43.675-43.676h424.648c24.084,0,43.676,19.594,43.676,43.676v259.486
		C512,409.826,492.407,429.419,468.324,429.419z M43.675,99.097c-14.976,0-27.159,12.183-27.159,27.16v259.486
		c0,14.977,12.183,27.16,27.159,27.16h424.648c14.977,0,27.16-12.183,27.16-27.16V126.257c0-14.977-12.183-27.16-27.16-27.16H43.675
		z"/>
</g>
<g>
</g>
<g>
</g>
<g>
</g>
<g>
</g>
<g>
</g>
<g>
</g>
<g>
</g>
<g>
</g>
<g>
</g>
<g>
</g>
<g>
</g>
<g>
</g>
<g>
</g>
<g>
</g>
<g>
</g>
</svg>
