<?xml version="1.0" encoding="iso-8859-1"?>
<!-- Generator: Adobe Illustrator 19.0.0, SVG Export Plug-In . SVG Version: 6.00 Build 0)  -->
<svg version="1.1" id="Layer_1" xmlns="http://www.w3.org/2000/svg" xmlns:xlink="http://www.w3.org/1999/xlink" x="0px" y="0px"
	 viewBox="0 0 512 512" style="enable-background:new 0 0 512 512;" xml:space="preserve">
<path style="fill:#B21727;" d="M468.324,90.839H43.676c-19.562,0-35.418,15.857-35.418,35.418V256h495.484V126.257
	C503.742,106.695,487.884,90.839,468.324,90.839z"/>
<path style="fill:#FFFFFF;" d="M8.258,385.743c0,19.562,15.857,35.418,35.418,35.418h424.648c19.561,0,35.418-15.857,35.418-35.418
	V256H8.258V385.743z"/>
<path style="fill:#121B21;" d="M468.324,82.581H43.675C19.593,82.581,0,102.174,0,126.257v259.486
	c0,24.083,19.593,43.676,43.675,43.676h424.648c24.084,0,43.676-19.594,43.676-43.676V126.257
	C512,102.174,492.407,82.581,468.324,82.581z M495.484,247.742H74.323c-4.561,0-8.258,3.696-8.258,8.258
	c0,4.562,3.697,8.258,8.258,8.258h421.161v121.485c0,14.977-12.183,27.16-27.16,27.16H43.675c-14.976,0-27.159-12.183-27.159-27.16
	V264.258H41.29c4.561,0,8.258-3.696,8.258-8.258c0-4.562-3.697-8.258-8.258-8.258H16.516V126.257
	c0-14.977,12.183-27.16,27.159-27.16h424.648c14.977,0,27.16,12.183,27.16,27.16V247.742z"/>
<g>
</g>
<g>
</g>
<g>
</g>
<g>
</g>
<g>
</g>
<g>
</g>
<g>
</g>
<g>
</g>
<g>
</g>
<g>
</g>
<g>
</g>
<g>
</g>
<g>
</g>
<g>
</g>
<g>
</g>
</svg>
