<?xml version="1.0" encoding="iso-8859-1"?>
<!-- Generator: Adobe Illustrator 19.0.0, SVG Export Plug-In . SVG Version: 6.00 Build 0)  -->
<svg version="1.1" id="Layer_1" xmlns="http://www.w3.org/2000/svg" xmlns:xlink="http://www.w3.org/1999/xlink" x="0px" y="0px"
	 viewBox="0 0 512 512" style="enable-background:new 0 0 512 512;" xml:space="preserve">
<rect x="173.419" y="90.839" style="fill:#FFFFFF;" width="165.161" height="330.323"/>
<path style="fill:#FF7900;" d="M338.581,421.161V90.839h128.275c20.371,0,36.886,16.515,36.886,36.886v256.551
	c0,20.371-16.515,36.886-36.886,36.886H338.581z"/>
<path style="fill:#259245;" d="M8.258,384.275V127.725c0-20.371,16.515-36.886,36.886-36.886h128.275v330.323H45.144
	C24.773,421.161,8.258,404.646,8.258,384.275z"/>
<path style="fill:#121B21;" d="M468.324,82.581H43.676C19.594,82.581,0,102.173,0,126.257v259.487
	c0,24.083,19.594,43.675,43.676,43.675h424.647c24.083,0,43.676-19.593,43.676-43.676V126.257
	C512,102.173,492.406,82.581,468.324,82.581z M16.516,385.743V126.257c0-14.977,12.183-27.16,27.16-27.16h121.485v222.968
	c0,4.561,3.696,8.258,8.258,8.258c4.562,0,8.258-3.697,8.258-8.258V99.097h148.645v313.806H181.677v-57.806
	c0-4.561-3.696-8.258-8.258-8.258c-4.562,0-8.258,3.697-8.258,8.258v57.806H43.676C28.7,412.903,16.516,400.72,16.516,385.743z
	 M495.484,385.743c0,14.977-12.183,27.16-27.16,27.16H346.839V99.097h121.485c14.977,0,27.16,12.183,27.16,27.16V385.743z"/>
<g>
</g>
<g>
</g>
<g>
</g>
<g>
</g>
<g>
</g>
<g>
</g>
<g>
</g>
<g>
</g>
<g>
</g>
<g>
</g>
<g>
</g>
<g>
</g>
<g>
</g>
<g>
</g>
<g>
</g>
</svg>
