<?xml version="1.0" encoding="iso-8859-1"?>
<!-- Generator: Adobe Illustrator 19.0.0, SVG Export Plug-In . SVG Version: 6.00 Build 0)  -->
<svg version="1.1" id="Layer_1" xmlns="http://www.w3.org/2000/svg" xmlns:xlink="http://www.w3.org/1999/xlink" x="0px" y="0px"
	 viewBox="0 0 512 512" style="enable-background:new 0 0 512 512;" xml:space="preserve">
<rect x="8.258" y="150.297" style="fill:#FFFFFF;" width="495.484" height="211.406"/>
<g>
	<path style="fill:#164FCE;" d="M468.324,90.839H43.676c-19.561,0-35.418,15.857-35.418,35.418v24.04h495.484v-24.04
		C503.742,106.695,487.884,90.839,468.324,90.839z"/>
	<path style="fill:#164FCE;" d="M8.258,385.743c0,19.561,15.858,35.418,35.418,35.418h424.648c19.561,0,35.418-15.858,35.418-35.418
		v-24.04H8.258V385.743z"/>
	<path style="fill:#164FCE;" d="M193.065,301.144c-3.147,0-6.055-1.679-7.628-4.404c-1.573-2.725-1.573-6.083,0-8.809
		l62.935-109.006c1.573-2.725,4.481-4.404,7.628-4.404s6.055,1.679,7.628,4.404l62.935,109.006c1.573,2.725,1.573,6.083,0,8.809
		c-1.573,2.725-4.481,4.404-7.628,4.404H193.065z M256,200.946l-47.678,82.581h95.356L256,200.946z"/>
	<path style="fill:#164FCE;" d="M256,337.48c-3.147,0-6.055-1.679-7.628-4.404l-62.935-109.006c-1.573-2.725-1.573-6.083,0-8.809
		c1.573-2.725,4.481-4.404,7.628-4.404h125.869c3.147,0,6.055,1.679,7.628,4.404c1.573,2.725,1.573,6.083,0,8.809l-62.935,109.006
		C262.055,335.8,259.147,337.48,256,337.48z M208.322,228.473L256,311.054l47.678-82.581H208.322z"/>
</g>
<path style="fill:#111A21;" d="M468.324,82.581H43.676C19.593,82.581,0,102.173,0,126.257v259.487
	c0,24.083,19.593,43.675,43.676,43.675h424.648c24.083,0,43.675-19.593,43.675-43.676V126.257
	C512,102.173,492.407,82.581,468.324,82.581z M43.676,99.097h424.648c14.976,0,27.159,12.183,27.159,27.16v15.782h-57.806
	c-4.561,0-8.258,3.697-8.258,8.258c0,4.561,3.697,8.258,8.258,8.258h57.806v194.89H16.516v-194.89h388.129
	c4.561,0,8.258-3.697,8.258-8.258c0-4.561-3.697-8.258-8.258-8.258H16.516v-15.782C16.516,111.28,28.7,99.097,43.676,99.097z
	 M468.324,412.903H43.676c-14.977,0-27.16-12.183-27.16-27.16v-15.782h478.968v15.782C495.484,400.72,483.3,412.903,468.324,412.903
	z"/>
<g>
</g>
<g>
</g>
<g>
</g>
<g>
</g>
<g>
</g>
<g>
</g>
<g>
</g>
<g>
</g>
<g>
</g>
<g>
</g>
<g>
</g>
<g>
</g>
<g>
</g>
<g>
</g>
<g>
</g>
</svg>
