<?xml version="1.0" encoding="iso-8859-1"?>
<!-- Generator: Adobe Illustrator 19.0.0, SVG Export Plug-In . SVG Version: 6.00 Build 0)  -->
<svg version="1.1" id="Layer_1" xmlns="http://www.w3.org/2000/svg" xmlns:xlink="http://www.w3.org/1999/xlink" x="0px" y="0px"
	 viewBox="0 0 512 512" style="enable-background:new 0 0 512 512;" xml:space="preserve">
<path style="fill:#ED1F34;" d="M503.742,126.257v259.487c0,19.561-15.858,35.418-35.418,35.418H43.676
	c-19.561-0.001-35.418-15.858-35.418-35.419V126.257c0-19.562,15.858-35.418,35.418-35.418h424.648
	C487.884,90.839,503.742,106.695,503.742,126.257z"/>
<path style="fill:#FFFFFF;" d="M302.018,263.096c-0.976,1.845-1.861,3.712-2.669,5.59c-8.678-5.721-19.942-13.149-29.437-19.41
	l-5.079-60.583c-0.478-5.693-5.284-10.13-11.085-10.059l-75.082,2.784c12.449,15.683,33.527,25.607,57.076,24.733
	c2.087-0.077,4.146-0.244,6.176-0.483c-0.617,10.377-1.416,23.845-2.091,35.198l-49.926,34.69c-4.692,3.26-6.132,9.641-3.17,14.63
	l39.951,63.631c7.357-18.621,5.413-41.838-7.118-61.797c-1.11-1.768-2.284-3.467-3.507-5.107
	c9.294-4.654,21.358-10.696,31.528-15.788l55.006,25.893c5.168,2.432,11.415,0.489,14.255-4.571l35.131-66.415
	C332.17,228.972,313.038,242.264,302.018,263.096z"/>
<g>
	<path style="fill:#1A1C20;" d="M378.795,225.52l-33.091-10.013c-4.364-1.32-8.975,1.146-10.296,5.512
		c-0.109,0.36-0.183,0.722-0.241,1.083c-15.946,6.373-29.847,18.546-39.036,34.569l-18.324-12.082l-4.745-56.586
		c-0.829-9.885-9.252-17.628-19.176-17.628l-0.238,0.001c-0.068,0.001-0.137,0.003-0.205,0.006l-68.285,2.531l-4.263-18.228
		c-1.038-4.442-5.482-7.199-9.922-6.161c-4.441,1.038-7.199,5.481-6.161,9.922l7.873,33.664c0.891,3.809,4.284,6.379,8.033,6.379
		c0.622,0,1.255-0.07,1.887-0.219c0.378-0.088,0.739-0.21,1.091-0.346c13.423,10.524,30.88,16.536,49.173,16.536
		c0.084,0,0.167,0,0.251-0.001l-1.301,21.91l-46.633,32.402c-8.247,5.73-10.688,16.986-5.558,25.628
		c0.035,0.058,0.07,0.117,0.107,0.175l36.334,57.87l-13.654,12.806c-3.326,3.12-3.494,8.346-0.374,11.674
		c1.626,1.733,3.823,2.608,6.025,2.608c2.025,0,4.054-0.74,5.647-2.234l25.22-23.649c3.326-3.12,3.494-8.346,0.374-11.674
		c-0.258-0.274-0.534-0.52-0.818-0.751c2.454-16.996-1.137-35.121-10.418-51.092l19.626-9.828l51.378,24.185
		c2.579,1.213,5.33,1.829,8.177,1.829c6.958,0,13.393-3.766,16.796-9.829c0.033-0.059,0.066-0.12,0.098-0.181l31.95-60.402
		l17.917,5.422c0.797,0.241,1.603,0.356,2.395,0.356c3.544,0,6.821-2.3,7.901-5.869C385.629,231.452,383.161,226.841,378.795,225.52
		z M309.609,288.466c-0.585,0.983-1.595,1.336-2.359,1.336c-0.396,0-0.782-0.086-1.143-0.257l-55.006-25.893
		c-2.291-1.079-4.952-1.047-7.214,0.088l-31.528,15.788c-2.186,1.094-3.773,3.101-4.337,5.479c-0.564,2.378-0.045,4.884,1.417,6.843
		c1.123,1.506,2.177,3.041,3.131,4.56c6.967,11.096,10.423,23.555,10.156,35.574l-28.927-46.073
		c-0.684-1.219-0.334-2.776,0.815-3.574l49.926-34.69c2.08-1.446,3.381-3.765,3.531-6.292l2.091-35.198
		c0.144-2.44-0.798-4.819-2.577-6.496c-1.778-1.677-4.206-2.481-6.635-2.194c-1.87,0.22-3.725,0.367-5.514,0.433
		c-13.048,0.484-25.552-2.778-35.831-8.994l54.314-2.013c1.393,0.017,2.569,1.105,2.686,2.492l5.079,60.582
		c0.211,2.524,1.569,4.811,3.683,6.205l29.437,19.41c2.04,1.346,4.574,1.718,6.915,1.016c2.342-0.701,4.252-2.405,5.218-4.65
		c0.739-1.721,1.542-3.4,2.382-4.99c6.125-11.581,15.187-20.805,25.729-26.582L309.609,288.466z"/>
	<path style="fill:#1A1C20;" d="M468.324,82.581H43.676C19.593,82.581,0,102.173,0,126.256v259.487
		c0,24.084,19.593,43.676,43.676,43.676h424.648c24.083,0,43.675-19.593,43.675-43.676V126.256
		C512,102.173,492.407,82.581,468.324,82.581z M495.484,385.743c0,14.977-12.183,27.16-27.16,27.16H43.676
		c-14.977,0-27.16-12.183-27.16-27.16V126.256c0-14.976,12.183-27.159,27.16-27.159h424.648c14.976,0,27.159,12.183,27.159,27.159
		V385.743z"/>
</g>
<g>
</g>
<g>
</g>
<g>
</g>
<g>
</g>
<g>
</g>
<g>
</g>
<g>
</g>
<g>
</g>
<g>
</g>
<g>
</g>
<g>
</g>
<g>
</g>
<g>
</g>
<g>
</g>
<g>
</g>
</svg>
