<?xml version="1.0" encoding="iso-8859-1"?>
<!-- Generator: Adobe Illustrator 19.0.0, SVG Export Plug-In . SVG Version: 6.00 Build 0)  -->
<svg version="1.1" id="Layer_1" xmlns="http://www.w3.org/2000/svg" xmlns:xlink="http://www.w3.org/1999/xlink" x="0px" y="0px"
	 viewBox="0 0 512 512" style="enable-background:new 0 0 512 512;" xml:space="preserve">
<rect x="8.258" y="200.946" style="fill:#FFFFFF;" width="495.484" height="110.108"/>
<path style="fill:#FF7900;" d="M468.324,90.839H43.676c-19.561,0-35.418,15.858-35.418,35.418v74.689h495.484v-74.689
	C503.742,106.696,487.884,90.839,468.324,90.839z"/>
<path style="fill:#259245;" d="M8.258,385.743c0,19.561,15.858,35.418,35.418,35.418h424.648c19.561,0,35.418-15.857,35.418-35.418
	v-74.689H8.258V385.743z"/>
<path style="fill:#164FCE;" d="M256,286.28c-16.697,0-30.28-13.583-30.28-30.28s13.583-30.28,30.28-30.28s30.28,13.583,30.28,30.28
	S272.697,286.28,256,286.28z M256,242.237c-7.59,0-13.763,6.174-13.763,13.763c0,7.59,6.174,13.763,13.763,13.763
	c7.59,0,13.763-6.174,13.763-13.763C269.763,248.41,263.59,242.237,256,242.237z"/>
<path style="fill:#111A21;" d="M468.324,82.581H43.676C19.593,82.581,0,102.173,0,126.257v259.487
	c0,24.083,19.593,43.675,43.676,43.675h424.648c24.083,0,43.675-19.593,43.675-43.676V126.257
	C512,102.173,492.407,82.581,468.324,82.581z M43.676,99.097h424.648c14.976,0,27.159,12.183,27.159,27.16v66.431H74.323
	c-4.561,0-8.258,3.697-8.258,8.258s3.697,8.258,8.258,8.258h421.161v93.591H16.516v-93.591H41.29c4.561,0,8.258-3.697,8.258-8.258
	s-3.697-8.258-8.258-8.258H16.516v-66.431C16.516,111.28,28.7,99.097,43.676,99.097z M468.324,412.903H43.676
	c-14.977,0-27.16-12.183-27.16-27.16v-66.431h478.968v66.431C495.484,400.72,483.3,412.903,468.324,412.903z"/>
<g>
</g>
<g>
</g>
<g>
</g>
<g>
</g>
<g>
</g>
<g>
</g>
<g>
</g>
<g>
</g>
<g>
</g>
<g>
</g>
<g>
</g>
<g>
</g>
<g>
</g>
<g>
</g>
<g>
</g>
</svg>
