<?xml version="1.0" encoding="iso-8859-1"?>
<!-- Generator: Adobe Illustrator 19.0.0, SVG Export Plug-In . SVG Version: 6.00 Build 0)  -->
<svg version="1.1" id="Layer_1" xmlns="http://www.w3.org/2000/svg" xmlns:xlink="http://www.w3.org/1999/xlink" x="0px" y="0px"
	 viewBox="0 0 512 512" style="enable-background:new 0 0 512 512;" xml:space="preserve">
<path style="fill:#103B9B;" d="M8.261,384.549V127.451c0-20.524,16.638-37.162,37.162-37.162h421.158
	c20.524,0,37.162,16.638,37.162,37.162v257.098c0,20.524-16.638,37.162-37.162,37.162H45.424
	C24.9,421.712,8.261,405.073,8.261,384.549z"/>
<g>
	<path style="fill:#FFFFFF;" d="M503.745,230.125c-24.401,0.001-37.169,6.129-48.433,11.536c-9.643,4.628-17.259,8.283-34.148,8.283
		s-24.504-3.656-34.148-8.283c-11.265-5.407-24.034-11.536-48.44-11.536c-24.404,0-37.174,6.129-48.44,11.536
		c-9.641,4.628-17.257,8.283-34.144,8.283c-16.887,0-24.502-3.656-34.143-8.283c-11.265-5.407-24.034-11.536-48.437-11.536
		s-37.172,6.129-48.436,11.536c-9.641,4.628-17.256,8.283-34.141,8.283c-16.886,0-24.502-3.656-34.143-8.283
		c-11.264-5.406-24.031-11.535-48.431-11.536v33.032c16.882,0.001,24.497,3.656,34.137,8.283
		c11.265,5.407,24.033,11.536,48.437,11.536c24.402,0,37.171-6.129,48.435-11.536c9.641-4.628,17.256-8.283,34.142-8.283
		s24.502,3.656,34.143,8.283c11.265,5.407,24.033,11.536,48.437,11.536s37.173-6.129,48.437-11.536
		c9.642-4.628,17.258-8.283,34.147-8.283s24.504,3.656,34.148,8.283c11.265,5.407,24.034,11.536,48.44,11.536
		c24.405,0,37.174-6.129,48.44-11.536c9.642-4.628,17.257-8.282,34.141-8.283V230.125z"/>
	<path style="fill:#FFFFFF;" d="M503.745,152.499c-24.401,0.001-37.169,6.129-48.433,11.536c-9.643,4.628-17.259,8.283-34.148,8.283
		s-24.504-3.656-34.148-8.283c-11.265-5.407-24.034-11.536-48.44-11.536c-24.404,0-37.174,6.129-48.44,11.536
		c-9.641,4.628-17.257,8.283-34.144,8.283s-24.502-3.656-34.143-8.283c-11.265-5.407-24.034-11.536-48.437-11.536
		s-37.172,6.129-48.436,11.536c-9.641,4.628-17.256,8.283-34.141,8.283c-16.886,0-24.502-3.656-34.143-8.283
		c-11.264-5.406-24.031-11.535-48.431-11.536v33.032c16.882,0.001,24.497,3.656,34.137,8.283
		c11.265,5.407,24.033,11.536,48.437,11.536c24.402,0,37.171-6.129,48.435-11.536c9.641-4.628,17.256-8.283,34.142-8.283
		s24.502,3.656,34.143,8.283c11.266,5.407,24.033,11.536,48.437,11.536s37.173-6.129,48.437-11.536
		c9.642-4.628,17.258-8.283,34.147-8.283s24.504,3.656,34.148,8.283c11.265,5.407,24.034,11.536,48.44,11.536
		c24.405,0,37.174-6.129,48.44-11.536c9.642-4.628,17.257-8.282,34.141-8.283L503.745,152.499L503.745,152.499z"/>
	<path style="fill:#FFFFFF;" d="M421.165,94.692c-11.746,0-19.005-1.771-25.581-4.404h-114.01
		c-6.576,2.634-13.835,4.404-25.58,4.404c-11.745,0-19.003-1.771-25.579-4.404H116.413c-6.576,2.634-13.834,4.404-25.577,4.404
		c-11.744,0-19.003-1.771-25.579-4.404h-30.57c-9.729,0-17.617,7.887-17.617,17.617l0,0c16.882,0.001,15.688,3.656,25.328,8.283
		c11.265,5.407,24.033,11.536,48.437,11.536c24.402,0,37.171-6.129,48.435-11.536c9.641-4.628,17.256-8.283,34.142-8.283
		s24.502,3.656,34.143,8.283c11.265,5.407,24.033,11.536,48.437,11.536s37.173-6.129,48.437-11.536
		c9.642-4.628,17.258-8.283,34.147-8.283s24.504,3.656,34.148,8.283c11.265,5.407,24.034,11.536,48.44,11.536
		c24.405,0,37.174-6.129,48.44-11.536c9.642-4.628,7.347-8.282,24.231-8.283h1.101c0-9.73-8.988-17.617-18.718-17.617h-29.472
		C440.169,92.922,432.91,94.692,421.165,94.692z"/>
	<path style="fill:#FFFFFF;" d="M503.745,307.751c-24.401,0.001-37.169,6.129-48.433,11.536c-9.643,4.628-17.259,8.283-34.148,8.283
		s-24.504-3.656-34.148-8.283c-11.265-5.407-24.034-11.536-48.44-11.536c-24.404,0-37.174,6.129-48.44,11.536
		c-9.641,4.628-17.257,8.283-34.144,8.283s-24.502-3.656-34.143-8.283c-11.265-5.407-24.034-11.536-48.437-11.536
		s-37.172,6.129-48.436,11.537c-9.641,4.628-17.256,8.282-34.141,8.282c-16.886,0-24.502-3.656-34.143-8.283
		c-11.264-5.406-24.031-11.535-48.431-11.536v33.032c16.882,0.001,24.497,3.656,34.137,8.283
		c11.265,5.407,24.033,11.536,48.437,11.536c24.402,0,37.171-6.129,48.435-11.536c9.641-4.628,17.256-8.283,34.142-8.283
		s24.502,3.656,34.143,8.283c11.266,5.407,24.033,11.536,48.437,11.536s37.173-6.129,48.437-11.536
		c9.642-4.628,17.258-8.283,34.147-8.283s24.504,3.656,34.148,8.283c11.265,5.407,24.034,11.536,48.44,11.536
		c24.405,0,37.174-6.129,48.44-11.536c9.642-4.628,17.257-8.282,34.141-8.283L503.745,307.751L503.745,307.751z"/>
	<path style="fill:#FFFFFF;" d="M503.745,418.409v-33.032c-24.401,0.001-37.169,6.129-48.433,11.536
		c-9.643,4.628-17.259,8.283-34.148,8.283s-24.504-3.656-34.148-8.283c-11.265-5.407-24.034-11.536-48.44-11.536
		c-24.404,0-37.174,6.129-48.44,11.536c-9.641,4.628-17.257,8.283-34.144,8.283c-16.887,0-24.502-3.656-34.143-8.283
		c-11.265-5.407-24.034-11.536-48.437-11.536s-37.172,6.129-48.436,11.537c-9.641,4.627-17.256,8.282-34.141,8.282
		c-16.886,0-24.502-3.656-34.143-8.283c-11.264-5.406-24.031-11.535-48.431-11.536v33.032c10.011,0,16.755,1.292,22.603,3.303
		h119.939c5.849-2.012,12.595-3.303,22.609-3.303s16.761,1.292,22.609,3.303h119.942c5.85-2.012,12.596-3.303,22.612-3.303
		c10.015,0,16.763,1.292,22.613,3.303h119.95C486.988,419.7,493.733,418.409,503.745,418.409z"/>
</g>
<path style="fill:#103B9B;" d="M255.997,256.551H8.255V125.432c0-18.802,15.242-34.043,34.043-34.043h213.699L255.997,256.551
	L255.997,256.551z"/>
<path style="fill:#FFFFFF;" d="M255.997,91.389h-40.196l-83.675,55.784L48.451,91.389H35.052c-14.8,0-26.797,11.997-26.797,26.797
	l0,0L91.93,173.97L8.255,229.754v26.797h40.196l83.675-55.784l83.675,55.784h40.196v-26.797l-83.675-55.784l83.675-55.783
	L255.997,91.389L255.997,91.389z"/>
<path style="fill:#ED1F34;" d="M255.997,91.389H229.2l-110.466,73.652L23.13,101.306c-6.359-4.239-14.874,0.319-14.874,7.961l0,0
	l110.33,73.73L8.255,256.551h26.797l110.472-73.648l110.473,73.648v-17.484L145.369,165.14L255.997,91.389z"/>
<polygon style="fill:#FFFFFF;" points="255.997,151.673 154.423,151.673 154.423,91.389 109.829,91.389 109.829,151.673 
	8.255,151.673 8.255,196.267 109.829,196.267 109.829,256.551 154.423,256.551 154.423,196.267 255.997,196.267 "/>
<polygon style="fill:#ED1F34;" points="255.997,161.996 144.1,161.996 144.1,91.389 120.152,91.389 120.152,161.996 8.255,161.996 
	8.255,185.944 120.152,185.944 120.152,256.551 144.1,256.551 144.1,185.944 255.997,185.944 "/>
<path style="fill:#1A1C20;" d="M379.868,389.775c-4.562,0-8.258-3.696-8.258-8.258V243.551c0-4.561,3.696-8.258,8.258-8.258
	c4.561,0,8.258,3.697,8.258,8.258v137.966C388.126,386.079,384.429,389.775,379.868,389.775z"/>
<circle style="fill:#259245;" cx="379.871" cy="187.557" r="55.989"/>
<path style="fill:#1A1C20;" d="M379.868,251.809c-35.426,0-64.248-28.821-64.248-64.248c0-35.426,28.822-64.248,64.248-64.248
	s64.248,28.822,64.248,64.248C444.115,222.989,415.294,251.809,379.868,251.809z M379.868,139.831
	c-26.319,0-47.732,21.413-47.732,47.732s21.412,47.732,47.732,47.732s47.732-21.413,47.732-47.732
	C427.599,161.244,406.187,139.831,379.868,139.831z"/>
<path style="fill:#ED1F34;" d="M401.89,285.881c-9.703,0-18.083,5.66-22.023,13.857c-3.939-8.198-12.32-13.857-22.023-13.857
	c-13.487,0-24.42,10.934-24.42,24.42c0,13.486,8.989,24.42,8.989,24.42h74.907c0,0,8.989-10.934,8.989-24.42
	C426.311,296.815,415.377,285.881,401.89,285.881z"/>
<g>
	<path style="fill:#1A1C20;" d="M417.322,342.978h-74.907c-2.47,0-4.811-1.105-6.38-3.014c-0.443-0.54-10.866-13.406-10.866-29.664
		c0-18.018,14.659-32.678,32.678-32.678c8.245,0,16.088,3.172,22.023,8.566c5.935-5.394,13.778-8.566,22.023-8.566
		c18.018,0,32.678,14.66,32.678,32.678c0,16.26-10.424,29.125-10.866,29.664C422.132,341.873,419.792,342.978,417.322,342.978z
		 M346.747,326.462h66.235c2.107-3.472,5.069-9.532,5.069-16.163c0-8.912-7.249-16.162-16.162-16.162
		c-6.178,0-11.9,3.602-14.579,9.175c-1.374,2.862-4.268,4.682-7.443,4.682s-6.069-1.82-7.443-4.682
		c-2.679-5.575-8.401-9.175-14.579-9.175c-8.912,0-16.162,7.25-16.162,16.162C341.683,316.946,344.646,323.004,346.747,326.462z"/>
	<path style="fill:#1A1C20;" d="M468.324,82.581H43.676C19.594,82.581,0,102.173,0,126.256v259.487
		c0,24.083,19.594,43.676,43.676,43.676h424.647c24.083,0,43.676-19.594,43.676-43.676V126.256
		C512,102.173,492.406,82.581,468.324,82.581z M43.676,99.097h204.062v149.196l-231.223-0.006V126.256
		C16.516,111.28,28.7,99.097,43.676,99.097z M495.484,385.743c0,14.977-12.183,27.16-27.16,27.16H43.676
		c-14.977,0-27.16-12.183-27.16-27.16v-120.94l239.481,0.005c2.19,0,4.29-0.87,5.84-2.418c1.548-1.549,2.418-3.649,2.418-5.84
		V99.097h204.069c14.977,0,27.16,12.183,27.16,27.159V385.743z"/>
</g>
<g>
</g>
<g>
</g>
<g>
</g>
<g>
</g>
<g>
</g>
<g>
</g>
<g>
</g>
<g>
</g>
<g>
</g>
<g>
</g>
<g>
</g>
<g>
</g>
<g>
</g>
<g>
</g>
<g>
</g>
</svg>
