<?xml version="1.0" encoding="iso-8859-1"?>
<!-- Generator: Adobe Illustrator 19.0.0, SVG Export Plug-In . SVG Version: 6.00 Build 0)  -->
<svg version="1.1" id="Layer_1" xmlns="http://www.w3.org/2000/svg" xmlns:xlink="http://www.w3.org/1999/xlink" x="0px" y="0px"
	 viewBox="0 0 512 512" style="enable-background:new 0 0 512 512;" xml:space="preserve">
<rect x="8.258" y="200.946" style="fill:#FFFFFF;" width="495.484" height="110.108"/>
<path style="fill:#259245;" d="M468.324,90.839H43.676c-19.561,0-35.418,15.857-35.418,35.418v74.689h495.484v-74.689
	C503.742,106.695,487.885,90.839,468.324,90.839z"/>
<g>
	<path style="fill:#ED1F34;" d="M8.258,385.743c0,19.561,15.858,35.418,35.418,35.418h424.648c19.561,0,35.418-15.858,35.418-35.418
		v-74.689H8.258V385.743z"/>
	<path style="fill:#ED1F34;" d="M256,285.829c-19.156,0-34.742-15.586-34.742-34.742c0-9.96,4.285-19.456,11.757-26.053
		c3.419-3.018,8.637-2.693,11.656,0.726c3.019,3.419,2.694,8.638-0.725,11.656c-3.923,3.463-6.172,8.445-6.172,13.671
		c0,10.05,8.177,18.226,18.226,18.226c10.049,0,18.226-8.175,18.226-18.226c0-5.226-2.25-10.208-6.172-13.671
		c-3.419-3.019-3.744-8.237-0.725-11.656c3.017-3.419,8.236-3.744,11.656-0.726c7.472,6.597,11.757,16.092,11.757,26.053
		C290.742,270.245,275.156,285.829,256,285.829z"/>
	<path style="fill:#ED1F34;" d="M256,291.234c-4.562,0-8.258-3.697-8.258-8.258v-36.753c0-4.561,3.696-8.258,8.258-8.258
		c4.562,0,8.258,3.697,8.258,8.258v36.753C264.258,287.537,260.562,291.234,256,291.234z"/>
</g>
<g>
	<path style="fill:#FFFFFF;" d="M46.372,211.406c-4.562,0-8.258-3.697-8.258-8.258v-5.505c0-4.561,3.696-8.258,8.258-8.258
		s8.258,3.697,8.258,8.258v5.505C54.63,207.709,50.934,211.406,46.372,211.406z"/>
	<path style="fill:#FFFFFF;" d="M84.486,211.406c-4.562,0-8.258-3.697-8.258-8.258v-5.505c0-4.561,3.696-8.258,8.258-8.258
		s8.258,3.697,8.258,8.258v5.505C92.744,207.709,89.047,211.406,84.486,211.406z"/>
	<path style="fill:#FFFFFF;" d="M122.6,211.406c-4.562,0-8.258-3.697-8.258-8.258v-5.505c0-4.561,3.696-8.258,8.258-8.258
		s8.258,3.697,8.258,8.258v5.505C130.858,207.709,127.161,211.406,122.6,211.406z"/>
	<path style="fill:#FFFFFF;" d="M160.715,211.406c-4.562,0-8.258-3.697-8.258-8.258v-5.505c0-4.561,3.696-8.258,8.258-8.258
		c4.562,0,8.258,3.697,8.258,8.258v5.505C168.973,207.709,165.277,211.406,160.715,211.406z"/>
	<path style="fill:#FFFFFF;" d="M198.829,211.406c-4.562,0-8.258-3.697-8.258-8.258v-5.505c0-4.561,3.696-8.258,8.258-8.258
		c4.562,0,8.258,3.697,8.258,8.258v5.505C207.087,207.709,203.391,211.406,198.829,211.406z"/>
	<path style="fill:#FFFFFF;" d="M236.943,211.406c-4.562,0-8.258-3.697-8.258-8.258v-5.505c0-4.561,3.696-8.258,8.258-8.258
		s8.258,3.697,8.258,8.258v5.505C245.201,207.709,241.504,211.406,236.943,211.406z"/>
	<path style="fill:#FFFFFF;" d="M275.057,211.406c-4.562,0-8.258-3.697-8.258-8.258v-5.505c0-4.561,3.696-8.258,8.258-8.258
		c4.562,0,8.258,3.697,8.258,8.258v5.505C283.315,207.709,279.618,211.406,275.057,211.406z"/>
	<path style="fill:#FFFFFF;" d="M313.171,211.406c-4.562,0-8.258-3.697-8.258-8.258v-5.505c0-4.561,3.696-8.258,8.258-8.258
		c4.561,0,8.258,3.697,8.258,8.258v5.505C321.429,207.709,317.732,211.406,313.171,211.406z"/>
	<path style="fill:#FFFFFF;" d="M351.285,211.406c-4.562,0-8.258-3.697-8.258-8.258v-5.505c0-4.561,3.696-8.258,8.258-8.258
		s8.258,3.697,8.258,8.258v5.505C359.543,207.709,355.847,211.406,351.285,211.406z"/>
	<path style="fill:#FFFFFF;" d="M389.4,211.406c-4.562,0-8.258-3.697-8.258-8.258v-5.505c0-4.561,3.696-8.258,8.258-8.258
		c4.562,0,8.258,3.697,8.258,8.258v5.505C397.658,207.709,393.961,211.406,389.4,211.406z"/>
	<path style="fill:#FFFFFF;" d="M427.514,211.406c-4.561,0-8.258-3.697-8.258-8.258v-5.505c0-4.561,3.697-8.258,8.258-8.258
		c4.562,0,8.258,3.697,8.258,8.258v5.505C435.773,207.709,432.075,211.406,427.514,211.406z"/>
	<path style="fill:#FFFFFF;" d="M465.628,211.406c-4.562,0-8.258-3.697-8.258-8.258v-5.505c0-4.561,3.696-8.258,8.258-8.258
		s8.258,3.697,8.258,8.258v5.505C473.886,207.709,470.189,211.406,465.628,211.406z"/>
	<path style="fill:#FFFFFF;" d="M46.372,322.615c-4.562,0-8.258-3.697-8.258-8.258v-5.505c0-4.561,3.696-8.258,8.258-8.258
		s8.258,3.697,8.258,8.258v5.505C54.63,318.918,50.934,322.615,46.372,322.615z"/>
	<path style="fill:#FFFFFF;" d="M84.486,322.615c-4.562,0-8.258-3.697-8.258-8.258v-5.505c0-4.561,3.696-8.258,8.258-8.258
		s8.258,3.697,8.258,8.258v5.505C92.744,318.918,89.047,322.615,84.486,322.615z"/>
	<path style="fill:#FFFFFF;" d="M122.6,322.615c-4.562,0-8.258-3.697-8.258-8.258v-5.505c0-4.561,3.696-8.258,8.258-8.258
		s8.258,3.697,8.258,8.258v5.505C130.858,318.918,127.161,322.615,122.6,322.615z"/>
	<path style="fill:#FFFFFF;" d="M160.715,322.615c-4.562,0-8.258-3.697-8.258-8.258v-5.505c0-4.561,3.696-8.258,8.258-8.258
		c4.562,0,8.258,3.697,8.258,8.258v5.505C168.973,318.918,165.277,322.615,160.715,322.615z"/>
	<path style="fill:#FFFFFF;" d="M198.829,322.615c-4.562,0-8.258-3.697-8.258-8.258v-5.505c0-4.561,3.696-8.258,8.258-8.258
		c4.562,0,8.258,3.697,8.258,8.258v5.505C207.087,318.918,203.391,322.615,198.829,322.615z"/>
	<path style="fill:#FFFFFF;" d="M236.943,322.615c-4.562,0-8.258-3.697-8.258-8.258v-5.505c0-4.561,3.696-8.258,8.258-8.258
		s8.258,3.697,8.258,8.258v5.505C245.201,318.918,241.504,322.615,236.943,322.615z"/>
	<path style="fill:#FFFFFF;" d="M275.057,322.615c-4.562,0-8.258-3.697-8.258-8.258v-5.505c0-4.561,3.696-8.258,8.258-8.258
		c4.562,0,8.258,3.697,8.258,8.258v5.505C283.315,318.918,279.618,322.615,275.057,322.615z"/>
	<path style="fill:#FFFFFF;" d="M313.171,322.615c-4.562,0-8.258-3.697-8.258-8.258v-5.505c0-4.561,3.696-8.258,8.258-8.258
		c4.561,0,8.258,3.697,8.258,8.258v5.505C321.429,318.918,317.732,322.615,313.171,322.615z"/>
	<path style="fill:#FFFFFF;" d="M351.285,322.615c-4.562,0-8.258-3.697-8.258-8.258v-5.505c0-4.561,3.696-8.258,8.258-8.258
		s8.258,3.697,8.258,8.258v5.505C359.543,318.918,355.847,322.615,351.285,322.615z"/>
	<path style="fill:#FFFFFF;" d="M389.4,322.615c-4.562,0-8.258-3.697-8.258-8.258v-5.505c0-4.561,3.696-8.258,8.258-8.258
		c4.562,0,8.258,3.697,8.258,8.258v5.505C397.658,318.918,393.961,322.615,389.4,322.615z"/>
	<path style="fill:#FFFFFF;" d="M427.514,322.615c-4.561,0-8.258-3.697-8.258-8.258v-5.505c0-4.561,3.697-8.258,8.258-8.258
		c4.562,0,8.258,3.697,8.258,8.258v5.505C435.773,318.918,432.075,322.615,427.514,322.615z"/>
	<path style="fill:#FFFFFF;" d="M465.628,322.615c-4.562,0-8.258-3.697-8.258-8.258v-5.505c0-4.561,3.696-8.258,8.258-8.258
		s8.258,3.697,8.258,8.258v5.505C473.886,318.918,470.189,322.615,465.628,322.615z"/>
</g>
<path style="fill:#111A21;" d="M468.324,429.419H43.676C19.594,429.419,0,409.827,0,385.743V126.257
	c0-24.084,19.594-43.676,43.676-43.676h424.647c24.083,0,43.676,19.593,43.676,43.676v259.487
	C512,409.827,492.406,429.419,468.324,429.419z M43.676,99.097c-14.977,0-27.16,12.183-27.16,27.16v259.487
	c0,14.976,12.183,27.159,27.16,27.159h424.647c14.977,0,27.16-12.183,27.16-27.16V126.257c0-14.977-12.183-27.16-27.16-27.16H43.676
	z"/>
<g>
</g>
<g>
</g>
<g>
</g>
<g>
</g>
<g>
</g>
<g>
</g>
<g>
</g>
<g>
</g>
<g>
</g>
<g>
</g>
<g>
</g>
<g>
</g>
<g>
</g>
<g>
</g>
<g>
</g>
</svg>
