<?xml version="1.0" encoding="iso-8859-1"?>
<!-- Generator: Adobe Illustrator 19.0.0, SVG Export Plug-In . SVG Version: 6.00 Build 0)  -->
<svg version="1.1" id="Layer_1" xmlns="http://www.w3.org/2000/svg" xmlns:xlink="http://www.w3.org/1999/xlink" x="0px" y="0px"
	 viewBox="0 0 512 512" style="enable-background:new 0 0 512 512;" xml:space="preserve">
<rect x="173.419" y="90.839" style="fill:#FFFFFF;" width="165.161" height="330.323"/>
<path style="fill:#259245;" d="M43.676,90.839c-19.561,0-35.418,15.857-35.418,35.418v259.487c0,19.561,15.858,35.418,35.418,35.418
	h129.743V90.84H43.676V90.839z"/>
<path style="fill:#ED1F34;" d="M468.324,90.839H338.581v330.323h129.743c19.561,0,35.418-15.858,35.418-35.418V126.257
	C503.742,106.695,487.884,90.839,468.324,90.839z"/>
<path style="fill:#121B21;" d="M468.324,82.581H43.676C19.593,82.581,0,102.173,0,126.257v259.487
	c0,24.083,19.593,43.675,43.676,43.675h424.648c24.083,0,43.675-19.593,43.675-43.676V126.257
	C512,102.173,492.407,82.581,468.324,82.581z M16.516,385.743V126.257c0-14.977,12.183-27.16,27.16-27.16h121.485v313.806H43.676
	C28.7,412.903,16.516,400.72,16.516,385.743z M495.484,385.743c0,14.977-12.183,27.16-27.16,27.16H346.839V189.935
	c0-4.561-3.697-8.258-8.258-8.258c-4.561,0-8.258,3.697-8.258,8.258v222.968H181.677V99.097h148.645v57.806
	c0,4.561,3.697,8.258,8.258,8.258c4.561,0,8.258-3.697,8.258-8.258V99.097h121.485c14.977,0,27.16,12.183,27.16,27.16V385.743z"/>
<g>
</g>
<g>
</g>
<g>
</g>
<g>
</g>
<g>
</g>
<g>
</g>
<g>
</g>
<g>
</g>
<g>
</g>
<g>
</g>
<g>
</g>
<g>
</g>
<g>
</g>
<g>
</g>
<g>
</g>
</svg>
