<?xml version="1.0" encoding="iso-8859-1"?>
<!-- Generator: Adobe Illustrator 19.0.0, SVG Export Plug-In . SVG Version: 6.00 Build 0)  -->
<svg version="1.1" id="Layer_1" xmlns="http://www.w3.org/2000/svg" xmlns:xlink="http://www.w3.org/1999/xlink" x="0px" y="0px"
	 viewBox="0 0 512 512" style="enable-background:new 0 0 512 512;" xml:space="preserve">
<path style="fill:#FFFFFF;" d="M503.742,126.256v259.487c0,19.561-15.857,35.418-35.418,35.418H43.676
	c-19.561,0-35.418-15.858-35.418-35.418V126.256c0-19.561,15.858-35.418,35.418-35.418h424.648
	C487.885,90.838,503.742,106.695,503.742,126.256z"/>
<g>
	<path style="fill:#ED1F34;" d="M233.94,126.545c-2.475,5.479-3.909,11.942-3.909,18.87c0,28.079,25.969,41.689,25.969,41.689
		s25.969-13.611,25.969-41.689c0-6.928-1.434-13.391-3.909-18.87H233.94z"/>
	<path style="fill:#ED1F34;" d="M8.821,119.995l204.006,136.004L8.821,392.003c2.957,16.572,17.43,29.156,34.852,29.158h7.758
		L256,284.782l204.569,136.379h7.758c17.422-0.001,31.895-12.585,34.852-29.158L299.173,255.999l204.006-136.004
		c-2.957-16.573-17.432-29.158-34.855-29.158h-7.756L256,227.217L51.431,90.838h-7.756C26.253,90.838,11.778,103.423,8.821,119.995z
		"/>
</g>
<g>
	<path style="fill:#1A1C20;" d="M259.833,194.419c1.241-0.651,30.394-16.306,30.394-49.003c0-7.847-1.605-15.548-4.642-22.27
		c-1.337-2.957-4.281-4.858-7.526-4.858h-44.118c-3.245,0-6.189,1.9-7.526,4.858c-3.037,6.721-4.642,14.422-4.642,22.27
		c0,32.698,29.153,48.354,30.394,49.003c1.2,0.629,2.517,0.944,3.833,0.944S258.634,195.048,259.833,194.419z M238.289,145.416
		c0-3.669,0.486-7.264,1.421-10.612h32.579c0.937,3.348,1.421,6.942,1.421,10.612c0,16.819-11.489,27.406-17.711,31.906
		C249.778,172.82,238.289,162.235,238.289,145.416z"/>
	<path style="fill:#1A1C20;" d="M512,385.743V126.256c0-1.572-0.088-3.125-0.251-4.655c0.537-2.172,0.203-4.553-1.136-6.561
		c-0.041-0.061-0.087-0.115-0.129-0.174c-5.024-18.575-22.017-32.286-42.16-32.286h-7.704c-0.005,0-0.011,0-0.017,0H51.406
		c-0.01,0-0.021,0-0.031,0h-7.699c-20.142,0-37.136,13.709-42.16,32.286c-0.042,0.059-0.089,0.113-0.129,0.174
		c-1.339,2.008-1.674,4.389-1.136,6.561C0.088,123.131,0,124.684,0,126.256v259.487c0,1.572,0.088,3.125,0.251,4.654
		c-0.537,2.172-0.203,4.553,1.136,6.561c0.04,0.059,0.087,0.109,0.127,0.166c5.022,18.581,22.017,32.295,42.162,32.295h7.699
		c0.01,0,0.021,0,0.031,0h409.141c0.005,0,0.01,0.001,0.015,0.001c0.006,0,0.012-0.001,0.018-0.001h7.745
		c20.145,0,37.14-13.714,42.162-32.293c0.041-0.057,0.088-0.108,0.127-0.166c1.339-2.008,1.674-4.389,1.136-6.561
		C511.912,388.868,512,387.315,512,385.743z M314.061,255.999L495.484,135.05v241.897L314.061,255.999z M433.295,99.096L256,217.293
		L78.705,99.096H433.295z M78.705,412.903L256,294.706l177.295,118.197H78.705z M468.324,412.903h-5.255L260.58,277.911
		c-2.775-1.85-6.387-1.85-9.161,0L48.931,412.903h-5.254c-11.513,0-21.367-7.203-25.314-17.335l32.707-21.805
		c3.794-2.529,4.821-7.657,2.29-11.451c-2.53-3.794-7.658-4.82-11.451-2.29l-25.393,16.927V135.05l181.423,120.949L69.393,341.697
		c-3.794,2.529-4.821,7.657-2.29,11.451c1.591,2.387,4.209,3.679,6.878,3.679c1.575,0,3.166-0.449,4.573-1.388l138.851-92.569
		c2.298-1.532,3.678-4.109,3.678-6.871c0-2.762-1.38-5.34-3.678-6.871L18.363,116.432c3.946-10.133,13.802-17.335,25.314-17.335
		h5.254l202.488,134.992c1.387,0.925,2.984,1.387,4.58,1.387s3.193-0.462,4.58-1.387L463.067,99.097h5.255
		c11.513,0,21.367,7.203,25.314,17.335L294.594,249.128c-2.298,1.532-3.678,4.109-3.678,6.871s1.38,5.34,3.678,6.871
		l199.044,132.696C489.691,405.7,479.836,412.903,468.324,412.903z"/>
</g>
<g>
</g>
<g>
</g>
<g>
</g>
<g>
</g>
<g>
</g>
<g>
</g>
<g>
</g>
<g>
</g>
<g>
</g>
<g>
</g>
<g>
</g>
<g>
</g>
<g>
</g>
<g>
</g>
<g>
</g>
</svg>
