<?xml version="1.0" encoding="iso-8859-1"?>
<!-- Generator: Adobe Illustrator 19.0.0, SVG Export Plug-In . SVG Version: 6.00 Build 0)  -->
<svg version="1.1" id="Layer_1" xmlns="http://www.w3.org/2000/svg" xmlns:xlink="http://www.w3.org/1999/xlink" x="0px" y="0px"
	 viewBox="0 0 512 512" style="enable-background:new 0 0 512 512;" xml:space="preserve">
<g>
	<path style="fill:#259245;" d="M503.008,137.155v237.688v18.099c0.48-2.324,0.734-4.734,0.734-7.201V126.257
		c0-2.468-0.253-4.877-0.734-7.201V137.155z"/>
	<path style="fill:#259245;" d="M21.525,413.37c6.067,4.871,13.766,7.791,22.151,7.791h424.648c8.242,0,15.82-2.824,21.838-7.545
		L255.633,275.88L21.525,413.37z"/>
	<path style="fill:#259245;" d="M490.161,98.383c-6.017-4.72-13.596-7.545-21.838-7.545H43.676c-8.386,0-16.085,2.92-22.151,7.791
		l234.108,137.489L490.161,98.383z"/>
</g>
<path style="fill:#FFE000;" d="M300.646,256l202.361-118.845v-18.099c-1.723-8.341-6.384-15.602-12.846-20.673L255.632,236.12
	L21.525,98.63c-8.085,6.492-13.267,16.452-13.267,27.627v10.898L210.619,256L8.258,374.845v10.898
	c0,11.175,5.181,21.135,13.267,27.627l234.108-137.489l234.529,137.737c6.462-5.07,11.123-12.332,12.846-20.673v-18.099L300.646,256
	z"/>
<g>
	<polygon style="fill:#333333;" points="8.258,137.155 8.258,374.845 210.619,256 	"/>
	<polygon style="fill:#333333;" points="503.008,374.845 503.008,137.155 300.646,256 	"/>
</g>
<path style="fill:#121B21;" d="M468.324,429.419H43.676C19.593,429.419,0,409.826,0,385.743V126.257
	c0-24.083,19.593-43.676,43.676-43.676h424.648c24.082,0,43.675,19.594,43.675,43.676v259.486
	C512,409.826,492.406,429.419,468.324,429.419z M43.676,99.097c-14.977,0-27.16,12.183-27.16,27.16v259.486
	c0,14.977,12.183,27.16,27.16,27.16h424.648c14.976,0,27.159-12.183,27.159-27.16V126.257c0-14.977-12.183-27.16-27.16-27.16H43.676
	z"/>
<g>
</g>
<g>
</g>
<g>
</g>
<g>
</g>
<g>
</g>
<g>
</g>
<g>
</g>
<g>
</g>
<g>
</g>
<g>
</g>
<g>
</g>
<g>
</g>
<g>
</g>
<g>
</g>
<g>
</g>
</svg>
