<?xml version="1.0" encoding="iso-8859-1"?>
<!-- Generator: Adobe Illustrator 19.0.0, SVG Export Plug-In . SVG Version: 6.00 Build 0)  -->
<svg version="1.1" id="Layer_1" xmlns="http://www.w3.org/2000/svg" xmlns:xlink="http://www.w3.org/1999/xlink" x="0px" y="0px"
	 viewBox="0 0 512 512" style="enable-background:new 0 0 512 512;" xml:space="preserve">
<polygon style="fill:#FFFFFF;" points="256,256 173.419,311.054 503.742,311.054 503.742,200.946 173.419,200.946 "/>
<path style="fill:#259245;" d="M20.818,412.789c6.169,5.22,14.143,8.373,22.858,8.373h424.648c19.561,0,35.418-15.858,35.418-35.418
	v-74.689H173.42L20.818,412.789z"/>
<path style="fill:#333333;" d="M468.324,90.839H43.676c-8.715,0-16.689,3.153-22.858,8.373l152.601,101.735h330.323v-74.689
	C503.742,106.695,487.884,90.839,468.324,90.839z"/>
<path style="fill:#ED1F34;" d="M256,256l-82.581-55.054L20.818,99.211c-7.679,6.497-12.56,16.199-12.56,27.046v74.689v110.108
	v74.689c0,10.847,4.881,20.548,12.56,27.045l152.601-101.734L256,256z"/>
<polygon style="fill:#FFFFFF;" points="98.546,212.86 108.091,236.18 132.274,229.103 119.993,251.105 140.605,265.599 
	115.745,269.716 117.265,294.868 98.546,277.998 79.828,294.868 81.346,269.716 56.487,265.599 77.099,251.105 64.818,229.103 
	89.001,236.18 "/>
<path style="fill:#111A21;" d="M468.324,82.581H43.675c-10.584,0-20.298,3.787-27.865,10.073c-0.291,0.221-0.57,0.459-0.834,0.722
	C5.809,101.387,0,113.153,0,126.257v259.487c0,13.168,5.865,24.983,15.111,32.998c0.19,0.183,0.389,0.352,0.593,0.514
	c7.583,6.339,17.338,10.163,27.971,10.163h424.648c24.084,0,43.676-19.593,43.676-43.676V126.257
	C512,102.173,492.407,82.581,468.324,82.581z M21.994,402.079c-3.436-4.549-5.478-10.208-5.478-16.336V126.257
	c0-6.127,2.041-11.786,5.478-16.336l146.799,97.866c0.008,0.004,0.014,0.01,0.022,0.014L241.112,256L21.994,402.079z
	 M260.58,262.871c2.297-1.532,3.678-4.11,3.678-6.871c0-2.76-1.38-5.339-3.678-6.871l-59.886-39.925h294.79v93.591h-294.79
	L260.58,262.871z M468.324,99.097c14.977,0,27.16,12.183,27.16,27.16v66.431H175.92L36.841,99.969
	c2.185-0.568,4.475-0.872,6.834-0.872H468.324z M468.324,412.903H43.675c-2.36,0-4.65-0.304-6.834-0.872l139.079-92.719h319.564
	v66.431C495.484,400.72,483.3,412.903,468.324,412.903z"/>
<g>
</g>
<g>
</g>
<g>
</g>
<g>
</g>
<g>
</g>
<g>
</g>
<g>
</g>
<g>
</g>
<g>
</g>
<g>
</g>
<g>
</g>
<g>
</g>
<g>
</g>
<g>
</g>
<g>
</g>
</svg>
