<?xml version="1.0" encoding="iso-8859-1"?>
<!-- Generator: Adobe Illustrator 19.0.0, SVG Export Plug-In . SVG Version: 6.00 Build 0)  -->
<svg version="1.1" id="Layer_1" xmlns="http://www.w3.org/2000/svg" xmlns:xlink="http://www.w3.org/1999/xlink" x="0px" y="0px"
	 viewBox="0 0 512 512" style="enable-background:new 0 0 512 512;" xml:space="preserve">
<path style="fill:#FFFFFF;" d="M503.742,130.194v251.611c0,21.735-17.62,39.356-39.356,39.356H47.614
	c-21.735,0-39.356-17.621-39.356-39.356V130.194c0-21.735,17.621-39.356,39.356-39.356h416.772
	C486.121,90.839,503.742,108.459,503.742,130.194z"/>
<circle style="fill:#ED1F34;" cx="256" cy="256" r="82.581"/>
<g>
	<path style="fill:#121B21;" d="M256,165.161c-50.089,0-90.839,40.751-90.839,90.839s40.75,90.839,90.839,90.839
		s90.839-40.751,90.839-90.839S306.089,165.161,256,165.161z M256,330.323c-40.982,0-74.323-33.341-74.323-74.323
		s33.341-74.323,74.323-74.323s74.323,33.341,74.323,74.323S296.982,330.323,256,330.323z"/>
	<path style="fill:#121B21;" d="M468.324,82.581H43.675C19.593,82.581,0,102.174,0,126.257v259.486
		c0,24.083,19.593,43.676,43.675,43.676h424.648c24.084,0,43.676-19.594,43.676-43.676V126.257
		C512,102.174,492.407,82.581,468.324,82.581z M495.484,385.743c0,14.977-12.183,27.16-27.16,27.16H43.675
		c-14.976,0-27.159-12.183-27.159-27.16V126.257c0-14.977,12.183-27.16,27.159-27.16h424.648c14.977,0,27.16,12.183,27.16,27.16
		V385.743z"/>
</g>
<g>
</g>
<g>
</g>
<g>
</g>
<g>
</g>
<g>
</g>
<g>
</g>
<g>
</g>
<g>
</g>
<g>
</g>
<g>
</g>
<g>
</g>
<g>
</g>
<g>
</g>
<g>
</g>
<g>
</g>
</svg>
