<?xml version="1.0" encoding="iso-8859-1"?>
<!-- Generator: Adobe Illustrator 19.0.0, SVG Export Plug-In . SVG Version: 6.00 Build 0)  -->
<svg version="1.1" id="Layer_1" xmlns="http://www.w3.org/2000/svg" xmlns:xlink="http://www.w3.org/1999/xlink" x="0px" y="0px"
	 viewBox="0 0 512 512" style="enable-background:new 0 0 512 512;" xml:space="preserve">
<path style="fill:#259245;" d="M8.258,385.743c0,19.561,15.858,35.418,35.418,35.418h424.648c19.561,0,35.418-15.857,35.418-35.418
	V330.98H8.258V385.743z"/>
<path style="fill:#333333;" d="M468.324,90.839H43.676c-19.561,0-35.418,15.857-35.418,35.417v54.763h495.484v-54.763
	C503.742,106.695,487.885,90.839,468.324,90.839z"/>
<rect x="8.258" y="208.544" style="fill:#ED1F34;" width="495.484" height="94.924"/>
<g>
	<rect x="8.258" y="181.017" style="fill:#FFFFFF;" width="495.484" height="27.52"/>
	<rect x="8.258" y="303.456" style="fill:#FFFFFF;" width="495.484" height="27.52"/>
</g>
<g>
	<path style="fill:#111A21;" d="M468.324,82.581H43.676C19.594,82.581,0,102.174,0,126.257v259.486
		c0,24.083,19.594,43.676,43.676,43.676h424.647c24.083,0,43.676-19.594,43.676-43.676V126.257
		C512,102.174,492.406,82.581,468.324,82.581z M43.676,99.097h424.647c14.977,0,27.16,12.183,27.16,27.16v74.024H16.516v-74.024
		C16.516,111.28,28.7,99.097,43.676,99.097z M468.324,412.903H43.676c-14.977,0-27.16-12.183-27.16-27.16v-74.025h421.161
		c4.562,0,8.258-3.696,8.258-8.258s-3.696-8.258-8.258-8.258H16.516v-78.404h478.968v78.404H470.71
		c-4.562,0-8.258,3.696-8.258,8.258s3.696,8.258,8.258,8.258h24.774v74.025C495.484,400.72,483.3,412.903,468.324,412.903z"/>
	<path style="fill:#111A21;" d="M153.6,366.658c-2.113,0-4.227-0.806-5.84-2.418c-3.225-3.226-3.225-8.454,0-11.679l204.8-204.8
		c3.226-3.224,8.454-3.224,11.679,0c3.225,3.226,3.225,8.454,0,11.679l-204.8,204.8C157.827,365.852,155.713,366.658,153.6,366.658z
		"/>
	<path style="fill:#111A21;" d="M358.4,366.658c-2.113,0-4.227-0.806-5.84-2.418l-204.8-204.8c-3.225-3.226-3.225-8.454,0-11.679
		c3.226-3.224,8.454-3.224,11.679,0l204.8,204.8c3.225,3.226,3.225,8.454,0,11.679C362.627,365.852,360.513,366.658,358.4,366.658z"
		/>
</g>
<path style="fill:#ED1F34;" d="M256,154.701c-18.718,0-55.054,45.353-55.054,101.299S237.282,357.299,256,357.299
	S311.054,311.946,311.054,256S274.718,154.701,256,154.701z"/>
<g>
	<path style="fill:#333333;" d="M295.088,319.712c9.197-17.404,15.966-39.569,15.966-63.712s-6.768-46.308-15.966-63.712
		c-9.197,17.404-15.966,39.569-15.966,63.712S285.891,302.308,295.088,319.712z"/>
	<path style="fill:#333333;" d="M216.912,319.712c-9.197-17.404-15.966-39.569-15.966-63.712s6.768-46.308,15.966-63.712
		c9.197,17.404,15.966,39.569,15.966,63.712S226.109,302.308,216.912,319.712z"/>
</g>
<path style="fill:#FFFFFF;" d="M256,365.557c-4.562,0-8.258-3.696-8.258-8.258V154.701c0-4.562,3.696-8.258,8.258-8.258
	c4.562,0,8.258,3.696,8.258,8.258v202.598C264.258,361.861,260.562,365.557,256,365.557z"/>
<path style="fill:#111A21;" d="M256,365.557c-12.733,0-28.654-12.859-41.555-33.56c-8.126-13.039-21.757-40.251-21.757-75.997
	c0-35.745,13.631-62.957,21.757-75.996c12.9-20.701,28.822-33.561,41.555-33.561c12.733,0,28.654,12.859,41.555,33.561
	c8.126,13.04,21.757,40.252,21.757,75.996c0,35.746-13.631,62.958-21.757,75.997C284.654,352.698,268.733,365.557,256,365.557z
	 M256,162.959c-11.311,0-46.796,38.607-46.796,93.041s35.484,93.041,46.796,93.041s46.796-38.607,46.796-93.041
	S267.311,162.959,256,162.959z"/>
<g>
</g>
<g>
</g>
<g>
</g>
<g>
</g>
<g>
</g>
<g>
</g>
<g>
</g>
<g>
</g>
<g>
</g>
<g>
</g>
<g>
</g>
<g>
</g>
<g>
</g>
<g>
</g>
<g>
</g>
</svg>
