<?xml version="1.0" encoding="iso-8859-1"?>
<!-- Generator: Adobe Illustrator 19.0.0, SVG Export Plug-In . SVG Version: 6.00 Build 0)  -->
<svg version="1.1" id="Layer_1" xmlns="http://www.w3.org/2000/svg" xmlns:xlink="http://www.w3.org/1999/xlink" x="0px" y="0px"
	 viewBox="0 0 512 512" style="enable-background:new 0 0 512 512;" xml:space="preserve">
<path style="fill:#ED1F34;" d="M503.742,384.826V127.174c0-20.067-16.268-36.335-36.335-36.335H44.594
	c-20.067,0-36.335,16.268-36.335,36.335v257.652c0,20.067,16.268,36.335,36.335,36.335h422.813
	C487.474,421.161,503.742,404.893,503.742,384.826z"/>
<g>
	<path style="fill:#FFE000;" d="M256,346.839c-50.089,0-90.839-40.75-90.839-90.839s40.75-90.839,90.839-90.839
		s90.839,40.75,90.839,90.839S306.089,346.839,256,346.839z M256,181.677c-40.982,0-74.323,33.341-74.323,74.323
		s33.341,74.323,74.323,74.323s74.323-33.341,74.323-74.323S296.982,181.677,256,181.677z"/>
	<path style="fill:#FFE000;" d="M256,240.282c-20.991,12.295-35.445,34.578-36.775,60.285c10,8.267,22.818,13.239,36.775,13.239
		c13.957,0,26.775-4.972,36.775-13.239C291.445,274.86,276.991,252.577,256,240.282z"/>
	<path style="fill:#FFE000;" d="M274.15,232.678c16.086,12.487,27.887,30.241,32.771,50.655c4.389-8.144,6.885-17.452,6.885-27.333
		c0-8.701-1.944-16.952-5.402-24.36c-4.836-0.993-9.842-1.515-14.968-1.515C286.766,230.125,280.304,231.022,274.15,232.678z"/>
	<path style="fill:#FFE000;" d="M256,221.715c11.425-5.19,24.093-8.106,37.437-8.106c0.623,0,1.239,0.034,1.86,0.047
		c-10.323-9.586-24.133-15.462-39.296-15.462s-28.974,5.876-39.296,15.462c0.621-0.012,1.235-0.047,1.86-0.047
		C231.907,213.609,244.575,216.524,256,221.715z"/>
	<path style="fill:#FFE000;" d="M205.079,283.333c4.884-20.414,16.686-38.169,32.771-50.655c-6.155-1.656-12.616-2.553-19.286-2.553
		c-5.126,0-10.132,0.522-14.968,1.515c-3.457,7.409-5.402,15.66-5.402,24.36C198.194,265.881,200.69,275.19,205.079,283.333z"/>
	<path style="fill:#FFE000;" d="M256,181.677c-4.561,0-8.258-3.697-8.258-8.258v-16.883c0-4.561,3.697-8.258,8.258-8.258
		c4.561,0,8.258,3.697,8.258,8.258v16.883C264.258,177.98,260.561,181.677,256,181.677z"/>
	<path style="fill:#FFE000;" d="M227.756,186.66c-3.374,0-6.539-2.082-7.76-5.436l-5.775-15.865
		c-1.56-4.286,0.65-9.024,4.935-10.585c4.286-1.561,9.024,0.65,10.585,4.935l5.775,15.865c1.56,4.286-0.65,9.024-4.935,10.585
		C229.648,186.499,228.694,186.66,227.756,186.66z"/>
	<path style="fill:#FFE000;" d="M202.923,200.998c-2.357,0-4.697-1.003-6.331-2.95l-10.852-12.933
		c-2.931-3.494-2.476-8.703,1.018-11.634c3.493-2.931,8.702-2.476,11.634,1.018l10.852,12.933c2.931,3.494,2.476,8.703-1.018,11.634
		C206.68,200.364,204.796,200.998,202.923,200.998z"/>
	<path style="fill:#FFE000;" d="M184.475,222.969c-1.401,0-2.821-0.357-4.121-1.108l-14.621-8.442
		c-3.95-2.28-5.303-7.331-3.022-11.281c2.28-3.95,7.331-5.304,11.281-3.022l14.621,8.442c3.95,2.28,5.303,7.331,3.022,11.281
		C190.105,221.488,187.329,222.969,184.475,222.969z"/>
	<path style="fill:#FFE000;" d="M174.683,249.92c-0.477,0-0.959-0.042-1.444-0.127l-16.627-2.932
		c-4.491-0.792-7.491-5.075-6.699-9.566c0.792-4.492,5.077-7.492,9.566-6.699l16.627,2.932c4.491,0.792,7.491,5.075,6.699,9.566
		C182.1,247.1,178.615,249.92,174.683,249.92z"/>
	<path style="fill:#FFE000;" d="M158.037,281.532c-3.932,0-7.417-2.82-8.123-6.826c-0.792-4.491,2.208-8.774,6.699-9.566
		l16.627-2.932c4.497-0.791,8.774,2.208,9.566,6.699c0.792,4.491-2.208,8.774-6.699,9.566l-16.627,2.932
		C158.996,281.49,158.513,281.532,158.037,281.532z"/>
	<path style="fill:#FFE000;" d="M169.869,313.991c-2.854,0-5.63-1.481-7.159-4.13c-2.28-3.95-0.927-9,3.022-11.281l14.621-8.441
		c3.95-2.28,9-0.927,11.281,3.022c2.28,3.95,0.927,9-3.022,11.28l-14.621,8.442C172.69,313.635,171.27,313.991,169.869,313.991z"/>
	<path style="fill:#FFE000;" d="M192.062,340.451c-1.873,0-3.757-0.634-5.304-1.931c-3.494-2.932-3.95-8.14-1.018-11.634
		l10.852-12.933c2.931-3.494,8.14-3.948,11.634-1.018c3.494,2.932,3.95,8.141,1.018,11.634l-10.852,12.933
		C196.759,339.448,194.418,340.451,192.062,340.451z"/>
	<path style="fill:#FFE000;" d="M221.981,357.726c-0.938,0-1.892-0.161-2.824-0.5c-4.285-1.56-6.495-6.299-4.935-10.585
		l5.775-15.865c1.561-4.286,6.299-6.494,10.585-4.935c4.285,1.56,6.495,6.299,4.935,10.585l-5.775,15.865
		C228.52,355.644,225.354,357.726,221.981,357.726z"/>
	<path style="fill:#FFE000;" d="M256,363.722c-4.561,0-8.258-3.697-8.258-8.258v-16.883c0-4.561,3.697-8.258,8.258-8.258
		c4.561,0,8.258,3.697,8.258,8.258v16.883C264.258,360.025,260.561,363.722,256,363.722z"/>
	<path style="fill:#FFE000;" d="M290.019,357.726c-3.373,0-6.539-2.082-7.76-5.435l-5.775-15.865
		c-1.56-4.286,0.65-9.024,4.935-10.585c4.284-1.56,9.024,0.65,10.585,4.935l5.775,15.865c1.56,4.286-0.65,9.024-4.935,10.585
		C291.912,357.565,290.957,357.726,290.019,357.726z"/>
	<path style="fill:#FFE000;" d="M319.938,340.451c-2.357,0-4.697-1.003-6.33-2.95l-10.852-12.933
		c-2.931-3.494-2.476-8.703,1.018-11.634c3.493-2.931,8.702-2.475,11.634,1.018l10.852,12.933c2.931,3.494,2.476,8.703-1.018,11.634
		C323.695,339.818,321.811,340.451,319.938,340.451z"/>
	<path style="fill:#FFE000;" d="M342.131,313.991c-1.401,0-2.821-0.357-4.121-1.108l-14.621-8.442
		c-3.95-2.28-5.303-7.331-3.022-11.281c2.28-3.95,7.33-5.304,11.281-3.022l14.621,8.441c3.95,2.28,5.303,7.331,3.022,11.281
		C347.76,312.509,344.985,313.991,342.131,313.991z"/>
	<path style="fill:#FFE000;" d="M353.963,281.532c-0.477,0-0.959-0.042-1.444-0.127l-16.627-2.932
		c-4.491-0.792-7.491-5.075-6.699-9.566c0.792-4.492,5.077-7.49,9.567-6.699l16.627,2.932c4.491,0.792,7.491,5.075,6.699,9.566
		C361.38,278.712,357.894,281.532,353.963,281.532z"/>
	<path style="fill:#FFE000;" d="M337.317,249.92c-3.932,0-7.417-2.82-8.124-6.826c-0.792-4.491,2.208-8.774,6.699-9.566
		l16.627-2.932c4.495-0.789,8.776,2.208,9.567,6.699c0.792,4.491-2.208,8.774-6.699,9.566l-16.627,2.932
		C338.275,249.878,337.792,249.92,337.317,249.92z"/>
	<path style="fill:#FFE000;" d="M327.525,222.969c-2.854,0-5.63-1.481-7.159-4.13c-2.28-3.95-0.927-9,3.022-11.281l14.621-8.442
		c3.951-2.28,9-0.927,11.281,3.022s0.927,9-3.022,11.281l-14.621,8.442C330.346,222.612,328.925,222.969,327.525,222.969z"/>
	<path style="fill:#FFE000;" d="M309.077,200.998c-1.873,0-3.757-0.634-5.304-1.931c-3.494-2.932-3.95-8.141-1.018-11.634
		l10.852-12.933c2.931-3.495,8.14-3.948,11.634-1.018c3.494,2.932,3.95,8.14,1.018,11.634l-10.852,12.933
		C313.775,199.995,311.434,200.998,309.077,200.998z"/>
	<path style="fill:#FFE000;" d="M284.244,186.66c-0.938,0-1.892-0.161-2.824-0.5c-4.285-1.56-6.495-6.299-4.935-10.585l5.775-15.865
		c1.56-4.286,6.297-6.495,10.585-4.935c4.285,1.56,6.495,6.299,4.935,10.585l-5.775,15.865
		C290.783,184.578,287.616,186.66,284.244,186.66z"/>
</g>
<path style="fill:#111A21;" d="M468.324,429.419H43.676C19.593,429.419,0,409.827,0,385.743V126.257
	c0-24.084,19.593-43.676,43.676-43.676h424.648c24.083,0,43.675,19.593,43.675,43.676v259.487
	C512,409.827,492.407,429.419,468.324,429.419z M43.676,99.097c-14.977,0-27.16,12.183-27.16,27.16v259.487
	c0,14.976,12.183,27.159,27.16,27.159h424.648c14.976,0,27.159-12.183,27.159-27.16V126.257c0-14.977-12.183-27.16-27.16-27.16
	H43.676z"/>
<g>
</g>
<g>
</g>
<g>
</g>
<g>
</g>
<g>
</g>
<g>
</g>
<g>
</g>
<g>
</g>
<g>
</g>
<g>
</g>
<g>
</g>
<g>
</g>
<g>
</g>
<g>
</g>
<g>
</g>
</svg>
