<?xml version="1.0" encoding="iso-8859-1"?>
<!-- Generator: Adobe Illustrator 19.0.0, SVG Export Plug-In . SVG Version: 6.00 Build 0)  -->
<svg version="1.1" id="Layer_1" xmlns="http://www.w3.org/2000/svg" xmlns:xlink="http://www.w3.org/1999/xlink" x="0px" y="0px"
	 viewBox="0 0 512 512" style="enable-background:new 0 0 512 512;" xml:space="preserve">
<g>
	<path style="fill:#103B9B;" d="M468.324,90.839H43.676c-19.561,0-35.418,15.857-35.418,35.418v39.455h495.484v-39.455
		C503.742,106.695,487.885,90.839,468.324,90.839z"/>
	<path style="fill:#103B9B;" d="M8.258,385.743c0,19.562,15.858,35.418,35.418,35.418h424.648c19.561,0,35.418-15.857,35.418-35.418
		v-39.455H8.258V385.743z"/>
</g>
<rect x="8.258" y="165.712" style="fill:#ED1F34;" width="495.484" height="180.576"/>
<path style="fill:#FFFFFF;" d="M331.692,256.275c-0.026-15.443-14.583-23.578-14.583-23.578s-14.556,8.136-14.583,23.578h-18.451
	c-0.022-34.9-28.076-53.953-28.076-53.953s-28.054,19.053-28.076,53.953h-18.451c-0.026-15.443-14.583-23.578-14.583-23.578
	s-14.556,8.136-14.583,23.578h-13.495v53.402h178.374v-53.402H331.692z"/>
<g>
	<path style="fill:#121B21;" d="M356.198,301.419h-2.753v-45.144c0-4.562-3.696-8.258-8.258-8.258h-6.315
		c-3.9-14.629-17.08-22.164-17.733-22.529c-2.503-1.399-5.555-1.399-8.058,0c-0.654,0.366-13.833,7.9-17.733,22.529h-3.485
		c-3.85-33.555-30.025-51.712-31.222-52.526c-2.8-1.904-6.48-1.904-9.28,0c-1.198,0.814-27.372,18.972-31.222,52.526h-3.485
		c-3.9-14.629-17.08-22.164-17.733-22.529c-2.503-1.399-5.555-1.399-8.058,0c-0.654,0.366-13.834,7.9-17.733,22.529h-6.319
		c-4.562,0-8.258,3.696-8.258,8.258v45.144h-2.753c-4.562,0-8.258,3.696-8.258,8.258s3.696,8.258,8.258,8.258h200.396
		c4.562,0,8.258-3.696,8.258-8.258S360.76,301.419,356.198,301.419z M175.071,264.533h5.237c4.555,0,8.25-3.689,8.258-8.244
		c0.011-5.925,3.43-10.451,6.336-13.231c2.901,2.77,6.304,7.284,6.314,13.231c0.008,4.556,3.703,8.244,8.258,8.244h18.451
		c4.56,0,8.255-3.694,8.258-8.253c0.014-21.998,12.714-36.769,19.817-43.31c7.114,6.551,19.805,21.319,19.819,43.31
		c0.003,4.56,3.699,8.253,8.258,8.253h18.451c4.555,0,8.25-3.689,8.258-8.244c0.011-5.925,3.43-10.451,6.336-13.231
		c2.901,2.77,6.304,7.284,6.314,13.231c0.008,4.556,3.703,8.244,8.258,8.244h5.237v36.886H175.071V264.533z"/>
	<path style="fill:#121B21;" d="M468.324,82.581H43.676C19.594,82.581,0,102.174,0,126.257v259.486
		c0,24.083,19.594,43.676,43.676,43.676h424.647c24.083,0,43.676-19.594,43.676-43.676V126.257
		C512,102.174,492.406,82.581,468.324,82.581z M43.676,99.097h424.647c14.977,0,27.16,12.183,27.16,27.16v31.197H470.71
		c-4.562,0-8.258,3.696-8.258,8.258c0,4.562,3.696,8.258,8.258,8.258h24.774v164.06H16.516V173.97h421.161
		c4.562,0,8.258-3.696,8.258-8.258c0-4.562-3.696-8.258-8.258-8.258H16.516v-31.197C16.516,111.28,28.7,99.097,43.676,99.097z
		 M468.324,412.903H43.676c-14.977,0-27.16-12.183-27.16-27.16v-31.197h478.968v31.197
		C495.484,400.72,483.3,412.903,468.324,412.903z"/>
</g>
<g>
</g>
<g>
</g>
<g>
</g>
<g>
</g>
<g>
</g>
<g>
</g>
<g>
</g>
<g>
</g>
<g>
</g>
<g>
</g>
<g>
</g>
<g>
</g>
<g>
</g>
<g>
</g>
<g>
</g>
</svg>
