<?xml version="1.0" encoding="iso-8859-1"?>
<!-- Generator: Adobe Illustrator 19.0.0, SVG Export Plug-In . SVG Version: 6.00 Build 0)  -->
<svg version="1.1" id="Layer_1" xmlns="http://www.w3.org/2000/svg" xmlns:xlink="http://www.w3.org/1999/xlink" x="0px" y="0px"
	 viewBox="0 0 512 512" style="enable-background:new 0 0 512 512;" xml:space="preserve">
<path style="fill:#ED1F34;" d="M472.358,421.161H39.644c-17.334,0-31.385-14.052-31.385-31.385V122.223
	c0-17.334,14.052-31.385,31.385-31.385h432.713c17.334,0,31.385,14.052,31.385,31.385v267.553
	C503.743,407.11,489.691,421.161,472.358,421.161z"/>
<path style="fill:#FFE000;" d="M255.995,193.677c-32.28,0-58.543,26.262-58.543,58.543c0,32.282,26.262,58.543,58.543,58.543
	s58.543-26.262,58.543-58.543C314.537,219.939,288.275,193.677,255.995,193.677z"/>
<path style="fill:#111A21;" d="M255.995,319.021c-36.834,0-66.801-29.966-66.801-66.801s29.966-66.801,66.801-66.801
	s66.802,29.967,66.802,66.801S292.829,319.021,255.995,319.021z M255.995,201.935c-27.728,0-50.285,22.558-50.285,50.285
	s22.557,50.285,50.285,50.285s50.286-22.557,50.286-50.285S283.722,201.935,255.995,201.935z"/>
<path style="fill:#103B9B;" d="M421.158,265.909c-41.293,0-41.293-19.819-82.585-19.819c-41.29,0-41.29,19.819-82.582,19.819
	c-41.289,0-41.289-19.819-82.579-19.819c-41.287,0-41.287,19.819-82.575,19.819c-41.287,0-41.289-19.817-82.572-19.819V385.74
	c0,19.56,15.857,35.417,35.417,35.417H468.32c19.56,0,35.417-15.857,35.417-35.417V246.091
	C462.451,246.093,462.448,265.909,421.158,265.909z"/>
<g>
	<path style="fill:#FFFFFF;" d="M421.158,362.251c-22.525,0-34.395-5.697-44.867-10.723c-10.169-4.881-18.952-9.096-37.72-9.096
		c-18.766,0-27.548,4.216-37.716,9.096c-10.471,5.026-22.34,10.723-44.864,10.723c-22.523,0-34.391-5.697-44.863-10.723
		c-10.168-4.881-18.95-9.096-37.716-9.096c-18.764,0-27.546,4.216-37.714,9.096c-10.471,5.026-22.338,10.723-44.861,10.723
		c-22.524,0-34.391-5.697-44.863-10.723c-10.168-4.881-18.95-9.096-37.715-9.096c-4.561,0-8.258-3.697-8.258-8.258
		c0-4.561,3.697-8.258,8.258-8.258c22.524,0,34.391,5.697,44.863,10.723c10.168,4.881,18.95,9.096,37.715,9.096
		c18.764,0,27.546-4.216,37.714-9.096c10.471-5.026,22.338-10.723,44.861-10.723c22.524,0,34.392,5.697,44.863,10.723
		c10.168,4.881,18.95,9.096,37.715,9.096c18.766,0,27.549-4.216,37.717-9.097c10.471-5.026,22.34-10.722,44.864-10.722
		c22.525,0,34.395,5.697,44.865,10.722c10.169,4.881,18.952,9.097,37.72,9.097s27.55-4.216,37.72-9.097
		c10.471-5.026,22.34-10.722,44.865-10.722c4.561,0,8.258,3.697,8.258,8.258c0,4.561-3.697,8.258-8.258,8.258
		c-18.767,0-27.549,4.216-37.72,9.097C455.553,356.554,443.683,362.251,421.158,362.251z"/>
	<path style="fill:#FFFFFF;" d="M421.158,318.209c-22.525,0-34.395-5.697-44.867-10.723c-10.169-4.881-18.952-9.096-37.72-9.096
		c-18.766,0-27.548,4.216-37.716,9.096c-10.471,5.026-22.34,10.723-44.864,10.723c-22.523,0-34.391-5.697-44.863-10.723
		c-10.168-4.881-18.95-9.096-37.716-9.096c-18.764,0-27.546,4.216-37.714,9.096c-10.471,5.026-22.338,10.723-44.861,10.723
		c-22.524,0-34.391-5.697-44.863-10.723c-10.168-4.881-18.95-9.096-37.715-9.096c-4.561,0-8.258-3.697-8.258-8.258
		c0-4.561,3.697-8.258,8.258-8.258c22.524,0,34.391,5.697,44.863,10.723c10.168,4.881,18.95,9.096,37.715,9.096
		c18.764,0,27.546-4.216,37.714-9.096c10.471-5.026,22.338-10.723,44.861-10.723c22.524,0,34.392,5.697,44.863,10.723
		c10.168,4.881,18.95,9.096,37.715,9.096c18.766,0,27.549-4.216,37.717-9.097c10.471-5.026,22.34-10.722,44.864-10.722
		c22.525,0,34.395,5.697,44.865,10.722c10.169,4.881,18.952,9.097,37.72,9.097s27.55-4.216,37.72-9.097
		c10.471-5.026,22.34-10.722,44.865-10.722c4.561,0,8.258,3.697,8.258,8.258c0,4.561-3.697,8.258-8.258,8.258
		c-18.767,0-27.549,4.216-37.72,9.097C455.553,312.512,443.683,318.209,421.158,318.209z"/>
	<path style="fill:#FFFFFF;" d="M421.158,274.167c-22.525,0-34.395-5.697-44.867-10.723c-10.169-4.881-18.952-9.096-37.72-9.096
		c-18.766,0-27.548,4.216-37.716,9.096c-10.471,5.026-22.34,10.723-44.864,10.723c-22.523,0-34.391-5.697-44.863-10.723
		c-10.168-4.881-18.95-9.096-37.716-9.096c-18.764,0-27.546,4.216-37.714,9.096c-10.471,5.026-22.338,10.723-44.861,10.723
		c-22.524,0-34.391-5.697-44.863-10.723c-10.168-4.881-18.95-9.096-37.715-9.096c-4.561,0-8.258-3.697-8.258-8.258
		s3.697-8.258,8.258-8.258c22.524,0,34.391,5.697,44.863,10.723c10.168,4.881,18.95,9.096,37.715,9.096
		c18.764,0,27.546-4.216,37.714-9.096c10.471-5.026,22.338-10.723,44.861-10.723c22.524,0,34.392,5.697,44.863,10.723
		c10.168,4.881,18.95,9.096,37.715,9.096c18.766,0,27.549-4.216,37.717-9.097c10.471-5.025,22.34-10.722,44.864-10.722
		c22.525,0,34.395,5.697,44.865,10.722c10.169,4.881,18.952,9.097,37.72,9.097s27.55-4.216,37.72-9.097
		c10.471-5.025,22.34-10.722,44.865-10.722c4.561,0,8.258,3.697,8.258,8.258s-3.697,8.258-8.258,8.258
		c-18.767,0-27.549,4.216-37.72,9.097C455.553,268.47,443.683,274.167,421.158,274.167z"/>
</g>
<g>
	<path style="fill:#111A21;" d="M323.495,130.486h-49.337c-1.995,0-3.923,0.722-5.427,2.034l-12.737,11.104l-12.737-11.104
		c-1.504-1.311-3.432-2.034-5.427-2.034h-49.337c-4.561,0-8.258,3.697-8.258,8.258c0,4.561,3.697,8.258,8.258,8.258h46.243
		l15.831,13.803c1.556,1.355,3.49,2.034,5.427,2.034c1.936,0,3.872-0.678,5.426-2.034l15.832-13.803h46.242
		c4.561,0,8.258-3.697,8.258-8.258S328.056,130.486,323.495,130.486z"/>
	<path style="fill:#111A21;" d="M468.319,429.415H43.682c-24.082,0-43.675-19.592-43.675-43.675v-259.48
		c0-24.082,19.592-43.674,43.675-43.674h424.637c24.082,0,43.675,19.592,43.675,43.674v259.48
		C511.995,409.822,492.401,429.415,468.319,429.415z M43.682,99.101c-14.975,0-27.16,12.183-27.16,27.158v259.48
		c0,14.975,12.183,27.16,27.16,27.16h424.637c14.975,0,27.16-12.183,27.16-27.16v-259.48c0-14.975-12.183-27.158-27.16-27.158
		H43.682z"/>
</g>
<g>
</g>
<g>
</g>
<g>
</g>
<g>
</g>
<g>
</g>
<g>
</g>
<g>
</g>
<g>
</g>
<g>
</g>
<g>
</g>
<g>
</g>
<g>
</g>
<g>
</g>
<g>
</g>
<g>
</g>
</svg>
