<?xml version="1.0" encoding="iso-8859-1"?>
<!-- Generator: Adobe Illustrator 19.0.0, SVG Export Plug-In . SVG Version: 6.00 Build 0)  -->
<svg version="1.1" id="Layer_1" xmlns="http://www.w3.org/2000/svg" xmlns:xlink="http://www.w3.org/1999/xlink" x="0px" y="0px"
	 viewBox="0 0 512 512" style="enable-background:new 0 0 512 512;" xml:space="preserve">
<path style="fill:#FFE000;" d="M468.324,90.839H43.676c-8.715,0-16.689,3.152-22.858,8.373l111.311,74.208h371.613v-47.162
	C503.742,106.695,487.884,90.839,468.324,90.839z"/>
<polygon style="fill:#FFFFFF;" points="256,256 503.742,256 503.742,173.419 132.129,173.419 "/>
<polygon style="fill:#ED1F34;" points="132.129,338.581 503.742,338.581 503.742,256 256,256 "/>
<path style="fill:#164FCE;" d="M20.818,412.789c6.169,5.22,14.144,8.373,22.858,8.373h424.648c19.561,0,35.418-15.857,35.418-35.418
	v-47.162H132.129L20.818,412.789z"/>
<g>
	<path style="fill:#111A21;" d="M503.742,330.323H8.258c-4.561,0-8.258,3.696-8.258,8.258s3.697,8.258,8.258,8.258h495.484
		c4.561,0,8.258-3.696,8.258-8.258S508.303,330.323,503.742,330.323z"/>
	<path style="fill:#111A21;" d="M503.742,247.742H8.258C3.697,247.742,0,251.438,0,256c0,4.562,3.697,8.258,8.258,8.258h495.484
		c4.561,0,8.258-3.696,8.258-8.258C512,251.438,508.303,247.742,503.742,247.742z"/>
	<path style="fill:#111A21;" d="M8.258,181.677h495.484c4.561,0,8.258-3.696,8.258-8.258c0-4.562-3.697-8.258-8.258-8.258H8.258
		c-4.561,0-8.258,3.696-8.258,8.258C0,177.981,3.697,181.677,8.258,181.677z"/>
</g>
<path style="fill:#259245;" d="M256,256l-123.871-82.581L20.818,99.211c-7.679,6.497-12.56,16.199-12.56,27.046v47.162V256v82.581
	v47.162c0,10.847,4.881,20.548,12.56,27.046l111.311-74.208L256,256z"/>
<g>
	<path style="fill:#FFFFFF;" d="M116.594,278.869c-4.561,0-8.258-3.696-8.258-8.258v-29.223c0-4.562,3.697-8.258,8.258-8.258
		s8.258,3.696,8.258,8.258v29.221C124.852,275.172,121.155,278.869,116.594,278.869z"/>
	<path style="fill:#FFFFFF;" d="M114.558,214.912c-22.692,0-41.088,18.396-41.088,41.088s18.396,41.087,41.088,41.087
		c0.683,0,1.361-0.019,2.036-0.051c-6.808,3.828-14.658,6.021-23.023,6.021c-25.989,0-47.057-21.068-47.057-47.057
		s21.068-47.058,47.057-47.058c8.366,0,16.217,2.193,23.023,6.021C115.919,214.931,115.241,214.912,114.558,214.912z"/>
</g>
<g>
	<path style="fill:#111A21;" d="M116.2,288.788c-0.544,0.025-1.091,0.041-1.642,0.041c-18.102,0-32.83-14.727-32.83-32.829
		s14.728-32.829,32.83-32.829c0.551,0,1.098,0.015,1.642,0.041c0.149,0.008,0.296,0.017,0.444,0.01
		c4.547-0.015,8.231-3.706,8.231-8.258c0-3.266-1.896-6.089-4.647-7.429c-8.137-4.481-17.343-6.85-26.657-6.85
		c-30.501,0-55.315,24.814-55.315,55.315s24.814,55.315,55.315,55.315c9.473,0,18.833-2.449,27.071-7.081
		c3.337-1.876,4.947-5.8,3.889-9.479C123.472,291.074,120.03,288.583,116.2,288.788z M54.771,256
		c0-17.358,11.457-32.09,27.205-37.03c-10.273,9.05-16.765,22.297-16.765,37.03c0,14.733,6.492,27.981,16.765,37.03
		C66.227,288.09,54.771,273.358,54.771,256z"/>
	<path style="fill:#111A21;" d="M468.324,82.581H43.676c-10.579,0-20.291,3.784-27.857,10.066c-0.294,0.225-0.578,0.465-0.845,0.731
		C5.807,101.39,0,113.155,0,126.257v259.486c0,13.167,5.865,24.982,15.11,32.997c0.192,0.185,0.392,0.355,0.598,0.519
		c7.582,6.337,17.335,10.161,27.968,10.161h424.648c24.083,0,43.675-19.594,43.675-43.676V126.257
		C512,102.174,492.407,82.581,468.324,82.581z M16.516,385.743V126.257c0-6.127,2.041-11.786,5.478-16.337L241.112,256
		L21.994,402.08C18.558,397.529,16.516,391.871,16.516,385.743z M495.484,385.743c0,14.977-12.183,27.16-27.16,27.16H43.676
		c-2.361,0-4.65-0.304-6.835-0.872l223.74-149.16c2.297-1.532,3.678-4.109,3.678-6.871s-1.38-5.34-3.678-6.871L36.841,99.969
		c2.185-0.568,4.475-0.872,6.835-0.872h424.648c14.976,0,27.159,12.183,27.159,27.16V385.743z"/>
</g>
<g>
</g>
<g>
</g>
<g>
</g>
<g>
</g>
<g>
</g>
<g>
</g>
<g>
</g>
<g>
</g>
<g>
</g>
<g>
</g>
<g>
</g>
<g>
</g>
<g>
</g>
<g>
</g>
<g>
</g>
</svg>
