<?xml version="1.0" encoding="iso-8859-1"?>
<!-- Generator: Adobe Illustrator 19.0.0, SVG Export Plug-In . SVG Version: 6.00 Build 0)  -->
<svg version="1.1" id="Layer_1" xmlns="http://www.w3.org/2000/svg" xmlns:xlink="http://www.w3.org/1999/xlink" x="0px" y="0px"
	 viewBox="0 0 512 512" style="enable-background:new 0 0 512 512;" xml:space="preserve">
<path style="fill:#259245;" d="M354.861,90.833H41.84c-18.551,0-33.588,15.038-33.588,33.588v197.497L354.861,90.833z"/>
<path style="fill:#ED1F34;" d="M157.127,421.167h311.932c19.159,0,34.689-15.531,34.689-34.689V190.093L157.127,421.167z"/>
<path style="fill:#FFE000;" d="M503.749,190.093V122.77c0-17.638-14.299-31.937-31.937-31.937H354.861L8.251,321.917v67.312
	c0,17.638,14.299,31.937,31.937,31.937h116.937L503.749,190.093z"/>
<path style="fill:#333333;" d="M8.251,355v32.578c0,18.551,15.038,33.588,33.588,33.588h65.66L503.747,157.01v-32.589
	c0-18.551-15.038-33.588-33.588-33.588h-65.674L8.251,355z"/>
<g>
	<polygon style="fill:#FFFFFF;" points="127.823,329.869 153.216,310.978 146.24,280.106 172.054,298.419 199.259,282.244 
		189.82,312.454 213.61,333.33 181.962,333.687 169.459,362.764 159.339,332.775 	"/>
	<polygon style="fill:#FFFFFF;" points="302.189,213.625 327.582,194.733 320.607,163.862 346.42,182.174 373.626,166 
		364.186,196.209 387.976,217.086 356.328,217.444 343.825,246.519 333.705,216.531 	"/>
</g>
<g>
	<path style="fill:#121B21;" d="M199.305,309.79l7.837-25.082c1.02-3.266-0.079-6.821-2.764-8.942
		c-2.686-2.123-6.399-2.367-9.339-0.618l-22.589,13.429l-21.432-15.206c-2.792-1.98-6.513-2.034-9.359-0.135
		s-4.228,5.353-3.474,8.692l5.793,25.632l-21.083,15.685c-2.745,2.041-3.946,5.566-3.021,8.859c0.926,3.293,3.785,5.675,7.192,5.99
		l26.168,2.412l8.402,24.899c1.094,3.24,4.073,5.473,7.493,5.611c0.112,0.004,0.222,0.007,0.335,0.007
		c3.287,0,6.277-1.956,7.584-4.996l10.381-24.142l26.277-0.296c3.42-0.039,6.463-2.182,7.65-5.391
		c1.188-3.209,0.274-6.817-2.297-9.073L199.305,309.79z M181.868,325.429c-3.266,0.037-6.203,1.996-7.493,4.996l-3.986,9.269
		l-3.226-9.56c-1.044-3.095-3.814-5.283-7.067-5.582l-10.047-0.926l8.095-6.023c2.621-1.95,3.846-5.26,3.126-8.446l-2.224-9.841
		l8.228,5.838c2.664,1.889,6.189,2.035,8.999,0.362l8.673-5.156l-3.009,9.631c-0.973,3.117-0.02,6.515,2.436,8.669l7.584,6.656
		L181.868,325.429z"/>
	<path style="fill:#121B21;" d="M373.67,193.545l7.837-25.081c1.021-3.266-0.077-6.822-2.763-8.943
		c-2.686-2.121-6.399-2.367-9.339-0.619l-22.589,13.429l-21.432-15.206c-2.792-1.98-6.514-2.034-9.359-0.135
		c-2.846,1.898-4.228,5.353-3.474,8.692l5.792,25.632l-21.083,15.685c-2.745,2.041-3.946,5.566-3.021,8.859
		c0.926,3.293,3.785,5.675,7.192,5.99l26.168,2.412l8.402,24.899c1.093,3.24,4.073,5.472,7.492,5.611
		c0.113,0.004,0.224,0.007,0.336,0.007c3.287,0,6.277-1.956,7.584-4.996l10.382-24.142l26.276-0.297
		c3.42-0.04,6.463-2.182,7.651-5.391c1.187-3.209,0.273-6.817-2.298-9.074L373.67,193.545z M356.234,209.184
		c-3.266,0.037-6.203,1.996-7.493,4.996l-3.986,9.27l-3.226-9.561c-1.044-3.094-3.814-5.283-7.067-5.582l-10.048-0.926l8.096-6.023
		c2.621-1.949,3.846-5.26,3.126-8.446l-2.224-9.841l8.229,5.838c2.665,1.889,6.19,2.034,8.999,0.362l8.672-5.156l-3.008,9.63
		c-0.974,3.118-0.021,6.516,2.434,8.671l7.584,6.654L356.234,209.184z"/>
	<path style="fill:#121B21;" d="M468.324,82.581H43.676C19.594,82.581,0,102.174,0,126.257v259.486
		c0,24.083,19.594,43.676,43.676,43.676h424.647c24.083,0,43.676-19.594,43.676-43.676V126.257
		C512,102.174,492.406,82.581,468.324,82.581z M495.484,385.743c0,14.977-12.183,27.16-27.16,27.16H43.676
		c-14.977,0-27.16-12.183-27.16-27.16V126.257c0-14.977,12.183-27.16,27.16-27.16h424.647c14.977,0,27.16,12.183,27.16,27.16
		V385.743z"/>
</g>
<g>
</g>
<g>
</g>
<g>
</g>
<g>
</g>
<g>
</g>
<g>
</g>
<g>
</g>
<g>
</g>
<g>
</g>
<g>
</g>
<g>
</g>
<g>
</g>
<g>
</g>
<g>
</g>
<g>
</g>
</svg>
