<?xml version="1.0" encoding="iso-8859-1"?>
<!-- Generator: Adobe Illustrator 19.0.0, SVG Export Plug-In . SVG Version: 6.00 Build 0)  -->
<svg version="1.1" id="Layer_1" xmlns="http://www.w3.org/2000/svg" xmlns:xlink="http://www.w3.org/1999/xlink" x="0px" y="0px"
	 viewBox="0 0 512 512" style="enable-background:new 0 0 512 512;" xml:space="preserve">
<g>
	<path style="fill:#103B9B;" d="M468.324,90.839H43.676c-19.561,0-35.418,15.857-35.418,35.418v12.482h495.484v-12.482
		C503.742,106.695,487.885,90.839,468.324,90.839z"/>
	<path style="fill:#103B9B;" d="M8.258,385.743c0,19.562,15.858,35.418,35.418,35.418h424.648c19.561,0,35.418-15.857,35.418-35.418
		v-12.482H8.258V385.743z"/>
</g>
<rect x="8.258" y="346.288" style="fill:#FFFFFF;" width="495.484" height="26.973"/>
<path style="fill:#ED1F34;" d="M8.258,346.288h495.484V165.712H8.258V346.288z M134.882,194.89c33.696,0,61.11,27.415,61.11,61.11
	s-27.413,61.11-61.11,61.11s-61.11-27.413-61.11-61.11S101.186,194.89,134.882,194.89z"/>
<g>
	<rect x="8.258" y="138.735" style="fill:#FFFFFF;" width="495.484" height="26.973"/>
	<path style="fill:#FFFFFF;" d="M134.882,317.11c33.696,0,61.11-27.413,61.11-61.11s-27.413-61.11-61.11-61.11
		s-61.11,27.415-61.11,61.11S101.186,317.11,134.882,317.11z"/>
</g>
<polygon style="fill:#ED1F34;" points="91.953,242.95 123.562,241.317 134.882,211.761 146.202,241.317 177.81,242.95 
	153.198,262.85 161.413,293.416 134.882,276.157 108.35,293.416 116.565,262.85 "/>
<g>
	<path style="fill:#121B21;" d="M178.235,234.703l-26.243-1.355l-9.399-24.541c-1.223-3.194-4.291-5.304-7.712-5.304
		s-6.489,2.11-7.712,5.304l-9.399,24.541l-26.243,1.355c-3.418,0.176-6.371,2.442-7.428,5.696s0.001,6.822,2.661,8.973
		l20.435,16.522l-6.82,25.379c-0.889,3.304,0.353,6.813,3.122,8.824c2.767,2.011,6.489,2.106,9.357,0.242l22.028-14.328
		l22.028,14.328c1.372,0.892,2.939,1.336,4.503,1.336c1.707,0,3.41-0.527,4.854-1.578c2.768-2.011,4.01-5.52,3.122-8.824
		l-6.82-25.379l20.435-16.522c2.66-2.15,3.718-5.719,2.661-8.973C184.606,237.145,181.652,234.879,178.235,234.703z
		 M148.007,256.428c-2.54,2.053-3.63,5.411-2.782,8.564l2.618,9.745l-8.457-5.501c-1.37-0.891-2.937-1.336-4.503-1.336
		c-1.567,0-3.134,0.445-4.503,1.336l-8.457,5.501l2.618-9.745c0.848-3.153-0.243-6.511-2.782-8.564l-7.845-6.343l10.075-0.521
		c3.262-0.168,6.119-2.244,7.286-5.294l3.608-9.423l3.608,9.423c1.168,3.05,4.023,5.124,7.286,5.294l10.075,0.521L148.007,256.428z"
		/>
	<path style="fill:#121B21;" d="M468.324,82.581H43.676C19.594,82.581,0,102.174,0,126.257v259.486
		c0,24.083,19.594,43.676,43.676,43.676h424.647c24.083,0,43.676-19.594,43.676-43.676V126.257
		C512,102.174,492.406,82.581,468.324,82.581z M43.676,99.097h424.647c14.977,0,27.16,12.183,27.16,27.16v31.197H470.71
		c-4.562,0-8.258,3.696-8.258,8.258c0,4.562,3.696,8.258,8.258,8.258h24.774v164.06H16.516V173.97h421.161
		c4.562,0,8.258-3.696,8.258-8.258c0-4.562-3.696-8.258-8.258-8.258H16.516v-31.197C16.516,111.28,28.7,99.097,43.676,99.097z
		 M468.324,412.903H43.676c-14.977,0-27.16-12.183-27.16-27.16v-31.197h478.968v31.197
		C495.484,400.72,483.3,412.903,468.324,412.903z"/>
</g>
<g>
</g>
<g>
</g>
<g>
</g>
<g>
</g>
<g>
</g>
<g>
</g>
<g>
</g>
<g>
</g>
<g>
</g>
<g>
</g>
<g>
</g>
<g>
</g>
<g>
</g>
<g>
</g>
<g>
</g>
</svg>
