<?xml version="1.0" encoding="iso-8859-1"?>
<!-- Generator: Adobe Illustrator 19.0.0, SVG Export Plug-In . SVG Version: 6.00 Build 0)  -->
<svg version="1.1" id="Layer_1" xmlns="http://www.w3.org/2000/svg" xmlns:xlink="http://www.w3.org/1999/xlink" x="0px" y="0px"
	 viewBox="0 0 512 512" style="enable-background:new 0 0 512 512;" xml:space="preserve">
<path style="fill:#FFFFFF;" d="M503.742,127.891V384.11c0,20.464-16.589,37.052-37.052,37.052H45.31
	c-20.463-0.001-37.052-16.59-37.052-37.053V127.891c0-20.463,16.589-37.052,37.052-37.052h421.38
	C487.153,90.839,503.742,107.428,503.742,127.891z"/>
<path style="fill:#103B9B;" d="M173.419,256c0,45.608,36.973,82.581,82.581,82.581s82.581-36.973,82.581-82.581H173.419z"/>
<path style="fill:#ED1F34;" d="M256,173.419c-45.608,0-82.581,36.972-82.581,82.581h165.161
	C338.581,210.391,301.608,173.419,256,173.419z"/>
<g>
	<path style="fill:#121B21;" d="M256,165.161c-50.088,0-90.839,40.751-90.839,90.839s40.751,90.839,90.839,90.839
		s90.839-40.751,90.839-90.839S306.088,165.161,256,165.161z M256,330.323c-40.982,0-74.323-33.341-74.323-74.323
		s33.341-74.323,74.323-74.323s74.323,33.341,74.323,74.323S296.982,330.323,256,330.323z"/>
	<path style="fill:#121B21;" d="M88.792,204.279c1.301,0.751,2.721,1.108,4.121,1.108c2.854,0,5.63-1.481,7.159-4.13l30.555-52.922
		c2.28-3.95,0.927-9-3.022-11.281c-3.952-2.281-9.001-0.928-11.281,3.022l-30.555,52.922
		C83.488,196.948,84.842,201.999,88.792,204.279z"/>
	<path style="fill:#121B21;" d="M126.934,226.301c1.301,0.751,2.721,1.108,4.121,1.108c2.854,0,5.63-1.481,7.159-4.13l30.555-52.922
		c2.28-3.95,0.927-9-3.022-11.281c-3.952-2.28-9.001-0.928-11.281,3.022l-30.555,52.922
		C121.631,218.97,122.985,224.02,126.934,226.301z"/>
	<path style="fill:#121B21;" d="M107.864,215.29c1.301,0.751,2.721,1.108,4.121,1.108c2.854,0,5.63-1.481,7.159-4.13l30.555-52.922
		c2.28-3.95,0.927-9-3.022-11.281c-3.953-2.28-9.002-0.928-11.281,3.022l-30.555,52.922
		C102.561,207.959,103.914,213.01,107.864,215.29z"/>
	<path style="fill:#121B21;" d="M402.425,343.717c-3.953-2.279-9.001-0.929-11.281,3.022l-9.772,16.926
		c-2.28,3.95-0.927,9,3.022,11.28c1.301,0.751,2.721,1.108,4.121,1.108c2.854,0,5.63-1.481,7.159-4.13l9.772-16.926
		C407.729,351.048,406.375,345.997,402.425,343.717z"/>
	<path style="fill:#121B21;" d="M423.208,307.721c-3.953-2.28-9.001-0.928-11.281,3.022l-9.772,16.926
		c-2.28,3.95-0.927,9,3.022,11.28c1.301,0.751,2.721,1.108,4.121,1.108c2.854,0,5.63-1.481,7.159-4.13l9.772-16.926
		C428.512,315.052,427.158,310.001,423.208,307.721z"/>
	<path style="fill:#121B21;" d="M364.283,321.696c-3.952-2.28-9.001-0.928-11.281,3.022l-9.772,16.926
		c-2.28,3.95-0.927,9,3.022,11.281c1.301,0.751,2.721,1.108,4.121,1.108c2.854,0,5.63-1.481,7.159-4.13l9.772-16.926
		C369.586,329.027,368.233,323.976,364.283,321.696z"/>
	<path style="fill:#121B21;" d="M367.036,316.928c1.301,0.751,2.721,1.108,4.121,1.108c2.854,0,5.63-1.481,7.159-4.13l9.772-16.926
		c2.28-3.95,0.927-9-3.022-11.28c-3.952-2.281-9.001-0.929-11.28,3.022l-9.772,16.926
		C361.732,309.597,363.086,314.648,367.036,316.928z"/>
	<path style="fill:#121B21;" d="M383.354,332.706c-3.953-2.279-9.002-0.928-11.281,3.022l-9.772,16.926
		c-2.28,3.95-0.927,9,3.022,11.281c1.301,0.751,2.721,1.108,4.121,1.108c2.854,0,5.63-1.481,7.159-4.13l9.772-16.926
		C388.656,340.037,387.303,334.987,383.354,332.706z"/>
	<path style="fill:#121B21;" d="M386.106,327.939c1.301,0.751,2.721,1.108,4.121,1.108c2.854,0,5.63-1.481,7.159-4.13l9.772-16.926
		c2.28-3.95,0.927-9-3.022-11.281c-3.953-2.281-9.001-0.928-11.281,3.022l-9.772,16.926
		C380.804,320.608,382.157,325.658,386.106,327.939z"/>
	<path style="fill:#121B21;" d="M391.145,165.26c1.529,2.649,4.305,4.13,7.159,4.13c1.401,0,2.822-0.357,4.121-1.108
		c3.95-2.28,5.303-7.331,3.022-11.281l-9.772-16.926c-2.28-3.951-7.333-5.303-11.281-3.022c-3.95,2.28-5.303,7.331-3.022,11.281
		L391.145,165.26z"/>
	<path style="fill:#121B21;" d="M416.459,176.073c-2.279-3.95-7.333-5.301-11.281-3.022c-3.95,2.28-5.303,7.331-3.022,11.281
		l9.772,16.926c1.529,2.649,4.305,4.13,7.159,4.13c1.401,0,2.822-0.357,4.121-1.108c3.95-2.28,5.303-7.331,3.022-11.281
		L416.459,176.073z"/>
	<path style="fill:#121B21;" d="M353.003,187.282c1.529,2.649,4.305,4.13,7.159,4.13c1.401,0,2.822-0.357,4.121-1.108
		c3.95-2.28,5.303-7.331,3.022-11.281l-9.772-16.926c-2.279-3.951-7.332-5.303-11.281-3.022c-3.95,2.28-5.303,7.331-3.022,11.281
		L353.003,187.282z"/>
	<path style="fill:#121B21;" d="M373.785,223.278c1.529,2.649,4.305,4.13,7.159,4.13c1.401,0,2.822-0.357,4.121-1.108
		c3.95-2.28,5.303-7.331,3.022-11.281l-9.772-16.926c-2.279-3.95-7.332-5.301-11.281-3.022c-3.95,2.28-5.303,7.331-3.022,11.281
		L373.785,223.278z"/>
	<path style="fill:#121B21;" d="M392.856,212.268c1.529,2.649,4.305,4.13,7.159,4.13c1.402,0,2.822-0.357,4.121-1.108
		c3.95-2.28,5.303-7.331,3.022-11.281l-30.555-52.922c-2.279-3.951-7.333-5.303-11.28-3.022c-3.95,2.28-5.303,7.331-3.022,11.281
		L392.856,212.268z"/>
	<path style="fill:#121B21;" d="M100.072,310.743c-2.279-3.951-7.332-5.302-11.281-3.022c-3.95,2.28-5.303,7.331-3.022,11.281
		l30.555,52.922c1.529,2.649,4.305,4.13,7.159,4.13c1.401,0,2.822-0.357,4.121-1.108c3.95-2.28,5.303-7.331,3.022-11.28
		L100.072,310.743z"/>
	<path style="fill:#121B21;" d="M138.215,288.722c-2.279-3.951-7.332-5.303-11.281-3.022c-3.95,2.28-5.303,7.331-3.022,11.28
		l30.555,52.922c1.529,2.649,4.305,4.13,7.159,4.13c1.401,0,2.822-0.357,4.121-1.108c3.95-2.28,5.303-7.331,3.022-11.281
		L138.215,288.722z"/>
	<path style="fill:#121B21;" d="M139.927,335.729c-2.279-3.951-7.333-5.301-11.281-3.022c-3.95,2.28-5.303,7.331-3.022,11.281
		l9.772,16.926c1.529,2.649,4.305,4.13,7.159,4.13c1.401,0,2.822-0.357,4.121-1.108c3.95-2.28,5.303-7.331,3.022-11.281
		L139.927,335.729z"/>
	<path style="fill:#121B21;" d="M107.864,296.71c-3.95,2.28-5.303,7.331-3.022,11.281l9.772,16.926
		c1.529,2.649,4.305,4.13,7.159,4.13c1.401,0,2.822-0.357,4.121-1.108c3.95-2.28,5.303-7.331,3.022-11.281l-9.772-16.926
		C116.865,295.782,111.811,294.43,107.864,296.71z"/>
	<path style="fill:#121B21;" d="M468.324,82.581H43.676C19.594,82.581,0,102.174,0,126.257v259.486
		c0,24.083,19.594,43.676,43.676,43.676h424.647c24.083,0,43.676-19.594,43.676-43.676V126.257
		C512,102.174,492.406,82.581,468.324,82.581z M495.484,385.743c0,14.977-12.183,27.16-27.16,27.16H43.676
		c-14.977,0-27.16-12.183-27.16-27.16V126.257c0-14.977,12.183-27.16,27.16-27.16h424.647c14.977,0,27.16,12.183,27.16,27.16
		V385.743z"/>
</g>
<g>
</g>
<g>
</g>
<g>
</g>
<g>
</g>
<g>
</g>
<g>
</g>
<g>
</g>
<g>
</g>
<g>
</g>
<g>
</g>
<g>
</g>
<g>
</g>
<g>
</g>
<g>
</g>
<g>
</g>
</svg>
