<?xml version="1.0" encoding="iso-8859-1"?>
<!-- Generator: Adobe Illustrator 19.0.0, SVG Export Plug-In . SVG Version: 6.00 Build 0)  -->
<svg version="1.1" id="Layer_1" xmlns="http://www.w3.org/2000/svg" xmlns:xlink="http://www.w3.org/1999/xlink" x="0px" y="0px"
	 viewBox="0 0 512 512" style="enable-background:new 0 0 512 512;" xml:space="preserve">
<rect x="173.419" y="200.946" style="fill:#FFFFFF;" width="330.323" height="110.108"/>
<path style="fill:#259245;" d="M468.324,90.839H43.676c-8.714,0-16.689,3.153-22.858,8.373l152.601,101.735h330.323v-74.69
	C503.742,106.695,487.885,90.839,468.324,90.839z"/>
<path style="fill:#ED1F34;" d="M20.818,412.789c6.169,5.22,14.144,8.373,22.858,8.373h424.648c19.561,0,35.418-15.858,35.418-35.418
	v-74.689H173.42L20.818,412.789z"/>
<path style="fill:#333333;" d="M28.55,104.367l144.87,96.58v110.108l-144.87,96.58c-8.673,5.783-20.292-0.435-20.292-10.86V115.226
	C8.258,104.801,19.877,98.584,28.55,104.367z"/>
<path style="fill:#111A21;" d="M468.324,82.581H43.676c-10.582,0-20.296,3.785-27.863,10.07c-0.292,0.222-0.574,0.46-0.837,0.725
	C5.808,101.388,0,113.153,0,126.256v259.487c0,13.168,5.865,24.983,15.111,32.998c0.19,0.183,0.389,0.352,0.592,0.513
	c7.583,6.341,17.339,10.165,27.973,10.165h424.648c24.082,0,43.675-19.593,43.675-43.676V126.256
	C512,102.173,492.406,82.581,468.324,82.581z M468.324,99.097c14.977,0,27.16,12.183,27.16,27.159v176.54H181.677v-93.591h256
	c4.562,0,8.258-3.697,8.258-8.258s-3.696-8.258-8.258-8.258H175.919L36.841,99.969c2.185-0.568,4.475-0.872,6.835-0.872H468.324z
	 M21.994,402.079c-3.436-4.549-5.478-10.207-5.478-16.336V126.256c0-6.127,2.041-11.786,5.478-16.336l143.167,95.446v101.269
	L21.994,402.079z M468.324,412.903H43.676c-2.361,0-4.65-0.304-6.835-0.872l139.078-92.719h319.565v66.431
	C495.484,400.72,483.3,412.903,468.324,412.903z"/>
<g>
</g>
<g>
</g>
<g>
</g>
<g>
</g>
<g>
</g>
<g>
</g>
<g>
</g>
<g>
</g>
<g>
</g>
<g>
</g>
<g>
</g>
<g>
</g>
<g>
</g>
<g>
</g>
<g>
</g>
</svg>
