<?xml version="1.0" encoding="iso-8859-1"?>
<!-- Generator: Adobe Illustrator 19.0.0, SVG Export Plug-In . SVG Version: 6.00 Build 0)  -->
<svg version="1.1" id="Layer_1" xmlns="http://www.w3.org/2000/svg" xmlns:xlink="http://www.w3.org/1999/xlink" x="0px" y="0px"
	 viewBox="0 0 512 512" style="enable-background:new 0 0 512 512;" xml:space="preserve">
<path style="fill:#103B9B;" d="M503.742,126.257v259.487c0,19.561-15.857,35.418-35.418,35.418H43.676
	c-19.561-0.001-35.418-15.858-35.418-35.419V126.257c0-19.562,15.858-35.418,35.418-35.418h424.648
	C487.885,90.839,503.742,106.695,503.742,126.257z"/>
<path style="fill:#FFFFFF;" d="M256,90.839h-40.196l-83.675,55.784L48.454,90.839H35.055c-14.8,0-26.797,11.997-26.797,26.797l0,0
	l83.675,55.784L8.258,229.203V256h40.196l83.675-55.784L215.804,256H256v-26.797l-83.675-55.784L256,117.637V90.839z"/>
<path style="fill:#ED1F34;" d="M256,90.839h-26.797l-110.466,73.652l-92.428-61.618c-5.906-3.937-13.453,1.82-11.218,8.556
	l0.647,1.952c0.092,0.279,0.275,0.518,0.519,0.68l102.331,68.384L8.258,256h26.797l110.472-73.648L256,256v-17.484L145.373,164.59
	L256,90.839z"/>
<polygon style="fill:#FFFFFF;" points="256,151.123 154.426,151.123 154.426,90.839 109.832,90.839 109.832,151.123 8.258,151.123 
	8.258,195.716 109.832,195.716 109.832,256 154.426,256 154.426,195.716 256,195.716 "/>
<g>
	<polygon style="fill:#ED1F34;" points="256,161.445 144.103,161.445 144.103,90.839 120.155,90.839 120.155,161.445 8.258,161.445 
		8.258,185.394 120.155,185.394 120.155,256 144.103,256 144.103,185.394 256,185.394 	"/>
	<path style="fill:#ED1F34;" d="M324.817,209.397v49.928c0,59.527,55.054,73.135,55.054,73.135s55.054-13.607,55.054-73.134v-49.928
		L324.817,209.397L324.817,209.397z"/>
</g>
<path style="fill:#103B9B;" d="M379.871,332.461c0,0,55.054-13.608,55.054-73.134v-9.358c-4.957-2.335-9.397-4.92-19.219-4.92
	c-17.919,0-17.919,8.601-35.839,8.601c-17.919,0-17.919-8.601-35.838-8.601c-9.818,0-14.258,2.582-19.213,4.917v9.36
	C324.817,318.853,379.871,332.461,379.871,332.461z"/>
<g>
	<path style="fill:#FFFFFF;" d="M379.867,299.74c-10.839,0-16.745-2.835-21.492-5.113c-4.06-1.949-7.266-3.488-14.346-3.488
		c-6.046,0-9.198,1.159-11.679,2.245c-4.18,1.832-9.049-0.075-10.878-4.251c-1.829-4.177,0.074-9.048,4.251-10.878
		c4.103-1.796,9.484-3.632,18.305-3.632c10.839,0,16.746,2.835,21.493,5.115c4.059,1.949,7.266,3.487,14.345,3.487
		c7.081,0,10.287-1.539,14.346-3.487c4.747-2.278,10.654-5.115,21.493-5.115c8.825,0,14.21,1.838,18.315,3.636
		c4.177,1.83,6.08,6.7,4.251,10.878c-1.83,4.177-6.698,6.08-10.878,4.251c-2.484-1.088-5.64-2.248-11.689-2.248
		c-7.081,0-10.287,1.538-14.346,3.487C396.613,296.904,390.706,299.74,379.867,299.74z"/>
	<path style="fill:#FFFFFF;" d="M379.867,261.907c-10.839,0-16.745-2.835-21.492-5.113c-4.06-1.949-7.266-3.488-14.346-3.488
		c-7.08,0-10.286,1.539-14.345,3.488l-1.305,0.623c-4.126,1.947-9.046,0.181-10.992-3.944c-1.947-4.125-0.179-9.046,3.945-10.992
		l1.206-0.576c4.747-2.278,10.654-5.115,21.493-5.115c10.839,0,16.746,2.835,21.493,5.115c4.059,1.949,7.266,3.487,14.345,3.487
		c7.081,0,10.287-1.538,14.346-3.487c4.747-2.278,10.654-5.115,21.493-5.115c10.84,0,16.748,2.836,21.496,5.116l1.247,0.595
		c4.126,1.945,5.895,6.864,3.951,10.991c-1.944,4.127-6.867,5.895-10.989,3.951l-1.355-0.646c-4.061-1.949-7.267-3.488-14.348-3.488
		c-7.081,0-10.287,1.539-14.346,3.487C396.613,259.072,390.706,261.907,379.867,261.907z"/>
</g>
<path style="fill:#F2A643;" d="M379.871,184.495c-4.562,0-8.258-3.697-8.258-8.258v-22.021c0-4.561,3.696-8.258,8.258-8.258
	s8.258,3.697,8.258,8.258v22.021C388.129,180.798,384.433,184.495,379.871,184.495z"/>
<path style="fill:#259245;" d="M379.871,176.236c-18.314,0-33.161,14.847-33.161,33.161h66.322
	C413.032,191.083,398.185,176.236,379.871,176.236z"/>
<path style="fill:#F2A643;" d="M379.871,366.043c-28.473,0-54.794-12.824-72.247-34.385l-2.383,8.49
	c-1.232,4.391-5.789,6.951-10.182,5.72c-4.391-1.232-6.951-5.791-5.719-10.182l7.28-25.946c0.916-3.265,3.735-5.638,7.107-5.984
	c3.367-0.34,6.616,1.404,8.175,4.415c13.22,25.509,39.262,41.354,67.967,41.354s54.749-15.847,67.967-41.354
	c1.561-3.01,4.806-4.756,8.175-4.415c3.374,0.347,6.191,2.72,7.107,5.984l7.28,25.946c1.232,4.391-1.328,8.95-5.719,10.182
	c-4.391,1.23-8.951-1.329-10.182-5.72l-2.383-8.49C434.665,353.219,408.344,366.043,379.871,366.043z"/>
<g>
	<path style="fill:#1A1C20;" d="M434.925,201.139h-14.464c-3.838-18.894-20.579-33.161-40.59-33.161s-36.752,14.266-40.59,33.161
		h-14.464c-4.562,0-8.258,3.697-8.258,8.258v49.928c0,34.062,16.68,54.352,30.674,65.377c14.991,11.809,30.024,15.618,30.656,15.774
		c0.651,0.161,1.316,0.241,1.982,0.241s1.331-0.08,1.982-0.241c0.632-0.156,15.665-3.965,30.656-15.774
		c13.994-11.024,30.674-31.315,30.674-65.377v-49.928C443.183,204.836,439.487,201.139,434.925,201.139z M379.871,184.495
		c10.839,0,20.081,6.96,23.496,16.645h-46.992C359.79,191.454,369.032,184.495,379.871,184.495z M426.667,259.325
		c0,46.604-37.427,61.528-46.774,64.529c-9.109-2.989-46.818-18.175-46.818-64.529v-41.67h13.635h66.322h13.635V259.325z"/>
	<path style="fill:#1A1C20;" d="M468.324,82.581H43.676C19.594,82.581,0,102.173,0,126.256v259.487
		c0,24.084,19.594,43.676,43.676,43.676h424.647c24.083,0,43.676-19.593,43.676-43.676V126.256
		C512,102.173,492.406,82.581,468.324,82.581z M495.484,385.743c0,14.977-12.183,27.16-27.16,27.16H43.676
		c-14.977,0-27.16-12.183-27.16-27.16V126.256c0-14.976,12.183-27.159,27.16-27.159h424.647c14.977,0,27.16,12.183,27.16,27.159
		V385.743z"/>
</g>
<g>
</g>
<g>
</g>
<g>
</g>
<g>
</g>
<g>
</g>
<g>
</g>
<g>
</g>
<g>
</g>
<g>
</g>
<g>
</g>
<g>
</g>
<g>
</g>
<g>
</g>
<g>
</g>
<g>
</g>
</svg>
