<?xml version="1.0" encoding="iso-8859-1"?>
<!-- Generator: Adobe Illustrator 19.0.0, SVG Export Plug-In . SVG Version: 6.00 Build 0)  -->
<svg version="1.1" id="Layer_1" xmlns="http://www.w3.org/2000/svg" xmlns:xlink="http://www.w3.org/1999/xlink" x="0px" y="0px"
	 viewBox="0 0 512 512" style="enable-background:new 0 0 512 512;" xml:space="preserve">
<path style="fill:#3DB4EA;" d="M503.742,124.972v262.056c0,18.852-15.282,34.133-34.133,34.133H42.391
	c-18.852,0-34.133-15.282-34.133-34.133V124.972c0-18.852,15.282-34.133,34.133-34.133h427.217
	C488.46,90.839,503.742,106.121,503.742,124.972z"/>
<g>
	<path style="fill:#FFE000;" d="M299.676,184.367c-20.643,0-37.437,16.794-37.437,37.437s16.794,37.437,37.437,37.437
		c20.643,0,37.437-16.794,37.437-37.437S320.318,184.367,299.676,184.367z"/>
	<path style="fill:#FFE000;" d="M299.676,267.499c-25.196,0-45.695-20.499-45.695-45.695s20.499-45.695,45.695-45.695
		c25.196,0,45.695,20.499,45.695,45.695S324.872,267.499,299.676,267.499z M299.676,192.625c-16.089,0-29.178,13.09-29.178,29.178
		s13.09,29.178,29.178,29.178c16.089,0,29.178-13.09,29.178-29.178S315.765,192.625,299.676,192.625z"/>
	<path style="fill:#FFE000;" d="M271.066,292.812c-1.147,0-2.313-0.24-3.424-0.749c-27.438-12.528-45.166-40.107-45.166-70.26
		c0-4.561,3.696-8.258,8.258-8.258c4.562,0,8.258,3.697,8.258,8.258c0,23.705,13.939,45.386,35.511,55.235
		c4.149,1.894,5.977,6.793,4.082,10.942C277.197,291.019,274.2,292.812,271.066,292.812z"/>
	<path style="fill:#FFE000;" d="M273.322,335.892c-1.662,0-3.337-0.5-4.793-1.538c-3.711-2.651-4.571-7.809-1.919-11.519
		l26.347-36.885c1.549-2.17,4.053-3.458,6.719-3.458c33.463,0,60.686-27.224,60.686-60.686c0-4.561,3.696-8.258,8.258-8.258
		c4.562,0,8.258,3.697,8.258,8.258c0,41.114-32.307,74.826-72.867,77.082l-23.963,33.548
		C278.439,334.689,275.9,335.892,273.322,335.892z"/>
	<path style="fill:#FFE000;" d="M230.733,230.062h-51.04c-4.562,0-8.258-3.697-8.258-8.258c0-4.561,3.696-8.258,8.258-8.258h51.04
		c4.562,0,8.258,3.697,8.258,8.258C238.991,226.365,235.293,230.062,230.733,230.062z"/>
	<path style="fill:#FFE000;" d="M419.659,230.062H368.62c-4.562,0-8.258-3.697-8.258-8.258c0-4.561,3.696-8.258,8.258-8.258h51.039
		c4.562,0,8.258,3.697,8.258,8.258C427.917,226.365,424.22,230.062,419.659,230.062z"/>
	<path style="fill:#FFE000;" d="M236.947,258.69h-34.132c-4.562,0-8.258-3.697-8.258-8.258s3.696-8.258,8.258-8.258h34.132
		c4.562,0,8.258,3.697,8.258,8.258S241.509,258.69,236.947,258.69z"/>
	<path style="fill:#FFE000;" d="M396.537,258.69h-34.132c-4.562,0-8.258-3.697-8.258-8.258s3.696-8.258,8.258-8.258h34.132
		c4.562,0,8.258,3.697,8.258,8.258S401.098,258.69,396.537,258.69z"/>
	<path style="fill:#FFE000;" d="M52.289,385.376c-1.925,0-3.856-0.668-5.422-2.031c-3.439-2.996-3.798-8.212-0.803-11.652
		l37.483-43.027L46.065,285.64c-2.709-3.109-2.709-7.739,0.001-10.849l37.482-43.02L46.065,188.75
		c-2.709-3.109-2.709-7.741,0.001-10.85l42.209-48.444c2.995-3.44,8.213-3.798,11.65-0.802c3.439,2.996,3.798,8.213,0.802,11.652
		l-37.482,43.019l37.483,43.021c2.709,3.109,2.709,7.741-0.001,10.85l-37.482,43.02l37.483,43.027c2.709,3.109,2.709,7.739,0,10.849
		l-42.209,48.451C56.886,384.416,54.594,385.376,52.289,385.376z"/>
	<path style="fill:#FFE000;" d="M94.504,385.376c-2.305,0-4.597-0.959-6.23-2.834l-42.209-48.451c-2.709-3.109-2.709-7.739,0-10.849
		l37.483-43.027l-37.482-43.02c-2.71-3.109-2.71-7.741-0.001-10.85l37.483-43.021l-37.482-43.019
		c-2.997-3.439-2.637-8.654,0.802-11.652c3.438-2.996,8.656-2.637,11.65,0.802l42.208,48.445c2.71,3.109,2.71,7.741,0.001,10.85
		l-37.483,43.021l37.482,43.02c2.71,3.109,2.71,7.739,0.001,10.849l-37.483,43.027l37.483,43.027
		c2.996,3.439,2.637,8.654-0.803,11.652C98.361,384.708,96.428,385.376,94.504,385.376z"/>
</g>
<path style="fill:#111A21;" d="M468.324,429.419H43.676C19.594,429.419,0,409.827,0,385.743V126.257
	c0-24.084,19.594-43.676,43.676-43.676h424.647c24.083,0,43.676,19.593,43.676,43.676v259.487
	C512,409.827,492.406,429.419,468.324,429.419z M43.676,99.097c-14.977,0-27.16,12.183-27.16,27.16v259.487
	c0,14.976,12.183,27.159,27.16,27.159h424.647c14.977,0,27.16-12.183,27.16-27.16V126.257c0-14.977-12.183-27.16-27.16-27.16H43.676
	z"/>
<g>
</g>
<g>
</g>
<g>
</g>
<g>
</g>
<g>
</g>
<g>
</g>
<g>
</g>
<g>
</g>
<g>
</g>
<g>
</g>
<g>
</g>
<g>
</g>
<g>
</g>
<g>
</g>
<g>
</g>
</svg>
