<?xml version="1.0" encoding="iso-8859-1"?>
<!-- Generator: Adobe Illustrator 19.0.0, SVG Export Plug-In . SVG Version: 6.00 Build 0)  -->
<svg version="1.1" id="Layer_1" xmlns="http://www.w3.org/2000/svg" xmlns:xlink="http://www.w3.org/1999/xlink" x="0px" y="0px"
	 viewBox="0 0 512 512" style="enable-background:new 0 0 512 512;" xml:space="preserve">
<g>
	<path style="fill:#ED1F34;" d="M8.258,385.743c0,19.561,15.858,35.418,35.418,35.418h424.648c19.561,0,35.418-15.858,35.418-35.418
		v-39.455H8.258V385.743z"/>
	<path style="fill:#ED1F34;" d="M468.324,90.839H43.676c-19.561,0-35.418,15.857-35.418,35.418v39.455h495.484v-39.455
		C503.742,106.695,487.885,90.839,468.324,90.839z"/>
</g>
<rect x="8.258" y="165.712" style="fill:#FFFFFF;" width="495.484" height="180.576"/>
<polygon style="fill:#259245;" points="213.265,285.938 256,198.744 298.736,285.938 "/>
<g>
	<path style="fill:#111A21;" d="M213.265,294.196h34.477v19.06c0,4.561,3.697,8.258,8.258,8.258c4.562,0,8.258-3.697,8.258-8.258
		v-19.06h34.478c0.011,0,0.017,0,0.022,0c4.562,0,8.258-3.697,8.258-8.258c0-1.515-0.407-2.935-1.12-4.155l-42.481-86.672
		c-1.387-2.83-4.263-4.623-7.415-4.623s-6.028,1.794-7.415,4.623l-42.736,87.194c-1.255,2.56-1.1,5.585,0.407,8.004
		C207.765,292.726,210.414,294.196,213.265,294.196z M256,217.509l29.491,60.172h-21.233v-19.06c0-4.561-3.696-8.258-8.258-8.258
		c-4.561,0-8.258,3.697-8.258,8.258v19.06h-21.233L256,217.509z"/>
	<path style="fill:#111A21;" d="M468.324,82.581H43.676C19.593,82.581,0,102.173,0,126.257v259.487
		c0,24.083,19.593,43.675,43.676,43.675h424.648c24.082,0,43.675-19.593,43.675-43.676V126.257
		C512,102.173,492.406,82.581,468.324,82.581z M43.676,99.097h424.648c14.976,0,27.159,12.183,27.159,27.16v31.197H16.516v-31.197
		C16.516,111.28,28.7,99.097,43.676,99.097z M468.324,412.903H43.676c-14.977,0-27.16-12.183-27.16-27.16v-31.197H41.29
		c4.561,0,8.258-3.697,8.258-8.258c0-4.561-3.697-8.258-8.258-8.258H16.516V173.97h478.968v164.06H74.323
		c-4.561,0-8.258,3.697-8.258,8.258c0,4.561,3.697,8.258,8.258,8.258h421.161v31.197C495.484,400.72,483.3,412.903,468.324,412.903z
		"/>
</g>
<g>
</g>
<g>
</g>
<g>
</g>
<g>
</g>
<g>
</g>
<g>
</g>
<g>
</g>
<g>
</g>
<g>
</g>
<g>
</g>
<g>
</g>
<g>
</g>
<g>
</g>
<g>
</g>
<g>
</g>
</svg>
