<?xml version="1.0" encoding="iso-8859-1"?>
<!-- Generator: Adobe Illustrator 19.0.0, SVG Export Plug-In . SVG Version: 6.00 Build 0)  -->
<svg version="1.1" id="Layer_1" xmlns="http://www.w3.org/2000/svg" xmlns:xlink="http://www.w3.org/1999/xlink" x="0px" y="0px"
	 viewBox="0 0 512 512" style="enable-background:new 0 0 512 512;" xml:space="preserve">
<path style="fill:#3DB4EA;" d="M503.742,126.257v259.487c0,19.561-15.857,35.418-35.418,35.418H43.676
	c-19.561-0.001-35.418-15.858-35.418-35.419V126.257c0-19.562,15.858-35.418,35.418-35.418h424.648
	C487.885,90.839,503.742,106.695,503.742,126.257z"/>
<polygon style="fill:#FFFFFF;" points="356.258,373.916 256,138.084 155.742,373.916 "/>
<polygon style="fill:#333333;" points="256,198.405 181.386,373.916 330.614,373.916 "/>
<polygon style="fill:#FFE000;" points="155.742,373.916 356.258,373.916 256,275.117 "/>
<g>
	<path style="fill:#121B21;" d="M298.247,216.351c-1.784-4.196-6.63-6.153-10.831-4.369c-4.196,1.785-6.153,6.633-4.369,10.831
		l60.727,142.844H168.226L256,159.19l14.124,33.224c1.785,4.198,6.634,6.153,10.831,4.369c4.196-1.785,6.153-6.633,4.369-10.831
		l-21.724-51.1c-1.296-3.048-4.289-5.026-7.6-5.026s-6.305,1.98-7.6,5.026L148.142,370.685c-1.083,2.55-0.816,5.476,0.712,7.787
		c1.529,2.312,4.115,3.702,6.887,3.702h200.516c2.773,0,5.358-1.391,6.887-3.702c1.529-2.312,1.797-5.237,0.712-7.787
		L298.247,216.351z"/>
	<path style="fill:#121B21;" d="M468.324,82.581H43.676C19.594,82.581,0,102.174,0,126.257v259.486
		c0,24.083,19.594,43.676,43.676,43.676h424.647c24.083,0,43.676-19.594,43.676-43.676V126.257
		C512,102.174,492.406,82.581,468.324,82.581z M495.484,385.743c0,14.977-12.183,27.16-27.16,27.16H43.676
		c-14.977,0-27.16-12.183-27.16-27.16V126.257c0-14.977,12.183-27.16,27.16-27.16h424.647c14.977,0,27.16,12.183,27.16,27.16
		V385.743z"/>
</g>
<g>
</g>
<g>
</g>
<g>
</g>
<g>
</g>
<g>
</g>
<g>
</g>
<g>
</g>
<g>
</g>
<g>
</g>
<g>
</g>
<g>
</g>
<g>
</g>
<g>
</g>
<g>
</g>
<g>
</g>
</svg>
