<?xml version="1.0" encoding="iso-8859-1"?>
<!-- Generator: Adobe Illustrator 19.0.0, SVG Export Plug-In . SVG Version: 6.00 Build 0)  -->
<svg version="1.1" id="Layer_1" xmlns="http://www.w3.org/2000/svg" xmlns:xlink="http://www.w3.org/1999/xlink" x="0px" y="0px"
	 viewBox="0 0 512 512" style="enable-background:new 0 0 512 512;" xml:space="preserve">
<path style="fill:#ED1F34;" d="M8.258,385.743c0,19.561,15.857,35.418,35.418,35.418h424.648c19.561,0,35.418-15.858,35.418-35.418
	V256H8.258V385.743z"/>
<path style="fill:#103B9B;" d="M468.324,90.839H43.676c-19.562,0-35.418,15.857-35.418,35.418V256h495.484V126.257
	C503.742,106.695,487.884,90.839,468.324,90.839z"/>
<path style="fill:#FFE000;" d="M199.451,153.416c-11.885,0-22.151,6.932-26.976,16.974c-4.825-10.042-15.091-16.974-26.976-16.974
	c-16.521,0-29.913,13.392-29.913,29.913c0,16.521,11.011,29.913,11.011,29.913h91.756c0,0,11.011-13.392,11.011-29.913
	C229.364,166.809,215.972,153.416,199.451,153.416z"/>
<g>
	<path style="fill:#121B21;" d="M199.452,145.158c-6.659,0-13.09,1.78-18.718,4.958v-16.519c0-4.561-3.697-8.258-8.258-8.258
		s-8.258,3.697-8.258,8.258v16.519c-5.629-3.177-12.058-4.958-18.718-4.958c-21.047,0-38.17,17.123-38.17,38.171
		c0,19.258,12.364,34.516,12.89,35.157c1.569,1.908,3.909,3.014,6.379,3.014h91.756c2.47,0,4.811-1.105,6.379-3.014
		c0.526-0.64,12.89-15.9,12.89-35.157C237.622,162.282,220.499,145.158,199.452,145.158z M214.07,204.984h-83.191
		c-2.703-4.256-7.036-12.505-7.036-21.655c0-11.94,9.714-21.655,21.654-21.655c8.278,0,15.945,4.825,19.533,12.292
		c0.017,0.035,0.04,0.065,0.057,0.099c0.156,0.314,0.326,0.619,0.519,0.908c0.004,0.006,0.008,0.012,0.011,0.019
		c0.193,0.286,0.407,0.555,0.633,0.814c0.061,0.069,0.123,0.137,0.186,0.205c0.2,0.215,0.411,0.421,0.632,0.613
		c0.039,0.033,0.074,0.07,0.112,0.102c0.261,0.218,0.538,0.417,0.826,0.602c0.063,0.041,0.128,0.078,0.193,0.117
		c0.252,0.153,0.513,0.293,0.783,0.42c0.052,0.024,0.102,0.052,0.155,0.075c0.319,0.141,0.649,0.263,0.988,0.364
		c0.05,0.014,0.1,0.025,0.151,0.039c0.286,0.079,0.579,0.142,0.878,0.19c0.087,0.014,0.173,0.029,0.26,0.04
		c0.348,0.045,0.7,0.076,1.061,0.076c0.36,0,0.712-0.031,1.06-0.076c0.087-0.011,0.173-0.025,0.26-0.04
		c0.298-0.048,0.591-0.111,0.878-0.19c0.05-0.013,0.101-0.024,0.151-0.039c0.339-0.1,0.668-0.222,0.989-0.364
		c0.053-0.023,0.102-0.05,0.154-0.074c0.271-0.127,0.532-0.268,0.785-0.422c0.064-0.039,0.127-0.075,0.189-0.115
		c0.287-0.186,0.566-0.385,0.828-0.604c0.037-0.031,0.072-0.066,0.108-0.098c0.225-0.194,0.436-0.401,0.638-0.618
		c0.062-0.066,0.122-0.132,0.182-0.2c0.227-0.26,0.443-0.53,0.635-0.817c0.002-0.004,0.004-0.009,0.008-0.013
		c0.195-0.291,0.366-0.599,0.523-0.914c0.017-0.034,0.04-0.064,0.056-0.098c3.587-7.467,11.255-12.292,19.533-12.292
		c11.94,0,21.655,9.714,21.655,21.655C221.106,192.479,216.773,200.727,214.07,204.984z"/>
	<path style="fill:#121B21;" d="M468.324,82.581H43.675C19.593,82.581,0,102.173,0,126.257v259.487
		c0,24.083,19.593,43.675,43.675,43.675h424.648c24.084,0,43.676-19.593,43.676-43.676V126.257
		C512,102.173,492.407,82.581,468.324,82.581z M468.324,412.903H43.675c-14.976,0-27.159-12.183-27.159-27.16V264.258h388.129
		c4.561,0,8.258-3.697,8.258-8.258c0-4.561-3.697-8.258-8.258-8.258H16.516V126.257c0-14.977,12.183-27.16,27.159-27.16h424.648
		c14.977,0,27.16,12.183,27.16,27.16v121.485h-57.806c-4.561,0-8.258,3.697-8.258,8.258c0,4.561,3.697,8.258,8.258,8.258h57.806
		v121.485C495.484,400.72,483.3,412.903,468.324,412.903z"/>
</g>
<g>
</g>
<g>
</g>
<g>
</g>
<g>
</g>
<g>
</g>
<g>
</g>
<g>
</g>
<g>
</g>
<g>
</g>
<g>
</g>
<g>
</g>
<g>
</g>
<g>
</g>
<g>
</g>
<g>
</g>
</svg>
