<?xml version="1.0" encoding="iso-8859-1"?>
<!-- Generator: Adobe Illustrator 19.0.0, SVG Export Plug-In . SVG Version: 6.00 Build 0)  -->
<svg version="1.1" id="Layer_1" xmlns="http://www.w3.org/2000/svg" xmlns:xlink="http://www.w3.org/1999/xlink" x="0px" y="0px"
	 viewBox="0 0 512 512" style="enable-background:new 0 0 512 512;" xml:space="preserve">
<rect x="272.516" y="123.871" style="fill:#BF2300;" width="198.194" height="264.258"/>
<path style="fill:#FFE000;" d="M468.324,90.839H43.676c-19.561,0-35.418,15.858-35.418,35.418v259.487
	c0,19.561,15.858,35.418,35.418,35.418h424.648c19.561,0,35.418-15.857,35.418-35.418V126.257
	C503.742,106.696,487.885,90.839,468.324,90.839z M239.484,388.129h-99.097H41.29V123.871h99.097h99.097V388.129z M470.71,388.129
	H272.516V123.871H470.71V388.129z"/>
<rect x="41.29" y="123.871" style="fill:#134923;" width="99.097" height="264.258"/>
<rect x="140.387" y="123.871" style="fill:#FF7900;" width="99.097" height="264.258"/>
<path style="fill:#FFE000;" d="M411.802,233.428h-36.871v-17.334c0-10.493-8.507-19.001-19.001-19.001
	c-10.494,0-19.001,8.508-19.001,19.001v66.883h95.794v-28.628C432.723,242.795,423.356,233.428,411.802,233.428z"/>
<g>
	<path style="fill:#111A21;" d="M310.503,214.159c-4.562,0-8.258,3.697-8.258,8.258v60.559c0,4.561,3.696,8.258,8.258,8.258
		s8.258-3.697,8.258-8.258v-60.559C318.761,217.857,315.065,214.159,310.503,214.159z"/>
	<path style="fill:#111A21;" d="M411.802,225.17H383.19v-9.076c0-15.031-12.227-27.259-27.259-27.259
		c-15.031,0-27.259,12.229-27.259,27.259v66.883v31.931c0,4.561,3.696,8.258,8.258,8.258s8.258-3.697,8.258-8.258v-23.673h48.447
		v23.673c0,4.561,3.696,8.258,8.258,8.258s8.258-3.697,8.258-8.258v-23.673h14.314v23.673c0,4.561,3.696,8.258,8.258,8.258
		s8.258-3.697,8.258-8.258v-31.931v-28.628C440.981,238.259,427.891,225.17,411.802,225.17z M424.465,274.718h-79.277v-58.625
		c0-5.924,4.819-10.743,10.743-10.743s10.743,4.819,10.743,10.743v17.334c0,4.561,3.696,8.258,8.258,8.258h36.871
		c6.982,0,12.662,5.68,12.662,12.662V274.718z"/>
	<path style="fill:#111A21;" d="M468.324,82.581H43.676C19.594,82.581,0,102.173,0,126.257v259.487
		c0,24.083,19.594,43.675,43.676,43.675h424.647c24.083,0,43.676-19.593,43.676-43.676V126.257
		C512,102.173,492.406,82.581,468.324,82.581z M495.484,385.743c0,14.977-12.183,27.16-27.16,27.16H43.676
		c-14.977,0-27.16-12.183-27.16-27.16V126.257c0-14.977,12.183-27.16,27.16-27.16h424.647c14.977,0,27.16,12.183,27.16,27.16
		V385.743z"/>
</g>
<g>
</g>
<g>
</g>
<g>
</g>
<g>
</g>
<g>
</g>
<g>
</g>
<g>
</g>
<g>
</g>
<g>
</g>
<g>
</g>
<g>
</g>
<g>
</g>
<g>
</g>
<g>
</g>
<g>
</g>
</svg>
