<?xml version="1.0" encoding="iso-8859-1"?>
<!-- Generator: Adobe Illustrator 19.0.0, SVG Export Plug-In . SVG Version: 6.00 Build 0)  -->
<svg version="1.1" id="Layer_1" xmlns="http://www.w3.org/2000/svg" xmlns:xlink="http://www.w3.org/1999/xlink" x="0px" y="0px"
	 viewBox="0 0 512 512" style="enable-background:new 0 0 512 512;" xml:space="preserve">
<path style="fill:#FFFFFF;" d="M503.742,389.763V122.237c0-17.341-14.057-31.398-31.398-31.398H39.656
	c-17.341,0-31.398,14.057-31.398,31.398v267.527c0,17.341,14.057,31.398,31.398,31.398h432.688
	C489.685,421.161,503.742,407.104,503.742,389.763z"/>
<g>
	<rect x="8.258" y="331.071" style="fill:#ED1F34;" width="495.484" height="30.026"/>
	<rect x="8.258" y="271.008" style="fill:#ED1F34;" width="495.484" height="30.026"/>
	<rect x="8.258" y="210.955" style="fill:#ED1F34;" width="495.484" height="30.037"/>
	<rect x="155.064" y="150.902" style="fill:#ED1F34;" width="348.678" height="30.026"/>
	<path style="fill:#ED1F34;" d="M503.335,391.135H8.665c2.597,17.002,17.282,30.026,35.01,30.026h424.648
		C486.052,421.161,500.737,408.137,503.335,391.135z"/>
	<path style="fill:#ED1F34;" d="M503.335,120.865c-2.596-17.002-17.283-30.026-35.01-30.026h-313.26v30.026
		C155.064,120.865,503.335,120.865,503.335,120.865z"/>
</g>
<path style="fill:#164FCE;" d="M8.258,121.443v119.544h146.806V90.839H38.862C21.96,90.839,8.258,104.54,8.258,121.443z"/>
<polygon style="fill:#FFFFFF;" points="44.613,157.595 71.891,156.185 81.661,130.679 91.431,156.185 118.709,157.595 
	97.469,174.769 104.558,201.147 81.661,186.253 58.764,201.147 65.853,174.769 "/>
<g>
	<path style="fill:#111A21;" d="M39.422,164.016l17.063,13.796l-5.696,21.191c-0.889,3.303,0.353,6.813,3.122,8.824
		c2.768,2.011,6.489,2.106,9.357,0.242l18.393-11.964l18.393,11.964c1.372,0.893,2.939,1.336,4.503,1.336
		c1.707,0,3.41-0.529,4.854-1.578c2.768-2.011,4.01-5.521,3.122-8.824l-5.696-21.191l17.063-13.796
		c2.66-2.152,3.718-5.719,2.661-8.974c-1.057-3.254-4.01-5.52-7.428-5.696l-21.912-1.131l-7.848-20.491
		c-1.223-3.194-4.29-5.304-7.712-5.304c-3.421,0-6.489,2.11-7.712,5.304l-7.848,20.491l-21.913,1.131
		c-3.418,0.176-6.371,2.442-7.428,5.696C35.703,158.297,36.762,161.865,39.422,164.016z M72.318,164.433
		c3.261-0.168,6.118-2.244,7.286-5.294l2.058-5.373l2.058,5.373c1.169,3.05,4.024,5.124,7.286,5.294l5.745,0.297l-4.474,3.617
		c-2.54,2.054-3.63,5.411-2.782,8.564l1.494,5.557l-4.823-3.138c-1.369-0.891-2.937-1.336-4.503-1.336
		c-1.567,0-3.135,0.445-4.503,1.336l-4.823,3.138l1.494-5.557c0.847-3.153-0.243-6.511-2.782-8.564l-4.474-3.617L72.318,164.433z"/>
	<path style="fill:#111A21;" d="M512,120.865c0-1.445-0.372-2.8-1.024-3.981c-4.303-19.593-21.787-34.303-42.652-34.303H43.676
		C19.594,82.581,0,102.174,0,126.257v259.486c0,1.254,0.066,2.493,0.17,3.721C0.058,390.004,0,390.562,0,391.135
		c0,1.444,0.372,2.8,1.024,3.982c4.303,19.593,21.788,34.303,42.652,34.303h424.647c20.864,0,38.349-14.71,42.652-34.303
		c0.651-1.18,1.024-2.537,1.024-3.982c0-0.573-0.058-1.132-0.17-1.671c0.105-1.228,0.17-2.466,0.17-3.721V126.257
		c0-1.254-0.066-2.493-0.17-3.721C511.942,121.996,512,121.438,512,120.865z M16.516,382.877v-13.519h478.968v13.519L16.516,382.877
		L16.516,382.877z M163.322,189.183h332.161v13.51H163.322V189.183z M163.322,172.667v-13.51h332.161v13.51H163.322z
		 M163.322,219.21h332.161v13.519H163.322V219.21z M495.484,249.245v13.51H470.71c-4.562,0-8.258,3.696-8.258,8.258
		s3.696,8.258,8.258,8.258h24.774v13.51H107.355c-4.562,0-8.258,3.696-8.258,8.258s3.696,8.258,8.258,8.258h388.129v13.519H16.516
		v-13.519h57.806c4.562,0,8.258-3.696,8.258-8.258s-3.696-8.258-8.258-8.258H16.516v-13.51h421.161c4.562,0,8.258-3.696,8.258-8.258
		s-3.696-8.258-8.258-8.258H16.516v-13.51L495.484,249.245L495.484,249.245z M495.484,339.333v13.51H16.516v-13.51H495.484z
		 M491.79,112.607H221.129c-4.562,0-8.258,3.696-8.258,8.258s3.696,8.258,8.258,8.258h274.355v13.519H163.322v-13.519h24.774
		c4.562,0,8.258-3.696,8.258-8.258s-3.696-8.258-8.258-8.258h-24.774v-13.51h305.001C478.326,99.097,487.076,104.535,491.79,112.607
		z M43.676,99.097h103.13v133.632H16.516V126.257C16.516,111.28,28.7,99.097,43.676,99.097z M468.324,412.903H43.676
		c-10.002,0-18.752-5.438-23.466-13.51h471.58C487.076,407.465,478.326,412.903,468.324,412.903z"/>
</g>
<g>
</g>
<g>
</g>
<g>
</g>
<g>
</g>
<g>
</g>
<g>
</g>
<g>
</g>
<g>
</g>
<g>
</g>
<g>
</g>
<g>
</g>
<g>
</g>
<g>
</g>
<g>
</g>
<g>
</g>
</svg>
