<?xml version="1.0" encoding="iso-8859-1"?>
<!-- Generator: Adobe Illustrator 19.0.0, SVG Export Plug-In . SVG Version: 6.00 Build 0)  -->
<svg version="1.1" id="Layer_1" xmlns="http://www.w3.org/2000/svg" xmlns:xlink="http://www.w3.org/1999/xlink" x="0px" y="0px"
	 viewBox="0 0 512 512" style="enable-background:new 0 0 512 512;" xml:space="preserve">
<rect x="8.258" y="200.946" style="fill:#FFFFFF;" width="495.484" height="110.108"/>
<path style="fill:#259245;" d="M8.258,385.743c0,19.562,15.858,35.418,35.418,35.418h424.648c19.561,0,35.418-15.857,35.418-35.418
	v-74.689H8.258V385.743z"/>
<path style="fill:#103B9B;" d="M468.324,90.839H43.676c-19.561,0-35.418,15.857-35.418,35.418v74.689h495.484v-74.689
	C503.742,106.695,487.885,90.839,468.324,90.839z"/>
<path style="fill:#333333;" d="M234.876,269.204c5.388,5.443,12.861,8.817,21.124,8.817c8.264,0,15.737-3.375,21.124-8.817
	L256,245.173L234.876,269.204z"/>
<g>
	<path style="fill:#111A21;" d="M256,286.28c10.215,0,19.802-4.001,26.994-11.265c3.052-3.084,3.198-8.004,0.334-11.263
		l-19.07-21.692v-8.081c0-4.562-3.696-8.258-8.258-8.258c-4.561,0-8.258,3.696-8.258,8.258v8.081l-19.068,21.692
		c-2.865,3.259-2.719,8.179,0.333,11.263C236.197,282.278,245.784,286.28,256,286.28z M256,257.68l8.924,10.152
		c-2.765,1.265-5.792,1.931-8.924,1.931c-3.133,0-6.159-0.666-8.924-1.931L256,257.68z"/>
	<path style="fill:#111A21;" d="M468.324,82.581H43.676C19.593,82.581,0,102.174,0,126.257v259.486
		c0,24.083,19.593,43.676,43.676,43.676h424.648c24.082,0,43.675-19.594,43.675-43.676V126.257
		C512,102.174,492.406,82.581,468.324,82.581z M43.676,99.097h424.648c14.976,0,27.159,12.183,27.159,27.16v66.431H16.516v-66.431
		C16.516,111.28,28.7,99.097,43.676,99.097z M468.324,412.903H43.676c-14.977,0-27.16-12.183-27.16-27.16v-66.431h57.806
		c4.561,0,8.258-3.696,8.258-8.258s-3.697-8.258-8.258-8.258H16.516v-93.591h478.968v93.591H107.355
		c-4.561,0-8.258,3.696-8.258,8.258s3.697,8.258,8.258,8.258h388.129v66.431C495.484,400.72,483.3,412.903,468.324,412.903z"/>
</g>
<g>
</g>
<g>
</g>
<g>
</g>
<g>
</g>
<g>
</g>
<g>
</g>
<g>
</g>
<g>
</g>
<g>
</g>
<g>
</g>
<g>
</g>
<g>
</g>
<g>
</g>
<g>
</g>
<g>
</g>
</svg>
