<?xml version="1.0" encoding="iso-8859-1"?>
<!-- Generator: Adobe Illustrator 19.0.0, SVG Export Plug-In . SVG Version: 6.00 Build 0)  -->
<svg version="1.1" id="Layer_1" xmlns="http://www.w3.org/2000/svg" xmlns:xlink="http://www.w3.org/1999/xlink" x="0px" y="0px"
	 viewBox="0 0 512 512" style="enable-background:new 0 0 512 512;" xml:space="preserve">
<rect x="8.258" y="200.946" style="fill:#FFFFFF;" width="495.484" height="110.108"/>
<path style="fill:#ED1F34;" d="M503.742,200.946H8.258v-75.575c0-19.073,15.461-34.533,34.532-34.533h426.419
	c19.072,0,34.532,15.46,34.532,34.533v75.575H503.742z"/>
<path style="fill:#3DB4EA;" d="M469.21,421.161H42.79c-19.071,0-34.532-15.461-34.532-34.532v-75.576h495.484v75.576
	C503.742,405.7,488.281,421.161,469.21,421.161z"/>
<path style="fill:#121B21;" d="M468.324,82.581H43.676C19.594,82.581,0,102.173,0,126.257v259.487
	c0,24.083,19.594,43.675,43.676,43.675h424.647c24.083,0,43.676-19.593,43.676-43.676V126.257
	C512,102.173,492.406,82.581,468.324,82.581z M43.676,99.097h424.647c14.977,0,27.16,12.183,27.16,27.16v66.431H16.516v-66.431
	C16.516,111.28,28.7,99.097,43.676,99.097z M468.324,412.903H43.676c-14.977,0-27.16-12.183-27.16-27.16v-66.431h57.806
	c4.562,0,8.258-3.697,8.258-8.258c0-4.561-3.696-8.258-8.258-8.258H16.516v-93.591h478.968v93.591H107.355
	c-4.562,0-8.258,3.697-8.258,8.258c0,4.561,3.696,8.258,8.258,8.258h388.129v66.431C495.484,400.72,483.3,412.903,468.324,412.903z"
	/>
<g>
</g>
<g>
</g>
<g>
</g>
<g>
</g>
<g>
</g>
<g>
</g>
<g>
</g>
<g>
</g>
<g>
</g>
<g>
</g>
<g>
</g>
<g>
</g>
<g>
</g>
<g>
</g>
<g>
</g>
</svg>
