<?xml version="1.0" encoding="iso-8859-1"?>
<!-- Generator: Adobe Illustrator 19.0.0, SVG Export Plug-In . SVG Version: 6.00 Build 0)  -->
<svg version="1.1" id="Layer_1" xmlns="http://www.w3.org/2000/svg" xmlns:xlink="http://www.w3.org/1999/xlink" x="0px" y="0px"
	 viewBox="0 0 512 512" style="enable-background:new 0 0 512 512;" xml:space="preserve">
<rect x="8.258" y="200.946" style="fill:#333333;" width="495.484" height="110.108"/>
<path style="fill:#259245;" d="M8.258,385.743c0,19.561,15.858,35.418,35.418,35.418h424.648c19.561,0,35.418-15.857,35.418-35.418
	v-74.689H8.258V385.743z"/>
<path style="fill:#ED1F34;" d="M468.324,90.839H43.676c-19.561,0-35.418,15.857-35.418,35.417v74.69h495.484v-74.69
	C503.742,106.695,487.884,90.839,468.324,90.839z"/>
<g>
	<path style="fill:#FFFFFF;" d="M244.259,289.583c-18.518,0-33.583-15.066-33.583-33.583s15.065-33.583,33.583-33.583
		c7.153,0,13.98,2.221,19.747,6.42c3.686,2.686,4.498,7.852,1.812,11.538c-2.684,3.686-7.848,4.499-11.537,1.812
		c-2.922-2.129-6.388-3.255-10.022-3.255c-9.411,0-17.067,7.656-17.067,17.067s7.656,17.067,17.067,17.067
		c3.634,0,7.1-1.126,10.023-3.256c3.686-2.684,8.853-1.874,11.537,1.812c2.686,3.686,1.874,8.852-1.812,11.538
		C258.24,287.362,251.411,289.583,244.259,289.583z"/>
	<circle style="fill:#FFFFFF;" cx="281.974" cy="256" r="9.435"/>
</g>
<path style="fill:#111A21;" d="M468.324,82.581H43.676C19.593,82.581,0,102.174,0,126.257v259.486
	c0,24.083,19.593,43.676,43.676,43.676h424.648c24.083,0,43.675-19.594,43.675-43.676V126.257
	C512,102.174,492.407,82.581,468.324,82.581z M43.676,99.097h424.648c14.976,0,27.159,12.183,27.159,27.16v66.431H16.516v-66.431
	C16.516,111.28,28.7,99.097,43.676,99.097z M468.324,412.903H43.676c-14.977,0-27.16-12.183-27.16-27.16v-66.431h421.161
	c4.561,0,8.258-3.696,8.258-8.258s-3.697-8.258-8.258-8.258H16.516v-93.591h478.968v93.591H470.71c-4.561,0-8.258,3.696-8.258,8.258
	s3.697,8.258,8.258,8.258h24.774v66.431C495.484,400.72,483.3,412.903,468.324,412.903z"/>
<g>
</g>
<g>
</g>
<g>
</g>
<g>
</g>
<g>
</g>
<g>
</g>
<g>
</g>
<g>
</g>
<g>
</g>
<g>
</g>
<g>
</g>
<g>
</g>
<g>
</g>
<g>
</g>
<g>
</g>
</svg>
