<?xml version="1.0" encoding="iso-8859-1"?>
<!-- Generator: Adobe Illustrator 19.0.0, SVG Export Plug-In . SVG Version: 6.00 Build 0)  -->
<svg version="1.1" id="Layer_1" xmlns="http://www.w3.org/2000/svg" xmlns:xlink="http://www.w3.org/1999/xlink" x="0px" y="0px"
	 viewBox="0 0 512 512" style="enable-background:new 0 0 512 512;" xml:space="preserve">
<path style="fill:#ED1F34;" d="M503.742,385.927V126.073c0-19.459-15.775-35.234-35.234-35.234H43.492
	c-19.459,0-35.234,15.775-35.234,35.234v259.854c0,19.459,15.775,35.234,35.234,35.234h425.015
	C487.967,421.161,503.742,405.386,503.742,385.927z"/>
<path style="fill:#134923;" d="M298.931,330.323c-1.703,0-3.407-0.526-4.854-1.577L256,301.08l-38.077,27.665
	c-2.894,2.103-6.815,2.103-9.707,0c-2.895-2.103-4.106-5.83-3-9.233l14.544-44.762l-34.609-25.145c-5-3.632-6.871-4.992-6.871-9.199
	c0-4.561,3.697-8.258,8.258-8.258h47.064l14.545-44.763c1.105-3.402,4.277-5.706,7.854-5.706s6.748,2.303,7.854,5.706l14.545,44.763
	h47.067c3.577,0,6.749,2.303,7.854,5.707c1.105,3.402-0.106,7.129-3,9.233l-38.077,27.665l14.544,44.762
	c1.105,3.402-0.106,7.131-3,9.234C302.338,329.796,300.634,330.323,298.931,330.323z M270.049,290.872l13.174,9.572l-5.032-15.487
	L270.049,290.872z M233.808,284.957l-5.032,15.487l13.174-9.572L233.808,284.957z M239.174,268.441l16.824,12.224l16.826-12.224
	l-6.427-19.779H245.6L239.174,268.441z M283.764,248.662l3.111,9.572l13.173-9.572H283.764z M211.951,248.662
	c4.03,2.928,8.476,6.158,13.173,9.571l3.109-9.571H211.951z M250.967,232.146h10.065L256,216.66L250.967,232.146z"/>
<path style="fill:#111A21;" d="M468.324,429.419H43.675C19.593,429.419,0,409.827,0,385.743V126.256
	c0-24.083,19.593-43.675,43.675-43.675h424.648c24.084,0,43.676,19.593,43.676,43.675v259.487
	C512,409.827,492.407,429.419,468.324,429.419z M43.675,99.097c-14.976,0-27.159,12.183-27.159,27.159v259.487
	c0,14.977,12.183,27.16,27.159,27.16h424.648c14.977,0,27.16-12.183,27.16-27.16V126.256c0-14.976-12.183-27.159-27.16-27.159
	H43.675z"/>
<g>
</g>
<g>
</g>
<g>
</g>
<g>
</g>
<g>
</g>
<g>
</g>
<g>
</g>
<g>
</g>
<g>
</g>
<g>
</g>
<g>
</g>
<g>
</g>
<g>
</g>
<g>
</g>
<g>
</g>
</svg>
