<?xml version="1.0" encoding="iso-8859-1"?>
<!-- Generator: Adobe Illustrator 19.0.0, SVG Export Plug-In . SVG Version: 6.00 Build 0)  -->
<svg version="1.1" id="Layer_1" xmlns="http://www.w3.org/2000/svg" xmlns:xlink="http://www.w3.org/1999/xlink" x="0px" y="0px"
	 viewBox="0 0 512 512" style="enable-background:new 0 0 512 512;" xml:space="preserve">
<path style="fill:#ED1F34;" d="M468.324,90.839H43.676c-19.562,0-35.418,15.857-35.418,35.417V256h495.484V126.256
	C503.742,106.695,487.884,90.839,468.324,90.839z"/>
<path style="fill:#FFFFFF;" d="M8.258,385.743c0,19.561,15.857,35.418,35.418,35.418h424.648c19.561,0,35.418-15.857,35.418-35.418
	V256H8.258V385.743z"/>
<g>
	<path style="fill:#121B21;" d="M503.742,264.258H470.71c-4.561,0-8.258-3.697-8.258-8.258c0-4.561,3.697-8.258,8.258-8.258h33.032
		c4.561,0,8.258,3.697,8.258,8.258C512,260.561,508.303,264.258,503.742,264.258z"/>
	<path style="fill:#121B21;" d="M437.677,264.258H8.258C3.697,264.258,0,260.561,0,256c0-4.561,3.697-8.258,8.258-8.258h429.419
		c4.561,0,8.258,3.697,8.258,8.258C445.935,260.561,442.238,264.258,437.677,264.258z"/>
	<path style="fill:#121B21;" d="M468.324,429.419H43.675C19.593,429.419,0,409.827,0,385.743V126.256
		c0-24.083,19.593-43.675,43.675-43.675h424.648c24.084,0,43.676,19.593,43.676,43.675v259.487
		C512,409.827,492.407,429.419,468.324,429.419z M43.675,99.097c-14.976,0-27.159,12.183-27.159,27.159v259.487
		c0,14.977,12.183,27.16,27.159,27.16h424.648c14.977,0,27.16-12.183,27.16-27.16V126.256c0-14.976-12.183-27.159-27.16-27.159
		H43.675z"/>
</g>
<g>
</g>
<g>
</g>
<g>
</g>
<g>
</g>
<g>
</g>
<g>
</g>
<g>
</g>
<g>
</g>
<g>
</g>
<g>
</g>
<g>
</g>
<g>
</g>
<g>
</g>
<g>
</g>
<g>
</g>
</svg>
