<?xml version="1.0" encoding="iso-8859-1"?>
<!-- Generator: Adobe Illustrator 19.0.0, SVG Export Plug-In . SVG Version: 6.00 Build 0)  -->
<svg version="1.1" id="Layer_1" xmlns="http://www.w3.org/2000/svg" xmlns:xlink="http://www.w3.org/1999/xlink" x="0px" y="0px"
	 viewBox="0 0 512 512" style="enable-background:new 0 0 512 512;" xml:space="preserve">
<rect x="173.419" y="90.839" style="fill:#FFE000;" width="165.161" height="330.323"/>
<path style="fill:#ED1F34;" d="M468.324,90.839H338.581v330.323h129.743c19.561,0,35.418-15.858,35.418-35.418V126.256
	C503.742,106.695,487.885,90.839,468.324,90.839z"/>
<path style="fill:#164FCE;" d="M43.676,90.839c-19.561,0-35.418,15.857-35.418,35.417v259.487c0,19.561,15.858,35.418,35.418,35.418
	h129.743V90.839H43.676z"/>
<g>
	<path style="fill:#F2A643;" d="M222.485,219.139c-8.855,0-16.034,7.179-16.034,16.034v68.269l32.068-30.929v-37.341
		C238.519,226.318,231.341,219.139,222.485,219.139z"/>
	<path style="fill:#F2A643;" d="M289.515,219.139c8.855,0,16.034,7.179,16.034,16.034v68.269l-32.068-30.929v-37.341
		C273.481,226.318,280.659,219.139,289.515,219.139z"/>
</g>
<polygon style="fill:#ED1F34;" points="238.519,235.173 238.519,272.514 256,281.906 273.481,272.514 273.481,235.173 "/>
<path style="fill:#121B21;" d="M289.515,210.881c-10.497,0-19.457,6.692-22.844,16.035h-2.412v-28.912
	c0-4.561-3.696-8.258-8.258-8.258h-9.213c-4.562,0-8.258,3.697-8.258,8.258s3.696,8.258,8.258,8.258h0.955v20.654h-2.411
	c-3.387-9.342-12.347-16.035-22.844-16.035c-13.395,0-24.293,10.897-24.293,24.293v68.269c0,3.313,1.98,6.306,5.029,7.601
	c1.041,0.443,2.138,0.657,3.227,0.657c2.099,0,4.164-0.8,5.736-2.314l27.732-26.747l7.825,4.204v27.153
	c0,4.561,3.696,8.258,8.258,8.258c4.562,0,8.258-3.697,8.258-8.258v-27.153l7.825-4.204l27.732,26.747
	c1.571,1.514,3.637,2.314,5.736,2.314c1.088,0,2.186-0.215,3.227-0.657c3.05-1.295,5.029-4.288,5.029-7.601v-68.269
	C313.806,221.779,302.909,210.881,289.515,210.881z M214.71,235.173c0-4.288,3.488-7.777,7.777-7.777
	c4.288,0,7.775,3.489,7.775,7.777v33.832l-15.552,15V235.173z M246.777,243.431h18.445v24.144L256,272.532l-9.223-4.956
	L246.777,243.431L246.777,243.431z M297.29,284.005l-15.552-15v-33.832c0-4.288,3.488-7.777,7.775-7.777
	c4.289,0,7.777,3.489,7.777,7.777V284.005z M468.324,82.581H43.676C19.594,82.581,0,102.173,0,126.256v259.487
	c0,24.084,19.594,43.676,43.676,43.676h424.647c24.083,0,43.676-19.593,43.676-43.676V126.256
	C512,102.173,492.406,82.581,468.324,82.581z M16.516,385.743V126.256c0-14.976,12.183-27.159,27.16-27.159h121.485v222.968
	c0,4.561,3.696,8.258,8.258,8.258c4.562,0,8.258-3.697,8.258-8.258V99.097h148.645v313.806H181.677v-57.806
	c0-4.561-3.696-8.258-8.258-8.258c-4.562,0-8.258,3.697-8.258,8.258v57.806H43.676C28.7,412.903,16.516,400.72,16.516,385.743z
	 M495.484,385.743c0,14.977-12.183,27.16-27.16,27.16H346.839V99.097h121.485c14.977,0,27.16,12.183,27.16,27.159V385.743z"/>
<g>
</g>
<g>
</g>
<g>
</g>
<g>
</g>
<g>
</g>
<g>
</g>
<g>
</g>
<g>
</g>
<g>
</g>
<g>
</g>
<g>
</g>
<g>
</g>
<g>
</g>
<g>
</g>
<g>
</g>
</svg>
