<?xml version="1.0" encoding="iso-8859-1"?>
<!-- Generator: Adobe Illustrator 19.0.0, SVG Export Plug-In . SVG Version: 6.00 Build 0)  -->
<svg version="1.1" id="Layer_1" xmlns="http://www.w3.org/2000/svg" xmlns:xlink="http://www.w3.org/1999/xlink" x="0px" y="0px"
	 viewBox="0 0 512 512" style="enable-background:new 0 0 512 512;" xml:space="preserve">
<path style="fill:#FFE000;" d="M8.258,384.275V127.725c0-20.372,16.515-36.886,36.886-36.886h421.712
	c20.371,0,36.886,16.514,36.886,36.886v256.551c0,20.371-16.515,36.886-36.886,36.886H45.144
	C24.773,421.161,8.258,404.646,8.258,384.275z"/>
<rect x="41.29" y="123.871" style="fill:#ED1F34;" width="429.419" height="264.258"/>
<path style="fill:#FFE000;" d="M345.887,203.597H294.72c0,21.385-17.335,38.72-38.72,38.72s-38.72-17.336-38.72-38.72h-51.167
	c0,44.167,31.865,80.867,73.854,88.433c-5.437,4.574-8.899,11.42-8.899,19.082v31.221h49.867v-31.221
	c0-7.661-3.463-14.508-8.9-19.082C314.022,284.464,345.887,247.763,345.887,203.597z"/>
<path style="fill:#121B21;" d="M356.898,195.338h-11.011H294.72c-4.562,0-8.258,3.697-8.258,8.258
	c0,8.428-3.442,16.066-8.991,21.587v-47.256h4.955c4.562,0,8.258-3.697,8.258-8.258c0-4.561-3.696-8.258-8.258-8.258h-13.213
	c-4.562,0-8.258,3.697-8.258,8.258v63.981c-1.613,0.265-3.267,0.41-4.955,0.41c-1.688,0-3.342-0.144-4.955-0.41v-63.981
	c0-4.561-3.696-8.258-8.258-8.258h-13.213c-4.562,0-8.258,3.697-8.258,8.258c0,4.561,3.696,8.258,8.258,8.258h4.955v47.256
	c-5.549-5.521-8.991-13.159-8.991-21.587c0-4.561-3.696-8.258-8.258-8.258h-51.167h-11.011c-4.562,0-8.258,3.697-8.258,8.258
	s3.696,8.258,8.258,8.258h3.101c3.308,39.618,30.197,73.174,67.738,85.178c-2.041,4.351-3.133,9.144-3.133,14.077v31.221
	c0,4.561,3.696,8.258,8.258,8.258h49.867c4.562,0,8.258-3.697,8.258-8.258V311.11c0-4.933-1.091-9.726-3.133-14.077
	c37.541-12.004,64.431-45.561,67.738-85.178h3.101c4.562,0,8.258-3.697,8.258-8.258
	C365.156,199.036,361.459,195.338,356.898,195.338z M270.569,283.901c-3.15,0.568-5.689,2.906-6.515,6
	c-0.825,3.094,0.212,6.385,2.664,8.446c3.785,3.185,5.957,7.837,5.957,12.763v22.963h-33.35V311.11
	c0-4.925,2.171-9.577,5.957-12.763c2.451-2.061,3.488-5.352,2.664-8.446c-0.826-3.094-3.365-5.432-6.515-6
	c-36.121-6.507-63.033-36.152-66.646-72.047h34.965c2.94,16.51,14.534,30.063,29.907,35.786c0.26,0.107,0.526,0.198,0.798,0.279
	c4.869,1.713,10.099,2.656,15.546,2.656c5.447,0,10.677-0.943,15.546-2.656c0.272-0.08,0.54-0.173,0.799-0.28
	c15.372-5.723,26.966-19.277,29.906-35.786h34.965C333.603,247.75,306.69,277.394,270.569,283.901z M468.324,82.581H43.676
	C19.594,82.581,0,102.173,0,126.257v259.487c0,24.083,19.594,43.675,43.676,43.675h424.647c24.083,0,43.676-19.593,43.676-43.676
	V126.257C512,102.173,492.406,82.581,468.324,82.581z M495.484,385.743c0,14.977-12.183,27.16-27.16,27.16H43.676
	c-14.977,0-27.16-12.183-27.16-27.16V126.257c0-14.977,12.183-27.16,27.16-27.16h424.647c14.977,0,27.16,12.183,27.16,27.16V385.743
	z"/>
<g>
</g>
<g>
</g>
<g>
</g>
<g>
</g>
<g>
</g>
<g>
</g>
<g>
</g>
<g>
</g>
<g>
</g>
<g>
</g>
<g>
</g>
<g>
</g>
<g>
</g>
<g>
</g>
<g>
</g>
</svg>
