<?xml version="1.0" encoding="iso-8859-1"?>
<!-- Generator: Adobe Illustrator 19.0.0, SVG Export Plug-In . SVG Version: 6.00 Build 0)  -->
<svg version="1.1" id="Layer_1" xmlns="http://www.w3.org/2000/svg" xmlns:xlink="http://www.w3.org/1999/xlink" x="0px" y="0px"
	 viewBox="0 0 512 512" style="enable-background:new 0 0 512 512;" xml:space="preserve">
<path style="fill:#103B9B;" d="M43.835,421.161h424.329c19.649,0,35.577-15.928,35.577-35.577V126.416
	c0-19.649-15.928-35.577-35.577-35.577H43.835c-19.649,0-35.577,15.928-35.577,35.577v259.168
	C8.258,405.233,24.186,421.161,43.835,421.161z"/>
<polygon style="fill:#FFFFFF;" points="8.258,395.286 8.258,403.544 503.742,240.585 503.742,174.52 "/>
<polygon style="fill:#FF7900;" points="8.258,387.028 8.258,395.286 503.742,174.52 503.742,108.456 "/>
<circle style="fill:#FFFFFF;" cx="132.129" cy="200.649" r="33.032"/>
<g>
	<path style="fill:#111A21;" d="M468.324,82.581H43.676C19.593,82.581,0,102.173,0,126.257v259.487c0,0.268,0.015,0.531,0.02,0.797
		c-0.03,0.486-0.02,0.976,0.039,1.464c0.328,6.404,2.052,12.442,4.857,17.831c0.058,0.119,0.118,0.237,0.181,0.352
		c7.346,13.805,21.881,23.23,38.581,23.23h424.648c24.082,0,43.675-19.593,43.675-43.675V240.501c0-0.023,0-0.046,0-0.07V126.257
		C512,102.173,492.406,82.581,468.324,82.581z M495.484,385.744c0,14.976-12.183,27.159-27.16,27.159H43.676
		c-6.721,0-12.875-2.46-17.623-6.518l469.43-154.391V385.744z M495.484,234.608L17.229,391.901c-0.031-0.13-0.062-0.261-0.09-0.392
		l414.243-232.896c3.975-2.235,5.386-7.269,3.151-11.245c-2.235-3.975-7.27-5.388-11.246-3.151L16.516,372.911V126.257
		c0-14.977,12.183-27.16,27.16-27.16h424.648c7.824,0,14.882,3.33,19.842,8.642l-36.087,20.29c-3.975,2.235-5.386,7.27-3.15,11.245
		c1.515,2.695,4.318,4.213,7.205,4.213c1.37,0,2.76-0.342,4.04-1.061l35.07-19.718c0.153,1.163,0.239,2.345,0.239,3.55v108.351
		H495.484z"/>
	<path style="fill:#111A21;" d="M189.092,192.395h-16.504c-3.292-16.155-16.047-28.909-32.201-32.201V143.69
		c0-4.561-3.697-8.258-8.258-8.258s-8.258,3.697-8.258,8.258v16.504c-16.155,3.292-28.909,16.047-32.201,32.201H75.166
		c-4.561,0-8.258,3.697-8.258,8.258s3.697,8.258,8.258,8.258H91.67c3.292,16.155,16.047,28.909,32.201,32.201v16.504
		c0,4.561,3.697,8.258,8.258,8.258c4.561,0,8.258-3.697,8.258-8.258v-16.503c16.155-3.292,28.909-16.046,32.201-32.201h16.504
		c4.561,0,8.258-3.697,8.258-8.258C197.35,196.093,193.653,192.395,189.092,192.395z M132.129,225.428
		c-13.661,0-24.774-11.113-24.774-24.774s11.113-24.774,24.774-24.774s24.774,11.113,24.774,24.774
		C156.903,214.314,145.79,225.428,132.129,225.428z"/>
</g>
<g>
</g>
<g>
</g>
<g>
</g>
<g>
</g>
<g>
</g>
<g>
</g>
<g>
</g>
<g>
</g>
<g>
</g>
<g>
</g>
<g>
</g>
<g>
</g>
<g>
</g>
<g>
</g>
<g>
</g>
</svg>
