<?xml version="1.0" encoding="iso-8859-1"?>
<!-- Generator: Adobe Illustrator 19.0.0, SVG Export Plug-In . SVG Version: 6.00 Build 0)  -->
<svg version="1.1" id="Layer_1" xmlns="http://www.w3.org/2000/svg" xmlns:xlink="http://www.w3.org/1999/xlink" x="0px" y="0px"
	 viewBox="0 0 512 512" style="enable-background:new 0 0 512 512;" xml:space="preserve">
<path style="fill:#ED1F34;" d="M465.204,90.838H46.796c-21.284,0-38.538,17.254-38.538,38.538v253.247
	c0,21.284,17.254,38.538,38.538,38.538h418.409c21.284,0,38.538-17.254,38.538-38.538V129.375
	C503.742,108.091,486.488,90.838,465.204,90.838z"/>
<g>
	<path style="fill:#FFE000;" d="M189.95,293.47L20.528,412.537c6.209,5.369,14.295,8.624,23.148,8.624h58.083l105.788-106.691
		C200.487,308.608,194.517,301.489,189.95,293.47z"/>
	<path style="fill:#FFE000;" d="M180.026,255.999c0-4.68,0.447-9.253,1.262-13.701L8.258,226.294v59.407l173.03-16.003
		C180.474,265.251,180.026,260.677,180.026,255.999z"/>
	<path style="fill:#FFE000;" d="M189.95,218.527c4.567-8.019,10.537-15.14,17.597-21L101.759,90.838H43.676
		c-8.852,0-16.939,3.255-23.148,8.624L189.95,218.527z"/>
	<path style="fill:#FFE000;" d="M256,180.025c4.68,0,9.253,0.447,13.701,1.261l12.77-90.448H229.53l12.769,90.448
		C246.747,180.472,251.32,180.025,256,180.025z"/>
	<path style="fill:#FFE000;" d="M331.974,255.999c0,4.68-0.448,9.253-1.262,13.701l173.03,16.003v-59.407l-173.03,16.003
		C331.527,246.745,331.974,251.319,331.974,255.999z"/>
	<path style="fill:#FFE000;" d="M322.05,218.527L491.472,99.46c-6.209-5.369-14.295-8.624-23.148-8.624h-58.083L304.453,197.527
		C311.513,203.388,317.483,210.508,322.05,218.527z"/>
	<path style="fill:#FFE000;" d="M256,331.973c-4.68,0-9.253-0.447-13.701-1.261L229.53,421.16h52.941l-12.769-90.448
		C265.253,331.525,260.68,331.973,256,331.973z"/>
	<path style="fill:#FFE000;" d="M322.05,293.47c-4.567,8.019-10.537,15.14-17.597,21L410.241,421.16h58.083
		c8.852,0,16.939-3.255,23.148-8.624L322.05,293.47z"/>
	<circle style="fill:#FFE000;" cx="256" cy="255.999" r="42.942"/>
</g>
<path style="fill:#121B21;" d="M512,285.612v-59.228c0-0.004,0-0.009,0-0.013V126.256c0-12.992-5.708-24.67-14.741-32.677
	c-0.263-0.26-0.538-0.5-0.829-0.718c-7.602-6.408-17.408-10.281-28.106-10.281H43.676C19.593,82.58,0,102.172,0,126.255V226.37
	c0,0.004,0,0.009,0,0.013v59.228c0,0.004,0,0.009,0,0.013V385.74c0,13.126,5.829,24.91,15.024,32.922
	c0.264,0.26,0.541,0.502,0.831,0.72c7.561,6.266,17.258,10.036,27.821,10.036h238.76c0.008,0,0.015,0.001,0.023,0.001
	c0.005,0,0.01-0.001,0.015-0.001h185.848c9.515,0,18.323-3.068,25.504-8.254c2.013-0.397,3.885-1.535,5.157-3.346
	c0.467-0.664,0.816-1.374,1.064-2.105c7.399-7.828,11.95-18.375,11.95-29.97V285.628C512,285.622,512,285.617,512,285.612z
	 M495.484,385.742c0,5.933-1.918,11.424-5.159,15.896L326.799,286.713c-1.903-1.337-4.282-1.811-6.552-1.303
	c-2.27,0.508-4.22,1.95-5.372,3.972c-4.088,7.178-9.369,13.48-15.697,18.733c-1.783,1.48-2.862,3.64-2.974,5.955
	c-0.112,2.314,0.753,4.568,2.385,6.214l91.835,92.618H289.645l-11.766-83.345c-0.314-2.226-1.523-4.228-3.346-5.544
	c-1.823-1.315-4.105-1.83-6.317-1.425c-8.169,1.494-16.261,1.494-24.43,0c-2.213-0.404-4.493,0.11-6.317,1.425
	c-1.823,1.315-3.032,3.318-3.347,5.544l-11.766,83.345H121.576l91.835-92.618c1.631-1.645,2.497-3.9,2.384-6.214
	c-0.112-2.314-1.191-4.475-2.974-5.955c-6.327-5.252-11.609-11.555-15.697-18.733c-1.153-2.024-3.106-3.466-5.379-3.973
	c-2.272-0.508-4.653-0.031-6.557,1.311l-163.313,115.2c-3.365-4.522-5.36-10.121-5.36-16.179v-92.51l165.531-15.309
	c2.307-0.214,4.419-1.386,5.819-3.233c1.399-1.846,1.96-4.196,1.543-6.475c-0.748-4.087-1.126-8.198-1.126-12.215
	c0-4.018,0.379-8.128,1.126-12.215c0.417-2.279-0.143-4.629-1.543-6.475c-1.401-1.847-3.512-3.019-5.819-3.233l-165.531-15.31
	v-92.51c0-5.933,1.917-11.423,5.157-15.895l163.527,114.925c1.403,0.985,3.063,1.502,4.749,1.502c0.602,0,1.207-0.066,1.805-0.199
	c2.27-0.508,4.22-1.95,5.371-3.972c4.087-7.178,9.369-13.479,15.696-18.731c1.783-1.48,2.862-3.64,2.974-5.955
	c0.112-2.314-0.753-4.568-2.384-6.214l-91.835-92.619h100.779l11.766,83.345c0.314,2.226,1.523,4.228,3.346,5.544
	c1.824,1.315,4.105,1.831,6.316,1.425c8.175-1.494,16.256-1.494,24.431,0c0.493,0.09,0.991,0.135,1.485,0.135
	c1.721,0,3.413-0.538,4.83-1.56c1.823-1.315,3.032-3.318,3.346-5.544l11.768-83.345h100.779l-91.835,92.618
	c-1.631,1.645-2.497,3.9-2.385,6.214c0.112,2.314,1.191,4.475,2.974,5.955c6.327,5.252,11.609,11.555,15.697,18.733
	c1.152,2.022,3.102,3.464,5.372,3.972c0.597,0.134,1.201,0.199,1.804,0.199c1.685,0,3.346-0.516,4.749-1.502L490.326,110.36
	c3.24,4.473,5.157,9.963,5.157,15.895v92.51l-165.531,15.309c-2.308,0.214-4.42,1.386-5.819,3.234
	c-1.401,1.846-1.96,4.196-1.543,6.477c0.748,4.084,1.126,8.193,1.126,12.214c0,4.021-0.379,8.13-1.126,12.214
	c-0.417,2.279,0.142,4.63,1.543,6.477c1.399,1.846,3.511,3.02,5.819,3.234l165.531,15.308V385.742z M272.964,412.902h-33.93
	l10.298-72.943c4.466,0.362,8.868,0.362,13.333,0L272.964,412.902z M16.516,235.352l155.493,14.38
	c-0.161,2.099-0.241,4.191-0.241,6.266c0,2.076,0.08,4.168,0.241,6.266L16.516,276.645V235.352z M239.036,99.096h33.93
	l-10.298,72.943c-4.467-0.362-8.867-0.362-13.333,0L239.036,99.096z M339.992,262.264c0.16-2.099,0.24-4.191,0.24-6.266
	c0-2.076-0.08-4.168-0.24-6.266l155.492-14.38v41.293L339.992,262.264z M476.034,100.217L324.339,206.826
	c-2.433-3.38-5.106-6.569-8.007-9.55l97.35-98.181h54.642C471.003,99.096,473.588,99.491,476.034,100.217z M98.317,99.096
	l97.35,98.18c-2.901,2.981-5.575,6.169-8.006,9.55L35.966,100.217c2.447-0.726,5.032-1.121,7.711-1.121H98.317z M36.384,411.899
	l151.286-106.716c2.43,3.377,5.101,6.56,7.998,9.539l-97.35,98.181H43.676C41.149,412.902,38.706,412.548,36.384,411.899z
	 M413.683,412.902l-97.35-98.18c2.901-2.981,5.575-6.169,8.007-9.55l151.694,106.609c-2.445,0.726-5.032,1.121-7.71,1.121h-54.641
	V412.902z M221.316,255.999c0,19.125,15.559,34.684,34.684,34.684c14.045,0,26.615-8.379,32.024-21.347
	c1.755-4.209,6.59-6.198,10.8-4.443c4.209,1.755,6.198,6.591,4.443,10.8c-7.982,19.138-26.536,31.505-47.267,31.505
	c-28.232,0-51.2-22.968-51.2-51.2s22.968-51.2,51.2-51.2c20.731,0,39.285,12.366,47.267,31.505c1.756,4.209-0.233,9.045-4.443,10.8
	c-4.208,1.754-9.045-0.233-10.8-4.443c-5.408-12.968-17.978-21.347-32.024-21.347C236.875,221.315,221.316,236.873,221.316,255.999z
	"/>
<g>
</g>
<g>
</g>
<g>
</g>
<g>
</g>
<g>
</g>
<g>
</g>
<g>
</g>
<g>
</g>
<g>
</g>
<g>
</g>
<g>
</g>
<g>
</g>
<g>
</g>
<g>
</g>
<g>
</g>
</svg>
