<?xml version="1.0" encoding="iso-8859-1"?>
<!-- Generator: Adobe Illustrator 19.0.0, SVG Export Plug-In . SVG Version: 6.00 Build 0)  -->
<svg version="1.1" id="Layer_1" xmlns="http://www.w3.org/2000/svg" xmlns:xlink="http://www.w3.org/1999/xlink" x="0px" y="0px"
	 viewBox="0 0 512 512" style="enable-background:new 0 0 512 512;" xml:space="preserve">
<rect x="8.258" y="200.946" style="fill:#259245;" width="495.484" height="110.108"/>
<path style="fill:#ED1F34;" d="M8.258,385.743c0,19.561,15.858,35.418,35.418,35.418h424.648c19.561,0,35.418-15.858,35.418-35.418
	v-74.689H8.258V385.743z"/>
<path style="fill:#FFE000;" d="M468.324,90.839H43.676c-19.561,0-35.418,15.857-35.418,35.418v74.689h495.484v-74.689
	C503.742,106.695,487.884,90.839,468.324,90.839z"/>
<polygon style="fill:#FFFFFF;" points="169.169,236.505 233.102,233.202 256,173.419 278.898,233.202 342.831,236.505 
	293.049,276.756 309.664,338.581 256,303.674 202.336,338.581 218.951,276.756 "/>
<g>
	<path style="fill:#111A21;" d="M343.257,228.258l-58.568-3.026l-20.977-54.766c-1.223-3.195-4.291-5.304-7.712-5.304
		c-3.421,0-6.489,2.11-7.712,5.304l-20.977,54.766l-58.568,3.026c-3.416,0.176-6.371,2.441-7.428,5.695
		c-1.057,3.254,0.001,6.822,2.662,8.974l45.603,36.874l-15.22,56.637c-0.887,3.304,0.353,6.813,3.122,8.824
		c2.767,2.011,6.489,2.107,9.357,0.242L256,313.527l49.161,31.977c1.372,0.892,2.938,1.336,4.502,1.336
		c1.707,0,3.41-0.527,4.855-1.577c2.768-2.011,4.009-5.52,3.122-8.824l-15.22-56.637l45.604-36.874
		c2.661-2.151,3.719-5.72,2.662-8.974C349.628,230.699,346.674,228.435,343.257,228.258z M287.857,270.335
		c-2.539,2.054-3.63,5.411-2.782,8.565l11.018,41.002l-35.59-23.15c-1.369-0.891-2.935-1.336-4.502-1.336s-3.134,0.445-4.502,1.336
		l-35.59,23.15l11.018-41.002c0.848-3.155-0.243-6.512-2.782-8.565l-33.016-26.694l42.401-2.191
		c3.261-0.168,6.118-2.244,7.286-5.293l15.186-39.649l15.186,39.649c1.168,3.05,4.024,5.124,7.286,5.293l42.401,2.191
		L287.857,270.335z"/>
	<path style="fill:#111A21;" d="M468.324,82.581H43.676C19.593,82.581,0,102.173,0,126.257v259.487
		c0,24.083,19.593,43.675,43.676,43.675h424.648c24.083,0,43.675-19.593,43.675-43.676V126.257
		C512,102.173,492.407,82.581,468.324,82.581z M495.484,385.743c0,14.977-12.183,27.16-27.16,27.16H43.676
		c-14.977,0-27.16-12.183-27.16-27.16V126.257c0-14.977,12.183-27.16,27.16-27.16h424.648c14.976,0,27.159,12.183,27.159,27.16
		V385.743z"/>
</g>
<g>
</g>
<g>
</g>
<g>
</g>
<g>
</g>
<g>
</g>
<g>
</g>
<g>
</g>
<g>
</g>
<g>
</g>
<g>
</g>
<g>
</g>
<g>
</g>
<g>
</g>
<g>
</g>
<g>
</g>
</svg>
