<?xml version="1.0" encoding="iso-8859-1"?>
<!-- Generator: Adobe Illustrator 19.0.0, SVG Export Plug-In . SVG Version: 6.00 Build 0)  -->
<svg version="1.1" id="Layer_1" xmlns="http://www.w3.org/2000/svg" xmlns:xlink="http://www.w3.org/1999/xlink" x="0px" y="0px"
	 viewBox="0 0 512 512" style="enable-background:new 0 0 512 512;" xml:space="preserve">
<path style="fill:#ED1F34;" d="M466.625,90.72H330.304v330.304h136.192c20.48,0,37.184-15.872,37.184-35.393V126.24
	C503.681,106.592,487.105,90.72,466.625,90.72z"/>
<rect x="173.378" y="90.721" style="fill:#103B9B;" width="165.184" height="330.309"/>
<path style="fill:#ED1F34;" d="M43.712,90.72c-19.584,0-35.392,15.872-35.392,35.393v259.52c0,19.584,15.872,35.392,35.392,35.392
	H173.44V90.72H43.712L43.712,90.72z"/>
<g>
	<path style="fill:#FFE000;" d="M90.816,249.505c-20.48,0-38.912-13.824-44.672-33.472c-1.216-4.032,1.088-8.128,5.12-9.28
		s8.128,1.088,9.28,5.12c3.904,13.376,16.384,22.72,30.272,22.72s26.432-9.28,30.272-22.72c1.216-4.032,5.312-6.208,9.28-5.12
		c4.032,1.216,6.208,5.312,5.12,9.28C129.792,235.68,111.424,249.505,90.816,249.505z"/>
	<path style="fill:#FFE000;" d="M90.816,191.328c-6.4,0-11.584,5.184-11.584,11.584s5.184,11.584,11.584,11.584
		s11.584-5.184,11.584-11.584S97.216,191.328,90.816,191.328z"/>
	<path style="fill:#FFE000;" d="M90.816,221.92c-10.496,0-19.072-8.576-19.072-19.072s8.576-19.072,19.072-19.072
		s19.072,8.576,19.072,19.072C109.888,213.408,101.312,221.92,90.816,221.92z M90.816,198.816c-2.176,0-4.096,1.792-4.096,4.096
		c0,2.176,1.792,4.096,4.096,4.096c2.176,0,4.096-1.792,4.096-4.096S93.12,198.816,90.816,198.816z"/>
	<path style="fill:#FFE000;" d="M134.912,365.728c-4.096,0-7.488-3.392-7.488-7.488v-88.576c0-4.096,3.392-7.488,7.488-7.488
		c4.096,0,7.488,3.392,7.488,7.488v88.576C142.4,362.401,139.008,365.728,134.912,365.728z"/>
	<path style="fill:#FFE000;" d="M46.784,365.728c-4.096,0-7.488-3.392-7.488-7.488v-88.576c0-4.096,3.392-7.488,7.488-7.488
		s7.488,3.392,7.488,7.488v88.576C54.272,362.401,50.88,365.728,46.784,365.728z"/>
	<path style="fill:#FFE000;" d="M90.816,171.296c-4.096,0-7.488-3.392-7.488-7.488v-10.176c0-4.096,3.392-7.488,7.488-7.488
		s7.488,3.392,7.488,7.488v10.176C98.304,167.904,94.976,171.296,90.816,171.296z"/>
	<path style="fill:#FFE000;" d="M90.816,296.992c-9.088,0-16.512,7.425-16.512,16.512c0,9.088,7.424,16.513,16.512,16.513
		s16.512-7.425,16.512-16.513C107.392,304.416,99.904,296.992,90.816,296.992z"/>
	<path style="fill:#FFE000;" d="M90.816,337.504c-13.184,0-24-10.816-24-24c0-13.184,10.816-24,24-24s24,10.816,24,24
		C114.88,326.816,104.128,337.504,90.816,337.504z M90.816,304.48c-4.992,0-9.024,4.032-9.024,9.024
		c0,4.992,3.968,9.024,9.024,9.024s9.024-4.032,9.024-9.024C99.84,308.512,95.809,304.48,90.816,304.48z"/>
	<path style="fill:#FFE000;" d="M107.392,365.088H74.368c-4.096,0-7.488-3.392-7.488-7.488c0-4.096,3.392-7.488,7.488-7.488h33.024
		c4.096,0,7.488,3.392,7.488,7.488C114.88,361.696,111.488,365.088,107.392,365.088z"/>
	<path style="fill:#FFE000;" d="M107.392,277.024H74.368c-4.096,0-7.488-3.392-7.488-7.488c0-4.096,3.392-7.488,7.488-7.488h33.024
		c4.096,0,7.488,3.392,7.488,7.488C114.88,273.632,111.488,277.024,107.392,277.024z"/>
</g>
<path style="fill:#121B21;" d="M468.288,82.528H43.712C19.584,82.528,0,102.112,0,126.24v259.52
	c0,24.128,19.584,43.712,43.712,43.712h424.576c24.128,0,43.712-19.584,43.712-43.712V126.24
	C512,102.112,492.416,82.528,468.288,82.528z M16.512,385.632V126.24c0-14.976,12.224-27.2,27.2-27.2h121.472v313.793H43.712
	C28.672,412.832,16.512,400.609,16.512,385.632z M495.488,385.632c0,14.976-12.224,27.2-27.2,27.2H346.817v-24.832
	c0-4.608-3.712-8.32-8.32-8.32c-4.608,0-8.32,3.712-8.32,8.32v24.832h-148.48V99.04h148.608v256c0,4.608,3.712,8.32,8.32,8.32
	c4.608,0,8.32-3.712,8.32-8.32v-256h121.473c14.976,0,27.2,12.224,27.2,27.2v259.392H495.488z"/>
<g>
</g>
<g>
</g>
<g>
</g>
<g>
</g>
<g>
</g>
<g>
</g>
<g>
</g>
<g>
</g>
<g>
</g>
<g>
</g>
<g>
</g>
<g>
</g>
<g>
</g>
<g>
</g>
<g>
</g>
</svg>
