<?xml version="1.0" encoding="iso-8859-1"?>
<!-- Generator: Adobe Illustrator 19.0.0, SVG Export Plug-In . SVG Version: 6.00 Build 0)  -->
<svg version="1.1" id="Layer_1" xmlns="http://www.w3.org/2000/svg" xmlns:xlink="http://www.w3.org/1999/xlink" x="0px" y="0px"
	 viewBox="0 0 512 512" style="enable-background:new 0 0 512 512;" xml:space="preserve">
<path style="fill:#048B7D;" d="M8.258,384.751V127.249c0-20.109,16.301-36.41,36.41-36.41h422.664
	c20.109,0,36.41,16.301,36.41,36.41v257.503c0,20.109-16.301,36.41-36.41,36.41H44.668C24.559,421.161,8.258,404.86,8.258,384.751z"
	/>
<path style="fill:#FFFFFF;" d="M345.441,252.681c-14.433-11.091-37.246-12.48-57.677-1.911c-1.266,0.655-2.501,1.344-3.701,2.066
	c0.088-1.397,0.134-2.81,0.134-4.236c0-23.003-11.715-42.626-28.197-50.35c-16.482,7.724-28.197,27.347-28.197,50.35
	c0,1.426,0.045,2.839,0.134,4.236c-1.2-0.72-2.434-1.41-3.701-2.066c-20.43-10.569-43.244-9.18-57.677,1.911
	c-0.714,18.189,11.334,37.611,31.765,48.18c20.43,10.569,43.244,9.18,57.677-1.911c14.433,11.091,37.246,12.48,57.677,1.911
	C334.107,290.292,346.154,270.87,345.441,252.681z"/>
<g>
	<circle style="fill:#FFE610;" cx="256" cy="145.573" r="16.516"/>
	<circle style="fill:#FFE610;" cx="208.378" cy="164.346" r="11.01"/>
	<circle style="fill:#FFE610;" cx="178.958" cy="197.148" r="11.007"/>
	<circle style="fill:#FFE610;" cx="333.042" cy="197.148" r="11.007"/>
	<circle style="fill:#FFE610;" cx="303.622" cy="164.346" r="11.01"/>
</g>
<path style="fill:#FFFFFF;" d="M256,382.94c23.771,0,45.299-9.587,60.943-25.099H195.057C210.701,373.352,232.229,382.94,256,382.94
	z"/>
<g>
	<path style="fill:#1A1C20;" d="M350.473,246.133c-9.093-6.987-21.14-10.835-33.923-10.835c-8.233,0-16.599,1.569-24.596,4.582
		c-2.557-22.06-14.728-40.805-32.451-49.109c-2.222-1.041-4.787-1.041-7.008,0c-17.723,8.304-29.893,27.048-32.451,49.109
		c-7.996-3.013-16.363-4.582-24.596-4.582c-12.782,0-24.83,3.847-33.923,10.835c-1.945,1.494-3.124,3.776-3.22,6.224
		c-0.865,22.091,13.352,44.008,36.221,55.838c10.291,5.324,21.556,8.138,32.579,8.138c10.547,0,20.593-2.619,28.892-7.46
		c8.299,4.84,18.345,7.459,28.892,7.46c0.001,0,0.002,0,0.003,0c11.021,0,22.285-2.814,32.575-8.138
		c22.87-11.83,37.088-33.747,36.222-55.838C353.597,249.909,352.417,247.627,350.473,246.133z M309.881,293.527
		c-7.955,4.115-16.594,6.29-24.986,6.29c-0.001,0-0.002,0-0.002,0c-9.165-0.001-17.64-2.635-23.861-7.416
		c-1.484-1.14-3.258-1.71-5.032-1.71c-1.774,0-3.549,0.57-5.032,1.71c-6.222,4.783-14.697,7.416-23.86,7.416
		c-8.394,0-17.035-2.176-24.989-6.29c-15.484-8.01-25.985-22.304-27.211-36.522c5.77-3.368,12.917-5.19,20.542-5.19
		c8.394,0,17.036,2.176,24.991,6.29c1.101,0.57,2.192,1.178,3.244,1.81c2.632,1.582,5.92,1.572,8.543-0.024
		c2.622-1.594,4.142-4.512,3.95-7.574c-0.077-1.231-0.118-2.482-0.118-3.716c0-17.438,7.874-33.332,19.939-40.951
		c12.066,7.619,19.939,23.513,19.939,40.951c0,1.234-0.04,2.485-0.118,3.716c-0.193,3.062,1.328,5.98,3.95,7.574
		c2.624,1.597,5.913,1.606,8.543,0.024c1.052-0.631,2.143-1.24,3.244-1.81c7.956-4.115,16.598-6.29,24.991-6.29
		c7.625,0,14.772,1.822,20.542,5.19C335.867,271.222,325.367,285.517,309.881,293.527z"/>
	<path style="fill:#1A1C20;" d="M316.943,349.581H195.057c-3.346,0-6.362,2.019-7.637,5.115c-1.274,3.095-0.554,6.652,1.822,9.009
		c17.879,17.729,41.589,27.493,66.757,27.493s48.878-9.763,66.757-27.493c2.376-2.357,3.097-5.914,1.822-9.009
		C323.305,351.601,320.29,349.581,316.943,349.581z M256,374.681c-12.617,0-24.791-2.972-35.713-8.583h71.426
		C280.791,371.709,268.617,374.681,256,374.681z"/>
	<path style="fill:#1A1C20;" d="M337.432,324.699H174.568c-4.562,0-8.258,3.696-8.258,8.258s3.696,8.258,8.258,8.258h162.864
		c4.562,0,8.258-3.696,8.258-8.258S341.994,324.699,337.432,324.699z"/>
	<path style="fill:#1A1C20;" d="M468.324,82.581H43.676C19.594,82.581,0,102.174,0,126.257v259.486
		c0,24.083,19.594,43.676,43.676,43.676h424.647c24.083,0,43.676-19.594,43.676-43.676V126.257
		C512,102.174,492.406,82.581,468.324,82.581z M495.484,385.743c0,14.977-12.183,27.16-27.16,27.16H43.676
		c-14.977,0-27.16-12.183-27.16-27.16V126.257c0-14.977,12.183-27.16,27.16-27.16h424.647c14.977,0,27.16,12.183,27.16,27.16
		V385.743z"/>
</g>
<g>
</g>
<g>
</g>
<g>
</g>
<g>
</g>
<g>
</g>
<g>
</g>
<g>
</g>
<g>
</g>
<g>
</g>
<g>
</g>
<g>
</g>
<g>
</g>
<g>
</g>
<g>
</g>
<g>
</g>
</svg>
