<?xml version="1.0" encoding="iso-8859-1"?>
<!-- Generator: Adobe Illustrator 19.0.0, SVG Export Plug-In . SVG Version: 6.00 Build 0)  -->
<svg version="1.1" id="Layer_1" xmlns="http://www.w3.org/2000/svg" xmlns:xlink="http://www.w3.org/1999/xlink" x="0px" y="0px"
	 viewBox="0 0 512 512" style="enable-background:new 0 0 512 512;" xml:space="preserve">
<path style="fill:#ED1F34;" d="M503.742,382.424V129.576c0-21.394-17.343-38.737-38.737-38.737H46.995
	c-21.394,0-38.737,17.343-38.737,38.737v252.849c0,21.394,17.343,38.737,38.737,38.737h418.01
	C486.399,421.161,503.742,403.818,503.742,382.424z"/>
<path style="fill:#FFFFFF;" d="M256,363.355c-67.629,0-122.649-55.02-122.649-122.649S188.371,118.057,256,118.057
	s122.649,55.021,122.649,122.65S323.629,363.355,256,363.355z M256,134.573c-58.522,0-106.133,47.611-106.133,106.134
	c0,58.521,47.611,106.133,106.133,106.133s106.133-47.61,106.133-106.133C362.133,182.184,314.522,134.573,256,134.573z"/>
<polygon style="fill:#B3B3B3;" points="288.787,385.685 223.213,385.685 232.449,168.773 279.551,168.773 "/>
<path style="fill:#1A1C20;" d="M288.809,393.943c-0.009-0.001-0.015-0.001-0.022,0h-65.575c-2.251,0-4.405-0.919-5.962-2.545
	c-1.558-1.626-2.384-3.816-2.288-6.066l9.236-216.912c0.188-4.42,3.826-7.907,8.25-7.907h47.103c4.424,0,8.062,3.487,8.25,7.907
	l9.209,216.301c0.036,0.316,0.055,0.636,0.055,0.962C297.067,390.246,293.369,393.943,288.809,393.943z M231.83,377.427h48.339
	l-8.532-200.396h-31.275L231.83,377.427z"/>
<polygon style="fill:#FFFFFF;" points="192.325,241.704 239.209,239.281 256,195.441 272.791,239.281 319.675,241.704 
	283.17,271.221 295.354,316.559 256,290.961 216.646,316.559 228.83,271.221 "/>
<g>
	<path style="fill:#1A1C20;" d="M320.102,233.457l-41.52-2.145l-14.87-38.825c-1.223-3.194-4.291-5.304-7.712-5.304
		s-6.489,2.11-7.712,5.304l-14.87,38.825l-41.52,2.145c-3.417,0.176-6.371,2.442-7.428,5.696c-1.057,3.254,0.001,6.822,2.661,8.973
		l32.329,26.14l-10.791,40.151c-0.887,3.303,0.353,6.813,3.122,8.824c2.768,2.012,6.489,2.109,9.356,0.242l34.851-22.669
		l34.851,22.669c1.372,0.893,2.938,1.336,4.502,1.336c1.707,0,3.411-0.527,4.855-1.578c2.768-2.011,4.009-5.521,3.122-8.824
		l-10.791-40.151l32.329-26.14c2.661-2.15,3.719-5.719,2.662-8.973C326.472,235.899,323.519,233.633,320.102,233.457z
		 M277.977,264.8c-2.54,2.053-3.63,5.411-2.784,8.564l6.589,24.517l-21.28-13.842c-1.369-0.891-2.935-1.336-4.502-1.336
		s-3.134,0.445-4.502,1.336l-21.28,13.842l6.589-24.517c0.848-3.153-0.243-6.511-2.784-8.564l-19.74-15.961l25.352-1.309
		c3.261-0.168,6.118-2.244,7.286-5.294l9.081-23.706l9.081,23.706c1.168,3.05,4.024,5.124,7.286,5.294l25.352,1.309L277.977,264.8z"
		/>
	<path style="fill:#1A1C20;" d="M468.324,82.581H43.676C19.593,82.581,0,102.174,0,126.257v259.486
		c0,24.083,19.593,43.676,43.676,43.676h424.648c24.083,0,43.675-19.594,43.675-43.676V126.257
		C512,102.174,492.407,82.581,468.324,82.581z M495.484,385.743c0,14.977-12.183,27.16-27.16,27.16H43.676
		c-14.977,0-27.16-12.183-27.16-27.16V126.257c0-14.977,12.183-27.16,27.16-27.16h424.648c14.976,0,27.159,12.183,27.159,27.16
		V385.743z"/>
</g>
<g>
</g>
<g>
</g>
<g>
</g>
<g>
</g>
<g>
</g>
<g>
</g>
<g>
</g>
<g>
</g>
<g>
</g>
<g>
</g>
<g>
</g>
<g>
</g>
<g>
</g>
<g>
</g>
<g>
</g>
</svg>
