<?xml version="1.0" encoding="iso-8859-1"?>
<!-- Generator: Adobe Illustrator 19.0.0, SVG Export Plug-In . SVG Version: 6.00 Build 0)  -->
<svg version="1.1" id="Layer_1" xmlns="http://www.w3.org/2000/svg" xmlns:xlink="http://www.w3.org/1999/xlink" x="0px" y="0px"
	 viewBox="0 0 512 512" style="enable-background:new 0 0 512 512;" xml:space="preserve">
<path style="fill:#103B9B;" d="M503.742,126.257v259.487c0,19.561-15.858,35.418-35.418,35.418H43.676
	c-19.562-0.001-35.418-15.858-35.418-35.419V126.257c0-19.562,15.857-35.418,35.418-35.418h424.648
	C487.884,90.839,503.742,106.695,503.742,126.257z"/>
<g>
	<polygon style="fill:#FFFFFF;" points="503.742,223.243 288.757,223.243 288.757,90.839 223.243,90.839 223.243,223.243 
		8.258,223.243 8.258,288.757 223.243,288.757 223.243,421.161 288.757,421.161 288.757,288.757 503.742,288.757 	"/>
	<path style="fill:#FFFFFF;" d="M143.225,396.387h-38.361c-13.698,0-24.844-11.145-24.844-24.844S91.165,346.7,104.863,346.7h21.777
		c4.591,0,8.327-3.736,8.327-8.327s-3.736-8.327-8.327-8.327h-21.778c-4.561,0-8.258-3.697-8.258-8.258
		c0-4.561,3.697-8.258,8.258-8.258h21.777c13.698,0,24.844,11.145,24.844,24.844s-11.145,24.844-24.844,24.844h-21.777
		c-4.591,0-8.327,3.736-8.327,8.327s3.736,8.327,8.327,8.327h38.361c4.561,0,8.258,3.697,8.258,8.258
		C151.482,392.69,147.785,396.387,143.225,396.387z"/>
	<path style="fill:#FFFFFF;" d="M143.225,198.469h-38.361c-13.698,0-24.844-11.145-24.844-24.844s11.145-24.844,24.844-24.844
		h21.777c4.591,0,8.327-3.736,8.327-8.327s-3.736-8.327-8.327-8.327h-21.778c-4.561,0-8.258-3.697-8.258-8.258
		c0-4.561,3.697-8.258,8.258-8.258h21.777c13.698,0,24.844,11.145,24.844,24.844s-11.145,24.844-24.844,24.844h-21.777
		c-4.591,0-8.327,3.736-8.327,8.327c0,4.591,3.736,8.327,8.327,8.327h38.361c4.561,0,8.258,3.697,8.258,8.258
		S147.785,198.469,143.225,198.469z"/>
	<path style="fill:#FFFFFF;" d="M423.724,396.387h-38.361c-13.698,0-24.844-11.145-24.844-24.844s11.145-24.844,24.844-24.844
		h21.777c4.591,0,8.327-3.736,8.327-8.327s-3.736-8.327-8.327-8.327h-21.777c-4.561,0-8.258-3.697-8.258-8.258
		c0-4.561,3.697-8.258,8.258-8.258h21.777c13.698,0,24.844,11.145,24.844,24.844s-11.145,24.844-24.844,24.844h-21.777
		c-4.591,0-8.327,3.736-8.327,8.327s3.736,8.327,8.327,8.327h38.361c4.561,0,8.258,3.697,8.258,8.258
		C431.982,392.69,428.284,396.387,423.724,396.387z"/>
	<path style="fill:#FFFFFF;" d="M423.724,198.469h-38.361c-13.698,0-24.844-11.145-24.844-24.844s11.145-24.844,24.844-24.844
		h21.777c4.591,0,8.327-3.736,8.327-8.327s-3.736-8.327-8.327-8.327h-21.777c-4.561,0-8.258-3.697-8.258-8.258
		c0-4.561,3.697-8.258,8.258-8.258h21.777c13.698,0,24.844,11.145,24.844,24.844s-11.145,24.844-24.844,24.844h-21.777
		c-4.591,0-8.327,3.736-8.327,8.327c0,4.591,3.736,8.327,8.327,8.327h38.361c4.561,0,8.258,3.697,8.258,8.258
		S428.284,198.469,423.724,198.469z"/>
</g>
<path style="fill:#1A1C20;" d="M468.324,82.581H43.675C19.593,82.581,0,102.173,0,126.256v259.487
	c0,24.084,19.593,43.676,43.675,43.676h424.648c24.084,0,43.676-19.593,43.676-43.676V126.256
	C512,102.173,492.407,82.581,468.324,82.581z M495.484,126.256v88.729H470.71c-4.561,0-8.258,3.697-8.258,8.258
	s3.697,8.258,8.258,8.258h24.774v48.998H288.757c-4.561,0-8.258,3.697-8.258,8.258v124.146h-48.998V288.757
	c0-4.561-3.697-8.258-8.258-8.258H16.516v-48.998h206.727c4.561,0,8.258-3.697,8.258-8.258V99.097h48.998v124.146
	c0,4.561,3.697,8.258,8.258,8.258h148.92c4.561,0,8.258-3.697,8.258-8.258s-3.697-8.258-8.258-8.258H297.015V99.097h171.309
	C483.3,99.097,495.484,111.28,495.484,126.256z M43.675,99.097h171.31v115.888H16.516v-88.729
	C16.516,111.28,28.7,99.097,43.675,99.097z M16.516,385.743v-88.728h198.469v115.888H43.675
	C28.7,412.903,16.516,400.72,16.516,385.743z M468.324,412.903H297.015V297.015h198.469v88.728
	C495.484,400.72,483.3,412.903,468.324,412.903z"/>
<g>
</g>
<g>
</g>
<g>
</g>
<g>
</g>
<g>
</g>
<g>
</g>
<g>
</g>
<g>
</g>
<g>
</g>
<g>
</g>
<g>
</g>
<g>
</g>
<g>
</g>
<g>
</g>
<g>
</g>
</svg>
