<?xml version="1.0" encoding="iso-8859-1"?>
<!-- Generator: Adobe Illustrator 19.0.0, SVG Export Plug-In . SVG Version: 6.00 Build 0)  -->
<svg version="1.1" id="Layer_1" xmlns="http://www.w3.org/2000/svg" xmlns:xlink="http://www.w3.org/1999/xlink" x="0px" y="0px"
	 viewBox="0 0 512 512" style="enable-background:new 0 0 512 512;" xml:space="preserve">
<path style="fill:#259245;" d="M503.742,381.523V130.477c0-21.892-17.747-39.639-39.639-39.639H47.897
	c-21.892,0-39.639,17.747-39.639,39.639v251.045c0,21.892,17.747,39.639,39.639,39.639h416.206
	C485.995,421.161,503.742,403.414,503.742,381.523z"/>
<g>
	<polygon style="fill:#FFE000;" points="216.294,184.104 245.484,182.597 255.937,155.301 266.392,182.597 295.581,184.104 
		272.853,202.482 280.439,230.709 255.937,214.772 231.436,230.709 239.023,202.482 	"/>
	<path style="fill:#FFE000;" d="M363.903,191.701c-0.088,59.554-48.391,107.805-107.966,107.805s-107.878-48.251-107.966-107.805
		c-6.328,14.446-9.849,30.401-9.849,47.184c0,65.068,52.747,117.815,117.815,117.815s117.815-52.747,117.815-117.815
		C373.752,222.1,370.231,206.147,363.903,191.701z"/>
</g>
<g>
	<path style="fill:#111A21;" d="M211.101,190.527l18.553,15l-6.192,23.039c-0.889,3.304,0.353,6.813,3.122,8.824
		c1.444,1.049,3.147,1.578,4.854,1.578c1.565,0,3.131-0.444,4.503-1.336l19.998-13.008l19.998,13.008
		c2.868,1.864,6.588,1.768,9.357-0.241c2.768-2.012,4.01-5.521,3.122-8.824l-6.191-23.04l18.552-15
		c2.66-2.151,3.718-5.72,2.661-8.974c-1.057-3.254-4.011-5.519-7.428-5.695l-23.825-1.231l-8.533-22.279
		c-1.223-3.194-4.29-5.304-7.712-5.304c-3.421,0-6.489,2.11-7.712,5.304l-8.533,22.279l-23.825,1.231
		c-3.418,0.177-6.371,2.442-7.428,5.696C207.383,184.807,208.441,188.375,211.101,190.527z M245.909,190.844
		c3.262-0.168,6.118-2.244,7.286-5.294l2.743-7.161l2.743,7.161c1.168,3.05,4.023,5.124,7.286,5.294l7.657,0.395l-5.962,4.822
		c-2.54,2.054-3.63,5.411-2.782,8.564l1.991,7.406l-6.428-4.181c-1.369-0.891-2.937-1.336-4.503-1.336
		c-1.567,0-3.135,0.445-4.503,1.336l-6.427,4.181l1.991-7.405c0.848-3.155-0.243-6.512-2.782-8.565l-5.963-4.822L245.909,190.844z"
		/>
	<path style="fill:#111A21;" d="M362.217,183.616c-3.825,0.797-6.567,4.165-6.572,8.072c-0.073,49.486-35.563,90.864-84.388,98.389
		c-4.508,0.695-7.597,4.912-6.904,9.42c0.696,4.508,4.909,7.602,9.42,6.904c27.111-4.179,51.983-17.955,70.036-38.792
		c9.384-10.832,16.608-23.228,21.413-36.508c0.181,2.58,0.271,5.175,0.271,7.785c0,60.41-49.148,109.557-109.557,109.557
		s-109.557-49.146-109.557-109.557c0-2.61,0.09-5.205,0.271-7.782c4.812,13.3,12.048,25.712,21.454,36.557
		c18.082,20.848,42.987,34.615,70.129,38.766c4.512,0.69,8.723-2.406,9.412-6.915c0.689-4.509-2.407-8.722-6.915-9.412
		c-48.103-7.355-84.43-49.662-84.502-98.407c-0.006-3.906-2.747-7.274-6.572-8.072c-3.819-0.798-7.683,1.192-9.25,4.771
		c-6.996,15.973-10.543,32.964-10.543,50.496c0,69.517,56.556,126.073,126.073,126.073s126.073-56.556,126.073-126.073
		c0-17.532-3.548-34.523-10.543-50.496C369.9,184.809,366.037,182.82,362.217,183.616z"/>
	<path style="fill:#111A21;" d="M468.324,82.581H43.676C19.594,82.581,0,102.173,0,126.256v259.487
		c0,24.084,19.594,43.676,43.676,43.676h424.647c24.083,0,43.676-19.593,43.676-43.676V126.256
		C512,102.173,492.406,82.581,468.324,82.581z M495.484,385.743c0,14.977-12.183,27.16-27.16,27.16H43.676
		c-14.977,0-27.16-12.183-27.16-27.16V126.256c0-14.976,12.183-27.159,27.16-27.159h424.647c14.977,0,27.16,12.183,27.16,27.159
		V385.743z"/>
</g>
<g>
</g>
<g>
</g>
<g>
</g>
<g>
</g>
<g>
</g>
<g>
</g>
<g>
</g>
<g>
</g>
<g>
</g>
<g>
</g>
<g>
</g>
<g>
</g>
<g>
</g>
<g>
</g>
<g>
</g>
</svg>
