<?xml version="1.0" encoding="iso-8859-1"?>
<!-- Generator: Adobe Illustrator 19.0.0, SVG Export Plug-In . SVG Version: 6.00 Build 0)  -->
<svg version="1.1" id="Layer_1" xmlns="http://www.w3.org/2000/svg" xmlns:xlink="http://www.w3.org/1999/xlink" x="0px" y="0px"
	 viewBox="0 0 512 512" style="enable-background:new 0 0 512 512;" xml:space="preserve">
<path style="fill:#103B9B;" d="M8.258,387.578V124.422c0-18.548,15.035-33.583,33.583-33.583h428.318
	c18.548,0,33.583,15.035,33.583,33.583v263.157c0,18.548-15.035,33.583-33.583,33.583H41.841
	C23.293,421.161,8.258,406.126,8.258,387.578z"/>
<path style="fill:#FFFFFF;" d="M132.129,200.216L215.804,256H256v-26.797l-83.675-55.784L256,117.636V90.839h-40.196l-83.675,55.784
	L48.454,90.839h-6.613c-16.366,0-29.99,11.709-32.971,27.205l83.063,55.375L8.258,229.203V256h40.196L132.129,200.216z"/>
<path style="fill:#ED1F34;" d="M145.528,182.351L256,256v-17.484L145.373,164.59L256,90.839h-26.797l-110.466,73.652L20.167,98.777
	c-3.814,3.227-6.895,7.289-8.967,11.904l107.389,71.765L8.258,256h26.797L145.528,182.351z"/>
<polygon style="fill:#FFFFFF;" points="256,151.123 154.426,151.123 154.426,90.839 109.832,90.839 109.832,151.123 8.258,151.123 
	8.258,195.716 109.832,195.716 109.832,256 154.426,256 154.426,195.716 256,195.716 "/>
<polygon style="fill:#ED1F34;" points="256,161.445 144.103,161.445 144.103,90.839 120.155,90.839 120.155,161.445 8.258,161.445 
	8.258,185.394 120.155,185.394 120.155,256 144.103,256 144.103,185.394 256,185.394 "/>
<path style="fill:#3DB4EA;" d="M324.817,176.365v82.961c0,59.527,55.054,73.135,55.054,73.135s55.054-13.607,55.054-73.134v-82.961
	L324.817,176.365L324.817,176.365z"/>
<path style="fill:#BF2300;" d="M379.871,332.461c0,0,55.054-13.608,55.054-73.134H324.817
	C324.817,318.853,379.871,332.461,379.871,332.461z"/>
<path style="fill:#1A1C20;" d="M367.759,296.675c-4.562,0-8.258-3.697-8.258-8.258v-79.02c0-4.561,3.696-8.258,8.258-8.258
	s8.258,3.697,8.258,8.258v79.02C376.017,292.977,372.321,296.675,367.759,296.675z"/>
<path style="fill:#134923;" d="M391.983,296.675c-4.562,0-8.258-3.697-8.258-8.258v-79.02c0-4.561,3.696-8.258,8.258-8.258
	c4.562,0,8.258,3.697,8.258,8.258v79.02C400.241,292.977,396.545,296.675,391.983,296.675z"/>
<path style="fill:#1A1C20;" d="M434.925,168.107H324.817c-4.562,0-8.258,3.697-8.258,8.258v82.961
	c0,34.062,16.68,54.352,30.674,65.377c14.991,11.809,30.024,15.618,30.656,15.774c0.651,0.161,1.316,0.241,1.982,0.241
	s1.331-0.08,1.982-0.241c0.632-0.156,15.665-3.965,30.656-15.774c13.994-11.024,30.674-31.315,30.674-65.377v-82.961
	C443.183,171.804,439.487,168.107,434.925,168.107z M426.667,259.325c0,46.643-37.487,61.552-46.796,64.535
	c-9.309-2.982-46.796-17.892-46.796-64.535v-74.702h93.591V259.325z M468.324,82.581H43.676C19.593,82.581,0,102.173,0,126.256
	v259.487c0,24.084,19.593,43.676,43.676,43.676h424.648c24.082,0,43.675-19.593,43.675-43.676V126.256
	C512,102.173,492.406,82.581,468.324,82.581z M495.484,385.743c0,14.977-12.183,27.16-27.16,27.16H43.676
	c-14.977,0-27.16-12.183-27.16-27.16V126.256c0-14.976,12.183-27.159,27.16-27.159h424.648c14.976,0,27.159,12.183,27.159,27.159
	V385.743z"/>
<g>
</g>
<g>
</g>
<g>
</g>
<g>
</g>
<g>
</g>
<g>
</g>
<g>
</g>
<g>
</g>
<g>
</g>
<g>
</g>
<g>
</g>
<g>
</g>
<g>
</g>
<g>
</g>
<g>
</g>
</svg>
