<?xml version="1.0" encoding="iso-8859-1"?>
<!-- Generator: Adobe Illustrator 19.0.0, SVG Export Plug-In . SVG Version: 6.00 Build 0)  -->
<svg version="1.1" id="Layer_1" xmlns="http://www.w3.org/2000/svg" xmlns:xlink="http://www.w3.org/1999/xlink" x="0px" y="0px"
	 viewBox="0 0 512 512" style="enable-background:new 0 0 512 512;" xml:space="preserve">
<path style="fill:#ED1F34;" d="M468.324,90.839H256v330.323h212.324c19.561,0,35.418-15.857,35.418-35.418V126.256
	C503.742,106.695,487.885,90.839,468.324,90.839z"/>
<path style="fill:#FFFFFF;" d="M43.676,90.839c-19.561,0-35.418,15.857-35.418,35.417v259.487c0,19.561,15.858,35.418,35.418,35.418
	H256V90.839H43.676z"/>
<g>
	<path style="fill:#121B21;" d="M96.619,148.783H82.718v-13.901c0-4.561-3.697-8.258-8.258-8.258c-4.561,0-8.258,3.697-8.258,8.258
		v13.901H52.301c-4.561,0-8.258,3.697-8.258,8.258s3.697,8.258,8.258,8.258h13.901V179.2c0,4.561,3.697,8.258,8.258,8.258
		c4.561,0,8.258-3.697,8.258-8.258v-13.901h13.901c4.561,0,8.258-3.697,8.258-8.258S101.18,148.783,96.619,148.783z"/>
	<path style="fill:#121B21;" d="M468.324,82.581H43.676C19.593,82.581,0,102.173,0,126.256v259.487
		c0,24.084,19.593,43.676,43.676,43.676h424.648c24.082,0,43.675-19.593,43.675-43.676V126.256
		C512,102.173,492.406,82.581,468.324,82.581z M495.484,385.743c0,14.977-12.183,27.16-27.16,27.16H264.258v-57.806
		c0-4.561-3.696-8.258-8.258-8.258c-4.561,0-8.258,3.697-8.258,8.258v57.806H43.676c-14.977,0-27.16-12.183-27.16-27.16V126.256
		c0-14.976,12.183-27.159,27.16-27.159h204.066v222.968c0,4.561,3.697,8.258,8.258,8.258c4.562,0,8.258-3.697,8.258-8.258V99.097
		h204.066c14.977,0,27.16,12.183,27.16,27.159V385.743z"/>
</g>
<g>
</g>
<g>
</g>
<g>
</g>
<g>
</g>
<g>
</g>
<g>
</g>
<g>
</g>
<g>
</g>
<g>
</g>
<g>
</g>
<g>
</g>
<g>
</g>
<g>
</g>
<g>
</g>
<g>
</g>
</svg>
