<?xml version="1.0" encoding="iso-8859-1"?>
<!-- Generator: Adobe Illustrator 19.0.0, SVG Export Plug-In . SVG Version: 6.00 Build 0)  -->
<svg version="1.1" id="Layer_1" xmlns="http://www.w3.org/2000/svg" xmlns:xlink="http://www.w3.org/1999/xlink" x="0px" y="0px"
	 viewBox="0 0 512 512" style="enable-background:new 0 0 512 512;" xml:space="preserve">
<path style="fill:#ED1F34;" d="M44.728,90.839h422.543c20.142,0,36.471,16.328,36.471,36.47V384.69
	c0,20.142-16.328,36.47-36.471,36.47H44.728c-20.142,0.001-36.47-16.327-36.47-36.469V127.309
	C8.258,107.167,24.586,90.839,44.728,90.839z"/>
<rect x="85.333" y="167.914" style="fill:#278A2A;" width="341.333" height="176.172"/>
<path style="fill:#FFFFFF;" d="M294.614,304.07c-26.548,0-48.07-21.522-48.07-48.07s21.522-48.07,48.07-48.07
	c0.798,0,1.592,0.022,2.382,0.059c-7.964-4.479-17.148-7.044-26.937-7.044c-30.405,0-55.054,24.649-55.054,55.054
	s24.649,55.054,55.054,55.054c9.789,0,18.973-2.565,26.937-7.044C296.206,304.048,295.412,304.07,294.614,304.07z"/>
<g>
	<path style="fill:#111A21;" d="M294.614,216.188c0.665,0,1.326,0.019,1.983,0.051c0.15,0.008,0.303,0.01,0.446,0.01
		c4.55-0.013,8.233-3.706,8.233-8.258c0-3.264-1.894-6.086-4.641-7.426c-9.328-5.154-19.89-7.876-30.576-7.876
		c-34.911,0-63.312,28.401-63.312,63.311c0,34.911,28.401,63.313,63.312,63.313c10.842,0,21.557-2.802,30.984-8.104
		c3.337-1.877,4.947-5.803,3.888-9.482c-1.059-3.68-4.512-6.146-8.335-5.963c-0.657,0.032-1.318,0.051-1.983,0.051
		c-21.952,0-39.812-17.859-39.812-39.813C254.802,234.048,272.661,216.188,294.614,216.188z M238.286,255.999
		c0,19.078,9.532,35.971,24.086,46.165c-22.159-3.678-39.108-22.979-39.108-46.165s16.949-42.487,39.108-46.164
		C247.82,220.03,238.286,236.923,238.286,255.999z"/>
	<path style="fill:#111A21;" d="M468.324,82.581H43.675C19.593,82.581,0,102.173,0,126.257v259.487
		c0,24.083,19.593,43.675,43.675,43.675h424.648c24.084,0,43.676-19.593,43.676-43.676V126.257
		C512,102.173,492.407,82.581,468.324,82.581z M495.484,385.743c0,14.977-12.183,27.16-27.16,27.16H43.675
		c-14.976,0-27.159-12.183-27.159-27.16V126.257c0-14.977,12.183-27.16,27.159-27.16h424.648c14.977,0,27.16,12.183,27.16,27.16
		V385.743z"/>
</g>
<g>
</g>
<g>
</g>
<g>
</g>
<g>
</g>
<g>
</g>
<g>
</g>
<g>
</g>
<g>
</g>
<g>
</g>
<g>
</g>
<g>
</g>
<g>
</g>
<g>
</g>
<g>
</g>
<g>
</g>
</svg>
