<?xml version="1.0" encoding="iso-8859-1"?>
<!-- Generator: Adobe Illustrator 19.0.0, SVG Export Plug-In . SVG Version: 6.00 Build 0)  -->
<svg version="1.1" id="Layer_1" xmlns="http://www.w3.org/2000/svg" xmlns:xlink="http://www.w3.org/1999/xlink" x="0px" y="0px"
	 viewBox="0 0 512 512" style="enable-background:new 0 0 512 512;" xml:space="preserve">
<path style="fill:#333333;" d="M468.324,90.839H43.676c-19.561,0-35.418,15.857-35.418,35.418v74.689h495.484v-74.689
	C503.742,106.695,487.884,90.839,468.324,90.839z"/>
<path style="fill:#259245;" d="M8.258,385.743c0,19.562,15.858,35.418,35.418,35.418h424.648c19.561,0,35.418-15.857,35.418-35.418
	v-74.689H8.258V385.743z"/>
<rect x="8.258" y="200.946" style="fill:#ED1F34;" width="495.484" height="110.108"/>
<path id="SVGCleanerId_0" style="fill:#ED1F34;" d="M324.332,209.204c-4.561,0-8.258-3.696-8.258-8.258
	c0-38.588-31.394-69.983-69.983-69.983s-69.983,31.395-69.983,69.983c0,4.562-3.697,8.258-8.258,8.258s-8.258-3.696-8.258-8.258
	c0-47.695,38.803-86.499,86.499-86.499s86.499,38.803,86.499,86.499C332.59,205.508,328.892,209.204,324.332,209.204z"/>
<g>
	<path id="SVGCleanerId_0_1_" style="fill:#ED1F34;" d="M324.332,209.204c-4.561,0-8.258-3.696-8.258-8.258
		c0-38.588-31.394-69.983-69.983-69.983s-69.983,31.395-69.983,69.983c0,4.562-3.697,8.258-8.258,8.258s-8.258-3.696-8.258-8.258
		c0-47.695,38.803-86.499,86.499-86.499s86.499,38.803,86.499,86.499C332.59,205.508,328.892,209.204,324.332,209.204z"/>
</g>
<g>
	<circle style="fill:#ED1F34;" cx="246.09" cy="200.946" r="46.377"/>
	<path style="fill:#ED1F34;" d="M246.09,255.578c-30.124,0-54.632-24.508-54.632-54.632s24.508-54.632,54.632-54.632
		s54.632,24.508,54.632,54.632S276.215,255.578,246.09,255.578z M246.09,162.83c-21.017,0-38.116,17.099-38.116,38.116
		s17.099,38.116,38.116,38.116c21.017,0,38.116-17.099,38.116-38.116S267.108,162.83,246.09,162.83z"/>
</g>
<path style="fill:#111A21;" d="M468.324,82.581H43.676C19.593,82.581,0,102.174,0,126.257v259.486
	c0,24.083,19.593,43.676,43.676,43.676h424.648c24.083,0,43.675-19.594,43.675-43.676V126.257
	C512,102.174,492.407,82.581,468.324,82.581z M43.676,99.097h424.648c14.976,0,27.159,12.183,27.159,27.16v66.431H16.516v-66.431
	C16.516,111.28,28.7,99.097,43.676,99.097z M468.324,412.903H43.676c-14.977,0-27.16-12.183-27.16-27.16v-66.431h421.161
	c4.561,0,8.258-3.696,8.258-8.258s-3.697-8.258-8.258-8.258H16.516v-93.591h478.968v93.591H470.71c-4.561,0-8.258,3.696-8.258,8.258
	s3.697,8.258,8.258,8.258h24.774v66.431C495.484,400.72,483.3,412.903,468.324,412.903z"/>
<g>
</g>
<g>
</g>
<g>
</g>
<g>
</g>
<g>
</g>
<g>
</g>
<g>
</g>
<g>
</g>
<g>
</g>
<g>
</g>
<g>
</g>
<g>
</g>
<g>
</g>
<g>
</g>
<g>
</g>
</svg>
