<?xml version="1.0" encoding="iso-8859-1"?>
<!-- Generator: Adobe Illustrator 19.0.0, SVG Export Plug-In . SVG Version: 6.00 Build 0)  -->
<svg version="1.1" id="Layer_1" xmlns="http://www.w3.org/2000/svg" xmlns:xlink="http://www.w3.org/1999/xlink" x="0px" y="0px"
	 viewBox="0 0 512 512" style="enable-background:new 0 0 512 512;" xml:space="preserve">
<path style="fill:#FFFFFF;" d="M503.742,386.111V125.889c0-19.358-15.693-35.051-35.051-35.051H43.309
	c-19.358,0-35.051,15.693-35.051,35.051v260.22c0,19.358,15.693,35.051,35.051,35.051H468.69
	C488.049,421.161,503.742,405.469,503.742,386.111z"/>
<path style="fill:#103B9B;" d="M43.676,90.839c-19.562,0-35.418,15.857-35.418,35.418v184.797H256v-36.699v-36.71v-36.699v-36.699
	v-36.71V90.839H43.676z"/>
<g>
	<path style="fill:#ED1F34;" d="M8.258,385.743c0,19.562,15.857,35.418,35.418,35.418h424.648c19.561,0,35.418-15.857,35.418-35.418
		v-1.281H8.258V385.743z"/>
	<polygon style="fill:#ED1F34;" points="8.258,347.753 503.742,347.753 503.742,311.054 256,311.054 8.258,311.054 	"/>
	<rect x="256" y="237.645" style="fill:#ED1F34;" width="247.742" height="36.71"/>
	<rect x="256" y="164.247" style="fill:#ED1F34;" width="247.742" height="36.699"/>
	<path style="fill:#ED1F34;" d="M468.324,90.839H256v36.699h247.742v-1.281C503.742,106.695,487.885,90.839,468.324,90.839z"/>
</g>
<g>
	<circle style="fill:#FFE000;" cx="178.418" cy="200.946" r="35.093"/>
	<path style="fill:#FFE000;" d="M145.243,258.008c-31.513,0-57.059-25.546-57.059-57.059s25.546-57.058,57.059-57.058
		c0.948,0,1.891,0.025,2.828,0.07c-9.454-5.316-20.356-8.362-31.974-8.362c-36.091,0-65.349,29.258-65.349,65.349
		s29.258,65.35,65.349,65.35c11.619,0,22.52-3.046,31.974-8.362C147.133,257.983,146.191,258.008,145.243,258.008z"/>
</g>
<g>
	<path style="fill:#121B21;" d="M135.066,200.946c0,23.904,19.447,43.352,43.352,43.352c23.904,0,43.352-19.447,43.352-43.352
		s-19.447-43.352-43.352-43.352C154.513,157.595,135.066,177.042,135.066,200.946z M178.417,174.111
		c14.796,0,26.835,12.039,26.835,26.835s-12.039,26.835-26.835,26.835c-14.796,0-26.835-12.039-26.835-26.835
		S163.621,174.111,178.417,174.111z"/>
	<path style="fill:#121B21;" d="M116.096,274.558c12.604,0,25.06-3.258,36.021-9.422c3.337-1.876,4.947-5.803,3.888-9.481
		c-1.059-3.68-4.499-6.166-8.333-5.965c-0.804,0.039-1.614,0.062-2.429,0.062c-26.908,0-48.801-21.893-48.801-48.801
		s21.893-48.8,48.801-48.8c0.815,0,1.624,0.022,2.429,0.062c0.153,0.007,0.297,0.013,0.457,0.01c4.543-0.02,8.221-3.71,8.221-8.258
		c0-3.262-1.892-6.081-4.637-7.423c-10.862-6.018-23.167-9.196-35.616-9.196c-40.587,0-73.608,33.019-73.608,73.607
		C42.489,241.536,75.51,274.558,116.096,274.558z M113.424,143.92c-19.97,11.187-33.498,32.558-33.498,57.029
		s13.529,45.843,33.498,57.03c-30.245-1.399-54.418-26.446-54.418-57.03C59.006,170.366,83.179,145.32,113.424,143.92z"/>
	<path style="fill:#121B21;" d="M468.324,82.581H43.676C19.594,82.581,0,102.174,0,126.257v259.486
		c0,24.083,19.594,43.676,43.676,43.676h424.647c24.083,0,43.676-19.594,43.676-43.676V126.257
		C512,102.174,492.406,82.581,468.324,82.581z M264.258,245.903h231.226v20.194H264.258V245.903z M264.258,229.387v-20.183h231.226
		v20.183H264.258z M264.258,192.688v-20.183h231.226v20.183H264.258z M264.258,155.989v-20.194h231.226v20.194H264.258z
		 M264.258,282.613h231.226v20.183H264.258V282.613z M494.571,119.279H264.258V99.097h204.066
		C480.888,99.097,491.483,107.674,494.571,119.279z M43.676,99.097h204.066v203.699H74.323c-4.562,0-8.258,3.696-8.258,8.258
		s3.696,8.258,8.258,8.258h421.161v20.183H16.516v-20.183H41.29c4.562,0,8.258-3.696,8.258-8.258s-3.696-8.258-8.258-8.258H16.516
		V126.257C16.516,111.28,28.7,99.097,43.676,99.097z M468.324,412.903H43.676c-12.564,0-23.16-8.577-26.247-20.183h420.249
		c4.562,0,8.258-3.696,8.258-8.258c0-4.562-3.696-8.258-8.258-8.258H16.516v-20.194h478.968v20.194H470.71
		c-4.562,0-8.258,3.696-8.258,8.258c0,4.562,3.696,8.258,8.258,8.258h23.861C491.483,404.326,480.888,412.903,468.324,412.903z"/>
</g>
<g>
</g>
<g>
</g>
<g>
</g>
<g>
</g>
<g>
</g>
<g>
</g>
<g>
</g>
<g>
</g>
<g>
</g>
<g>
</g>
<g>
</g>
<g>
</g>
<g>
</g>
<g>
</g>
<g>
</g>
</svg>
