<?xml version="1.0" encoding="iso-8859-1"?>
<!-- Generator: Adobe Illustrator 19.0.0, SVG Export Plug-In . SVG Version: 6.00 Build 0)  -->
<svg version="1.1" id="Layer_1" xmlns="http://www.w3.org/2000/svg" xmlns:xlink="http://www.w3.org/1999/xlink" x="0px" y="0px"
	 viewBox="0 0 512 512" style="enable-background:new 0 0 512 512;" xml:space="preserve">
<polygon style="fill:#333333;" points="256,256 173.419,311.054 503.742,311.054 503.742,200.946 173.419,200.946 "/>
<path style="fill:#FFE000;" d="M20.818,412.789c6.169,5.22,14.143,8.373,22.858,8.373h424.648c19.561,0,35.418-15.857,35.418-35.418
	v-74.689H173.42L20.818,412.789z"/>
<path style="fill:#048B7D;" d="M468.324,90.839H43.676c-8.715,0-16.689,3.152-22.858,8.373l152.601,101.735h330.323v-74.689
	C503.742,106.695,487.884,90.839,468.324,90.839z"/>
<path style="fill:#ED1F34;" d="M256,256l-82.581-55.054L20.818,99.211c-7.679,6.497-12.56,16.199-12.56,27.046v74.689v110.108
	v74.689c0,10.847,4.881,20.548,12.56,27.046l152.601-101.735L256,256z"/>
<g>
	<path style="fill:#FFFFFF;" d="M503.742,319.312H173.419c-4.561,0-8.258-3.696-8.258-8.258s3.697-8.258,8.258-8.258h330.323
		c4.561,0,8.258,3.696,8.258,8.258S508.303,319.312,503.742,319.312z"/>
	<path style="fill:#FFFFFF;" d="M503.742,209.204H173.419c-4.561,0-8.258-3.696-8.258-8.258c0-4.562,3.697-8.258,8.258-8.258
		h330.323c4.561,0,8.258,3.696,8.258,8.258C512,205.508,508.303,209.204,503.742,209.204z"/>
</g>
<polygon style="fill:#FFE000;" points="31.931,237.335 77.737,234.967 94.142,192.135 110.547,234.967 156.353,237.335 
	120.687,266.173 132.59,310.467 94.142,285.458 55.693,310.467 67.597,266.173 "/>
<rect x="64.413" y="244.989" style="fill:#FFFFFF;" width="59.458" height="36.163"/>
<g>
	<path style="fill:#111A21;" d="M105.821,256l35.406-35.406c3.225-3.226,3.225-8.454,0-11.679c-3.225-3.224-8.454-3.224-11.678,0
		l-35.407,35.406l-35.407-35.406c-3.225-3.224-8.454-3.224-11.679,0c-2.713,2.714-3.135,6.84-1.283,10.003L31.64,233.05
		c-3.225,3.226-3.225,8.454,0,11.679c1.612,1.612,3.726,2.418,5.839,2.418c2.113,0,4.227-0.807,5.839-2.418l13.937-13.936
		L82.463,256l-35.406,35.406c-3.225,3.226-3.225,8.454,0,11.679c1.612,1.612,3.726,2.418,5.839,2.418s4.227-0.806,5.839-2.418
		l35.407-35.406l35.407,35.406c1.612,1.612,3.726,2.418,5.839,2.418s4.227-0.806,5.839-2.418c3.225-3.226,3.225-8.454,0-11.679
		L105.821,256z"/>
	<path style="fill:#111A21;" d="M468.324,82.581H43.675c-10.581,0-20.295,3.785-27.862,10.069c-0.292,0.224-0.574,0.462-0.838,0.727
		C5.808,101.388,0,113.154,0,126.257v259.486c0,13.167,5.865,24.982,15.11,32.997c0.192,0.185,0.391,0.355,0.598,0.519
		c7.582,6.337,17.335,10.161,27.967,10.161h424.648c24.084,0,43.676-19.594,43.676-43.676V126.257
		C512,102.174,492.407,82.581,468.324,82.581z M16.516,385.743V126.257c0-6.127,2.041-11.786,5.478-16.337L241.112,256
		L21.994,402.08C18.558,397.529,16.516,391.871,16.516,385.743z M495.484,385.743c0,14.977-12.183,27.16-27.16,27.16H43.675
		c-2.36,0-4.65-0.304-6.835-0.872l223.741-149.16c2.297-1.532,3.678-4.109,3.678-6.871s-1.38-5.34-3.678-6.871L36.841,99.969
		c2.185-0.568,4.475-0.872,6.834-0.872h424.648c14.977,0,27.16,12.183,27.16,27.16V385.743z"/>
</g>
<g>
</g>
<g>
</g>
<g>
</g>
<g>
</g>
<g>
</g>
<g>
</g>
<g>
</g>
<g>
</g>
<g>
</g>
<g>
</g>
<g>
</g>
<g>
</g>
<g>
</g>
<g>
</g>
<g>
</g>
</svg>
