<?xml version="1.0" encoding="iso-8859-1"?>
<!-- Generator: Adobe Illustrator 19.0.0, SVG Export Plug-In . SVG Version: 6.00 Build 0)  -->
<svg version="1.1" id="Layer_1" xmlns="http://www.w3.org/2000/svg" xmlns:xlink="http://www.w3.org/1999/xlink" x="0px" y="0px"
	 viewBox="0 0 512 512" style="enable-background:new 0 0 512 512;" xml:space="preserve">
<path style="fill:#164FCE;" d="M354.862,90.831H44.044c-19.766,0-35.79,16.024-35.79,35.79v195.294L354.862,90.831z"/>
<g>
	<path style="fill:#FFE610;" d="M93.035,220.373c-24.68,0-44.76-20.079-44.76-44.76s20.079-44.76,44.76-44.76
		s44.76,20.079,44.76,44.76C137.796,200.294,117.716,220.373,93.035,220.373z M93.035,147.368c-15.575,0-28.244,12.67-28.244,28.244
		s12.67,28.244,28.244,28.244c15.575,0,28.244-12.67,28.244-28.244S108.61,147.368,93.035,147.368z"/>
	<path style="fill:#FFE610;" d="M93.035,186.624c6.071,0,11.011-4.939,11.011-11.011c0-6.071-4.939-11.011-11.011-11.011
		s-11.011,4.939-11.011,11.011C82.024,181.684,86.964,186.624,93.035,186.624z"/>
</g>
<path style="fill:#259245;" d="M468.324,421.157c19.56,0,35.418-15.857,35.418-35.418V190.094L157.136,421.157H468.324z"/>
<g>
	<polygon style="fill:#FFFFFF;" points="354.853,90.836 8.259,321.909 8.259,354.992 404.478,90.836 	"/>
	<polygon style="fill:#FFFFFF;" points="157.135,421.157 503.741,190.094 503.741,157.012 107.51,421.157 	"/>
</g>
<path style="fill:#ED1F34;" d="M468.324,90.836h-63.846L8.259,354.992v30.747c0,19.562,15.857,35.418,35.418,35.418h63.832
	l396.231-264.146v-30.758C503.741,106.693,487.885,90.836,468.324,90.836z"/>
<g>
	<path style="fill:#FFE610;" d="M93.035,147.368c-4.561,0-8.258-3.696-8.258-8.258v-12.857c0-4.562,3.697-8.258,8.258-8.258
		c4.562,0,8.258,3.696,8.258,8.258v12.857C101.293,143.672,97.597,147.368,93.035,147.368z"/>
	<path style="fill:#FFE610;" d="M67.225,158.06c-2.113,0-4.227-0.806-5.84-2.418l-9.092-9.092c-3.225-3.226-3.225-8.454,0-11.679
		c3.226-3.224,8.454-3.224,11.679,0l9.092,9.092c3.225,3.226,3.225,8.454,0,11.679C71.452,157.254,69.338,158.06,67.225,158.06z"/>
	<path style="fill:#FFE610;" d="M56.534,183.871H43.675c-4.561,0-8.258-3.696-8.258-8.258c0-4.562,3.697-8.258,8.258-8.258h12.858
		c4.562,0,8.258,3.696,8.258,8.258C64.792,180.175,61.095,183.871,56.534,183.871z"/>
	<path style="fill:#FFE610;" d="M58.133,218.774c-2.113,0-4.227-0.806-5.839-2.418c-3.226-3.225-3.226-8.454-0.001-11.678
		l9.092-9.093c3.226-3.226,8.455-3.225,11.679-0.001c3.226,3.225,3.226,8.454,0.001,11.679l-9.092,9.093
		C62.36,217.968,60.246,218.774,58.133,218.774z"/>
	<path style="fill:#FFE610;" d="M93.035,233.231c-4.561,0-8.258-3.696-8.258-8.258v-12.858c0-4.562,3.697-8.258,8.258-8.258
		c4.562,0,8.258,3.696,8.258,8.258v12.858C101.293,229.534,97.597,233.231,93.035,233.231z"/>
	<path style="fill:#FFE610;" d="M127.939,218.774c-2.113,0-4.227-0.806-5.84-2.418l-9.093-9.093c-3.225-3.226-3.225-8.454,0-11.679
		c3.226-3.224,8.454-3.224,11.679,0l9.093,9.093c3.225,3.226,3.225,8.454,0,11.679C132.165,217.968,130.052,218.774,127.939,218.774
		z"/>
	<path style="fill:#FFE610;" d="M142.395,183.871h-12.858c-4.562,0-8.258-3.696-8.258-8.258c0-4.562,3.696-8.258,8.258-8.258h12.858
		c4.562,0,8.258,3.696,8.258,8.258C150.653,180.175,146.957,183.871,142.395,183.871z"/>
	<path style="fill:#FFE610;" d="M118.846,158.06c-2.114,0-4.227-0.806-5.84-2.419c-3.225-3.225-3.225-8.454,0.001-11.678
		l9.093-9.092c3.225-3.224,8.454-3.225,11.679,0.001c3.225,3.225,3.225,8.454-0.001,11.678l-9.093,9.092
		C123.073,157.254,120.959,158.06,118.846,158.06z"/>
</g>
<path style="fill:#111A21;" d="M511.999,156.884v-30.63c0-24.083-19.594-43.676-43.676-43.676H404.63
	c-0.078-0.001-0.155-0.001-0.233,0H43.677c-24.083,0-43.676,19.594-43.676,43.676v228.569c-0.002,0.099-0.001,0.198,0,0.298v30.619
	c0,24.083,19.594,43.676,43.676,43.676h63.724c0.036,0,0.072,0.007,0.107,0.007c0.03,0,0.059-0.007,0.09-0.007h360.724
	c24.083,0,43.676-19.594,43.676-43.676V157.182C512.001,157.082,512,156.983,511.999,156.884z M43.677,99.094h333.527
	L16.517,339.561V126.254C16.517,111.278,28.702,99.094,43.677,99.094z M16.517,385.739v-26.328L406.978,99.094h61.345
	c14.977,0,27.16,12.183,27.16,27.16v26.339L105.01,412.899H43.677C28.702,412.899,16.517,400.715,16.517,385.739z M468.323,412.899
	H134.786l360.699-240.457v213.297C495.483,400.715,483.3,412.899,468.323,412.899z"/>
<g>
</g>
<g>
</g>
<g>
</g>
<g>
</g>
<g>
</g>
<g>
</g>
<g>
</g>
<g>
</g>
<g>
</g>
<g>
</g>
<g>
</g>
<g>
</g>
<g>
</g>
<g>
</g>
<g>
</g>
</svg>
