<?xml version="1.0" encoding="iso-8859-1"?>
<!-- Generator: Adobe Illustrator 19.0.0, SVG Export Plug-In . SVG Version: 6.00 Build 0)  -->
<svg version="1.1" id="Layer_1" xmlns="http://www.w3.org/2000/svg" xmlns:xlink="http://www.w3.org/1999/xlink" x="0px" y="0px"
	 viewBox="0 0 512 512" style="enable-background:new 0 0 512 512;" xml:space="preserve">
<rect x="151.398" y="90.839" style="fill:#FFFFFF;" width="209.204" height="330.323"/>
<g>
	<path style="fill:#259245;" d="M360.602,90.839v330.323h109.557c18.548,0,33.583-15.035,33.583-33.583V124.422
		c0-18.548-15.035-33.583-33.583-33.583H360.602z"/>
	<path style="fill:#259245;" d="M8.258,124.422v263.157c0,18.548,15.035,33.583,33.583,33.583h109.557V90.839H41.841
		C23.293,90.839,8.258,105.874,8.258,124.422z"/>
	<polygon style="fill:#259245;" points="192.688,321.804 256,149.726 319.312,321.804 	"/>
</g>
<g>
	<path style="fill:#1A1C20;" d="M263.75,146.875c-1.196-3.248-4.289-5.406-7.75-5.406c-3.462,0-6.555,2.158-7.75,5.406
		l-63.312,172.077c-0.931,2.534-0.567,5.362,0.978,7.577c1.545,2.214,4.074,3.533,6.773,3.533h55.054v32.213
		c0,4.562,3.696,8.258,8.258,8.258c4.562,0,8.258-3.696,8.258-8.258v-32.213h55.054c0.008,0.001,0.017,0,0.022,0
		c4.562,0,8.258-3.696,8.258-8.258c0-1.219-0.263-2.377-0.738-3.418L263.75,146.875z M264.258,313.546v-32.213
		c0-4.562-3.696-8.258-8.258-8.258c-4.562,0-8.258,3.696-8.258,8.258v32.213h-43.216L256,173.642l51.474,139.904H264.258z"/>
	<path style="fill:#1A1C20;" d="M468.324,82.581H43.676C19.594,82.581,0,102.174,0,126.257v259.486
		c0,24.083,19.594,43.676,43.676,43.676h424.647c24.083,0,43.676-19.594,43.676-43.676V126.257
		C512,102.174,492.406,82.581,468.324,82.581z M16.516,385.743V126.257c0-14.977,12.183-27.16,27.16-27.16h99.463v313.806H43.676
		C28.7,412.903,16.516,400.72,16.516,385.743z M495.484,385.743c0,14.977-12.183,27.16-27.16,27.16H368.86v-24.774
		c0-4.562-3.696-8.258-8.258-8.258c-4.562,0-8.258,3.696-8.258,8.258v24.774H159.656V99.097h192.688v256
		c0,4.562,3.696,8.258,8.258,8.258c4.562,0,8.258-3.696,8.258-8.258v-256h99.463c14.977,0,27.16,12.183,27.16,27.16V385.743z"/>
</g>
<g>
</g>
<g>
</g>
<g>
</g>
<g>
</g>
<g>
</g>
<g>
</g>
<g>
</g>
<g>
</g>
<g>
</g>
<g>
</g>
<g>
</g>
<g>
</g>
<g>
</g>
<g>
</g>
<g>
</g>
</svg>
