<?xml version="1.0" encoding="iso-8859-1"?>
<!-- Generator: Adobe Illustrator 19.0.0, SVG Export Plug-In . SVG Version: 6.00 Build 0)  -->
<svg version="1.1" id="Layer_1" xmlns="http://www.w3.org/2000/svg" xmlns:xlink="http://www.w3.org/1999/xlink" x="0px" y="0px"
	 viewBox="0 0 512 512" style="enable-background:new 0 0 512 512;" xml:space="preserve">
<rect x="8.258" y="200.946" style="fill:#FFFFFF;" width="495.484" height="110.108"/>
<g>
	<path style="fill:#164FCE;" d="M8.258,385.743c0,19.561,15.858,35.418,35.418,35.418h424.648c19.561,0,35.418-15.857,35.418-35.418
		v-74.689H8.258V385.743z"/>
	<path style="fill:#164FCE;" d="M468.324,90.839H43.676c-19.561,0-35.418,15.857-35.418,35.417v74.69h495.484v-74.69
		C503.742,106.695,487.885,90.839,468.324,90.839z"/>
</g>
<polygon style="fill:#259245;" points="227.393,280.774 256,231.226 284.607,280.774 "/>
<g>
	<path style="fill:#121B21;" d="M263.151,227.097c-1.475-2.555-4.201-4.129-7.151-4.129s-5.676,1.575-7.151,4.129l-28.607,49.548
		c-1.475,2.555-1.475,5.704,0,8.258s4.202,4.129,7.151,4.129h57.214c0.011,0,0.018,0,0.022,0c4.562,0,8.258-3.696,8.258-8.258
		c0-1.71-0.52-3.298-1.408-4.616L263.151,227.097z M241.696,272.516L256,247.742l14.303,24.774H241.696z"/>
	<path style="fill:#121B21;" d="M468.324,82.581H43.676C19.593,82.581,0,102.174,0,126.257v259.486
		c0,24.083,19.593,43.676,43.676,43.676h424.648c24.082,0,43.675-19.594,43.675-43.676V126.257
		C512,102.174,492.406,82.581,468.324,82.581z M43.676,99.097h424.648c14.976,0,27.159,12.183,27.159,27.16v66.431H470.71
		c-4.562,0-8.258,3.696-8.258,8.258c0,4.562,3.696,8.258,8.258,8.258h24.774v93.591H16.516v-93.591h421.161
		c4.562,0,8.258-3.696,8.258-8.258c0-4.562-3.696-8.258-8.258-8.258H16.516v-66.431C16.516,111.28,28.7,99.097,43.676,99.097z
		 M468.324,412.903H43.676c-14.977,0-27.16-12.183-27.16-27.16v-66.431h478.968v66.431
		C495.484,400.72,483.3,412.903,468.324,412.903z"/>
</g>
<g>
</g>
<g>
</g>
<g>
</g>
<g>
</g>
<g>
</g>
<g>
</g>
<g>
</g>
<g>
</g>
<g>
</g>
<g>
</g>
<g>
</g>
<g>
</g>
<g>
</g>
<g>
</g>
<g>
</g>
</svg>
