<?xml version="1.0" encoding="iso-8859-1"?>
<!-- Generator: Adobe Illustrator 19.0.0, SVG Export Plug-In . SVG Version: 6.00 Build 0)  -->
<svg version="1.1" id="Layer_1" xmlns="http://www.w3.org/2000/svg" xmlns:xlink="http://www.w3.org/1999/xlink" x="0px" y="0px"
	 viewBox="0 0 512 512" style="enable-background:new 0 0 512 512;" xml:space="preserve">
<path style="fill:#FFFFFF;" d="M42.319,90.839h427.363c18.811,0,34.061,15.25,34.061,34.061v262.201
	c0,18.811-15.249,34.061-34.061,34.061H42.319c-18.811,0-34.061-15.249-34.061-34.061V124.899
	C8.258,106.089,23.508,90.839,42.319,90.839z"/>
<path style="fill:#103B9B;" d="M8.258,385.927v-264.1c0-13.483,14.837-21.698,26.264-14.542l289.48,181.28H160.879l132.596,132.596
	H43.492C24.033,421.161,8.258,405.386,8.258,385.927z"/>
<g>
	<polygon style="fill:#ED1F34;" points="224.393,259.951 36.874,142.521 36.874,392.545 224.393,392.545 91.797,259.951 	"/>
	<path style="fill:#ED1F34;" d="M225.722,393.096H36.322V141.527l189.986,118.975H93.126L225.722,393.096z M37.423,391.995h185.64
		L90.468,259.4h132.009L37.423,143.515V391.995z"/>
</g>
<path style="fill:#111A21;" d="M468.324,82.581H43.676C19.594,82.581,0,102.173,0,126.257v259.487
	c0,24.083,19.594,43.675,43.676,43.675h424.647c24.083,0,43.676-19.593,43.676-43.676V126.257
	C512,102.173,492.406,82.581,468.324,82.581z M16.516,385.743V126.257c0-6.353,2.199-12.199,5.867-16.83l272.873,170.88H160.879
	c-3.34,0-6.351,2.012-7.629,5.098c-1.278,3.086-0.573,6.638,1.789,8.999l118.499,118.499H43.676
	C28.7,412.903,16.516,400.72,16.516,385.743z M495.484,385.743c0,14.977-12.183,27.16-27.16,27.16H296.896l-116.08-116.08h143.186
	c3.683,0,6.92-2.439,7.937-5.978c1.017-3.54-0.433-7.324-3.554-9.279L37.974,99.703c1.84-0.394,3.747-0.607,5.702-0.607h424.647
	c14.977,0,27.16,12.183,27.16,27.16V385.743z"/>
<g>
</g>
<g>
</g>
<g>
</g>
<g>
</g>
<g>
</g>
<g>
</g>
<g>
</g>
<g>
</g>
<g>
</g>
<g>
</g>
<g>
</g>
<g>
</g>
<g>
</g>
<g>
</g>
<g>
</g>
</svg>
