<?xml version="1.0" encoding="iso-8859-1"?>
<!-- Generator: Adobe Illustrator 19.0.0, SVG Export Plug-In . SVG Version: 6.00 Build 0)  -->
<svg version="1.1" id="Layer_1" xmlns="http://www.w3.org/2000/svg" xmlns:xlink="http://www.w3.org/1999/xlink" x="0px" y="0px"
	 viewBox="0 0 512 512" style="enable-background:new 0 0 512 512;" xml:space="preserve">
<path style="fill:#103B9B;" d="M8.258,391.983V120.017c0-16.114,13.064-29.178,29.178-29.178h437.127
	c16.114,0,29.178,13.064,29.178,29.178v271.966c0,16.114-13.064,29.178-29.178,29.178H37.437
	C21.322,421.161,8.258,408.097,8.258,391.983z"/>
<polygon style="fill:#FFFFFF;" points="132.129,294.953 138.062,313.944 152.696,300.464 148.338,319.877 167.752,315.52 
	154.272,330.153 173.263,336.086 154.272,342.019 167.752,356.653 148.338,352.296 152.696,371.709 138.062,358.228 132.129,377.22 
	126.196,358.228 111.562,371.709 115.92,352.296 96.506,356.653 109.986,342.019 90.995,336.086 109.986,330.153 96.506,315.52 
	115.92,319.877 111.562,300.464 126.196,313.944 "/>
<rect x="8.258" y="239.484" style="fill:#FFE000;" width="495.484" height="33.032"/>
<path style="fill:#111A21;" d="M468.324,82.581H43.676C19.593,82.581,0,102.173,0,126.256v259.487
	c0,24.084,19.593,43.676,43.676,43.676h424.648c24.082,0,43.675-19.593,43.675-43.676V126.256
	C512,102.173,492.406,82.581,468.324,82.581z M43.676,99.097h424.648c14.976,0,27.159,12.183,27.159,27.159v104.97H470.71
	c-4.562,0-8.258,3.697-8.258,8.258s3.696,8.258,8.258,8.258h24.774v16.516H16.516v-16.516h421.161c4.562,0,8.258-3.697,8.258-8.258
	s-3.696-8.258-8.258-8.258H16.516v-104.97C16.516,111.28,28.7,99.097,43.676,99.097z M468.324,412.903H43.676
	c-14.977,0-27.16-12.183-27.16-27.16V280.774h478.968v104.969C495.484,400.72,483.3,412.903,468.324,412.903z"/>
<g>
</g>
<g>
</g>
<g>
</g>
<g>
</g>
<g>
</g>
<g>
</g>
<g>
</g>
<g>
</g>
<g>
</g>
<g>
</g>
<g>
</g>
<g>
</g>
<g>
</g>
<g>
</g>
<g>
</g>
</svg>
