<?xml version="1.0" encoding="iso-8859-1"?>
<!-- Generator: Adobe Illustrator 19.0.0, SVG Export Plug-In . SVG Version: 6.00 Build 0)  -->
<svg version="1.1" id="Layer_1" xmlns="http://www.w3.org/2000/svg" xmlns:xlink="http://www.w3.org/1999/xlink" x="0px" y="0px"
	 viewBox="0 0 512 512" style="enable-background:new 0 0 512 512;" xml:space="preserve">
<path style="fill:#FFE000;" d="M503.681,126.176v259.52c0,19.584-15.872,35.393-35.392,35.393H43.712
	c-19.584,0-35.392-15.872-35.392-35.393v-259.52c0-19.584,15.872-35.393,35.392-35.393h424.576
	C487.872,90.72,503.681,106.592,503.681,126.176z"/>
<path style="fill:#103B9B;" d="M256,255.904H8.32V123.872c0-18.304,14.912-33.216,33.216-33.216H256V255.904z"/>
<path style="fill:#FFFFFF;" d="M132.096,200.096l83.712,55.808H256v-26.816l-83.712-55.808L256,117.472V90.656h-40.192
	l-83.712,55.808L48.512,90.656h-4.992c-16.704,0.128-30.72,11.776-34.304,27.392l82.816,55.232L8.32,229.088v26.816h40.192
	L132.096,200.096z"/>
<path style="fill:#ED1F34;" d="M145.472,182.304L256,255.904v-17.472l-110.592-73.92L256,90.72h-26.816l-110.464,73.664L20.8,99.104
	c-3.776,3.2-6.912,7.232-9.088,11.776l106.88,71.424L8.32,255.904h26.816L145.472,182.304z"/>
<polygon style="fill:#FFFFFF;" points="256,151.008 154.368,151.008 154.368,90.72 109.824,90.72 109.824,151.008 8.32,151.008 
	8.32,195.616 109.824,195.616 109.824,255.904 154.368,255.904 154.368,195.616 256,195.616 "/>
<polygon style="fill:#ED1F34;" points="256,161.376 144.128,161.376 144.128,90.72 120.192,90.72 120.192,161.376 8.32,161.376 
	8.32,185.312 120.192,185.312 120.192,255.904 144.128,255.904 144.128,185.312 256,185.312 "/>
<circle style="fill:#164FCE;" cx="132.094" cy="173.278" r="27.52"/>
<g>
	<circle style="fill:#FFE000;" cx="132.094" cy="173.278" r="16.512"/>
	<circle style="fill:#FFE000;" cx="132.094" cy="122.977" r="8.32"/>
	<circle style="fill:#FFE000;" cx="60.288" cy="173.278" r="8.32"/>
	<circle style="fill:#FFE000;" cx="204.035" cy="173.278" r="8.32"/>
	<circle style="fill:#FFE000;" cx="132.094" cy="223.579" r="8.32"/>
</g>
<path style="fill:#1A1C20;" d="M468.288,82.528H43.712C19.584,82.528,0,102.112,0,126.24v259.52
	c0,24.128,19.584,43.712,43.712,43.712h424.576c24.128,0,43.712-19.584,43.712-43.712V126.24
	C512,102.112,492.416,82.528,468.288,82.528z M43.712,98.977h204.096v148.672H16.576V126.176
	C16.512,111.2,28.672,98.977,43.712,98.977z M495.488,385.632c0,14.976-12.224,27.2-27.2,27.2H43.712
	c-14.976,0-27.2-12.224-27.2-27.2V264.224h239.488c2.176,0,4.288-0.896,5.824-2.432c1.536-1.536,2.432-3.584,2.432-5.824V98.976
	h204.096c14.976,0,27.2,12.224,27.2,27.2L495.488,385.632L495.488,385.632z"/>
<g>
</g>
<g>
</g>
<g>
</g>
<g>
</g>
<g>
</g>
<g>
</g>
<g>
</g>
<g>
</g>
<g>
</g>
<g>
</g>
<g>
</g>
<g>
</g>
<g>
</g>
<g>
</g>
<g>
</g>
</svg>
