<?xml version="1.0" encoding="iso-8859-1"?>
<!-- Generator: Adobe Illustrator 19.0.0, SVG Export Plug-In . SVG Version: 6.00 Build 0)  -->
<svg version="1.1" id="Layer_1" xmlns="http://www.w3.org/2000/svg" xmlns:xlink="http://www.w3.org/1999/xlink" x="0px" y="0px"
	 viewBox="0 0 512 512" style="enable-background:new 0 0 512 512;" xml:space="preserve">
<path style="fill:#FFFFFF;" d="M173.419,200.946h330.323v-75.974c0-18.852-15.282-34.133-34.133-34.133H173.419V200.946z"/>
<path style="fill:#259245;" d="M173.419,421.161h296.189c18.852,0,34.133-15.282,34.133-34.133v-75.974H173.419V421.161z"/>
<path style="fill:#ED1F34;" d="M503.742,200.946H173.419V90.839H42.391c-18.852,0-34.133,15.282-34.133,34.133v262.056
	c0,18.852,15.282,34.133,34.133,34.133h131.028V311.054h330.323V200.946z"/>
<path style="fill:#FFFFFF;" d="M102.517,180.576l14.531-14.531c3.225-3.225,3.225-8.454,0-11.678c-3.225-3.225-8.454-3.225-11.678,0
	l-14.531,14.531l-14.531-14.531c-3.225-3.225-8.454-3.225-11.678,0c-3.225,3.225-3.225,8.454,0,11.678l14.531,14.531L64.63,195.107
	c-3.225,3.225-3.225,8.454,0,11.678c1.612,1.613,3.726,2.419,5.839,2.419s4.227-0.806,5.839-2.419l14.531-14.531l14.531,14.531
	c1.612,1.613,3.726,2.419,5.839,2.419s4.227-0.806,5.839-2.419c3.225-3.225,3.225-8.454,0-11.678L102.517,180.576z"/>
<path style="fill:#111A21;" d="M468.324,82.581H43.676C19.593,82.581,0,102.173,0,126.256v259.487
	c0,24.084,19.593,43.676,43.676,43.676h424.648c24.082,0,43.675-19.593,43.675-43.676V126.256
	C512,102.173,492.406,82.581,468.324,82.581z M495.484,126.256v66.432H181.677V99.097h286.646
	C483.3,99.097,495.484,111.28,495.484,126.256z M468.324,412.903H181.677v-93.591h25.666c4.561,0,8.258-3.697,8.258-8.258
	c0-4.561-3.697-8.258-8.258-8.258h-33.924c-4.561,0-8.258,3.697-8.258,8.258v101.849H43.676c-14.977,0-27.16-12.183-27.16-27.16
	V126.256c0-14.976,12.183-27.159,27.16-27.159h121.485v101.849c0,4.561,3.697,8.258,8.258,8.258h322.065v93.591H240.376
	c-4.561,0-8.258,3.697-8.258,8.258c0,4.561,3.697,8.258,8.258,8.258h255.108v66.431C495.484,400.72,483.3,412.903,468.324,412.903z"
	/>
<g>
</g>
<g>
</g>
<g>
</g>
<g>
</g>
<g>
</g>
<g>
</g>
<g>
</g>
<g>
</g>
<g>
</g>
<g>
</g>
<g>
</g>
<g>
</g>
<g>
</g>
<g>
</g>
<g>
</g>
</svg>
