<?xml version="1.0" encoding="iso-8859-1"?>
<!-- Generator: Adobe Illustrator 19.0.0, SVG Export Plug-In . SVG Version: 6.00 Build 0)  -->
<svg version="1.1" id="Layer_1" xmlns="http://www.w3.org/2000/svg" xmlns:xlink="http://www.w3.org/1999/xlink" x="0px" y="0px"
	 viewBox="0 0 512 512" style="enable-background:new 0 0 512 512;" xml:space="preserve">
<path style="fill:#FFFFFF;" d="M256,256H8.258V123.095c0-17.814,14.442-32.256,32.256-32.256H256V256z"/>
<path style="fill:#ED1F34;" d="M503.742,256H256V90.839h215.486c17.814,0,32.256,14.442,32.256,32.256L503.742,256L503.742,256z"/>
<path style="fill:#FFFFFF;" d="M256,421.161h215.486c17.814,0,32.256-14.442,32.256-32.256V256H256L256,421.161L256,421.161z"/>
<g>
	<path style="fill:#164FCE;" d="M40.514,421.161H256V256H8.258v132.905C8.258,406.72,22.7,421.161,40.514,421.161z"/>
	<polygon style="fill:#164FCE;" points="85.333,162.913 119.789,161.132 132.129,128.914 144.47,161.132 178.925,162.913 
		152.096,184.605 161.05,217.925 132.129,199.113 103.208,217.925 112.162,184.605 	"/>
</g>
<polygon style="fill:#ED1F34;" points="333.075,328.074 367.531,326.294 379.871,294.075 392.211,326.294 426.667,328.074 
	399.838,349.766 408.792,383.086 379.871,364.274 350.95,383.086 359.904,349.766 "/>
<g>
	<path style="fill:#121B21;" d="M80.141,169.334l22.652,18.315l-7.561,28.132c-0.889,3.303,0.353,6.813,3.122,8.824
		c2.767,2.011,6.488,2.106,9.357,0.242l24.419-15.884l24.419,15.883c1.372,0.893,2.939,1.336,4.503,1.336
		c1.707,0,3.41-0.529,4.854-1.578c2.768-2.011,4.01-5.521,3.122-8.824l-7.561-28.132l22.652-18.315
		c2.66-2.15,3.718-5.719,2.661-8.973c-1.057-3.254-4.011-5.52-7.428-5.696l-29.09-1.502l-10.419-27.203
		c-1.223-3.194-4.29-5.304-7.712-5.304c-3.422,0-6.489,2.11-7.712,5.304l-10.419,27.203l-29.09,1.502
		c-3.417,0.176-6.371,2.442-7.428,5.696C76.422,163.615,77.48,167.184,80.141,169.334z M120.214,169.381
		c3.261-0.168,6.118-2.244,7.286-5.294l4.629-12.085l4.629,12.087c1.169,3.05,4.024,5.124,7.286,5.294l12.921,0.666l-10.063,8.137
		c-2.54,2.054-3.63,5.411-2.782,8.564l3.359,12.498l-10.848-7.056c-1.37-0.891-2.937-1.336-4.503-1.336s-3.134,0.445-4.503,1.336
		l-10.848,7.056l3.359-12.498c0.848-3.153-0.243-6.511-2.782-8.564l-10.063-8.137L120.214,169.381z"/>
	<path style="fill:#121B21;" d="M427.093,319.827l-29.09-1.502l-10.419-27.203c-1.223-3.194-4.291-5.304-7.712-5.304
		c-3.421,0-6.489,2.11-7.712,5.304l-10.419,27.203l-29.09,1.502c-3.418,0.176-6.371,2.442-7.428,5.696
		c-1.057,3.254,0.001,6.822,2.661,8.973l22.652,18.315l-7.561,28.132c-0.889,3.303,0.353,6.813,3.122,8.824
		c2.768,2.012,6.489,2.107,9.357,0.242l24.419-15.884l24.419,15.883c1.372,0.893,2.939,1.336,4.503,1.336
		c1.707,0,3.41-0.527,4.854-1.578c2.768-2.011,4.01-5.521,3.122-8.824l-7.561-28.132l22.652-18.315
		c2.66-2.15,3.718-5.719,2.661-8.973C433.464,322.268,430.509,320.003,427.093,319.827z M394.645,343.345
		c-2.54,2.053-3.63,5.411-2.782,8.564l3.359,12.498l-10.848-7.056c-1.37-0.891-2.937-1.336-4.503-1.336s-3.134,0.445-4.503,1.336
		l-10.848,7.056l3.359-12.498c0.848-3.154-0.243-6.511-2.782-8.564l-10.063-8.137l12.921-0.666c3.261-0.168,6.118-2.244,7.286-5.294
		l4.63-12.085l4.629,12.086c1.168,3.05,4.024,5.124,7.286,5.294l12.921,0.666L394.645,343.345z"/>
	<path style="fill:#121B21;" d="M468.324,82.581H43.676C19.594,82.581,0,102.174,0,126.257v259.486
		c0,24.083,19.594,43.676,43.676,43.676h424.647c24.083,0,43.676-19.594,43.676-43.676V126.257
		C512,102.174,492.406,82.581,468.324,82.581z M495.484,126.257v121.485H264.258V99.097h204.066
		C483.3,99.097,495.484,111.28,495.484,126.257z M43.676,99.097h204.066v148.645H16.516V126.257
		C16.516,111.28,28.7,99.097,43.676,99.097z M468.324,412.903H264.258v-24.774c0-4.562-3.696-8.258-8.258-8.258
		c-4.562,0-8.258,3.696-8.258,8.258v24.774H43.676c-14.977,0-27.16-12.183-27.16-27.16V264.258h231.226v90.839
		c0,4.562,3.696,8.258,8.258,8.258c4.562,0,8.258-3.696,8.258-8.258v-90.839h231.226v121.485
		C495.484,400.72,483.3,412.903,468.324,412.903z"/>
</g>
<g>
</g>
<g>
</g>
<g>
</g>
<g>
</g>
<g>
</g>
<g>
</g>
<g>
</g>
<g>
</g>
<g>
</g>
<g>
</g>
<g>
</g>
<g>
</g>
<g>
</g>
<g>
</g>
<g>
</g>
</svg>
