<?xml version="1.0" encoding="iso-8859-1"?>
<!-- Generator: Adobe Illustrator 19.0.0, SVG Export Plug-In . SVG Version: 6.00 Build 0)  -->
<svg version="1.1" id="Layer_1" xmlns="http://www.w3.org/2000/svg" xmlns:xlink="http://www.w3.org/1999/xlink" x="0px" y="0px"
	 viewBox="0 0 512 512" style="enable-background:new 0 0 512 512;" xml:space="preserve">
<rect x="173.419" y="90.839" style="fill:#FFFFFF;" width="165.161" height="330.323"/>
<g>
	<path style="fill:#ED1F34;" d="M338.581,90.839v330.323h130.477c19.155,0,34.684-15.528,34.684-34.684V125.523
		c0-19.155-15.528-34.684-34.684-34.684H338.581z"/>
	<path style="fill:#ED1F34;" d="M8.258,124.972v262.056c0,18.852,15.282,34.133,34.133,34.133h131.028V90.839H42.391
		C23.54,90.839,8.258,106.121,8.258,124.972z"/>
</g>
<path style="fill:#121B21;" d="M468.324,82.581H43.676C19.593,82.581,0,102.174,0,126.257v259.486
	c0,24.083,19.593,43.676,43.676,43.676h424.648c24.082,0,43.675-19.594,43.675-43.676V126.257
	C512,102.174,492.406,82.581,468.324,82.581z M16.516,385.743V126.257c0-14.977,12.183-27.16,27.16-27.16h121.485v313.806H43.676
	C28.7,412.903,16.516,400.72,16.516,385.743z M495.484,385.743c0,14.977-12.183,27.16-27.16,27.16H346.839v-57.806
	c0-4.562-3.696-8.258-8.258-8.258s-8.258,3.696-8.258,8.258v57.806H181.677V99.097h148.645v222.968c0,4.562,3.696,8.258,8.258,8.258
	s8.258-3.696,8.258-8.258V99.097h121.485c14.977,0,27.16,12.183,27.16,27.16V385.743z"/>
<g>
</g>
<g>
</g>
<g>
</g>
<g>
</g>
<g>
</g>
<g>
</g>
<g>
</g>
<g>
</g>
<g>
</g>
<g>
</g>
<g>
</g>
<g>
</g>
<g>
</g>
<g>
</g>
<g>
</g>
</svg>
