<?xml version="1.0" encoding="iso-8859-1"?>
<!-- Generator: Adobe Illustrator 19.0.0, SVG Export Plug-In . SVG Version: 6.00 Build 0)  -->
<svg version="1.1" id="Layer_1" xmlns="http://www.w3.org/2000/svg" xmlns:xlink="http://www.w3.org/1999/xlink" x="0px" y="0px"
	 viewBox="0 0 512 512" style="enable-background:new 0 0 512 512;" xml:space="preserve">
<g>
	<path style="fill:#ED1F34;" d="M503.742,165.712H8.258v-41.915c0-18.203,14.756-32.958,32.958-32.958h429.568
		c18.202,0,32.958,14.756,32.958,32.958v41.915H503.742z"/>
	<path style="fill:#ED1F34;" d="M470.783,421.161H41.217c-18.203,0-32.958-14.755-32.958-32.958v-41.915h495.484v41.915
		C503.742,406.406,488.986,421.161,470.783,421.161z"/>
</g>
<rect x="8.258" y="165.712" style="fill:#FFFFFF;" width="495.484" height="180.576"/>
<path style="fill:#F2A643;" d="M256,194.89c-33.696,0-61.11,27.415-61.11,61.11s27.413,61.11,61.11,61.11s61.11-27.415,61.11-61.11
	S289.696,194.89,256,194.89z"/>
<path style="fill:#164FCE;" d="M199.012,278.022c8.858,22.843,31.055,39.088,56.988,39.088c25.934,0,48.13-16.245,56.988-39.088
	H199.012z"/>
<g>
	<path style="fill:#B21727;" d="M243.549,291.234c-11.419,0-20.709-9.291-20.709-20.709v-23.057c0-4.562,3.697-8.258,8.258-8.258
		c4.561,0,8.258,3.696,8.258,8.258v23.057c0,2.312,1.881,4.193,4.193,4.193c2.312,0,4.193-1.881,4.193-4.193v-41.502
		c0-4.562,3.697-8.258,8.258-8.258c4.561,0,8.258,3.696,8.258,8.258v41.502C264.258,281.945,254.968,291.234,243.549,291.234z"/>
	<path style="fill:#B21727;" d="M268.451,291.234c-11.419,0-20.709-9.291-20.709-20.709c0-4.562,3.697-8.258,8.258-8.258
		c4.561,0,8.258,3.696,8.258,8.258c0,2.312,1.881,4.193,4.193,4.193s4.193-1.881,4.193-4.193v-23.057
		c0-4.562,3.697-8.258,8.258-8.258c4.561,0,8.258,3.696,8.258,8.258v23.057C289.159,281.945,279.869,291.234,268.451,291.234z"/>
</g>
<g>
	<path style="fill:#1A1C20;" d="M256,186.632c-38.249,0-69.368,31.119-69.368,69.368s31.119,69.368,69.368,69.368
		s69.368-31.119,69.368-69.368S294.249,186.632,256,186.632z M256,308.852c-29.142,0-52.852-23.708-52.852-52.852
		s23.709-52.852,52.852-52.852c29.142,0,52.852,23.708,52.852,52.852S285.142,308.852,256,308.852z"/>
	<path style="fill:#1A1C20;" d="M468.324,82.581H43.675C19.593,82.581,0,102.174,0,126.257v259.486
		c0,24.083,19.593,43.676,43.675,43.676h424.648c24.084,0,43.676-19.594,43.676-43.676V126.257
		C512,102.174,492.407,82.581,468.324,82.581z M43.675,99.097h424.648c14.977,0,27.16,12.183,27.16,27.16v31.197H470.71
		c-4.561,0-8.258,3.696-8.258,8.258c0,4.562,3.697,8.258,8.258,8.258h24.774v164.06H16.516V173.97h421.161
		c4.561,0,8.258-3.696,8.258-8.258c0-4.562-3.697-8.258-8.258-8.258H16.516v-31.197C16.516,111.28,28.7,99.097,43.675,99.097z
		 M468.324,412.903H43.675c-14.976,0-27.159-12.183-27.159-27.16v-31.197h478.968v31.197
		C495.484,400.72,483.3,412.903,468.324,412.903z"/>
</g>
<g>
</g>
<g>
</g>
<g>
</g>
<g>
</g>
<g>
</g>
<g>
</g>
<g>
</g>
<g>
</g>
<g>
</g>
<g>
</g>
<g>
</g>
<g>
</g>
<g>
</g>
<g>
</g>
<g>
</g>
</svg>
