<?xml version="1.0" encoding="iso-8859-1"?>
<!-- Generator: Adobe Illustrator 19.0.0, SVG Export Plug-In . SVG Version: 6.00 Build 0)  -->
<svg version="1.1" id="Layer_1" xmlns="http://www.w3.org/2000/svg" xmlns:xlink="http://www.w3.org/1999/xlink" x="0px" y="0px"
	 viewBox="0 0 512 512" style="enable-background:new 0 0 512 512;" xml:space="preserve">
<path style="fill:#333333;" d="M8.258,126.256v259.487c0,19.561,15.858,35.418,35.418,35.418h424.648
	c8.715,0,16.689-3.153,22.858-8.373L20.818,99.211C13.139,105.709,8.258,115.41,8.258,126.256z"/>
<path style="fill:#ED1F34;" d="M468.324,90.839H43.676c-8.715,0-16.689,3.153-22.858,8.373l470.365,313.576
	c7.679-6.496,12.56-16.198,12.56-27.045V126.256C503.742,106.695,487.884,90.839,468.324,90.839z"/>
<g>
	<circle style="fill:#FFFFFF;" cx="112.86" cy="214.038" r="13.37"/>
	<circle style="fill:#FFFFFF;" cx="112.86" cy="374.487" r="13.37"/>
	<circle style="fill:#FFFFFF;" cx="152.972" cy="247.467" r="13.37"/>
	<circle style="fill:#FFFFFF;" cx="72.748" cy="280.895" r="13.37"/>
	<circle style="fill:#FFFFFF;" cx="132.911" cy="310.977" r="8.913"/>
</g>
<path style="fill:#FFE000;" d="M302.796,177.548c0,31.318,25.387,56.705,56.705,56.705s56.705-25.387,56.705-56.705H302.796z"/>
<g>
	<path style="fill:#111A21;" d="M468.324,82.581H43.676C19.593,82.581,0,102.173,0,126.256v184.798v33.032v41.657
		c0,24.084,19.593,43.676,43.676,43.676h424.648c24.083,0,43.675-19.593,43.675-43.676V126.256
		C512,102.173,492.407,82.581,468.324,82.581z M468.324,412.903H43.676c-14.977,0-27.16-12.183-27.16-27.16v-41.657v-33.032V126.256
		c0-6.127,2.041-11.786,5.478-16.336l453.165,302.11C472.975,412.599,470.684,412.903,468.324,412.903z M495.484,385.743
		c0,6.128-2.041,11.786-5.478,16.336L36.841,99.969c2.185-0.568,4.475-0.872,6.835-0.872h424.648
		c14.976,0,27.159,12.183,27.159,27.159V385.743z"/>
	<path style="fill:#111A21;" d="M414.955,211.351c4.665-7.625,7.786-16.286,8.967-25.545h8.762c4.561,0,8.258-3.697,8.258-8.258
		s-3.697-8.258-8.258-8.258h-16.478h-70.432v-20.095c0-4.561-3.697-8.258-8.258-8.258h-11.047c-4.561,0-8.258,3.697-8.258,8.258
		c0,4.561,3.697,8.258,8.258,8.258h2.789v11.837h-26.462h-16.478c-4.561,0-8.258,3.697-8.258,8.258s3.697,8.258,8.258,8.258h8.762
		c4.072,31.933,31.398,56.705,64.421,56.705c16.878,0,32.27-6.474,43.834-17.064c13.02,1.537,23.154,12.634,23.154,26.06
		c0,4.561,3.697,8.258,8.258,8.258c4.561,0,8.258-3.697,8.258-8.258C443.006,233.094,431.309,217.362,414.955,211.351z
		 M359.501,225.996c-23.9,0-43.813-17.395-47.743-40.189h95.486C403.314,208.601,383.401,225.996,359.501,225.996z"/>
</g>
<g>
</g>
<g>
</g>
<g>
</g>
<g>
</g>
<g>
</g>
<g>
</g>
<g>
</g>
<g>
</g>
<g>
</g>
<g>
</g>
<g>
</g>
<g>
</g>
<g>
</g>
<g>
</g>
<g>
</g>
</svg>
