<?xml version="1.0" encoding="iso-8859-1"?>
<!-- Generator: Adobe Illustrator 19.0.0, SVG Export Plug-In . SVG Version: 6.00 Build 0)  -->
<svg version="1.1" id="Layer_1" xmlns="http://www.w3.org/2000/svg" xmlns:xlink="http://www.w3.org/1999/xlink" x="0px" y="0px"
	 viewBox="0 0 512 512" style="enable-background:new 0 0 512 512;" xml:space="preserve">
<path style="fill:#ED1F34;" d="M20.818,412.789c6.169,5.22,14.144,8.373,22.858,8.373h424.648c19.561,0,35.418-15.857,35.418-35.418
	V256H256.001L20.818,412.789z"/>
<path style="fill:#103B9B;" d="M468.324,90.839H43.676c-8.714,0-16.689,3.152-22.858,8.373L256,256h247.742V126.257
	C503.742,106.695,487.885,90.839,468.324,90.839z"/>
<path style="fill:#FFFFFF;" d="M20.817,99.211c-7.678,6.497-12.559,16.199-12.559,27.046v259.486
	c0,10.847,4.881,20.548,12.56,27.046L256,256L20.817,99.211z"/>
<g>
	<path style="fill:#FFE000;" d="M96.111,311.054c-30.357,0-55.054-24.697-55.054-55.054s24.697-55.054,55.054-55.054
		s55.054,24.697,55.054,55.054S126.467,311.054,96.111,311.054z M96.111,217.462c-21.25,0-38.538,17.288-38.538,38.538
		s17.288,38.538,38.538,38.538S134.648,277.25,134.648,256S117.36,217.462,96.111,217.462z"/>
	<circle style="fill:#FFE000;" cx="96.113" cy="256" r="25.875"/>
</g>
<path style="fill:#121B21;" d="M468.324,82.581H43.676c-10.579,0-20.29,3.783-27.856,10.065c-0.295,0.225-0.58,0.466-0.847,0.733
	C5.807,101.391,0,113.155,0,126.257v259.486c0,13.167,5.865,24.982,15.11,32.997c0.192,0.185,0.392,0.355,0.598,0.519
	c7.582,6.337,17.335,10.161,27.968,10.161h424.648c24.082,0,43.675-19.594,43.675-43.676V126.257
	C512,102.174,492.406,82.581,468.324,82.581z M21.994,402.08c-3.436-4.551-5.478-10.209-5.478-16.337V126.257
	c0-6.127,2.041-11.786,5.478-16.337L241.112,256L21.994,402.08z M468.324,412.903H43.676c-2.361,0-4.65-0.304-6.835-0.872
	l221.659-147.773h179.178c4.562,0,8.258-3.696,8.258-8.258c0-4.562-3.696-8.258-8.258-8.258H258.499L36.841,99.969
	c2.185-0.568,4.475-0.872,6.835-0.872h424.648c14.976,0,27.159,12.183,27.159,27.16v121.485H470.71
	c-4.562,0-8.258,3.696-8.258,8.258c0,4.562,3.696,8.258,8.258,8.258h24.774v121.485C495.484,400.72,483.3,412.903,468.324,412.903z"
	/>
<g>
</g>
<g>
</g>
<g>
</g>
<g>
</g>
<g>
</g>
<g>
</g>
<g>
</g>
<g>
</g>
<g>
</g>
<g>
</g>
<g>
</g>
<g>
</g>
<g>
</g>
<g>
</g>
<g>
</g>
</svg>
