<?xml version="1.0" encoding="iso-8859-1"?>
<!-- Generator: Adobe Illustrator 19.0.0, SVG Export Plug-In . SVG Version: 6.00 Build 0)  -->
<svg version="1.1" id="Layer_1" xmlns="http://www.w3.org/2000/svg" xmlns:xlink="http://www.w3.org/1999/xlink" x="0px" y="0px"
	 viewBox="0 0 512 512" style="enable-background:new 0 0 512 512;" xml:space="preserve">
<path style="fill:#134923;" d="M468.324,90.839H118.366v330.323h349.958c19.561,0,35.418-15.858,35.418-35.418V126.257
	C503.742,106.695,487.885,90.839,468.324,90.839z"/>
<g>
	<path style="fill:#FFFFFF;" d="M43.676,90.839c-19.561,0-35.418,15.857-35.418,35.418v259.487
		c0,19.561,15.858,35.418,35.418,35.418h74.689V90.84H43.676V90.839z"/>
	<path style="fill:#FFFFFF;" d="M374.086,289.709c-28.159,28.159-73.813,28.159-101.972,0
		c-28.159-28.159-28.158-73.812,0.001-101.971c0.848-0.848,1.712-1.666,2.59-2.463c-13.198,3.697-25.661,10.718-36.042,21.099
		c-32.249,32.249-32.249,84.537,0,116.786c32.249,32.249,84.537,32.25,116.787,0.001c10.382-10.382,17.401-22.844,21.099-36.042
		C375.752,287.997,374.933,288.862,374.086,289.709z"/>
	<polygon style="fill:#FFFFFF;" points="322.832,225.361 344.028,201.857 331.133,172.952 360.037,185.847 383.542,164.652 
		380.211,196.126 407.632,211.931 376.669,218.489 370.111,249.451 354.306,222.03 	"/>
</g>
<g>
	<path style="fill:#111A21;" d="M380.545,279.893c-3.351-1.853-7.535-1.159-10.111,1.675c-0.758,0.834-1.472,1.587-2.188,2.302
		c-12.059,12.059-28.093,18.7-45.146,18.7c-17.053,0-33.087-6.642-45.146-18.701c-24.893-24.893-24.893-65.398,0.001-90.291
		c0.718-0.718,1.471-1.435,2.301-2.188c2.834-2.574,3.528-6.76,1.675-10.11c-1.852-3.349-5.763-4.989-9.454-3.955
		c-14.942,4.186-28.653,12.213-39.654,23.212c-17.157,17.157-26.605,39.969-26.605,64.232c0,24.263,9.448,47.075,26.605,64.231
		c17.158,17.157,39.97,26.606,64.233,26.606c24.264,0,47.076-9.449,64.233-26.606c11-11,19.025-24.713,23.211-39.654
		C385.534,285.66,383.895,281.746,380.545,279.893z M349.61,317.322c-14.036,14.038-32.701,21.768-52.553,21.768
		c-19.851,0-38.517-7.731-52.554-21.768c-14.038-14.038-21.769-32.701-21.769-52.553s7.731-38.517,21.769-52.554
		c1.353-1.354,2.759-2.654,4.209-3.896c-11.831,29.057-5.978,63.689,17.562,87.229c15.179,15.179,35.36,23.538,56.825,23.538
		c10.575,0,20.838-2.028,30.345-5.902C352.221,314.609,350.942,315.99,349.61,317.322z"/>
	<path style="fill:#111A21;" d="M411.756,204.776l-22.768-13.123l2.766-26.132c0.36-3.402-1.414-6.675-4.463-8.227
		c-3.05-1.555-6.739-1.065-9.28,1.225l-19.515,17.597l-23.999-10.706c-3.127-1.396-6.784-0.718-9.204,1.702
		c-2.418,2.419-3.095,6.079-1.702,9.204l10.707,23.999l-17.598,19.515c-2.29,2.54-2.778,6.231-1.224,9.279
		c1.554,3.049,4.835,4.821,8.227,4.464l26.133-2.766l13.122,22.767c1.49,2.584,4.235,4.135,7.153,4.135
		c0.429,0,0.861-0.034,1.294-0.102c3.379-0.535,6.079-3.098,6.787-6.446l5.445-25.708l25.709-5.445
		c3.347-0.709,5.911-3.408,6.445-6.787C416.323,209.844,414.72,206.485,411.756,204.776z M374.958,210.409
		c-3.195,0.677-5.691,3.173-6.368,6.368l-2.091,9.871l-5.037-8.741c-1.485-2.575-4.224-4.135-7.153-4.135
		c-0.29,0-0.579,0.015-0.871,0.045l-10.033,1.063l6.757-7.494c2.187-2.426,2.738-5.912,1.408-8.894l-4.11-9.214l9.214,4.11
		c2.985,1.332,6.471,0.778,8.894-1.408l7.493-6.756l-1.061,10.033c-0.345,3.248,1.259,6.393,4.088,8.025l8.741,5.039
		L374.958,210.409z"/>
	<path style="fill:#111A21;" d="M468.324,82.581H43.676C19.594,82.581,0,102.173,0,126.257v259.487
		c0,24.083,19.594,43.675,43.676,43.675h424.647c24.083,0,43.676-19.593,43.676-43.676V126.257
		C512,102.173,492.406,82.581,468.324,82.581z M16.516,385.743V126.257c0-14.977,12.183-27.16,27.16-27.16h66.431v313.806H43.676
		C28.7,412.903,16.516,400.72,16.516,385.743z M495.484,385.743c0,14.977-12.183,27.16-27.16,27.16h-341.7V99.097h341.7
		c14.977,0,27.16,12.183,27.16,27.16V385.743z"/>
</g>
<g>
</g>
<g>
</g>
<g>
</g>
<g>
</g>
<g>
</g>
<g>
</g>
<g>
</g>
<g>
</g>
<g>
</g>
<g>
</g>
<g>
</g>
<g>
</g>
<g>
</g>
<g>
</g>
<g>
</g>
</svg>
