<?xml version="1.0" encoding="iso-8859-1"?>
<!-- Generator: Adobe Illustrator 19.0.0, SVG Export Plug-In . SVG Version: 6.00 Build 0)  -->
<svg version="1.1" id="Layer_1" xmlns="http://www.w3.org/2000/svg" xmlns:xlink="http://www.w3.org/1999/xlink" x="0px" y="0px"
	 viewBox="0 0 512 512" style="enable-background:new 0 0 512 512;" xml:space="preserve">
<path style="fill:#103B9B;" d="M8.258,383.233V128.767c0-20.948,16.981-37.929,37.928-37.929h419.627
	c20.947,0,37.929,16.981,37.929,37.929v254.466c0,20.947-16.981,37.929-37.929,37.929H46.186
	C25.239,421.161,8.258,404.181,8.258,383.233z"/>
<path style="fill:#FFFFFF;" d="M256,90.839h-40.196l-83.675,55.784L48.454,90.839H35.055c-14.8,0-26.797,11.997-26.797,26.797l0,0
	l83.675,55.784L8.258,229.203V256h40.196l83.675-55.784L215.804,256H256v-26.797l-83.675-55.784L256,117.637V90.839z"/>
<path style="fill:#ED1F34;" d="M256,90.839h-26.798l-110.466,73.652l-95.603-63.736c-6.359-4.239-11.434,2.618-11.434,10.26
	l-3.441-2.299l110.33,73.73L8.258,256h26.797l110.472-73.648L256,256v-17.484L145.373,164.59L256,90.839z"/>
<polygon style="fill:#FFFFFF;" points="256,151.123 154.426,151.123 154.426,90.839 109.832,90.839 109.832,151.123 8.258,151.123 
	8.258,195.716 109.832,195.716 109.832,256 154.426,256 154.426,195.716 256,195.716 "/>
<polygon style="fill:#ED1F34;" points="256,161.445 144.103,161.445 144.103,90.839 120.155,90.839 120.155,161.445 8.258,161.445 
	8.258,185.394 120.155,185.394 120.155,256 144.103,256 144.103,185.394 256,185.394 "/>
<path style="fill:#259245;" d="M456.123,340.565c-4.561,0-8.258-3.696-8.258-8.258v-44.153c0-37.492-30.502-67.994-67.994-67.994
	s-67.994,30.502-67.994,67.994v44.153c0,4.562-3.697,8.258-8.258,8.258s-8.258-3.696-8.258-8.258v-44.153
	c0-46.599,37.911-84.51,84.51-84.51s84.51,37.911,84.51,84.51v44.153C464.381,336.867,460.683,340.565,456.123,340.565z"/>
<path style="fill:#FFE000;" d="M379.871,296.522c-46.599,0-84.51-37.911-84.51-84.51v-44.153c0-4.562,3.697-8.258,8.258-8.258
	s8.258,3.696,8.258,8.258v44.153c0,37.492,30.502,67.994,67.994,67.994s67.994-30.502,67.994-67.994v-44.153
	c0-4.562,3.697-8.258,8.258-8.258c4.561,0,8.258,3.696,8.258,8.258v44.153C464.381,258.611,426.47,296.522,379.871,296.522z"/>
<path style="fill:#3DB4EA;" d="M324.817,217.412v58.565c0,69.824,55.054,85.786,55.054,85.786s55.054-15.961,55.054-85.786v-58.565
	L324.817,217.412L324.817,217.412z"/>
<path style="fill:#259245;" d="M379.871,361.763c0,0,32.437-9.404,47.515-45.353l-47.518-82.928l-47.507,82.936
	C347.44,352.361,379.871,361.763,379.871,361.763z"/>
<path style="fill:#FFE000;" d="M332.353,324.677c-1.392,0-2.803-0.351-4.097-1.093c-3.957-2.267-5.328-7.313-3.061-11.27
	l47.507-82.936c1.471-2.569,4.205-4.154,7.165-4.154c2.96,0,5.694,1.584,7.166,4.152l47.518,82.928
	c2.268,3.957,0.897,9.004-3.059,11.271c-3.957,2.265-9.004,0.896-11.271-3.06l-40.352-70.421l-40.343,70.43
	C338,323.187,335.216,324.677,332.353,324.677z"/>
<path style="fill:#B3B3B3;" d="M379.871,150.237c-12.324,0-22.314,9.991-22.314,22.315v44.86h44.63v-44.86
	C402.185,160.228,392.195,150.237,379.871,150.237z"/>
<path style="fill:#1A1C20;" d="M402.186,225.67h-44.63c-4.561,0-8.258-3.696-8.258-8.258v-44.86
	c0-16.859,13.715-30.574,30.574-30.574c16.857,0,30.574,13.715,30.574,30.574v44.86C410.445,221.973,406.747,225.67,402.186,225.67z
	 M365.814,209.154h28.114v-36.602c0-7.75-6.306-14.057-14.057-14.057s-14.057,6.307-14.057,14.057v36.602H365.814z"/>
<path style="fill:#259245;" d="M410.884,191.16h-62.027c-4.561,0-8.258-3.696-8.258-8.258c0-4.562,3.697-8.258,8.258-8.258h62.027
	c4.561,0,8.258,3.696,8.258,8.258C419.142,187.464,415.446,191.16,410.884,191.16z"/>
<g>
	<path style="fill:#1A1C20;" d="M434.925,209.154H324.817c-4.561,0-8.258,3.696-8.258,8.258v58.565
		c0,39.055,16.413,62.418,30.18,75.142c15.022,13.881,30.193,18.389,30.831,18.574c0.751,0.218,1.525,0.327,2.299,0.327
		s1.548-0.109,2.299-0.327c0.639-0.185,15.809-4.693,30.831-18.574c13.768-12.724,30.18-36.087,30.18-75.142v-58.565
		C443.183,212.85,439.485,209.154,434.925,209.154z M426.667,275.978c0,55.234-36.874,73.207-46.775,77.037
		c-9.676-3.816-46.817-22.059-46.817-77.037v-50.307h93.591V275.978z"/>
	<path style="fill:#1A1C20;" d="M468.324,82.581H43.675C19.593,82.581,0,102.174,0,126.257v259.486
		c0,24.083,19.593,43.676,43.675,43.676h424.648c24.084,0,43.676-19.594,43.676-43.676V126.257
		C512,102.174,492.407,82.581,468.324,82.581z M495.484,385.743c0,14.977-12.183,27.16-27.16,27.16H43.675
		c-14.976,0-27.159-12.183-27.159-27.16V126.257c0-14.977,12.183-27.16,27.159-27.16h424.648c14.977,0,27.16,12.183,27.16,27.16
		V385.743z"/>
</g>
<g>
</g>
<g>
</g>
<g>
</g>
<g>
</g>
<g>
</g>
<g>
</g>
<g>
</g>
<g>
</g>
<g>
</g>
<g>
</g>
<g>
</g>
<g>
</g>
<g>
</g>
<g>
</g>
<g>
</g>
</svg>
