<?xml version="1.0" encoding="iso-8859-1"?>
<!-- Generator: Adobe Illustrator 19.0.0, SVG Export Plug-In . SVG Version: 6.00 Build 0)  -->
<svg version="1.1" id="Layer_1" xmlns="http://www.w3.org/2000/svg" xmlns:xlink="http://www.w3.org/1999/xlink" x="0px" y="0px"
	 viewBox="0 0 512 512" style="enable-background:new 0 0 512 512;" xml:space="preserve">
<g>
	<rect x="8.258" y="289.032" style="fill:#FFFFFF;" width="495.484" height="66.065"/>
	<rect x="8.258" y="156.903" style="fill:#FFFFFF;" width="495.484" height="66.065"/>
</g>
<g>
	<path style="fill:#ED1F34;" d="M503.742,355.097v31.747c0,18.953-15.364,34.317-34.317,34.317H44.777
		c-20.169,0-36.519-16.35-36.519-36.519v-29.545H503.742z"/>
	<rect x="8.258" y="222.968" style="fill:#ED1F34;" width="495.484" height="66.065"/>
	<path style="fill:#ED1F34;" d="M503.742,125.156v31.747H8.258V123.32c0-17.939,14.543-32.482,32.482-32.482h428.685
		C488.378,90.839,503.742,106.203,503.742,125.156z"/>
</g>
<path style="fill:#164FCE;" d="M8.258,112.374v283.034c0,11.009,12.269,17.574,21.428,11.468L256,256L26.176,102.784
	C18.517,97.677,8.258,103.169,8.258,112.374z"/>
<polygon style="fill:#FFFFFF;" points="50.649,235.581 85.104,233.8 97.445,201.582 109.785,233.8 144.241,235.581 117.412,257.273 
	126.366,290.592 97.445,271.78 68.524,290.592 77.478,257.273 "/>
<g>
	<path style="fill:#121B21;" d="M121.864,297.515c1.372,0.892,2.938,1.336,4.502,1.336c1.707,0,3.41-0.527,4.855-1.578
		c2.768-2.011,4.009-5.521,3.122-8.824l-7.56-28.132l22.651-18.315c2.66-2.15,3.718-5.719,2.661-8.973
		c-1.057-3.254-4.011-5.52-7.428-5.696l-29.092-1.503l-10.418-27.202c-1.223-3.194-4.291-5.304-7.712-5.304
		c-3.421,0-6.489,2.11-7.712,5.304l-10.418,27.203l-29.092,1.503c-3.417,0.176-6.371,2.442-7.428,5.696s0.001,6.822,2.661,8.973
		l22.651,18.315l-7.56,28.132c-0.887,3.303,0.353,6.813,3.122,8.824c2.768,2.012,6.49,2.106,9.357,0.242l24.419-15.885
		L121.864,297.515z M82.095,271.913l3.358-12.497c0.848-3.153-0.243-6.511-2.782-8.564l-10.064-8.137l12.924-0.668
		c3.261-0.168,6.118-2.244,7.286-5.294l4.629-12.084l4.629,12.084c1.168,3.05,4.024,5.124,7.286,5.294l12.924,0.668l-10.064,8.137
		c-2.539,2.054-3.63,5.411-2.782,8.564l3.358,12.497l-10.848-7.056c-1.369-0.891-2.935-1.336-4.502-1.336s-3.134,0.445-4.502,1.336
		L82.095,271.913z"/>
	<path style="fill:#121B21;" d="M468.324,82.581H43.675c-10.581,0-20.295,3.785-27.862,10.069c-0.292,0.224-0.574,0.462-0.838,0.727
		C5.808,101.388,0,113.154,0,126.257v259.486c0,24.083,19.593,43.676,43.675,43.676h424.648c24.084,0,43.676-19.594,43.676-43.676
		V126.257C512,102.174,492.407,82.581,468.324,82.581z M21.994,402.08c-3.436-4.551-5.478-10.209-5.478-16.337V126.257
		c0-6.127,2.041-11.786,5.478-16.337l80.73,53.821c0.01,0.008,0.021,0.014,0.032,0.022l99.067,66.045
		c0.009,0.006,0.018,0.012,0.026,0.018l39.262,26.176l-39.262,26.175c-0.009,0.006-0.018,0.012-0.026,0.018l-99.067,66.045
		c-0.011,0.008-0.021,0.014-0.032,0.022L21.994,402.08z M260.58,249.129l-26.855-17.903h261.759v49.548H233.725l26.855-17.903
		c2.297-1.532,3.678-4.109,3.678-6.871S262.878,250.66,260.58,249.129z M208.951,297.29h286.533v49.548H134.628L208.951,297.29z
		 M468.324,99.097c14.977,0,27.16,12.183,27.16,27.16v22.388h-57.806c-4.561,0-8.258,3.696-8.258,8.258s3.697,8.258,8.258,8.258
		h57.806v49.548H208.951l-74.323-49.548h270.017c4.561,0,8.258-3.696,8.258-8.258s-3.697-8.258-8.258-8.258H109.854L36.841,99.969
		c2.185-0.568,4.475-0.872,6.834-0.872H468.324z M468.324,412.903H43.675c-2.36,0-4.65-0.304-6.835-0.872l73.014-48.676h385.63
		v22.388C495.484,400.72,483.3,412.903,468.324,412.903z"/>
</g>
<g>
</g>
<g>
</g>
<g>
</g>
<g>
</g>
<g>
</g>
<g>
</g>
<g>
</g>
<g>
</g>
<g>
</g>
<g>
</g>
<g>
</g>
<g>
</g>
<g>
</g>
<g>
</g>
<g>
</g>
</svg>
