<?xml version="1.0" encoding="iso-8859-1"?>
<!-- Generator: Adobe Illustrator 19.0.0, SVG Export Plug-In . SVG Version: 6.00 Build 0)  -->
<svg version="1.1" id="Layer_1" xmlns="http://www.w3.org/2000/svg" xmlns:xlink="http://www.w3.org/1999/xlink" x="0px" y="0px"
	 viewBox="0 0 512 512" style="enable-background:new 0 0 512 512;" xml:space="preserve">
<rect x="8.258" y="200.946" style="fill:#FFFFFF;" width="495.484" height="110.108"/>
<path style="fill:#259245;" d="M8.258,311.054h495.484v73.981c0,19.953-16.175,36.126-36.126,36.126H40.423
	c-17.764,0-32.165-14.401-32.165-32.165V311.054z"/>
<path style="fill:#333333;" d="M39.866,90.839h427.75c19.953,0,36.126,16.175,36.126,36.126v73.981H8.258v-78.501
	C8.258,104.99,22.409,90.839,39.866,90.839z"/>
<g>
	<path style="fill:#1A1C20;" d="M503.742,302.796H140.387c-4.561,0-8.258,3.697-8.258,8.258c0,4.561,3.697,8.258,8.258,8.258
		h363.355c4.561,0,8.258-3.697,8.258-8.258C512,306.493,508.303,302.796,503.742,302.796z"/>
	<path style="fill:#1A1C20;" d="M140.387,209.204h363.355c4.561,0,8.258-3.697,8.258-8.258s-3.697-8.258-8.258-8.258H140.387
		c-4.561,0-8.258,3.697-8.258,8.258S135.826,209.204,140.387,209.204z"/>
</g>
<path style="fill:#ED1F34;" d="M8.258,122.224v267.554c0,12.463,14.536,19.271,24.11,11.293l160.532-133.777
	c7.052-5.876,7.052-16.709,0-22.585L32.368,110.93C22.794,102.952,8.258,109.761,8.258,122.224z"/>
<path style="fill:#1A1C20;" d="M468.324,82.581H43.676c-11.32,0-21.647,4.331-29.414,11.42c-0.092,0.079-0.188,0.152-0.277,0.235
	c-0.89,0.826-1.731,1.695-2.543,2.585c-0.041,0.044-0.081,0.088-0.122,0.132c-0.392,0.434-0.774,0.875-1.147,1.325
	c-0.109,0.13-0.217,0.26-0.324,0.39c-0.307,0.378-0.608,0.76-0.901,1.146c-0.176,0.231-0.35,0.465-0.522,0.699
	c-0.22,0.303-0.438,0.607-0.651,0.914c-0.244,0.353-0.482,0.71-0.717,1.07c-0.133,0.206-0.268,0.411-0.396,0.619
	c-0.312,0.497-0.611,1.001-0.903,1.511c-0.048,0.085-0.099,0.17-0.146,0.254C2.045,111.206,0,118.494,0,126.256v259.487
	c0,7.758,2.042,15.045,5.604,21.366c0.053,0.094,0.108,0.186,0.162,0.281c0.287,0.501,0.581,0.996,0.889,1.485
	c0.134,0.215,0.272,0.426,0.41,0.639c0.23,0.353,0.464,0.704,0.704,1.05c0.217,0.314,0.438,0.624,0.664,0.933
	c0.167,0.228,0.336,0.456,0.508,0.68c0.298,0.393,0.602,0.781,0.915,1.163c0.102,0.126,0.206,0.249,0.309,0.373
	c0.378,0.454,0.763,0.9,1.159,1.338c0.036,0.04,0.074,0.079,0.11,0.12c0.815,0.894,1.658,1.766,2.551,2.594
	c0.088,0.081,0.182,0.152,0.272,0.229c7.767,7.092,18.096,11.425,29.42,11.425h424.648c24.083,0,43.675-19.593,43.675-43.676
	V126.256C512,102.173,492.407,82.581,468.324,82.581z M20.634,400.098c-1.436-2.296-2.541-4.818-3.242-7.504
	c-0.019-0.074-0.036-0.146-0.055-0.22c-0.15-0.597-0.275-1.202-0.385-1.813c-0.044-0.248-0.094-0.493-0.13-0.742
	c-0.036-0.241-0.063-0.484-0.092-0.727c-0.043-0.352-0.081-0.705-0.11-1.059c-0.017-0.197-0.033-0.394-0.045-0.592
	c-0.034-0.563-0.058-1.128-0.058-1.696V126.256c0-0.569,0.024-1.134,0.058-1.696c0.012-0.198,0.029-0.394,0.045-0.591
	c0.03-0.356,0.068-0.709,0.11-1.06c0.03-0.242,0.056-0.486,0.092-0.726c0.039-0.257,0.088-0.509,0.134-0.763
	c0.109-0.602,0.232-1.198,0.38-1.786c0.019-0.077,0.037-0.154,0.057-0.231c0.7-2.684,1.806-5.206,3.24-7.501L193.553,256
	L20.634,400.098z M495.484,385.743c0,14.977-12.183,27.16-27.16,27.16H43.676c-3.61,0-7.056-0.714-10.21-1.998l178.273-148.56
	c1.883-1.569,2.972-3.893,2.972-6.344s-1.089-4.775-2.972-6.344L33.466,101.095c3.153-1.285,6.6-1.998,10.21-1.998h424.648
	c14.976,0,27.159,12.183,27.159,27.159V385.743z"/>
<g>
</g>
<g>
</g>
<g>
</g>
<g>
</g>
<g>
</g>
<g>
</g>
<g>
</g>
<g>
</g>
<g>
</g>
<g>
</g>
<g>
</g>
<g>
</g>
<g>
</g>
<g>
</g>
<g>
</g>
</svg>
