<?xml version="1.0" encoding="iso-8859-1"?>
<!-- Generator: Adobe Illustrator 19.0.0, SVG Export Plug-In . SVG Version: 6.00 Build 0)  -->
<svg version="1.1" id="Layer_1" xmlns="http://www.w3.org/2000/svg" xmlns:xlink="http://www.w3.org/1999/xlink" x="0px" y="0px"
	 viewBox="0 0 512 512" style="enable-background:new 0 0 512 512;" xml:space="preserve">
<path style="fill:#259245;" d="M204.672,90.72v330.304H45.633c-20.608,0-37.376-16-37.376-35.776V126.56
	c0-19.776,16.704-35.776,37.376-35.776h159.04L204.672,90.72L204.672,90.72z"/>
<path style="fill:#ED1F34;" d="M503.681,126.496v258.816c0,19.776-16,35.776-35.776,35.776H196.48V90.656h271.488
	C487.681,90.72,503.681,106.784,503.681,126.496z"/>
<circle style="fill:#FFE000;" cx="196.477" cy="255.905" r="66.111"/>
<path style="fill:#121B21;" d="M468.288,82.528H43.712C19.584,82.528,0,102.112,0,126.24v259.52
	c0,24.128,19.584,43.712,43.712,43.712h424.576c24.128,0,43.712-19.584,43.712-43.712V126.24
	C512,102.112,492.416,82.528,468.288,82.528z M188.225,313.12c-28.032-4.032-49.472-28.096-49.472-57.216
	s21.632-53.184,49.472-57.216V313.12z M204.672,198.688c28.032,4.032,49.472,28.096,49.472,57.216s-21.632,53.184-49.472,57.216
	V198.688z M495.488,385.632c0,14.976-12.224,27.2-27.2,27.2H204.672v-24.832c0-4.608-3.712-8.32-8.32-8.32
	c-4.608,0-8.32,3.712-8.32,8.32v24.832H43.712c-14.976,0-27.2-12.224-27.2-27.2V126.24c0-14.976,12.224-27.2,27.2-27.2h144.513
	v83.072c-37.12,4.096-66.112,35.712-66.112,73.92s28.992,69.696,66.112,73.92v25.216c0,4.608,3.712,8.32,8.32,8.32
	c4.608,0,8.32-3.712,8.32-8.32v-25.216c37.12-4.096,66.112-35.712,66.112-73.92s-29.056-69.696-66.176-73.92V99.04h263.616
	c14.976,0,27.2,12.224,27.2,27.2v259.392H495.488z"/>
<g>
</g>
<g>
</g>
<g>
</g>
<g>
</g>
<g>
</g>
<g>
</g>
<g>
</g>
<g>
</g>
<g>
</g>
<g>
</g>
<g>
</g>
<g>
</g>
<g>
</g>
<g>
</g>
<g>
</g>
</svg>
