<?xml version="1.0" encoding="iso-8859-1"?>
<!-- Generator: Adobe Illustrator 19.0.0, SVG Export Plug-In . SVG Version: 6.00 Build 0)  -->
<svg version="1.1" id="Layer_1" xmlns="http://www.w3.org/2000/svg" xmlns:xlink="http://www.w3.org/1999/xlink" x="0px" y="0px"
	 viewBox="0 0 512 512" style="enable-background:new 0 0 512 512;" xml:space="preserve">
<path style="fill:#3DB4EA;" d="M36.386,90.839h439.227c15.535,0,28.128,12.594,28.128,28.128v274.065
	c0,15.535-12.594,28.128-28.128,28.128H36.386c-15.535,0.001-28.128-12.592-28.128-28.127V118.967
	C8.258,103.433,20.851,90.839,36.386,90.839z"/>
<circle style="fill:#FFE000;" cx="220.116" cy="256" r="82.581"/>
<g>
	<path style="fill:#111A21;" d="M203.604,345.186c-0.545,0-1.097-0.054-1.652-0.166c-42.114-8.55-72.68-45.988-72.68-89.019
		c0-50.089,40.75-90.839,90.839-90.839s90.839,40.75,90.839,90.839c0,43.032-30.566,80.469-72.68,89.019
		c-4.475,0.904-8.83-1.981-9.736-6.45c-0.907-4.47,1.981-8.828,6.45-9.736c34.447-6.993,59.449-37.623,59.449-72.833
		c0-40.982-33.341-74.323-74.323-74.323s-74.323,33.341-74.323,74.323c0,35.209,25.002,65.84,59.449,72.833
		c4.469,0.907,7.357,5.266,6.45,9.736C210.894,342.484,207.45,345.185,203.604,345.186z"/>
	<path style="fill:#111A21;" d="M468.324,429.419H43.675C19.593,429.419,0,409.827,0,385.743V126.256
		c0-24.083,19.593-43.675,43.675-43.675h424.648c24.084,0,43.676,19.593,43.676,43.675v259.487
		C512,409.827,492.407,429.419,468.324,429.419z M43.675,99.097c-14.976,0-27.159,12.183-27.159,27.159v259.487
		c0,14.977,12.183,27.16,27.159,27.16h424.648c14.977,0,27.16-12.183,27.16-27.16V126.256c0-14.976-12.183-27.159-27.16-27.159
		H43.675z"/>
</g>
<g>
</g>
<g>
</g>
<g>
</g>
<g>
</g>
<g>
</g>
<g>
</g>
<g>
</g>
<g>
</g>
<g>
</g>
<g>
</g>
<g>
</g>
<g>
</g>
<g>
</g>
<g>
</g>
<g>
</g>
</svg>
