<?xml version="1.0" encoding="iso-8859-1"?>
<!-- Generator: Adobe Illustrator 19.0.0, SVG Export Plug-In . SVG Version: 6.00 Build 0)  -->
<svg version="1.1" id="Layer_1" xmlns="http://www.w3.org/2000/svg" xmlns:xlink="http://www.w3.org/1999/xlink" x="0px" y="0px"
	 viewBox="0 0 512 512" style="enable-background:new 0 0 512 512;" xml:space="preserve">
<rect x="8.258" y="200.946" style="fill:#FFFFFF;" width="495.484" height="110.108"/>
<path style="fill:#ED1F34;" d="M503.742,200.946H8.258v-72.122c0-20.979,17.007-37.986,37.986-37.986h419.513
	c20.979,0,37.986,17.007,37.986,37.986v72.122H503.742z"/>
<path style="fill:#103B9B;" d="M468.214,421.161H43.786c-19.621,0-35.528-15.906-35.528-35.528v-74.579h495.484v74.579
	C503.742,405.255,487.836,421.161,468.214,421.161z"/>
<g>
	<path style="fill:#121B21;" d="M256,225.72c-16.696,0-30.28,13.584-30.28,30.28c0,16.696,13.584,30.28,30.28,30.28
		c16.696,0,30.28-13.584,30.28-30.28C286.28,239.304,272.696,225.72,256,225.72z M256,269.763c-7.59,0-13.763-6.174-13.763-13.763
		c0-7.59,6.174-13.763,13.763-13.763c7.59,0,13.763,6.174,13.763,13.763C269.763,263.59,263.59,269.763,256,269.763z"/>
	<path style="fill:#121B21;" d="M468.324,82.581H43.676C19.594,82.581,0,102.174,0,126.257v259.486
		c0,24.083,19.594,43.676,43.676,43.676h424.647c24.083,0,43.676-19.594,43.676-43.676V126.257
		C512,102.174,492.406,82.581,468.324,82.581z M16.516,126.257c0-14.977,12.183-27.16,27.16-27.16h424.647
		c14.977,0,27.16,12.183,27.16,27.16v66.431H16.516V126.257z M468.324,412.903H43.676c-14.977,0-27.16-12.183-27.16-27.16v-66.431
		h388.129c4.562,0,8.258-3.696,8.258-8.258s-3.696-8.258-8.258-8.258H16.516v-93.591h478.968v93.591h-57.806
		c-4.562,0-8.258,3.696-8.258,8.258s3.696,8.258,8.258,8.258h57.806v66.431C495.484,400.72,483.3,412.903,468.324,412.903z"/>
</g>
<g>
</g>
<g>
</g>
<g>
</g>
<g>
</g>
<g>
</g>
<g>
</g>
<g>
</g>
<g>
</g>
<g>
</g>
<g>
</g>
<g>
</g>
<g>
</g>
<g>
</g>
<g>
</g>
<g>
</g>
</svg>
