<?xml version="1.0" encoding="iso-8859-1"?>
<!-- Generator: Adobe Illustrator 19.0.0, SVG Export Plug-In . SVG Version: 6.00 Build 0)  -->
<svg version="1.1" id="Layer_1" xmlns="http://www.w3.org/2000/svg" xmlns:xlink="http://www.w3.org/1999/xlink" x="0px" y="0px"
	 viewBox="0 0 512 512" style="enable-background:new 0 0 512 512;" xml:space="preserve">
<path style="fill:#A10D50;" d="M468.324,90.838H133.781l79.277,27.538l-79.277,27.527l79.277,27.527l-79.277,27.527l79.277,27.527
	l-79.277,27.538l79.277,27.516l-79.277,27.527l79.277,27.527l-79.277,27.516l79.277,27.527l-79.277,27.527h334.543
	c19.561,0,35.418-15.858,35.418-35.418V126.255C503.742,106.694,487.884,90.838,468.324,90.838z"/>
<path style="fill:#FFFFFF;" d="M133.781,366.106l79.277-27.516l-79.277-27.527l79.277-27.527l-79.277-27.516l79.277-27.538
	l-79.277-27.527l79.277-27.527l-79.277-27.527l79.277-27.527l-79.277-27.538H43.676c-19.562,0-35.418,15.857-35.418,35.417v259.487
	c0,19.561,15.857,35.418,35.418,35.418h90.104l79.277-27.527L133.781,366.106z"/>
<path style="fill:#111A21;" d="M468.324,82.58H43.675C19.593,82.58,0,102.172,0,126.255v259.487
	c0,24.083,19.593,43.676,43.675,43.676h90.076c0.01,0,0.019,0.002,0.029,0.002c0.009,0,0.018-0.002,0.026-0.002h334.518
	c24.083,0,43.676-19.593,43.676-43.676V126.255C512,102.172,492.407,82.58,468.324,82.58z M16.516,385.742V126.255
	c0-14.976,12.183-27.159,27.159-27.159h88.711l55.5,19.274l-56.815,19.731c-3.322,1.154-5.549,4.284-5.549,7.801
	c0,3.517,2.226,6.647,5.549,7.801l56.812,19.728l-56.811,19.727c-3.322,1.153-5.549,4.284-5.549,7.801s2.226,6.647,5.549,7.801
	l56.811,19.728l-56.811,19.727c-3.323,1.154-5.549,4.284-5.549,7.801c0,3.517,2.227,6.648,5.549,7.801l56.808,19.724l-56.808,19.724
	c-3.322,1.153-5.549,4.284-5.549,7.801c0,3.517,2.227,6.648,5.549,7.802l56.807,19.719l-56.807,19.725
	c-3.322,1.153-5.549,4.284-5.549,7.801s2.227,6.648,5.549,7.801l56.808,19.724l-55.492,19.267H43.675
	C28.7,412.902,16.516,400.719,16.516,385.742z M495.484,385.742c0,14.976-12.183,27.16-27.16,27.16h-285.58l33.023-11.465
	c3.322-1.153,5.549-4.284,5.549-7.801c0-3.517-2.227-6.648-5.549-7.801l-56.809-19.724l56.809-19.725
	c3.322-1.153,5.549-4.284,5.549-7.801s-2.227-6.648-5.551-7.802l-56.806-19.719l56.806-19.722c3.322-1.153,5.549-4.284,5.549-7.801
	c0-3.517-2.227-6.648-5.549-7.801l-56.809-19.724l56.809-19.726c3.322-1.153,5.549-4.284,5.549-7.801
	c0-3.517-2.227-6.647-5.549-7.801l-56.811-19.728l56.811-19.727c3.322-1.153,5.549-4.284,5.549-7.801s-2.227-6.647-5.549-7.801
	l-56.814-19.729l56.814-19.731c3.322-1.154,5.549-4.284,5.549-7.801c0-3.517-2.227-6.647-5.549-7.801l-33.037-11.473h285.594
	c14.976,0,27.16,12.183,27.16,27.159v259.488H495.484z"/>
<g>
</g>
<g>
</g>
<g>
</g>
<g>
</g>
<g>
</g>
<g>
</g>
<g>
</g>
<g>
</g>
<g>
</g>
<g>
</g>
<g>
</g>
<g>
</g>
<g>
</g>
<g>
</g>
<g>
</g>
</svg>
