<?xml version="1.0" encoding="iso-8859-1"?>
<!-- Generator: Adobe Illustrator 19.0.0, SVG Export Plug-In . SVG Version: 6.00 Build 0)  -->
<svg version="1.1" id="Layer_1" xmlns="http://www.w3.org/2000/svg" xmlns:xlink="http://www.w3.org/1999/xlink" x="0px" y="0px"
	 viewBox="0 0 512 512" style="enable-background:new 0 0 512 512;" xml:space="preserve">
<rect x="173.419" y="90.839" style="fill:#FFE000;" width="165.161" height="330.323"/>
<path style="fill:#103B9B;" d="M43.676,90.839c-19.562,0-35.418,15.857-35.418,35.417v259.487c0,19.561,15.857,35.418,35.418,35.418
	h129.743V90.839H43.676z"/>
<path style="fill:#ED1F34;" d="M468.324,90.839H338.581v330.323h129.743c19.561,0,35.418-15.858,35.418-35.418V126.256
	C503.742,106.695,487.884,90.839,468.324,90.839z"/>
<path style="fill:#121B21;" d="M468.324,82.581H43.675C19.593,82.581,0,102.173,0,126.256v259.487
	c0,24.084,19.593,43.676,43.675,43.676h424.648c24.084,0,43.676-19.593,43.676-43.676V126.256
	C512,102.173,492.407,82.581,468.324,82.581z M16.516,385.743V126.256c0-14.976,12.183-27.159,27.159-27.159h121.486v222.968
	c0,4.561,3.697,8.258,8.258,8.258s8.258-3.697,8.258-8.258V99.097h148.645v313.806H181.677v-57.806c0-4.561-3.697-8.258-8.258-8.258
	s-8.258,3.697-8.258,8.258v57.806H43.675C28.7,412.903,16.516,400.72,16.516,385.743z M495.484,385.743
	c0,14.977-12.183,27.16-27.16,27.16H346.839V99.097h121.485c14.977,0,27.16,12.183,27.16,27.159V385.743z"/>
<g>
</g>
<g>
</g>
<g>
</g>
<g>
</g>
<g>
</g>
<g>
</g>
<g>
</g>
<g>
</g>
<g>
</g>
<g>
</g>
<g>
</g>
<g>
</g>
<g>
</g>
<g>
</g>
<g>
</g>
</svg>
