<?xml version="1.0" encoding="iso-8859-1"?>
<!-- Generator: Adobe Illustrator 19.0.0, SVG Export Plug-In . SVG Version: 6.00 Build 0)  -->
<svg version="1.1" id="Layer_1" xmlns="http://www.w3.org/2000/svg" xmlns:xlink="http://www.w3.org/1999/xlink" x="0px" y="0px"
	 viewBox="0 0 512 512" style="enable-background:new 0 0 512 512;" xml:space="preserve">
<rect x="8.258" y="200.946" style="fill:#103B9B;" width="495.484" height="110.108"/>
<path style="fill:#ED1F34;" d="M8.258,200.946h495.484v-74.873c0-19.459-15.775-35.234-35.234-35.234H43.492
	c-19.459,0-35.234,15.775-35.234,35.234V200.946z"/>
<path style="fill:#FFFFFF;" d="M43.492,421.161h425.015c19.459,0,35.234-15.775,35.234-35.234v-74.873H8.258v74.873
	C8.258,405.386,24.033,421.161,43.492,421.161z"/>
<path style="fill:#121B21;" d="M468.324,82.581H43.676C19.593,82.581,0,102.173,0,126.256v259.487
	c0,24.084,19.593,43.676,43.676,43.676h424.648c24.082,0,43.675-19.593,43.675-43.676V126.256
	C512,102.173,492.406,82.581,468.324,82.581z M43.676,99.097h424.648c14.976,0,27.159,12.183,27.159,27.159v66.432h-57.806
	c-4.562,0-8.258,3.697-8.258,8.258s3.696,8.258,8.258,8.258h57.806v93.591H16.516v-93.591h388.129c4.562,0,8.258-3.697,8.258-8.258
	s-3.696-8.258-8.258-8.258H16.516v-66.432C16.516,111.28,28.7,99.097,43.676,99.097z M468.324,412.903H43.676
	c-14.977,0-27.16-12.183-27.16-27.16v-66.431h478.968v66.431C495.484,400.72,483.3,412.903,468.324,412.903z"/>
<g>
	<path style="fill:#FFE000;" d="M129.134,174.266c-1.339,0-2.697-0.326-3.954-1.014c-4.001-2.188-5.472-7.205-3.285-11.208
		c11.414-20.875,33.266-33.845,57.029-33.845s45.614,12.968,57.029,33.845c2.188,4.002,0.718,9.02-3.283,11.208
		c-4.002,2.189-9.02,0.717-11.208-3.283c-8.516-15.576-24.816-25.252-42.537-25.252s-34.021,9.676-42.537,25.252
		C134.887,172.711,132.056,174.266,129.134,174.266z"/>
	<path style="fill:#FFE000;" d="M178.921,169.594C178.92,169.594,178.92,169.594,178.921,169.594
		c-4.562-0.001-8.259-3.697-8.258-8.259l0.003-36.262c0.001-4.561,3.697-8.257,8.258-8.257h0.001
		c4.561,0.001,8.257,3.699,8.257,8.259l-0.003,36.262C187.178,165.898,183.481,169.594,178.921,169.594z"/>
</g>
<path style="fill:#ED1F34;" d="M101.298,200.946v108.351c0,42.873,34.754,77.627,77.627,77.627s77.627-34.755,77.627-77.627V200.946
	H101.298z"/>
<g>
	<path style="fill:#FFFFFF;" d="M148.762,255.204c-7.97,0-14.431,6.461-14.431,14.431v47.128l28.861-15.724v-31.404
		C163.193,261.665,156.731,255.204,148.762,255.204z"/>
	<path style="fill:#FFFFFF;" d="M209.088,255.204c7.97,0,14.431,6.461,14.431,14.431v47.128l-28.861-15.724v-31.404
		C194.657,261.665,201.118,255.204,209.088,255.204z"/>
</g>
<polygon style="fill:#FFE000;" points="207.679,178.705 178.921,161.336 150.167,178.705 121.411,161.336 132.422,200.946 
	225.428,200.946 236.438,161.336 "/>
<path style="fill:#ED1F34;" d="M163.193,269.635v31.404c0,0,5.327,8.453,15.732,8.453c10.405,0,15.732-8.453,15.732-8.453v-31.404
	H163.193z"/>
<g>
	<path style="fill:#121B21;" d="M256.552,192.688h-20.258l8.101-29.14c0.906-3.26-0.269-6.744-2.963-8.789
		c-2.693-2.046-6.364-2.241-9.262-0.491l-24.489,14.79l-24.489-14.79c-2.626-1.586-5.914-1.584-8.539,0l-24.485,14.79l-24.486-14.79
		c-2.896-1.75-6.567-1.555-9.262,0.491s-3.87,5.528-2.963,8.789l8.098,29.14h-20.259c-4.561,0-8.258,3.697-8.258,8.258v108.351
		c0,47.357,38.528,85.885,85.886,85.885s85.885-38.528,85.885-85.885V200.946C264.81,196.386,261.113,192.688,256.552,192.688z
		 M134.935,179.152l10.962,6.622c2.625,1.586,5.914,1.586,8.539,0l24.485-14.79l24.489,14.79c2.626,1.586,5.913,1.586,8.539,0
		l10.966-6.623l-3.762,13.538h-80.453L134.935,179.152z M248.294,309.298c0,38.25-31.119,69.369-69.369,69.369
		s-69.37-31.119-69.37-69.369V209.204h22.867h93.006h22.867v100.093H248.294z"/>
	<path style="fill:#121B21;" d="M209.088,246.946c-6.108,0-11.648,2.437-15.731,6.375l3.864-11.083h3.209
		c4.561,0,8.258-3.697,8.258-8.258c0-4.561-3.697-8.258-8.258-8.258h-9.075c-3.512,0-6.642,2.223-7.798,5.54l-4.631,13.286
		l-4.631-13.286c-1.156-3.318-4.285-5.54-7.798-5.54h-9.075c-4.561,0-8.258,3.697-8.258,8.258c0,4.561,3.697,8.258,8.258,8.258
		h3.209l3.864,11.083c-4.083-3.939-9.623-6.375-15.731-6.375c-12.51,0-22.689,10.178-22.689,22.689v47.128
		c0,2.915,1.536,5.612,4.041,7.1c1.298,0.771,2.757,1.158,4.217,1.158c1.358,0,2.719-0.335,3.951-1.006l23.26-12.672
		c2.427,2.006,5.493,3.882,9.125,5.08v37.471c0,4.561,3.697,8.258,8.258,8.258c4.561,0,8.258-3.697,8.258-8.258v-37.471
		c3.631-1.198,6.698-3.074,9.125-5.08l23.26,12.672c1.233,0.672,2.592,1.006,3.951,1.006c1.46,0,2.919-0.386,4.217-1.158
		c2.505-1.489,4.041-4.186,4.041-7.1v-47.128C231.776,257.124,221.598,246.946,209.088,246.946z M171.451,298.067v-20.173h14.948
		v20.173c-1.428,1.373-3.965,3.168-7.474,3.168C175.416,301.234,172.879,299.44,171.451,298.067z M142.589,269.635
		c0-3.403,2.769-6.173,6.173-6.173s6.173,2.769,6.173,6.173v26.5l-12.345,6.725V269.635z M215.26,302.861l-12.345-6.725v-26.5
		c0-3.403,2.769-6.173,6.173-6.173s6.173,2.769,6.173,6.173V302.861z"/>
</g>
<g>
</g>
<g>
</g>
<g>
</g>
<g>
</g>
<g>
</g>
<g>
</g>
<g>
</g>
<g>
</g>
<g>
</g>
<g>
</g>
<g>
</g>
<g>
</g>
<g>
</g>
<g>
</g>
<g>
</g>
</svg>
