<?xml version="1.0" encoding="iso-8859-1"?>
<!-- Generator: Adobe Illustrator 19.0.0, SVG Export Plug-In . SVG Version: 6.00 Build 0)  -->
<svg version="1.1" id="Layer_1" xmlns="http://www.w3.org/2000/svg" xmlns:xlink="http://www.w3.org/1999/xlink" x="0px" y="0px"
	 viewBox="0 0 512 512" style="enable-background:new 0 0 512 512;" xml:space="preserve">
<rect x="8.258" y="200.946" style="fill:#103B9B;" width="495.484" height="110.108"/>
<path style="fill:#FFFFFF;" d="M468.324,90.839H43.676c-19.562,0-35.418,15.857-35.418,35.417v74.69h495.484v-74.69
	C503.742,106.695,487.885,90.839,468.324,90.839z"/>
<path style="fill:#ED1F34;" d="M8.258,385.743c0,19.561,15.857,35.418,35.418,35.418h424.648c19.561,0,35.418-15.858,35.418-35.418
	v-74.689H8.258V385.743z"/>
<path style="fill:#121B21;" d="M468.324,82.581H43.676C19.594,82.581,0,102.173,0,126.256v259.487
	c0,24.084,19.594,43.676,43.676,43.676h424.647c24.083,0,43.676-19.593,43.676-43.676V126.256
	C512,102.173,492.406,82.581,468.324,82.581z M43.676,99.097h424.647c14.977,0,27.16,12.183,27.16,27.159v66.432H16.516v-66.432
	C16.516,111.28,28.7,99.097,43.676,99.097z M468.324,412.903H43.676c-14.977,0-27.16-12.183-27.16-27.16v-66.431h388.129
	c4.562,0,8.258-3.697,8.258-8.258c0-4.561-3.696-8.258-8.258-8.258H16.516v-93.591h478.968v93.591h-57.806
	c-4.562,0-8.258,3.697-8.258,8.258c0,4.561,3.696,8.258,8.258,8.258h57.806v66.431C495.484,400.72,483.3,412.903,468.324,412.903z"
	/>
<g>
</g>
<g>
</g>
<g>
</g>
<g>
</g>
<g>
</g>
<g>
</g>
<g>
</g>
<g>
</g>
<g>
</g>
<g>
</g>
<g>
</g>
<g>
</g>
<g>
</g>
<g>
</g>
<g>
</g>
</svg>
