<?xml version="1.0" encoding="iso-8859-1"?>
<!-- Generator: Adobe Illustrator 19.0.0, SVG Export Plug-In . SVG Version: 6.00 Build 0)  -->
<svg version="1.1" id="Layer_1" xmlns="http://www.w3.org/2000/svg" xmlns:xlink="http://www.w3.org/1999/xlink" x="0px" y="0px"
	 viewBox="0 0 512 512" style="enable-background:new 0 0 512 512;" xml:space="preserve">
<rect x="8.258" y="256" style="fill:#FFE000;" width="495.484" height="82.581"/>
<path style="fill:#134923;" d="M8.258,385.743c0,19.562,15.857,35.418,35.418,35.418h424.648c19.561,0,35.418-15.857,35.418-35.418
	v-47.162H8.258V385.743z"/>
<path style="fill:#3DB4EA;" d="M468.324,90.839H43.676c-19.562,0-35.418,15.857-35.418,35.418V256h495.484V126.257
	C503.742,106.695,487.885,90.839,468.324,90.839z"/>
<path style="fill:#FFE610;" d="M461.901,165.161h-23.005l16.266-16.266c3.225-3.226,3.225-8.454,0-11.679
	c-3.226-3.224-8.454-3.224-11.679,0l-16.266,16.266v-23.005c0-4.562-3.696-8.258-8.258-8.258c-4.562,0-8.258,3.696-8.258,8.258
	v23.005l-16.266-16.266c-3.226-3.224-8.454-3.224-11.679,0c-3.225,3.226-3.225,8.454,0,11.679l16.266,16.266h-23.005
	c-4.562,0-8.258,3.696-8.258,8.258c0,4.562,3.696,8.258,8.258,8.258h23.005l-16.266,16.266c-3.225,3.226-3.225,8.454,0,11.679
	c1.613,1.612,3.727,2.418,5.84,2.418s4.227-0.806,5.84-2.418l16.265-16.266v23.005c0,4.562,3.696,8.258,8.258,8.258
	c4.562,0,8.258-3.696,8.258-8.258v-23.005l16.266,16.266c1.613,1.612,3.727,2.418,5.84,2.418c2.113,0,4.227-0.806,5.84-2.418
	c3.225-3.226,3.225-8.454,0-11.679l-16.267-16.266h23.005c4.562,0,8.258-3.696,8.258-8.258
	C470.159,168.858,466.463,165.161,461.901,165.161z"/>
<path style="fill:#111A21;" d="M468.324,82.581H43.676C19.594,82.581,0,102.174,0,126.257v259.486
	c0,24.083,19.594,43.676,43.676,43.676h424.647c24.083,0,43.676-19.594,43.676-43.676V126.257
	C512,102.174,492.406,82.581,468.324,82.581z M43.676,99.097h424.647c14.977,0,27.16,12.183,27.16,27.16v121.485H74.323
	c-4.562,0-8.258,3.696-8.258,8.258c0,4.562,3.696,8.258,8.258,8.258h421.161v66.065H16.516v-66.065H41.29
	c4.562,0,8.258-3.696,8.258-8.258c0-4.562-3.696-8.258-8.258-8.258H16.516V126.257C16.516,111.28,28.7,99.097,43.676,99.097z
	 M468.324,412.903H43.676c-14.977,0-27.16-12.183-27.16-27.16v-38.904h478.968v38.904C495.484,400.72,483.3,412.903,468.324,412.903
	z"/>
<g>
</g>
<g>
</g>
<g>
</g>
<g>
</g>
<g>
</g>
<g>
</g>
<g>
</g>
<g>
</g>
<g>
</g>
<g>
</g>
<g>
</g>
<g>
</g>
<g>
</g>
<g>
</g>
<g>
</g>
</svg>
