<?xml version="1.0" encoding="iso-8859-1"?>
<!-- Generator: Adobe Illustrator 19.0.0, SVG Export Plug-In . SVG Version: 6.00 Build 0)  -->
<svg version="1.1" id="Layer_1" xmlns="http://www.w3.org/2000/svg" xmlns:xlink="http://www.w3.org/1999/xlink" x="0px" y="0px"
	 viewBox="0 0 511.999 511.999" style="enable-background:new 0 0 511.999 511.999;" xml:space="preserve">
<path style="fill:#164FCE;" d="M468.229,90.742H43.706c-19.582,0-35.387,15.87-35.387,35.388v259.487
	c0,4.927,1.024,9.471,2.816,13.694L473.349,91.125C471.621,90.934,469.957,90.742,468.229,90.742z"/>
<path style="fill:#259245;" d="M43.706,421.068h424.523c19.582,0,35.387-15.87,35.387-35.387V126.194
	c0-4.927-1.024-9.471-2.816-13.694l-29.436,5.44l-67.191,44.602l-13.375,23.229L38.587,420.684
	C40.315,420.876,41.979,421.068,43.706,421.068z"/>
<path style="fill:#FFE000;" d="M11.006,399.375c4.671,11.199,15.102,19.517,27.58,21.309l462.342-308.249
	c-4.671-11.199-15.102-19.517-27.58-21.309L11.006,399.375z"/>
<g>
	<circle style="fill:#FFFFFF;" cx="70.969" cy="152.434" r="16.51"/>
	<circle style="fill:#FFFFFF;" cx="109.616" cy="188.708" r="16.51"/>
	<circle style="fill:#FFFFFF;" cx="148.074" cy="152.434" r="16.51"/>
	<circle style="fill:#FFFFFF;" cx="70.969" cy="225.121" r="16.51"/>
	<circle style="fill:#FFFFFF;" cx="148.074" cy="225.121" r="16.51"/>
</g>
<path style="fill:#111A21;" d="M46.01,82.551c-0.512,0-1.024,0-1.472,0c-0.192,0-0.512,0-0.704,0h-0.128
	C19.582,82.551,0,102.133,0,126.257v259.487c0,3.775,0.512,7.487,1.408,11.006c1.28,5.887,2.432,8.191,5.631,12.799
	c6.079,9.407,15.678,16.318,26.876,18.813c1.791,0.512,4.992,0.832,5.823,0.896c1.28,0.128,2.623,0.192,4.032,0.192h424.523
	c24.125,0,43.706-19.582,43.706-43.706V126.256c0-3.775-0.512-7.487-1.408-11.006c-1.6-6.272-3.392-9.471-5.631-12.799
	c-6.079-9.407-15.614-16.19-26.813-18.814c-3.392-0.832-6.911-1.088-10.43-1.088L46.01,82.551L46.01,82.551z M16.51,385.617V126.257
	l0,0c0-14.974,12.223-27.197,27.197-27.197h402.957L16.51,385.809C16.51,385.681,16.51,385.681,16.51,385.617z M495.426,385.617
	c0,14.974-12.223,27.197-27.197,27.197H65.272l369.681-246.497c3.775-2.495,4.799-7.679,2.304-11.519
	c-2.495-3.84-7.679-4.799-11.519-2.304L36.795,411.918c-6.016-1.6-11.199-5.12-14.783-9.983L475.139,99.957
	c6.016,1.6,11.199,5.12,14.783,9.982l-36.667,24.381c-3.775,2.495-4.799,7.679-2.304,11.519c1.6,2.432,4.223,3.712,6.911,3.712
	c1.6,0,3.199-0.384,4.607-1.408l33.02-22.014v0.128v259.359L495.426,385.617L495.426,385.617z"/>
<g>
</g>
<g>
</g>
<g>
</g>
<g>
</g>
<g>
</g>
<g>
</g>
<g>
</g>
<g>
</g>
<g>
</g>
<g>
</g>
<g>
</g>
<g>
</g>
<g>
</g>
<g>
</g>
<g>
</g>
</svg>
