<?xml version="1.0" encoding="iso-8859-1"?>
<!-- Generator: Adobe Illustrator 19.0.0, SVG Export Plug-In . SVG Version: 6.00 Build 0)  -->
<svg version="1.1" id="Layer_1" xmlns="http://www.w3.org/2000/svg" xmlns:xlink="http://www.w3.org/1999/xlink" x="0px" y="0px"
	 viewBox="0 0 512 512" style="enable-background:new 0 0 512 512;" xml:space="preserve">
<path style="fill:#259245;" d="M43.676,421.161h424.648c19.561,0,35.418-15.857,35.418-35.418v-74.689L27.006,416.996
	C31.974,419.652,37.648,421.161,43.676,421.161z"/>
<path style="fill:#FFFFFF;" d="M27.006,416.996l476.736-105.942V200.946L23.096,414.55C24.341,415.44,25.648,416.27,27.006,416.996z
	"/>
<path style="fill:#ED1F34;" d="M468.324,90.839H337.843L18.62,410.775c1.383,1.385,2.88,2.634,4.476,3.775l480.646-213.603v-74.689
	C503.742,106.695,487.885,90.839,468.324,90.839z"/>
<path style="fill:#FFE000;" d="M174.157,90.839L15.361,407.019c1,1.327,2.088,2.583,3.259,3.756L337.843,90.839H174.157z"/>
<path style="fill:#103B9B;" d="M43.676,90.839c-19.562,0-35.418,15.857-35.418,35.418v259.486c0,7.986,2.645,15.351,7.103,21.276
	l158.796-316.18H43.676z"/>
<path style="fill:#111A21;" d="M512,310.916V200.82c0-0.013,0-0.024,0-0.037v-74.525c0-24.083-19.594-43.676-43.676-43.676H337.859
	c-0.015,0-0.03,0-0.045,0H43.676C19.594,82.581,0,102.174,0,126.257v259.486c0,9.628,3.138,18.532,8.435,25.761
	c0.23,0.356,0.486,0.695,0.771,1.014c0.95,1.22,1.963,2.389,3.036,3.503c0.171,0.207,0.351,0.408,0.545,0.602
	c0.176,0.175,0.36,0.337,0.546,0.492c1.615,1.562,3.349,3,5.188,4.301c0.053,0.034,0.1,0.075,0.154,0.11
	c1.362,0.954,2.774,1.841,4.242,2.638c0.104,0.059,0.211,0.108,0.317,0.162c6.104,3.246,13.06,5.094,20.441,5.094h424.647
	c24.083,0,43.676-19.594,43.676-43.676v-74.806V310.916z M495.484,304.429L86.927,395.22l408.557-181.567V304.429z M495.484,126.257
	v69.323L45.448,395.581L341.273,99.097h127.051C483.3,99.097,495.484,111.28,495.484,126.257z M16.516,126.257
	c0-14.977,12.183-27.16,27.16-27.16h117.089l-13.443,26.768c-2.047,4.076-0.402,9.04,3.673,11.086
	c1.189,0.598,2.454,0.881,3.7,0.881c3.024,0,5.937-1.668,7.386-4.554l17.166-34.181H317.94L38.691,378.968l108.567-216.172
	c2.047-4.076,0.402-9.039-3.673-11.086c-4.073-2.047-9.039-0.402-11.086,3.673L16.53,386.291c-0.004-0.183-0.014-0.364-0.014-0.548
	V126.257z M468.324,412.903H83.489l411.995-91.554v64.394C495.484,400.72,483.3,412.903,468.324,412.903z"/>
<g>
</g>
<g>
</g>
<g>
</g>
<g>
</g>
<g>
</g>
<g>
</g>
<g>
</g>
<g>
</g>
<g>
</g>
<g>
</g>
<g>
</g>
<g>
</g>
<g>
</g>
<g>
</g>
<g>
</g>
</svg>
