<?xml version="1.0" encoding="iso-8859-1"?>
<!-- Generator: Adobe Illustrator 19.0.0, SVG Export Plug-In . SVG Version: 6.00 Build 0)  -->
<svg version="1.1" id="Layer_1" xmlns="http://www.w3.org/2000/svg" xmlns:xlink="http://www.w3.org/1999/xlink" x="0px" y="0px"
	 viewBox="0 0 512 512" style="enable-background:new 0 0 512 512;" xml:space="preserve">
<polygon style="fill:#FFFFFF;" points="206.452,256 140.387,311.054 503.742,311.054 503.742,200.946 140.387,200.946 "/>
<path style="fill:#333333;" d="M19.599,411.711c6.319,5.862,14.778,9.451,24.076,9.451h424.648
	c19.561,0,35.418-15.857,35.418-35.418v-74.689H140.387L19.599,411.711z"/>
<path style="fill:#ED1F34;" d="M468.324,90.839H43.676c-9.3,0-17.757,3.59-24.076,9.452l120.787,100.656h363.355v-74.69
	C503.742,106.695,487.884,90.839,468.324,90.839z"/>
<path style="fill:#259245;" d="M206.452,256l-66.065-55.054L19.599,100.29c-6.973,6.468-11.341,15.706-11.341,25.967v74.689v110.108
	v74.689c0,10.261,4.368,19.498,11.341,25.967l120.788-100.656L206.452,256z"/>
<path style="fill:#111A21;" d="M468.324,82.581H43.675C19.593,82.581,0,102.174,0,126.257v259.486
	c0,12.447,5.242,23.685,13.625,31.649c0.192,0.202,0.391,0.392,0.598,0.57c7.772,7.111,18.114,11.457,29.453,11.457h424.648
	c24.084,0,43.676-19.594,43.676-43.676V126.257C512,102.174,492.407,82.581,468.324,82.581z M20.634,400.098
	c-2.606-4.169-4.118-9.087-4.118-14.355V126.257c0-5.268,1.512-10.187,4.118-14.355l114.494,95.411
	c0.003,0.002,0.007,0.006,0.01,0.008L193.551,256l-58.415,48.68c-0.002,0.001-0.003,0.003-0.005,0.004L20.634,400.098z
	 M211.738,262.344c1.883-1.569,2.972-3.893,2.972-6.344s-1.089-4.775-2.972-6.344l-48.542-40.451h332.288v93.591H163.196
	L211.738,262.344z M468.324,99.097c14.977,0,27.16,12.183,27.16,27.16v66.431H143.377l-109.91-91.593
	c3.153-1.285,6.599-1.998,10.209-1.998H468.324z M468.324,412.903H43.675c-3.61,0-7.056-0.714-10.21-1.998l109.912-91.593h352.107
	v66.431C495.484,400.72,483.3,412.903,468.324,412.903z"/>
<g>
</g>
<g>
</g>
<g>
</g>
<g>
</g>
<g>
</g>
<g>
</g>
<g>
</g>
<g>
</g>
<g>
</g>
<g>
</g>
<g>
</g>
<g>
</g>
<g>
</g>
<g>
</g>
<g>
</g>
</svg>
