<?xml version="1.0" encoding="iso-8859-1"?>
<!-- Generator: Adobe Illustrator 19.0.0, SVG Export Plug-In . SVG Version: 6.00 Build 0)  -->
<svg version="1.1" id="Layer_1" xmlns="http://www.w3.org/2000/svg" xmlns:xlink="http://www.w3.org/1999/xlink" x="0px" y="0px"
	 viewBox="0 0 512 512" style="enable-background:new 0 0 512 512;" xml:space="preserve">
<path style="fill:#ED1F34;" d="M468.288,90.72H43.712c-19.584,0-35.392,15.872-35.392,35.393v138.112h495.488V126.176
	C503.681,106.592,487.872,90.72,468.288,90.72z"/>
<g>
	<path style="fill:#FFFFFF;" d="M8.32,385.632c0,19.584,15.872,35.393,35.392,35.393h424.576c19.584,0,35.392-15.872,35.392-35.393
		V255.904H8.32V385.632z"/>
	<path style="fill:#FFFFFF;" d="M160.384,163.232c-4.928,0-8.832-4.032-8.832-8.832c0-4.8,4.032-8.832,8.832-8.832
		c4.928,0,8.832,4.032,8.832,8.832C169.216,159.328,165.312,163.232,160.384,163.232z"/>
	<path style="fill:#FFFFFF;" d="M140.48,177.697c-0.896,0-1.792-0.128-2.688-0.384c-4.608-1.472-7.104-6.528-5.696-11.072
		c1.216-3.712,4.608-6.08,8.384-6.08c0.896,0,1.792,0.128,2.688,0.384c4.608,1.472,7.168,6.528,5.697,11.072
		C147.713,175.2,144.32,177.697,140.48,177.697z"/>
	<path style="fill:#FFFFFF;" d="M148.096,201.12c-1.92,0-3.712-0.576-5.184-1.728c-1.92-1.408-3.2-3.392-3.52-5.824
		c-0.384-2.304,0.192-4.672,1.6-6.592c1.6-2.304,4.288-3.584,7.104-3.584c1.92,0,3.712,0.576,5.184,1.728
		c1.92,1.408,3.072,3.392,3.52,5.697c0.384,2.304-0.192,4.672-1.6,6.592C153.6,199.712,150.912,201.12,148.096,201.12z"/>
	<path style="fill:#FFFFFF;" d="M172.672,201.12c-2.816,0-5.504-1.408-7.104-3.584c-1.408-1.92-1.92-4.224-1.6-6.528
		c0.384-2.304,1.6-4.416,3.52-5.824c1.472-1.088,3.328-1.728,5.184-1.728c2.816,0,5.504,1.408,7.104,3.584
		c2.88,3.904,1.984,9.472-1.92,12.288C176.384,200.481,174.592,201.12,172.672,201.12z"/>
	<path style="fill:#FFFFFF;" d="M180.288,177.697c-3.776,0-7.232-2.496-8.384-6.08c-0.704-2.176-0.512-4.608,0.512-6.72
		c1.088-2.112,2.88-3.712,5.12-4.416c0.896-0.32,1.792-0.384,2.688-0.384c3.776,0,7.168,2.432,8.384,6.08
		c1.472,4.608-1.024,9.6-5.632,11.072C182.208,177.504,181.184,177.697,180.288,177.697z"/>
	<path style="fill:#FFFFFF;" d="M138.112,130.08c-23.872,0-43.328,19.393-43.328,43.327s19.393,43.327,43.328,43.327
		c0.704,0,1.408,0,2.112-0.128c-7.168,4.032-15.424,6.272-24.192,6.272c-27.392,0-49.472-22.208-49.472-49.472
		s22.208-49.472,49.472-49.472c8.832,0,17.088,2.304,24.192,6.272C139.52,130.08,138.816,130.08,138.112,130.08z"/>
</g>
<g>
	<path style="fill:#111A21;" d="M138.112,138.337c0.576,0,1.216,0,1.728,0c0.128,0,0.32,0,0.384,0c4.48,0,8.192-3.712,8.192-8.32
		c0-3.328-1.92-6.08-4.608-7.424c-8.512-4.672-18.112-7.232-27.904-7.232c-31.872,0-57.792,25.92-57.792,57.792
		s25.92,57.792,57.792,57.792c9.92,0,19.712-2.624,28.288-7.424c3.328-1.92,4.928-5.824,3.904-9.472
		c-1.088-3.712-4.48-6.208-8.32-6.016c-0.576,0-1.216,0-1.728,0c-19.328,0-35.008-15.68-35.008-35.008
		C103.104,154.016,118.784,138.337,138.112,138.337z M86.592,173.28c0,16.128,7.424,30.528,19.008,40
		c-17.792-4.608-30.912-20.8-30.912-40s13.184-35.393,30.912-40C94.016,142.816,86.592,157.217,86.592,173.28z"/>
	<path style="fill:#111A21;" d="M468.288,82.528H43.712C19.584,82.528,0,102.112,0,126.24v259.52
		c0,24.128,19.584,43.712,43.712,43.712h424.576c24.128,0,43.712-19.584,43.712-43.712V126.24
		C512,102.112,492.416,82.528,468.288,82.528z M468.288,412.832H43.712c-14.976,0-27.2-12.224-27.2-27.2V264.223h421.184
		c4.608,0,8.32-3.712,8.32-8.32c0-4.608-3.712-8.32-8.32-8.32H16.512V126.175c0-14.976,12.224-27.2,27.2-27.2h424.576
		c14.976,0,27.2,12.224,27.2,27.2v121.473h-24.832c-4.608,0-8.32,3.712-8.32,8.32c0,4.608,3.712,8.32,8.32,8.32h24.832v121.536
		C495.488,400.609,483.328,412.832,468.288,412.832z"/>
</g>
<g>
</g>
<g>
</g>
<g>
</g>
<g>
</g>
<g>
</g>
<g>
</g>
<g>
</g>
<g>
</g>
<g>
</g>
<g>
</g>
<g>
</g>
<g>
</g>
<g>
</g>
<g>
</g>
<g>
</g>
</svg>
