<?xml version="1.0" encoding="iso-8859-1"?>
<!-- Generator: Adobe Illustrator 19.0.0, SVG Export Plug-In . SVG Version: 6.00 Build 0)  -->
<svg version="1.1" id="Layer_1" xmlns="http://www.w3.org/2000/svg" xmlns:xlink="http://www.w3.org/1999/xlink" x="0px" y="0px"
	 viewBox="0 0 512 512" style="enable-background:new 0 0 512 512;" xml:space="preserve">
<rect x="8.258" y="200.946" style="fill:#164FCE;" width="495.484" height="110.108"/>
<path style="fill:#ED1F34;" d="M8.258,385.743c0,19.561,15.857,35.418,35.418,35.418h424.648c19.561,0,35.418-15.858,35.418-35.418
	v-74.689H8.258V385.743z"/>
<path style="fill:#FFFFFF;" d="M468.324,90.839H43.676c-19.562,0-35.418,15.857-35.418,35.418v74.689h495.484v-74.689
	C503.742,106.695,487.885,90.839,468.324,90.839z"/>
<path style="fill:#121B21;" d="M468.324,82.581H43.676C19.594,82.581,0,102.173,0,126.256v259.487
	c0,24.084,19.594,43.676,43.676,43.676h424.647c24.083,0,43.676-19.593,43.676-43.676V126.256
	C512,102.173,492.406,82.581,468.324,82.581z M43.676,99.097h424.647c14.977,0,27.16,12.183,27.16,27.159v66.432H16.516v-66.432
	C16.516,111.28,28.7,99.097,43.676,99.097z M468.324,412.903H43.676c-14.977,0-27.16-12.183-27.16-27.16v-66.431h388.129
	c4.562,0,8.258-3.697,8.258-8.258c0-4.561-3.696-8.258-8.258-8.258H16.516v-93.591h478.968v93.591h-57.806
	c-4.562,0-8.258,3.697-8.258,8.258c0,4.561,3.696,8.258,8.258,8.258h57.806v66.431C495.484,400.72,483.3,412.903,468.324,412.903z"
	/>
<path style="fill:#ED1F34;" d="M104.097,162.409v109.16c0,43.091,36.175,68.095,68.378,78.023
	c32.203-9.928,68.378-34.933,68.378-78.023v-109.16H104.097z"/>
<g>
	<path style="fill:#FFFFFF;" d="M172.476,284.324c-4.562,0-8.258-3.697-8.258-8.258V192.1c0-4.561,3.696-8.258,8.258-8.258
		c4.562,0,8.258,3.697,8.258,8.258v83.966C180.734,280.627,177.036,284.324,172.476,284.324z"/>
	<path style="fill:#FFFFFF;" d="M197.466,251.185h-49.981c-4.562,0-8.258-3.697-8.258-8.258s3.696-8.258,8.258-8.258h49.981
		c4.562,0,8.258,3.697,8.258,8.258S202.026,251.185,197.466,251.185z"/>
	<path style="fill:#FFFFFF;" d="M187.859,220.152h-30.767c-4.562,0-8.258-3.697-8.258-8.258s3.696-8.258,8.258-8.258h30.767
		c4.562,0,8.258,3.697,8.258,8.258S192.421,220.152,187.859,220.152z"/>
</g>
<path style="fill:#164FCE;" d="M172.476,276.066c-17.118,0-32.136,8.955-40.653,22.428c-4.53-1.742-9.446-2.706-14.59-2.706
	c-2.942,0-5.803,0.338-8.566,0.934c10.71,27.922,38.483,45.061,63.808,52.87c25.327-7.809,53.098-24.948,63.808-52.871
	c-2.764-0.595-5.624-0.933-8.566-0.933c-5.144,0-10.059,0.965-14.59,2.706C204.611,285.021,189.593,276.066,172.476,276.066z"/>
<path style="fill:#121B21;" d="M172.476,357.849c-0.82,0-1.641-0.122-2.433-0.367c-19.351-5.966-36.976-16.118-49.628-28.585
	c-16.078-15.842-24.575-35.667-24.575-57.33v-109.16c0-4.561,3.696-8.258,8.258-8.258h136.756c4.562,0,8.258,3.697,8.258,8.258
	v109.16c0,21.663-8.498,41.487-24.574,57.33c-12.651,12.467-30.276,22.618-49.628,28.585
	C174.116,357.727,173.296,357.849,172.476,357.849z M112.355,170.667v100.901c0,44.827,43.223,63.697,60.121,69.349
	c16.897-5.652,60.12-24.522,60.12-69.349V170.667H112.355z"/>
<g>
</g>
<g>
</g>
<g>
</g>
<g>
</g>
<g>
</g>
<g>
</g>
<g>
</g>
<g>
</g>
<g>
</g>
<g>
</g>
<g>
</g>
<g>
</g>
<g>
</g>
<g>
</g>
<g>
</g>
</svg>
