<?xml version="1.0" encoding="iso-8859-1"?>
<!-- Generator: Adobe Illustrator 19.0.0, SVG Export Plug-In . SVG Version: 6.00 Build 0)  -->
<svg version="1.1" id="Layer_1" xmlns="http://www.w3.org/2000/svg" xmlns:xlink="http://www.w3.org/1999/xlink" x="0px" y="0px"
	 viewBox="0 0 512 512" style="enable-background:new 0 0 512 512;" xml:space="preserve">
<path style="fill:#FFFFFF;" d="M468.324,90.839H43.676c-19.561,0-35.418,15.857-35.418,35.417V256h495.484V126.256
	C503.742,106.695,487.885,90.839,468.324,90.839z"/>
<path style="fill:#3DB4EA;" d="M8.258,385.743c0,19.561,15.858,35.418,35.418,35.418h424.648c19.561,0,35.418-15.857,35.418-35.418
	V256H8.258V385.743z"/>
<path style="fill:#121B21;" d="M468.324,82.581H43.676C19.594,82.581,0,102.173,0,126.256v259.487
	c0,24.084,19.594,43.676,43.676,43.676h424.647c24.083,0,43.676-19.593,43.676-43.676V126.256
	C512,102.173,492.406,82.581,468.324,82.581z M43.676,99.097h424.647c14.977,0,27.16,12.183,27.16,27.159v121.486H16.516V126.256
	C16.516,111.28,28.7,99.097,43.676,99.097z M468.324,412.903H43.676c-14.977,0-27.16-12.183-27.16-27.16V264.258h478.968v121.485
	C495.484,400.72,483.3,412.903,468.324,412.903z"/>
<path style="fill:#259245;" d="M256,334.085c-51.405,0-93.225-41.82-93.225-93.225c0-10.414,1.708-20.643,5.074-30.405
	c1.488-4.311,6.187-6.602,10.499-5.115c4.312,1.488,6.601,6.188,5.114,10.5c-2.768,8.025-4.171,16.443-4.171,25.02
	c0,42.297,34.412,76.709,76.709,76.709s76.709-34.411,76.709-76.709c0-8.577-1.403-16.996-4.171-25.021
	c-1.488-4.312,0.802-9.012,5.114-10.5c4.313-1.486,9.012,0.804,10.499,5.115c3.367,9.762,5.074,19.992,5.074,30.406
	C349.225,292.264,307.404,334.085,256,334.085z"/>
<path style="fill:#FFE000;" d="M214.956,213.149c-4.606,10.194-7.274,22.22-7.274,35.11c0,52.243,48.317,77.567,48.317,77.567
	s48.317-25.325,48.317-77.567c0-12.89-2.668-24.916-7.274-35.11L214.956,213.149L214.956,213.149z"/>
<path style="fill:#259245;" d="M256,272.425c-14.714,0-28.672,3.231-41.211,9.011C228.219,311.257,256,325.827,256,325.827
	s27.781-14.568,41.211-44.391C284.672,275.654,270.714,272.425,256,272.425z"/>
<path style="fill:#121B21;" d="M324.633,329.497H305.46c1.069-2.154,1.163-4.709,0.166-6.983c-1.315-3.005-4.285-4.946-7.564-4.946
	h-17.091c14.685-13.7,31.604-36.584,31.604-69.309c0-13.6-2.768-26.918-8.006-38.51c-1.337-2.958-4.281-4.858-7.526-4.858h-32.786
	v-30.645c0-4.561-3.696-8.258-8.258-8.258c-4.562,0-8.258,3.697-8.258,8.258v30.646h-32.786c-3.245,0-6.189,1.9-7.526,4.858
	c-5.238,11.592-8.006,24.909-8.006,38.51c0,32.725,16.918,55.609,31.604,69.309h-17.091c-3.28,0-6.25,1.941-7.564,4.946
	c-0.995,2.274-0.902,4.829,0.166,6.983h-19.173c-4.562,0-8.258,3.697-8.258,8.258c0,4.561,3.696,8.258,8.258,8.258h37.582
	c3.28,0,6.25-1.941,7.564-4.946c0.995-2.274,0.902-4.829-0.166-6.983h47.308c-1.069,2.154-1.163,4.709-0.166,6.983
	c1.315,3.004,4.285,4.946,7.564,4.946h37.582c4.562,0,8.258-3.697,8.258-8.258C332.892,333.195,329.195,329.497,324.633,329.497z
	 M215.941,248.259c0-9.393,1.57-18.573,4.568-26.852h70.981c2.999,8.279,4.568,17.459,4.568,26.852
	c0,38.707-29.247,61.034-40.033,67.952C245.352,309.279,215.941,286.685,215.941,248.259z"/>
<g>
</g>
<g>
</g>
<g>
</g>
<g>
</g>
<g>
</g>
<g>
</g>
<g>
</g>
<g>
</g>
<g>
</g>
<g>
</g>
<g>
</g>
<g>
</g>
<g>
</g>
<g>
</g>
<g>
</g>
</svg>
