<?xml version="1.0" encoding="iso-8859-1"?>
<!-- Generator: Adobe Illustrator 19.0.0, SVG Export Plug-In . SVG Version: 6.00 Build 0)  -->
<svg version="1.1" id="Layer_1" xmlns="http://www.w3.org/2000/svg" xmlns:xlink="http://www.w3.org/1999/xlink" x="0px" y="0px"
	 viewBox="0 0 512 512" style="enable-background:new 0 0 512 512;" xml:space="preserve">
<path style="fill:#3DB4EA;" d="M503.742,389.781V122.219c0-17.331-14.05-31.381-31.381-31.381H39.639
	c-17.331,0-31.381,14.05-31.381,31.381v267.561c0,17.331,14.05,31.381,31.381,31.381h432.723
	C489.692,421.161,503.742,407.112,503.742,389.781z"/>
<polygon style="fill:#FFFFFF;" points="169.169,236.505 233.102,233.202 256,173.419 278.898,233.202 342.831,236.505 
	293.049,276.756 309.664,338.581 256,303.674 202.336,338.581 218.951,276.756 "/>
<g>
	<path style="fill:#111A21;" d="M343.257,228.258l-58.568-3.026l-20.977-54.766c-1.223-3.194-4.291-5.304-7.712-5.304
		c-3.421,0-6.489,2.11-7.712,5.304l-20.977,54.766l-58.568,3.026c-3.416,0.176-6.371,2.442-7.428,5.696s0.001,6.822,2.662,8.974
		l45.603,36.873l-15.22,56.638c-0.887,3.303,0.353,6.813,3.122,8.824c2.767,2.012,6.489,2.11,9.357,0.242L256,313.528l49.161,31.977
		c1.372,0.893,2.938,1.336,4.502,1.336c1.707,0,3.41-0.527,4.855-1.578c2.768-2.011,4.009-5.521,3.122-8.824l-15.22-56.638
		l45.604-36.873c2.661-2.15,3.719-5.719,2.662-8.974C349.628,230.701,346.674,228.435,343.257,228.258z M287.857,270.335
		c-2.54,2.054-3.63,5.411-2.784,8.564l11.02,41.003l-35.591-23.15c-1.369-0.891-2.935-1.336-4.502-1.336
		c-1.567,0-3.134,0.445-4.502,1.336l-35.591,23.15l11.02-41.003c0.848-3.153-0.243-6.511-2.784-8.564l-33.015-26.694l42.401-2.19
		c3.261-0.168,6.118-2.244,7.286-5.294l15.186-39.649l15.186,39.649c1.168,3.05,4.024,5.124,7.286,5.294l42.401,2.19
		L287.857,270.335z"/>
	<path style="fill:#111A21;" d="M468.324,82.581H43.676C19.593,82.581,0,102.174,0,126.257v259.486
		c0,24.083,19.593,43.676,43.676,43.676h424.648c24.083,0,43.675-19.594,43.675-43.676V126.257
		C512,102.174,492.407,82.581,468.324,82.581z M495.484,385.743c0,14.977-12.183,27.16-27.16,27.16H43.676
		c-14.977,0-27.16-12.183-27.16-27.16V126.257c0-14.977,12.183-27.16,27.16-27.16h424.648c14.976,0,27.159,12.183,27.159,27.16
		V385.743z"/>
</g>
<g>
</g>
<g>
</g>
<g>
</g>
<g>
</g>
<g>
</g>
<g>
</g>
<g>
</g>
<g>
</g>
<g>
</g>
<g>
</g>
<g>
</g>
<g>
</g>
<g>
</g>
<g>
</g>
<g>
</g>
</svg>
