<?xml version="1.0" encoding="iso-8859-1"?>
<!-- Generator: Adobe Illustrator 19.0.0, SVG Export Plug-In . SVG Version: 6.00 Build 0)  -->
<svg version="1.1" id="Layer_1" xmlns="http://www.w3.org/2000/svg" xmlns:xlink="http://www.w3.org/1999/xlink" x="0px" y="0px"
	 viewBox="0 0 512 512" style="enable-background:new 0 0 512 512;" xml:space="preserve">
<g>
	<path style="fill:#259245;" d="M468.324,90.839H43.676c-19.561,0-35.418,15.857-35.418,35.417v24.041h495.484v-24.041
		C503.742,106.695,487.884,90.839,468.324,90.839z"/>
	<path style="fill:#259245;" d="M8.258,385.743c0,19.561,15.858,35.418,35.418,35.418h424.648c19.561,0,35.418-15.857,35.418-35.418
		v-24.04H8.258V385.743z"/>
</g>
<rect x="8.258" y="324.267" style="fill:#FFFFFF;" width="495.484" height="37.437"/>
<rect x="8.258" y="187.733" style="fill:#ED1F34;" width="495.484" height="136.533"/>
<polygon style="fill:#FFE000;" points="218.952,247.682 246.23,246.273 256,220.766 265.77,246.273 293.048,247.682 
	271.808,264.856 278.897,291.234 256,276.341 233.103,291.234 240.192,264.856 "/>
<rect x="8.258" y="150.297" style="fill:#FFFFFF;" width="495.484" height="37.437"/>
<g>
	<path style="fill:#121B21;" d="M300.902,245.131c-1.057-3.254-4.011-5.52-7.428-5.696l-21.914-1.132l-7.848-20.491
		c-1.223-3.194-4.291-5.304-7.712-5.304s-6.489,2.11-7.712,5.304l-7.848,20.491l-21.914,1.132c-3.417,0.176-6.371,2.442-7.428,5.696
		c-1.057,3.254,0.001,6.822,2.661,8.973l17.063,13.795l-5.695,21.191c-0.887,3.303,0.353,6.813,3.122,8.824
		c2.767,2.012,6.489,2.11,9.356,0.242L256,286.193l18.395,11.964c1.372,0.893,2.938,1.336,4.502,1.336
		c1.707,0,3.41-0.527,4.855-1.578c2.768-2.011,4.009-5.521,3.122-8.824l-5.695-21.191l17.063-13.795
		C300.901,251.954,301.959,248.385,300.902,245.131z M266.615,258.434c-2.54,2.054-3.63,5.411-2.784,8.564l1.493,5.557l-4.823-3.138
		c-1.369-0.891-2.935-1.336-4.502-1.336s-3.134,0.445-4.502,1.336l-4.823,3.138l1.493-5.557c0.848-3.154-0.243-6.511-2.784-8.564
		l-4.474-3.617l5.745-0.297c3.261-0.168,6.118-2.244,7.286-5.294l2.058-5.373l2.058,5.373c1.168,3.05,4.024,5.124,7.286,5.294
		l5.745,0.297L266.615,258.434z"/>
	<path style="fill:#121B21;" d="M468.324,82.581H43.676C19.593,82.581,0,102.174,0,126.257v259.486
		c0,24.083,19.593,43.676,43.676,43.676h424.648c24.083,0,43.675-19.594,43.675-43.676V126.257
		C512,102.174,492.407,82.581,468.324,82.581z M16.516,195.991h478.968v120.017H16.516V195.991z M43.676,99.097h424.648
		c14.976,0,27.159,12.183,27.159,27.16v15.782h-57.806c-4.561,0-8.258,3.696-8.258,8.258c0,4.562,3.697,8.258,8.258,8.258h57.806
		v20.92H16.516v-20.92h388.129c4.561,0,8.258-3.696,8.258-8.258c0-4.562-3.697-8.258-8.258-8.258H16.516v-15.782
		C16.516,111.28,28.7,99.097,43.676,99.097z M468.324,412.903H43.676c-14.977,0-27.16-12.183-27.16-27.16v-53.218h478.968v53.218
		C495.484,400.72,483.3,412.903,468.324,412.903z"/>
</g>
<g>
</g>
<g>
</g>
<g>
</g>
<g>
</g>
<g>
</g>
<g>
</g>
<g>
</g>
<g>
</g>
<g>
</g>
<g>
</g>
<g>
</g>
<g>
</g>
<g>
</g>
<g>
</g>
<g>
</g>
</svg>
