<?xml version="1.0" encoding="iso-8859-1"?>
<!-- Generator: Adobe Illustrator 19.0.0, SVG Export Plug-In . SVG Version: 6.00 Build 0)  -->
<svg version="1.1" id="Layer_1" xmlns="http://www.w3.org/2000/svg" xmlns:xlink="http://www.w3.org/1999/xlink" x="0px" y="0px"
	 viewBox="0 0 512 512" style="enable-background:new 0 0 512 512;" xml:space="preserve">
<polygon style="fill:#ED1F34;" points="206.452,256 140.387,311.054 503.742,311.054 503.742,200.946 140.387,200.946 "/>
<path style="fill:#259245;" d="M19.599,411.711c6.319,5.862,14.776,9.451,24.076,9.451h424.648
	c19.561,0,35.418-15.857,35.418-35.418v-74.689H140.387L19.599,411.711z"/>
<path style="fill:#333333;" d="M468.324,90.839H43.676c-9.3,0-17.757,3.59-24.076,9.452l120.787,100.656h363.355v-74.69
	C503.742,106.695,487.885,90.839,468.324,90.839z"/>
<g>
	<rect x="8.258" y="200.946" style="fill:#FFFFFF;" width="495.484" height="27.52"/>
	<rect x="8.258" y="283.538" style="fill:#FFFFFF;" width="495.484" height="27.52"/>
</g>
<path style="fill:#164FCE;" d="M206.452,256l-66.065-55.054L19.599,100.29c-6.973,6.468-11.341,15.706-11.341,25.967v74.689v110.108
	v74.689c0,10.261,4.368,19.498,11.341,25.967l120.788-100.656L206.452,256z"/>
<polygon style="fill:#FFE000;" points="71.918,291.234 70.577,265.292 46.318,256 70.577,246.708 71.918,220.766 88.25,240.966 
	113.338,234.224 99.174,256 113.338,277.776 88.25,271.034 "/>
<g>
	<path style="fill:#111A21;" d="M120.018,229.369c-2.012-2.768-5.521-4.007-8.824-3.122l-19.9,5.348l-12.956-16.024
		c-2.15-2.66-5.719-3.719-8.974-2.661c-3.254,1.057-5.519,4.011-5.695,7.428l-1.063,20.578l-19.242,7.369
		c-3.194,1.223-5.304,4.29-5.304,7.712s2.11,6.489,5.304,7.712l19.242,7.37l1.063,20.578c0.177,3.418,2.442,6.371,5.695,7.428
		c0.839,0.273,1.699,0.404,2.551,0.404c2.45,0,4.826-1.091,6.423-3.065L91.295,280.4l19.9,5.348
		c3.301,0.886,6.813-0.352,8.824-3.122c2.012-2.768,2.107-6.488,0.242-9.356L109.025,256l11.235-17.275
		C122.126,235.858,122.03,232.138,120.018,229.369z M92.251,260.502l2.409,3.703l-4.266-1.146c-3.153-0.846-6.511,0.244-8.564,2.782
		l-2.777,3.434l-0.228-4.411c-0.168-3.262-2.243-6.119-5.293-7.286l-4.125-1.58l4.125-1.58c3.05-1.168,5.124-4.023,5.293-7.286
		l0.228-4.411l2.777,3.434c2.052,2.539,5.413,3.629,8.564,2.782l4.266-1.146l-2.409,3.703
		C90.47,254.236,90.47,257.764,92.251,260.502z"/>
	<path style="fill:#111A21;" d="M468.324,82.581H43.676c-11.308,0-21.626,4.321-29.391,11.397c-0.243,0.206-0.475,0.428-0.697,0.665
		C5.227,102.605,0,113.828,0,126.257v259.486c0,12.447,5.242,23.685,13.625,31.649c0.192,0.202,0.391,0.392,0.598,0.57
		c7.772,7.111,18.114,11.457,29.454,11.457h424.648c24.082,0,43.675-19.594,43.675-43.676V126.257
		C512,102.174,492.406,82.581,468.324,82.581z M16.516,385.743V126.257c0-5.268,1.513-10.187,4.118-14.355l114.496,95.414
		c0.002,0.001,0.003,0.003,0.005,0.004L193.551,256l-58.415,48.68c-0.002,0.001-0.003,0.003-0.005,0.004L20.634,400.098
		C18.029,395.93,16.516,391.011,16.516,385.743z M495.484,385.743c0,14.977-12.183,27.16-27.16,27.16H43.676
		c-3.61,0-7.056-0.714-10.21-1.998l109.91-91.593h352.107V385.743z M495.484,302.796H163.196l48.542-40.451
		c1.883-1.569,2.972-3.893,2.972-6.344s-1.089-4.775-2.972-6.344l-48.542-40.451h332.288V302.796z M495.484,192.688H143.377
		L33.465,101.095c3.155-1.285,6.6-1.998,10.211-1.998h424.648c14.976,0,27.159,12.183,27.159,27.16V192.688z"/>
</g>
<g>
</g>
<g>
</g>
<g>
</g>
<g>
</g>
<g>
</g>
<g>
</g>
<g>
</g>
<g>
</g>
<g>
</g>
<g>
</g>
<g>
</g>
<g>
</g>
<g>
</g>
<g>
</g>
<g>
</g>
</svg>
