<?xml version="1.0" encoding="iso-8859-1"?>
<!-- Generator: Adobe Illustrator 19.0.0, SVG Export Plug-In . SVG Version: 6.00 Build 0)  -->
<svg version="1.1" id="Layer_1" xmlns="http://www.w3.org/2000/svg" xmlns:xlink="http://www.w3.org/1999/xlink" x="0px" y="0px"
	 viewBox="0 0 512 512" style="enable-background:new 0 0 512 512;" xml:space="preserve">
<rect x="8.258" y="200.946" style="fill:#FFE000;" width="495.484" height="110.108"/>
<g>
	<polygon style="fill:#333333;" points="237.285,248.202 262.859,246.881 272.017,222.968 281.177,246.881 306.75,248.202 
		286.838,264.302 293.483,289.032 272.017,275.07 250.552,289.032 257.198,264.302 	"/>
	<polygon style="fill:#333333;" points="361.707,248.202 387.28,246.881 396.439,222.968 405.599,246.881 431.171,248.202 
		411.259,264.302 417.904,289.032 396.439,275.07 374.973,289.032 381.62,264.302 	"/>
</g>
<g>
	<path style="fill:#259245;" d="M43.676,421.161h424.648c19.561,0,35.418-15.857,35.418-35.418v-74.689H118.367l-99.734,99.733
		C25.041,417.196,33.896,421.161,43.676,421.161z"/>
	<path style="fill:#259245;" d="M468.324,90.839H43.676c-9.78,0-18.635,3.965-25.044,10.374l99.733,99.733h385.376v-74.689
		C503.742,106.695,487.885,90.839,468.324,90.839z"/>
</g>
<path style="fill:#ED1F34;" d="M8.258,126.257v74.689v110.108v74.689c0,9.781,3.964,18.636,10.373,25.044l99.734-99.733L173.419,256
	l-55.054-55.054l-99.734-99.733C12.222,107.621,8.258,116.476,8.258,126.257z"/>
<g>
	<path style="fill:#111A21;" d="M307.176,239.955l-20.209-1.044l-7.237-18.897c-1.223-3.194-4.29-5.304-7.712-5.304
		c-3.421,0-6.489,2.11-7.712,5.304l-7.237,18.897l-20.209,1.044c-3.418,0.176-6.371,2.442-7.428,5.696
		c-1.057,3.254,0.001,6.822,2.661,8.973l15.737,12.723l-5.253,19.543c-0.889,3.303,0.353,6.813,3.122,8.824
		c2.768,2.011,6.489,2.107,9.357,0.242l16.962-11.034l16.962,11.034c1.372,0.893,2.939,1.336,4.503,1.336
		c1.707,0,3.41-0.527,4.854-1.578c2.768-2.011,4.01-5.52,3.122-8.824l-5.252-19.543l15.735-12.723
		c2.66-2.15,3.718-5.719,2.661-8.973C313.547,242.396,310.592,240.131,307.176,239.955z M281.645,257.881
		c-2.54,2.053-3.63,5.411-2.782,8.564l1.05,3.91l-3.392-2.208c-1.369-0.891-2.937-1.336-4.503-1.336
		c-1.567,0-3.135,0.445-4.503,1.336l-3.391,2.207l1.05-3.909c0.848-3.154-0.243-6.511-2.782-8.564l-3.147-2.543l4.041-0.209
		c3.262-0.168,6.119-2.244,7.286-5.294l1.447-3.779l1.447,3.779c1.168,3.05,4.023,5.124,7.286,5.294l4.041,0.209L281.645,257.881z"
		/>
	<path style="fill:#111A21;" d="M431.597,239.955l-20.209-1.044l-7.237-18.897c-1.223-3.194-4.291-5.304-7.712-5.304
		c-3.421,0-6.489,2.11-7.712,5.304l-7.237,18.897l-20.208,1.044c-3.418,0.176-6.371,2.442-7.428,5.696
		c-1.057,3.254,0.001,6.822,2.661,8.973l15.737,12.723l-5.253,19.543c-0.889,3.303,0.353,6.813,3.122,8.824
		c2.768,2.011,6.489,2.107,9.357,0.242l16.962-11.034l16.962,11.034c1.372,0.893,2.939,1.336,4.503,1.336
		c1.707,0,3.41-0.527,4.854-1.578c2.768-2.011,4.01-5.52,3.122-8.824l-5.252-19.543l15.735-12.723
		c2.66-2.15,3.718-5.719,2.661-8.973C437.968,242.396,435.014,240.131,431.597,239.955z M406.067,257.881
		c-2.54,2.053-3.63,5.411-2.782,8.564l1.05,3.91l-3.392-2.208c-1.369-0.891-2.937-1.336-4.503-1.336s-3.135,0.445-4.503,1.336
		l-3.391,2.207l1.05-3.909c0.848-3.154-0.243-6.511-2.782-8.564l-3.147-2.543l4.041-0.209c3.262-0.168,6.119-2.244,7.286-5.294
		l1.448-3.779l1.447,3.779c1.168,3.05,4.023,5.124,7.286,5.294l4.041,0.209L406.067,257.881z"/>
	<path style="fill:#111A21;" d="M468.324,82.581H43.676c-11.766,0-22.453,4.686-30.315,12.278c-0.195,0.162-0.386,0.331-0.569,0.514
		c-0.184,0.184-0.355,0.377-0.518,0.574C4.684,103.807,0,114.492,0,126.257v259.486c0,11.765,4.684,22.45,12.275,30.31
		c0.163,0.197,0.334,0.39,0.518,0.574c0.183,0.183,0.374,0.351,0.569,0.514c7.862,7.592,18.549,12.278,30.315,12.278h424.647
		c24.083,0,43.676-19.594,43.676-43.676V126.257C512,102.174,492.406,82.581,468.324,82.581z M468.324,99.097
		c14.977,0,27.16,12.183,27.16,27.16v66.431H121.787l-90.558-90.559c3.732-1.933,7.962-3.032,12.448-3.032H468.324z
		 M112.528,305.213c-0.001,0.001-0.002,0.002-0.004,0.003l-92.975,92.975c-1.933-3.733-3.032-7.963-3.032-12.449V126.257
		c0-4.485,1.099-8.716,3.032-12.449l92.975,92.976c0.001,0.001,0.003,0.002,0.004,0.003L161.74,256L112.528,305.213z
		 M468.324,412.903H43.676c-4.486,0-8.716-1.099-12.448-3.032l90.558-90.559h315.891c4.562,0,8.258-3.696,8.258-8.258
		s-3.696-8.258-8.258-8.258H138.303l40.956-40.956c3.225-3.226,3.225-8.454,0-11.679l-40.956-40.957h357.181v93.591H470.71
		c-4.562,0-8.258,3.696-8.258,8.258s3.696,8.258,8.258,8.258h24.774v66.431C495.484,400.72,483.3,412.903,468.324,412.903z"/>
</g>
<g>
</g>
<g>
</g>
<g>
</g>
<g>
</g>
<g>
</g>
<g>
</g>
<g>
</g>
<g>
</g>
<g>
</g>
<g>
</g>
<g>
</g>
<g>
</g>
<g>
</g>
<g>
</g>
<g>
</g>
</svg>
