<?xml version="1.0" encoding="iso-8859-1"?>
<!-- Generator: Adobe Illustrator 19.0.0, SVG Export Plug-In . SVG Version: 6.00 Build 0)  -->
<svg version="1.1" id="Layer_1" xmlns="http://www.w3.org/2000/svg" xmlns:xlink="http://www.w3.org/1999/xlink" x="0px" y="0px"
	 viewBox="0 0 512 512" style="enable-background:new 0 0 512 512;" xml:space="preserve">
<rect x="8.32" y="192.604" style="fill:#FFFFFF;" width="495.493" height="118.399"/>
<g>
	<path style="fill:#103B9B;" d="M8.32,385.632c0,19.584,15.872,35.393,35.392,35.393h424.576c19.584,0,35.392-15.872,35.392-35.393
		v-74.688H8.32V385.632z"/>
	<path style="fill:#103B9B;" d="M468.288,90.72H43.712c-19.584,0-35.392,15.872-35.392,35.393V200.8h495.488v-74.688
		C503.681,106.592,487.872,90.72,468.288,90.72z"/>
</g>
<path style="fill:#259245;" d="M256,296.416c-22.4,0-40.512-18.176-40.512-40.512c0-11.52,4.928-22.528,13.504-30.207
	c3.072-2.816,7.808-2.496,10.624,0.576s2.496,7.808-0.576,10.624c-5.376,4.8-8.512,11.776-8.512,19.008
	c0,14.08,11.52,25.472,25.472,25.472c14.08,0,25.472-11.52,25.472-25.472c0-7.232-3.072-14.208-8.512-19.008
	c-3.072-2.816-3.328-7.488-0.576-10.624c2.752-3.136,7.488-3.328,10.624-0.576c8.576,7.68,13.504,18.688,13.504,30.207
	C296.513,278.304,278.4,296.416,256,296.416z"/>
<polygon style="fill:#FFE000;" points="227.392,272.417 256,222.88 284.608,272.417 "/>
<g>
	<path style="fill:#121B21;" d="M227.392,280.736h57.216l0,0c4.608,0,8.32-3.712,8.32-8.32c0-1.728-0.512-3.328-1.408-4.608
		l-28.288-49.088c-1.472-2.624-4.224-4.096-7.232-4.096s-5.696,1.6-7.232,4.096l-28.608,49.472c-1.472,2.624-1.472,5.696,0,8.32
		C221.632,279.136,224.384,280.736,227.392,280.736z M256,239.392l14.272,24.832h-28.609L256,239.392z"/>
	<path style="fill:#121B21;" d="M468.288,82.528H43.712C19.584,82.528,0,102.112,0,126.24v259.52
		c0,24.128,19.584,43.712,43.712,43.712h424.576c24.128,0,43.712-19.584,43.712-43.712V126.24
		C512,102.112,492.416,82.528,468.288,82.528z M43.712,98.977h424.576c14.976,0,27.2,12.224,27.2,27.2v66.432H74.304
		c-4.608,0-8.32,3.712-8.32,8.32c0,4.608,3.712,8.32,8.32,8.32h421.184v93.632H16.512v-93.696h24.832c4.608,0,8.32-3.712,8.32-8.32
		c0-4.608-3.712-8.32-8.32-8.32H16.512v-66.432C16.512,111.2,28.672,98.977,43.712,98.977z M468.288,412.832H43.712
		c-14.976,0-27.2-12.224-27.2-27.2v-66.432h478.976v66.432C495.488,400.609,483.328,412.832,468.288,412.832z"/>
</g>
<g>
</g>
<g>
</g>
<g>
</g>
<g>
</g>
<g>
</g>
<g>
</g>
<g>
</g>
<g>
</g>
<g>
</g>
<g>
</g>
<g>
</g>
<g>
</g>
<g>
</g>
<g>
</g>
<g>
</g>
</svg>
