<?xml version="1.0" encoding="iso-8859-1"?>
<!-- Generator: Adobe Illustrator 19.0.0, SVG Export Plug-In . SVG Version: 6.00 Build 0)  -->
<svg version="1.1" id="Layer_1" xmlns="http://www.w3.org/2000/svg" xmlns:xlink="http://www.w3.org/1999/xlink" x="0px" y="0px"
	 viewBox="0 0 512 512" style="enable-background:new 0 0 512 512;" xml:space="preserve">
<path style="fill:#ED1F34;" d="M8.258,256h495.484V122.954c0-17.736-14.378-32.115-32.115-32.115H40.373
	c-17.737,0-32.115,14.378-32.115,32.115V256z"/>
<path style="fill:#103B9B;" d="M40.74,421.161h430.52c17.939,0,32.482-14.543,32.482-32.482V256H8.258v132.68
	C8.258,406.618,22.801,421.161,40.74,421.161z"/>
<path style="fill:#FFFFFF;" d="M8.258,394.878V117.122c0-11.235,12.521-17.937,21.87-11.704L256,256L30.128,406.582
	C20.779,412.814,8.258,406.112,8.258,394.878z"/>
<polygon style="fill:#3DB4EA;" points="79.363,209.598 79.363,264.236 96.111,274.994 112.858,264.236 112.858,209.598 "/>
<path style="fill:#ED1F34;" d="M96.111,283.252c-1.553,0-3.104-0.437-4.464-1.31L74.9,271.184c-2.365-1.52-3.794-4.138-3.794-6.948
	v-54.638c0-4.561,3.697-8.258,8.258-8.258h33.495c4.561,0,8.258,3.697,8.258,8.258v54.638c0,2.811-1.43,5.429-3.795,6.948
	l-16.748,10.758C99.215,282.814,97.662,283.252,96.111,283.252z M87.621,259.725l8.489,5.454l8.489-5.454v-41.868H87.621V259.725z"
	/>
<path style="fill:#FFE000;" d="M96.111,311.054c-30.357,0-55.054-24.697-55.054-55.054c0-4.561,3.697-8.258,8.258-8.258
	s8.258,3.697,8.258,8.258c0,21.25,17.288,38.538,38.538,38.538S134.648,277.25,134.648,256c0-4.561,3.697-8.258,8.258-8.258
	s8.258,3.697,8.258,8.258C151.164,286.357,126.467,311.054,96.111,311.054z"/>
<path style="fill:#1A1C20;" d="M468.324,82.581H43.676c-10.582,0-20.296,3.785-27.863,10.07c-0.292,0.222-0.574,0.461-0.837,0.726
	C5.808,101.388,0,113.153,0,126.256v259.487c0,13.167,5.865,24.982,15.11,32.997c0.192,0.184,0.392,0.355,0.598,0.518
	c7.582,6.339,17.335,10.162,27.968,10.162h424.648c24.082,0,43.675-19.594,43.675-43.676V126.256
	C512,102.173,492.406,82.581,468.324,82.581z M21.994,402.079c-3.436-4.549-5.478-10.208-5.478-16.336V126.256
	c0-6.127,2.041-11.786,5.478-16.336L241.112,256L21.994,402.079z M468.324,412.903H43.676c-2.361,0-4.65-0.304-6.835-0.872
	l221.659-147.773h146.146c4.562,0,8.258-3.696,8.258-8.258c0-4.561-3.696-8.258-8.258-8.258H258.499L36.841,99.969
	c2.185-0.568,4.475-0.872,6.835-0.872h424.648c14.976,0,27.159,12.183,27.159,27.159v121.486h-57.806
	c-4.562,0-8.258,3.697-8.258,8.258c0,4.562,3.696,8.258,8.258,8.258h57.806v121.485C495.484,400.72,483.3,412.903,468.324,412.903z"
	/>
<g>
</g>
<g>
</g>
<g>
</g>
<g>
</g>
<g>
</g>
<g>
</g>
<g>
</g>
<g>
</g>
<g>
</g>
<g>
</g>
<g>
</g>
<g>
</g>
<g>
</g>
<g>
</g>
<g>
</g>
</svg>
