<?xml version="1.0" encoding="iso-8859-1"?>
<!-- Generator: Adobe Illustrator 19.0.0, SVG Export Plug-In . SVG Version: 6.00 Build 0)  -->
<svg version="1.1" id="Layer_1" xmlns="http://www.w3.org/2000/svg" xmlns:xlink="http://www.w3.org/1999/xlink" x="0px" y="0px"
	 viewBox="0 0 512 512" style="enable-background:new 0 0 512 512;" xml:space="preserve">
<rect x="8.258" y="200.946" style="fill:#FFFFFF;" width="495.484" height="110.108"/>
<path style="fill:#ED1F34;" d="M468.324,90.839H43.676c-19.562,0-35.418,15.857-35.418,35.418v74.689h495.484v-74.689
	C503.742,106.695,487.885,90.839,468.324,90.839z"/>
<path style="fill:#333333;" d="M8.258,385.743c0,19.561,15.857,35.418,35.418,35.418h424.648c19.561,0,35.418-15.858,35.418-35.418
	v-74.689H8.258V385.743z"/>
<g>
	<polygon style="fill:#259245;" points="131.346,248.202 156.92,246.881 166.078,222.968 175.238,246.881 200.811,248.202 
		180.899,264.302 187.545,289.032 166.078,275.07 144.613,289.032 151.259,264.302 	"/>
	<polygon style="fill:#259245;" points="311.189,248.202 336.762,246.881 345.922,222.968 355.08,246.881 380.654,248.202 
		360.741,264.302 367.387,289.032 345.922,275.07 324.456,289.032 331.101,264.302 	"/>
</g>
<g>
	<path style="fill:#111A21;" d="M201.237,239.955l-20.209-1.044l-7.237-18.897c-1.223-3.195-4.29-5.304-7.712-5.304
		c-3.421,0-6.489,2.11-7.712,5.304l-7.237,18.897l-20.209,1.044c-3.418,0.176-6.371,2.441-7.428,5.695
		c-1.057,3.254,0.001,6.822,2.661,8.974l15.737,12.723l-5.253,19.542c-0.889,3.304,0.353,6.813,3.122,8.824
		c2.768,2.011,6.489,2.106,9.357,0.241l16.962-11.034l16.962,11.034c1.372,0.892,2.939,1.336,4.503,1.336
		c1.707,0,3.41-0.527,4.854-1.577c2.768-2.011,4.01-5.52,3.122-8.824l-5.252-19.543l15.735-12.723
		c2.66-2.152,3.718-5.72,2.661-8.974C207.608,242.396,204.654,240.131,201.237,239.955z M175.706,257.881
		c-2.54,2.053-3.63,5.411-2.782,8.564l1.05,3.909l-3.392-2.207c-1.369-0.891-2.937-1.336-4.503-1.336
		c-1.567,0-3.135,0.445-4.503,1.336l-3.391,2.205l1.05-3.908c0.848-3.155-0.243-6.512-2.782-8.565l-3.147-2.545l4.041-0.209
		c3.262-0.168,6.119-2.243,7.286-5.293l1.447-3.779l1.448,3.779c1.167,3.05,4.023,5.124,7.286,5.293l4.041,0.209L175.706,257.881z"
		/>
	<path style="fill:#111A21;" d="M381.08,239.955l-20.209-1.044l-7.237-18.897c-1.223-3.195-4.29-5.304-7.712-5.304
		c-3.421,0-6.489,2.11-7.712,5.304l-7.237,18.897l-20.209,1.044c-3.417,0.176-6.371,2.441-7.428,5.695
		c-1.057,3.254,0.001,6.822,2.661,8.974l15.735,12.723l-5.252,19.543c-0.889,3.304,0.353,6.813,3.122,8.824
		c1.444,1.049,3.147,1.577,4.854,1.577c1.565,0,3.131-0.444,4.503-1.336l16.962-11.034l16.962,11.034
		c2.867,1.865,6.588,1.769,9.357-0.241c2.768-2.011,4.01-5.52,3.122-8.824l-5.253-19.542l15.737-12.723
		c2.66-2.152,3.718-5.72,2.661-8.974C387.451,242.396,384.497,240.131,381.08,239.955z M355.548,257.881
		c-2.54,2.053-3.63,5.411-2.782,8.565l1.05,3.908l-3.391-2.205c-2.737-1.782-6.268-1.782-9.007,0l-3.392,2.207l1.05-3.909
		c0.848-3.155-0.243-6.511-2.782-8.564l-3.147-2.545l4.041-0.209c3.263-0.168,6.119-2.243,7.286-5.293l1.447-3.779l1.447,3.779
		c1.168,3.05,4.023,5.124,7.286,5.293l4.041,0.209L355.548,257.881z"/>
	<path style="fill:#111A21;" d="M468.324,82.581H43.676C19.594,82.581,0,102.173,0,126.257v259.487
		c0,24.083,19.594,43.675,43.676,43.675h424.647c24.083,0,43.676-19.593,43.676-43.676V126.257
		C512,102.173,492.406,82.581,468.324,82.581z M43.676,99.097h424.647c14.977,0,27.16,12.183,27.16,27.16v66.431H470.71
		c-4.562,0-8.258,3.697-8.258,8.258s3.696,8.258,8.258,8.258h24.774v93.591H16.516v-93.591h421.161c4.562,0,8.258-3.697,8.258-8.258
		s-3.696-8.258-8.258-8.258H16.516v-66.431C16.516,111.28,28.7,99.097,43.676,99.097z M468.324,412.903H43.676
		c-14.977,0-27.16-12.183-27.16-27.16v-66.431h478.968v66.431C495.484,400.72,483.3,412.903,468.324,412.903z"/>
</g>
<g>
</g>
<g>
</g>
<g>
</g>
<g>
</g>
<g>
</g>
<g>
</g>
<g>
</g>
<g>
</g>
<g>
</g>
<g>
</g>
<g>
</g>
<g>
</g>
<g>
</g>
<g>
</g>
<g>
</g>
</svg>
