<?xml version="1.0" encoding="iso-8859-1"?>
<!-- Generator: Adobe Illustrator 19.0.0, SVG Export Plug-In . SVG Version: 6.00 Build 0)  -->
<svg version="1.1" id="Layer_1" xmlns="http://www.w3.org/2000/svg" xmlns:xlink="http://www.w3.org/1999/xlink" x="0px" y="0px"
	 viewBox="0 0 512 512" style="enable-background:new 0 0 512 512;" xml:space="preserve">
<g>
	<path style="fill:#164FCE;" d="M468.324,90.839H43.676c-19.562,0-35.418,15.857-35.418,35.418v12.482h495.484v-12.482
		C503.742,106.695,487.884,90.839,468.324,90.839z"/>
	<path style="fill:#164FCE;" d="M8.258,385.743c0,19.562,15.857,35.418,35.418,35.418h424.648c19.561,0,35.418-15.857,35.418-35.418
		v-12.482H8.258V385.743z"/>
</g>
<rect x="8.258" y="346.288" style="fill:#FFE000;" width="495.484" height="26.973"/>
<rect x="8.258" y="165.712" style="fill:#B21727;" width="495.484" height="180.576"/>
<g>
	<path style="fill:#FFE000;" d="M430.552,264.258H81.448c-4.561,0-8.258-3.696-8.258-8.258c0-4.562,3.697-8.258,8.258-8.258h349.106
		c4.561,0,8.258,3.696,8.258,8.258C438.812,260.562,435.113,264.258,430.552,264.258z"/>
	<path style="fill:#FFE000;" d="M397.52,231.226H114.48c-4.561,0-8.258-3.696-8.258-8.258c0-4.562,3.697-8.258,8.258-8.258h283.041
		c4.561,0,8.258,3.696,8.258,8.258C405.779,227.53,402.081,231.226,397.52,231.226z"/>
	<rect x="8.258" y="138.735" style="fill:#FFE000;" width="495.484" height="26.973"/>
</g>
<path style="fill:#FFFFFF;" d="M256,200.946v110.108c55.946,0,90.288-55.054,90.288-55.054S311.946,200.946,256,200.946z"/>
<path style="fill:#333333;" d="M165.712,256c0,0,34.343,55.054,90.288,55.054V200.946C200.054,200.946,165.712,256,165.712,256z"/>
<g>
	<path style="fill:#111A21;" d="M468.508,82.581H43.492C19.473,82.581,0,102.053,0,126.073v259.854
		c0,24.02,19.473,43.492,43.492,43.492h425.015c24.02,0,43.492-19.473,43.492-43.492V126.073
		C512,102.053,492.527,82.581,468.508,82.581z M495.484,130.477v26.976H16.516v-26.976c0-17.331,14.05-31.381,31.381-31.381h416.206
		C481.434,99.097,495.484,113.146,495.484,130.477z M16.516,381.523v-26.976h24.428c4.522,0,8.465-3.485,8.6-8.005
		c0.14-4.676-3.609-8.511-8.255-8.511H16.516V173.97h478.968v164.06H74.668c-4.522,0-8.465,3.485-8.6,8.005
		c-0.14,4.676,3.609,8.511,8.255,8.511h421.161v26.976c0,17.331-14.05,31.381-31.381,31.381H47.897
		C30.566,412.903,16.516,398.854,16.516,381.523z"/>
	<path style="fill:#111A21;" d="M256,319.312c59.839,0,95.794-56.535,97.294-58.941c1.669-2.676,1.669-6.067,0-8.741
		c-1.501-2.407-37.455-58.942-97.294-58.942s-95.794,56.535-97.294,58.941c-1.669,2.676-1.669,6.067,0,8.741
		C160.206,262.777,196.161,319.312,256,319.312z M256,209.204c41.677,0,71.008,34.41,80.214,46.796
		c-9.212,12.394-38.541,46.796-80.214,46.796c-41.677,0-71.008-34.41-80.214-46.796C184.997,243.606,214.326,209.204,256,209.204z"
		/>
</g>
<g>
</g>
<g>
</g>
<g>
</g>
<g>
</g>
<g>
</g>
<g>
</g>
<g>
</g>
<g>
</g>
<g>
</g>
<g>
</g>
<g>
</g>
<g>
</g>
<g>
</g>
<g>
</g>
<g>
</g>
</svg>
