<?xml version="1.0" encoding="iso-8859-1"?>
<!-- Generator: Adobe Illustrator 19.0.0, SVG Export Plug-In . SVG Version: 6.00 Build 0)  -->
<svg version="1.1" id="Layer_1" xmlns="http://www.w3.org/2000/svg" xmlns:xlink="http://www.w3.org/1999/xlink" x="0px" y="0px"
	 viewBox="0 0 512 512" style="enable-background:new 0 0 512 512;" xml:space="preserve">
<path style="fill:#103B9B;" d="M8.258,390.882V121.118c0-16.723,13.556-30.28,30.28-30.28h434.925
	c16.723,0,30.28,13.556,30.28,30.28v269.763c0,16.723-13.556,30.28-30.28,30.28H38.538C21.815,421.161,8.258,407.605,8.258,390.882z
	"/>
<path style="fill:#FFFFFF;" d="M256,90.839h-40.196l-83.675,55.784L48.454,90.839H35.055c-14.8,0-26.797,11.997-26.797,26.797l0,0
	l83.675,55.784L8.258,229.203V256h40.196l83.675-55.784L215.804,256H256v-26.797l-83.675-55.784L256,117.637V90.839z"/>
<path style="fill:#ED1F34;" d="M256,90.839h-26.798l-110.466,73.652l-95.603-63.736c-6.359-4.239-14.874,0.319-14.874,7.961l0,0
	l110.33,73.73L8.258,256h26.797l110.472-73.648L256,256v-17.484L145.373,164.59L256,90.839z"/>
<polygon style="fill:#FFFFFF;" points="256,151.123 154.426,151.123 154.426,90.839 109.832,90.839 109.832,151.123 8.258,151.123 
	8.258,195.716 109.832,195.716 109.832,256 154.426,256 154.426,195.716 256,195.716 "/>
<polygon style="fill:#ED1F34;" points="256,161.445 144.103,161.445 144.103,90.839 120.155,90.839 120.155,161.445 8.258,161.445 
	8.258,185.394 120.155,185.394 120.155,256 144.103,256 144.103,185.394 256,185.394 "/>
<path style="fill:#FFE000;" d="M324.817,188.963v60.939c0,59.526,55.054,73.135,55.054,73.135s55.054-13.608,55.054-73.135v-60.939
	H324.817z"/>
<circle style="fill:#F2A643;" cx="359.501" cy="232.184" r="16.241"/>
<circle style="fill:#FF7900;" cx="400.241" cy="232.184" r="16.241"/>
<circle style="fill:#259245;" cx="379.871" cy="266.592" r="16.241"/>
<g>
	<path style="fill:#1A1C20;" d="M434.925,180.705H324.817c-4.561,0-8.258,3.697-8.258,8.258v60.94
		c0,34.062,16.681,54.352,30.675,65.376c14.99,11.81,30.023,15.619,30.655,15.775c0.651,0.161,1.316,0.241,1.982,0.241
		c0.665,0,1.33-0.08,1.982-0.241c0.632-0.157,15.665-3.966,30.655-15.775c13.994-11.024,30.675-31.313,30.675-65.376v-60.94
		C443.183,184.403,439.485,180.705,434.925,180.705z M426.667,249.902c0,46.604-37.428,61.528-46.775,64.527
		c-9.109-2.989-46.817-18.175-46.817-64.527V197.22h93.591V249.902z"/>
	<path style="fill:#1A1C20;" d="M468.324,82.581H43.675C19.593,82.581,0,102.173,0,126.256v259.487
		c0,24.083,19.593,43.676,43.675,43.676h424.648c24.084,0,43.676-19.594,43.676-43.676V126.256
		C512,102.173,492.407,82.581,468.324,82.581z M495.484,385.743c0,14.977-12.183,27.16-27.16,27.16H43.675
		c-14.976,0-27.159-12.183-27.159-27.16V126.256c0-14.976,12.183-27.159,27.159-27.159h424.648c14.977,0,27.16,12.183,27.16,27.159
		V385.743z"/>
</g>
<g>
</g>
<g>
</g>
<g>
</g>
<g>
</g>
<g>
</g>
<g>
</g>
<g>
</g>
<g>
</g>
<g>
</g>
<g>
</g>
<g>
</g>
<g>
</g>
<g>
</g>
<g>
</g>
<g>
</g>
</svg>
