<?xml version="1.0" encoding="iso-8859-1"?>
<!-- Generator: Adobe Illustrator 19.0.0, SVG Export Plug-In . SVG Version: 6.00 Build 0)  -->
<svg version="1.1" id="Layer_1" xmlns="http://www.w3.org/2000/svg" xmlns:xlink="http://www.w3.org/1999/xlink" x="0px" y="0px"
	 viewBox="0 0 512 512" style="enable-background:new 0 0 512 512;" xml:space="preserve">
<g>
	<rect x="8.258" y="289.032" style="fill:#FFE000;" width="495.484" height="66.065"/>
	<rect x="206.452" y="156.903" style="fill:#FFE000;" width="297.29" height="66.065"/>
</g>
<g>
	<rect x="206.452" y="222.968" style="fill:#259245;" width="297.29" height="66.065"/>
	<path style="fill:#259245;" d="M8.258,385.743c0,19.561,15.857,35.418,35.418,35.418h424.648c19.561,0,35.418-15.857,35.418-35.418
		v-30.646H8.258V385.743z"/>
	<path style="fill:#259245;" d="M468.324,90.839H206.452v66.065h297.29v-30.647C503.742,106.695,487.884,90.839,468.324,90.839z"/>
</g>
<path style="fill:#ED1F34;" d="M206.452,289.032H8.258V124.779c0-18.745,15.196-33.941,33.941-33.941h164.253V289.032z"/>
<polygon style="fill:#FFFFFF;" points="60.559,179.429 95.014,177.649 107.355,145.43 119.695,177.649 154.151,179.429 
	127.322,201.121 136.276,234.441 107.355,215.629 78.434,234.441 87.388,201.121 "/>
<g>
	<path style="fill:#111A21;" d="M55.366,185.85l22.651,18.315l-7.56,28.132c-0.887,3.303,0.353,6.813,3.122,8.824
		c2.767,2.011,6.489,2.107,9.357,0.242l24.419-15.884l24.419,15.883c1.372,0.893,2.938,1.336,4.502,1.336
		c1.707,0,3.411-0.529,4.855-1.578c2.768-2.011,4.009-5.521,3.122-8.824l-7.56-28.132l22.651-18.315
		c2.66-2.15,3.718-5.719,2.661-8.973c-1.057-3.254-4.011-5.52-7.428-5.696l-29.09-1.502l-10.418-27.203
		c-1.223-3.194-4.291-5.304-7.712-5.304c-3.421,0-6.489,2.11-7.712,5.304l-10.418,27.203l-29.09,1.502
		c-3.417,0.176-6.371,2.442-7.428,5.696C51.648,180.132,52.706,183.7,55.366,185.85z M95.44,185.897
		c3.261-0.168,6.118-2.244,7.286-5.294l4.629-12.085l4.629,12.085c1.168,3.05,4.024,5.124,7.286,5.294l12.922,0.668l-10.063,8.136
		c-2.539,2.054-3.63,5.411-2.782,8.564l3.358,12.498l-10.848-7.056c-1.369-0.891-2.937-1.336-4.502-1.336
		c-1.567,0-3.134,0.445-4.502,1.336l-10.848,7.056l3.358-12.498c0.848-3.153-0.243-6.511-2.782-8.564l-10.063-8.136L95.44,185.897z"
		/>
	<path style="fill:#111A21;" d="M468.324,82.581H43.675C19.593,82.581,0,102.174,0,126.257v259.486
		c0,24.083,19.593,43.676,43.675,43.676h424.648c24.084,0,43.676-19.594,43.676-43.676V126.257
		C512,102.174,492.407,82.581,468.324,82.581z M214.71,231.226h280.774v49.548H214.71V231.226z M495.484,126.257v22.388H470.71
		c-4.561,0-8.258,3.696-8.258,8.258s3.697,8.258,8.258,8.258h24.774v49.548H214.71v-49.548h222.968c4.561,0,8.258-3.696,8.258-8.258
		s-3.697-8.258-8.258-8.258H214.71V99.097h253.614C483.3,99.097,495.484,111.28,495.484,126.257z M43.675,99.097h154.518v181.677
		H16.516V126.257C16.516,111.28,28.7,99.097,43.675,99.097z M468.324,412.903H43.675c-14.976,0-27.159-12.183-27.159-27.16v-22.388
		H41.29c4.561,0,8.258-3.696,8.258-8.258c0-4.562-3.697-8.258-8.258-8.258H16.516V297.29h478.968v49.548H74.323
		c-4.561,0-8.258,3.696-8.258,8.258c0,4.562,3.697,8.258,8.258,8.258h421.161v22.388C495.484,400.72,483.3,412.903,468.324,412.903z
		"/>
</g>
<g>
</g>
<g>
</g>
<g>
</g>
<g>
</g>
<g>
</g>
<g>
</g>
<g>
</g>
<g>
</g>
<g>
</g>
<g>
</g>
<g>
</g>
<g>
</g>
<g>
</g>
<g>
</g>
<g>
</g>
</svg>
