<?xml version="1.0" encoding="iso-8859-1"?>
<!-- Generator: Adobe Illustrator 19.0.0, SVG Export Plug-In . SVG Version: 6.00 Build 0)  -->
<svg version="1.1" id="Layer_1" xmlns="http://www.w3.org/2000/svg" xmlns:xlink="http://www.w3.org/1999/xlink" x="0px" y="0px"
	 viewBox="0 0 512 512" style="enable-background:new 0 0 512 512;" xml:space="preserve">
<rect x="8.32" y="200.797" style="fill:#FFFFFF;" width="495.493" height="118.399"/>
<path style="fill:#ED1F34;" d="M503.681,200.8H8.32v-73.792c0-20.096,16.32-36.288,36.288-36.288h422.784
	c20.096,0,36.288,16.32,36.288,36.288V200.8L503.681,200.8z"/>
<path style="fill:#259245;" d="M467.392,421.089H44.608c-20.096,0-36.288-16.32-36.288-36.288v-73.792h495.488V384.8
	C503.681,404.832,487.488,421.089,467.392,421.089z"/>
<g>
	<path style="fill:#FFE000;" d="M256,232.481c-4.928,0-8.832-4.032-8.832-8.832c0-4.928,4.032-8.832,8.832-8.832
		c4.928,0,8.768,4.032,8.768,8.832C264.768,228.576,260.928,232.481,256,232.481z"/>
	<path style="fill:#FFE000;" d="M231.68,237.792c-3.392,0-6.528-1.984-7.872-4.992c-1.024-2.112-1.216-4.48-0.384-6.72
		c0.832-2.176,2.432-4.032,4.48-4.992c1.216-0.576,2.496-0.896,3.776-0.896c3.392,0,6.528,1.984,7.872,4.992
		c2.112,4.416,0.32,9.728-4.096,11.776C234.304,237.537,233.024,237.792,231.68,237.792z"/>
	<path style="fill:#FFE000;" d="M212.032,253.088c-1.984,0-3.904-0.704-5.504-1.92c-1.792-1.472-3.008-3.584-3.328-5.888
		c-0.32-2.304,0.384-4.608,1.92-6.528c1.728-2.112,4.224-3.328,6.912-3.328c1.984,0,3.904,0.704,5.504,1.92
		c3.776,3.008,4.416,8.576,1.408,12.416C217.216,251.936,214.72,253.088,212.032,253.088z"/>
	<path style="fill:#FFE000;" d="M201.024,275.488c-0.704,0-1.28-0.128-1.984-0.192c-2.304-0.512-4.224-1.92-5.504-3.904
		c-1.28-1.984-1.728-4.416-1.088-6.72c0.896-4.032,4.48-6.784,8.576-6.784c0.704,0,1.28,0.128,1.984,0.192
		c2.304,0.512,4.224,1.92,5.504,3.904s1.728,4.416,1.088,6.72C208.704,272.736,205.12,275.488,201.024,275.488z"/>
	<path style="fill:#FFE000;" d="M280.32,237.792L280.32,237.792c-1.28,0-2.624-0.32-3.776-0.896
		c-4.416-2.112-6.208-7.424-4.096-11.776c1.472-3.008,4.608-4.992,7.872-4.992c1.28,0,2.624,0.32,3.776,0.896
		c2.112,1.024,3.712,2.816,4.48,4.992c0.768,2.176,0.576,4.608-0.384,6.72C286.784,235.809,283.712,237.792,280.32,237.792z"/>
	<path style="fill:#FFE000;" d="M300.032,253.088L300.032,253.088c-2.688,0-5.184-1.216-6.912-3.328
		c-3.008-3.776-2.368-9.28,1.408-12.416c1.6-1.216,3.52-1.92,5.504-1.92c2.688,0,5.184,1.216,6.912,3.328
		c1.472,1.792,2.112,4.096,1.92,6.528c-0.32,2.304-1.408,4.416-3.328,5.888C303.872,252.512,302.016,253.088,300.032,253.088z"/>
	<path style="fill:#FFE000;" d="M310.976,275.488L310.976,275.488c-4.096,0-7.68-2.816-8.576-6.784
		c-0.512-2.304-0.128-4.672,1.088-6.592c1.28-1.984,3.2-3.392,5.504-3.904c0.576-0.128,1.28-0.192,1.984-0.192
		c4.096,0,7.68,2.816,8.576,6.784c0.512,2.304,0.128,4.672-1.088,6.592c-1.28,1.984-3.2,3.392-5.504,3.904
		C312.32,275.424,311.68,275.488,310.976,275.488z"/>
	<path style="fill:#FFE000;" d="M289.216,281.312c-7.872-4.288-16.576-6.976-25.472-8.128v-17.6c0-4.608-3.712-8.32-8.32-8.32
		c-4.608,0-8.32,3.712-8.32,8.32v17.6c-9.088,1.088-17.92,3.904-25.792,8.192c-4.032,2.176-5.504,7.232-3.328,11.2
		c1.472,2.688,4.288,4.288,7.232,4.288c1.28,0,2.688-0.32,4.032-1.024c8-4.416,17.024-6.72,26.112-6.72s17.984,2.304,25.92,6.592
		c4.032,2.176,9.024,0.704,11.2-3.328C294.72,288.417,293.185,283.424,289.216,281.312z"/>
</g>
<path style="fill:#111A21;" d="M468.288,82.528H43.712C19.584,82.528,0,102.112,0,126.24v259.52
	c0,24.128,19.584,43.712,43.712,43.712h424.576c24.128,0,43.712-19.584,43.712-43.712V126.24
	C512,102.112,492.416,82.528,468.288,82.528z M43.712,98.977h424.576c14.976,0,27.2,12.224,27.2,27.2v66.432H16.512v-66.432
	C16.512,111.2,28.672,98.977,43.712,98.977z M468.288,412.832H43.712c-14.976,0-27.2-12.224-27.2-27.2v-66.432h421.184
	c4.608,0,8.32-3.712,8.32-8.32c0-4.608-3.712-8.32-8.32-8.32H16.512v-93.632h478.976v93.696h-24.832c-4.608,0-8.32,3.712-8.32,8.32
	c0,4.608,3.712,8.32,8.32,8.32h24.832v66.432C495.488,400.609,483.328,412.832,468.288,412.832z"/>
<g>
</g>
<g>
</g>
<g>
</g>
<g>
</g>
<g>
</g>
<g>
</g>
<g>
</g>
<g>
</g>
<g>
</g>
<g>
</g>
<g>
</g>
<g>
</g>
<g>
</g>
<g>
</g>
<g>
</g>
</svg>
