<?xml version="1.0" encoding="iso-8859-1"?>
<!-- Generator: Adobe Illustrator 19.0.0, SVG Export Plug-In . SVG Version: 6.00 Build 0)  -->
<svg version="1.1" id="Layer_1" xmlns="http://www.w3.org/2000/svg" xmlns:xlink="http://www.w3.org/1999/xlink" x="0px" y="0px"
	 viewBox="0 0 512 512" style="enable-background:new 0 0 512 512;" xml:space="preserve">
<path style="fill:#103B9B;" d="M8.258,383.216V128.784c0-20.957,16.988-37.945,37.945-37.945h419.593
	c20.957,0,37.945,16.988,37.945,37.945v254.432c0,20.957-16.988,37.945-37.945,37.945H46.203
	C25.247,421.161,8.258,404.173,8.258,383.216z"/>
<g>
	<circle style="fill:#FFFFFF;" cx="112.1" cy="153.116" r="12.731"/>
	<circle style="fill:#FFFFFF;" cx="112.1" cy="305.89" r="12.731"/>
	<circle style="fill:#FFFFFF;" cx="150.297" cy="184.948" r="12.731"/>
	<circle style="fill:#FFFFFF;" cx="73.904" cy="216.769" r="12.731"/>
</g>
<g>
	<path style="fill:#FFE000;" d="M429.679,239.068c0-38.518,6.575-75.495,18.625-109.899l-268.617,191.53
		c-4.166,2.991-6.895,7.858-6.895,13.374c0,9.065,7.349,16.414,16.414,16.414h259.634
		C436.448,315.652,429.679,278.153,429.679,239.068z"/>
	<path style="fill:#FFE000;" d="M448.84,391.091H172.792c-4.561,0-8.258-3.697-8.258-8.258c0-4.562,3.697-8.258,8.258-8.258h276.047
		c4.562,0,8.258,3.696,8.258,8.258C457.098,387.394,453.401,391.091,448.84,391.091z"/>
</g>
<g>
	<path style="fill:#1A1C20;" d="M437.937,239.067c0-36.709,6.11-72.766,18.16-107.169c1.19-3.397,0.043-7.172-2.834-9.334
		c-2.879-2.163-6.822-2.21-9.753-0.12L174.871,313.989c-6.473,4.648-10.337,12.155-10.337,20.081
		c0,13.603,11.068,24.671,24.672,24.671H448.84c2.684,0,5.2-1.304,6.747-3.497c1.547-2.192,1.932-5.001,1.034-7.529
		C444.223,312.871,437.937,276.316,437.937,239.067z M189.205,342.225c-4.497,0-8.156-3.658-8.156-8.155
		c0-2.66,1.259-5.089,3.431-6.649l248.7-177.328c-7.811,28.903-11.759,58.728-11.759,88.973c0,35.233,5.352,69.878,15.926,103.159
		H189.205z"/>
	<path style="fill:#1A1C20;" d="M468.324,82.581H43.676C19.593,82.581,0,102.174,0,126.257v259.486
		c0,24.083,19.593,43.676,43.676,43.676h424.648c24.082,0,43.675-19.594,43.675-43.676V126.257
		C512,102.174,492.406,82.581,468.324,82.581z M495.484,385.743c0,14.977-12.183,27.16-27.16,27.16H43.676
		c-14.977,0-27.16-12.183-27.16-27.16V126.257c0-14.977,12.183-27.16,27.16-27.16h424.648c14.976,0,27.159,12.183,27.159,27.16
		V385.743z"/>
</g>
<g>
</g>
<g>
</g>
<g>
</g>
<g>
</g>
<g>
</g>
<g>
</g>
<g>
</g>
<g>
</g>
<g>
</g>
<g>
</g>
<g>
</g>
<g>
</g>
<g>
</g>
<g>
</g>
<g>
</g>
</svg>
