<?xml version="1.0" encoding="iso-8859-1"?>
<!-- Generator: Adobe Illustrator 19.0.0, SVG Export Plug-In . SVG Version: 6.00 Build 0)  -->
<svg version="1.1" id="Layer_1" xmlns="http://www.w3.org/2000/svg" xmlns:xlink="http://www.w3.org/1999/xlink" x="0px" y="0px"
	 viewBox="0 0 512 512" style="enable-background:new 0 0 512 512;" xml:space="preserve">
<path style="fill:#ED1F34;" d="M43.63,90.839h426.529c18.548,0,33.583,15.035,33.583,33.583v263.157
	c0,18.548-15.035,33.583-33.583,33.583H43.734c-19.593,0-35.476-15.883-35.476-35.476V126.211
	C8.258,106.675,24.095,90.839,43.63,90.839z"/>
<path style="fill:#FFE000;" d="M8.258,118.511v277.56c0,11.486,12.127,18.924,22.365,13.718L333.075,256L32.924,103.381
	C21.633,97.639,8.258,105.843,8.258,118.511z"/>
<path style="fill:#333333;" d="M8.258,116.259v279.48c0,10.095,11.774,15.609,19.529,9.147L206.452,256L26.144,101.515
	C18.389,95.053,8.258,106.165,8.258,116.259z"/>
<path style="fill:#121B21;" d="M22.164,417.72c-2.366,0-4.717-1.012-6.351-2.974c-2.918-3.505-2.443-8.712,1.063-11.631
	l176.78-147.206L16.23,103.895c-3.464-2.967-3.866-8.181-0.897-11.644c2.966-3.464,8.181-3.867,11.644-0.897l184.849,158.375
	c1.846,1.581,2.902,3.898,2.885,6.329c-0.018,2.431-1.105,4.732-2.974,6.288L27.443,415.809
	C25.899,417.094,24.027,417.72,22.164,417.72z"/>
<circle style="fill:#FFFFFF;" cx="87.304" cy="256" r="25.875"/>
<g>
	<path style="fill:#121B21;" d="M21.61,422.636c-3.009,0-5.909-1.65-7.367-4.518c-2.067-4.065-0.447-9.037,3.618-11.104L314.856,256
		L17.861,104.986c-4.065-2.068-5.685-7.039-3.618-11.104c2.068-4.065,7.04-5.684,11.104-3.618l311.472,158.375
		c2.77,1.408,4.516,4.253,4.516,7.362c0,3.108-1.745,5.952-4.516,7.362L25.347,421.736C24.148,422.346,22.869,422.636,21.61,422.636
		z"/>
	<path style="fill:#121B21;" d="M468.324,429.419H43.676C19.594,429.419,0,409.826,0,385.743V126.257
		c0-24.083,19.594-43.676,43.676-43.676h424.647c24.083,0,43.676,19.594,43.676,43.676v259.486
		C512,409.826,492.406,429.419,468.324,429.419z M43.676,99.097c-14.977,0-27.16,12.183-27.16,27.16v259.486
		c0,14.977,12.183,27.16,27.16,27.16h424.647c14.977,0,27.16-12.183,27.16-27.16V126.257c0-14.977-12.183-27.16-27.16-27.16H43.676z
		"/>
</g>
<g>
</g>
<g>
</g>
<g>
</g>
<g>
</g>
<g>
</g>
<g>
</g>
<g>
</g>
<g>
</g>
<g>
</g>
<g>
</g>
<g>
</g>
<g>
</g>
<g>
</g>
<g>
</g>
<g>
</g>
</svg>
