<?xml version="1.0" encoding="iso-8859-1"?>
<!-- Generator: Adobe Illustrator 19.0.0, SVG Export Plug-In . SVG Version: 6.00 Build 0)  -->
<svg version="1.1" id="Layer_1" xmlns="http://www.w3.org/2000/svg" xmlns:xlink="http://www.w3.org/1999/xlink" x="0px" y="0px"
	 viewBox="0 0 512 512" style="enable-background:new 0 0 512 512;" xml:space="preserve">
<path style="fill:#259245;" d="M503.742,125.523v260.955c0,19.155-15.528,34.684-34.684,34.684H42.942
	c-19.155,0-34.684-15.528-34.684-34.684V125.523c0-19.155,15.528-34.684,34.684-34.684h426.116
	C488.213,90.839,503.742,106.367,503.742,125.523z"/>
<rect x="63.312" y="90.839" style="fill:#ED1F34;" width="99.097" height="330.323"/>
<path style="fill:#FFFFFF;" d="M229.081,216.742c16.895,16.895,44.287,16.895,61.182,0s16.895-44.287,0-61.182
	c-0.509-0.509-1.027-1-1.554-1.478c7.919,2.219,15.396,6.43,21.625,12.659c19.349,19.349,19.349,50.722,0,70.071
	c-19.35,19.35-50.722,19.35-70.072,0c-6.229-6.229-10.441-13.706-12.66-21.625C228.081,215.715,228.572,216.235,229.081,216.742z"/>
<path style="fill:#F2A643;" d="M129.376,382.231H96.344c-4.562,0-8.258-3.697-8.258-8.258c0-4.561,3.696-8.258,8.258-8.258h33.032
	c4.562,0,8.258,3.697,8.258,8.258C137.634,378.533,133.938,382.231,129.376,382.231z"/>
<g>
	<path style="fill:#259245;" d="M129.376,335.042H96.344c-4.562,0-8.258-3.697-8.258-8.258c0-4.561,3.696-8.258,8.258-8.258h33.032
		c4.562,0,8.258,3.697,8.258,8.258C137.634,331.344,133.938,335.042,129.376,335.042z"/>
	<path style="fill:#259245;" d="M129.376,287.852H96.344c-4.562,0-8.258-3.697-8.258-8.258c0-4.561,3.696-8.258,8.258-8.258h33.032
		c4.562,0,8.258,3.697,8.258,8.258C137.634,284.155,133.938,287.852,129.376,287.852z"/>
	<path style="fill:#259245;" d="M129.376,240.664H96.344c-4.562,0-8.258-3.697-8.258-8.258s3.696-8.258,8.258-8.258h33.032
		c4.562,0,8.258,3.697,8.258,8.258S133.938,240.664,129.376,240.664z"/>
	<path style="fill:#259245;" d="M129.376,193.474H96.344c-4.562,0-8.258-3.697-8.258-8.258c0-4.561,3.696-8.258,8.258-8.258h33.032
		c4.562,0,8.258,3.697,8.258,8.258C137.634,189.777,133.938,193.474,129.376,193.474z"/>
	<path style="fill:#259245;" d="M129.376,146.286H96.344c-4.562,0-8.258-3.697-8.258-8.258c0-4.561,3.696-8.258,8.258-8.258h33.032
		c4.562,0,8.258,3.697,8.258,8.258C137.634,142.588,133.938,146.286,129.376,146.286z"/>
</g>
<g>
	<circle style="fill:#FFFFFF;" cx="259.678" cy="154.591" r="8.258"/>
	<circle style="fill:#FFFFFF;" cx="226.877" cy="184.001" r="8.258"/>
	<circle style="fill:#FFFFFF;" cx="236.324" cy="131.237" r="8.258"/>
	<circle style="fill:#FFFFFF;" cx="203.512" cy="160.636" r="8.258"/>
	<circle style="fill:#FFFFFF;" cx="232.448" cy="158.467" r="8.258"/>
</g>
<g>
	<path style="fill:#111A21;" d="M290.937,146.13c-3.685-1.033-7.599,0.603-9.453,3.952c-1.854,3.349-1.164,7.534,1.669,10.109
		c0.431,0.391,0.856,0.793,1.27,1.208c13.648,13.649,13.648,35.855,0.001,49.504c-6.612,6.612-15.403,10.253-24.752,10.253
		c-9.35,0-18.141-3.641-24.754-10.254c-0.412-0.412-0.809-0.832-1.197-1.26c-2.573-2.837-6.758-3.533-10.112-1.681
		c-3.353,1.853-4.991,5.767-3.958,9.456c2.664,9.51,7.772,18.237,14.771,25.237c10.918,10.918,25.435,16.931,40.875,16.931
		s29.958-6.013,40.876-16.931c22.538-22.538,22.539-59.211,0-81.75C309.174,153.904,300.447,148.795,290.937,146.13z
		 M304.495,230.975c-7.798,7.799-18.168,12.094-29.197,12.094c-7.466,0-14.632-1.969-20.901-5.661
		c1.741,0.176,3.501,0.265,5.275,0.265c13.761,0,26.699-5.359,36.431-15.09c11.391-11.392,16.322-26.833,14.793-41.733
		C320.197,196.672,318.062,217.407,304.495,230.975z"/>
	<path style="fill:#111A21;" d="M468.324,82.581H43.676C19.594,82.581,0,102.173,0,126.257v259.487
		c0,24.083,19.594,43.675,43.676,43.675h424.647c24.083,0,43.676-19.593,43.676-43.676V126.257
		C512,102.173,492.406,82.581,468.324,82.581z M154.151,99.097v313.806H71.57V99.097H154.151z M16.516,385.743V126.257
		c0-14.977,12.183-27.16,27.16-27.16h11.377v313.806H43.676C28.7,412.903,16.516,400.72,16.516,385.743z M495.484,385.743
		c0,14.977-12.183,27.16-27.16,27.16H170.667V99.097h297.657c14.977,0,27.16,12.183,27.16,27.16V385.743z"/>
</g>
<g>
</g>
<g>
</g>
<g>
</g>
<g>
</g>
<g>
</g>
<g>
</g>
<g>
</g>
<g>
</g>
<g>
</g>
<g>
</g>
<g>
</g>
<g>
</g>
<g>
</g>
<g>
</g>
<g>
</g>
</svg>
