<?xml version="1.0" encoding="iso-8859-1"?>
<!-- Generator: Adobe Illustrator 19.0.0, SVG Export Plug-In . SVG Version: 6.00 Build 0)  -->
<svg version="1.1" id="Layer_1" xmlns="http://www.w3.org/2000/svg" xmlns:xlink="http://www.w3.org/1999/xlink" x="0px" y="0px"
	 viewBox="0 0 512 512" style="enable-background:new 0 0 512 512;" xml:space="preserve">
<path style="fill:#ED1F34;" d="M503.742,384.826V127.174c0-20.067-16.268-36.335-36.335-36.335H44.594
	c-20.067,0-36.335,16.268-36.335,36.335v257.652c0,20.067,16.268,36.335,36.335,36.335h422.813
	C487.474,421.161,503.742,404.893,503.742,384.826z"/>
<circle style="fill:#FFFFFF;" cx="256" cy="256" r="115.062"/>
<g>
	<path style="fill:#ED1F34;" d="M288.126,321.489c-36.168,0-65.489-29.321-65.489-65.489s29.321-65.489,65.489-65.489
		c11.009,0,21.375,2.728,30.482,7.528c-15.587-16.829-37.862-27.373-62.608-27.373c-47.128,0-85.333,38.205-85.333,85.333
		s38.205,85.333,85.333,85.333c24.747,0,47.021-10.545,62.608-27.373C309.502,318.76,299.136,321.489,288.126,321.489z"/>
	<polygon style="fill:#ED1F34;" points="301.213,221.867 299.914,246.999 276.417,256 299.914,265.001 301.213,290.133 
		317.034,270.564 341.333,277.095 327.614,256 341.333,234.905 317.034,241.436 	"/>
</g>
<g>
	<path style="fill:#111A21;" d="M314.758,306.655c-8.279,4.362-17.238,6.576-26.632,6.576c-31.557,0-57.232-25.674-57.232-57.231
		s25.674-57.231,57.232-57.231c9.392,0,18.353,2.212,26.632,6.576c1.284,0.676,2.687,0.992,4.043,0.95
		c4.481-0.09,8.087-3.752,8.087-8.256c0-2.362-0.99-4.491-2.579-5.995c-17.65-18.84-42.515-29.634-68.31-29.634
		c-51.606,0-93.591,41.985-93.591,93.591s41.985,93.591,93.591,93.591c25.968,0,50.996-10.941,68.666-30.019
		c2.734-2.952,2.943-7.445,0.494-10.637C322.711,305.742,318.319,304.78,314.758,306.655z M256,333.075
		c-42.499,0-77.075-34.576-77.075-77.075s34.576-77.075,77.075-77.075c8.146,0,16.177,1.307,23.806,3.794
		c-36.763,4.146-65.427,35.428-65.427,73.281s28.664,69.135,65.427,73.281C272.177,331.768,264.146,333.075,256,333.075z"/>
	<path style="fill:#111A21;" d="M337.464,256l10.792-16.593c1.865-2.868,1.768-6.589-0.242-9.357
		c-2.011-2.768-5.519-4.007-8.825-3.12l-19.111,5.138l-12.443-15.392c-2.15-2.66-5.72-3.717-8.973-2.661
		c-3.254,1.057-5.52,4.011-5.696,7.428l-1.021,19.768l-18.482,7.08c-3.194,1.224-5.304,4.291-5.304,7.712
		c0,3.421,2.11,6.488,5.304,7.712l18.482,7.08l1.021,19.768c0.176,3.417,2.442,6.371,5.696,7.428c0.84,0.273,1.699,0.405,2.55,0.405
		c2.45,0,4.827-1.092,6.423-3.066l12.443-15.392l19.111,5.138c0.767,0.207,1.535,0.297,2.317,0.282
		c4.491-0.08,8.107-3.746,8.107-8.257c0-1.862-0.615-3.58-1.655-4.96L337.464,256z M320.691,260.502l1.965,3.022l-3.479-0.935
		c-3.155-0.849-6.513,0.242-8.565,2.782l-2.264,2.8l-0.186-3.597c-0.168-3.261-2.243-6.118-5.294-7.286L299.502,256l3.366-1.289
		c3.051-1.168,5.124-4.024,5.294-7.286l0.186-3.597l2.264,2.8c2.053,2.54,5.411,3.628,8.565,2.782l3.479-0.935l-1.965,3.022
		C318.911,254.236,318.911,257.764,320.691,260.502z"/>
	<path style="fill:#111A21;" d="M468.324,82.581H43.676C19.594,82.581,0,102.173,0,126.256v259.487
		c0,24.084,19.594,43.676,43.676,43.676h424.647c24.083,0,43.676-19.593,43.676-43.676V126.256
		C512,102.173,492.406,82.581,468.324,82.581z M495.484,385.743c0,14.977-12.183,27.16-27.16,27.16H43.676
		c-14.977,0-27.16-12.183-27.16-27.16V126.256c0-14.976,12.183-27.159,27.16-27.159h424.647c14.977,0,27.16,12.183,27.16,27.159
		V385.743z"/>
</g>
<g>
</g>
<g>
</g>
<g>
</g>
<g>
</g>
<g>
</g>
<g>
</g>
<g>
</g>
<g>
</g>
<g>
</g>
<g>
</g>
<g>
</g>
<g>
</g>
<g>
</g>
<g>
</g>
<g>
</g>
</svg>
