<?xml version="1.0" encoding="iso-8859-1"?>
<!-- Generator: Adobe Illustrator 19.0.0, SVG Export Plug-In . SVG Version: 6.00 Build 0)  -->
<svg version="1.1" id="Layer_1" xmlns="http://www.w3.org/2000/svg" xmlns:xlink="http://www.w3.org/1999/xlink" x="0px" y="0px"
	 viewBox="0 0 512 512" style="enable-background:new 0 0 512 512;" xml:space="preserve">
<path style="fill:#ED1F34;" d="M467.406,421.161H44.594c-20.067,0-36.335-16.268-36.335-36.335V127.174
	c0-20.067,16.268-36.335,36.335-36.335h422.813c20.067,0,36.335,16.268,36.335,36.335v257.652
	C503.742,404.893,487.474,421.161,467.406,421.161z"/>
<path style="fill:#FFFFFF;" d="M8.258,256h214.986V90.839H43.492c-19.459,0-35.234,15.775-35.234,35.234V256z"/>
<g>
	<path style="fill:#ED1F34;" d="M115.751,220.215c-4.562,0-8.258-3.697-8.258-8.258v-77.075c0-4.561,3.696-8.258,8.258-8.258
		s8.258,3.697,8.258,8.258v77.075C124.009,216.518,120.312,220.215,115.751,220.215z"/>
	<path style="fill:#ED1F34;" d="M154.288,181.677H77.213c-4.562,0-8.258-3.697-8.258-8.258s3.696-8.258,8.258-8.258h77.075
		c4.562,0,8.258,3.697,8.258,8.258S158.85,181.677,154.288,181.677z"/>
</g>
<path style="fill:#111A21;" d="M468.324,82.581H43.676C19.594,82.581,0,102.173,0,126.256v259.487
	c0,24.084,19.594,43.676,43.676,43.676h424.647c24.083,0,43.676-19.593,43.676-43.676V126.256
	C512,102.173,492.406,82.581,468.324,82.581z M43.676,99.097h171.31v148.645H16.516V126.256
	C16.516,111.28,28.7,99.097,43.676,99.097z M495.484,385.743c0,14.977-12.183,27.16-27.16,27.16H43.676
	c-14.977,0-27.16-12.183-27.16-27.16V264.258h206.728c4.562,0,8.258-3.697,8.258-8.258V99.097h236.821
	c14.977,0,27.16,12.183,27.16,27.159V385.743z"/>
<g>
</g>
<g>
</g>
<g>
</g>
<g>
</g>
<g>
</g>
<g>
</g>
<g>
</g>
<g>
</g>
<g>
</g>
<g>
</g>
<g>
</g>
<g>
</g>
<g>
</g>
<g>
</g>
<g>
</g>
</svg>
