<?xml version="1.0" encoding="iso-8859-1"?>
<!-- Generator: Adobe Illustrator 19.0.0, SVG Export Plug-In . SVG Version: 6.00 Build 0)  -->
<svg version="1.1" id="Layer_1" xmlns="http://www.w3.org/2000/svg" xmlns:xlink="http://www.w3.org/1999/xlink" x="0px" y="0px"
	 viewBox="0 0 512 512" style="enable-background:new 0 0 512 512;" xml:space="preserve">
<path style="fill:#ED1F34;" d="M503.742,386.561V125.439c0-19.109-15.491-34.6-34.6-34.6H42.858c-19.109,0-34.6,15.491-34.6,34.6
	v261.123c0,19.109,15.491,34.6,34.6,34.6h426.285C488.251,421.161,503.742,405.67,503.742,386.561z"/>
<g>
	<polygon style="fill:#FFFFFF;" points="45.695,90.839 373.573,421.161 336.136,421.161 8.258,90.839 	"/>
	<polygon style="fill:#FFFFFF;" points="175.864,90.839 503.742,421.161 466.305,421.161 138.427,90.839 	"/>
</g>
<polygon style="fill:#333333;" points="138.427,90.839 466.305,421.161 373.573,421.161 45.695,90.839 "/>
<path style="fill:#121B21;" d="M468.324,82.581H43.676C19.593,82.581,0,102.174,0,126.257v259.486
	c0,24.083,19.593,43.676,43.676,43.676h424.648c24.082,0,43.675-19.594,43.675-43.676V126.257
	C512,102.174,492.406,82.581,468.324,82.581z M377.014,412.903L65.527,99.097h69.46l311.487,313.806H377.014z M16.516,385.743
	V126.257c0-14.512,11.44-26.403,25.775-27.125l311.451,313.771H43.676C28.7,412.903,16.516,400.72,16.516,385.743z M495.484,385.743
	c0,14.512-11.44,26.4-25.775,27.125L158.256,99.097h310.067c14.977,0,27.16,12.183,27.16,27.16V385.743z"/>
<g>
</g>
<g>
</g>
<g>
</g>
<g>
</g>
<g>
</g>
<g>
</g>
<g>
</g>
<g>
</g>
<g>
</g>
<g>
</g>
<g>
</g>
<g>
</g>
<g>
</g>
<g>
</g>
<g>
</g>
</svg>
