<?xml version="1.0" encoding="iso-8859-1"?>
<!-- Generator: Adobe Illustrator 19.0.0, SVG Export Plug-In . SVG Version: 6.00 Build 0)  -->
<svg version="1.1" id="Layer_1" xmlns="http://www.w3.org/2000/svg" xmlns:xlink="http://www.w3.org/1999/xlink" x="0px" y="0px"
	 viewBox="0 0 512.001 512.001" style="enable-background:new 0 0 512.001 512.001;" xml:space="preserve">
<path style="fill:#3DB4EA;" d="M8.258,384.286V127.731c0-20.37,16.513-36.884,36.884-36.884h421.716
	c20.37,0,36.884,16.513,36.884,36.884v256.556c0,20.37-16.513,36.884-36.884,36.884H45.142
	C24.772,421.17,8.258,404.657,8.258,384.286z"/>
<path style="fill:#103B9B;" d="M256,256.008H8.258V128.281c0-20.674,16.759-37.433,37.433-37.433H256V256.008z"/>
<path style="fill:#FFFFFF;" d="M132.129,146.63L48.454,90.847h-4.98c-16.718,0.094-30.683,11.768-34.296,27.41l82.756,55.172
	L8.258,229.21v26.798h40.196l83.675-55.783l83.675,55.784H256v-26.798l-83.675-55.783L256,117.645V90.847h-40.196L132.129,146.63z"
	/>
<path style="fill:#ED1F34;" d="M229.203,90.847l-110.466,73.652L20.815,99.217c-3.815,3.228-6.94,7.245-9.117,11.805l106.891,71.432
	L8.258,256.008h26.797l110.472-73.649L256,256.008v-17.484l-110.627-73.926L256,90.847H229.203z"/>
<polygon style="fill:#FFFFFF;" points="256,151.131 154.426,151.131 154.426,90.847 109.832,90.847 109.832,151.131 8.258,151.131 
	8.258,195.724 109.832,195.724 109.832,256.008 154.426,256.008 154.426,195.724 256,195.724 "/>
<polygon style="fill:#ED1F34;" points="256,161.453 144.103,161.453 144.103,90.847 120.155,90.847 120.155,161.453 8.258,161.453 
	8.258,185.402 120.155,185.402 120.155,256.008 144.103,256.008 144.103,185.402 256,185.402 "/>
<g>
	<circle style="fill:#FFE000;" cx="247.313" cy="366.956" r="13.763"/>
	<circle style="fill:#FFE000;" cx="310.613" cy="298.271" r="13.763"/>
	<circle style="fill:#FFE000;" cx="310.613" cy="353.49" r="13.763"/>
	<circle style="fill:#FFE000;" cx="368.519" cy="220.017" r="13.763"/>
	<circle style="fill:#FFE000;" cx="409.149" cy="206.551" r="13.763"/>
	<circle style="fill:#FFE000;" cx="449.778" cy="157.168" r="13.763"/>
	<circle style="fill:#FFE000;" cx="368.519" cy="340.024" r="13.763"/>
	<circle style="fill:#FFE000;" cx="409.149" cy="298.271" r="13.468"/>
	<circle style="fill:#FFE000;" cx="449.778" cy="273.893" r="13.763"/>
</g>
<path style="fill:#111A21;" d="M468.324,82.583H256.107c-0.036,0-0.07-0.006-0.107-0.006c-0.036,0-0.07,0.004-0.107,0.006H43.676
	C19.593,82.583,0,102.177,0,126.26v259.487c0,24.083,19.593,43.676,43.676,43.676h424.648c24.083,0,43.676-19.593,43.676-43.676
	V126.26C512,102.177,492.407,82.583,468.324,82.583z M43.676,99.1h204.066V247.75l-231.226-0.006V126.26
	C16.516,111.284,28.7,99.1,43.676,99.1z M495.484,385.747c0,14.976-12.183,27.16-27.16,27.16H43.676
	c-14.977-0.001-27.16-12.184-27.16-27.16V264.261L256,264.266c2.19,0,4.291-0.87,5.839-2.419c1.549-1.548,2.419-3.649,2.419-5.839
	V99.1h204.066c14.976,0,27.16,12.183,27.16,27.16V385.747z"/>
<g>
</g>
<g>
</g>
<g>
</g>
<g>
</g>
<g>
</g>
<g>
</g>
<g>
</g>
<g>
</g>
<g>
</g>
<g>
</g>
<g>
</g>
<g>
</g>
<g>
</g>
<g>
</g>
<g>
</g>
</svg>
