<?xml version="1.0" encoding="iso-8859-1"?>
<!-- Generator: Adobe Illustrator 19.0.0, SVG Export Plug-In . SVG Version: 6.00 Build 0)  -->
<svg version="1.1" id="Layer_1" xmlns="http://www.w3.org/2000/svg" xmlns:xlink="http://www.w3.org/1999/xlink" x="0px" y="0px"
	 viewBox="0 0 512.001 512.001" style="enable-background:new 0 0 512.001 512.001;" xml:space="preserve">
<path style="fill:#259245;" d="M354.854,90.837H43.677c-19.561,0-35.418,15.857-35.418,35.418v195.657L354.854,90.837z"/>
<path style="fill:#3DB4EA;" d="M157.135,421.158h311.189c19.56,0,35.418-15.857,35.418-35.418V190.095L157.135,421.158z"/>
<path style="fill:#FFE000;" d="M468.324,90.837H354.853L8.259,321.91v63.83c0,19.562,15.857,35.418,35.418,35.418h113.458
	l346.606-231.062v-63.84C503.741,106.694,487.885,90.837,468.324,90.837z"/>
<path style="fill:#333333;" d="M468.324,90.837h-63.846L8.259,354.993v30.747c0,19.562,15.857,35.418,35.418,35.418h63.832
	l396.231-264.146v-30.758C503.741,106.694,487.885,90.837,468.324,90.837z"/>
<path style="fill:#111A21;" d="M511.999,156.884v-30.628c0-24.083-19.594-43.676-43.676-43.676h-63.684
	c-0.085-0.002-0.168-0.001-0.253,0H43.677c-24.083,0-43.676,19.594-43.676,43.676v228.566c-0.002,0.101-0.001,0.203,0,0.304v30.615
	c0,24.083,19.592,43.676,43.676,43.676h63.726c0.036,0,0.072,0.007,0.107,0.007c0.03,0,0.059-0.007,0.09-0.007h360.724
	c24.083,0,43.676-19.594,43.676-43.676V157.183C512.001,157.083,512,156.984,511.999,156.884z M43.677,99.095h333.527
	L16.517,339.562V126.255C16.517,111.278,28.702,99.095,43.677,99.095z M16.517,385.74v-26.328L406.978,99.095h61.345
	c14.977,0,27.16,12.183,27.16,27.16v26.339L105.01,412.9H43.677C28.702,412.9,16.517,400.716,16.517,385.74z M468.323,412.9H134.786
	l360.699-240.457V385.74C495.483,400.716,483.3,412.9,468.323,412.9z"/>
<g>
</g>
<g>
</g>
<g>
</g>
<g>
</g>
<g>
</g>
<g>
</g>
<g>
</g>
<g>
</g>
<g>
</g>
<g>
</g>
<g>
</g>
<g>
</g>
<g>
</g>
<g>
</g>
<g>
</g>
</svg>
