<?xml version="1.0" encoding="iso-8859-1"?>
<!-- Generator: Adobe Illustrator 19.0.0, SVG Export Plug-In . SVG Version: 6.00 Build 0)  -->
<svg version="1.1" id="Layer_1" xmlns="http://www.w3.org/2000/svg" xmlns:xlink="http://www.w3.org/1999/xlink" x="0px" y="0px"
	 viewBox="0 0 512 512" style="enable-background:new 0 0 512 512;" xml:space="preserve">
<rect x="8.258" y="200.946" style="fill:#ED1F34;" width="495.484" height="55.054"/>
<g>
	<rect x="8.258" y="311.054" style="fill:#FFE000;" width="495.484" height="55.054"/>
	<rect x="8.258" y="145.892" style="fill:#FFE000;" width="495.484" height="55.054"/>
</g>
<g>
	<rect x="8.258" y="256" style="fill:#333333;" width="495.484" height="55.054"/>
	<path style="fill:#333333;" d="M468.324,90.839H43.676c-19.561,0-35.418,15.857-35.418,35.417v19.637h495.484v-19.637
		C503.742,106.695,487.885,90.839,468.324,90.839z"/>
</g>
<path style="fill:#ED1F34;" d="M8.258,385.743c0,19.561,15.858,35.418,35.418,35.418h424.648c19.561,0,35.418-15.857,35.418-35.418
	v-19.635H8.258V385.743z"/>
<path style="fill:#111A21;" d="M468.324,82.581H43.676C19.593,82.581,0,102.174,0,126.257v259.486
	c0,24.083,19.593,43.676,43.676,43.676h424.648c24.082,0,43.675-19.594,43.675-43.676V126.257
	C512,102.174,492.406,82.581,468.324,82.581z M16.516,192.688v-38.538h478.968v38.538H16.516z M495.484,209.204v38.538H16.516
	v-38.538H495.484z M16.516,319.312H41.29c4.561,0,8.258-3.696,8.258-8.258s-3.697-8.258-8.258-8.258H16.516v-38.538h478.968v38.538
	H74.323c-4.561,0-8.258,3.696-8.258,8.258s3.697,8.258,8.258,8.258h421.161v38.538H16.516V319.312z M43.676,99.097h424.648
	c14.976,0,27.159,12.183,27.159,27.16v11.377H16.516v-11.377C16.516,111.28,28.7,99.097,43.676,99.097z M468.324,412.903H43.676
	c-14.977,0-27.16-12.183-27.16-27.16v-11.377h478.968v11.377C495.484,400.72,483.3,412.903,468.324,412.903z"/>
<circle style="fill:#FFFFFF;" cx="256" cy="256" r="55.054"/>
<g>
	<path style="fill:#111A21;" d="M256,192.688c-34.911,0-63.312,28.401-63.312,63.312s28.401,63.312,63.312,63.312
		s63.312-28.401,63.312-63.312S290.911,192.688,256,192.688z M256,302.796c-25.804,0-46.796-20.992-46.796-46.796
		s20.992-46.796,46.796-46.796s46.796,20.992,46.796,46.796S281.804,302.796,256,302.796z"/>
	<path style="fill:#111A21;" d="M286.633,250.975l-14.737-7.263c-2.557-1.261-5.589-1.114-8.011,0.395
		c-2.423,1.506-3.897,4.158-3.897,7.012c0,2.199-1.789,3.988-3.988,3.988c-1.704,0-3.163-1.076-3.733-2.583l11.141-22.603
		c1.262-2.559,1.112-5.589-0.395-8.011c-1.507-2.423-4.159-3.897-7.013-3.897h-8.696c-4.561,0-8.258,3.696-8.258,8.258
		c0,3.087,1.693,5.777,4.202,7.194l-6.902,14.003c-0.559,1.135-0.851,2.385-0.851,3.65c0,8.368,5.044,15.569,12.247,18.754v15.857
		c0,4.562,3.697,8.258,8.258,8.258c4.562,0,8.258-3.696,8.258-8.258v-15.851c3.528-1.56,6.542-4.078,8.693-7.234l6.382,3.145
		c4.093,2.017,9.042,0.334,11.058-3.757C292.407,257.941,290.725,252.991,286.633,250.975z"/>
</g>
<g>
</g>
<g>
</g>
<g>
</g>
<g>
</g>
<g>
</g>
<g>
</g>
<g>
</g>
<g>
</g>
<g>
</g>
<g>
</g>
<g>
</g>
<g>
</g>
<g>
</g>
<g>
</g>
<g>
</g>
</svg>
