<?xml version="1.0" encoding="iso-8859-1"?>
<!-- Generator: Adobe Illustrator 19.0.0, SVG Export Plug-In . SVG Version: 6.00 Build 0)  -->
<svg version="1.1" id="Layer_1" xmlns="http://www.w3.org/2000/svg" xmlns:xlink="http://www.w3.org/1999/xlink" x="0px" y="0px"
	 viewBox="0 0 512 512" style="enable-background:new 0 0 512 512;" xml:space="preserve">
<path style="fill:#3DB4EA;" d="M468.783,90.839H43.217c-19.307,0-34.959,15.652-34.959,34.959v260.404
	c0,19.307,15.652,34.959,34.959,34.959h425.566c19.307,0,34.959-15.652,34.959-34.959V125.798
	C503.742,106.49,488.09,90.839,468.783,90.839z"/>
<g>
	<path style="fill:#FFFFFF;" d="M170.605,252.164c0.019,0.062,0.031,0.123,0.051,0.186c0.019,0.058,0.05,0.109,0.069,0.165
		c11.761,35.861,45.532,61.842,85.276,61.842s73.515-25.981,85.276-61.842c0.02-0.057,0.051-0.108,0.069-0.165
		c0.02-0.063,0.032-0.124,0.051-0.186c2.808-8.685,4.343-17.937,4.343-27.545c0-29.489-14.302-55.696-36.329-72.063
		c-0.209-0.188-0.431-0.367-0.663-0.535c-0.265-0.193-0.54-0.362-0.819-0.52c-14.67-10.448-32.585-16.62-51.927-16.62
		s-37.257,6.17-51.926,16.619c-0.28,0.159-0.555,0.327-0.82,0.521c-0.232,0.168-0.454,0.347-0.663,0.535
		c-22.029,16.368-36.331,42.574-36.331,72.063C166.262,234.227,167.796,243.479,170.605,252.164z M247.742,297.362
		c-25.995-2.932-47.898-19.526-58.36-42.415l23.255-7.556c6.984,13.244,19.851,22.913,35.106,25.515V297.362z M223.518,224.619
		c0-7.789,2.758-14.945,7.346-20.547l11.775,16.206l-19.064,6.195C223.54,225.858,223.518,225.241,223.518,224.619z
		 M247.742,256.034c-7.945-2.09-14.705-7.125-19.05-13.859l19.05-6.19V256.034z M288.404,226.465l-19.042-6.187l11.774-16.206
		c4.588,5.602,7.346,12.758,7.346,20.547C288.482,225.24,288.438,225.851,288.404,226.465z M264.258,235.985l19.045,6.189
		c-4.345,6.732-11.1,11.769-19.045,13.86V235.985z M256,210.571l-11.779-16.213c3.654-1.428,7.625-2.221,11.779-2.221
		c4.154,0,8.125,0.793,11.779,2.221L256,210.571z M264.258,297.362v-24.455c15.254-2.601,28.124-12.275,35.109-25.514l23.257,7.556
		C312.161,277.833,290.252,294.43,264.258,297.362z M329.222,224.619c0,5.01-0.521,9.898-1.483,14.626l-23.256-7.556
		c0.336-2.31,0.516-4.669,0.516-7.07c0-13.291-5.327-25.356-13.95-34.192l14.372-19.782
		C320.039,184.041,329.222,203.276,329.222,224.619z M256,151.398c13.107,0,25.41,3.478,36.064,9.535l-14.365,19.771
		c-6.546-3.247-13.91-5.083-21.699-5.083c-7.789,0-15.153,1.836-21.699,5.083l-14.365-19.771
		C230.59,154.876,242.893,151.398,256,151.398z M206.579,170.646l14.372,19.782c-8.623,8.836-13.95,20.901-13.95,34.192
		c0,2.401,0.182,4.76,0.516,7.07l-23.27,7.56c-0.962-4.729-1.47-9.621-1.47-14.63C182.779,203.276,191.961,184.041,206.579,170.646z
		"/>
	<path style="fill:#FFFFFF;" d="M383.982,224.619c0-27.112-8.413-53.041-24.329-74.985c-2.679-3.693-7.841-4.516-11.534-1.837
		c-3.693,2.678-4.514,7.842-1.837,11.534c13.858,19.107,21.182,41.682,21.182,65.288c0,61.461-50,111.464-111.46,111.467
		c-0.004,0-0.009,0-0.013,0c-61.46-0.003-111.459-50.006-111.459-111.467c0-23.605,7.324-46.181,21.182-65.288
		c2.678-3.692,1.856-8.856-1.837-11.534c-3.691-2.679-8.856-1.859-11.534,1.837c-15.916,21.944-24.329,47.874-24.329,74.985
		c0,62.895,45.602,115.337,105.477,126.002l-15.779,11.583c-3.678,2.699-4.47,7.867-1.771,11.543
		c2.7,3.681,7.868,4.471,11.543,1.771L256,354.589l28.513,20.928c1.472,1.08,3.183,1.602,4.88,1.602c2.54,0,5.045-1.169,6.664-3.373
		c2.699-3.676,1.906-8.844-1.771-11.543l-15.779-11.583C338.38,339.956,383.982,287.514,383.982,224.619z"/>
</g>
<path style="fill:#111A21;" d="M468.324,429.419H43.676C19.594,429.419,0,409.826,0,385.743V126.257
	c0-24.083,19.594-43.676,43.676-43.676h424.647c24.083,0,43.676,19.594,43.676,43.676v259.486
	C512,409.826,492.406,429.419,468.324,429.419z M43.676,99.097c-14.977,0-27.16,12.183-27.16,27.16v259.486
	c0,14.977,12.183,27.16,27.16,27.16h424.647c14.977,0,27.16-12.183,27.16-27.16V126.257c0-14.977-12.183-27.16-27.16-27.16H43.676z"
	/>
<g>
</g>
<g>
</g>
<g>
</g>
<g>
</g>
<g>
</g>
<g>
</g>
<g>
</g>
<g>
</g>
<g>
</g>
<g>
</g>
<g>
</g>
<g>
</g>
<g>
</g>
<g>
</g>
<g>
</g>
</svg>
