<?xml version="1.0" encoding="iso-8859-1"?>
<!-- Generator: Adobe Illustrator 19.0.0, SVG Export Plug-In . SVG Version: 6.00 Build 0)  -->
<svg version="1.1" id="Layer_1" xmlns="http://www.w3.org/2000/svg" xmlns:xlink="http://www.w3.org/1999/xlink" x="0px" y="0px"
	 viewBox="0 0 512 512" style="enable-background:new 0 0 512 512;" xml:space="preserve">
<path style="fill:#3DB4EA;" d="M503.742,385.376V126.624c0-19.763-16.022-35.785-35.785-35.785H44.043
	c-19.763,0-35.785,16.022-35.785,35.785v258.753c0,19.763,16.022,35.785,35.785,35.785h423.914
	C487.72,421.161,503.742,405.14,503.742,385.376z"/>
<g>
	<path style="fill:#FFFFFF;" d="M503.742,384.462v3.116c0,18.548-15.035,33.583-33.583,33.583H41.841
		c-18.548,0-33.583-15.035-33.583-33.583v-3.116H503.742z"/>
	<rect x="8.258" y="311.054" style="fill:#FFFFFF;" width="495.484" height="36.699"/>
	<path style="fill:#FFFFFF;" d="M503.742,127.538v-3.85c0-18.142-14.707-32.848-32.848-32.848H41.106
		c-18.141,0-32.848,14.707-32.848,32.848v150.668h495.484v-36.71H191.774v-36.699h311.968v-36.699H191.774v-36.71H503.742z"/>
</g>
<circle style="fill:#F2A643;" cx="99.416" cy="182.602" r="46.796"/>
<path style="fill:#121B21;" d="M468.324,82.581H43.676C19.593,82.581,0,102.174,0,126.257v259.486
	c0,24.083,19.593,43.676,43.676,43.676h424.648c24.083,0,43.675-19.594,43.675-43.676V126.257
	C512,102.174,492.407,82.581,468.324,82.581z M16.516,376.204v-20.194h57.806c4.561,0,8.258-3.696,8.258-8.258
	s-3.697-8.258-8.258-8.258H16.516v-20.183h478.968v20.183H107.355c-4.561,0-8.258,3.696-8.258,8.258s3.697,8.258,8.258,8.258
	h388.129v20.194L16.516,376.204L16.516,376.204z M16.516,282.613h478.968v20.183H16.516V282.613z M470.71,172.505h24.774v20.183
	H200.032v-20.183h237.645c4.561,0,8.258-3.696,8.258-8.258c0-4.562-3.697-8.258-8.258-8.258H200.032v-20.194h295.452v20.194H470.71
	c-4.561,0-8.258,3.696-8.258,8.258C462.452,168.809,466.149,172.505,470.71,172.505z M200.032,209.204h295.452v20.183H200.032
	V209.204z M43.676,99.097h424.648c12.564,0,23.159,8.577,26.246,20.183H191.774c-4.561,0-8.258,3.696-8.258,8.258v110.108
	c0,4.562,3.697,8.258,8.258,8.258h303.71v20.194H16.516v-139.84C16.516,111.28,28.7,99.097,43.676,99.097z M468.324,412.903H43.676
	c-12.564,0-23.159-8.577-26.246-20.183h477.142C491.483,404.326,480.888,412.903,468.324,412.903z"/>
<g>
</g>
<g>
</g>
<g>
</g>
<g>
</g>
<g>
</g>
<g>
</g>
<g>
</g>
<g>
</g>
<g>
</g>
<g>
</g>
<g>
</g>
<g>
</g>
<g>
</g>
<g>
</g>
<g>
</g>
</svg>
