<?xml version="1.0" encoding="iso-8859-1"?>
<!-- Generator: Adobe Illustrator 19.0.0, SVG Export Plug-In . SVG Version: 6.00 Build 0)  -->
<svg version="1.1" id="Layer_1" xmlns="http://www.w3.org/2000/svg" xmlns:xlink="http://www.w3.org/1999/xlink" x="0px" y="0px"
	 viewBox="0 0 512 512" style="enable-background:new 0 0 512 512;" xml:space="preserve">
<rect x="8.32" y="204.253" style="fill:#FFFFFF;" width="495.493" height="103.492"/>
<path style="fill:#3DB4EA;" d="M503.681,204.256H8.32v-78.4c0-19.393,15.68-35.072,35.072-35.072h425.409
	c19.392,0,35.072,15.68,35.072,35.072L503.681,204.256L503.681,204.256z"/>
<g>
	<path style="fill:#FFFFFF;" d="M191.872,182.56c-4.928,0-8.832-4.032-8.832-8.832s4.032-8.832,8.832-8.832
		c4.928,0,8.832,4.032,8.832,8.832S196.672,182.56,191.872,182.56z"/>
	<path style="fill:#FFFFFF;" d="M256,182.56c-4.928,0-8.832-4.032-8.832-8.832s4.032-8.832,8.832-8.832
		c4.928,0,8.768,4.032,8.768,8.832S260.928,182.56,256,182.56z"/>
	<path style="fill:#FFFFFF;" d="M223.872,182.56c-4.928,0-8.832-4.032-8.832-8.832s4.032-8.832,8.832-8.832
		c4.8,0,8.832,4.032,8.832,8.832S228.8,182.56,223.872,182.56z"/>
	<path style="fill:#FFFFFF;" d="M256,130.208c-4.928,0-8.832-4.032-8.832-8.832c0-4.928,4.032-8.832,8.832-8.832
		c4.928,0,8.768,4.032,8.768,8.832C264.768,126.304,260.928,130.208,256,130.208z"/>
	<path style="fill:#FFFFFF;" d="M159.808,182.56c-4.928,0-8.832-4.032-8.832-8.832s4.032-8.832,8.832-8.832
		c4.928,0,8.832,4.032,8.832,8.832S164.672,182.56,159.808,182.56z"/>
	<path style="fill:#FFFFFF;" d="M191.872,156.128c-4.928,0-8.832-4.032-8.832-8.832c0-4.928,4.032-8.832,8.832-8.832
		c4.928,0,8.832,4.032,8.832,8.832C200.704,152.096,196.672,156.128,191.872,156.128z"/>
	<path style="fill:#FFFFFF;" d="M223.872,156.128c-4.928,0-8.832-4.032-8.832-8.832c0-4.928,4.032-8.832,8.832-8.832
		c4.8,0,8.832,4.032,8.832,8.832C232.704,152.096,228.8,156.128,223.872,156.128z"/>
	<path style="fill:#FFFFFF;" d="M191.872,130.208c-4.928,0-8.832-4.032-8.832-8.832c0-4.928,4.032-8.832,8.832-8.832
		c4.928,0,8.832,4.032,8.832,8.832C200.704,126.304,196.672,130.208,191.872,130.208z"/>
	<path style="fill:#FFFFFF;" d="M223.872,130.208c-4.928,0-8.832-4.032-8.832-8.832c0-4.928,4.032-8.832,8.832-8.832
		c4.8,0,8.832,4.032,8.832,8.832C232.704,126.304,228.8,130.208,223.872,130.208z"/>
	<path style="fill:#FFFFFF;" d="M159.808,156.128c-4.928,0-8.832-4.032-8.832-8.832c0-4.928,4.032-8.832,8.832-8.832
		c4.928,0,8.832,4.032,8.832,8.832C168.64,152.096,164.672,156.128,159.808,156.128z"/>
	<path style="fill:#FFFFFF;" d="M127.808,182.56c-4.928,0-8.832-4.032-8.832-8.832s4.032-8.832,8.832-8.832
		c4.928,0,8.832,4.032,8.832,8.832S132.608,182.56,127.808,182.56z"/>
	<path style="fill:#FFFFFF;" d="M256,156.128c-4.928,0-8.832-4.032-8.832-8.832c0-4.928,4.032-8.832,8.832-8.832
		c4.928,0,8.768,4.032,8.768,8.832C264.768,152.096,260.928,156.128,256,156.128z"/>
</g>
<path style="fill:#259245;" d="M469.824,421.217H42.176c-18.688,0-33.92-15.232-33.92-33.92v-79.488h495.488v79.488
	C503.681,406.048,488.512,421.217,469.824,421.217z"/>
<g>
	<path style="fill:#B21727;" d="M497.216,316.064H14.784c-4.48,0-8.064-3.712-8.064-8.32s3.584-8.32,8.064-8.32h482.497
		c4.48,0,8.064,3.712,8.064,8.32C505.281,312.353,501.696,316.064,497.216,316.064z"/>
	<path style="fill:#B21727;" d="M497.216,212.512H14.784c-4.48,0-8.064-3.712-8.064-8.32c0-4.608,3.584-8.32,8.064-8.32h482.497
		c4.48,0,8.064,3.712,8.064,8.32C505.344,208.8,501.696,212.512,497.216,212.512z"/>
</g>
<path style="fill:#FFFFFF;" d="M96.32,182.24c-19.072,0-34.688-15.616-34.688-34.688s15.616-34.688,34.688-34.688
	c4.608,0,8.32,3.712,8.32,8.32s-3.712,8.32-8.32,8.32c-9.984,0-18.176,8.192-18.176,18.176s8.192,18.176,18.176,18.176
	c4.608,0,8.32,3.712,8.32,8.32C104.64,178.784,100.8,182.24,96.32,182.24z"/>
<path style="fill:#111A21;" d="M468.288,429.408H43.712C19.584,429.408,0,409.825,0,385.696V126.304
	c0-24.128,19.584-43.712,43.712-43.712h424.576c24.128,0,43.712,19.584,43.712,43.712v259.52
	C512,409.825,492.416,429.408,468.288,429.408z M43.712,99.105c-14.976,0-27.2,12.224-27.2,27.2v259.519
	c0,14.976,12.224,27.2,27.2,27.2h424.576c14.976,0,27.2-12.224,27.2-27.2v-259.52c0-14.976-12.224-27.2-27.2-27.2L43.712,99.105
	L43.712,99.105z"/>
<g>
</g>
<g>
</g>
<g>
</g>
<g>
</g>
<g>
</g>
<g>
</g>
<g>
</g>
<g>
</g>
<g>
</g>
<g>
</g>
<g>
</g>
<g>
</g>
<g>
</g>
<g>
</g>
<g>
</g>
</svg>
