<?xml version="1.0" encoding="iso-8859-1"?>
<!-- Generator: Adobe Illustrator 19.0.0, SVG Export Plug-In . SVG Version: 6.00 Build 0)  -->
<svg version="1.1" id="Layer_1" xmlns="http://www.w3.org/2000/svg" xmlns:xlink="http://www.w3.org/1999/xlink" x="0px" y="0px"
	 viewBox="0 0 512 512" style="enable-background:new 0 0 512 512;" xml:space="preserve">
<path style="fill:#FFE000;" d="M43.676,90.839c-19.562,0-35.418,15.857-35.418,35.417v259.487c0,19.561,15.857,35.418,35.418,35.418
	H256V90.839H43.676z"/>
<path style="fill:#FFFFFF;" d="M468.324,90.839H256v330.323h212.324c19.561,0,35.418-15.857,35.418-35.418V126.256
	C503.742,106.695,487.885,90.839,468.324,90.839z"/>
<g>
	<path style="fill:#999999;" d="M340.6,317.66c-6.679,0-12.96-2.601-17.682-7.324c-4.723-4.723-7.323-11.002-7.323-17.682
		c0-6.679,2.601-12.959,7.324-17.682c4.721-4.723,11.001-7.323,17.681-7.323c6.679,0,12.959,2.601,17.682,7.324
		c4.723,4.723,7.323,11.002,7.323,17.681c0,6.679-2.601,12.96-7.324,17.682C353.559,315.059,347.279,317.66,340.6,317.66z
		 M340.6,284.165c-2.268,0-4.399,0.883-6.002,2.486c-1.604,1.604-2.487,3.736-2.487,6.003c0,2.267,0.883,4.4,2.486,6.003
		c1.604,1.604,3.736,2.487,6.003,2.487c2.268,0,4.399-0.883,6.002-2.486c1.604-1.604,2.487-3.736,2.487-6.003
		c0-2.267-0.883-4.399-2.486-6.002C344.999,285.049,342.868,284.165,340.6,284.165z"/>
	<path style="fill:#999999;" d="M352.442,289.071c-2.114,0-4.227-0.806-5.84-2.419c-3.225-3.225-3.225-8.454,0-11.678l78.215-78.215
		c3.226-3.226,8.454-3.225,11.679,0c3.225,3.225,3.225,8.454,0,11.678l-78.215,78.215
		C356.669,288.264,354.555,289.071,352.442,289.071z"/>
	<path style="fill:#999999;" d="M420.687,244.51c-2.114,0-4.227-0.806-5.84-2.419l-11.842-11.842
		c-3.225-3.225-3.225-8.454,0.001-11.678c3.225-3.225,8.454-3.225,11.679,0l11.842,11.842c3.225,3.225,3.225,8.454-0.001,11.678
		C424.914,243.704,422.8,244.51,420.687,244.51z"/>
	<path style="fill:#999999;" d="M435.889,229.308c-2.114,0-4.227-0.806-5.84-2.419l-11.842-11.842
		c-3.225-3.225-3.225-8.454,0.001-11.678c3.225-3.225,8.454-3.225,11.678,0l11.842,11.842c3.225,3.225,3.225,8.454-0.001,11.678
		C440.116,228.502,438.002,229.308,435.889,229.308z"/>
	<path style="fill:#999999;" d="M419.142,317.66c-6.679,0-12.959-2.601-17.682-7.324c-4.723-4.723-7.323-11.002-7.323-17.682
		c0-6.679,2.601-12.959,7.324-17.682c4.721-4.723,11.001-7.323,17.681-7.323c6.679,0,12.96,2.601,17.682,7.324
		c4.723,4.723,7.323,11.002,7.323,17.681c0,6.679-2.601,12.96-7.324,17.682C432.1,315.059,425.821,317.66,419.142,317.66z
		 M419.142,284.165c-2.268,0-4.399,0.883-6.002,2.486c-1.604,1.604-2.487,3.736-2.487,6.003c0,2.267,0.883,4.4,2.486,6.003
		c1.604,1.604,3.736,2.487,6.003,2.487c2.268,0,4.399-0.883,6.002-2.486c1.604-1.604,2.487-3.736,2.487-6.003
		c0-2.267-0.883-4.399-2.486-6.002C423.541,285.049,421.41,284.165,419.142,284.165z"/>
	<path style="fill:#999999;" d="M407.3,289.071c-2.113,0-4.227-0.807-5.84-2.419l-78.215-78.215c-3.225-3.225-3.225-8.454,0-11.678
		c3.226-3.225,8.454-3.225,11.679,0l78.215,78.215c3.225,3.225,3.225,8.454,0,11.678C411.527,288.264,409.413,289.071,407.3,289.071
		z"/>
	<path style="fill:#999999;" d="M339.055,244.51c-2.113,0-4.227-0.806-5.839-2.419c-3.226-3.225-3.226-8.453-0.001-11.678
		l11.842-11.842c3.226-3.225,8.455-3.226,11.679,0c3.226,3.225,3.226,8.453,0.001,11.678l-11.842,11.842
		C343.282,243.704,341.168,244.51,339.055,244.51z"/>
	<path style="fill:#999999;" d="M323.853,229.308c-2.113,0-4.227-0.806-5.839-2.419c-3.226-3.225-3.226-8.453-0.001-11.678
		l11.842-11.842c3.226-3.225,8.455-3.226,11.678,0c3.226,3.225,3.226,8.453,0.001,11.678l-11.842,11.842
		C328.08,228.502,325.966,229.308,323.853,229.308z"/>
</g>
<path style="fill:#121B21;" d="M468.324,82.581H43.676C19.594,82.581,0,102.173,0,126.256v259.487
	c0,24.084,19.594,43.676,43.676,43.676h424.647c24.083,0,43.676-19.593,43.676-43.676V126.256
	C512,102.173,492.406,82.581,468.324,82.581z M495.484,385.743c0,14.977-12.183,27.16-27.16,27.16H264.258v-256
	c0-4.561-3.696-8.258-8.258-8.258c-4.562,0-8.258,3.697-8.258,8.258v256H43.676c-14.977,0-27.16-12.183-27.16-27.16V126.256
	c0-14.976,12.183-27.159,27.16-27.159h204.066v24.774c0,4.561,3.696,8.258,8.258,8.258c4.562,0,8.258-3.697,8.258-8.258V99.097
	h204.066c14.977,0,27.16,12.183,27.16,27.159V385.743z"/>
<g>
</g>
<g>
</g>
<g>
</g>
<g>
</g>
<g>
</g>
<g>
</g>
<g>
</g>
<g>
</g>
<g>
</g>
<g>
</g>
<g>
</g>
<g>
</g>
<g>
</g>
<g>
</g>
<g>
</g>
</svg>
