<?xml version="1.0" encoding="iso-8859-1"?>
<!-- Generator: Adobe Illustrator 19.0.0, SVG Export Plug-In . SVG Version: 6.00 Build 0)  -->
<svg version="1.1" id="Layer_1" xmlns="http://www.w3.org/2000/svg" xmlns:xlink="http://www.w3.org/1999/xlink" x="0px" y="0px"
	 viewBox="0 0 512 512" style="enable-background:new 0 0 512 512;" xml:space="preserve">
<path style="fill:#103B9B;" d="M8.258,383.725V128.275c0-20.676,16.761-37.437,37.437-37.437h420.611
	c20.676,0,37.437,16.761,37.437,37.437v255.449c0,20.676-16.761,37.437-37.437,37.437H45.695
	C25.019,421.161,8.258,404.401,8.258,383.725z"/>
<path style="fill:#FFFFFF;" d="M256,90.839h-40.196l-83.675,55.784L48.454,90.839H35.055c-14.8,0-26.797,11.997-26.797,26.797l0,0
	l83.675,55.784L8.258,229.203V256h40.196l83.675-55.784L215.804,256H256v-26.797l-83.675-55.784L256,117.637V90.839z"/>
<path style="fill:#ED1F34;" d="M256,90.839h-26.797l-110.466,73.652l-95.603-63.736c-6.359-4.239-14.876,0.319-14.876,7.961l0,0
	l110.33,73.73L8.258,256h26.797l110.472-73.648L256,256v-17.484L145.373,164.59L256,90.839z"/>
<polygon style="fill:#FFFFFF;" points="256,151.123 154.426,151.123 154.426,90.839 109.832,90.839 109.832,151.123 8.258,151.123 
	8.258,195.716 109.832,195.716 109.832,256 154.426,256 154.426,195.716 256,195.716 "/>
<polygon style="fill:#ED1F34;" points="256,161.445 144.103,161.445 144.103,90.839 120.155,90.839 120.155,161.445 8.258,161.445 
	8.258,185.394 120.155,185.394 120.155,256 144.103,256 144.103,185.394 256,185.394 "/>
<path style="fill:#259245;" d="M324.817,170.796v89.12c0,41.967,55.054,55.964,55.054,55.964s55.054-13.998,55.054-55.964v-89.12
	H324.817z"/>
<path style="fill:#FFE000;" d="M355.647,275.488c-4.562,0-8.258-3.697-8.258-8.258v-63.402c0-4.561,3.696-8.258,8.258-8.258
	c4.562,0,8.258,3.697,8.258,8.258v63.402C363.905,271.791,360.209,275.488,355.647,275.488z"/>
<path style="fill:#FFFFFF;" d="M379.871,286.499c-4.562,0-8.258-3.697-8.258-8.258v-74.413c0-4.561,3.696-8.258,8.258-8.258
	s8.258,3.697,8.258,8.258v74.413C388.129,282.801,384.433,286.499,379.871,286.499z"/>
<g>
	<path style="fill:#FFE000;" d="M404.095,275.488c-4.562,0-8.258-3.697-8.258-8.258v-63.402c0-4.561,3.696-8.258,8.258-8.258
		s8.258,3.697,8.258,8.258v63.402C412.353,271.791,408.656,275.488,404.095,275.488z"/>
	<path style="fill:#FFE000;" d="M379.871,349.463c-21.148,0-41.851-7.291-58.293-20.53c-6.118-4.925-11.561-10.597-16.219-16.834
		c-0.811,3.708-4.115,6.485-8.068,6.485c-4.562,0-8.258-3.697-8.258-8.258v-34.711c0-4.198,3.15-7.73,7.321-8.205
		c4.179-0.475,8.037,2.254,8.983,6.344c8.055,34.851,38.706,59.192,74.534,59.192s66.479-24.34,74.534-59.192
		c0.946-4.092,4.815-6.819,8.983-6.344c4.171,0.476,7.321,4.007,7.321,8.205v34.711c0,4.561-3.696,8.258-8.258,8.258
		c-3.953,0-7.256-2.777-8.068-6.485c-4.658,6.238-10.102,11.909-16.219,16.834C421.722,342.172,401.019,349.463,379.871,349.463z"/>
</g>
<g>
	<path style="fill:#1A1C20;" d="M434.925,162.537H324.817c-4.562,0-8.258,3.697-8.258,8.258v89.12
		c0,47.838,58.775,63.332,61.277,63.968c0.666,0.17,1.351,0.254,2.035,0.254s1.368-0.085,2.035-0.254
		c2.502-0.636,61.277-16.13,61.277-63.968v-89.12C443.183,166.235,439.487,162.537,434.925,162.537z M426.667,259.915
		c0,30.809-37.525,44.461-46.796,47.363c-9.271-2.9-46.796-16.552-46.796-47.363v-80.862h93.591V259.915z"/>
	<path style="fill:#1A1C20;" d="M468.324,82.581H43.676C19.593,82.581,0,102.173,0,126.256v259.487
		c0,24.084,19.593,43.676,43.676,43.676h424.648c24.082,0,43.675-19.593,43.675-43.676V126.256
		C512,102.173,492.406,82.581,468.324,82.581z M495.484,385.743c0,14.977-12.183,27.16-27.16,27.16H43.676
		c-14.977,0-27.16-12.183-27.16-27.16V126.256c0-14.976,12.183-27.159,27.16-27.159h424.648c14.976,0,27.159,12.183,27.159,27.159
		V385.743z"/>
</g>
<g>
</g>
<g>
</g>
<g>
</g>
<g>
</g>
<g>
</g>
<g>
</g>
<g>
</g>
<g>
</g>
<g>
</g>
<g>
</g>
<g>
</g>
<g>
</g>
<g>
</g>
<g>
</g>
<g>
</g>
</svg>
