<?xml version="1.0" encoding="iso-8859-1"?>
<!-- Generator: Adobe Illustrator 19.0.0, SVG Export Plug-In . SVG Version: 6.00 Build 0)  -->
<svg version="1.1" id="Layer_1" xmlns="http://www.w3.org/2000/svg" xmlns:xlink="http://www.w3.org/1999/xlink" x="0px" y="0px"
	 viewBox="0 0 512 512" style="enable-background:new 0 0 512 512;" xml:space="preserve">
<path style="fill:#FFFFFF;" d="M8.258,387.578V124.422c0-18.548,15.035-33.583,33.583-33.583h428.318
	c18.548,0,33.583,15.035,33.583,33.583v263.157c0,18.548-15.035,33.583-33.583,33.583H41.841
	C23.293,421.161,8.258,406.126,8.258,387.578z"/>
<g>
	<path style="fill:#FFE000;" d="M256,301.607c0,0-7.256-3.806-15.77-11.511l-7.356,50.687h46.253l-7.357-50.687
		C263.256,297.8,256,301.607,256,301.607z"/>
	<path style="fill:#FFE000;" d="M213.519,233.41c0-1.844,0.084-3.66,0.206-5.46c-13.049-5.381-22.236-18.221-22.236-33.211h-47.459
		c0,46.3,37.533,83.834,83.834,83.834c0.532,0,1.057-0.031,1.587-0.04C220.868,267.517,213.519,252.512,213.519,233.41z"/>
</g>
<path id="SVGCleanerId_0" style="fill:#FFE000;" d="M298.481,233.41c0-1.844-0.084-3.66-0.206-5.46
	c13.049-5.381,22.236-18.221,22.236-33.211h47.459c0,46.3-37.533,83.834-83.834,83.834c-0.532,0-1.057-0.031-1.587-0.04
	C291.132,267.517,298.481,252.512,298.481,233.41z"/>
<path style="fill:#FFE000;" d="M213.725,227.95c-13.049-5.381-22.236-18.221-22.236-33.211h-47.459
	c0,46.3,37.533,83.834,83.834,83.834c0.532,0,1.057-0.031,1.587-0.04"/>
<g>
	<path id="SVGCleanerId_0_1_" style="fill:#FFE000;" d="M298.481,233.41c0-1.844-0.084-3.66-0.206-5.46
		c13.049-5.381,22.236-18.221,22.236-33.211h47.459c0,46.3-37.533,83.834-83.834,83.834c-0.532,0-1.057-0.031-1.587-0.04
		C291.132,267.517,298.481,252.512,298.481,233.41z"/>
</g>
<path style="fill:#FFFFFF;" d="M292.061,202.542c-4.084,6.388-10.634,10.559-18.04,10.559c-7.405,0-13.955-4.17-18.046-10.559
	c-4.084,6.388-10.634,10.559-18.04,10.559c-7.405,0-13.968-4.17-18.046-10.559c-4.024,8.962-6.37,19.535-6.37,30.869
	c0,45.931,42.481,68.196,42.481,68.196s42.481-22.265,42.481-68.196C298.481,222.077,296.134,211.504,292.061,202.542z"/>
<g>
	<path style="fill:#ED1F34;" d="M241.84,299.781c-4.562,0-8.258-3.696-8.258-8.258V240.16c0-4.561,3.696-8.258,8.258-8.258
		c4.562,0,8.258,3.697,8.258,8.258v51.363C250.098,296.084,246.401,299.781,241.84,299.781z"/>
	<path style="fill:#ED1F34;" d="M270.16,299.781c-4.562,0-8.258-3.696-8.258-8.258V240.16c0-4.561,3.696-8.258,8.258-8.258
		c4.562,0,8.258,3.697,8.258,8.258v51.363C278.418,296.084,274.722,299.781,270.16,299.781z"/>
</g>
<path style="fill:#164FCE;" d="M213.837,240.159h84.327c0.204-2.191,0.316-4.438,0.316-6.75c0-11.332-2.345-21.906-6.395-30.869
	c-4.108,6.388-10.66,10.559-18.064,10.559c-7.405,0-13.956-4.17-18.046-10.559c-4.084,6.388-10.635,10.559-18.04,10.559
	c-7.396,0-13.952-4.161-18.03-10.536c-4.042,8.957-6.385,19.522-6.385,30.846C213.519,235.72,213.632,237.969,213.837,240.159z"/>
<g>
	<path style="fill:#3DB4EA;" d="M81.497,306.333c-3.661,0-6.885-2.41-7.92-5.923l-14.348-48.653
		c-1.29-4.375,1.21-8.967,5.585-10.258c4.371-1.289,8.966,1.211,10.255,5.585l6.428,21.794l6.427-21.794
		c1.289-4.375,5.88-6.875,10.255-5.585c4.376,1.29,6.875,5.882,5.585,10.258l-14.347,48.653
		C88.382,303.922,85.158,306.333,81.497,306.333z"/>
	<path style="fill:#3DB4EA;" d="M444.852,306.333c-4.562,0-8.258-3.696-8.258-8.258v-48.653c0-4.561,3.696-8.258,8.258-8.258
		s8.258,3.697,8.258,8.258v48.653C453.11,302.636,449.413,306.333,444.852,306.333z"/>
</g>
<g>
	<path style="fill:#1A1C20;" d="M419.033,186.481h-51.065H320.51c-4.562,0-8.258,3.697-8.258,8.258
		c0,7.324-2.864,14.125-7.725,19.17c-1.178-5.14-2.797-10.101-4.883-14.749c-1.243-2.768-3.903-4.632-6.93-4.854
		c-0.02-0.001-0.04,0.001-0.061,0c-0.002,0-0.003,0-0.005,0c-0.108-0.008-0.214,0.002-0.322-0.001
		c-0.253-0.007-0.508-0.019-0.758-0.002c-2.612,0.157-5.032,1.548-6.466,3.792c-2.738,4.282-6.769,6.74-11.061,6.747
		c-3.671-0.007-7.143-1.816-9.785-5.014v-28.611c0-4.561-3.696-8.258-8.258-8.258H233.53c-4.562,0-8.258,3.697-8.258,8.258
		s3.696,8.258,8.258,8.258h14.212v20.351c-2.643,3.199-6.114,5.008-9.785,5.014c-4.292-0.008-8.323-2.465-11.061-6.747
		c-1.434-2.243-3.834-3.638-6.458-3.793c-0.299-0.02-0.603-0.01-0.908,0.003c-0.059,0.002-0.118-0.003-0.177,0.001
		c-0.001,0-0.003,0-0.004,0c-0.021,0.001-0.041-0.001-0.061,0c-3.027,0.221-5.687,2.085-6.93,4.854
		c-2.087,4.648-3.705,9.61-4.883,14.749c-4.861-5.045-7.725-11.845-7.725-19.17c0-4.561-3.696-8.258-8.258-8.258h-47.459H92.967
		c-4.562,0-8.258,3.697-8.258,8.258s3.696,8.258,8.258,8.258h43.195c0.328,3.673,0.863,7.288,1.612,10.826h-21.318
		c-4.562,0-8.258,3.697-8.258,8.258s3.696,8.258,8.258,8.258h26.482c1.575,3.744,3.406,7.352,5.443,10.826h-8.435
		c-4.562,0-8.258,3.697-8.258,8.258c0,4.561,3.696,8.258,8.258,8.258h20.783c16.294,17.369,39.221,28.423,64.702,29.089
		c1.989,2.336,4.008,4.485,6.002,6.446l-6.732,46.382c-0.346,2.372,0.359,4.778,1.927,6.589c1.569,1.813,3.848,2.855,6.245,2.855
		h46.254c2.397,0,4.676-1.042,6.245-2.855c1.568-1.812,2.272-4.217,1.927-6.589l-6.732-46.382c1.994-1.961,4.013-4.109,6.002-6.446
		c25.481-0.666,48.409-11.72,64.702-29.089h20.783c4.562,0,8.258-3.696,8.258-8.258c0-4.561-3.696-8.258-8.258-8.258h-8.435
		c2.037-3.474,3.868-7.082,5.443-10.826h26.482c4.562,0,8.258-3.697,8.258-8.258c0-4.561-3.696-8.258-8.258-8.258h-21.318
		c0.749-3.538,1.284-7.151,1.612-10.826h43.195c4.562,0,8.258-3.697,8.258-8.258C427.291,190.179,423.595,186.481,419.033,186.481z
		 M275.366,274.451c-2.723,3.395-5.565,6.343-8.291,8.861c-0.586,0.406-1.113,0.883-1.572,1.42
		c-3.673,3.229-7.039,5.636-9.479,7.232c-2.588-1.711-6.255-4.375-10.231-7.973c-0.006-0.006-0.012-0.011-0.018-0.017
		c-10.842-9.818-23.996-26.65-23.996-50.564c0-1.375,0.039-2.744,0.116-4.104c0.007-0.116,0.022-0.23,0.03-0.346
		c0.003-0.048,0.009-0.096,0.012-0.143c0.011-0.098,0.019-0.195,0.025-0.293c0.257-3.803,0.796-7.539,1.638-11.135
		c4.362,2.57,9.277,3.969,14.338,3.969c0.007,0,0.012-0.001,0.019-0.001c0.008,0,0.017,0.001,0.024,0.001
		c6.539,0,12.84-2.346,18.021-6.533c5.182,4.186,11.482,6.533,18.021,6.533c0.008,0,0.017-0.001,0.024-0.001
		c0.007,0,0.012,0.001,0.019,0.001c5.062,0,9.976-1.401,14.338-3.969c0.841,3.597,1.381,7.332,1.637,11.135
		c0.007,0.097,0.014,0.195,0.025,0.293c0.005,0.088,0.018,0.176,0.022,0.264c0.004,0.075,0.014,0.149,0.019,0.224
		c0.077,1.361,0.116,2.73,0.116,4.105c0,16.412-6.085,29.431-13.391,39.151C276.258,273.115,275.762,273.75,275.366,274.451z
		 M171.366,244.854c-0.392-0.589-0.862-1.12-1.387-1.589c-9.365-11.152-15.578-25.035-17.241-40.267h31.263
		c2.373,12.587,10.103,23.522,21.273,29.969c-0.001,0.149-0.011,0.296-0.011,0.444c0,13.799,3.384,25.624,8.329,35.551
		C196.93,265.764,182.21,257.067,171.366,244.854z M269.584,332.525h-27.168l3.94-27.142c3.233,2.161,5.421,3.332,5.811,3.537
		c1.2,0.629,2.517,0.944,3.833,0.944s2.634-0.315,3.833-0.944c0.391-0.205,2.579-1.376,5.811-3.537L269.584,332.525z
		 M298.41,268.962c4.946-9.927,8.329-21.753,8.329-35.551c0-0.149-0.011-0.296-0.011-0.444c11.169-6.446,18.9-17.382,21.273-29.969
		h31.263c-1.663,15.233-7.876,29.116-17.241,40.267c-0.526,0.469-0.995,1-1.387,1.589
		C329.79,257.067,315.069,265.764,298.41,268.962z"/>
	<path style="fill:#1A1C20;" d="M468.324,82.581H43.676C19.594,82.581,0,102.173,0,126.256v259.487
		c0,24.083,19.594,43.676,43.676,43.676h424.647c24.083,0,43.676-19.594,43.676-43.676V126.256
		C512,102.173,492.406,82.581,468.324,82.581z M495.484,385.743c0,14.977-12.183,27.16-27.16,27.16H43.676
		c-14.977,0-27.16-12.183-27.16-27.16V126.256c0-14.976,12.183-27.159,27.16-27.159h424.647c14.977,0,27.16,12.183,27.16,27.159
		V385.743z"/>
</g>
<g>
</g>
<g>
</g>
<g>
</g>
<g>
</g>
<g>
</g>
<g>
</g>
<g>
</g>
<g>
</g>
<g>
</g>
<g>
</g>
<g>
</g>
<g>
</g>
<g>
</g>
<g>
</g>
<g>
</g>
</svg>
