<?xml version="1.0" encoding="iso-8859-1"?>
<!-- Generator: Adobe Illustrator 19.0.0, SVG Export Plug-In . SVG Version: 6.00 Build 0)  -->
<svg version="1.1" id="Layer_1" xmlns="http://www.w3.org/2000/svg" xmlns:xlink="http://www.w3.org/1999/xlink" x="0px" y="0px"
	 viewBox="0 0 512 512" style="enable-background:new 0 0 512 512;" xml:space="preserve">
<path style="fill:#ED1F34;" d="M503.742,384.069V127.932c0-20.486-16.606-37.093-37.093-37.093H45.351
	c-20.487,0-37.093,16.606-37.093,37.093v256.138c0,20.486,16.606,37.093,37.093,37.093H466.65
	C487.136,421.161,503.742,404.555,503.742,384.069z"/>
<polygon style="fill:#FFE000;" points="169.169,236.505 233.102,233.202 256,173.419 278.898,233.202 342.831,236.505 
	293.049,276.756 309.664,338.581 256,303.674 202.336,338.581 218.951,276.756 "/>
<g>
	<path style="fill:#121B21;" d="M343.256,228.258l-58.567-3.026l-20.977-54.766c-1.223-3.194-4.29-5.304-7.712-5.304
		c-3.422,0-6.489,2.11-7.712,5.304l-20.977,54.766l-58.567,3.026c-3.418,0.176-6.371,2.442-7.428,5.696s0.001,6.822,2.661,8.974
		l45.604,36.873l-15.221,56.638c-0.889,3.303,0.353,6.813,3.122,8.824c2.768,2.011,6.488,2.106,9.357,0.242L256,313.528
		l49.161,31.977c1.372,0.893,2.939,1.336,4.503,1.336c1.707,0,3.41-0.527,4.854-1.578c2.768-2.011,4.01-5.521,3.122-8.824
		l-15.221-56.638l45.604-36.873c2.66-2.15,3.718-5.719,2.661-8.974C349.627,230.701,346.674,228.435,343.256,228.258z
		 M287.857,270.335c-2.54,2.054-3.63,5.411-2.782,8.564l11.02,41.003l-35.59-23.15c-1.369-0.891-2.937-1.336-4.503-1.336
		c-1.567,0-3.135,0.445-4.503,1.336l-35.59,23.15l11.02-41.003c0.848-3.153-0.243-6.511-2.782-8.564L191.13,243.64l42.4-2.19
		c3.262-0.168,6.119-2.244,7.286-5.294l15.186-39.649l15.186,39.649c1.167,3.05,4.023,5.124,7.286,5.294l42.4,2.19L287.857,270.335z
		"/>
	<path style="fill:#121B21;" d="M468.324,82.581H43.676C19.594,82.581,0,102.174,0,126.257v259.486
		c0,24.083,19.594,43.676,43.676,43.676h424.647c24.083,0,43.676-19.594,43.676-43.676V126.257
		C512,102.174,492.406,82.581,468.324,82.581z M495.484,385.743c0,14.977-12.183,27.16-27.16,27.16H43.676
		c-14.977,0-27.16-12.183-27.16-27.16V126.257c0-14.977,12.183-27.16,27.16-27.16h424.647c14.977,0,27.16,12.183,27.16,27.16
		V385.743z"/>
</g>
<g>
</g>
<g>
</g>
<g>
</g>
<g>
</g>
<g>
</g>
<g>
</g>
<g>
</g>
<g>
</g>
<g>
</g>
<g>
</g>
<g>
</g>
<g>
</g>
<g>
</g>
<g>
</g>
<g>
</g>
</svg>
