<?xml version="1.0" encoding="iso-8859-1"?>
<!-- Generator: Adobe Illustrator 19.0.0, SVG Export Plug-In . SVG Version: 6.00 Build 0)  -->
<svg version="1.1" id="Layer_1" xmlns="http://www.w3.org/2000/svg" xmlns:xlink="http://www.w3.org/1999/xlink" x="0px" y="0px"
	 viewBox="0 0 512 512" style="enable-background:new 0 0 512 512;" xml:space="preserve">
<path style="fill:#259245;" d="M22.069,413.796c5.981,4.613,13.472,7.365,21.609,7.365h424.647c19.56,0,35.418-15.857,35.418-35.418
	v-96.71H256.001L22.069,413.796z"/>
<path style="fill:#ED1F34;" d="M468.324,90.84H43.678c-8.137,0-15.629,2.752-21.609,7.364l233.932,124.765h247.741v-96.711
	C503.742,106.696,487.885,90.84,468.324,90.84z"/>
<path style="fill:#333333;" d="M22.069,98.204c-8.396,6.476-13.809,16.631-13.809,28.053V256v129.742
	c0,11.424,5.414,21.577,13.809,28.053l233.932-124.763h247.741V256v-33.032H256.001L22.069,98.204z"/>
<g>
	<path style="fill:#FFE000;" d="M8.267,389.721c-3.014,0-5.918-1.656-7.374-4.529c-2.061-4.068-0.433-9.038,3.637-11.098
		l233.194-118.093L4.529,137.906c-4.068-2.06-5.697-7.029-3.637-11.098c2.061-4.07,7.03-5.698,11.098-3.637l247.741,125.46
		c2.777,1.406,4.528,4.255,4.528,7.367s-1.751,5.961-4.528,7.367L11.99,388.827C10.795,389.433,9.521,389.721,8.267,389.721z"/>
	<path style="fill:#FFE000;" d="M87.304,292.336c-4.561,0-8.258-3.697-8.258-8.258c0-4.561,3.697-8.258,8.258-8.258
		c10.928,0,19.819-8.891,19.819-19.819s-8.891-19.819-19.819-19.819S67.485,245.072,67.485,256c0,4.561-3.697,8.258-8.258,8.258
		s-8.258-3.697-8.258-8.258c0-20.035,16.3-36.335,36.335-36.335s36.335,16.3,36.335,36.335S107.339,292.336,87.304,292.336z"/>
	<path style="fill:#FFE000;" d="M503.742,264.258H256.001c-4.561,0-8.258-3.697-8.258-8.258s3.697-8.258,8.258-8.258h247.741
		c4.561,0,8.258,3.697,8.258,8.258S508.303,264.258,503.742,264.258z"/>
</g>
<path style="fill:#111A21;" d="M468.324,82.582H43.678c-9.851,0-18.948,3.282-26.264,8.805c-0.285,0.195-0.557,0.412-0.818,0.643
	c-10.098,8.006-16.594,20.369-16.594,34.227v259.486c0,13.908,6.543,26.308,16.701,34.313c0.177,0.152,0.36,0.295,0.549,0.432
	c7.343,5.598,16.501,8.932,26.425,8.932h424.647c24.083,0,43.676-19.592,43.676-43.676V126.257
	C512,102.174,492.407,82.582,468.324,82.582z M468.324,99.098c14.976,0,27.16,12.183,27.16,27.16v88.453H258.066L41.474,99.195
	c0.728-0.058,1.461-0.097,2.203-0.097H468.324z M468.324,412.903H43.678c-0.742,0-1.475-0.039-2.203-0.097L258.066,297.29h179.612
	c4.561,0,8.258-3.697,8.258-8.258s-3.697-8.258-8.258-8.258H256.001c-1.355,0-2.69,0.334-3.886,0.971l-228.75,122
	c-4.256-4.796-6.848-11.101-6.848-18.003V126.257c0-6.902,2.592-13.206,6.848-18.003l228.75,122c1.196,0.638,2.53,0.971,3.886,0.971
	h239.483v49.548H470.71c-4.561,0-8.258,3.697-8.258,8.258s3.697,8.258,8.258,8.258h24.774v88.452
	C495.484,400.718,483.3,412.903,468.324,412.903z"/>
<g>
</g>
<g>
</g>
<g>
</g>
<g>
</g>
<g>
</g>
<g>
</g>
<g>
</g>
<g>
</g>
<g>
</g>
<g>
</g>
<g>
</g>
<g>
</g>
<g>
</g>
<g>
</g>
<g>
</g>
</svg>
