<?xml version="1.0" encoding="iso-8859-1"?>
<!-- Generator: Adobe Illustrator 19.0.0, SVG Export Plug-In . SVG Version: 6.00 Build 0)  -->
<svg version="1.1" id="Layer_1" xmlns="http://www.w3.org/2000/svg" xmlns:xlink="http://www.w3.org/1999/xlink" x="0px" y="0px"
	 viewBox="0 0 512 512" style="enable-background:new 0 0 512 512;" xml:space="preserve">
<path style="fill:#ED1F34;" d="M8.258,382.073V129.927c0-21.588,17.5-39.088,39.088-39.088h417.308
	c21.588,0,39.088,17.5,39.088,39.088v252.146c0,21.588-17.5,39.088-39.088,39.088H47.346
	C25.759,421.161,8.258,403.661,8.258,382.073z"/>
<path style="fill:#103B9B;" d="M8.258,256H256V90.839H42.942c-19.155,0-34.684,15.528-34.684,34.684V256z"/>
<g>
	<circle style="fill:#FFFFFF;" cx="135.058" cy="126.414" r="11.011"/>
	<circle style="fill:#FFFFFF;" cx="135.058" cy="220.424" r="11.011"/>
	<circle style="fill:#FFFFFF;" cx="167.452" cy="144.516" r="11.011"/>
	<circle style="fill:#FFFFFF;" cx="102.653" cy="162.618" r="11.011"/>
	<circle style="fill:#FFFFFF;" cx="151.255" cy="178.022" r="8.258"/>
</g>
<path style="fill:#111A21;" d="M468.324,82.581H43.676C19.594,82.581,0,102.173,0,126.256v259.487
	c0,24.084,19.594,43.676,43.676,43.676h424.647c24.083,0,43.676-19.593,43.676-43.676V126.256
	C512,102.173,492.406,82.581,468.324,82.581z M495.484,385.743c0,14.977-12.183,27.16-27.16,27.16H43.676
	c-14.977,0-27.16-12.183-27.16-27.16V264.258H256c4.562,0,8.258-3.697,8.258-8.258v-99.097c0-4.561-3.696-8.258-8.258-8.258
	c-4.562,0-8.258,3.697-8.258,8.258v90.839H16.516V126.256c0-14.976,12.183-27.159,27.16-27.159h204.066v24.774
	c0,4.561,3.696,8.258,8.258,8.258c4.562,0,8.258-3.697,8.258-8.258V99.097h204.066c14.977,0,27.16,12.183,27.16,27.159V385.743z"/>
<g>
</g>
<g>
</g>
<g>
</g>
<g>
</g>
<g>
</g>
<g>
</g>
<g>
</g>
<g>
</g>
<g>
</g>
<g>
</g>
<g>
</g>
<g>
</g>
<g>
</g>
<g>
</g>
<g>
</g>
</svg>
