<?xml version="1.0" encoding="iso-8859-1"?>
<!-- Generator: Adobe Illustrator 19.0.0, SVG Export Plug-In . SVG Version: 6.00 Build 0)  -->
<svg version="1.1" id="Layer_1" xmlns="http://www.w3.org/2000/svg" xmlns:xlink="http://www.w3.org/1999/xlink" x="0px" y="0px"
	 viewBox="0 0 512 512" style="enable-background:new 0 0 512 512;" xml:space="preserve">
<path style="fill:#103B9B;" d="M8.258,385.927V126.073c0-19.459,15.775-35.234,35.234-35.234h425.015
	c19.459,0,35.234,15.775,35.234,35.234v259.854c0,19.459-15.775,35.234-35.234,35.234H43.492
	C24.033,421.161,8.258,405.386,8.258,385.927z"/>
<g>
	<circle style="fill:#FFFFFF;" cx="232.371" cy="161.153" r="11.404"/>
	<circle style="fill:#FFFFFF;" cx="184.232" cy="167.154" r="11.403"/>
	<circle style="fill:#FFFFFF;" cx="137.216" cy="179.145" r="11.402"/>
	<circle style="fill:#FFFFFF;" cx="279.629" cy="161.153" r="11.404"/>
	<circle style="fill:#FFFFFF;" cx="327.768" cy="167.154" r="11.403"/>
	<circle style="fill:#FFFFFF;" cx="374.784" cy="179.145" r="11.402"/>
</g>
<path style="fill:#F2A643;" d="M282.299,217.158c-8.087-3.428-16.981-5.325-26.318-5.325c-8.323,0-16.29,1.515-23.652,4.271
	c2.668,5.367,4.175,11.412,4.175,17.811c0,22.135-17.944,40.079-40.079,40.079c-2.619,0-5.177-0.259-7.657-0.739l54.045,88.998
	c6.802,0,12.318-5.515,12.318-12.318v-3.125c0.284,0.003,0.565,0.022,0.85,0.022c35.394,0,64.405-27.247,67.25-61.907
	L282.299,217.158z"/>
<g>
	<path style="fill:#121B21;" d="M289.368,212.888c-0.9-1.489-2.245-2.655-3.846-3.333c-9.361-3.967-19.3-5.979-29.54-5.979
		c-9.113,0-18.044,1.613-26.547,4.795c-2.19,0.819-3.93,2.529-4.789,4.704c-0.858,2.176-0.753,4.612,0.287,6.706
		c2.198,4.421,3.312,9.176,3.312,14.135c0,17.547-14.274,31.821-31.821,31.821c-2.022,0-4.07-0.198-6.087-0.589
		c-3.212-0.622-6.481,0.708-8.347,3.389c-1.866,2.682-1.976,6.212-0.281,9.005l54.045,88.999c1.497,2.465,4.173,3.972,7.059,3.972
		c9.676,0,17.813-6.713,19.999-15.727c16.623-1.492,32.257-8.408,44.611-19.85c13.951-12.92,22.487-30.44,24.039-49.334
		c0.142-1.73-0.264-3.461-1.162-4.945L289.368,212.888z M255.99,338.574l-0.194-0.006c-0.185-0.007-0.37-0.012-0.556-0.015
		c-2.233-0.028-4.337,0.828-5.909,2.381c-1.572,1.551-2.456,3.669-2.456,5.878v3.125c0,0.774-0.218,1.497-0.595,2.113
		l-42.705-70.325c23.276-3.466,41.189-23.585,41.189-47.81c0-4.25-0.54-8.405-1.611-12.427c4.194-0.929,8.485-1.397,12.831-1.397
		c7.137,0,14.083,1.246,20.681,3.708l38.069,63.026C311.025,316.047,285.708,338.574,255.99,338.574z"/>
	<path style="fill:#121B21;" d="M468.324,82.581H43.676C19.593,82.581,0,102.173,0,126.256v259.487
		c0,24.084,19.593,43.676,43.676,43.676h424.648c24.083,0,43.675-19.593,43.675-43.676V126.256
		C512,102.173,492.407,82.581,468.324,82.581z M495.484,385.743c0,14.977-12.183,27.16-27.16,27.16H43.676
		c-14.977,0-27.16-12.183-27.16-27.16V126.256c0-14.976,12.183-27.159,27.16-27.159h424.648c14.976,0,27.159,12.183,27.159,27.159
		V385.743z"/>
</g>
<g>
</g>
<g>
</g>
<g>
</g>
<g>
</g>
<g>
</g>
<g>
</g>
<g>
</g>
<g>
</g>
<g>
</g>
<g>
</g>
<g>
</g>
<g>
</g>
<g>
</g>
<g>
</g>
<g>
</g>
</svg>
