<?xml version="1.0" encoding="iso-8859-1"?>
<!-- Generator: Adobe Illustrator 19.0.0, SVG Export Plug-In . SVG Version: 6.00 Build 0)  -->
<svg version="1.1" id="Layer_1" xmlns="http://www.w3.org/2000/svg" xmlns:xlink="http://www.w3.org/1999/xlink" x="0px" y="0px"
	 viewBox="0 0 512.001 512.001" style="enable-background:new 0 0 512.001 512.001;" xml:space="preserve">
<path style="fill:#164FCE;" d="M22.004,413.745c5.991,4.644,13.507,7.416,21.674,7.416h424.647
	c19.561,0,35.418-15.857,35.418-35.418v-98.288H256.062L22.004,413.745z"/>
<path style="fill:#ED1F34;" d="M468.325,90.84H43.677c-8.167,0-15.683,2.772-21.674,7.416l234.051,126.285h247.689v-98.284
	C503.742,106.696,487.885,90.84,468.325,90.84z"/>
<path style="fill:#048B7D;" d="M22.004,98.255c-8.358,6.479-13.745,16.609-13.745,28.002v259.485
	c0,11.394,5.385,21.524,13.744,28.003l234.058-126.29h247.681v-62.914H256.053L22.004,98.255z"/>
<polygon style="fill:#ED1F34;" points="8.259,166.446 8.259,345.554 174.233,256.001 "/>
<polyline style="fill:#333333;" points="8.259,345.554 174.233,256.001 8.259,166.446 "/>
<path style="fill:#FFE000;" d="M8.267,353.813c-2.938,0-5.782-1.571-7.275-4.337c-2.166-4.015-0.667-9.023,3.346-11.189
	l152.504-82.285L4.338,173.714c-4.013-2.166-5.512-7.176-3.346-11.189c2.167-4.013,7.178-5.512,11.189-3.346l165.974,89.554
	c2.671,1.442,4.337,4.233,4.337,7.268c0,3.036-1.665,5.826-4.337,7.268L12.181,352.821C10.934,353.495,9.59,353.813,8.267,353.813z"
	/>
<g>
	<path style="fill:#FFFFFF;" d="M503.742,232.799H256.053c-1.369,0-2.716-0.341-3.922-0.99L19.753,106.915
		c-4.013-2.166-5.512-7.176-3.346-11.189c2.167-4.015,7.178-5.513,11.189-3.346l230.543,123.903h245.603
		c4.561,0,8.258,3.696,8.258,8.258C512,229.102,508.304,232.799,503.742,232.799z"/>
	<path style="fill:#FFFFFF;" d="M23.682,419.511c-2.938,0-4.681-1.571-6.174-4.337c-2.166-4.014-0.667-9.023,3.346-11.189
		L252.14,280.188c1.205-0.65,2.552-0.99,3.921-0.99h247.681c4.561,0,8.258,3.696,8.258,8.258c0,4.562-3.697,8.258-8.258,8.258
		H258.148L28.697,418.519C27.45,419.193,25.005,419.511,23.682,419.511z"/>
</g>
<path style="fill:#111A21;" d="M468.325,429.419H43.677c-24.083,0-43.676-19.594-43.676-43.676V126.258
	c0-24.083,19.592-43.676,43.676-43.676h424.647c24.083,0,43.676,19.594,43.676,43.676v259.485
	C512,409.826,492.407,429.419,468.325,429.419z M43.677,99.098c-14.976,0-27.16,12.183-27.16,27.16v259.485
	c0,14.977,12.183,27.16,27.16,27.16h424.647c14.976,0,27.16-12.183,27.16-27.16V126.258c0-14.977-12.183-27.16-27.16-27.16H43.677z"
	/>
<g>
</g>
<g>
</g>
<g>
</g>
<g>
</g>
<g>
</g>
<g>
</g>
<g>
</g>
<g>
</g>
<g>
</g>
<g>
</g>
<g>
</g>
<g>
</g>
<g>
</g>
<g>
</g>
<g>
</g>
</svg>
