<?xml version="1.0" encoding="iso-8859-1"?>
<!-- Generator: Adobe Illustrator 19.0.0, SVG Export Plug-In . SVG Version: 6.00 Build 0)  -->
<svg version="1.1" id="Layer_1" xmlns="http://www.w3.org/2000/svg" xmlns:xlink="http://www.w3.org/1999/xlink" x="0px" y="0px"
	 viewBox="0 0 512 512" style="enable-background:new 0 0 512 512;" xml:space="preserve">
<path style="fill:#259245;" d="M503.742,127.981v256.036c0,20.513-16.63,37.143-37.143,37.143H45.401
	c-20.513,0-37.143-16.63-37.143-37.143V127.981c0-20.513,16.63-37.143,37.143-37.143h421.198
	C487.112,90.839,503.742,107.468,503.742,127.981z"/>
<path style="fill:#FF7900;" d="M448.688,421.161V200.946h55.054v184.67c0,19.631-15.914,35.545-35.545,35.545L448.688,421.161
	L448.688,421.161z"/>
<rect x="338.581" y="200.946" style="fill:#ED1F34;" width="55.054" height="220.215"/>
<rect x="393.634" y="200.946" style="fill:#333333;" width="55.054" height="220.215"/>
<g>
	<path style="fill:#111A21;" d="M474.35,130.477h-35.024c-1.996,0-3.923,0.722-5.427,2.034l-12.737,11.105l-12.737-11.105
		c-1.504-1.31-3.431-2.034-5.427-2.034h-35.024c-4.562,0-8.258,3.696-8.258,8.258s3.696,8.258,8.258,8.258h31.929l15.832,13.803
		c1.555,1.355,3.492,2.034,5.427,2.034c1.936,0,3.872-0.677,5.427-2.034l15.832-13.803h31.929c4.562,0,8.258-3.696,8.258-8.258
		C482.608,134.174,478.91,130.477,474.35,130.477z"/>
	<path style="fill:#111A21;" d="M468.324,82.581H43.676C19.594,82.581,0,102.174,0,126.257v259.486
		c0,24.083,19.594,43.676,43.676,43.676h424.647c24.083,0,43.676-19.594,43.676-43.676V126.257
		C512,102.174,492.406,82.581,468.324,82.581z M495.484,192.688H338.581c-4.562,0-8.258,3.696-8.258,8.258v154.151
		c0,4.562,3.696,8.258,8.258,8.258s8.258-3.696,8.258-8.258V209.204h148.645v176.539c0,14.977-12.183,27.16-27.16,27.16H346.839
		v-24.774c0-4.562-3.696-8.258-8.258-8.258s-8.258,3.696-8.258,8.258v24.774H43.676c-14.977,0-27.16-12.183-27.16-27.16V126.257
		c0-14.977,12.183-27.16,27.16-27.16h424.647c14.977,0,27.16,12.183,27.16,27.16V192.688z"/>
</g>
<g>
</g>
<g>
</g>
<g>
</g>
<g>
</g>
<g>
</g>
<g>
</g>
<g>
</g>
<g>
</g>
<g>
</g>
<g>
</g>
<g>
</g>
<g>
</g>
<g>
</g>
<g>
</g>
<g>
</g>
</svg>
