<?xml version="1.0" encoding="iso-8859-1"?>
<!-- Generator: Adobe Illustrator 19.0.0, SVG Export Plug-In . SVG Version: 6.00 Build 0)  -->
<svg version="1.1" id="Layer_1" xmlns="http://www.w3.org/2000/svg" xmlns:xlink="http://www.w3.org/1999/xlink" x="0px" y="0px"
	 viewBox="0 0 512 512" style="enable-background:new 0 0 512 512;" xml:space="preserve">
<rect x="8.258" y="232.404" style="fill:#333333;" width="495.484" height="47.192"/>
<g>
	<rect x="8.258" y="279.596" style="fill:#ED1F34;" width="495.484" height="47.192"/>
	<rect x="8.258" y="185.212" style="fill:#ED1F34;" width="495.484" height="47.192"/>
</g>
<g>
	<rect x="8.258" y="326.788" style="fill:#FFE000;" width="495.484" height="47.181"/>
	<rect x="8.258" y="138.031" style="fill:#FFE000;" width="495.484" height="47.181"/>
</g>
<g>
	<path style="fill:#259245;" d="M43.676,421.161h424.648c19.561,0,35.418-15.857,35.418-35.418v-11.774H79.046l-58.228,38.82
		C26.987,418.009,34.961,421.161,43.676,421.161z"/>
	<path style="fill:#259245;" d="M468.324,90.839H43.676c-8.714,0-16.689,3.152-22.858,8.373l58.228,38.819h424.696v-11.774
		C503.742,106.695,487.885,90.839,468.324,90.839z"/>
</g>
<path style="fill:#111A21;" d="M462.452,138.031c0-4.562,3.696-8.258,8.258-8.258h33.032c4.562,0,8.258,3.696,8.258,8.258
	c0,4.562-3.696,8.258-8.258,8.258H470.71C466.148,146.289,462.452,142.593,462.452,138.031z M8.258,146.289h429.419
	c4.562,0,8.258-3.696,8.258-8.258c0-4.562-3.696-8.258-8.258-8.258H8.258c-4.561,0-8.258,3.696-8.258,8.258
	C0,142.593,3.697,146.289,8.258,146.289z M8.258,193.47h495.484c4.562,0,8.258-3.697,8.258-8.258c0-4.562-3.696-8.258-8.258-8.258
	H8.258c-4.561,0-8.258,3.696-8.258,8.258C0,189.773,3.697,193.47,8.258,193.47z M503.742,224.146H8.258
	c-4.561,0-8.258,3.696-8.258,8.258c0,4.562,3.697,8.258,8.258,8.258h495.484c4.562,0,8.258-3.696,8.258-8.258
	C512,227.843,508.304,224.146,503.742,224.146z M503.742,271.338H8.258c-4.561,0-8.258,3.696-8.258,8.258s3.697,8.258,8.258,8.258
	h495.484c4.562,0,8.258-3.696,8.258-8.258C512,275.034,508.304,271.338,503.742,271.338z M8.258,335.046h396.387
	c4.562,0,8.258-3.696,8.258-8.258s-3.696-8.258-8.258-8.258H8.258c-4.561,0-8.258,3.696-8.258,8.258S3.697,335.046,8.258,335.046z
	 M503.742,318.53h-66.065c-4.562,0-8.258,3.696-8.258,8.258s3.696,8.258,8.258,8.258h66.065c4.562,0,8.258-3.696,8.258-8.258
	S508.304,318.53,503.742,318.53z M503.742,365.711H8.258c-4.561,0-8.258,3.697-8.258,8.258c0,4.562,3.697,8.258,8.258,8.258h495.484
	c4.562,0,8.258-3.696,8.258-8.258C512,369.407,508.304,365.711,503.742,365.711z"/>
<path style="fill:#FFFFFF;" d="M8.258,126.257v11.774v235.938v11.774c0,10.847,4.881,20.548,12.56,27.046l58.228-38.819L256,256
	L79.046,138.031l-58.229-38.82C13.139,105.709,8.258,115.41,8.258,126.257z"/>
<polygon style="fill:#ED1F34;" points="31.931,237.335 77.737,234.967 94.142,192.135 110.547,234.967 156.353,237.335 
	120.687,266.173 132.59,310.467 94.142,285.458 55.693,310.467 67.597,266.173 "/>
<path style="fill:#FFE000;" d="M125.802,264.019L125.802,264.019L125.802,264.019l-36.289-30.637v-10.68
	c0-7.242-5.872-13.115-13.116-13.115c-7.243,0-13.115,5.873-13.115,13.115v41.318l7.978,27.047h46.563L125.802,264.019
	L125.802,264.019L125.802,264.019z"/>
<g>
	<path style="fill:#111A21;" d="M141.784,266.706l-10.653-8.994c0,0-0.001-0.001-0.002-0.002h-0.001L97.77,229.547v-6.844
		c0-11.785-9.588-21.373-21.374-21.373c-8.859,0-16.474,5.419-19.71,13.115h-2.84c-4.561,0-8.258,3.696-8.258,8.258
		c0,4.562,3.697,8.258,8.258,8.258h1.177v33.059c0,0.362,0.031,0.717,0.076,1.067c0.011,0.085,0.025,0.167,0.039,0.252
		c0.052,0.319,0.119,0.633,0.206,0.939c0.008,0.025,0.01,0.053,0.017,0.078l0.023,0.079c0.007,0.021,0.012,0.041,0.018,0.062
		l7.937,26.906c1.035,3.511,4.26,5.922,7.92,5.922h46.563c3.661,0,6.885-2.41,7.92-5.922l4.399-14.912l0.988,0.834
		c1.55,1.309,3.442,1.949,5.324,1.949c2.349,0,4.681-0.995,6.315-2.931C145.709,274.857,145.269,269.648,141.784,266.706z
		 M76.397,217.846c2.679,0,4.858,2.179,4.858,4.857v10.679c0,2.432,1.072,4.741,2.931,6.31l19.034,16.07H71.539v-33.059
		C71.539,220.023,73.718,217.846,76.397,217.846z M77.433,282.809l-3.106-10.531h40.429l-3.106,10.531H77.433z"/>
	<path style="fill:#111A21;" d="M468.324,82.581H43.676c-10.579,0-20.291,3.783-27.856,10.065c-0.295,0.226-0.581,0.467-0.848,0.734
		C5.806,101.393,0,113.156,0,126.257v259.486c0,13.167,5.865,24.982,15.11,32.997c0.192,0.185,0.392,0.355,0.598,0.519
		c7.582,6.337,17.335,10.161,27.968,10.161h424.648c24.082,0,43.675-19.594,43.675-43.676V126.257
		C512,102.174,492.406,82.581,468.324,82.581z M21.994,402.08c-3.436-4.551-5.478-10.209-5.478-16.337V126.257
		c0-6.127,2.041-11.786,5.478-16.336L241.112,256L21.994,402.08z M495.484,385.743c0,14.977-12.183,27.16-27.16,27.16H43.676
		c-2.361,0-4.65-0.304-6.835-0.872l223.74-149.16c2.298-1.532,3.678-4.109,3.678-6.871s-1.38-5.34-3.678-6.871L36.84,99.969
		c2.186-0.568,4.476-0.872,6.837-0.872h424.648c14.976,0,27.159,12.183,27.159,27.16V385.743z"/>
</g>
<g>
</g>
<g>
</g>
<g>
</g>
<g>
</g>
<g>
</g>
<g>
</g>
<g>
</g>
<g>
</g>
<g>
</g>
<g>
</g>
<g>
</g>
<g>
</g>
<g>
</g>
<g>
</g>
<g>
</g>
</svg>
